<?xml version="1.0" encoding="UTF-8"?>
<svg xmlns="http://www.w3.org/2000/svg" xmlns:xlink="http://www.w3.org/1999/xlink" width="135pt" height="135pt" viewBox="0 0 135 135" version="1.1">
<g id="surface1">
<path style=" stroke:none;fill-rule:nonzero;fill:rgb(99.607843%,78.039216%,28.627451%);fill-opacity:1;" d="M 132.8125 67.5 C 132.8125 103.570312 103.570312 132.8125 67.5 132.8125 C 31.429688 132.8125 2.1875 103.570312 2.1875 67.5 C 2.1875 31.429688 31.429688 2.1875 67.5 2.1875 C 103.570312 2.1875 132.8125 31.429688 132.8125 67.5 Z M 132.8125 67.5 "/>
<path style=" stroke:none;fill-rule:nonzero;fill:rgb(100%,56.078431%,61.568627%);fill-opacity:1;" d="M 57.761719 92.96875 L 57.804688 106.78125 L 50.855469 110.171875 L 63.527344 110.171875 L 63.53125 95.121094 Z M 57.761719 92.96875 "/>
<path style=" stroke:none;fill-rule:nonzero;fill:rgb(100%,56.078431%,61.568627%);fill-opacity:1;" d="M 83.394531 92.957031 L 83.394531 106.769531 L 90.34375 110.164062 L 77.671875 110.164062 L 77.683594 95.347656 Z M 83.394531 92.957031 "/>
<path style=" stroke:none;fill-rule:nonzero;fill:rgb(0.392157%,60.392157%,33.72549%);fill-opacity:1;" d="M 109.546875 60.375 C 109.546875 64.207031 103.085938 66.976562 101.960938 70.433594 C 100.796875 74.019531 104.359375 80.046875 102.1875 83.03125 C 99.992188 86.046875 93.144531 84.511719 90.132812 86.707031 C 87.144531 88.875 86.5 95.875 82.917969 97.035156 C 79.457031 98.160156 74.839844 92.910156 71.003906 92.910156 C 67.167969 92.910156 62.550781 98.160156 59.089844 97.035156 C 55.5 95.875 54.859375 88.875 51.875 86.699219 C 48.859375 84.507812 42.015625 86.042969 39.820312 83.027344 C 37.648438 80.042969 41.207031 74.015625 40.042969 70.429688 C 38.917969 66.96875 32.460938 64.203125 32.460938 60.367188 C 32.460938 56.535156 38.921875 53.769531 40.042969 50.308594 C 41.207031 46.722656 37.648438 40.695312 39.820312 37.710938 C 42.015625 34.695312 48.859375 36.230469 51.875 34.039062 C 54.859375 31.863281 55.5 24.867188 59.089844 23.703125 C 62.550781 22.578125 67.167969 27.828125 71.003906 27.828125 C 74.835938 27.828125 79.457031 22.578125 82.914062 23.703125 C 86.5 24.867188 87.144531 31.863281 90.128906 34.039062 C 93.144531 36.230469 99.992188 34.695312 102.183594 37.710938 C 104.359375 40.695312 100.796875 46.722656 101.960938 50.308594 C 103.085938 53.769531 109.546875 56.535156 109.546875 60.375 Z M 109.546875 60.375 "/>
<path style="fill:none;stroke-width:10;stroke-linecap:butt;stroke-linejoin:round;stroke:rgb(0%,0%,0%);stroke-opacity:1;stroke-miterlimit:4;" d="M 309.09375 384.25 C 309.09375 400.96875 293.46875 414.5625 274.1875 414.5625 C 254.90625 414.5625 239.28125 400.96875 239.28125 384.25 " transform="matrix(0.125,0,0,0.125,0,0)"/>
<path style="fill:none;stroke-width:10;stroke-linecap:butt;stroke-linejoin:round;stroke:rgb(0%,0%,0%);stroke-opacity:1;stroke-miterlimit:4;" d="M 439.5 384.25 C 439.5 400.96875 423.875 414.5625 404.59375 414.5625 C 385.3125 414.5625 369.65625 400.96875 369.65625 384.25 " transform="matrix(0.125,0,0,0.125,0,0)"/>
<path style="fill:none;stroke-width:11;stroke-linecap:round;stroke-linejoin:round;stroke:rgb(0%,0%,0%);stroke-opacity:1;stroke-miterlimit:4;" d="M 422.25 465.28125 C 422.25 484.90625 396.09375 500.8125 363.84375 500.8125 C 331.59375 500.8125 305.46875 484.90625 305.46875 465.28125 " transform="matrix(0.125,0,0,0.125,0,0)"/>
<path style="fill:none;stroke-width:10;stroke-linecap:round;stroke-linejoin:round;stroke:rgb(0%,0%,0%);stroke-opacity:1;stroke-miterlimit:4;" d="M 439.5 472.09375 C 427.875 472.09375 418.46875 462.6875 418.46875 451.0625 " transform="matrix(0.125,0,0,0.125,0,0)"/>
<path style="fill:none;stroke-width:10;stroke-linecap:round;stroke-linejoin:round;stroke:rgb(0%,0%,0%);stroke-opacity:1;stroke-miterlimit:4;" d="M 289.5625 469.65625 C 301.1875 469.65625 310.625 460.25 310.625 448.625 " transform="matrix(0.125,0,0,0.125,0,0)"/>
<path style=" stroke:none;fill-rule:nonzero;fill:rgb(100%,56.078431%,61.568627%);fill-opacity:1;" d="M 66.078125 54.371094 C 65.84375 52.921875 64.058594 52.007812 62.09375 52.328125 C 60.132812 52.652344 58.734375 54.085938 58.972656 55.535156 C 59.210938 56.984375 60.992188 57.902344 62.957031 57.578125 C 64.917969 57.257812 66.316406 55.820312 66.078125 54.371094 Z M 66.078125 54.371094 "/>
<path style=" stroke:none;fill-rule:nonzero;fill:rgb(100%,56.078431%,61.568627%);fill-opacity:1;" d="M 30.082031 61.953125 C 29.84375 60.503906 28.0625 59.589844 26.097656 59.910156 C 24.136719 60.230469 22.738281 61.667969 22.972656 63.117188 C 23.210938 64.566406 24.996094 65.480469 26.957031 65.160156 C 28.921875 64.839844 30.320312 63.402344 30.082031 61.953125 Z M 30.082031 61.953125 "/>
</g>
</svg>
