<?xml version="1.0" encoding="UTF-8"?>
<svg xmlns="http://www.w3.org/2000/svg" xmlns:xlink="http://www.w3.org/1999/xlink" width="50pt" height="50pt" viewBox="0 0 50 50" version="1.1">
<g id="surface1">
<path style=" stroke:none;fill-rule:nonzero;fill:rgb(67.058824%,67.058824%,67.058824%);fill-opacity:1;" d="M 49.34375 24.503906 C 49.34375 26.832031 43.582031 28.222656 42.902344 30.324219 C 42.191406 32.503906 46.011719 37.011719 44.691406 38.824219 C 43.359375 40.65625 37.886719 38.410156 36.054688 39.742188 C 34.238281 41.0625 34.691406 46.96875 32.515625 47.675781 C 30.410156 48.359375 27.3125 43.335938 24.984375 43.335938 C 22.65625 43.335938 19.558594 48.359375 17.457031 47.675781 C 15.277344 46.96875 15.726562 41.0625 13.914062 39.742188 C 12.082031 38.410156 6.609375 40.65625 5.277344 38.824219 C 3.957031 37.007812 7.773438 32.503906 7.066406 30.324219 C 6.382812 28.222656 0.625 26.832031 0.625 24.503906 C 0.625 22.171875 6.386719 20.78125 7.066406 18.679688 C 7.777344 16.503906 3.957031 11.996094 5.277344 10.183594 C 6.609375 8.351562 12.082031 10.597656 13.914062 9.261719 C 15.730469 7.941406 15.277344 2.035156 17.457031 1.328125 C 19.558594 0.644531 22.65625 5.671875 24.984375 5.671875 C 27.3125 5.671875 30.410156 0.648438 32.515625 1.328125 C 34.691406 2.039062 34.242188 7.941406 36.054688 9.261719 C 37.886719 10.597656 43.359375 8.351562 44.691406 10.183594 C 46.011719 11.996094 42.195312 16.503906 42.902344 18.679688 C 43.585938 20.78125 49.34375 22.171875 49.34375 24.503906 Z M 49.34375 24.503906 "/>
<path style=" stroke:none;fill-rule:nonzero;fill:rgb(100%,100%,100%);fill-opacity:1;" d="M 45.746094 24.503906 C 45.746094 26.445312 40.046875 27.460938 39.476562 29.214844 C 38.890625 31.027344 42.878906 35.199219 41.78125 36.710938 C 40.671875 38.234375 35.464844 35.71875 33.9375 36.832031 C 32.425781 37.933594 33.21875 43.664062 31.402344 44.25 C 29.648438 44.820312 26.925781 39.738281 24.984375 39.738281 C 23.042969 39.738281 20.320312 44.820312 18.566406 44.253906 C 16.753906 43.664062 17.542969 37.933594 16.03125 36.832031 C 14.503906 35.722656 9.300781 38.238281 8.1875 36.710938 C 7.089844 35.199219 11.078125 31.03125 10.492188 29.214844 C 9.921875 27.460938 4.222656 26.445312 4.222656 24.503906 C 4.222656 22.5625 9.921875 21.546875 10.492188 19.792969 C 11.078125 17.976562 7.089844 13.808594 8.1875 12.296875 C 9.300781 10.773438 14.503906 13.285156 16.03125 12.175781 C 17.542969 11.074219 16.753906 5.34375 18.566406 4.753906 C 20.320312 4.183594 23.042969 9.269531 24.984375 9.269531 C 26.925781 9.269531 29.648438 4.183594 31.402344 4.753906 C 33.214844 5.34375 32.425781 11.074219 33.9375 12.171875 C 35.464844 13.285156 40.671875 10.769531 41.78125 12.296875 C 42.878906 13.808594 38.890625 17.976562 39.476562 19.792969 C 40.046875 21.546875 45.746094 22.5625 45.746094 24.503906 Z M 45.746094 24.503906 "/>
<path style=" stroke:none;fill-rule:nonzero;fill:rgb(67.058824%,67.058824%,67.058824%);fill-opacity:1;" d="M 42.746094 24.503906 C 42.746094 26.121094 37.097656 26.828125 36.625 28.285156 C 36.132812 29.800781 40.269531 33.6875 39.355469 34.945312 C 38.429688 36.21875 33.445312 33.476562 32.175781 34.40625 C 30.902344 35.332031 31.988281 40.90625 30.472656 41.398438 C 29.015625 41.871094 26.605469 36.742188 24.984375 36.742188 C 23.363281 36.742188 20.957031 41.871094 19.496094 41.398438 C 17.980469 40.90625 19.054688 35.320312 17.792969 34.40625 C 16.523438 33.476562 11.542969 36.21875 10.613281 34.945312 C 9.699219 33.683594 13.835938 29.800781 13.34375 28.285156 C 12.871094 26.828125 7.222656 26.121094 7.222656 24.503906 C 7.222656 22.886719 12.871094 22.179688 13.34375 20.722656 C 13.835938 19.207031 9.699219 15.320312 10.613281 14.0625 C 11.542969 12.789062 16.523438 15.527344 17.792969 14.601562 C 19.058594 13.683594 17.980469 8.097656 19.496094 7.605469 C 20.957031 7.132812 23.363281 12.265625 24.984375 12.265625 C 26.605469 12.265625 29.011719 7.132812 30.472656 7.605469 C 31.988281 8.097656 30.914062 13.683594 32.175781 14.601562 C 33.433594 15.519531 38.429688 12.785156 39.355469 14.0625 C 40.269531 15.324219 36.132812 19.207031 36.625 20.722656 C 37.097656 22.179688 42.746094 22.886719 42.746094 24.503906 Z M 42.746094 24.503906 "/>
<path style="fill:none;stroke-width:10;stroke-linecap:round;stroke-linejoin:round;stroke:rgb(0%,0%,0%);stroke-opacity:1;stroke-miterlimit:4;" d="M 502.049163 344.020217 C 502.049163 362.477818 484.779184 377.471525 463.500985 377.471525 C 442.222786 377.471525 425.002291 362.477818 425.002291 344.020217 " transform="matrix(0.0789394,0,0,0.0789394,-16.932224,-6.91455)"/>
<path style="fill:none;stroke-width:10;stroke-linecap:round;stroke-linejoin:round;stroke:rgb(0%,0%,0%);stroke-opacity:1;stroke-miterlimit:4;" d="M 637.042014 344.020217 C 637.042014 362.477818 619.772034 377.471525 598.493836 377.471525 C 577.215637 377.471525 559.995141 362.477818 559.995141 344.020217 " transform="matrix(0.0789394,0,0,0.0789394,-16.932224,-6.91455)"/>
<path style="fill:none;stroke-width:11;stroke-linecap:round;stroke-linejoin:round;stroke:rgb(0%,0%,0%);stroke-opacity:1;stroke-miterlimit:4;" d="M 560.044626 407.261003 C 560.044626 425.768087 547.030286 440.712311 531.046895 440.712311 C 515.063504 440.712311 502.049163 425.718603 502.049163 407.261003 " transform="matrix(0.0789394,0,0,0.0789394,-16.932224,-6.91455)"/>
</g>
</svg>
