<?xml version="1.0" encoding="UTF-8"?><svg xmlns="http://www.w3.org/2000/svg" xmlns:xlink="http://www.w3.org/1999/xlink" width="224.87999pt" zoomAndPan="magnify" viewBox="0 0 224.87999 225" height="225pt" preserveAspectRatio="xMidYMid meet" version="1.2"><defs><clipPath xml:id="clip1" id="clip1"><path d="M 71 190 L 97 190 L 97 224.9375 L 71 224.9375 Z M 71 190 "/></clipPath><clipPath xml:id="clip2" id="clip2"><path d="M 125 190 L 152 190 L 152 224.9375 L 125 224.9375 Z M 125 190 "/></clipPath><clipPath xml:id="clip3" id="clip3"><path d="M 187 27 L 224.761719 27 L 224.761719 63 L 187 63 Z M 187 27 "/></clipPath><clipPath xml:id="clip4" id="clip4"><path d="M 146 25.148438 L 180 25.148438 L 180 57 L 146 57 Z M 146 25.148438 "/></clipPath></defs><g xml:id="surface1" id="surface1"><path style=" stroke:none;fill-rule:nonzero;fill:rgb(2.749634%,47.059631%,78.039551%);fill-opacity:1;" d="M 1.4375 130.265625 L 8.578125 136.121094 C 11.601562 138.613281 14.925781 140.609375 18.546875 142.105469 L 19.253906 142.398438 C 21.214844 143.207031 23.230469 143.851562 25.292969 144.335938 L 48.929688 149.871094 L 53.097656 145.890625 L 27.675781 139.601562 C 25.742188 139.125 23.851562 138.503906 22.007812 137.738281 C 18.691406 136.359375 15.621094 134.558594 12.796875 132.339844 L 4.117188 125.519531 C 3.03125 124.960938 4.265625 126.210938 3.382812 127.058594 L 0.824219 125.996094 C 0.671875 126.140625 0.539062 126.304688 0.425781 126.480469 C 0.308594 126.660156 0.21875 126.847656 0.148438 127.046875 C 0.0820312 127.246094 0.0351562 127.449219 0.015625 127.660156 C -0.00390625 127.871094 0.00390625 128.082031 0.03125 128.289062 C 0.0625 128.5 0.117188 128.699219 0.195312 128.898438 C 0.273438 129.09375 0.375 129.277344 0.496094 129.449219 C 0.617188 129.621094 0.757812 129.773438 0.917969 129.914062 C 1.078125 130.050781 1.25 130.167969 1.4375 130.265625 Z M 1.4375 130.265625 "/><path style=" stroke:none;fill-rule:nonzero;fill:rgb(2.749634%,47.059631%,78.039551%);fill-opacity:1;" d="M 220.613281 126.320312 L 213.472656 132.175781 C 210.445312 134.664062 207.117188 136.65625 203.496094 138.152344 L 202.785156 138.445312 C 200.824219 139.25 198.8125 139.898438 196.746094 140.378906 L 173.113281 145.914062 L 168.945312 141.9375 L 194.371094 135.648438 C 196.308594 135.175781 198.199219 134.558594 200.042969 133.800781 C 203.355469 132.421875 206.425781 130.625 209.253906 128.40625 L 217.933594 121.574219 C 219.019531 121.015625 217.785156 122.269531 218.667969 123.113281 L 221.226562 122.050781 C 221.378906 122.195312 221.511719 122.359375 221.625 122.535156 C 221.738281 122.714844 221.828125 122.902344 221.898438 123.101562 C 221.96875 123.300781 222.011719 123.503906 222.03125 123.714844 C 222.050781 123.925781 222.046875 124.132812 222.015625 124.34375 C 221.984375 124.550781 221.933594 124.753906 221.851562 124.949219 C 221.773438 125.144531 221.675781 125.328125 221.550781 125.5 C 221.429688 125.671875 221.289062 125.828125 221.132812 125.964844 C 220.972656 126.105469 220.796875 126.222656 220.613281 126.320312 Z M 220.613281 126.320312 "/><g clip-rule="nonzero" clip-path="url(#clip1)"><path style=" stroke:none;fill-rule:nonzero;fill:rgb(2.749634%,47.059631%,78.039551%);fill-opacity:1;" d="M 85.171875 190.226562 L 85.265625 218.378906 L 71.125 225.292969 L 96.90625 225.292969 L 96.917969 194.609375 Z M 85.171875 190.226562 "/></g><g clip-rule="nonzero" clip-path="url(#clip2)"><path style=" stroke:none;fill-rule:nonzero;fill:rgb(2.749634%,47.059631%,78.039551%);fill-opacity:1;" d="M 137.320312 190.203125 L 137.320312 218.355469 L 151.460938 225.265625 L 125.679688 225.265625 L 125.699219 195.074219 Z M 137.320312 190.203125 "/></g><path style=" stroke:none;fill-rule:nonzero;fill:rgb(100%,56.079102%,61.569214%);fill-opacity:1;" d="M 189.945312 123.789062 C 189.945312 131.605469 177.925781 137.417969 175.644531 144.46875 C 173.273438 151.777344 179.503906 163.542969 175.082031 169.613281 C 170.621094 175.757812 157.496094 173.4375 151.367188 177.917969 C 145.296875 182.34375 143.46875 195.589844 136.167969 197.964844 C 129.132812 200.253906 119.914062 190.6875 112.113281 190.6875 C 104.308594 190.6875 95.105469 200.253906 88.058594 197.964844 C 80.761719 195.589844 78.9375 182.34375 72.859375 177.917969 C 66.726562 173.449219 53.605469 175.769531 49.144531 169.613281 C 44.722656 163.53125 50.953125 151.765625 48.585938 144.46875 C 46.300781 137.417969 34.28125 131.605469 34.28125 123.789062 C 34.28125 115.976562 46.300781 110.160156 48.589844 103.121094 C 50.957031 95.8125 44.730469 84.046875 49.148438 77.976562 C 53.613281 71.832031 66.734375 74.152344 72.863281 69.671875 C 78.9375 65.246094 80.761719 52 88.0625 49.628906 C 95.105469 47.324219 104.316406 56.890625 112.113281 56.890625 C 119.914062 56.890625 129.132812 47.324219 136.171875 49.617188 C 143.464844 51.988281 145.292969 65.234375 151.367188 69.660156 C 157.5 74.128906 170.625 71.808594 175.085938 77.964844 C 179.503906 84.046875 173.277344 95.8125 175.644531 103.109375 C 177.925781 110.160156 189.945312 115.976562 189.945312 123.789062 Z M 189.945312 123.789062 "/><path style=" stroke:none;fill-rule:nonzero;fill:rgb(100%,41.178894%,23.139954%);fill-opacity:1;" d="M 219.648438 85.382812 C 219.648438 86.304688 208.71875 85.503906 208.445312 86.34375 C 208.175781 87.1875 217.472656 92.996094 216.945312 93.726562 C 216.417969 94.457031 208.042969 87.371094 207.3125 87.894531 C 206.578125 88.421875 210.734375 98.585938 209.863281 98.871094 C 208.996094 99.152344 206.410156 88.488281 205.488281 88.488281 C 204.570312 88.488281 201.957031 99.140625 201.113281 98.871094 C 200.273438 98.597656 204.390625 88.429688 203.664062 87.894531 C 202.9375 87.359375 194.566406 94.449219 194.035156 93.714844 C 193.503906 92.980469 202.8125 87.210938 202.527344 86.332031 C 202.246094 85.457031 191.328125 86.300781 191.328125 85.371094 C 191.328125 84.4375 202.257812 85.246094 202.527344 84.40625 C 202.800781 83.5625 193.503906 77.753906 194.035156 77.023438 C 194.5625 76.292969 202.933594 83.378906 203.664062 82.84375 C 204.394531 82.308594 200.242188 72.152344 201.113281 71.871094 C 201.984375 71.589844 204.566406 82.253906 205.488281 82.253906 C 206.410156 82.253906 209.023438 71.597656 209.863281 71.871094 C 210.699219 72.148438 206.582031 82.316406 207.308594 82.84375 C 208.035156 83.371094 216.40625 76.289062 216.941406 77.023438 C 217.476562 77.757812 208.160156 83.527344 208.445312 84.40625 C 208.726562 85.28125 219.648438 84.445312 219.648438 85.382812 Z M 219.648438 85.382812 "/><g clip-rule="nonzero" clip-path="url(#clip3)"><path style=" stroke:none;fill-rule:nonzero;fill:rgb(100%,56.079102%,61.569214%);fill-opacity:1;" d="M 222.179688 34.105469 C 222.960938 35.230469 213.5625 40.839844 213.847656 42.128906 C 214.132812 43.417969 225.054688 44.296875 224.875 45.648438 C 224.699219 46.941406 213.835938 45.152344 213.253906 46.398438 C 212.703125 47.578125 221.179688 54.65625 220.285156 55.699219 C 219.445312 56.6875 211.09375 49.445312 209.964844 50.234375 C 208.839844 51.023438 212.730469 61.375 211.519531 61.824219 C 210.234375 62.304688 206.527344 51.890625 205.234375 52 C 203.871094 52.117188 201.78125 62.949219 200.515625 62.664062 C 199.191406 62.371094 202.140625 51.800781 201.03125 51.085938 C 199.917969 50.367188 191.421875 57.265625 190.636719 56.144531 C 189.855469 55.019531 199.257812 49.414062 198.96875 48.121094 C 198.679688 46.832031 187.765625 45.949219 187.945312 44.605469 C 188.117188 43.308594 198.996094 45.097656 199.5625 43.855469 C 200.105469 42.679688 191.640625 35.59375 192.53125 34.550781 C 193.375 33.566406 201.722656 40.804688 202.851562 40.015625 C 203.984375 39.226562 200.089844 28.878906 201.300781 28.425781 C 202.585938 27.945312 206.289062 38.359375 207.585938 38.25 C 208.949219 38.136719 211.039062 27.300781 212.300781 27.585938 C 213.625 27.882812 210.679688 38.449219 211.789062 39.167969 C 212.898438 39.886719 221.398438 32.992188 222.179688 34.105469 Z M 222.179688 34.105469 "/></g><g clip-rule="nonzero" clip-path="url(#clip4)"><path style=" stroke:none;fill-rule:nonzero;fill:rgb(99.609375%,78.039551%,28.62854%);fill-opacity:1;" d="M 179.351562 40.628906 C 179.351562 41.78125 168.386719 41.1875 168.046875 42.242188 C 167.699219 43.324219 176.90625 49.300781 176.25 50.199219 C 175.597656 51.097656 167.070312 44.175781 166.160156 44.839844 C 165.25 45.5 169.214844 55.757812 168.136719 56.105469 C 167.09375 56.445312 164.273438 45.828125 163.117188 45.828125 C 161.960938 45.828125 159.144531 56.4375 158.101562 56.105469 C 157.023438 55.757812 160.976562 45.496094 160.078125 44.839844 C 159.175781 44.179688 150.648438 51.109375 149.984375 50.199219 C 149.324219 49.289062 158.539062 43.316406 158.199219 42.234375 C 157.859375 41.1875 146.894531 41.773438 146.894531 40.617188 C 146.894531 39.464844 157.859375 40.054688 158.199219 39.003906 C 158.550781 37.917969 149.339844 31.949219 149.996094 31.046875 C 150.648438 30.144531 159.179688 37.070312 160.085938 36.40625 C 160.992188 35.746094 157.023438 25.507812 158.101562 25.148438 C 159.144531 24.808594 161.964844 35.429688 163.117188 35.429688 C 164.273438 35.429688 167.09375 24.816406 168.136719 25.148438 C 169.214844 25.5 165.261719 35.761719 166.160156 36.417969 C 167.058594 37.074219 175.589844 30.15625 176.25 31.0625 C 176.910156 31.972656 167.699219 37.9375 168.046875 39.023438 C 168.386719 40.066406 179.351562 39.46875 179.351562 40.628906 Z M 179.351562 40.628906 "/></g><path style="fill:none;stroke-width:10;stroke-linecap:butt;stroke-linejoin:round;stroke:rgb(0%,0%,0%);stroke-opacity:1;stroke-miterlimit:4;" d="M 441.911658 336.595585 C 441.911658 355.086627 424.659307 370.055567 403.369532 370.055567 C 382.079758 370.055567 364.827407 355.052761 364.827407 336.595585 " transform="matrix(0.230268,0,0,0.230686,0.00381315,25.14898)"/><path style="fill:none;stroke-width:10;stroke-linecap:butt;stroke-linejoin:round;stroke:rgb(0%,0%,0%);stroke-opacity:1;stroke-miterlimit:4;" d="M 610.923628 336.595585 C 610.923628 355.086627 593.654313 370.055567 572.364538 370.055567 C 551.074764 370.055567 533.822413 355.052761 533.822413 336.595585 " transform="matrix(0.230268,0,0,0.230686,0.00381315,25.14898)"/><path style="fill:none;stroke-width:11;stroke-linecap:round;stroke-linejoin:round;stroke:rgb(0%,0%,0%);stroke-opacity:1;stroke-miterlimit:4;" d="M 555.875566 448.06677 C 555.875566 469.758185 527.0029 487.334836 491.39554 487.334836 C 455.78818 487.334836 426.915514 469.758185 426.915514 448.06677 " transform="matrix(0.230268,0,0,0.230686,0.00381315,25.14898)"/><path style="fill:none;stroke-width:10;stroke-linecap:round;stroke-linejoin:round;stroke:rgb(0%,0%,0%);stroke-opacity:1;stroke-miterlimit:4;" d="M 574.993953 456.618031 C 573.467196 456.618031 571.957403 456.465632 570.464574 456.160834 C 568.971746 455.87297 567.512845 455.432707 566.104836 454.840046 C 564.696827 454.264317 563.356674 453.53619 562.084376 452.689531 C 560.812079 451.842871 559.641566 450.877679 558.555872 449.810888 C 557.487142 448.727164 556.520196 447.558774 555.671998 446.288785 C 554.8238 445.018796 554.111313 443.681074 553.517575 442.258686 C 552.9408 440.853231 552.499737 439.396977 552.194386 437.906856 C 551.905998 436.399802 551.753323 434.892749 551.753323 433.368762 " transform="matrix(0.230268,0,0,0.230686,0.00381315,25.14898)"/><path style="fill:none;stroke-width:10;stroke-linecap:round;stroke-linejoin:round;stroke:rgb(0%,0%,0%);stroke-opacity:1;stroke-miterlimit:4;" d="M 406.35519 458.937877 C 407.881947 458.937877 409.391739 458.785479 410.884568 458.480681 C 412.377397 458.192817 413.836298 457.752554 415.244307 457.159893 C 416.652316 456.584164 417.992469 455.856037 419.264766 455.009378 C 420.537064 454.162718 421.707577 453.197526 422.793271 452.113802 C 423.862 451.047011 424.828946 449.861688 425.677145 448.591699 C 426.525343 447.32171 427.237829 445.983988 427.831568 444.578533 C 428.408343 443.173078 428.849406 441.716824 429.154757 440.20977 C 429.443145 438.719649 429.59582 437.212596 429.59582 435.671675 " transform="matrix(0.230268,0,0,0.230686,0.00381315,25.14898)"/><path style=" stroke:none;fill-rule:nonzero;fill:rgb(2.749634%,47.059631%,78.039551%);fill-opacity:1;" d="M 158.84375 116.664062 C 158.84375 117.019531 158.796875 117.371094 158.703125 117.722656 C 158.609375 118.070312 158.472656 118.410156 158.285156 118.738281 C 158.101562 119.066406 157.878906 119.378906 157.609375 119.675781 C 157.34375 119.972656 157.039062 120.246094 156.699219 120.496094 C 156.359375 120.75 155.988281 120.972656 155.589844 121.171875 C 155.1875 121.371094 154.765625 121.535156 154.324219 121.671875 C 153.878906 121.808594 153.421875 121.910156 152.949219 121.980469 C 152.476562 122.050781 152 122.085938 151.519531 122.085938 C 151.039062 122.085938 150.5625 122.050781 150.089844 121.980469 C 149.617188 121.910156 149.160156 121.808594 148.714844 121.671875 C 148.273438 121.535156 147.851562 121.371094 147.449219 121.171875 C 147.050781 120.972656 146.679688 120.75 146.339844 120.496094 C 146 120.246094 145.695312 119.972656 145.429688 119.675781 C 145.164062 119.378906 144.9375 119.066406 144.753906 118.738281 C 144.570312 118.410156 144.429688 118.070312 144.335938 117.722656 C 144.242188 117.371094 144.195312 117.019531 144.195312 116.664062 C 144.195312 116.308594 144.242188 115.957031 144.335938 115.605469 C 144.429688 115.257812 144.570312 114.917969 144.753906 114.589844 C 144.9375 114.261719 145.164062 113.949219 145.429688 113.652344 C 145.695312 113.355469 146 113.082031 146.339844 112.832031 C 146.679688 112.578125 147.050781 112.355469 147.449219 112.15625 C 147.851562 111.960938 148.273438 111.792969 148.714844 111.65625 C 149.160156 111.519531 149.617188 111.417969 150.089844 111.347656 C 150.5625 111.277344 151.039062 111.242188 151.519531 111.242188 C 152 111.242188 152.476562 111.277344 152.949219 111.347656 C 153.421875 111.417969 153.878906 111.519531 154.324219 111.65625 C 154.765625 111.792969 155.1875 111.960938 155.589844 112.15625 C 155.988281 112.355469 156.359375 112.578125 156.699219 112.832031 C 157.039062 113.082031 157.34375 113.355469 157.609375 113.652344 C 157.878906 113.949219 158.101562 114.261719 158.285156 114.589844 C 158.472656 114.917969 158.609375 115.257812 158.703125 115.605469 C 158.796875 115.957031 158.84375 116.308594 158.84375 116.664062 Z M 158.84375 116.664062 "/><path style=" stroke:none;fill-rule:nonzero;fill:rgb(2.749634%,47.059631%,78.039551%);fill-opacity:1;" d="M 81.476562 120.355469 C 81.476562 120.710938 81.429688 121.0625 81.335938 121.414062 C 81.238281 121.761719 81.101562 122.101562 80.917969 122.429688 C 80.734375 122.757812 80.507812 123.070312 80.242188 123.367188 C 79.972656 123.664062 79.667969 123.9375 79.328125 124.1875 C 78.988281 124.441406 78.621094 124.664062 78.21875 124.863281 C 77.820312 125.0625 77.398438 125.226562 76.953125 125.363281 C 76.507812 125.5 76.050781 125.601562 75.578125 125.671875 C 75.105469 125.742188 74.632812 125.777344 74.148438 125.777344 C 73.667969 125.777344 73.191406 125.742188 72.722656 125.671875 C 72.25 125.601562 71.792969 125.5 71.347656 125.363281 C 70.902344 125.226562 70.480469 125.0625 70.082031 124.863281 C 69.679688 124.664062 69.3125 124.441406 68.96875 124.1875 C 68.628906 123.9375 68.328125 123.664062 68.058594 123.367188 C 67.792969 123.070312 67.566406 122.757812 67.382812 122.429688 C 67.199219 122.101562 67.058594 121.761719 66.964844 121.414062 C 66.871094 121.0625 66.824219 120.710938 66.824219 120.355469 C 66.824219 120 66.871094 119.648438 66.964844 119.296875 C 67.058594 118.949219 67.199219 118.609375 67.382812 118.28125 C 67.566406 117.953125 67.792969 117.640625 68.058594 117.34375 C 68.328125 117.046875 68.628906 116.773438 68.96875 116.523438 C 69.3125 116.269531 69.679688 116.046875 70.082031 115.847656 C 70.480469 115.648438 70.902344 115.484375 71.347656 115.347656 C 71.792969 115.210938 72.25 115.109375 72.722656 115.039062 C 73.191406 114.96875 73.667969 114.933594 74.148438 114.933594 C 74.632812 114.933594 75.105469 114.96875 75.578125 115.039062 C 76.050781 115.109375 76.507812 115.210938 76.953125 115.347656 C 77.398438 115.484375 77.820312 115.648438 78.21875 115.847656 C 78.621094 116.046875 78.988281 116.269531 79.328125 116.523438 C 79.667969 116.773438 79.972656 117.046875 80.242188 117.34375 C 80.507812 117.640625 80.734375 117.953125 80.917969 118.28125 C 81.101562 118.609375 81.238281 118.949219 81.335938 119.296875 C 81.429688 119.648438 81.476562 120 81.476562 120.355469 Z M 81.476562 120.355469 "/></g></svg>