<?xml version="1.0" encoding="UTF-8"?><svg xmlns="http://www.w3.org/2000/svg" xmlns:xlink="http://www.w3.org/1999/xlink" width="198pt" zoomAndPan="magnify" viewBox="0 0 198 91.5" height="91.5pt" preserveAspectRatio="xMidYMid meet" version="1.2"><defs><clipPath xml:id="clip1" id="clip1"><path d="M 0.539062 13 L 167 13 L 167 77 L 0.539062 77 Z M 0.539062 13 "/></clipPath><clipPath xml:id="clip2" id="clip2"><path d="M 0.539062 66 L 18 66 L 18 84 L 0.539062 84 Z M 0.539062 66 "/></clipPath><clipPath xml:id="clip3" id="clip3"><path d="M 180 66 L 197.460938 66 L 197.460938 84 L 180 84 Z M 180 66 "/></clipPath><clipPath xml:id="clip4" id="clip4"><path d="M 180 7 L 197.460938 7 L 197.460938 26 L 180 26 Z M 180 7 "/></clipPath><clipPath xml:id="clip5" id="clip5"><path d="M 149 13 L 197.460938 13 L 197.460938 77 L 149 77 Z M 149 13 "/></clipPath><clipPath xml:id="clip6" id="clip6"><path d="M 0.539062 7 L 18 7 L 18 26 L 0.539062 26 Z M 0.539062 7 "/></clipPath></defs><g xml:id="surface1" id="surface1"><path style=" stroke:none;fill-rule:nonzero;fill:rgb(2.749634%,47.059631%,78.039551%);fill-opacity:1;" d="M 15.871094 10.921875 C 15.308594 10.921875 14.75 10.976562 14.199219 11.085938 C 13.644531 11.199219 13.109375 11.359375 12.589844 11.574219 C 12.070312 11.792969 11.574219 12.054688 11.105469 12.367188 C 10.636719 12.679688 10.203125 13.035156 9.804688 13.433594 C 9.40625 13.832031 9.050781 14.265625 8.738281 14.734375 C 8.425781 15.203125 8.164062 15.699219 7.945312 16.21875 C 7.730469 16.738281 7.570312 17.273438 7.457031 17.828125 C 7.347656 18.378906 7.292969 18.9375 7.292969 19.5 C 7.292969 20.0625 7.347656 20.621094 7.457031 21.175781 C 7.570312 21.726562 7.730469 22.261719 7.945312 22.785156 C 8.164062 23.304688 8.425781 23.796875 8.738281 24.265625 C 9.050781 24.734375 9.40625 25.167969 9.804688 25.566406 C 10.203125 25.964844 10.636719 26.320312 11.105469 26.632812 C 11.574219 26.945312 12.070312 27.210938 12.589844 27.425781 C 13.109375 27.640625 13.644531 27.804688 14.199219 27.914062 C 14.75 28.023438 15.308594 28.078125 15.871094 28.078125 C 16.433594 28.078125 16.992188 28.023438 17.546875 27.914062 C 18.097656 27.804688 18.632812 27.640625 19.15625 27.425781 C 19.675781 27.210938 20.167969 26.945312 20.636719 26.632812 C 21.105469 26.320312 21.539062 25.964844 21.9375 25.566406 C 22.335938 25.167969 22.691406 24.734375 23.003906 24.265625 C 23.316406 23.796875 23.582031 23.304688 23.796875 22.785156 C 24.011719 22.261719 24.175781 21.726562 24.285156 21.175781 C 24.394531 20.621094 24.449219 20.0625 24.449219 19.5 C 24.449219 18.9375 24.394531 18.378906 24.285156 17.828125 C 24.175781 17.273438 24.011719 16.738281 23.796875 16.21875 C 23.582031 15.699219 23.316406 15.203125 23.003906 14.734375 C 22.691406 14.265625 22.335938 13.832031 21.9375 13.433594 C 21.539062 13.035156 21.105469 12.679688 20.636719 12.367188 C 20.167969 12.054688 19.675781 11.792969 19.15625 11.574219 C 18.632812 11.359375 18.097656 11.199219 17.546875 11.085938 C 16.992188 10.976562 16.433594 10.921875 15.871094 10.921875 Z M 15.871094 10.921875 "/><g clip-rule="nonzero" clip-path="url(#clip1)"><path style=" stroke:none;fill-rule:nonzero;fill:rgb(2.749634%,47.059631%,78.039551%);fill-opacity:1;" d="M 163.042969 76.4375 L 3.628906 76.4375 C 1.925781 76.4375 0.539062 75.054688 0.539062 73.359375 L 0.539062 16.855469 C 0.539062 15.160156 1.925781 13.78125 3.628906 13.78125 L 163.042969 13.78125 C 164.742188 13.78125 166.132812 15.160156 166.132812 16.855469 L 166.132812 73.359375 C 166.132812 75.054688 164.742188 76.4375 163.042969 76.4375 Z M 163.042969 76.4375 "/></g><g clip-rule="nonzero" clip-path="url(#clip2)"><path style=" stroke:none;fill-rule:nonzero;fill:rgb(2.749634%,47.059631%,78.039551%);fill-opacity:1;" d="M 9.117188 66.066406 C 8.554688 66.066406 7.996094 66.121094 7.441406 66.230469 C 6.890625 66.339844 6.355469 66.503906 5.832031 66.71875 C 5.3125 66.933594 4.820312 67.199219 4.351562 67.511719 C 3.882812 67.824219 3.449219 68.179688 3.050781 68.578125 C 2.652344 68.976562 2.296875 69.410156 1.984375 69.878906 C 1.671875 70.347656 1.40625 70.839844 1.191406 71.359375 C 0.976562 71.882812 0.8125 72.417969 0.703125 72.96875 C 0.59375 73.523438 0.539062 74.082031 0.539062 74.644531 C 0.539062 75.207031 0.59375 75.765625 0.703125 76.316406 C 0.8125 76.871094 0.976562 77.40625 1.191406 77.925781 C 1.40625 78.445312 1.671875 78.941406 1.984375 79.410156 C 2.296875 79.878906 2.652344 80.3125 3.050781 80.710938 C 3.449219 81.109375 3.882812 81.464844 4.351562 81.777344 C 4.820312 82.089844 5.3125 82.351562 5.832031 82.570312 C 6.355469 82.785156 6.890625 82.945312 7.441406 83.058594 C 7.996094 83.167969 8.554688 83.222656 9.117188 83.222656 C 9.679688 83.222656 10.238281 83.167969 10.789062 83.058594 C 11.34375 82.945312 11.878906 82.785156 12.398438 82.570312 C 12.917969 82.351562 13.414062 82.089844 13.882812 81.777344 C 14.351562 81.464844 14.785156 81.109375 15.183594 80.710938 C 15.582031 80.3125 15.9375 79.878906 16.25 79.410156 C 16.5625 78.941406 16.824219 78.445312 17.042969 77.925781 C 17.257812 77.40625 17.417969 76.871094 17.53125 76.316406 C 17.640625 75.765625 17.695312 75.207031 17.695312 74.644531 C 17.695312 74.082031 17.640625 73.523438 17.53125 72.96875 C 17.417969 72.417969 17.257812 71.882812 17.042969 71.359375 C 16.824219 70.839844 16.5625 70.347656 16.25 69.878906 C 15.9375 69.410156 15.582031 68.976562 15.183594 68.578125 C 14.785156 68.179688 14.351562 67.824219 13.882812 67.511719 C 13.414062 67.199219 12.917969 66.933594 12.398438 66.71875 C 11.878906 66.503906 11.34375 66.339844 10.789062 66.230469 C 10.238281 66.121094 9.679688 66.066406 9.117188 66.066406 Z M 9.117188 66.066406 "/></g><g clip-rule="nonzero" clip-path="url(#clip3)"><path style=" stroke:none;fill-rule:nonzero;fill:rgb(2.749634%,47.059631%,78.039551%);fill-opacity:1;" d="M 189.09375 66.066406 C 188.53125 66.066406 187.972656 66.121094 187.421875 66.230469 C 186.867188 66.339844 186.332031 66.503906 185.8125 66.71875 C 185.292969 66.933594 184.796875 67.199219 184.328125 67.511719 C 183.859375 67.824219 183.425781 68.179688 183.027344 68.578125 C 182.628906 68.976562 182.273438 69.410156 181.960938 69.878906 C 181.648438 70.347656 181.382812 70.839844 181.167969 71.359375 C 180.953125 71.882812 180.789062 72.417969 180.679688 72.96875 C 180.570312 73.523438 180.515625 74.082031 180.515625 74.644531 C 180.515625 75.207031 180.570312 75.765625 180.679688 76.316406 C 180.789062 76.871094 180.953125 77.40625 181.167969 77.925781 C 181.382812 78.445312 181.648438 78.941406 181.960938 79.410156 C 182.273438 79.878906 182.628906 80.3125 183.027344 80.710938 C 183.425781 81.109375 183.859375 81.464844 184.328125 81.777344 C 184.796875 82.089844 185.292969 82.351562 185.8125 82.570312 C 186.332031 82.785156 186.867188 82.945312 187.421875 83.058594 C 187.972656 83.167969 188.53125 83.222656 189.09375 83.222656 C 189.65625 83.222656 190.214844 83.167969 190.769531 83.058594 C 191.320312 82.945312 191.855469 82.785156 192.375 82.570312 C 192.898438 82.351562 193.390625 82.089844 193.859375 81.777344 C 194.328125 81.464844 194.761719 81.109375 195.160156 80.710938 C 195.558594 80.3125 195.914062 79.878906 196.226562 79.410156 C 196.539062 78.941406 196.804688 78.445312 197.019531 77.925781 C 197.234375 77.40625 197.398438 76.871094 197.507812 76.316406 C 197.617188 75.765625 197.671875 75.207031 197.671875 74.644531 C 197.671875 74.082031 197.617188 73.523438 197.507812 72.96875 C 197.398438 72.417969 197.234375 71.882812 197.019531 71.359375 C 196.804688 70.839844 196.539062 70.347656 196.226562 69.878906 C 195.914062 69.410156 195.558594 68.976562 195.160156 68.578125 C 194.761719 68.179688 194.328125 67.824219 193.859375 67.511719 C 193.390625 67.199219 192.898438 66.933594 192.375 66.71875 C 191.855469 66.503906 191.320312 66.339844 190.769531 66.230469 C 190.214844 66.121094 189.65625 66.066406 189.09375 66.066406 Z M 189.09375 66.066406 "/></g><g clip-rule="nonzero" clip-path="url(#clip4)"><path style=" stroke:none;fill-rule:nonzero;fill:rgb(2.749634%,47.059631%,78.039551%);fill-opacity:1;" d="M 189.09375 7.992188 C 188.53125 7.992188 187.972656 8.046875 187.421875 8.15625 C 186.867188 8.265625 186.332031 8.429688 185.8125 8.644531 C 185.292969 8.859375 184.796875 9.125 184.328125 9.4375 C 183.859375 9.75 183.425781 10.105469 183.027344 10.503906 C 182.628906 10.902344 182.273438 11.335938 181.960938 11.804688 C 181.648438 12.273438 181.382812 12.765625 181.167969 13.285156 C 180.953125 13.808594 180.789062 14.34375 180.679688 14.894531 C 180.570312 15.449219 180.515625 16.007812 180.515625 16.570312 C 180.515625 17.132812 180.570312 17.691406 180.679688 18.242188 C 180.789062 18.796875 180.953125 19.332031 181.167969 19.851562 C 181.382812 20.371094 181.648438 20.867188 181.960938 21.335938 C 182.273438 21.804688 182.628906 22.238281 183.027344 22.636719 C 183.425781 23.035156 183.859375 23.390625 184.328125 23.703125 C 184.796875 24.015625 185.292969 24.277344 185.8125 24.496094 C 186.332031 24.710938 186.867188 24.871094 187.421875 24.984375 C 187.972656 25.09375 188.53125 25.148438 189.09375 25.148438 C 189.65625 25.148438 190.214844 25.09375 190.769531 24.984375 C 191.320312 24.871094 191.855469 24.710938 192.375 24.496094 C 192.898438 24.277344 193.390625 24.015625 193.859375 23.703125 C 194.328125 23.390625 194.761719 23.035156 195.160156 22.636719 C 195.558594 22.238281 195.914062 21.804688 196.226562 21.335938 C 196.539062 20.867188 196.804688 20.371094 197.019531 19.851562 C 197.234375 19.332031 197.398438 18.796875 197.507812 18.242188 C 197.617188 17.691406 197.671875 17.132812 197.671875 16.570312 C 197.671875 16.007812 197.617188 15.449219 197.507812 14.894531 C 197.398438 14.34375 197.234375 13.808594 197.019531 13.285156 C 196.804688 12.765625 196.539062 12.273438 196.226562 11.804688 C 195.914062 11.335938 195.558594 10.902344 195.160156 10.503906 C 194.761719 10.105469 194.328125 9.75 193.859375 9.4375 C 193.390625 9.125 192.898438 8.859375 192.375 8.644531 C 191.855469 8.429688 191.320312 8.265625 190.769531 8.15625 C 190.214844 8.046875 189.65625 7.992188 189.09375 7.992188 Z M 189.09375 7.992188 "/></g><path style=" stroke:none;fill-rule:nonzero;fill:rgb(2.749634%,47.059631%,78.039551%);fill-opacity:1;" d="M 187.691406 55.730469 L 10.390625 55.730469 C 8.6875 55.730469 7.300781 54.335938 7.300781 52.625 L 7.300781 11.097656 C 7.300781 9.386719 8.6875 7.992188 10.390625 7.992188 L 187.691406 7.992188 C 189.394531 7.992188 190.78125 9.386719 190.78125 11.097656 L 190.78125 52.625 C 190.78125 54.335938 189.394531 55.730469 187.691406 55.730469 Z M 187.691406 55.730469 "/><g clip-rule="nonzero" clip-path="url(#clip5)"><path style=" stroke:none;fill-rule:nonzero;fill:rgb(2.749634%,47.059631%,78.039551%);fill-opacity:1;" d="M 194.550781 76.4375 L 153.019531 76.4375 C 151.308594 76.4375 149.917969 75.054688 149.917969 73.359375 L 149.917969 16.855469 C 149.917969 15.160156 151.308594 13.78125 153.019531 13.78125 L 194.550781 13.78125 C 196.261719 13.78125 197.65625 15.160156 197.65625 16.855469 L 197.65625 73.359375 C 197.65625 75.054688 196.261719 76.4375 194.550781 76.4375 Z M 194.550781 76.4375 "/></g><path style=" stroke:none;fill-rule:nonzero;fill:rgb(2.749634%,47.059631%,78.039551%);fill-opacity:1;" d="M 188.878906 83.203125 L 9.324219 83.203125 C 7.625 83.203125 6.238281 81.8125 6.238281 80.101562 L 6.238281 38.570312 C 6.238281 36.859375 7.625 35.464844 9.324219 35.464844 L 188.878906 35.464844 C 190.582031 35.464844 191.964844 36.859375 191.964844 38.570312 L 191.964844 80.101562 C 191.964844 81.8125 190.582031 83.203125 188.878906 83.203125 Z M 188.878906 83.203125 "/><g clip-rule="nonzero" clip-path="url(#clip6)"><path style=" stroke:none;fill-rule:nonzero;fill:rgb(2.749634%,47.059631%,78.039551%);fill-opacity:1;" d="M 9.117188 7.992188 C 8.554688 7.992188 7.996094 8.046875 7.441406 8.15625 C 6.890625 8.265625 6.355469 8.429688 5.832031 8.644531 C 5.3125 8.859375 4.820312 9.125 4.351562 9.4375 C 3.882812 9.75 3.449219 10.105469 3.050781 10.503906 C 2.652344 10.902344 2.296875 11.335938 1.984375 11.804688 C 1.671875 12.273438 1.40625 12.765625 1.191406 13.285156 C 0.976562 13.808594 0.8125 14.34375 0.703125 14.894531 C 0.59375 15.449219 0.539062 16.007812 0.539062 16.570312 C 0.539062 17.132812 0.59375 17.691406 0.703125 18.242188 C 0.8125 18.796875 0.976562 19.332031 1.191406 19.851562 C 1.40625 20.371094 1.671875 20.867188 1.984375 21.335938 C 2.296875 21.804688 2.652344 22.238281 3.050781 22.636719 C 3.449219 23.035156 3.882812 23.390625 4.351562 23.703125 C 4.820312 24.015625 5.3125 24.277344 5.832031 24.496094 C 6.355469 24.710938 6.890625 24.871094 7.441406 24.984375 C 7.996094 25.09375 8.554688 25.148438 9.117188 25.148438 C 9.679688 25.148438 10.238281 25.09375 10.789062 24.984375 C 11.34375 24.871094 11.878906 24.710938 12.398438 24.496094 C 12.917969 24.277344 13.414062 24.015625 13.882812 23.703125 C 14.351562 23.390625 14.785156 23.035156 15.183594 22.636719 C 15.582031 22.238281 15.9375 21.804688 16.25 21.335938 C 16.5625 20.867188 16.824219 20.371094 17.042969 19.851562 C 17.257812 19.332031 17.417969 18.796875 17.53125 18.242188 C 17.640625 17.691406 17.695312 17.132812 17.695312 16.570312 C 17.695312 16.007812 17.640625 15.449219 17.53125 14.894531 C 17.417969 14.34375 17.257812 13.808594 17.042969 13.285156 C 16.824219 12.765625 16.5625 12.273438 16.25 11.804688 C 15.9375 11.335938 15.582031 10.902344 15.183594 10.503906 C 14.785156 10.105469 14.351562 9.75 13.882812 9.4375 C 13.414062 9.125 12.917969 8.859375 12.398438 8.644531 C 11.878906 8.429688 11.34375 8.265625 10.789062 8.15625 C 10.238281 8.046875 9.679688 7.992188 9.117188 7.992188 Z M 9.117188 7.992188 "/></g></g></svg>