<?xml version="1.0" encoding="UTF-8"?>
<svg xmlns="http://www.w3.org/2000/svg" xmlns:xlink="http://www.w3.org/1999/xlink" width="60px" height="60px" viewBox="0 0 60 60" version="1.1">
<defs>
<clipPath id="clip1">
  <path d="M 0 1.199219 L 59.96875 1.199219 L 59.96875 58.769531 L 0 58.769531 Z M 0 1.199219 "/>
</clipPath>
</defs>
<g id="surface1">
<g clip-path="url(#clip1)" clip-rule="nonzero">
<path style=" stroke:none;fill-rule:nonzero;fill:rgb(100%,56.078431%,61.568627%);fill-opacity:1;" d="M 49.609375 57.617188 L 30.773438 48.457031 L 12.546875 58.769531 L 15.445312 38.039062 L 0 23.898438 L 20.625 20.25 L 29.308594 1.199219 L 39.15625 19.671875 L 59.96875 22.039062 L 45.429688 37.105469 Z M 49.609375 57.617188 "/>
</g>
<path style="fill:none;stroke-width:6;stroke-linecap:round;stroke-linejoin:round;stroke:rgb(0%,0%,0%);stroke-opacity:1;stroke-miterlimit:4;" d="M 238.202702 229.253531 C 237.436618 229.302955 236.670534 229.278243 235.90445 229.179394 C 235.138366 229.080544 234.372282 228.907557 233.655623 228.660433 C 232.914251 228.413309 232.222304 228.092048 231.55507 227.721363 C 230.863123 227.325964 230.245313 226.881141 229.652216 226.386894 C 229.083831 225.867934 228.564871 225.299549 228.070623 224.706451 C 227.601088 224.088642 227.205689 223.421407 226.859716 222.72946 C 226.513742 222.037513 226.241906 221.320854 226.044207 220.579483 C 225.846508 219.838111 225.722946 219.072027 225.648809 218.305943 " transform="matrix(0.158068,0,0,0.158068,0.000000719616,1.199739)"/>
<path style=" stroke:none;fill-rule:nonzero;fill:rgb(2.745098%,47.058824%,78.039216%);fill-opacity:1;" d="M 40.984375 31.253906 C 41.085938 31.257812 41.1875 31.269531 41.289062 31.28125 C 41.390625 31.292969 41.492188 31.308594 41.589844 31.328125 C 41.6875 31.347656 41.785156 31.371094 41.882812 31.398438 C 41.980469 31.425781 42.074219 31.457031 42.167969 31.488281 C 42.257812 31.523438 42.347656 31.558594 42.4375 31.597656 C 42.527344 31.640625 42.609375 31.683594 42.691406 31.730469 C 42.777344 31.773438 42.855469 31.824219 42.929688 31.875 C 43.007812 31.925781 43.082031 31.980469 43.148438 32.039062 C 43.21875 32.09375 43.285156 32.152344 43.347656 32.214844 C 43.40625 32.277344 43.464844 32.339844 43.519531 32.40625 C 43.574219 32.472656 43.621094 32.539062 43.667969 32.605469 C 43.710938 32.675781 43.75 32.746094 43.785156 32.816406 C 43.820312 32.890625 43.851562 32.960938 43.878906 33.035156 C 43.902344 33.109375 43.925781 33.183594 43.941406 33.257812 C 43.957031 33.332031 43.96875 33.40625 43.976562 33.484375 C 43.980469 33.558594 43.980469 33.632812 43.976562 33.707031 C 43.976562 33.785156 43.964844 33.859375 43.953125 33.933594 C 43.9375 34.007812 43.917969 34.082031 43.894531 34.152344 C 43.871094 34.226562 43.84375 34.296875 43.8125 34.367188 C 43.777344 34.4375 43.738281 34.507812 43.699219 34.574219 C 43.65625 34.644531 43.609375 34.710938 43.558594 34.773438 C 43.503906 34.835938 43.449219 34.898438 43.390625 34.957031 C 43.328125 35.019531 43.265625 35.074219 43.199219 35.128906 C 43.132812 35.183594 43.058594 35.238281 42.984375 35.285156 C 42.910156 35.335938 42.832031 35.382812 42.75 35.425781 C 42.671875 35.46875 42.585938 35.511719 42.5 35.546875 C 42.414062 35.585938 42.324219 35.621094 42.230469 35.652344 C 42.140625 35.683594 42.046875 35.710938 41.953125 35.734375 C 41.855469 35.757812 41.757812 35.777344 41.660156 35.792969 C 41.5625 35.8125 41.460938 35.824219 41.359375 35.835938 C 41.261719 35.84375 41.160156 35.851562 41.058594 35.851562 C 40.957031 35.855469 40.855469 35.851562 40.753906 35.847656 C 40.648438 35.84375 40.550781 35.835938 40.449219 35.820312 C 40.347656 35.808594 40.246094 35.792969 40.148438 35.773438 C 40.046875 35.753906 39.949219 35.730469 39.855469 35.703125 C 39.757812 35.675781 39.664062 35.648438 39.570312 35.613281 C 39.476562 35.578125 39.386719 35.542969 39.300781 35.503906 C 39.210938 35.460938 39.125 35.417969 39.042969 35.375 C 38.960938 35.328125 38.882812 35.277344 38.804688 35.226562 C 38.730469 35.175781 38.65625 35.121094 38.585938 35.0625 C 38.519531 35.007812 38.453125 34.949219 38.390625 34.886719 C 38.328125 34.824219 38.269531 34.761719 38.21875 34.695312 C 38.164062 34.632812 38.117188 34.5625 38.070312 34.496094 C 38.027344 34.425781 37.984375 34.355469 37.949219 34.285156 C 37.914062 34.214844 37.886719 34.140625 37.859375 34.066406 C 37.832031 33.992188 37.8125 33.917969 37.796875 33.84375 C 37.78125 33.769531 37.769531 33.695312 37.761719 33.621094 C 37.757812 33.542969 37.753906 33.46875 37.757812 33.394531 C 37.761719 33.320312 37.769531 33.242188 37.785156 33.167969 C 37.796875 33.09375 37.816406 33.019531 37.839844 32.949219 C 37.863281 32.875 37.894531 32.804688 37.925781 32.734375 C 37.960938 32.664062 37.996094 32.59375 38.039062 32.527344 C 38.082031 32.457031 38.128906 32.394531 38.179688 32.328125 C 38.230469 32.265625 38.289062 32.203125 38.347656 32.144531 C 38.40625 32.085938 38.472656 32.027344 38.539062 31.972656 C 38.605469 31.917969 38.675781 31.863281 38.75 31.816406 C 38.828125 31.765625 38.902344 31.71875 38.984375 31.675781 C 39.066406 31.632812 39.152344 31.589844 39.238281 31.554688 C 39.324219 31.515625 39.414062 31.480469 39.503906 31.453125 C 39.597656 31.421875 39.691406 31.394531 39.785156 31.367188 C 39.882812 31.34375 39.980469 31.324219 40.078125 31.308594 C 40.175781 31.289062 40.277344 31.277344 40.375 31.269531 C 40.476562 31.257812 40.578125 31.253906 40.679688 31.25 C 40.78125 31.246094 40.882812 31.25 40.984375 31.253906 Z M 40.984375 31.253906 "/>
<path style=" stroke:none;fill-rule:nonzero;fill:rgb(2.745098%,47.058824%,78.039216%);fill-opacity:1;" d="M 19.691406 31.59375 C 19.796875 31.601562 19.898438 31.609375 19.996094 31.621094 C 20.097656 31.632812 20.199219 31.648438 20.296875 31.671875 C 20.398438 31.691406 20.496094 31.714844 20.589844 31.738281 C 20.6875 31.765625 20.78125 31.796875 20.875 31.828125 C 20.96875 31.863281 21.058594 31.902344 21.144531 31.941406 C 21.234375 31.980469 21.320312 32.023438 21.402344 32.070312 C 21.484375 32.117188 21.5625 32.164062 21.640625 32.214844 C 21.714844 32.269531 21.789062 32.320312 21.859375 32.378906 C 21.925781 32.4375 21.992188 32.496094 22.054688 32.554688 C 22.117188 32.617188 22.171875 32.679688 22.226562 32.746094 C 22.28125 32.8125 22.328125 32.878906 22.375 32.949219 C 22.417969 33.015625 22.460938 33.085938 22.496094 33.160156 C 22.53125 33.230469 22.5625 33.300781 22.585938 33.375 C 22.613281 33.449219 22.632812 33.523438 22.648438 33.597656 C 22.667969 33.671875 22.675781 33.75 22.683594 33.824219 C 22.691406 33.898438 22.691406 33.972656 22.6875 34.050781 C 22.683594 34.125 22.675781 34.199219 22.660156 34.273438 C 22.648438 34.347656 22.628906 34.421875 22.605469 34.496094 C 22.582031 34.566406 22.550781 34.640625 22.519531 34.710938 C 22.484375 34.78125 22.449219 34.847656 22.40625 34.917969 C 22.363281 34.984375 22.316406 35.050781 22.265625 35.113281 C 22.214844 35.175781 22.15625 35.238281 22.097656 35.300781 C 22.039062 35.359375 21.972656 35.417969 21.90625 35.472656 C 21.839844 35.527344 21.769531 35.578125 21.695312 35.628906 C 21.617188 35.675781 21.539062 35.722656 21.460938 35.769531 C 21.378906 35.8125 21.292969 35.851562 21.207031 35.890625 C 21.121094 35.925781 21.03125 35.960938 20.941406 35.992188 C 20.847656 36.023438 20.753906 36.050781 20.660156 36.074219 C 20.5625 36.097656 20.46875 36.117188 20.367188 36.136719 C 20.269531 36.152344 20.171875 36.164062 20.070312 36.175781 C 19.96875 36.183594 19.867188 36.191406 19.765625 36.191406 C 19.664062 36.195312 19.5625 36.195312 19.460938 36.1875 C 19.359375 36.183594 19.257812 36.175781 19.15625 36.164062 C 19.054688 36.148438 18.957031 36.132812 18.855469 36.113281 C 18.757812 36.09375 18.660156 36.070312 18.5625 36.042969 C 18.464844 36.019531 18.371094 35.988281 18.28125 35.953125 C 18.1875 35.921875 18.097656 35.882812 18.007812 35.84375 C 17.921875 35.804688 17.835938 35.761719 17.753906 35.714844 C 17.671875 35.667969 17.589844 35.617188 17.515625 35.566406 C 17.4375 35.515625 17.363281 35.460938 17.296875 35.40625 C 17.226562 35.347656 17.160156 35.289062 17.097656 35.226562 C 17.039062 35.167969 16.980469 35.101562 16.925781 35.035156 C 16.871094 34.972656 16.824219 34.90625 16.777344 34.835938 C 16.734375 34.765625 16.695312 34.695312 16.660156 34.625 C 16.625 34.554688 16.59375 34.480469 16.566406 34.40625 C 16.542969 34.335938 16.519531 34.261719 16.503906 34.183594 C 16.488281 34.109375 16.476562 34.035156 16.46875 33.960938 C 16.464844 33.886719 16.464844 33.808594 16.46875 33.734375 C 16.46875 33.660156 16.480469 33.585938 16.492188 33.511719 C 16.507812 33.4375 16.527344 33.363281 16.550781 33.289062 C 16.574219 33.214844 16.601562 33.144531 16.636719 33.074219 C 16.667969 33.003906 16.707031 32.933594 16.75 32.867188 C 16.792969 32.800781 16.839844 32.734375 16.890625 32.671875 C 16.941406 32.605469 16.996094 32.542969 17.054688 32.484375 C 17.117188 32.425781 17.179688 32.367188 17.246094 32.3125 C 17.316406 32.257812 17.386719 32.207031 17.460938 32.15625 C 17.535156 32.105469 17.613281 32.058594 17.695312 32.015625 C 17.773438 31.972656 17.859375 31.933594 17.945312 31.894531 C 18.03125 31.855469 18.121094 31.824219 18.214844 31.792969 C 18.304688 31.761719 18.398438 31.734375 18.496094 31.710938 C 18.589844 31.6875 18.6875 31.664062 18.785156 31.648438 C 18.882812 31.632812 18.984375 31.617188 19.085938 31.609375 C 19.183594 31.597656 19.285156 31.59375 19.386719 31.589844 C 19.488281 31.589844 19.589844 31.589844 19.691406 31.59375 Z M 19.691406 31.59375 "/>
<path style="fill:none;stroke-width:7;stroke-linecap:round;stroke-linejoin:round;stroke:rgb(0%,0%,0%);stroke-opacity:1;stroke-miterlimit:4;" d="M 168.835029 147.010704 C 168.266644 158.427827 160.037419 167.299574 150.449013 166.830039 C 140.885319 166.335791 133.595164 156.673248 134.163549 145.231412 " transform="matrix(0.158068,0,0,0.158068,0.000000719616,1.199739)"/>
<path style="fill:none;stroke-width:7;stroke-linecap:round;stroke-linejoin:round;stroke:rgb(0%,0%,0%);stroke-opacity:1;stroke-miterlimit:4;" d="M 244.281949 149.111257 C 244.825622 160.553092 237.510755 170.190924 227.947061 170.660459 C 218.383367 171.129994 210.154142 162.233535 209.610469 150.791699 " transform="matrix(0.158068,0,0,0.158068,0.000000719616,1.199739)"/>
<path style="fill:none;stroke-width:6;stroke-linecap:round;stroke-linejoin:round;stroke:rgb(0%,0%,0%);stroke-opacity:1;stroke-miterlimit:4;" d="M 227.724649 228.660433 C 224.882725 241.807424 205.112815 248.677468 183.563612 243.982114 " transform="matrix(0.158068,0,0,0.158068,0.000000719616,1.199739)"/>
</g>
</svg>
