<?xml version="1.0" encoding="UTF-8"?><svg xmlns="http://www.w3.org/2000/svg" xmlns:xlink="http://www.w3.org/1999/xlink" width="504pt" zoomAndPan="magnify" viewBox="0 0 504 359.999987" height="359.999987pt" preserveAspectRatio="xMidYMid meet" version="1.2"><defs><clipPath xml:id="clip1" id="clip1"><path d="M 97 247 L 118 247 L 118 271.160156 L 97 271.160156 Z M 97 247 "/></clipPath><clipPath xml:id="clip2" id="clip2"><path d="M 57.585938 133.160156 L 191.085938 133.160156 L 191.085938 255 L 57.585938 255 Z M 57.585938 133.160156 "/></clipPath></defs><g xml:id="surface1" id="surface1"><path style=" stroke:none;fill-rule:nonzero;fill:rgb(100%,100%,100%);fill-opacity:1;" d="M 461.105469 358.203125 L 52.785156 358.203125 C 46.261719 358.203125 40.945312 352.886719 40.945312 346.363281 L 40.945312 13.796875 C 40.945312 7.273438 46.261719 1.957031 52.785156 1.957031 L 461.105469 1.957031 C 467.628906 1.957031 472.945312 7.273438 472.945312 13.796875 L 472.945312 346.363281 C 472.945312 352.886719 467.628906 358.203125 461.105469 358.203125 Z M 461.105469 358.203125 "/><path style=" stroke:none;fill-rule:nonzero;fill:rgb(100%,71.759033%,76.078796%);fill-opacity:1;" d="M 198.613281 321.164062 L 42.136719 321.164062 C 38.757812 321.164062 36 318.394531 36 314.992188 L 36 259.839844 C 36 256.4375 38.757812 253.664062 42.136719 253.664062 L 198.613281 253.664062 C 201.992188 253.664062 204.75 256.4375 204.75 259.839844 L 204.75 314.992188 C 204.75 318.394531 201.992188 321.164062 198.613281 321.164062 Z M 198.613281 321.164062 "/><g clip-rule="nonzero" clip-path="url(#clip1)"><path style=" stroke:none;fill-rule:nonzero;fill:rgb(2.749634%,47.059631%,78.039551%);fill-opacity:1;" d="M 112.960938 247.15625 L 101.757812 262.683594 L 97.164062 261.847656 L 105.414062 271.148438 L 117.683594 254.269531 Z M 112.960938 247.15625 "/></g><path style=" stroke:none;fill-rule:nonzero;fill:rgb(2.749634%,47.059631%,78.039551%);fill-opacity:1;" d="M 146.148438 247.078125 L 160.03125 260.265625 L 166.023438 260.71875 L 158 269.261719 L 142.824219 254.9375 Z M 146.148438 247.078125 "/><path style=" stroke:none;fill-rule:nonzero;fill:rgb(93.728638%,45.098877%,55.688477%);fill-opacity:1;" d="M 168.890625 235.910156 L 133.1875 221.855469 L 151.417969 171.078125 L 187.117188 185.128906 Z M 168.890625 235.910156 "/><g clip-rule="nonzero" clip-path="url(#clip2)"><path style=" stroke:none;fill-rule:nonzero;fill:rgb(99.609375%,78.039551%,28.62854%);fill-opacity:1;" d="M 57.585938 254.625 L 191.085938 254.625 L 124.335938 133.175781 Z M 57.585938 254.625 "/></g><path style="fill:none;stroke-width:10;stroke-linecap:butt;stroke-linejoin:round;stroke:rgb(0%,0%,0%);stroke-opacity:1;stroke-miterlimit:4;" d="M 307.593947 154.357397 C 312.317288 168.494894 306.590454 183.151515 294.77345 187.096863 C 282.973749 191.042211 269.582299 182.770824 264.858958 168.616023 " transform="matrix(0.225774,0,0,0.225741,57.584621,133.174809)"/><path style="fill:none;stroke-width:10;stroke-linecap:butt;stroke-linejoin:round;stroke:rgb(0%,0%,0%);stroke-opacity:1;stroke-miterlimit:4;" d="M 408.133633 120.770026 C 412.856974 134.907523 407.13014 149.564145 395.313136 153.509493 C 383.513435 157.454841 370.121985 149.183454 365.398644 134.994044 " transform="matrix(0.225774,0,0,0.225741,57.584621,133.174809)"/><path style="fill:none;stroke-width:5;stroke-linecap:round;stroke-linejoin:round;stroke:rgb(0%,0%,0%);stroke-opacity:1;stroke-miterlimit:4;" d="M 327.992552 286.734205 C 325.483817 301.442739 323.667148 315.735973 316.158247 314.455466 C 308.632044 313.157654 308.787759 299.175894 311.296493 284.450056 " transform="matrix(0.225774,0,0,0.225741,57.584621,133.174809)"/><path style=" stroke:none;fill-rule:nonzero;fill:rgb(0.389099%,60.389709%,33.729553%);fill-opacity:1;" d="M 162.488281 172.5 C 162.546875 172.84375 162.554688 173.191406 162.519531 173.542969 C 162.484375 173.894531 162.402344 174.246094 162.277344 174.59375 C 162.152344 174.9375 161.984375 175.277344 161.769531 175.605469 C 161.558594 175.933594 161.308594 176.246094 161.019531 176.542969 C 160.730469 176.839844 160.40625 177.113281 160.050781 177.367188 C 159.695312 177.625 159.3125 177.851562 158.90625 178.054688 C 158.496094 178.253906 158.070312 178.425781 157.625 178.570312 C 157.179688 178.710938 156.722656 178.820312 156.257812 178.894531 C 155.792969 178.972656 155.328125 179.015625 154.859375 179.023438 C 154.390625 179.027344 153.933594 179.003906 153.480469 178.941406 C 153.03125 178.878906 152.59375 178.785156 152.175781 178.65625 C 151.757812 178.53125 151.363281 178.371094 150.996094 178.183594 C 150.628906 177.992188 150.289062 177.777344 149.984375 177.535156 C 149.679688 177.289062 149.410156 177.023438 149.183594 176.734375 C 148.953125 176.449219 148.761719 176.140625 148.617188 175.820312 C 148.472656 175.496094 148.371094 175.164062 148.3125 174.820312 C 148.257812 174.476562 148.246094 174.128906 148.28125 173.777344 C 148.320312 173.425781 148.398438 173.074219 148.527344 172.730469 C 148.652344 172.382812 148.820312 172.046875 149.03125 171.71875 C 149.242188 171.390625 149.496094 171.078125 149.785156 170.78125 C 150.074219 170.480469 150.394531 170.207031 150.75 169.953125 C 151.105469 169.699219 151.488281 169.46875 151.898438 169.269531 C 152.304688 169.066406 152.734375 168.894531 153.179688 168.753906 C 153.625 168.609375 154.078125 168.5 154.542969 168.425781 C 155.007812 168.347656 155.476562 168.308594 155.941406 168.300781 C 156.410156 168.292969 156.871094 168.320312 157.320312 168.378906 C 157.773438 168.441406 158.207031 168.535156 158.625 168.664062 C 159.042969 168.789062 159.4375 168.949219 159.808594 169.136719 C 160.175781 169.328125 160.511719 169.542969 160.816406 169.789062 C 161.125 170.03125 161.390625 170.296875 161.621094 170.585938 C 161.851562 170.875 162.039062 171.179688 162.1875 171.5 C 162.332031 171.824219 162.433594 172.15625 162.488281 172.5 Z M 162.488281 172.5 "/><path style=" stroke:none;fill-rule:nonzero;fill:rgb(0.389099%,60.389709%,33.729553%);fill-opacity:1;" d="M 116.203125 186.945312 C 116.257812 187.289062 116.269531 187.636719 116.234375 187.988281 C 116.199219 188.339844 116.117188 188.691406 115.992188 189.035156 C 115.863281 189.382812 115.695312 189.71875 115.484375 190.046875 C 115.273438 190.378906 115.023438 190.691406 114.734375 190.988281 C 114.445312 191.285156 114.121094 191.558594 113.765625 191.8125 C 113.410156 192.066406 113.027344 192.296875 112.621094 192.496094 C 112.210938 192.699219 111.785156 192.871094 111.339844 193.011719 C 110.894531 193.15625 110.4375 193.265625 109.972656 193.339844 C 109.507812 193.417969 109.039062 193.457031 108.574219 193.464844 C 108.105469 193.472656 107.648438 193.445312 107.195312 193.386719 C 106.742188 193.324219 106.308594 193.230469 105.890625 193.101562 C 105.472656 192.976562 105.078125 192.816406 104.710938 192.628906 C 104.339844 192.4375 104.003906 192.222656 103.699219 191.980469 C 103.394531 191.734375 103.125 191.46875 102.894531 191.179688 C 102.664062 190.890625 102.476562 190.585938 102.332031 190.265625 C 102.183594 189.941406 102.082031 189.609375 102.027344 189.265625 C 101.972656 188.921875 101.960938 188.574219 101.996094 188.222656 C 102.03125 187.871094 102.113281 187.519531 102.238281 187.175781 C 102.363281 186.828125 102.535156 186.488281 102.746094 186.160156 C 102.957031 185.832031 103.207031 185.519531 103.496094 185.222656 C 103.785156 184.925781 104.109375 184.652344 104.464844 184.398438 C 104.820312 184.144531 105.203125 183.914062 105.609375 183.710938 C 106.019531 183.511719 106.445312 183.339844 106.890625 183.195312 C 107.335938 183.054688 107.792969 182.945312 108.257812 182.871094 C 108.722656 182.792969 109.1875 182.75 109.65625 182.746094 C 110.125 182.738281 110.582031 182.761719 111.035156 182.824219 C 111.488281 182.886719 111.921875 182.980469 112.339844 183.109375 C 112.757812 183.234375 113.152344 183.394531 113.519531 183.582031 C 113.890625 183.773438 114.226562 183.988281 114.53125 184.230469 C 114.835938 184.476562 115.105469 184.742188 115.335938 185.03125 C 115.566406 185.316406 115.753906 185.625 115.898438 185.945312 C 116.046875 186.269531 116.144531 186.601562 116.203125 186.945312 Z M 116.203125 186.945312 "/><path style="fill:none;stroke-width:8;stroke-linecap:round;stroke-linejoin:round;stroke:rgb(0%,0%,0%);stroke-opacity:1;stroke-miterlimit:4;" d="M 295.794246 272.492883 C 306.0195 277.147701 316.711898 280.175929 327.854139 281.560261 C 339.01368 282.961898 350.104016 282.650423 361.159748 280.643141 L 364.325944 280.072104 C 375.571993 277.943692 386.24709 274.136778 396.31663 268.668664 C 406.38617 263.217854 415.400312 256.348103 423.324451 248.076716 L 424.81239 246.519342 " transform="matrix(0.225774,0,0,0.225741,57.584621,133.174809)"/><path style="fill:none;stroke-width:8;stroke-linecap:round;stroke-linejoin:round;stroke:rgb(0%,0%,0%);stroke-opacity:1;stroke-miterlimit:4;" d="M 295.084879 256.157758 C 295.552023 257.299832 295.898055 258.493819 296.122976 259.722414 C 296.347897 260.951009 296.451707 262.196909 296.434405 263.442808 C 296.434405 264.688708 296.295993 265.917303 296.036468 267.145898 C 295.776944 268.357189 295.396309 269.533872 294.911863 270.69325 C 294.427418 271.835325 293.821862 272.925487 293.112495 273.946432 C 292.403129 274.984681 291.607255 275.93641 290.724872 276.801618 C 289.825188 277.666826 288.856298 278.445513 287.818201 279.137679 C 286.762803 279.812542 285.672801 280.383579 284.513593 280.850791 " transform="matrix(0.225774,0,0,0.225741,57.584621,133.174809)"/><path style=" stroke:none;fill-rule:nonzero;fill:rgb(100%,56.079102%,61.569214%);fill-opacity:1;" d="M 137.800781 184.871094 L 187.472656 184.871094 L 187.472656 238.820312 L 137.800781 238.820312 Z M 137.800781 184.871094 "/><path style=" stroke:none;fill-rule:nonzero;fill:rgb(2.749634%,47.059631%,78.039551%);fill-opacity:1;" d="M 140.292969 210.960938 L 134.671875 218.054688 C 132.285156 221.0625 129.511719 223.65625 126.347656 225.835938 L 125.730469 226.261719 C 124.019531 227.4375 122.226562 228.46875 120.351562 229.355469 L 98.84375 239.542969 L 94.023438 236.605469 L 117.085938 225.339844 C 118.84375 224.480469 120.527344 223.492188 122.132812 222.378906 C 125.023438 220.371094 127.589844 218.011719 129.832031 215.300781 L 136.738281 206.976562 C 137.664062 206.214844 136.738281 207.671875 137.761719 208.292969 L 139.992188 206.75 C 140.167969 206.855469 140.328125 206.984375 140.476562 207.128906 C 140.621094 207.273438 140.75 207.4375 140.855469 207.613281 C 140.964844 207.789062 141.050781 207.976562 141.113281 208.171875 C 141.175781 208.371094 141.214844 208.570312 141.230469 208.777344 C 141.242188 208.984375 141.234375 209.1875 141.199219 209.390625 C 141.164062 209.59375 141.105469 209.792969 141.027344 209.980469 C 140.945312 210.171875 140.839844 210.351562 140.71875 210.515625 C 140.59375 210.679688 140.453125 210.828125 140.292969 210.960938 Z M 140.292969 210.960938 "/><path style=" stroke:none;fill-rule:nonzero;fill:rgb(97.648621%,67.449951%,72.549438%);fill-opacity:1;" d="M 187.472656 184.871094 L 137.800781 184.871094 L 141.1875 183.964844 L 184.761719 184.417969 Z M 187.472656 184.871094 "/><path style=" stroke:none;fill-rule:nonzero;fill:rgb(99.21875%,38.42926%,14.898682%);fill-opacity:1;" d="M 159.054688 216.679688 L 158.070312 220.316406 L 155.996094 220.707031 L 159.332031 221.621094 L 160.421875 217.660156 Z M 159.054688 216.679688 "/><path style=" stroke:none;fill-rule:nonzero;fill:rgb(99.21875%,38.42926%,14.898682%);fill-opacity:1;" d="M 165.476562 216.789062 L 166.652344 220.371094 L 168.746094 220.660156 L 165.460938 221.734375 L 164.035156 217.433594 Z M 165.476562 216.789062 "/><path style=" stroke:none;fill-rule:nonzero;fill:rgb(99.609375%,78.039551%,28.62854%);fill-opacity:1;" d="M 168.242188 219.765625 L 162.464844 216.554688 L 156.546875 219.492188 L 157.816406 213.011719 L 153.191406 208.289062 L 159.75 207.496094 L 162.816406 201.640625 L 165.601562 207.628906 L 172.121094 208.734375 L 167.277344 213.230469 Z M 168.242188 219.765625 "/><path style="fill:none;stroke-width:1;stroke-linecap:round;stroke-linejoin:round;stroke:rgb(0%,0%,0%);stroke-opacity:1;stroke-miterlimit:4;" d="M 469.208335 340.844306 C 468.498969 340.861611 467.876111 340.619352 467.357062 340.117532 C 466.855315 339.615711 466.595791 338.992762 466.57849 338.283291 " transform="matrix(0.225774,0,0,0.225741,57.584621,133.174809)"/><path style=" stroke:none;fill-rule:nonzero;fill:rgb(99.21875%,38.42926%,14.898682%);fill-opacity:1;" d="M 165.800781 207.984375 C 166.070312 208.015625 166.292969 208.109375 166.46875 208.269531 C 166.644531 208.429688 166.722656 208.613281 166.703125 208.8125 C 166.679688 209.011719 166.566406 209.171875 166.363281 209.292969 C 166.15625 209.414062 165.917969 209.460938 165.648438 209.429688 C 165.378906 209.402344 165.15625 209.308594 164.980469 209.148438 C 164.804688 208.984375 164.726562 208.804688 164.75 208.605469 C 164.769531 208.40625 164.882812 208.246094 165.089844 208.125 C 165.292969 208.003906 165.53125 207.957031 165.800781 207.984375 Z M 165.800781 207.984375 "/><path style=" stroke:none;fill-rule:nonzero;fill:rgb(99.21875%,38.42926%,14.898682%);fill-opacity:1;" d="M 157.144531 207.085938 C 157.414062 207.113281 157.636719 207.207031 157.8125 207.371094 C 157.988281 207.53125 158.066406 207.710938 158.042969 207.910156 C 158.023438 208.109375 157.910156 208.269531 157.703125 208.390625 C 157.5 208.511719 157.261719 208.558594 156.992188 208.53125 C 156.722656 208.503906 156.5 208.40625 156.324219 208.246094 C 156.148438 208.085938 156.070312 207.90625 156.089844 207.703125 C 156.113281 207.503906 156.226562 207.34375 156.429688 207.222656 C 156.636719 207.101562 156.875 207.054688 157.144531 207.085938 Z M 157.144531 207.085938 "/><path style="fill:none;stroke-width:1;stroke-linecap:butt;stroke-linejoin:miter;stroke:rgb(0%,0%,0%);stroke-opacity:1;stroke-miterlimit:10;" d="M 453.256246 322.813374 C 452.996722 325.322477 451.058941 327.174022 448.965445 326.966372 C 446.854648 326.741418 445.366709 324.526486 445.626234 322.017383 " transform="matrix(0.225774,0,0,0.225741,57.584621,133.174809)"/><path style="fill:none;stroke-width:1;stroke-linecap:butt;stroke-linejoin:miter;stroke:rgb(0%,0%,0%);stroke-opacity:1;stroke-miterlimit:10;" d="M 469.865796 324.197707 C 469.865796 326.724114 468.135635 328.766004 466.007536 328.7487 C 463.896739 328.731396 462.183879 326.672201 462.201181 324.145794 " transform="matrix(0.225774,0,0,0.225741,57.584621,133.174809)"/><path style="fill:none;stroke-width:1;stroke-linecap:butt;stroke-linejoin:miter;stroke:rgb(0%,0%,0%);stroke-opacity:1;stroke-miterlimit:10;" d="M 466.993728 339.148499 C 466.215156 342.020989 461.768641 343.284193 457.079903 342.003685 " transform="matrix(0.225774,0,0,0.225741,57.584621,133.174809)"/></g></svg>