<?xml version="1.0" encoding="UTF-8"?>
<svg xmlns="http://www.w3.org/2000/svg" xmlns:xlink="http://www.w3.org/1999/xlink" width="119pt" height="114pt" viewBox="0 0 119 114" version="1.1">
<g id="surface1">
<path style=" stroke:none;fill-rule:nonzero;fill:rgb(100%,56.078431%,61.568627%);fill-opacity:1;" d="M 118.976562 57 C 118.976562 62.761719 105.800781 66.363281 104.117188 71.5625 C 102.375 76.953125 110.867188 87.636719 107.617188 92.109375 C 104.335938 96.640625 91.574219 91.808594 87.0625 95.105469 C 82.609375 98.371094 83.25 112.066406 77.894531 113.820312 C 72.707031 115.53125 65.238281 104.109375 59.5 104.109375 C 53.761719 104.109375 46.292969 115.53125 41.117188 113.828125 C 35.75 112.082031 36.402344 98.382812 31.949219 95.117188 C 27.425781 91.820312 14.664062 96.652344 11.382812 92.109375 C 8.132812 87.621094 16.621094 76.941406 14.882812 71.554688 C 13.199219 66.363281 0.0234375 62.761719 0.0234375 57 C 0.0234375 51.238281 13.199219 47.632812 14.882812 42.4375 C 16.625 37.050781 8.132812 26.367188 11.382812 21.878906 C 14.664062 17.351562 27.425781 22.179688 31.9375 18.882812 C 36.390625 15.621094 35.75 1.921875 41.105469 0.171875 C 46.292969 -1.519531 53.761719 9.890625 59.5 9.890625 C 65.238281 9.890625 72.707031 -1.519531 77.882812 0.171875 C 83.25 1.921875 82.597656 15.621094 87.050781 18.882812 C 91.5625 22.179688 104.324219 17.351562 107.605469 21.878906 C 110.859375 26.355469 102.367188 37.050781 104.105469 42.4375 C 105.800781 47.632812 118.976562 51.238281 118.976562 57 Z M 118.976562 57 "/>
<path style="fill:none;stroke-width:10;stroke-linecap:butt;stroke-linejoin:round;stroke:rgb(0%,0%,0%);stroke-opacity:1;stroke-miterlimit:4;" d="M 197.942298 157.766935 C 197.942298 169.760131 186.775434 179.39328 173.014398 179.39328 C 159.253362 179.39328 148.101406 169.715602 148.101406 157.766935 " transform="matrix(0.262006,0,0,0.26317,0.0247241,0)"/>
<path style="fill:none;stroke-width:10;stroke-linecap:butt;stroke-linejoin:round;stroke:rgb(0%,0%,0%);stroke-opacity:1;stroke-miterlimit:4;" d="M 307.195679 157.766935 C 307.195679 169.760131 296.043724 179.39328 282.282688 179.39328 C 268.521652 179.39328 257.354788 169.715602 257.354788 157.766935 " transform="matrix(0.262006,0,0,0.26317,0.0247241,0)"/>
<path style="fill:none;stroke-width:11;stroke-linecap:round;stroke-linejoin:round;stroke:rgb(0%,0%,0%);stroke-opacity:1;stroke-miterlimit:4;" d="M 271.607822 229.830014 C 271.607822 243.827024 252.956624 255.211654 229.937079 255.211654 C 206.902626 255.211654 188.236519 243.841867 188.236519 229.830014 " transform="matrix(0.262006,0,0,0.26317,0.0247241,0)"/>
<path style="fill:none;stroke-width:10;stroke-linecap:round;stroke-linejoin:round;stroke:rgb(0%,0%,0%);stroke-opacity:1;stroke-miterlimit:4;" d="M 283.937591 235.351634 C 275.663078 235.351634 268.939105 228.627725 268.939105 220.345295 " transform="matrix(0.262006,0,0,0.26317,0.0247241,0)"/>
<path style="fill:none;stroke-width:10;stroke-linecap:round;stroke-linejoin:round;stroke:rgb(0%,0%,0%);stroke-opacity:1;stroke-miterlimit:4;" d="M 174.937663 236.850783 C 183.227084 236.850783 189.936148 230.126875 189.936148 221.844445 " transform="matrix(0.262006,0,0,0.26317,0.0247241,0)"/>
<path style=" stroke:none;fill-rule:nonzero;fill:rgb(0.392157%,60.392157%,33.72549%);fill-opacity:1;" d="M 93.875 51.746094 C 93.875 49.539062 91.460938 47.75 88.484375 47.75 C 85.507812 47.75 83.097656 49.539062 83.097656 51.746094 C 83.097656 53.953125 85.507812 55.746094 88.484375 55.746094 C 91.460938 55.746094 93.875 53.953125 93.875 51.746094 Z M 93.875 51.746094 "/>
<path style=" stroke:none;fill-rule:nonzero;fill:rgb(0.392157%,60.392157%,33.72549%);fill-opacity:1;" d="M 36.960938 54.46875 C 36.960938 52.261719 34.550781 50.472656 31.574219 50.472656 C 28.597656 50.472656 26.183594 52.261719 26.183594 54.46875 C 26.183594 56.675781 28.597656 58.464844 31.574219 58.464844 C 34.550781 58.464844 36.960938 56.675781 36.960938 54.46875 Z M 36.960938 54.46875 "/>
</g>
</svg>
