<?xml version="1.0" encoding="UTF-8"?>
<svg xmlns="http://www.w3.org/2000/svg" xmlns:xlink="http://www.w3.org/1999/xlink" width="60pt" height="60pt" viewBox="0 0 60 60" version="1.1">
<g id="surface1">
<path style=" stroke:none;fill-rule:nonzero;fill:rgb(100%,41.176471%,23.137255%);fill-opacity:1;" d="M 46.472656 20.25 C 50.40625 20.25 53.597656 17.058594 53.597656 13.121094 C 53.597656 9.1875 50.40625 5.996094 46.472656 5.996094 L 39.34375 5.996094 L 39.34375 13.121094 C 39.34375 17.058594 42.535156 20.25 46.472656 20.25 Z M 46.472656 20.25 "/>
<path style=" stroke:none;fill-rule:nonzero;fill:rgb(100%,41.176471%,23.137255%);fill-opacity:1;" d="M 8.59375 13.121094 L 0.6875 13.121094 C 0.429688 13.121094 0.21875 13.332031 0.21875 13.59375 L 0.21875 21.496094 C 0.21875 21.757812 0.429688 21.964844 0.6875 21.964844 L 8.59375 21.964844 C 8.851562 21.964844 9.0625 21.757812 9.0625 21.496094 L 9.0625 13.59375 C 9.0625 13.332031 8.851562 13.121094 8.59375 13.121094 Z M 8.59375 13.121094 "/>
<path style=" stroke:none;fill-rule:nonzero;fill:rgb(100%,41.176471%,23.137255%);fill-opacity:1;" d="M 7.34375 5.996094 C 3.410156 5.996094 0.21875 9.1875 0.21875 13.121094 C 0.21875 17.058594 3.410156 20.25 7.34375 20.25 L 14.472656 20.25 L 14.472656 13.121094 C 14.472656 9.1875 11.28125 5.996094 7.34375 5.996094 Z M 7.34375 5.996094 "/>
<path style=" stroke:none;fill-rule:nonzero;fill:rgb(100%,41.176471%,23.137255%);fill-opacity:1;" d="M 0.222656 21.761719 C 0.101562 25.695312 3.1875 28.984375 7.121094 29.109375 C 11.054688 29.230469 14.34375 26.140625 14.46875 22.207031 L 14.691406 15.085938 L 7.566406 14.863281 C 3.632812 14.738281 0.34375 17.828125 0.222656 21.761719 Z M 0.222656 21.761719 "/>
<path style=" stroke:none;fill-rule:nonzero;fill:rgb(100%,41.176471%,23.137255%);fill-opacity:1;" d="M 7.5625 15.078125 C 3.628906 15.078125 0.4375 18.269531 0.4375 22.207031 C 0.4375 26.140625 3.628906 29.332031 7.5625 29.332031 L 14.691406 29.332031 L 14.691406 22.207031 C 14.691406 18.269531 11.5 15.078125 7.5625 15.078125 Z M 7.5625 15.078125 "/>
<path style=" stroke:none;fill-rule:nonzero;fill:rgb(100%,41.176471%,23.137255%);fill-opacity:1;" d="M 53.597656 22.207031 C 53.597656 18.269531 50.40625 15.078125 46.472656 15.078125 C 42.535156 15.078125 39.34375 18.269531 39.34375 22.207031 L 39.34375 29.332031 L 46.472656 29.332031 C 50.40625 29.332031 53.597656 26.140625 53.597656 22.207031 Z M 53.597656 22.207031 "/>
<path style=" stroke:none;fill-rule:nonzero;fill:rgb(100%,41.176471%,23.137255%);fill-opacity:1;" d="M 39.347656 21.765625 C 39.347656 25.703125 42.535156 28.894531 46.472656 28.894531 C 50.40625 28.894531 53.597656 25.703125 53.597656 21.765625 L 53.597656 14.640625 L 46.472656 14.640625 C 42.535156 14.640625 39.347656 17.832031 39.347656 21.765625 Z M 39.347656 21.765625 "/>
<path style=" stroke:none;fill-rule:nonzero;fill:rgb(100%,41.176471%,23.137255%);fill-opacity:1;" d="M 46.472656 6.949219 C 42.535156 6.949219 39.347656 10.140625 39.347656 14.078125 C 39.347656 18.011719 42.535156 21.203125 46.472656 21.203125 L 53.597656 21.203125 L 53.597656 14.078125 C 53.597656 10.140625 50.40625 6.949219 46.472656 6.949219 Z M 46.472656 6.949219 "/>
<path style=" stroke:none;fill-rule:nonzero;fill:rgb(100%,41.176471%,23.137255%);fill-opacity:1;" d="M 39.78125 29.3125 L 14.839844 29.3125 C 14.328125 29.3125 13.910156 28.894531 13.910156 28.386719 L 13.910156 6.921875 C 13.910156 6.414062 14.328125 5.996094 14.839844 5.996094 L 39.78125 5.996094 C 40.292969 5.996094 40.710938 6.414062 40.710938 6.921875 L 40.710938 28.386719 C 40.710938 28.894531 40.292969 29.3125 39.78125 29.3125 Z M 39.78125 29.3125 "/>
<path style=" stroke:none;fill-rule:nonzero;fill:rgb(100%,41.176471%,23.137255%);fill-opacity:1;" d="M 1.125 13.121094 C 1.125 17.058594 4.316406 20.25 8.25 20.25 C 12.1875 20.25 15.378906 17.058594 15.378906 13.121094 L 15.378906 5.996094 L 8.25 5.996094 C 4.316406 5.996094 1.125 9.1875 1.125 13.121094 Z M 1.125 13.121094 "/>
<path style=" stroke:none;fill-rule:nonzero;fill:rgb(100%,41.176471%,23.137255%);fill-opacity:1;" d="M 46.472656 29.433594 C 50.40625 29.433594 53.597656 26.242188 53.597656 22.308594 C 53.597656 18.371094 50.40625 15.179688 46.472656 15.179688 L 39.34375 15.179688 L 39.34375 22.308594 C 39.34375 26.242188 42.535156 29.433594 46.472656 29.433594 Z M 46.472656 29.433594 "/>
<path style=" stroke:none;fill-rule:nonzero;fill:rgb(100%,41.176471%,23.137255%);fill-opacity:1;" d="M 8.59375 22.308594 L 0.6875 22.308594 C 0.429688 22.308594 0.21875 22.515625 0.21875 22.777344 L 0.21875 30.683594 C 0.21875 30.941406 0.429688 31.152344 0.6875 31.152344 L 8.59375 31.152344 C 8.851562 31.152344 9.0625 30.941406 9.0625 30.683594 L 9.0625 22.777344 C 9.0625 22.515625 8.851562 22.308594 8.59375 22.308594 Z M 8.59375 22.308594 "/>
<path style=" stroke:none;fill-rule:nonzero;fill:rgb(100%,41.176471%,23.137255%);fill-opacity:1;" d="M 7.34375 15.183594 C 3.410156 15.183594 0.21875 18.371094 0.21875 22.308594 C 0.21875 26.242188 3.410156 29.433594 7.34375 29.433594 L 14.472656 29.433594 L 14.472656 22.308594 C 14.472656 18.371094 11.28125 15.183594 7.34375 15.183594 Z M 7.34375 15.183594 "/>
<path style=" stroke:none;fill-rule:nonzero;fill:rgb(100%,41.176471%,23.137255%);fill-opacity:1;" d="M 0.222656 30.949219 C 0.101562 34.882812 3.1875 38.171875 7.121094 38.292969 C 11.054688 38.417969 14.34375 35.328125 14.46875 31.394531 L 14.691406 24.269531 L 7.566406 24.046875 C 3.632812 23.925781 0.34375 27.015625 0.222656 30.949219 Z M 0.222656 30.949219 "/>
<path style=" stroke:none;fill-rule:nonzero;fill:rgb(100%,41.176471%,23.137255%);fill-opacity:1;" d="M 7.5625 24.265625 C 3.628906 24.265625 0.4375 27.453125 0.4375 31.390625 C 0.4375 35.324219 3.628906 38.515625 7.5625 38.515625 L 14.691406 38.515625 L 14.691406 31.390625 C 14.691406 27.453125 11.5 24.265625 7.5625 24.265625 Z M 7.5625 24.265625 "/>
<path style=" stroke:none;fill-rule:nonzero;fill:rgb(100%,41.176471%,23.137255%);fill-opacity:1;" d="M 53.597656 31.390625 C 53.597656 27.453125 50.40625 24.265625 46.472656 24.265625 C 42.535156 24.265625 39.34375 27.453125 39.34375 31.390625 L 39.34375 38.515625 L 46.472656 38.515625 C 50.40625 38.519531 53.597656 35.324219 53.597656 31.390625 Z M 53.597656 31.390625 "/>
<path style=" stroke:none;fill-rule:nonzero;fill:rgb(100%,41.176471%,23.137255%);fill-opacity:1;" d="M 39.347656 30.953125 C 39.347656 34.886719 42.535156 38.078125 46.472656 38.078125 C 50.40625 38.078125 53.597656 34.886719 53.597656 30.953125 L 53.597656 23.824219 L 46.472656 23.824219 C 42.535156 23.824219 39.347656 27.015625 39.347656 30.953125 Z M 39.347656 30.953125 "/>
<path style=" stroke:none;fill-rule:nonzero;fill:rgb(100%,41.176471%,23.137255%);fill-opacity:1;" d="M 46.472656 16.136719 C 42.535156 16.136719 39.347656 19.324219 39.347656 23.261719 C 39.347656 27.199219 42.535156 30.386719 46.472656 30.386719 L 53.597656 30.386719 L 53.597656 23.261719 C 53.597656 19.324219 50.40625 16.136719 46.472656 16.136719 Z M 46.472656 16.136719 "/>
<path style=" stroke:none;fill-rule:nonzero;fill:rgb(100%,41.176471%,23.137255%);fill-opacity:1;" d="M 39.78125 38.496094 L 14.839844 38.496094 C 14.328125 38.496094 13.910156 38.082031 13.910156 37.570312 L 13.910156 16.109375 C 13.910156 15.597656 14.328125 15.183594 14.839844 15.183594 L 39.78125 15.183594 C 40.292969 15.183594 40.710938 15.597656 40.710938 16.109375 L 40.710938 37.570312 C 40.710938 38.082031 40.292969 38.496094 39.78125 38.496094 Z M 39.78125 38.496094 "/>
<path style=" stroke:none;fill-rule:nonzero;fill:rgb(100%,41.176471%,23.137255%);fill-opacity:1;" d="M 1.125 22.308594 C 1.125 26.242188 4.316406 29.433594 8.25 29.433594 C 12.1875 29.433594 15.378906 26.242188 15.378906 22.308594 L 15.378906 15.179688 L 8.25 15.179688 C 4.316406 15.179688 1.125 18.371094 1.125 22.308594 Z M 1.125 22.308594 "/>
<path style=" stroke:none;fill-rule:nonzero;fill:rgb(100%,41.176471%,23.137255%);fill-opacity:1;" d="M 46.472656 39.632812 C 50.40625 39.632812 53.597656 36.441406 53.597656 32.507812 C 53.597656 28.570312 50.40625 25.378906 46.472656 25.378906 L 39.34375 25.378906 L 39.34375 32.507812 C 39.34375 36.441406 42.535156 39.632812 46.472656 39.632812 Z M 46.472656 39.632812 "/>
<path style=" stroke:none;fill-rule:nonzero;fill:rgb(100%,41.176471%,23.137255%);fill-opacity:1;" d="M 8.59375 32.507812 L 0.6875 32.507812 C 0.429688 32.507812 0.21875 32.714844 0.21875 32.976562 L 0.21875 40.878906 C 0.21875 41.140625 0.429688 41.351562 0.6875 41.351562 L 8.59375 41.351562 C 8.851562 41.351562 9.0625 41.140625 9.0625 40.878906 L 9.0625 32.976562 C 9.0625 32.714844 8.851562 32.507812 8.59375 32.507812 Z M 8.59375 32.507812 "/>
<path style=" stroke:none;fill-rule:nonzero;fill:rgb(100%,41.176471%,23.137255%);fill-opacity:1;" d="M 7.34375 25.378906 C 3.410156 25.378906 0.21875 28.570312 0.21875 32.507812 C 0.21875 36.441406 3.410156 39.632812 7.34375 39.632812 L 14.472656 39.632812 L 14.472656 32.507812 C 14.472656 28.570312 11.28125 25.378906 7.34375 25.378906 Z M 7.34375 25.378906 "/>
<path style=" stroke:none;fill-rule:nonzero;fill:rgb(100%,41.176471%,23.137255%);fill-opacity:1;" d="M 0.222656 41.148438 C 0.101562 45.082031 3.1875 48.371094 7.121094 48.492188 C 11.054688 48.617188 14.34375 45.527344 14.46875 41.59375 L 14.691406 34.46875 L 7.566406 34.246094 C 3.632812 34.125 0.34375 37.214844 0.222656 41.148438 Z M 0.222656 41.148438 "/>
<path style=" stroke:none;fill-rule:nonzero;fill:rgb(100%,41.176471%,23.137255%);fill-opacity:1;" d="M 7.5625 34.464844 C 3.628906 34.464844 0.4375 37.652344 0.4375 41.589844 C 0.4375 45.523438 3.628906 48.714844 7.5625 48.714844 L 14.691406 48.714844 L 14.691406 41.589844 C 14.691406 37.652344 11.5 34.464844 7.5625 34.464844 Z M 7.5625 34.464844 "/>
<path style=" stroke:none;fill-rule:nonzero;fill:rgb(100%,41.176471%,23.137255%);fill-opacity:1;" d="M 53.597656 41.589844 C 53.597656 37.652344 50.40625 34.464844 46.472656 34.464844 C 42.535156 34.464844 39.34375 37.652344 39.34375 41.589844 L 39.34375 48.714844 L 46.472656 48.714844 C 50.40625 48.714844 53.597656 45.523438 53.597656 41.589844 Z M 53.597656 41.589844 "/>
<path style=" stroke:none;fill-rule:nonzero;fill:rgb(100%,41.176471%,23.137255%);fill-opacity:1;" d="M 39.347656 41.152344 C 39.347656 45.085938 42.535156 48.277344 46.472656 48.277344 C 50.40625 48.277344 53.597656 45.085938 53.597656 41.152344 L 53.597656 34.023438 L 46.472656 34.023438 C 42.535156 34.023438 39.347656 37.214844 39.347656 41.152344 Z M 39.347656 41.152344 "/>
<path style=" stroke:none;fill-rule:nonzero;fill:rgb(100%,41.176471%,23.137255%);fill-opacity:1;" d="M 46.472656 26.335938 C 42.535156 26.335938 39.347656 29.523438 39.347656 33.460938 C 39.347656 37.394531 42.535156 40.585938 46.472656 40.585938 L 53.597656 40.585938 L 53.597656 33.460938 C 53.597656 29.523438 50.40625 26.335938 46.472656 26.335938 Z M 46.472656 26.335938 "/>
<path style=" stroke:none;fill-rule:nonzero;fill:rgb(100%,41.176471%,23.137255%);fill-opacity:1;" d="M 39.78125 48.695312 L 14.839844 48.695312 C 14.328125 48.695312 13.910156 48.28125 13.910156 47.769531 L 13.910156 26.308594 C 13.910156 25.796875 14.328125 25.382812 14.839844 25.382812 L 39.78125 25.382812 C 40.292969 25.382812 40.710938 25.796875 40.710938 26.308594 L 40.710938 47.769531 C 40.710938 48.28125 40.292969 48.695312 39.78125 48.695312 Z M 39.78125 48.695312 "/>
<path style=" stroke:none;fill-rule:nonzero;fill:rgb(100%,41.176471%,23.137255%);fill-opacity:1;" d="M 1.125 32.507812 C 1.125 36.441406 4.316406 39.632812 8.25 39.632812 C 12.1875 39.632812 15.378906 36.441406 15.378906 32.507812 L 15.378906 25.378906 L 8.25 25.378906 C 4.316406 25.378906 1.125 28.570312 1.125 32.507812 Z M 1.125 32.507812 "/>
<path style=" stroke:none;fill-rule:nonzero;fill:rgb(100%,41.176471%,23.137255%);fill-opacity:1;" d="M 46.472656 43.773438 C 50.40625 43.773438 53.597656 40.582031 53.597656 36.648438 C 53.597656 32.710938 50.40625 29.523438 46.472656 29.523438 L 39.34375 29.523438 L 39.34375 36.648438 C 39.34375 40.582031 42.535156 43.773438 46.472656 43.773438 Z M 46.472656 43.773438 "/>
<path style=" stroke:none;fill-rule:nonzero;fill:rgb(100%,41.176471%,23.137255%);fill-opacity:1;" d="M 8.59375 36.648438 L 0.6875 36.648438 C 0.429688 36.648438 0.21875 36.859375 0.21875 37.117188 L 0.21875 45.023438 C 0.21875 45.28125 0.429688 45.492188 0.6875 45.492188 L 8.59375 45.492188 C 8.851562 45.492188 9.0625 45.28125 9.0625 45.023438 L 9.0625 37.117188 C 9.0625 36.859375 8.851562 36.648438 8.59375 36.648438 Z M 8.59375 36.648438 "/>
<path style=" stroke:none;fill-rule:nonzero;fill:rgb(100%,41.176471%,23.137255%);fill-opacity:1;" d="M 7.34375 29.523438 C 3.410156 29.523438 0.21875 32.714844 0.21875 36.648438 C 0.21875 40.585938 3.410156 43.773438 7.34375 43.773438 L 14.472656 43.773438 L 14.472656 36.648438 C 14.472656 32.714844 11.28125 29.523438 7.34375 29.523438 Z M 7.34375 29.523438 "/>
<path style=" stroke:none;fill-rule:nonzero;fill:rgb(100%,41.176471%,23.137255%);fill-opacity:1;" d="M 0.222656 45.289062 C 0.101562 49.222656 3.1875 52.511719 7.121094 52.632812 C 11.054688 52.757812 14.34375 49.667969 14.46875 45.734375 L 14.691406 38.613281 L 7.566406 38.390625 C 3.632812 38.265625 0.34375 41.355469 0.222656 45.289062 Z M 0.222656 45.289062 "/>
<path style=" stroke:none;fill-rule:nonzero;fill:rgb(100%,41.176471%,23.137255%);fill-opacity:1;" d="M 7.5625 38.605469 C 3.628906 38.605469 0.4375 41.796875 0.4375 45.730469 C 0.4375 49.667969 3.628906 52.859375 7.5625 52.859375 L 14.691406 52.859375 L 14.691406 45.730469 C 14.691406 41.796875 11.5 38.605469 7.5625 38.605469 Z M 7.5625 38.605469 "/>
<path style=" stroke:none;fill-rule:nonzero;fill:rgb(100%,41.176471%,23.137255%);fill-opacity:1;" d="M 53.597656 45.730469 C 53.597656 41.796875 50.40625 38.605469 46.472656 38.605469 C 42.535156 38.605469 39.34375 41.796875 39.34375 45.730469 L 39.34375 52.859375 L 46.472656 52.859375 C 50.40625 52.859375 53.597656 49.667969 53.597656 45.730469 Z M 53.597656 45.730469 "/>
<path style=" stroke:none;fill-rule:nonzero;fill:rgb(100%,41.176471%,23.137255%);fill-opacity:1;" d="M 39.347656 45.292969 C 39.347656 49.226562 42.535156 52.417969 46.472656 52.417969 C 50.40625 52.417969 53.597656 49.226562 53.597656 45.292969 L 53.597656 38.167969 L 46.472656 38.167969 C 42.535156 38.164062 39.347656 41.355469 39.347656 45.292969 Z M 39.347656 45.292969 "/>
<path style=" stroke:none;fill-rule:nonzero;fill:rgb(100%,41.176471%,23.137255%);fill-opacity:1;" d="M 46.472656 30.476562 C 42.535156 30.476562 39.347656 33.667969 39.347656 37.601562 C 39.347656 41.539062 42.535156 44.730469 46.472656 44.730469 L 53.597656 44.730469 L 53.597656 37.601562 C 53.597656 33.667969 50.40625 30.476562 46.472656 30.476562 Z M 46.472656 30.476562 "/>
<path style=" stroke:none;fill-rule:nonzero;fill:rgb(100%,41.176471%,23.137255%);fill-opacity:1;" d="M 39.78125 52.835938 L 14.839844 52.835938 C 14.328125 52.835938 13.910156 52.421875 13.910156 51.910156 L 13.910156 30.449219 C 13.910156 29.9375 14.328125 29.523438 14.839844 29.523438 L 39.78125 29.523438 C 40.292969 29.523438 40.710938 29.9375 40.710938 30.449219 L 40.710938 51.910156 C 40.710938 52.421875 40.292969 52.835938 39.78125 52.835938 Z M 39.78125 52.835938 "/>
<path style=" stroke:none;fill-rule:nonzero;fill:rgb(100%,41.176471%,23.137255%);fill-opacity:1;" d="M 1.125 36.648438 C 1.125 40.582031 4.316406 43.773438 8.25 43.773438 C 12.1875 43.773438 15.378906 40.582031 15.378906 36.648438 L 15.378906 29.523438 L 8.25 29.523438 C 4.316406 29.519531 1.125 32.710938 1.125 36.648438 Z M 1.125 36.648438 "/>
<path style=" stroke:none;fill-rule:nonzero;fill:rgb(100%,41.176471%,23.137255%);fill-opacity:1;" d="M 51.628906 12.253906 C 51.628906 8.800781 48.828125 5.996094 45.371094 5.996094 C 41.914062 5.996094 39.113281 8.800781 39.113281 12.253906 L 39.113281 18.515625 L 45.371094 18.515625 C 48.828125 18.515625 51.628906 15.710938 51.628906 12.253906 Z M 51.628906 12.253906 "/>
<path style=" stroke:none;fill-rule:nonzero;fill:rgb(100%,41.176471%,23.137255%);fill-opacity:1;" d="M 45.371094 45.523438 L 45.371094 52.464844 C 45.371094 52.695312 45.554688 52.878906 45.785156 52.878906 L 52.726562 52.878906 C 52.957031 52.878906 53.140625 52.695312 53.140625 52.464844 L 53.140625 45.523438 C 53.140625 45.292969 52.957031 45.109375 52.726562 45.109375 L 45.785156 45.109375 C 45.554688 45.109375 45.371094 45.292969 45.371094 45.523438 Z M 45.371094 45.523438 "/>
<path style=" stroke:none;fill-rule:nonzero;fill:rgb(100%,41.176471%,23.137255%);fill-opacity:1;" d="M 39.113281 46.617188 C 39.113281 50.074219 41.914062 52.878906 45.371094 52.878906 C 48.828125 52.878906 51.632812 50.074219 51.632812 46.617188 L 51.632812 40.359375 L 45.371094 40.359375 C 41.914062 40.359375 39.113281 43.164062 39.113281 46.617188 Z M 39.113281 46.617188 "/>
<path style=" stroke:none;fill-rule:nonzero;fill:rgb(100%,41.176471%,23.137255%);fill-opacity:1;" d="M 52.960938 52.875 C 56.417969 52.980469 59.304688 50.269531 59.410156 46.8125 C 59.519531 43.359375 56.808594 40.472656 53.351562 40.363281 L 47.097656 40.167969 L 46.902344 46.421875 C 46.792969 49.878906 49.507812 52.765625 52.960938 52.875 Z M 52.960938 52.875 "/>
<path style=" stroke:none;fill-rule:nonzero;fill:rgb(100%,41.176471%,23.137255%);fill-opacity:1;" d="M 47.089844 46.425781 C 47.089844 49.882812 49.894531 52.683594 53.351562 52.683594 C 56.804688 52.683594 59.609375 49.882812 59.609375 46.425781 L 59.609375 40.167969 L 53.351562 40.167969 C 49.894531 40.167969 47.089844 42.96875 47.089844 46.425781 Z M 47.089844 46.425781 "/>
<path style=" stroke:none;fill-rule:nonzero;fill:rgb(100%,41.176471%,23.137255%);fill-opacity:1;" d="M 53.351562 5.996094 C 49.894531 5.996094 47.089844 8.800781 47.089844 12.253906 C 47.089844 15.710938 49.894531 18.515625 53.351562 18.515625 L 59.609375 18.515625 L 59.609375 12.253906 C 59.609375 8.800781 56.804688 5.996094 53.351562 5.996094 Z M 53.351562 5.996094 "/>
<path style=" stroke:none;fill-rule:nonzero;fill:rgb(100%,41.176471%,23.137255%);fill-opacity:1;" d="M 52.964844 18.515625 C 56.421875 18.515625 59.222656 15.710938 59.222656 12.253906 C 59.222656 8.796875 56.421875 5.996094 52.964844 5.996094 L 46.707031 5.996094 L 46.707031 12.253906 C 46.703125 15.710938 49.507812 18.515625 52.964844 18.515625 Z M 52.964844 18.515625 "/>
<path style=" stroke:none;fill-rule:nonzero;fill:rgb(100%,41.176471%,23.137255%);fill-opacity:1;" d="M 39.953125 12.253906 C 39.953125 15.710938 42.753906 18.515625 46.210938 18.515625 C 49.667969 18.515625 52.46875 15.710938 52.46875 12.253906 L 52.46875 5.996094 L 46.210938 5.996094 C 42.753906 5.996094 39.953125 8.796875 39.953125 12.253906 Z M 39.953125 12.253906 "/>
<path style=" stroke:none;fill-rule:nonzero;fill:rgb(100%,41.176471%,23.137255%);fill-opacity:1;" d="M 59.589844 18.128906 L 59.589844 40.039062 C 59.589844 40.488281 59.226562 40.851562 58.777344 40.851562 L 39.925781 40.851562 C 39.480469 40.851562 39.113281 40.488281 39.113281 40.039062 L 39.113281 18.128906 C 39.113281 17.679688 39.480469 17.316406 39.925781 17.316406 L 58.777344 17.316406 C 59.226562 17.316406 59.589844 17.679688 59.589844 18.128906 Z M 59.589844 18.128906 "/>
<path style=" stroke:none;fill-rule:nonzero;fill:rgb(100%,41.176471%,23.137255%);fill-opacity:1;" d="M 45.371094 52.082031 C 48.828125 52.082031 51.628906 49.28125 51.628906 45.824219 C 51.628906 42.367188 48.828125 39.566406 45.371094 39.566406 L 39.113281 39.566406 L 39.113281 45.824219 C 39.113281 49.28125 41.914062 52.082031 45.371094 52.082031 Z M 45.371094 52.082031 "/>
<path style=" stroke:none;fill-rule:nonzero;fill:rgb(100%,100%,100%);fill-opacity:1;" d="M 27.535156 43.117188 L 23.554688 43.117188 C 23.394531 43.117188 23.265625 42.988281 23.265625 42.828125 L 23.265625 15.828125 C 23.265625 15.667969 23.394531 15.539062 23.554688 15.539062 L 27.535156 15.539062 C 27.691406 15.539062 27.824219 15.667969 27.824219 15.828125 L 27.824219 42.828125 C 27.824219 42.988281 27.691406 43.117188 27.535156 43.117188 Z M 27.535156 43.117188 "/>
<path style=" stroke:none;fill-rule:nonzero;fill:rgb(100%,100%,100%);fill-opacity:1;" d="M 38.847656 43.117188 L 34.867188 43.117188 C 34.710938 43.117188 34.578125 42.988281 34.578125 42.828125 L 34.578125 15.828125 C 34.578125 15.667969 34.710938 15.539062 34.867188 15.539062 L 38.847656 15.539062 C 39.007812 15.539062 39.136719 15.667969 39.136719 15.828125 L 39.136719 42.828125 C 39.136719 42.988281 39.007812 43.117188 38.847656 43.117188 Z M 38.847656 43.117188 "/>
</g>
</svg>
