<?xml version="1.0" encoding="UTF-8"?>
<svg xmlns="http://www.w3.org/2000/svg" xmlns:xlink="http://www.w3.org/1999/xlink" width="168pt" height="96pt" viewBox="0 0 168 96" version="1.1">
<g id="surface1">
<path style=" stroke:none;fill-rule:nonzero;fill:rgb(100%,41.176471%,23.137255%);fill-opacity:1;" d="M 145.242188 57.644531 C 157.578125 57.644531 167.578125 45.738281 167.578125 31.050781 C 167.578125 16.367188 157.578125 4.460938 145.242188 4.460938 L 122.90625 4.460938 L 122.90625 31.050781 C 122.902344 45.738281 132.90625 57.644531 145.242188 57.644531 Z M 145.242188 57.644531 "/>
<path style=" stroke:none;fill-rule:nonzero;fill:rgb(100%,41.176471%,23.137255%);fill-opacity:1;" d="M 26.515625 31.054688 L 1.738281 31.054688 C 0.921875 31.054688 0.265625 31.835938 0.265625 32.808594 L 0.265625 62.300781 C 0.265625 63.273438 0.921875 64.054688 1.738281 64.054688 L 26.515625 64.054688 C 27.332031 64.054688 27.988281 63.273438 27.988281 62.300781 L 27.988281 32.808594 C 27.988281 31.835938 27.332031 31.054688 26.515625 31.054688 Z M 26.515625 31.054688 "/>
<path style=" stroke:none;fill-rule:nonzero;fill:rgb(100%,41.176471%,23.137255%);fill-opacity:1;" d="M 22.601562 4.464844 C 10.265625 4.464844 0.265625 16.367188 0.265625 31.054688 C 0.265625 45.738281 10.265625 57.644531 22.601562 57.644531 L 44.941406 57.644531 L 44.941406 31.054688 C 44.941406 16.367188 34.9375 4.464844 22.601562 4.464844 Z M 22.601562 4.464844 "/>
<path style=" stroke:none;fill-rule:nonzero;fill:rgb(100%,41.176471%,23.137255%);fill-opacity:1;" d="M 0.277344 63.296875 C -0.105469 77.972656 9.574219 90.246094 21.90625 90.703125 C 34.234375 91.164062 44.542969 79.636719 44.929688 64.957031 L 45.625 38.378906 L 23.300781 37.550781 C 10.96875 37.085938 0.664062 48.617188 0.277344 63.296875 Z M 0.277344 63.296875 "/>
<path style=" stroke:none;fill-rule:nonzero;fill:rgb(100%,41.176471%,23.137255%);fill-opacity:1;" d="M 23.289062 38.355469 C 10.953125 38.355469 0.953125 50.261719 0.953125 64.945312 C 0.953125 79.632812 10.953125 91.535156 23.289062 91.535156 L 45.625 91.535156 L 45.625 64.945312 C 45.632812 50.261719 35.625 38.355469 23.289062 38.355469 Z M 23.289062 38.355469 "/>
<path style=" stroke:none;fill-rule:nonzero;fill:rgb(100%,41.176471%,23.137255%);fill-opacity:1;" d="M 167.578125 64.945312 C 167.578125 50.261719 157.578125 38.355469 145.242188 38.355469 C 132.90625 38.355469 122.90625 50.261719 122.90625 64.945312 L 122.90625 91.535156 L 145.242188 91.535156 C 157.578125 91.542969 167.578125 79.632812 167.578125 64.945312 Z M 167.578125 64.945312 "/>
<path style=" stroke:none;fill-rule:nonzero;fill:rgb(100%,41.176471%,23.137255%);fill-opacity:1;" d="M 122.90625 63.308594 C 122.90625 77.996094 132.90625 89.898438 145.242188 89.898438 C 157.582031 89.898438 167.578125 77.996094 167.578125 63.308594 L 167.578125 36.71875 L 145.242188 36.71875 C 132.90625 36.714844 122.90625 48.621094 122.90625 63.308594 Z M 122.90625 63.308594 "/>
<path style=" stroke:none;fill-rule:nonzero;fill:rgb(100%,41.176471%,23.137255%);fill-opacity:1;" d="M 145.242188 8.023438 C 132.90625 8.023438 122.90625 19.925781 122.90625 34.613281 C 122.90625 49.300781 132.90625 61.203125 145.242188 61.203125 L 167.578125 61.203125 L 167.578125 34.613281 C 167.585938 19.925781 157.582031 8.023438 145.242188 8.023438 Z M 145.242188 8.023438 "/>
<path style=" stroke:none;fill-rule:nonzero;fill:rgb(100%,41.176471%,23.137255%);fill-opacity:1;" d="M 124.277344 91.460938 L 46.089844 91.460938 C 44.488281 91.460938 43.1875 89.910156 43.1875 88.003906 L 43.1875 7.921875 C 43.1875 6.015625 44.488281 4.464844 46.089844 4.464844 L 124.277344 4.464844 C 125.878906 4.464844 127.1875 6.015625 127.1875 7.921875 L 127.1875 88.003906 C 127.1875 89.910156 125.878906 91.460938 124.277344 91.460938 Z M 124.277344 91.460938 "/>
<path style=" stroke:none;fill-rule:nonzero;fill:rgb(100%,41.176471%,23.137255%);fill-opacity:1;" d="M 3.109375 31.050781 C 3.109375 45.738281 13.109375 57.644531 25.445312 57.644531 C 37.78125 57.644531 47.78125 45.738281 47.78125 31.050781 L 47.78125 4.460938 L 25.445312 4.460938 C 13.109375 4.457031 3.109375 16.367188 3.109375 31.050781 Z M 3.109375 31.050781 "/>
</g>
</svg>
