<?xml version="1.0" encoding="UTF-8"?><svg xmlns="http://www.w3.org/2000/svg" xmlns:xlink="http://www.w3.org/1999/xlink" width="150pt" zoomAndPan="magnify" viewBox="0 0 150 149.999998" height="149.999998pt" preserveAspectRatio="xMidYMid meet" version="1.2"><defs><clipPath xml:id="clip1" id="clip1"><path d="M 2.453125 0 L 147.203125 0 L 147.203125 133 L 2.453125 133 Z M 2.453125 0 "/></clipPath></defs><g xml:id="surface1" id="surface1"><path style=" stroke:none;fill-rule:nonzero;fill:rgb(2.749634%,47.059631%,78.039551%);fill-opacity:1;" d="M 62.5 123.910156 L 50.351562 140.789062 L 45.367188 139.878906 L 54.316406 149.988281 L 67.617188 131.640625 Z M 62.5 123.910156 "/><path style=" stroke:none;fill-rule:nonzero;fill:rgb(2.749634%,47.059631%,78.039551%);fill-opacity:1;" d="M 98.484375 123.820312 L 113.53125 138.160156 L 120.03125 138.648438 L 111.332031 147.933594 L 94.875 132.367188 Z M 98.484375 123.820312 "/><path style=" stroke:none;fill-rule:nonzero;fill:rgb(93.728638%,45.098877%,55.688477%);fill-opacity:1;" d="M 123.140625 111.683594 L 84.429688 96.410156 L 104.195312 41.210938 L 142.902344 56.488281 Z M 123.140625 111.683594 "/><g clip-rule="nonzero" clip-path="url(#clip1)"><path style=" stroke:none;fill-rule:nonzero;fill:rgb(99.609375%,78.039551%,28.62854%);fill-opacity:1;" d="M 2.453125 132.023438 L 147.203125 132.023438 L 74.828125 0.0117188 Z M 2.453125 132.023438 "/></g><path style="fill:none;stroke-width:10;stroke-linecap:butt;stroke-linejoin:round;stroke:rgb(0%,0%,0%);stroke-opacity:1;stroke-miterlimit:4;" d="M 307.594128 154.348321 C 312.317379 168.484886 306.588841 183.146795 294.780712 187.094845 C 282.972583 191.042894 269.584718 182.764726 264.861467 168.612242 " transform="matrix(0.2448,0,0,0.245374,2.454993,0.0136025)"/><path style="fill:none;stroke-width:10;stroke-linecap:butt;stroke-linejoin:round;stroke:rgb(0%,0%,0%);stroke-opacity:1;stroke-miterlimit:4;" d="M 408.122793 120.773982 C 412.846044 134.910546 407.133463 149.572455 395.325334 153.504585 C 383.517205 157.452635 370.12934 149.174466 365.406089 135.006063 " transform="matrix(0.2448,0,0,0.245374,2.454993,0.0136025)"/><path style="fill:none;stroke-width:5;stroke-linecap:round;stroke-linejoin:round;stroke:rgb(0%,0%,0%);stroke-opacity:1;stroke-miterlimit:4;" d="M 328.003042 286.735335 C 325.497804 301.445003 323.662757 315.740763 316.147043 314.451279 C 308.631328 313.161795 308.790897 299.168507 311.296136 284.442919 " transform="matrix(0.2448,0,0,0.245374,2.454993,0.0136025)"/><path style=" stroke:none;fill-rule:nonzero;fill:rgb(0.389099%,60.389709%,33.729553%);fill-opacity:1;" d="M 116.199219 42.757812 C 116.261719 43.132812 116.273438 43.511719 116.234375 43.894531 C 116.195312 44.277344 116.105469 44.65625 115.96875 45.03125 C 115.832031 45.410156 115.652344 45.777344 115.421875 46.132812 C 115.191406 46.488281 114.917969 46.828125 114.605469 47.152344 C 114.292969 47.476562 113.941406 47.773438 113.558594 48.050781 C 113.171875 48.328125 112.757812 48.574219 112.316406 48.796875 C 111.871094 49.015625 111.410156 49.203125 110.925781 49.355469 C 110.441406 49.511719 109.949219 49.628906 109.445312 49.710938 C 108.941406 49.792969 108.433594 49.839844 107.925781 49.847656 C 107.421875 49.855469 106.921875 49.828125 106.433594 49.761719 C 105.945312 49.695312 105.472656 49.589844 105.019531 49.453125 C 104.566406 49.3125 104.136719 49.140625 103.738281 48.9375 C 103.339844 48.730469 102.972656 48.496094 102.640625 48.230469 C 102.3125 47.964844 102.019531 47.675781 101.769531 47.363281 C 101.519531 47.050781 101.316406 46.71875 101.160156 46.367188 C 101 46.019531 100.890625 45.65625 100.832031 45.28125 C 100.769531 44.910156 100.757812 44.53125 100.796875 44.148438 C 100.835938 43.765625 100.921875 43.386719 101.058594 43.007812 C 101.195312 42.632812 101.378906 42.265625 101.609375 41.90625 C 101.839844 41.550781 102.109375 41.210938 102.421875 40.890625 C 102.738281 40.566406 103.085938 40.265625 103.472656 39.988281 C 103.859375 39.714844 104.273438 39.464844 104.714844 39.246094 C 105.15625 39.027344 105.621094 38.839844 106.105469 38.6875 C 106.585938 38.53125 107.082031 38.414062 107.585938 38.332031 C 108.089844 38.246094 108.59375 38.203125 109.101562 38.195312 C 109.609375 38.183594 110.105469 38.214844 110.597656 38.28125 C 111.085938 38.347656 111.558594 38.449219 112.011719 38.589844 C 112.464844 38.726562 112.890625 38.898438 113.292969 39.105469 C 113.691406 39.3125 114.058594 39.546875 114.386719 39.808594 C 114.71875 40.074219 115.007812 40.363281 115.257812 40.675781 C 115.507812 40.992188 115.710938 41.324219 115.871094 41.671875 C 116.027344 42.023438 116.136719 42.386719 116.199219 42.757812 Z M 116.199219 42.757812 "/><path style=" stroke:none;fill-rule:nonzero;fill:rgb(0.389099%,60.389709%,33.729553%);fill-opacity:1;" d="M 66.011719 58.460938 C 66.074219 58.832031 66.085938 59.210938 66.046875 59.59375 C 66.007812 59.976562 65.921875 60.355469 65.785156 60.734375 C 65.648438 61.109375 65.464844 61.476562 65.234375 61.835938 C 65.003906 62.191406 64.734375 62.53125 64.417969 62.851562 C 64.105469 63.175781 63.757812 63.476562 63.371094 63.753906 C 62.984375 64.027344 62.570312 64.277344 62.128906 64.496094 C 61.683594 64.714844 61.222656 64.902344 60.738281 65.054688 C 60.257812 65.210938 59.761719 65.328125 59.257812 65.410156 C 58.753906 65.496094 58.246094 65.539062 57.742188 65.546875 C 57.234375 65.558594 56.734375 65.527344 56.246094 65.460938 C 55.757812 65.394531 55.285156 65.292969 54.832031 65.152344 C 54.378906 65.015625 53.953125 64.84375 53.550781 64.636719 C 53.152344 64.429688 52.785156 64.195312 52.453125 63.933594 C 52.125 63.667969 51.832031 63.378906 51.582031 63.066406 C 51.335938 62.75 51.128906 62.417969 50.972656 62.070312 C 50.8125 61.71875 50.703125 61.355469 50.644531 60.984375 C 50.582031 60.609375 50.570312 60.230469 50.609375 59.847656 C 50.648438 59.464844 50.734375 59.085938 50.871094 58.710938 C 51.007812 58.332031 51.191406 57.964844 51.421875 57.609375 C 51.652344 57.253906 51.921875 56.914062 52.238281 56.589844 C 52.550781 56.265625 52.898438 55.96875 53.285156 55.691406 C 53.671875 55.414062 54.085938 55.167969 54.527344 54.945312 C 54.972656 54.726562 55.433594 54.539062 55.917969 54.386719 C 56.398438 54.230469 56.894531 54.113281 57.398438 54.03125 C 57.902344 53.949219 58.410156 53.902344 58.914062 53.894531 C 59.421875 53.886719 59.921875 53.914062 60.410156 53.980469 C 60.898438 54.046875 61.371094 54.152344 61.824219 54.289062 C 62.277344 54.429688 62.703125 54.601562 63.105469 54.804688 C 63.503906 55.011719 63.871094 55.246094 64.199219 55.511719 C 64.53125 55.777344 64.824219 56.066406 65.070312 56.378906 C 65.320312 56.691406 65.523438 57.023438 65.683594 57.375 C 65.84375 57.722656 65.953125 58.085938 66.011719 58.460938 Z M 66.011719 58.460938 "/><path style="fill:none;stroke-width:8;stroke-linecap:round;stroke-linejoin:round;stroke:rgb(0%,0%,0%);stroke-opacity:1;stroke-miterlimit:4;" d="M 295.801956 272.503253 C 306.030348 277.151763 316.705535 280.176479 327.85943 281.56148 C 338.997368 282.962401 350.103392 282.644009 361.161545 280.654065 L 364.321017 280.065042 C 375.58661 277.931821 386.24584 274.142967 396.314664 268.68256 C 406.383487 263.206234 415.399153 256.344906 423.313791 248.066738 L 424.813743 246.522541 " transform="matrix(0.2448,0,0,0.245374,2.454993,0.0136025)"/><path style="fill:none;stroke-width:8;stroke-linecap:round;stroke-linejoin:round;stroke:rgb(0%,0%,0%);stroke-opacity:1;stroke-miterlimit:4;" d="M 295.083894 256.153871 C 295.546645 257.300079 295.897697 258.494046 296.121094 259.719851 C 296.344491 260.945657 296.45619 262.187382 296.440233 263.429107 C 296.424276 264.686752 296.296621 265.912558 296.025353 267.138364 C 295.770042 268.364169 295.403032 269.542216 294.908368 270.688424 C 294.413703 271.834632 293.823296 272.917162 293.121191 273.951933 C 292.403129 274.986704 291.605283 275.925958 290.727652 276.801533 C 289.834063 277.677109 288.860691 278.457167 287.807533 279.125788 C 286.770333 279.810329 285.669305 280.383433 284.504449 280.8451 " transform="matrix(0.2448,0,0,0.245374,2.454993,0.0136025)"/><path style=" stroke:none;fill-rule:nonzero;fill:rgb(100%,56.079102%,61.569214%);fill-opacity:1;" d="M 89.433594 56.203125 L 143.289062 56.203125 L 143.289062 114.847656 L 89.433594 114.847656 Z M 89.433594 56.203125 "/><path style=" stroke:none;fill-rule:nonzero;fill:rgb(2.749634%,47.059631%,78.039551%);fill-opacity:1;" d="M 92.132812 84.566406 L 86.039062 92.273438 C 83.449219 95.542969 80.441406 98.363281 77.011719 100.730469 L 76.34375 101.195312 C 74.488281 102.472656 72.542969 103.597656 70.507812 104.558594 L 47.191406 115.632812 L 41.964844 112.441406 L 66.96875 100.191406 C 68.875 99.257812 70.699219 98.1875 72.441406 96.976562 C 75.574219 94.792969 78.359375 92.230469 80.789062 89.285156 L 88.277344 80.234375 C 89.28125 79.40625 88.277344 80.988281 89.386719 81.667969 L 91.808594 79.984375 C 92 80.101562 92.171875 80.242188 92.332031 80.398438 C 92.488281 80.558594 92.628906 80.734375 92.746094 80.925781 C 92.859375 81.117188 92.953125 81.320312 93.019531 81.535156 C 93.089844 81.75 93.132812 81.96875 93.148438 82.191406 C 93.164062 82.414062 93.152344 82.636719 93.117188 82.859375 C 93.078125 83.082031 93.015625 83.296875 92.925781 83.5 C 92.839844 83.707031 92.726562 83.902344 92.59375 84.082031 C 92.457031 84.261719 92.304688 84.421875 92.132812 84.566406 Z M 92.132812 84.566406 "/><path style=" stroke:none;fill-rule:nonzero;fill:rgb(97.648621%,67.449951%,72.549438%);fill-opacity:1;" d="M 143.289062 56.203125 L 89.433594 56.203125 L 93.105469 55.222656 L 140.351562 55.714844 Z M 143.289062 56.203125 "/><path style=" stroke:none;fill-rule:nonzero;fill:rgb(99.21875%,38.42926%,14.898682%);fill-opacity:1;" d="M 112.476562 90.78125 L 111.410156 94.734375 L 109.160156 95.160156 L 112.777344 96.152344 L 113.957031 91.847656 Z M 112.476562 90.78125 "/><path style=" stroke:none;fill-rule:nonzero;fill:rgb(99.21875%,38.42926%,14.898682%);fill-opacity:1;" d="M 119.441406 90.898438 L 120.714844 94.792969 L 122.980469 95.105469 L 119.421875 96.277344 L 117.878906 91.601562 Z M 119.441406 90.898438 "/><path style=" stroke:none;fill-rule:nonzero;fill:rgb(99.609375%,78.039551%,28.62854%);fill-opacity:1;" d="M 122.4375 94.136719 L 116.175781 90.648438 L 109.753906 93.839844 L 111.132812 86.792969 L 106.117188 81.660156 L 113.230469 80.796875 L 116.554688 74.4375 L 119.574219 80.945312 L 126.640625 82.144531 L 121.394531 87.03125 Z M 122.4375 94.136719 "/><path style="fill:none;stroke-width:1;stroke-linecap:round;stroke-linejoin:round;stroke:rgb(0%,0%,0%);stroke-opacity:1;stroke-miterlimit:4;" d="M 469.205924 340.8459 C 468.487863 340.86182 467.881499 340.607107 467.35492 340.1136 C 466.844299 339.604175 466.588988 338.999232 466.573031 338.282852 " transform="matrix(0.2448,0,0,0.245374,2.454993,0.0136025)"/><path style=" stroke:none;fill-rule:nonzero;fill:rgb(99.21875%,38.42926%,14.898682%);fill-opacity:1;" d="M 119.792969 81.332031 C 120.082031 81.363281 120.324219 81.464844 120.515625 81.640625 C 120.707031 81.816406 120.789062 82.011719 120.769531 82.230469 C 120.746094 82.445312 120.621094 82.621094 120.398438 82.75 C 120.175781 82.882812 119.917969 82.933594 119.625 82.902344 C 119.332031 82.871094 119.09375 82.769531 118.902344 82.59375 C 118.710938 82.417969 118.628906 82.222656 118.648438 82.003906 C 118.671875 81.789062 118.796875 81.613281 119.019531 81.480469 C 119.242188 81.351562 119.5 81.300781 119.792969 81.332031 Z M 119.792969 81.332031 "/><path style=" stroke:none;fill-rule:nonzero;fill:rgb(99.21875%,38.42926%,14.898682%);fill-opacity:1;" d="M 110.402344 80.351562 C 110.695312 80.382812 110.9375 80.484375 111.128906 80.660156 C 111.320312 80.835938 111.402344 81.03125 111.378906 81.25 C 111.355469 81.464844 111.234375 81.640625 111.011719 81.773438 C 110.789062 81.902344 110.53125 81.953125 110.238281 81.921875 C 109.945312 81.890625 109.703125 81.789062 109.511719 81.613281 C 109.324219 81.4375 109.238281 81.242188 109.261719 81.027344 C 109.285156 80.808594 109.40625 80.632812 109.628906 80.503906 C 109.851562 80.371094 110.109375 80.320312 110.402344 80.351562 Z M 110.402344 80.351562 "/><path style="fill:none;stroke-width:1;stroke-linecap:butt;stroke-linejoin:miter;stroke:rgb(0%,0%,0%);stroke-opacity:1;stroke-miterlimit:10;" d="M 453.248993 322.809045 C 452.993683 325.324335 451.062894 327.186922 448.956579 326.964049 C 446.866221 326.741175 445.36627 324.512437 445.637537 322.013067 " transform="matrix(0.2448,0,0,0.245374,2.454993,0.0136025)"/><path style="fill:none;stroke-width:1;stroke-linecap:butt;stroke-linejoin:miter;stroke:rgb(0%,0%,0%);stroke-opacity:1;stroke-miterlimit:10;" d="M 469.876116 324.194046 C 469.876116 326.725255 468.13681 328.762958 466.014538 328.747039 C 463.892266 328.747039 462.184875 326.677497 462.200832 324.146288 " transform="matrix(0.2448,0,0,0.245374,2.454993,0.0136025)"/><path style="fill:none;stroke-width:1;stroke-linecap:butt;stroke-linejoin:miter;stroke:rgb(0%,0%,0%);stroke-opacity:1;stroke-miterlimit:10;" d="M 467.003868 339.142508 C 466.221978 342.023947 461.769995 343.297511 457.078657 341.992108 " transform="matrix(0.2448,0,0,0.245374,2.454993,0.0136025)"/></g></svg>