<?xml version="1.0" encoding="UTF-8"?>
<svg xmlns="http://www.w3.org/2000/svg" xmlns:xlink="http://www.w3.org/1999/xlink" width="200px" height="200px" viewBox="0 0 200 200" version="1.1">
<defs>
<clipPath id="clip1">
  <path d="M 16.621094 23.464844 L 180.800781 23.464844 L 180.800781 186.667969 L 16.621094 186.667969 Z M 16.621094 23.464844 "/>
</clipPath>
<clipPath id="clip2">
  <path d="M 157.867188 0 L 183.421875 0 L 183.421875 9 L 157.867188 9 Z M 157.867188 0 "/>
</clipPath>
<clipPath id="clip3">
  <path d="M 16.621094 54 L 34 54 L 34 63 L 16.621094 63 Z M 16.621094 54 "/>
</clipPath>
<clipPath id="clip4">
  <path d="M 166 19.199219 L 183.421875 19.199219 L 183.421875 28.800781 L 166 28.800781 Z M 166 19.199219 "/>
</clipPath>
<clipPath id="clip5">
  <path d="M 177.066406 1.601562 L 183.421875 1.601562 L 183.421875 25.601562 L 177.066406 25.601562 Z M 177.066406 1.601562 "/>
</clipPath>
</defs>
<g id="surface1">
<path style=" stroke:none;fill-rule:nonzero;fill:rgb(99.607843%,78.039216%,28.627451%);fill-opacity:1;" d="M 79.542969 158.910156 L 79.652344 191.898438 L 63.050781 200 L 93.324219 200 L 93.335938 164.046875 Z M 79.542969 158.910156 "/>
<path style=" stroke:none;fill-rule:nonzero;fill:rgb(99.607843%,78.039216%,28.627451%);fill-opacity:1;" d="M 140.832031 155.933594 L 140.832031 191.304688 L 157.390625 199.988281 L 127.199219 199.988281 L 127.136719 157.480469 Z M 140.832031 155.933594 "/>
<g clip-path="url(#clip1)" clip-rule="nonzero">
<path style=" stroke:none;fill-rule:nonzero;fill:rgb(100%,41.176471%,23.137255%);fill-opacity:1;" d="M 162.917969 172.4375 L 108.472656 152.890625 L 61.484375 186.628906 L 63.273438 128.851562 L 16.648438 94.632812 L 72.199219 78.46875 L 90.378906 23.589844 L 122.917969 71.375 L 180.777344 71.675781 L 145.335938 117.371094 Z M 162.917969 172.4375 "/>
</g>
<path style="fill:none;stroke-width:8;stroke-linecap:round;stroke-linejoin:round;stroke:rgb(0%,0%,0%);stroke-opacity:1;stroke-miterlimit:4;" d="M 468.559905 320.371171 C 467.317531 320.587921 466.089602 320.689071 464.832781 320.645721 C 463.604852 320.631271 462.362477 320.472321 461.148995 320.212221 C 459.935512 319.937671 458.750922 319.56197 457.609671 319.05622 C 456.46842 318.55047 455.3994 317.943569 454.373718 317.235519 C 453.348036 316.513018 452.409032 315.718268 451.542259 314.807917 C 450.675486 313.912016 449.909836 312.943866 449.24531 311.889015 C 448.580784 310.834164 448.017382 309.735964 447.555102 308.565513 C 447.10727 307.409512 446.775007 306.210161 446.543867 304.99636 " transform="matrix(0.270399,0,0,0.270329,16.649308,0)"/>
<path style=" stroke:none;fill-rule:nonzero;fill:rgb(99.607843%,78.039216%,28.627451%);fill-opacity:1;" d="M 162.144531 58.042969 C 162.214844 58.453125 162.226562 58.867188 162.183594 59.292969 C 162.140625 59.710938 162.042969 60.132812 161.894531 60.546875 C 161.742188 60.960938 161.539062 61.363281 161.289062 61.757812 C 161.035156 62.152344 160.734375 62.523438 160.386719 62.882812 C 160.039062 63.238281 159.652344 63.566406 159.226562 63.871094 C 158.800781 64.175781 158.34375 64.449219 157.855469 64.691406 C 157.367188 64.933594 156.855469 65.140625 156.320312 65.308594 C 155.789062 65.480469 155.242188 65.609375 154.683594 65.699219 C 154.128906 65.792969 153.570312 65.839844 153.007812 65.851562 C 152.449219 65.859375 151.898438 65.828125 151.359375 65.753906 C 150.820312 65.679688 150.296875 65.570312 149.796875 65.414062 C 149.296875 65.261719 148.824219 65.074219 148.382812 64.847656 C 147.941406 64.621094 147.539062 64.359375 147.171875 64.070312 C 146.804688 63.777344 146.484375 63.457031 146.207031 63.113281 C 145.933594 62.769531 145.707031 62.402344 145.535156 62.015625 C 145.359375 61.632812 145.238281 61.230469 145.171875 60.820312 C 145.101562 60.410156 145.089844 59.992188 145.132812 59.570312 C 145.175781 59.148438 145.273438 58.730469 145.421875 58.316406 C 145.574219 57.898438 145.777344 57.496094 146.027344 57.105469 C 146.285156 56.710938 146.582031 56.335938 146.929688 55.980469 C 147.277344 55.625 147.664062 55.292969 148.085938 54.988281 C 148.515625 54.683594 148.972656 54.414062 149.460938 54.171875 C 149.949219 53.929688 150.460938 53.722656 150.996094 53.554688 C 151.527344 53.382812 152.074219 53.253906 152.632812 53.164062 C 153.191406 53.070312 153.746094 53.019531 154.304688 53.011719 C 154.867188 53.003906 155.417969 53.035156 155.957031 53.105469 C 156.496094 53.179688 157.019531 53.292969 157.519531 53.445312 C 158.019531 53.597656 158.492188 53.789062 158.933594 54.015625 C 159.375 54.242188 159.777344 54.5 160.144531 54.792969 C 160.511719 55.082031 160.832031 55.402344 161.109375 55.746094 C 161.382812 56.09375 161.609375 56.457031 161.785156 56.84375 C 161.957031 57.230469 162.078125 57.628906 162.144531 58.042969 Z M 162.144531 58.042969 "/>
<path style=" stroke:none;fill-rule:nonzero;fill:rgb(99.607843%,78.039216%,28.627451%);fill-opacity:1;" d="M 91.320312 85.3125 C 91.34375 85.730469 91.3125 86.144531 91.226562 86.558594 C 91.140625 86.972656 90.996094 87.378906 90.804688 87.777344 C 90.609375 88.171875 90.367188 88.554688 90.074219 88.917969 C 89.78125 89.285156 89.445312 89.621094 89.058594 89.941406 C 88.679688 90.257812 88.261719 90.546875 87.804688 90.804688 C 87.351562 91.0625 86.867188 91.285156 86.355469 91.476562 C 85.839844 91.664062 85.3125 91.816406 84.765625 91.929688 C 84.214844 92.042969 83.660156 92.113281 83.097656 92.144531 C 82.53125 92.179688 81.972656 92.171875 81.414062 92.121094 C 80.855469 92.070312 80.3125 91.980469 79.78125 91.851562 C 79.253906 91.722656 78.746094 91.554688 78.261719 91.351562 C 77.78125 91.144531 77.332031 90.910156 76.917969 90.636719 C 76.503906 90.363281 76.128906 90.066406 75.792969 89.738281 C 75.460938 89.410156 75.175781 89.058594 74.9375 88.683594 C 74.699219 88.3125 74.515625 87.925781 74.382812 87.523438 C 74.246094 87.121094 74.167969 86.710938 74.144531 86.296875 C 74.121094 85.878906 74.152344 85.464844 74.238281 85.050781 C 74.324219 84.636719 74.464844 84.230469 74.660156 83.832031 C 74.851562 83.433594 75.097656 83.054688 75.390625 82.691406 C 75.683594 82.324219 76.019531 81.984375 76.402344 81.667969 C 76.785156 81.351562 77.203125 81.0625 77.660156 80.804688 C 78.113281 80.546875 78.597656 80.324219 79.109375 80.132812 C 79.621094 79.945312 80.152344 79.792969 80.699219 79.679688 C 81.246094 79.566406 81.804688 79.492188 82.367188 79.460938 C 82.933594 79.429688 83.492188 79.4375 84.050781 79.488281 C 84.609375 79.539062 85.152344 79.628906 85.683594 79.757812 C 86.210938 79.886719 86.71875 80.050781 87.199219 80.257812 C 87.683594 80.460938 88.132812 80.699219 88.546875 80.972656 C 88.960938 81.242188 89.335938 81.542969 89.671875 81.871094 C 90.003906 82.199219 90.289062 82.550781 90.527344 82.921875 C 90.765625 83.292969 90.949219 83.679688 91.082031 84.082031 C 91.214844 84.484375 91.296875 84.894531 91.320312 85.3125 Z M 91.320312 85.3125 "/>
<path style=" stroke:none;fill-rule:nonzero;fill:rgb(99.607843%,78.039216%,28.627451%);fill-opacity:1;" d="M 44.960938 35.414062 C 45.085938 37.5 41.335938 39.414062 36.59375 39.6875 C 31.851562 39.960938 27.898438 38.535156 27.898438 36.445312 C 27.898438 34.28125 31.414062 32.386719 36.160156 32.117188 C 40.902344 31.847656 44.84375 33.332031 44.960938 35.414062 Z M 44.960938 35.414062 "/>
<path style="fill:none;stroke-width:10;stroke-linecap:round;stroke-linejoin:round;stroke:rgb(0%,0%,0%);stroke-opacity:1;stroke-miterlimit:4;" d="M 330.511834 213.643397 C 334.527883 231.63366 325.513442 249.045922 310.460481 252.412774 C 295.393074 255.779626 279.848942 243.901718 275.818447 225.853656 " transform="matrix(0.270399,0,0,0.270329,16.649308,0)"/>
<path style="fill:none;stroke-width:10;stroke-linecap:round;stroke-linejoin:round;stroke:rgb(0%,0%,0%);stroke-opacity:1;stroke-miterlimit:4;" d="M 448.840816 184.454377 C 454.63375 202.011139 447.41064 220.174802 432.704389 225.015555 C 418.012584 229.870758 401.399432 219.567901 395.606498 202.025589 " transform="matrix(0.270399,0,0,0.270329,16.649308,0)"/>
<path style="fill:none;stroke-width:11;stroke-linecap:round;stroke-linejoin:round;stroke:rgb(0%,0%,0%);stroke-opacity:1;stroke-miterlimit:4;" d="M 451.441135 317.004319 C 449.173079 338.563733 418.619325 352.999293 383.197195 349.285641 " transform="matrix(0.270399,0,0,0.270329,16.649308,0)"/>
<path style=" stroke:none;fill-rule:nonzero;fill:rgb(99.607843%,78.039216%,28.627451%);fill-opacity:1;" d="M 163.910156 29.695312 C 164.046875 32.074219 160.351562 32.667969 155.605469 32.9375 C 150.859375 33.207031 146.90625 31.496094 146.769531 29.121094 C 146.636719 26.742188 150.367188 24.585938 155.109375 24.316406 C 159.851562 24.046875 163.773438 27.304688 163.910156 29.695312 Z M 163.910156 29.695312 "/>
<g clip-path="url(#clip2)" clip-rule="nonzero">
<path style=" stroke:none;fill-rule:nonzero;fill:rgb(99.607843%,78.039216%,28.627451%);fill-opacity:1;" d="M 183.378906 2.117188 C 183.714844 4.183594 178.421875 6.894531 171.371094 8.046875 C 164.324219 9.203125 158.339844 8.464844 157.996094 6.398438 C 157.65625 4.332031 163.101562 1.726562 170.148438 0.570312 C 177.195312 -0.582031 183.039062 0.0546875 183.378906 2.117188 Z M 183.378906 2.117188 "/>
</g>
<path style=" stroke:none;fill-rule:nonzero;fill:rgb(99.607843%,78.039216%,28.627451%);fill-opacity:1;" d="M 157.960938 6.445312 L 163.910156 6.445312 L 163.910156 29.695312 L 157.960938 29.695312 Z M 157.960938 6.445312 "/>
<g clip-path="url(#clip3)" clip-rule="nonzero">
<path style=" stroke:none;fill-rule:nonzero;fill:rgb(99.607843%,78.039216%,28.627451%);fill-opacity:1;" d="M 33.847656 59.699219 C 33.984375 62.082031 30.289062 62.671875 25.542969 62.945312 C 20.796875 63.214844 16.84375 61.5 16.707031 59.121094 C 16.574219 56.742188 20.304688 54.585938 25.046875 54.316406 C 29.792969 54.046875 33.710938 57.308594 33.847656 59.699219 Z M 33.847656 59.699219 "/>
</g>
<path style=" stroke:none;fill-rule:nonzero;fill:rgb(99.607843%,78.039216%,28.627451%);fill-opacity:1;" d="M 27.898438 36.453125 L 33.847656 36.453125 L 33.847656 59.699219 L 27.898438 59.699219 Z M 27.898438 36.453125 "/>
<g clip-path="url(#clip4)" clip-rule="nonzero">
<path style=" stroke:none;fill-rule:nonzero;fill:rgb(99.607843%,78.039216%,28.627451%);fill-opacity:1;" d="M 183.378906 25.097656 C 183.515625 27.480469 179.820312 28.070312 175.074219 28.339844 C 170.328125 28.613281 166.375 26.898438 166.238281 24.519531 C 166.105469 22.140625 169.835938 19.984375 174.578125 19.714844 C 179.320312 19.445312 183.242188 22.707031 183.378906 25.097656 Z M 183.378906 25.097656 "/>
</g>
<g clip-path="url(#clip5)" clip-rule="nonzero">
<path style=" stroke:none;fill-rule:nonzero;fill:rgb(99.607843%,78.039216%,28.627451%);fill-opacity:1;" d="M 177.429688 1.851562 L 182.421875 1.851562 C 182.546875 1.851562 182.667969 1.871094 182.789062 1.921875 C 182.902344 1.972656 183.007812 2.039062 183.097656 2.128906 C 183.1875 2.21875 183.257812 2.324219 183.304688 2.441406 C 183.355469 2.554688 183.378906 2.679688 183.378906 2.804688 L 183.378906 25.097656 L 177.429688 25.097656 Z M 177.429688 1.851562 "/>
</g>
</g>
</svg>
