<?xml version="1.0" encoding="UTF-8"?><svg xmlns="http://www.w3.org/2000/svg" xmlns:xlink="http://www.w3.org/1999/xlink" width="138.75pt" zoomAndPan="magnify" viewBox="0 0 138.75 138.749998" height="138.749998pt" preserveAspectRatio="xMidYMid meet" version="1.2"><defs><clipPath xml:id="clip1" id="clip1"><path d="M 43 116 L 60 116 L 60 138.480469 L 43 138.480469 Z M 43 116 "/></clipPath><clipPath xml:id="clip2" id="clip2"><path d="M 77 116 L 94 116 L 94 138.480469 L 77 138.480469 Z M 77 116 "/></clipPath><clipPath xml:id="clip3" id="clip3"><path d="M 115 16 L 138.5 16 L 138.5 39 L 115 39 Z M 115 16 "/></clipPath><clipPath xml:id="clip4" id="clip4"><path d="M 90 15.480469 L 111 15.480469 L 111 35 L 90 35 Z M 90 15.480469 "/></clipPath></defs><g xml:id="surface1" id="surface1"><path style=" stroke:none;fill-rule:nonzero;fill:rgb(2.749634%,47.059631%,78.039551%);fill-opacity:1;" d="M 0.886719 80.082031 L 5.289062 83.679688 C 7.15625 85.210938 9.207031 86.4375 11.441406 87.355469 L 11.878906 87.535156 C 13.085938 88.03125 14.332031 88.429688 15.605469 88.726562 L 30.1875 92.128906 L 32.757812 89.683594 L 17.074219 85.816406 C 15.878906 85.523438 14.714844 85.140625 13.578125 84.671875 C 11.53125 83.824219 9.636719 82.71875 7.894531 81.355469 L 2.539062 77.164062 C 1.867188 76.820312 2.628906 77.589844 2.085938 78.109375 L 0.503906 77.457031 C 0.410156 77.546875 0.328125 77.644531 0.257812 77.753906 C 0.1875 77.863281 0.132812 77.980469 0.0898438 78.101562 C 0.046875 78.222656 0.0195312 78.351562 0.0078125 78.480469 C -0.00390625 78.609375 0 78.738281 0.0195312 78.867188 C 0.0351562 78.992188 0.0703125 79.117188 0.117188 79.238281 C 0.167969 79.359375 0.226562 79.472656 0.304688 79.578125 C 0.378906 79.683594 0.464844 79.777344 0.5625 79.863281 C 0.664062 79.949219 0.769531 80.019531 0.886719 80.082031 Z M 0.886719 80.082031 "/><path style=" stroke:none;fill-rule:nonzero;fill:rgb(2.749634%,47.059631%,78.039551%);fill-opacity:1;" d="M 136.117188 77.65625 L 131.714844 81.253906 C 129.84375 82.785156 127.792969 84.007812 125.558594 84.925781 L 125.121094 85.105469 C 123.910156 85.601562 122.667969 86 121.394531 86.296875 L 106.8125 89.699219 L 104.238281 87.253906 L 119.929688 83.386719 C 121.125 83.097656 122.289062 82.71875 123.425781 82.253906 C 125.472656 81.40625 127.367188 80.300781 129.109375 78.9375 L 134.464844 74.738281 C 135.136719 74.394531 134.375 75.164062 134.917969 75.683594 L 136.496094 75.03125 C 136.59375 75.121094 136.675781 75.222656 136.742188 75.328125 C 136.8125 75.4375 136.871094 75.554688 136.914062 75.675781 C 136.957031 75.800781 136.980469 75.925781 136.996094 76.054688 C 137.007812 76.183594 137.003906 76.3125 136.984375 76.441406 C 136.964844 76.570312 136.933594 76.691406 136.886719 76.8125 C 136.835938 76.933594 136.773438 77.046875 136.699219 77.152344 C 136.625 77.257812 136.539062 77.351562 136.4375 77.4375 C 136.339844 77.523438 136.234375 77.59375 136.117188 77.65625 Z M 136.117188 77.65625 "/><g clip-rule="nonzero" clip-path="url(#clip1)"><path style=" stroke:none;fill-rule:nonzero;fill:rgb(2.749634%,47.059631%,78.039551%);fill-opacity:1;" d="M 52.550781 116.929688 L 52.609375 134.230469 L 43.882812 138.480469 L 59.792969 138.480469 L 59.796875 119.625 Z M 52.550781 116.929688 "/></g><g clip-rule="nonzero" clip-path="url(#clip2)"><path style=" stroke:none;fill-rule:nonzero;fill:rgb(2.749634%,47.059631%,78.039551%);fill-opacity:1;" d="M 84.726562 116.914062 L 84.726562 134.214844 L 93.449219 138.464844 L 77.546875 138.464844 L 77.554688 119.90625 Z M 84.726562 116.914062 "/></g><path style=" stroke:none;fill-rule:nonzero;fill:rgb(100%,56.079102%,61.569214%);fill-opacity:1;" d="M 117.195312 76.101562 C 117.195312 80.902344 109.78125 84.476562 108.371094 88.808594 C 106.910156 93.300781 110.753906 100.53125 108.027344 104.261719 C 105.273438 108.035156 97.175781 106.609375 93.394531 109.367188 C 89.648438 112.085938 88.519531 120.226562 84.015625 121.683594 C 79.671875 123.089844 73.984375 117.214844 69.171875 117.214844 C 64.359375 117.214844 58.679688 123.089844 54.332031 121.683594 C 49.828125 120.226562 48.703125 112.085938 44.953125 109.367188 C 41.171875 106.617188 33.074219 108.042969 30.320312 104.261719 C 27.59375 100.523438 31.4375 93.292969 29.976562 88.808594 C 28.566406 84.476562 21.148438 80.902344 21.148438 76.101562 C 21.148438 71.300781 28.566406 67.726562 29.980469 63.398438 C 31.4375 58.90625 27.597656 51.675781 30.324219 47.945312 C 33.078125 44.171875 41.175781 45.597656 44.957031 42.84375 C 48.703125 40.121094 49.828125 31.980469 54.332031 30.523438 C 58.679688 29.109375 64.363281 34.988281 69.175781 34.988281 C 73.984375 34.988281 79.675781 29.109375 84.015625 30.515625 C 88.519531 31.972656 89.644531 40.113281 93.394531 42.835938 C 97.175781 45.582031 105.277344 44.15625 108.027344 47.9375 C 110.753906 51.675781 106.910156 58.90625 108.375 63.390625 C 109.78125 67.726562 117.195312 71.296875 117.195312 76.101562 Z M 117.195312 76.101562 "/><path style=" stroke:none;fill-rule:nonzero;fill:rgb(100%,41.178894%,23.139954%);fill-opacity:1;" d="M 135.523438 52.496094 C 135.523438 53.0625 128.78125 52.570312 128.613281 53.089844 C 128.445312 53.605469 134.179688 57.175781 133.855469 57.625 C 133.53125 58.074219 128.363281 53.71875 127.914062 54.042969 C 127.460938 54.363281 130.023438 60.609375 129.488281 60.785156 C 128.949219 60.960938 127.355469 54.40625 126.789062 54.40625 C 126.21875 54.40625 124.609375 60.953125 124.089844 60.785156 C 123.570312 60.617188 126.109375 54.371094 125.660156 54.042969 C 125.214844 53.710938 120.046875 58.070312 119.71875 57.617188 C 119.390625 57.167969 125.136719 53.621094 124.960938 53.082031 C 124.785156 52.542969 118.050781 53.0625 118.050781 52.488281 C 118.050781 51.917969 124.792969 52.414062 124.960938 51.898438 C 125.128906 51.378906 119.394531 47.808594 119.71875 47.359375 C 120.046875 46.914062 125.210938 51.265625 125.660156 50.9375 C 126.113281 50.609375 123.550781 44.367188 124.085938 44.195312 C 124.625 44.023438 126.21875 50.574219 126.785156 50.574219 C 127.355469 50.574219 128.96875 44.027344 129.488281 44.195312 C 130.003906 44.363281 127.464844 50.613281 127.910156 50.9375 C 128.359375 51.261719 133.523438 46.910156 133.855469 47.359375 C 134.183594 47.8125 128.4375 51.359375 128.609375 51.898438 C 128.785156 52.433594 135.523438 51.921875 135.523438 52.496094 Z M 135.523438 52.496094 "/><g clip-rule="nonzero" clip-path="url(#clip3)"><path style=" stroke:none;fill-rule:nonzero;fill:rgb(100%,56.079102%,61.569214%);fill-opacity:1;" d="M 137.085938 20.984375 C 137.570312 21.675781 131.769531 25.121094 131.945312 25.914062 C 132.121094 26.707031 138.859375 27.246094 138.75 28.078125 C 138.640625 28.875 131.9375 27.773438 131.578125 28.539062 C 131.238281 29.261719 136.46875 33.613281 135.917969 34.257812 C 135.398438 34.863281 130.246094 30.410156 129.550781 30.898438 C 128.855469 31.382812 131.253906 37.742188 130.507812 38.019531 C 129.714844 38.316406 127.429688 31.914062 126.628906 31.984375 C 125.789062 32.054688 124.5 38.710938 123.71875 38.535156 C 122.902344 38.355469 124.722656 31.859375 124.035156 31.417969 C 123.351562 30.980469 118.105469 35.21875 117.625 34.527344 C 117.140625 33.839844 122.941406 30.394531 122.765625 29.597656 C 122.585938 28.804688 115.851562 28.265625 115.960938 27.4375 C 116.070312 26.640625 122.78125 27.738281 123.132812 26.976562 C 123.464844 26.253906 118.242188 21.898438 118.792969 21.257812 C 119.3125 20.652344 124.464844 25.101562 125.160156 24.617188 C 125.859375 24.132812 123.457031 17.773438 124.203125 17.492188 C 124.996094 17.199219 127.28125 23.601562 128.082031 23.53125 C 128.921875 23.460938 130.210938 16.804688 130.992188 16.980469 C 131.808594 17.160156 129.988281 23.65625 130.675781 24.097656 C 131.359375 24.535156 136.601562 20.300781 137.085938 20.984375 Z M 137.085938 20.984375 "/></g><g clip-rule="nonzero" clip-path="url(#clip4)"><path style=" stroke:none;fill-rule:nonzero;fill:rgb(99.609375%,78.039551%,28.62854%);fill-opacity:1;" d="M 110.660156 24.992188 C 110.660156 25.703125 103.894531 25.335938 103.6875 25.984375 C 103.46875 26.652344 109.152344 30.324219 108.746094 30.875 C 108.34375 31.429688 103.082031 27.171875 102.519531 27.582031 C 101.960938 27.988281 104.40625 34.289062 103.742188 34.507812 C 103.097656 34.714844 101.359375 28.1875 100.644531 28.1875 C 99.929688 28.1875 98.191406 34.710938 97.550781 34.507812 C 96.882812 34.289062 99.324219 27.984375 98.765625 27.582031 C 98.210938 27.175781 92.949219 31.433594 92.542969 30.875 C 92.132812 30.316406 97.820312 26.644531 97.609375 25.980469 C 97.398438 25.335938 90.632812 25.695312 90.632812 24.988281 C 90.632812 24.277344 97.398438 24.640625 97.609375 23.996094 C 97.824219 23.328125 92.144531 19.660156 92.546875 19.105469 C 92.949219 18.550781 98.214844 22.804688 98.773438 22.398438 C 99.332031 21.992188 96.882812 15.703125 97.550781 15.480469 C 98.191406 15.273438 99.933594 21.800781 100.644531 21.800781 C 101.355469 21.800781 103.097656 15.277344 103.742188 15.480469 C 104.40625 15.699219 101.96875 22.003906 102.519531 22.40625 C 103.074219 22.808594 108.339844 18.558594 108.746094 19.117188 C 109.15625 19.675781 103.46875 23.339844 103.6875 24.007812 C 103.894531 24.648438 110.660156 24.28125 110.660156 24.992188 Z M 110.660156 24.992188 "/></g><path style="fill:none;stroke-width:10;stroke-linecap:butt;stroke-linejoin:round;stroke:rgb(0%,0%,0%);stroke-opacity:1;stroke-miterlimit:4;" d="M 441.930988 336.595126 C 441.930988 355.083709 424.665052 370.072962 403.357566 370.072962 C 382.077574 370.072962 364.811637 355.056155 364.811637 336.595126 " transform="matrix(0.142079,0,0,0.141768,0.00000125,15.480722)"/><path style="fill:none;stroke-width:10;stroke-linecap:butt;stroke-linejoin:round;stroke:rgb(0%,0%,0%);stroke-opacity:1;stroke-miterlimit:4;" d="M 610.933716 336.595126 C 610.933716 355.083709 593.667779 370.072962 572.360294 370.072962 C 551.080302 370.072962 533.814365 355.056155 533.814365 336.595126 " transform="matrix(0.142079,0,0,0.141768,0.00000125,15.480722)"/><path style="fill:none;stroke-width:11;stroke-linecap:round;stroke-linejoin:round;stroke:rgb(0%,0%,0%);stroke-opacity:1;stroke-miterlimit:4;" d="M 555.864176 448.077698 C 555.864176 469.762519 527.023463 487.341827 491.391848 487.341827 C 455.787727 487.341827 426.919521 469.762519 426.919521 448.077698 " transform="matrix(0.142079,0,0,0.141768,0.00000125,15.480722)"/><path style="fill:none;stroke-width:10;stroke-linecap:round;stroke-linejoin:round;stroke:rgb(0%,0%,0%);stroke-opacity:1;stroke-miterlimit:4;" d="M 574.999672 456.619368 C 571.920397 456.619368 568.951096 456.013185 566.091769 454.828373 C 563.259935 453.671115 560.73053 451.990334 558.558542 449.813586 C 556.386553 447.636838 554.709447 445.101891 553.527226 442.263852 C 552.345004 439.425813 551.740146 436.450005 551.740146 433.363983 " transform="matrix(0.142079,0,0,0.141768,0.00000125,15.480722)"/><path style="fill:none;stroke-width:10;stroke-linecap:round;stroke-linejoin:round;stroke:rgb(0%,0%,0%);stroke-opacity:1;stroke-miterlimit:4;" d="M 406.354361 458.933886 C 409.433636 458.933886 412.402937 458.327702 415.234771 457.170444 C 418.094098 455.985632 420.623503 454.304851 422.795492 452.128103 C 424.967481 449.951355 426.644586 447.416408 427.826808 444.578369 C 429.009029 441.74033 429.586394 438.764522 429.586394 435.6785 " transform="matrix(0.142079,0,0,0.141768,0.00000125,15.480722)"/><path style=" stroke:none;fill-rule:nonzero;fill:rgb(2.749634%,47.059631%,78.039551%);fill-opacity:1;" d="M 98.007812 71.722656 C 98.007812 71.941406 97.976562 72.15625 97.921875 72.371094 C 97.863281 72.585938 97.777344 72.792969 97.664062 72.996094 C 97.550781 73.199219 97.410156 73.390625 97.246094 73.574219 C 97.082031 73.753906 96.894531 73.921875 96.683594 74.078125 C 96.472656 74.230469 96.246094 74.371094 96 74.492188 C 95.753906 74.613281 95.492188 74.714844 95.21875 74.800781 C 94.941406 74.882812 94.660156 74.945312 94.371094 74.988281 C 94.078125 75.03125 93.785156 75.054688 93.488281 75.054688 C 93.191406 75.054688 92.898438 75.03125 92.605469 74.988281 C 92.316406 74.945312 92.03125 74.882812 91.757812 74.800781 C 91.484375 74.714844 91.222656 74.613281 90.976562 74.492188 C 90.730469 74.371094 90.5 74.230469 90.292969 74.078125 C 90.082031 73.921875 89.894531 73.753906 89.730469 73.574219 C 89.566406 73.390625 89.425781 73.199219 89.3125 72.996094 C 89.199219 72.792969 89.113281 72.585938 89.054688 72.371094 C 88.996094 72.15625 88.96875 71.941406 88.96875 71.722656 C 88.96875 71.503906 88.996094 71.285156 89.054688 71.070312 C 89.113281 70.855469 89.199219 70.648438 89.3125 70.445312 C 89.425781 70.246094 89.566406 70.050781 89.730469 69.871094 C 89.894531 69.6875 90.082031 69.519531 90.292969 69.367188 C 90.5 69.210938 90.730469 69.074219 90.976562 68.953125 C 91.222656 68.828125 91.484375 68.726562 91.757812 68.644531 C 92.03125 68.558594 92.316406 68.496094 92.605469 68.453125 C 92.898438 68.410156 93.191406 68.390625 93.488281 68.390625 C 93.785156 68.390625 94.078125 68.410156 94.371094 68.453125 C 94.660156 68.496094 94.941406 68.558594 95.21875 68.644531 C 95.492188 68.726562 95.753906 68.828125 96 68.953125 C 96.246094 69.074219 96.472656 69.210938 96.683594 69.367188 C 96.894531 69.519531 97.082031 69.6875 97.246094 69.871094 C 97.410156 70.050781 97.550781 70.246094 97.664062 70.445312 C 97.777344 70.648438 97.863281 70.855469 97.921875 71.070312 C 97.976562 71.285156 98.007812 71.503906 98.007812 71.722656 Z M 98.007812 71.722656 "/><path style=" stroke:none;fill-rule:nonzero;fill:rgb(2.749634%,47.059631%,78.039551%);fill-opacity:1;" d="M 50.269531 73.988281 C 50.269531 74.207031 50.238281 74.425781 50.183594 74.640625 C 50.125 74.855469 50.039062 75.0625 49.925781 75.265625 C 49.8125 75.46875 49.671875 75.660156 49.507812 75.839844 C 49.34375 76.023438 49.15625 76.191406 48.945312 76.34375 C 48.734375 76.5 48.507812 76.636719 48.261719 76.761719 C 48.011719 76.882812 47.753906 76.984375 47.480469 77.066406 C 47.203125 77.152344 46.921875 77.214844 46.632812 77.257812 C 46.339844 77.300781 46.046875 77.320312 45.75 77.320312 C 45.453125 77.320312 45.160156 77.300781 44.867188 77.257812 C 44.578125 77.214844 44.292969 77.152344 44.019531 77.066406 C 43.746094 76.984375 43.484375 76.882812 43.238281 76.761719 C 42.992188 76.636719 42.761719 76.5 42.554688 76.34375 C 42.34375 76.191406 42.15625 76.023438 41.992188 75.839844 C 41.828125 75.660156 41.6875 75.46875 41.574219 75.265625 C 41.460938 75.0625 41.375 74.855469 41.316406 74.640625 C 41.257812 74.425781 41.230469 74.207031 41.230469 73.988281 C 41.230469 73.769531 41.257812 73.554688 41.316406 73.339844 C 41.375 73.125 41.460938 72.917969 41.574219 72.714844 C 41.6875 72.511719 41.828125 72.320312 41.992188 72.140625 C 42.15625 71.957031 42.34375 71.789062 42.554688 71.632812 C 42.761719 71.480469 42.992188 71.339844 43.238281 71.21875 C 43.484375 71.097656 43.746094 70.996094 44.019531 70.910156 C 44.292969 70.828125 44.578125 70.765625 44.867188 70.722656 C 45.160156 70.679688 45.453125 70.660156 45.75 70.660156 C 46.046875 70.660156 46.339844 70.679688 46.632812 70.722656 C 46.921875 70.765625 47.203125 70.828125 47.480469 70.910156 C 47.753906 70.996094 48.011719 71.097656 48.261719 71.21875 C 48.507812 71.339844 48.734375 71.480469 48.945312 71.632812 C 49.15625 71.789062 49.34375 71.957031 49.507812 72.140625 C 49.671875 72.320312 49.8125 72.511719 49.925781 72.714844 C 50.039062 72.917969 50.125 73.125 50.183594 73.339844 C 50.238281 73.554688 50.269531 73.769531 50.269531 73.988281 Z M 50.269531 73.988281 "/></g></svg>