<?xml version="1.0" encoding="UTF-8"?>
<svg xmlns="http://www.w3.org/2000/svg" xmlns:xlink="http://www.w3.org/1999/xlink" width="370pt" height="471pt" viewBox="0 0 370 471" version="1.1">
<defs>
<clipPath id="clip1">
  <path d="M 0.285156 278.136719 L 181.804688 278.136719 L 181.804688 335.726562 L 0.285156 335.726562 Z M 0.285156 278.136719 "/>
</clipPath>
<clipPath id="clip2">
  <path d="M 86.90625 273 L 105.402344 273 L 105.402344 294.042969 L 86.90625 294.042969 Z M 86.90625 273 "/>
</clipPath>
<clipPath id="clip3">
  <path d="M 51.945312 174.023438 L 170.027344 174.023438 L 170.027344 280 L 51.945312 280 Z M 51.945312 174.023438 "/>
</clipPath>
</defs>
<g id="surface1">
<g clip-path="url(#clip1)" clip-rule="nonzero">
<path style=" stroke:none;fill-rule:nonzero;fill:rgb(100%,100%,100%);fill-opacity:1;" d="M 176.152344 335.710938 L 4.960938 335.710938 C 1.980469 335.710938 -0.445312 333.332031 -0.445312 330.410156 L -0.445312 283.886719 C -0.445312 280.96875 1.980469 278.585938 4.960938 278.585938 L 176.152344 278.585938 C 179.128906 278.585938 181.558594 280.96875 181.558594 283.886719 L 181.558594 330.410156 C 181.558594 333.332031 179.128906 335.710938 176.152344 335.710938 Z M 176.152344 335.710938 "/>
</g>
<g clip-path="url(#clip2)" clip-rule="nonzero">
<path style=" stroke:none;fill-rule:nonzero;fill:rgb(2.745098%,47.058824%,78.039216%);fill-opacity:1;" d="M 100.925781 273.167969 L 91.015625 286.675781 L 86.953125 285.945312 L 94.253906 294.03125 L 105.101562 279.355469 Z M 100.925781 273.167969 "/>
</g>
<path style=" stroke:none;fill-rule:nonzero;fill:rgb(2.745098%,47.058824%,78.039216%);fill-opacity:1;" d="M 130.28125 273.101562 L 142.5625 284.570312 L 147.859375 284.964844 L 140.761719 292.390625 L 127.339844 279.9375 Z M 130.28125 273.101562 "/>
<path style=" stroke:none;fill-rule:nonzero;fill:rgb(93.72549%,45.098039%,55.686275%);fill-opacity:1;" d="M 150.390625 263.386719 L 118.816406 251.164062 L 134.941406 206.996094 L 166.519531 219.21875 Z M 150.390625 263.386719 "/>
<g clip-path="url(#clip3)" clip-rule="nonzero">
<path style=" stroke:none;fill-rule:nonzero;fill:rgb(99.607843%,78.039216%,28.627451%);fill-opacity:1;" d="M 51.945312 279.660156 L 170.027344 279.660156 L 110.984375 174.035156 Z M 51.945312 279.660156 "/>
</g>
<path style="fill:none;stroke-width:10;stroke-linecap:butt;stroke-linejoin:round;stroke:rgb(0%,0%,0%);stroke-opacity:1;stroke-miterlimit:4;" d="M 307.595553 154.347563 C 312.290068 168.49327 306.597968 183.136364 294.783437 187.095571 C 282.968905 191.034881 269.589535 182.778245 264.855898 168.632538 " transform="matrix(0.199701,0,0,0.196338,51.943921,174.031603)"/>
<path style="fill:none;stroke-width:10;stroke-linecap:butt;stroke-linejoin:round;stroke:rgb(0%,0%,0%);stroke-opacity:1;stroke-miterlimit:4;" d="M 408.116872 120.763944 C 412.850509 134.909651 407.119287 149.572641 395.324316 153.511952 C 383.509785 157.471158 370.130415 149.174731 365.396778 134.989233 " transform="matrix(0.199701,0,0,0.196338,51.943921,174.031603)"/>
<path style="fill:none;stroke-width:5;stroke-linecap:round;stroke-linejoin:round;stroke:rgb(0%,0%,0%);stroke-opacity:1;stroke-miterlimit:4;" d="M 327.997136 286.752175 C 325.493394 301.435061 323.674269 315.739931 316.163044 314.446723 C 308.632258 313.153515 308.808303 299.186868 311.292484 284.444296 " transform="matrix(0.199701,0,0,0.196338,51.943921,174.031603)"/>
<path style=" stroke:none;fill-rule:nonzero;fill:rgb(0.392157%,60.392157%,33.72549%);fill-opacity:1;" d="M 144.734375 208.234375 C 144.785156 208.535156 144.792969 208.835938 144.761719 209.140625 C 144.730469 209.449219 144.660156 209.753906 144.546875 210.054688 C 144.4375 210.355469 144.285156 210.648438 144.097656 210.9375 C 143.910156 211.21875 143.6875 211.492188 143.429688 211.75 C 143.175781 212.007812 142.890625 212.25 142.578125 212.46875 C 142.265625 212.695312 141.925781 212.890625 141.566406 213.0625 C 141.203125 213.238281 140.828125 213.390625 140.429688 213.511719 C 140.039062 213.636719 139.632812 213.726562 139.222656 213.796875 C 138.8125 213.867188 138.402344 213.902344 137.988281 213.910156 C 137.574219 213.917969 137.164062 213.894531 136.765625 213.835938 C 136.367188 213.78125 135.980469 213.703125 135.613281 213.589844 C 135.246094 213.476562 134.894531 213.34375 134.566406 213.179688 C 134.242188 213.011719 133.945312 212.824219 133.675781 212.613281 C 133.40625 212.402344 133.164062 212.171875 132.960938 211.921875 C 132.757812 211.671875 132.589844 211.402344 132.464844 211.121094 C 132.332031 210.839844 132.246094 210.554688 132.195312 210.253906 C 132.144531 209.957031 132.136719 209.652344 132.167969 209.347656 C 132.199219 209.039062 132.269531 208.734375 132.378906 208.433594 C 132.492188 208.136719 132.640625 207.839844 132.832031 207.554688 C 133.019531 207.265625 133.238281 206.992188 133.496094 206.734375 C 133.75 206.480469 134.035156 206.238281 134.351562 206.015625 C 134.667969 205.796875 135.007812 205.597656 135.363281 205.425781 C 135.722656 205.246094 136.105469 205.097656 136.496094 204.980469 C 136.890625 204.851562 137.296875 204.753906 137.707031 204.691406 C 138.121094 204.625 138.53125 204.585938 138.949219 204.582031 C 139.355469 204.574219 139.765625 204.597656 140.160156 204.652344 C 140.5625 204.707031 140.945312 204.785156 141.316406 204.898438 C 141.6875 205.003906 142.035156 205.148438 142.363281 205.308594 C 142.6875 205.480469 142.984375 205.664062 143.253906 205.875 C 143.523438 206.085938 143.761719 206.316406 143.964844 206.570312 C 144.171875 206.820312 144.335938 207.085938 144.464844 207.367188 C 144.59375 207.648438 144.683594 207.9375 144.734375 208.234375 Z M 144.734375 208.234375 "/>
<path style=" stroke:none;fill-rule:nonzero;fill:rgb(0.392157%,60.392157%,33.72549%);fill-opacity:1;" d="M 103.789062 220.796875 C 103.839844 221.097656 103.851562 221.402344 103.820312 221.703125 C 103.785156 222.011719 103.714844 222.316406 103.605469 222.621094 C 103.492188 222.917969 103.34375 223.210938 103.152344 223.496094 C 102.972656 223.785156 102.75 224.058594 102.496094 224.316406 C 102.238281 224.574219 101.953125 224.8125 101.636719 225.035156 C 101.324219 225.253906 100.984375 225.453125 100.625 225.628906 C 100.261719 225.800781 99.882812 225.953125 99.488281 226.078125 C 99.097656 226.199219 98.695312 226.292969 98.28125 226.363281 C 97.871094 226.425781 97.457031 226.464844 97.042969 226.472656 C 96.628906 226.476562 96.222656 226.453125 95.824219 226.398438 C 95.425781 226.347656 95.042969 226.265625 94.671875 226.152344 C 94.300781 226.042969 93.953125 225.902344 93.628906 225.742188 C 93.300781 225.574219 93 225.386719 92.730469 225.175781 C 92.460938 224.964844 92.222656 224.734375 92.027344 224.480469 C 91.820312 224.230469 91.652344 223.964844 91.523438 223.683594 C 91.394531 223.402344 91.304688 223.117188 91.253906 222.816406 C 91.207031 222.519531 91.199219 222.214844 91.226562 221.910156 C 91.257812 221.605469 91.332031 221.300781 91.445312 220.996094 C 91.554688 220.695312 91.707031 220.40625 91.890625 220.117188 C 92.078125 219.832031 92.296875 219.558594 92.554688 219.300781 C 92.808594 219.042969 93.097656 218.800781 93.410156 218.582031 C 93.722656 218.359375 94.0625 218.164062 94.425781 217.988281 C 94.789062 217.8125 95.164062 217.664062 95.558594 217.539062 C 95.949219 217.417969 96.351562 217.324219 96.761719 217.253906 C 97.175781 217.1875 97.589844 217.152344 98.003906 217.144531 C 98.417969 217.136719 98.824219 217.164062 99.226562 217.214844 C 99.617188 217.269531 100.003906 217.347656 100.375 217.460938 C 100.746094 217.574219 101.09375 217.707031 101.421875 217.875 C 101.75 218.039062 102.042969 218.226562 102.3125 218.4375 C 102.589844 218.652344 102.824219 218.882812 103.023438 219.132812 C 103.226562 219.386719 103.394531 219.652344 103.523438 219.929688 C 103.652344 220.210938 103.742188 220.496094 103.789062 220.796875 Z M 103.789062 220.796875 "/>
<path style="fill:none;stroke-width:8;stroke-linecap:round;stroke-linejoin:round;stroke:rgb(0%,0%,0%);stroke-opacity:1;stroke-miterlimit:4;" d="M 295.800582 272.506991 C 306.030714 277.16254 316.710737 280.186657 327.840652 281.579343 C 339.009687 282.972028 350.100481 282.6537 361.171714 280.644254 L 364.320952 280.067284 C 375.58779 277.95836 386.228692 274.158318 396.321901 268.667157 C 406.39555 263.215788 415.393371 256.351837 423.315367 248.05541 L 424.801964 246.50356 " transform="matrix(0.199701,0,0,0.196338,51.943921,174.031603)"/>
<path style="fill:none;stroke-width:8;stroke-linecap:round;stroke-linejoin:round;stroke:rgb(0%,0%,0%);stroke-opacity:1;stroke-miterlimit:4;" d="M 295.076844 256.172778 C 296.015747 258.500552 296.465638 260.927804 296.446078 263.434638 C 296.406957 265.961368 295.898384 268.368725 294.9008 270.696499 C 293.922775 273.004378 292.514421 275.03372 290.734417 276.80442 C 288.915292 278.555225 286.861441 279.90812 284.514183 280.863104 " transform="matrix(0.199701,0,0,0.196338,51.943921,174.031603)"/>
<path style=" stroke:none;fill-rule:nonzero;fill:rgb(100%,56.078431%,61.568627%);fill-opacity:1;" d="M 122.894531 218.992188 L 166.832031 218.992188 L 166.832031 265.917969 L 122.894531 265.917969 Z M 122.894531 218.992188 "/>
<path style=" stroke:none;fill-rule:nonzero;fill:rgb(2.745098%,47.058824%,78.039216%);fill-opacity:1;" d="M 125.097656 241.6875 L 120.128906 247.851562 C 118.015625 250.472656 115.566406 252.726562 112.769531 254.621094 L 112.21875 254.992188 C 110.703125 256.015625 109.121094 256.914062 107.460938 257.6875 L 88.4375 266.542969 L 84.175781 263.992188 L 104.570312 254.191406 C 106.128906 253.445312 107.613281 252.585938 109.039062 251.617188 C 111.59375 249.871094 113.863281 247.816406 115.847656 245.460938 L 121.957031 238.222656 C 122.777344 237.5625 121.957031 238.824219 122.859375 239.363281 L 124.832031 238.023438 C 124.988281 238.117188 125.132812 238.226562 125.261719 238.355469 C 125.390625 238.480469 125.503906 238.617188 125.601562 238.777344 C 125.691406 238.925781 125.769531 239.089844 125.824219 239.261719 C 125.882812 239.433594 125.914062 239.605469 125.925781 239.789062 C 125.941406 239.96875 125.929688 240.144531 125.902344 240.316406 C 125.871094 240.5 125.820312 240.671875 125.746094 240.832031 C 125.675781 241.003906 125.585938 241.15625 125.476562 241.296875 C 125.363281 241.445312 125.242188 241.570312 125.097656 241.6875 Z M 125.097656 241.6875 "/>
<path style=" stroke:none;fill-rule:nonzero;fill:rgb(97.647059%,67.45098%,72.54902%);fill-opacity:1;" d="M 166.832031 218.992188 L 122.894531 218.992188 L 125.894531 218.207031 L 164.433594 218.601562 Z M 166.832031 218.992188 "/>
<path style=" stroke:none;fill-rule:nonzero;fill:rgb(99.215686%,38.431373%,14.901961%);fill-opacity:1;" d="M 141.699219 246.660156 L 140.828125 249.824219 L 138.992188 250.164062 L 141.941406 250.957031 L 142.902344 247.511719 Z M 141.699219 246.660156 "/>
<path style=" stroke:none;fill-rule:nonzero;fill:rgb(99.215686%,38.431373%,14.901961%);fill-opacity:1;" d="M 147.375 246.757812 L 148.417969 249.871094 L 150.265625 250.121094 L 147.359375 251.054688 L 146.105469 247.316406 Z M 147.375 246.757812 "/>
<path style=" stroke:none;fill-rule:nonzero;fill:rgb(99.607843%,78.039216%,28.627451%);fill-opacity:1;" d="M 149.824219 249.34375 L 144.714844 246.554688 L 139.476562 249.105469 L 140.601562 243.46875 L 136.507812 239.359375 L 142.3125 238.671875 L 145.023438 233.582031 L 147.488281 238.792969 L 153.253906 239.75 L 148.96875 243.664062 Z M 149.824219 249.34375 "/>
<path style="fill:none;stroke-width:1;stroke-linecap:round;stroke-linejoin:round;stroke:rgb(0%,0%,0%);stroke-opacity:1;stroke-miterlimit:4;" d="M 469.204259 340.848064 C 468.500081 340.867959 467.874146 340.609318 467.365573 340.092034 C 466.857001 339.614542 466.583154 338.977886 466.583154 338.281543 " transform="matrix(0.199701,0,0,0.196338,51.943921,174.031603)"/>
<path style=" stroke:none;fill-rule:nonzero;fill:rgb(99.215686%,38.431373%,14.901961%);fill-opacity:1;" d="M 147.664062 239.097656 C 147.902344 239.121094 148.101562 239.207031 148.253906 239.34375 C 148.410156 239.488281 148.480469 239.640625 148.460938 239.816406 C 148.441406 239.992188 148.34375 240.128906 148.160156 240.238281 C 147.976562 240.335938 147.769531 240.378906 147.53125 240.355469 C 147.289062 240.328125 147.089844 240.25 146.9375 240.105469 C 146.78125 239.96875 146.714844 239.8125 146.734375 239.636719 C 146.746094 239.464844 146.851562 239.324219 147.03125 239.21875 C 147.214844 239.113281 147.425781 239.074219 147.664062 239.097656 Z M 147.664062 239.097656 "/>
<path style=" stroke:none;fill-rule:nonzero;fill:rgb(99.215686%,38.431373%,14.901961%);fill-opacity:1;" d="M 140.003906 238.3125 C 140.242188 238.339844 140.441406 238.421875 140.597656 238.5625 C 140.75 238.703125 140.820312 238.859375 140.800781 239.035156 C 140.785156 239.207031 140.683594 239.34375 140.5 239.453125 C 140.320312 239.558594 140.105469 239.59375 139.867188 239.574219 C 139.628906 239.550781 139.433594 239.464844 139.277344 239.324219 C 139.121094 239.183594 139.058594 239.03125 139.074219 238.855469 C 139.09375 238.679688 139.191406 238.542969 139.375 238.433594 C 139.554688 238.332031 139.765625 238.292969 140.003906 238.3125 Z M 140.003906 238.3125 "/>
<path style="fill:none;stroke-width:1;stroke-linecap:butt;stroke-linejoin:miter;stroke:rgb(0%,0%,0%);stroke-opacity:1;stroke-miterlimit:10;" d="M 453.262466 322.802837 C 452.988619 325.329567 451.071692 327.179849 448.959159 326.960999 C 446.866188 326.742148 445.360031 324.533746 445.614317 322.007017 " transform="matrix(0.199701,0,0,0.196338,51.943921,174.031603)"/>
<path style="fill:none;stroke-width:1;stroke-linecap:butt;stroke-linejoin:miter;stroke:rgb(0%,0%,0%);stroke-opacity:1;stroke-miterlimit:10;" d="M 469.869315 324.175627 C 469.869315 326.722252 468.128432 328.751594 466.0159 328.751594 C 463.883808 328.731699 462.201606 326.662566 462.201606 324.135836 " transform="matrix(0.199701,0,0,0.196338,51.943921,174.031603)"/>
<path style="fill:none;stroke-width:1;stroke-linecap:butt;stroke-linejoin:miter;stroke:rgb(0%,0%,0%);stroke-opacity:1;stroke-miterlimit:10;" d="M 466.993924 339.13705 C 466.231065 342.021899 461.771275 343.295211 457.07676 342.002003 " transform="matrix(0.199701,0,0,0.196338,51.943921,174.031603)"/>
<path style=" stroke:none;fill-rule:nonzero;fill:rgb(100%,100%,100%);fill-opacity:1;" d="M 352.324219 103.6875 L 46.582031 103.6875 C 42.617188 103.6875 39.390625 100.527344 39.390625 96.640625 L 39.390625 32.355469 C 39.390625 28.472656 42.617188 25.308594 46.582031 25.308594 L 352.324219 25.308594 C 356.289062 25.308594 359.519531 28.472656 359.519531 32.355469 L 359.519531 96.640625 C 359.519531 100.527344 356.289062 103.6875 352.324219 103.6875 Z M 352.324219 103.6875 "/>
<path style=" stroke:none;fill-rule:nonzero;fill:rgb(0.392157%,60.392157%,33.72549%);fill-opacity:1;" d="M 355.933594 159.296875 L 231.230469 159.296875 C 229.410156 159.296875 227.941406 160.738281 227.941406 162.535156 L 227.941406 217.023438 C 227.941406 218.816406 229.410156 220.257812 231.230469 220.257812 L 355.933594 220.257812 C 357.757812 220.257812 359.226562 218.816406 359.226562 217.023438 L 359.226562 162.535156 C 359.226562 160.738281 357.757812 159.296875 355.933594 159.296875 Z M 355.933594 159.296875 "/>
<path style=" stroke:none;fill-rule:nonzero;fill:rgb(0%,0%,0%);fill-opacity:1;" d="M 102.011719 52.4375 C 102.011719 50.953125 102.816406 49.691406 104.414062 48.648438 L 105.507812 47.894531 C 106.007812 47.554688 106.261719 47.113281 106.261719 46.578125 L 106.261719 46 L 109.292969 46 L 109.292969 46.925781 C 109.292969 47.621094 109.15625 48.210938 108.878906 48.695312 C 108.601562 49.171875 108.167969 49.601562 107.582031 50 L 106.371094 50.832031 C 106.039062 51.085938 105.792969 51.332031 105.628906 51.574219 C 105.464844 51.816406 105.382812 52.101562 105.382812 52.4375 C 105.382812 52.882812 105.53125 53.246094 105.832031 53.527344 C 106.140625 53.808594 106.570312 53.949219 107.121094 53.949219 C 107.695312 53.949219 108.128906 53.792969 108.429688 53.480469 C 108.738281 53.171875 108.894531 52.777344 108.894531 52.300781 L 112 52.300781 C 112 53.160156 111.816406 53.929688 111.445312 54.617188 C 111.085938 55.316406 110.527344 55.875 109.773438 56.300781 C 109.019531 56.722656 108.128906 56.933594 107.105469 56.933594 C 105.515625 56.933594 104.265625 56.515625 103.367188 55.675781 C 102.464844 54.847656 102.011719 53.769531 102.011719 52.4375 Z M 105.90625 42.988281 C 105.90625 42.464844 106.082031 42.035156 106.433594 41.699219 C 106.773438 41.371094 107.230469 41.199219 107.785156 41.199219 C 108.308594 41.199219 108.746094 41.375 109.109375 41.714844 C 109.46875 42.050781 109.648438 42.472656 109.648438 42.988281 C 109.648438 43.503906 109.464844 43.933594 109.09375 44.273438 C 108.730469 44.621094 108.296875 44.789062 107.785156 44.789062 C 107.238281 44.789062 106.785156 44.621094 106.433594 44.273438 C 106.082031 43.933594 105.90625 43.503906 105.90625 42.988281 Z M 105.90625 42.988281 "/>
<path style=" stroke:none;fill-rule:nonzero;fill:rgb(0%,0%,0%);fill-opacity:1;" d="M 114.667969 53.332031 L 114.667969 38.160156 L 120.152344 38.160156 C 121.355469 38.160156 122.460938 38.347656 123.460938 38.714844 C 124.464844 39.082031 125.296875 39.597656 125.96875 40.261719 C 126.644531 40.917969 127.167969 41.710938 127.539062 42.640625 C 127.910156 43.570312 128.09375 44.585938 128.09375 45.683594 C 128.09375 48.039062 127.386719 49.898438 125.96875 51.273438 C 124.554688 52.644531 122.613281 53.332031 120.152344 53.332031 Z M 118.148438 50.359375 L 119.996094 50.359375 C 120.464844 50.359375 120.910156 50.316406 121.316406 50.210938 C 121.738281 50.097656 122.140625 49.929688 122.535156 49.695312 C 122.925781 49.464844 123.257812 49.171875 123.535156 48.820312 C 123.8125 48.464844 124.035156 48.023438 124.199219 47.484375 C 124.359375 46.949219 124.445312 46.351562 124.445312 45.683594 C 124.445312 44.894531 124.324219 44.207031 124.074219 43.609375 C 123.828125 43.003906 123.492188 42.53125 123.058594 42.183594 C 122.636719 41.835938 122.164062 41.574219 121.640625 41.398438 C 121.125 41.214844 120.582031 41.128906 119.996094 41.128906 L 118.148438 41.128906 Z M 118.148438 50.359375 "/>
<path style=" stroke:none;fill-rule:nonzero;fill:rgb(0%,0%,0%);fill-opacity:1;" d="M 129.734375 47.664062 C 129.734375 45.878906 130.28125 44.425781 131.382812 43.308594 C 132.488281 42.175781 133.929688 41.613281 135.707031 41.613281 C 136.628906 41.613281 137.464844 41.773438 138.21875 42.097656 C 138.964844 42.40625 139.574219 42.84375 140.046875 43.394531 C 140.527344 43.941406 140.894531 44.574219 141.140625 45.289062 C 141.394531 46.007812 141.527344 46.765625 141.527344 47.5625 L 141.527344 48.53125 L 132.96875 48.53125 C 133.027344 49.269531 133.308594 49.867188 133.8125 50.332031 C 134.316406 50.800781 134.96875 51.03125 135.765625 51.03125 C 136.402344 51.03125 136.941406 50.902344 137.386719 50.648438 C 137.835938 50.386719 138.15625 50.0625 138.339844 49.664062 L 141.417969 49.664062 C 141.148438 50.875 140.507812 51.839844 139.492188 52.558594 C 138.480469 53.265625 137.1875 53.617188 135.628906 53.617188 C 134.523438 53.617188 133.515625 53.363281 132.613281 52.859375 C 131.722656 52.34375 131.019531 51.632812 130.503906 50.726562 C 129.988281 49.820312 129.734375 48.800781 129.734375 47.664062 Z M 133.027344 46.304688 L 138.371094 46.304688 C 138.296875 45.691406 138.019531 45.179688 137.539062 44.773438 C 137.054688 44.375 136.445312 44.167969 135.707031 44.167969 C 135 44.167969 134.390625 44.378906 133.890625 44.804688 C 133.398438 45.222656 133.109375 45.722656 133.027344 46.304688 Z M 133.027344 46.304688 "/>
<path style=" stroke:none;fill-rule:nonzero;fill:rgb(0%,0%,0%);fill-opacity:1;" d="M 148.804688 47.546875 C 148.804688 45.75 149.296875 44.3125 150.28125 43.230469 C 151.265625 42.148438 152.558594 41.613281 154.160156 41.613281 C 154.609375 41.613281 155.027344 41.664062 155.40625 41.777344 C 155.796875 41.878906 156.121094 42.019531 156.378906 42.199219 C 156.632812 42.375 156.839844 42.542969 156.996094 42.699219 C 157.15625 42.851562 157.28125 43.011719 157.375 43.167969 L 157.558594 43.167969 L 157.558594 41.894531 L 160.945312 41.894531 L 160.945312 58.308594 L 157.546875 58.308594 L 157.546875 52.027344 L 157.359375 52.027344 C 157.085938 52.421875 156.671875 52.785156 156.117188 53.117188 C 155.570312 53.453125 154.890625 53.617188 154.082031 53.617188 C 152.515625 53.617188 151.238281 53.058594 150.265625 51.9375 C 149.289062 50.808594 148.804688 49.347656 148.804688 47.546875 Z M 152.253906 47.609375 C 152.253906 48.484375 152.5 49.203125 152.992188 49.757812 C 153.484375 50.304688 154.121094 50.574219 154.914062 50.574219 C 155.703125 50.574219 156.351562 50.3125 156.855469 49.773438 C 157.351562 49.226562 157.605469 48.507812 157.605469 47.609375 C 157.605469 46.738281 157.363281 46.027344 156.886719 45.472656 C 156.402344 44.917969 155.753906 44.636719 154.945312 44.636719 C 154.132812 44.636719 153.484375 44.910156 152.992188 45.457031 C 152.5 45.992188 152.253906 46.707031 152.253906 47.609375 Z M 152.253906 47.609375 "/>
<path style=" stroke:none;fill-rule:nonzero;fill:rgb(0%,0%,0%);fill-opacity:1;" d="M 163.542969 49.515625 L 163.542969 41.894531 L 166.960938 41.894531 L 166.960938 48.46875 C 166.960938 49.078125 167.121094 49.570312 167.453125 49.9375 C 167.792969 50.316406 168.25 50.5 168.835938 50.5 C 169.421875 50.5 169.890625 50.296875 170.253906 49.875 C 170.625 49.453125 170.808594 48.929688 170.808594 48.304688 L 170.808594 41.894531 L 174.226562 41.894531 L 174.226562 53.332031 L 170.992188 53.332031 L 170.992188 52.074219 L 170.808594 52.074219 C 170.570312 52.5 170.175781 52.859375 169.621094 53.164062 C 169.074219 53.464844 168.4375 53.617188 167.714844 53.617188 C 166.441406 53.617188 165.421875 53.238281 164.664062 52.484375 C 163.917969 51.71875 163.542969 50.726562 163.542969 49.515625 Z M 163.542969 49.515625 "/>
<path style=" stroke:none;fill-rule:nonzero;fill:rgb(0%,0%,0%);fill-opacity:1;" d="M 176.25 47.664062 C 176.25 45.878906 176.796875 44.425781 177.898438 43.308594 C 179.003906 42.175781 180.445312 41.613281 182.222656 41.613281 C 183.144531 41.613281 183.980469 41.773438 184.730469 42.097656 C 185.480469 42.40625 186.089844 42.84375 186.5625 43.394531 C 187.042969 43.941406 187.410156 44.574219 187.65625 45.289062 C 187.910156 46.007812 188.042969 46.765625 188.042969 47.5625 L 188.042969 48.53125 L 179.480469 48.53125 C 179.542969 49.269531 179.824219 49.867188 180.328125 50.332031 C 180.828125 50.800781 181.484375 51.03125 182.285156 51.03125 C 182.917969 51.03125 183.457031 50.902344 183.898438 50.648438 C 184.351562 50.386719 184.671875 50.0625 184.855469 49.664062 L 187.933594 49.664062 C 187.664062 50.875 187.023438 51.839844 186.011719 52.558594 C 184.992188 53.265625 183.703125 53.617188 182.148438 53.617188 C 181.039062 53.617188 180.027344 53.363281 179.128906 52.859375 C 178.238281 52.34375 177.53125 51.632812 177.019531 50.726562 C 176.503906 49.820312 176.25 48.800781 176.25 47.664062 Z M 179.542969 46.304688 L 184.886719 46.304688 C 184.8125 45.691406 184.535156 45.179688 184.054688 44.773438 C 183.570312 44.375 182.960938 44.167969 182.222656 44.167969 C 181.515625 44.167969 180.90625 44.378906 180.40625 44.804688 C 179.914062 45.222656 179.625 45.722656 179.542969 46.304688 Z M 180.808594 40.261719 L 181.886719 36.976562 L 185.148438 36.976562 L 183.113281 40.261719 Z M 180.808594 40.261719 "/>
<path style=" stroke:none;fill-rule:nonzero;fill:rgb(0%,0%,0%);fill-opacity:1;" d="M 195.320312 47.609375 C 195.320312 46.484375 195.566406 45.472656 196.058594 44.5625 C 196.558594 43.652344 197.277344 42.9375 198.210938 42.410156 C 199.15625 41.878906 200.238281 41.613281 201.460938 41.613281 C 203.0625 41.613281 204.398438 42.046875 205.476562 42.910156 C 206.554688 43.785156 207.175781 44.917969 207.34375 46.320312 L 203.878906 46.320312 C 203.726562 45.828125 203.433594 45.421875 203 45.109375 C 202.570312 44.796875 202.0625 44.636719 201.476562 44.636719 C 200.652344 44.636719 200 44.921875 199.507812 45.484375 C 199.015625 46.054688 198.765625 46.757812 198.765625 47.609375 C 198.765625 48.464844 199.019531 49.175781 199.523438 49.742188 C 200.023438 50.300781 200.679688 50.574219 201.492188 50.574219 C 202.054688 50.574219 202.546875 50.433594 202.96875 50.148438 C 203.390625 49.855469 203.679688 49.480469 203.832031 49.015625 L 207.3125 49.015625 C 207.125 50.375 206.5 51.492188 205.429688 52.34375 C 204.371094 53.195312 203.054688 53.617188 201.476562 53.617188 C 200.253906 53.617188 199.171875 53.347656 198.226562 52.816406 C 197.28125 52.28125 196.558594 51.558594 196.058594 50.648438 C 195.566406 49.734375 195.320312 48.71875 195.320312 47.609375 Z M 195.320312 47.609375 "/>
<path style=" stroke:none;fill-rule:nonzero;fill:rgb(0%,0%,0%);fill-opacity:1;" d="M 208.945312 47.609375 C 208.945312 46.769531 209.089844 45.984375 209.390625 45.257812 C 209.699219 44.523438 210.121094 43.886719 210.65625 43.351562 C 211.199219 42.808594 211.859375 42.382812 212.640625 42.082031 C 213.429688 41.769531 214.289062 41.613281 215.207031 41.613281 C 217.046875 41.613281 218.550781 42.183594 219.71875 43.335938 C 220.890625 44.480469 221.476562 45.902344 221.476562 47.609375 C 221.476562 48.445312 221.320312 49.234375 221.015625 49.96875 C 220.707031 50.707031 220.277344 51.339844 219.734375 51.875 C 219.1875 52.414062 218.527344 52.835938 217.734375 53.148438 C 216.953125 53.460938 216.105469 53.617188 215.195312 53.617188 C 213.984375 53.617188 212.894531 53.347656 211.929688 52.816406 C 210.980469 52.28125 210.238281 51.558594 209.714844 50.648438 C 209.199219 49.742188 208.945312 48.726562 208.945312 47.609375 Z M 212.394531 47.609375 C 212.394531 48.484375 212.65625 49.203125 213.179688 49.757812 C 213.710938 50.304688 214.382812 50.574219 215.195312 50.574219 C 216.003906 50.574219 216.675781 50.300781 217.210938 49.742188 C 217.742188 49.1875 218.011719 48.476562 218.011719 47.609375 C 218.011719 46.738281 217.742188 46.027344 217.210938 45.472656 C 216.675781 44.917969 216.003906 44.636719 215.195312 44.636719 C 214.382812 44.636719 213.710938 44.917969 213.179688 45.472656 C 212.65625 46.027344 212.394531 46.738281 212.394531 47.609375 Z M 212.394531 47.609375 "/>
<path style=" stroke:none;fill-rule:nonzero;fill:rgb(0%,0%,0%);fill-opacity:1;" d="M 223.703125 49.726562 L 223.703125 37.082031 L 227.136719 37.082031 L 227.136719 49.351562 C 227.136719 50.039062 227.449219 50.375 228.089844 50.375 L 228.523438 50.375 L 228.523438 53.332031 L 227.335938 53.332031 C 226.183594 53.332031 225.292969 53.011719 224.65625 52.375 C 224.019531 51.742188 223.703125 50.855469 223.703125 49.726562 Z M 223.703125 49.726562 "/>
<path style=" stroke:none;fill-rule:nonzero;fill:rgb(0%,0%,0%);fill-opacity:1;" d="M 230.164062 47.609375 C 230.164062 46.769531 230.3125 45.984375 230.613281 45.257812 C 230.917969 44.523438 231.339844 43.886719 231.875 43.351562 C 232.417969 42.808594 233.078125 42.382812 233.859375 42.082031 C 234.648438 41.769531 235.507812 41.613281 236.433594 41.613281 C 238.265625 41.613281 239.773438 42.183594 240.9375 43.335938 C 242.109375 44.480469 242.695312 45.902344 242.695312 47.609375 C 242.695312 48.445312 242.542969 49.234375 242.234375 49.96875 C 241.925781 50.707031 241.496094 51.339844 240.953125 51.875 C 240.40625 52.414062 239.746094 52.835938 238.953125 53.148438 C 238.171875 53.460938 237.324219 53.617188 236.417969 53.617188 C 235.203125 53.617188 234.113281 53.347656 233.148438 52.816406 C 232.199219 52.28125 231.457031 51.558594 230.933594 50.648438 C 230.417969 49.742188 230.164062 48.726562 230.164062 47.609375 Z M 233.613281 47.609375 C 233.613281 48.484375 233.875 49.203125 234.398438 49.757812 C 234.929688 50.304688 235.605469 50.574219 236.417969 50.574219 C 237.222656 50.574219 237.894531 50.300781 238.429688 49.742188 C 238.960938 49.1875 239.230469 48.476562 239.230469 47.609375 C 239.230469 46.738281 238.960938 46.027344 238.429688 45.472656 C 237.894531 44.917969 237.222656 44.636719 236.417969 44.636719 C 235.605469 44.636719 234.929688 44.917969 234.398438 45.472656 C 233.875 46.027344 233.613281 46.738281 233.613281 47.609375 Z M 233.613281 47.609375 "/>
<path style=" stroke:none;fill-rule:nonzero;fill:rgb(0%,0%,0%);fill-opacity:1;" d="M 244.921875 53.332031 L 244.921875 41.894531 L 248.136719 41.894531 L 248.136719 43.625 L 248.324219 43.625 C 248.546875 43.132812 248.925781 42.699219 249.449219 42.339844 C 249.980469 41.972656 250.605469 41.792969 251.308594 41.792969 L 252.449219 41.792969 L 252.449219 44.957031 L 251.097656 44.957031 C 250.253906 44.957031 249.585938 45.242188 249.09375 45.804688 C 248.601562 46.371094 248.355469 47.144531 248.355469 48.121094 L 248.355469 53.332031 Z M 244.921875 53.332031 "/>
<path style=" stroke:none;fill-rule:nonzero;fill:rgb(0%,0%,0%);fill-opacity:1;" d="M 259.710938 49.820312 L 262.800781 49.820312 C 262.839844 50.210938 263.027344 50.515625 263.355469 50.726562 C 263.683594 50.929688 264.132812 51.03125 264.699219 51.03125 C 265.273438 51.03125 265.710938 50.9375 266.019531 50.757812 C 266.335938 50.566406 266.496094 50.3125 266.496094 49.984375 C 266.496094 49.734375 266.394531 49.53125 266.203125 49.375 C 266.019531 49.226562 265.773438 49.117188 265.46875 49.0625 C 265.160156 49 264.804688 48.9375 264.40625 48.875 C 264.011719 48.8125 263.613281 48.75 263.203125 48.695312 C 262.789062 48.632812 262.386719 48.527344 261.984375 48.363281 C 261.597656 48.203125 261.25 48.007812 260.941406 47.773438 C 260.640625 47.542969 260.394531 47.207031 260.203125 46.773438 C 260.015625 46.34375 259.925781 45.832031 259.925781 45.242188 C 259.925781 44.226562 260.34375 43.367188 261.1875 42.667969 C 262.035156 41.964844 263.210938 41.613281 264.714844 41.613281 C 266.085938 41.613281 267.207031 41.925781 268.066406 42.566406 C 268.9375 43.191406 269.410156 44.085938 269.480469 45.242188 L 266.527344 45.242188 C 266.472656 44.890625 266.296875 44.609375 265.988281 44.394531 C 265.679688 44.183594 265.257812 44.078125 264.714844 44.078125 C 264.1875 44.078125 263.773438 44.175781 263.464844 44.367188 C 263.15625 44.546875 263.003906 44.789062 263.003906 45.09375 C 263.003906 45.296875 263.078125 45.457031 263.234375 45.578125 C 263.386719 45.699219 263.59375 45.796875 263.851562 45.867188 C 264.117188 45.925781 264.421875 45.976562 264.757812 46.015625 C 265.105469 46.058594 265.46875 46.109375 265.832031 46.167969 C 266.203125 46.21875 266.578125 46.285156 266.957031 46.367188 C 267.335938 46.449219 267.699219 46.574219 268.039062 46.742188 C 268.375 46.917969 268.671875 47.128906 268.929688 47.378906 C 269.191406 47.621094 269.40625 47.949219 269.558594 48.363281 C 269.714844 48.78125 269.789062 49.257812 269.789062 49.804688 C 269.789062 50.933594 269.335938 51.851562 268.4375 52.558594 C 267.542969 53.265625 266.289062 53.617188 264.683594 53.617188 C 263.058594 53.617188 261.835938 53.285156 261.003906 52.617188 C 260.171875 51.945312 259.738281 51.011719 259.710938 49.820312 Z M 259.710938 49.820312 "/>
<path style=" stroke:none;fill-rule:nonzero;fill:rgb(0%,0%,0%);fill-opacity:1;" d="M 271.402344 47.609375 C 271.402344 46.769531 271.546875 45.984375 271.847656 45.257812 C 272.15625 44.523438 272.574219 43.886719 273.105469 43.351562 C 273.652344 42.808594 274.3125 42.382812 275.09375 42.082031 C 275.882812 41.769531 276.738281 41.613281 277.664062 41.613281 C 279.5 41.613281 281.003906 42.183594 282.175781 43.335938 C 283.347656 44.480469 283.925781 45.902344 283.925781 47.609375 C 283.925781 48.445312 283.773438 49.234375 283.46875 49.96875 C 283.160156 50.707031 282.734375 51.339844 282.191406 51.875 C 281.644531 52.414062 280.976562 52.835938 280.1875 53.148438 C 279.410156 53.460938 278.5625 53.617188 277.648438 53.617188 C 276.433594 53.617188 275.347656 53.347656 274.386719 52.816406 C 273.429688 52.28125 272.695312 51.558594 272.171875 50.648438 C 271.65625 49.742188 271.402344 48.726562 271.402344 47.609375 Z M 274.847656 47.609375 C 274.847656 48.484375 275.109375 49.203125 275.632812 49.757812 C 276.164062 50.304688 276.835938 50.574219 277.648438 50.574219 C 278.457031 50.574219 279.132812 50.300781 279.667969 49.742188 C 280.195312 49.1875 280.464844 48.476562 280.464844 47.609375 C 280.464844 46.738281 280.195312 46.027344 279.667969 45.472656 C 279.132812 44.917969 278.457031 44.636719 277.648438 44.636719 C 276.835938 44.636719 276.164062 44.917969 275.632812 45.472656 C 275.109375 46.027344 274.847656 46.738281 274.847656 47.609375 Z M 274.847656 47.609375 "/>
<path style=" stroke:none;fill-rule:nonzero;fill:rgb(0%,0%,0%);fill-opacity:1;" d="M 286.160156 53.332031 L 286.160156 41.894531 L 289.375 41.894531 L 289.375 43.136719 L 289.558594 43.136719 C 289.8125 42.707031 290.214844 42.34375 290.761719 42.050781 C 291.300781 41.757812 291.945312 41.613281 292.683594 41.613281 C 293.945312 41.613281 294.949219 41.996094 295.699219 42.761719 C 296.457031 43.519531 296.839844 44.5 296.839844 45.699219 L 296.839844 53.332031 L 293.4375 53.332031 L 293.4375 46.742188 C 293.4375 46.136719 293.269531 45.652344 292.929688 45.289062 C 292.589844 44.917969 292.132812 44.730469 291.558594 44.730469 C 290.972656 44.730469 290.5 44.941406 290.128906 45.367188 C 289.769531 45.78125 289.589844 46.300781 289.589844 46.925781 L 289.589844 53.332031 Z M 286.160156 53.332031 "/>
<path style=" stroke:none;fill-rule:nonzero;fill:rgb(0%,0%,0%);fill-opacity:1;" d="M 79.433594 79.480469 L 79.433594 66.835938 L 82.867188 66.835938 L 82.867188 79.101562 C 82.867188 79.792969 83.179688 80.132812 83.820312 80.132812 L 84.253906 80.132812 L 84.253906 83.085938 L 83.066406 83.085938 C 81.914062 83.085938 81.023438 82.765625 80.390625 82.132812 C 79.75 81.492188 79.433594 80.613281 79.433594 79.480469 Z M 79.433594 79.480469 "/>
<path style=" stroke:none;fill-rule:nonzero;fill:rgb(0%,0%,0%);fill-opacity:1;" d="M 85.894531 77.421875 C 85.894531 75.628906 86.378906 74.167969 87.359375 73.042969 C 88.332031 71.925781 89.605469 71.363281 91.175781 71.363281 C 91.984375 71.363281 92.667969 71.53125 93.222656 71.863281 C 93.777344 72.191406 94.183594 72.550781 94.453125 72.957031 L 94.640625 72.957031 L 94.640625 71.652344 L 98.039062 71.652344 L 98.039062 83.085938 L 94.65625 83.085938 L 94.65625 81.78125 L 94.46875 81.78125 C 94.378906 81.945312 94.246094 82.109375 94.085938 82.265625 C 93.929688 82.421875 93.722656 82.585938 93.46875 82.765625 C 93.210938 82.945312 92.886719 83.09375 92.496094 83.203125 C 92.121094 83.316406 91.703125 83.375 91.253906 83.375 C 89.652344 83.375 88.359375 82.835938 87.375 81.75 C 86.386719 80.664062 85.894531 79.21875 85.894531 77.421875 Z M 89.34375 77.363281 C 89.34375 78.25 89.589844 78.964844 90.082031 79.511719 C 90.574219 80.054688 91.222656 80.328125 92.023438 80.328125 C 92.828125 80.328125 93.476562 80.050781 93.960938 79.496094 C 94.453125 78.933594 94.699219 78.21875 94.699219 77.363281 C 94.699219 76.460938 94.445312 75.746094 93.945312 75.210938 C 93.441406 74.667969 92.792969 74.394531 92.007812 74.394531 C 91.214844 74.394531 90.574219 74.675781 90.082031 75.222656 C 89.589844 75.769531 89.34375 76.480469 89.34375 77.363281 Z M 89.34375 77.363281 "/>
<path style=" stroke:none;fill-rule:nonzero;fill:rgb(0%,0%,0%);fill-opacity:1;" d="M 99.898438 79.570312 L 102.992188 79.570312 C 103.03125 79.964844 103.214844 80.269531 103.546875 80.480469 C 103.875 80.683594 104.320312 80.78125 104.886719 80.78125 C 105.460938 80.78125 105.902344 80.691406 106.210938 80.511719 C 106.527344 80.320312 106.683594 80.0625 106.683594 79.738281 C 106.683594 79.488281 106.589844 79.285156 106.394531 79.132812 C 106.210938 78.980469 105.964844 78.875 105.65625 78.816406 C 105.347656 78.753906 104.992188 78.691406 104.59375 78.632812 C 104.199219 78.566406 103.800781 78.503906 103.390625 78.449219 C 102.980469 78.390625 102.578125 78.28125 102.179688 78.117188 C 101.785156 77.957031 101.4375 77.761719 101.128906 77.527344 C 100.828125 77.296875 100.582031 76.960938 100.390625 76.527344 C 100.207031 76.097656 100.113281 75.585938 100.113281 74.996094 C 100.113281 73.980469 100.535156 73.121094 101.378906 72.425781 C 102.226562 71.722656 103.398438 71.363281 104.902344 71.363281 C 106.277344 71.363281 107.394531 71.683594 108.257812 72.316406 C 109.128906 72.949219 109.601562 73.839844 109.675781 74.996094 L 106.714844 74.996094 C 106.660156 74.648438 106.488281 74.363281 106.179688 74.152344 C 105.871094 73.941406 105.445312 73.832031 104.902344 73.832031 C 104.378906 73.832031 103.960938 73.933594 103.652344 74.121094 C 103.34375 74.300781 103.191406 74.542969 103.191406 74.847656 C 103.191406 75.050781 103.269531 75.210938 103.421875 75.332031 C 103.578125 75.453125 103.78125 75.550781 104.039062 75.621094 C 104.304688 75.683594 104.609375 75.730469 104.949219 75.769531 C 105.292969 75.8125 105.65625 75.863281 106.027344 75.925781 C 106.394531 75.972656 106.765625 76.039062 107.148438 76.121094 C 107.523438 76.203125 107.886719 76.328125 108.226562 76.496094 C 108.566406 76.671875 108.863281 76.886719 109.121094 77.136719 C 109.386719 77.378906 109.597656 77.703125 109.75 78.117188 C 109.90625 78.535156 109.984375 79.011719 109.984375 79.554688 C 109.984375 80.6875 109.527344 81.609375 108.625 82.3125 C 107.734375 83.019531 106.480469 83.375 104.871094 83.375 C 103.246094 83.375 102.023438 83.039062 101.191406 82.375 C 100.359375 81.699219 99.929688 80.761719 99.898438 79.570312 Z M 99.898438 79.570312 "/>
<path style=" stroke:none;fill-rule:nonzero;fill:rgb(0%,0%,0%);fill-opacity:1;" d="M 117.914062 83.085938 L 117.914062 71.652344 L 121.128906 71.652344 L 121.128906 73.378906 L 121.316406 73.378906 C 121.539062 72.886719 121.914062 72.457031 122.441406 72.089844 C 122.972656 71.730469 123.59375 71.546875 124.304688 71.546875 L 125.441406 71.546875 L 125.441406 74.710938 L 124.089844 74.710938 C 123.246094 74.710938 122.578125 74.992188 122.085938 75.558594 C 121.59375 76.128906 121.347656 76.898438 121.347656 77.875 L 121.347656 83.085938 Z M 117.914062 83.085938 "/>
<path style=" stroke:none;fill-rule:nonzero;fill:rgb(0%,0%,0%);fill-opacity:1;" d="M 127.023438 77.363281 C 127.023438 76.523438 127.171875 75.738281 127.472656 75.011719 C 127.777344 74.277344 128.199219 73.644531 128.730469 73.105469 C 129.273438 72.558594 129.9375 72.136719 130.71875 71.832031 C 131.507812 71.523438 132.363281 71.363281 133.289062 71.363281 C 135.125 71.363281 136.628906 71.941406 137.796875 73.089844 C 138.96875 74.230469 139.550781 75.660156 139.550781 77.363281 C 139.550781 78.199219 139.398438 78.988281 139.09375 79.722656 C 138.785156 80.460938 138.355469 81.097656 137.8125 81.632812 C 137.265625 82.171875 136.601562 82.59375 135.808594 82.90625 C 135.03125 83.210938 134.183594 83.375 133.273438 83.375 C 132.058594 83.375 130.972656 83.105469 130.007812 82.570312 C 129.054688 82.035156 128.3125 81.3125 127.792969 80.40625 C 127.277344 79.496094 127.023438 78.480469 127.023438 77.363281 Z M 130.472656 77.363281 C 130.472656 78.238281 130.734375 78.957031 131.257812 79.511719 C 131.789062 80.054688 132.460938 80.328125 133.273438 80.328125 C 134.082031 80.328125 134.753906 80.050781 135.289062 79.496094 C 135.816406 78.941406 136.085938 78.230469 136.085938 77.363281 C 136.085938 76.492188 135.816406 75.78125 135.289062 75.222656 C 134.753906 74.675781 134.082031 74.394531 133.273438 74.394531 C 132.460938 74.394531 131.789062 74.675781 131.257812 75.222656 C 130.734375 75.78125 130.472656 76.492188 130.472656 77.363281 Z M 130.472656 77.363281 "/>
<path style=" stroke:none;fill-rule:nonzero;fill:rgb(0%,0%,0%);fill-opacity:1;" d="M 141.132812 79.570312 L 144.226562 79.570312 C 144.265625 79.964844 144.449219 80.269531 144.78125 80.480469 C 145.109375 80.683594 145.554688 80.78125 146.121094 80.78125 C 146.691406 80.78125 147.136719 80.691406 147.445312 80.511719 C 147.757812 80.320312 147.921875 80.0625 147.921875 79.738281 C 147.921875 79.488281 147.820312 79.285156 147.628906 79.132812 C 147.445312 78.980469 147.199219 78.875 146.890625 78.816406 C 146.582031 78.753906 146.230469 78.691406 145.828125 78.632812 C 145.4375 78.566406 145.035156 78.503906 144.628906 78.449219 C 144.214844 78.390625 143.8125 78.28125 143.410156 78.117188 C 143.019531 77.957031 142.675781 77.761719 142.367188 77.527344 C 142.066406 77.296875 141.820312 76.960938 141.628906 76.527344 C 141.441406 76.097656 141.351562 75.585938 141.351562 74.996094 C 141.351562 73.980469 141.769531 73.121094 142.613281 72.425781 C 143.460938 71.722656 144.636719 71.363281 146.136719 71.363281 C 147.507812 71.363281 148.628906 71.683594 149.492188 72.316406 C 150.359375 72.949219 150.832031 73.839844 150.90625 74.996094 L 147.953125 74.996094 C 147.898438 74.648438 147.722656 74.363281 147.414062 74.152344 C 147.105469 73.941406 146.675781 73.832031 146.136719 73.832031 C 145.613281 73.832031 145.199219 73.933594 144.890625 74.121094 C 144.582031 74.300781 144.425781 74.542969 144.425781 74.847656 C 144.425781 75.050781 144.503906 75.210938 144.660156 75.332031 C 144.8125 75.453125 145.015625 75.550781 145.273438 75.621094 C 145.539062 75.683594 145.84375 75.730469 146.183594 75.769531 C 146.527344 75.8125 146.890625 75.863281 147.257812 75.925781 C 147.628906 75.972656 148.003906 76.039062 148.382812 76.121094 C 148.761719 76.203125 149.125 76.328125 149.460938 76.496094 C 149.800781 76.671875 150.09375 76.886719 150.351562 77.136719 C 150.617188 77.378906 150.828125 77.703125 150.984375 78.117188 C 151.136719 78.535156 151.214844 79.011719 151.214844 79.554688 C 151.214844 80.6875 150.761719 81.609375 149.863281 82.3125 C 148.96875 83.019531 147.714844 83.375 146.105469 83.375 C 144.480469 83.375 143.257812 83.039062 142.429688 82.375 C 141.597656 81.699219 141.164062 80.761719 141.132812 79.570312 Z M 141.132812 79.570312 "/>
<path style=" stroke:none;fill-rule:nonzero;fill:rgb(0%,0%,0%);fill-opacity:1;" d="M 152.824219 77.421875 C 152.824219 75.628906 153.3125 74.167969 154.285156 73.042969 C 155.261719 71.925781 156.535156 71.363281 158.101562 71.363281 C 158.910156 71.363281 159.597656 71.53125 160.152344 71.863281 C 160.707031 72.191406 161.113281 72.550781 161.382812 72.957031 L 161.566406 72.957031 L 161.566406 71.652344 L 164.96875 71.652344 L 164.96875 83.085938 L 161.582031 83.085938 L 161.582031 81.78125 L 161.398438 81.78125 C 161.304688 81.945312 161.171875 82.109375 161.011719 82.265625 C 160.855469 82.421875 160.652344 82.585938 160.398438 82.765625 C 160.140625 82.945312 159.816406 83.09375 159.429688 83.203125 C 159.046875 83.316406 158.628906 83.375 158.179688 83.375 C 156.582031 83.375 155.289062 82.835938 154.300781 81.75 C 153.320312 80.664062 152.824219 79.21875 152.824219 77.421875 Z M 156.273438 77.363281 C 156.273438 78.25 156.519531 78.964844 157.011719 79.511719 C 157.503906 80.054688 158.148438 80.328125 158.949219 80.328125 C 159.757812 80.328125 160.40625 80.050781 160.886719 79.496094 C 161.382812 78.933594 161.628906 78.21875 161.628906 77.363281 C 161.628906 76.460938 161.375 75.746094 160.871094 75.210938 C 160.371094 74.667969 159.726562 74.394531 158.933594 74.394531 C 158.140625 74.394531 157.503906 74.675781 157.011719 75.222656 C 156.519531 75.769531 156.273438 76.480469 156.273438 77.363281 Z M 156.273438 77.363281 "/>
<path style=" stroke:none;fill-rule:nonzero;fill:rgb(0%,0%,0%);fill-opacity:1;" d="M 166.828125 79.570312 L 169.921875 79.570312 C 169.960938 79.964844 170.144531 80.269531 170.476562 80.480469 C 170.804688 80.683594 171.25 80.78125 171.8125 80.78125 C 172.386719 80.78125 172.828125 80.691406 173.136719 80.511719 C 173.453125 80.320312 173.617188 80.0625 173.617188 79.738281 C 173.617188 79.488281 173.515625 79.285156 173.324219 79.132812 C 173.136719 78.980469 172.890625 78.875 172.582031 78.816406 C 172.273438 78.753906 171.921875 78.691406 171.523438 78.632812 C 171.132812 78.566406 170.730469 78.503906 170.320312 78.449219 C 169.910156 78.390625 169.503906 78.28125 169.105469 78.117188 C 168.710938 77.957031 168.367188 77.761719 168.058594 77.527344 C 167.761719 77.296875 167.515625 76.960938 167.320312 76.527344 C 167.136719 76.097656 167.042969 75.585938 167.042969 74.996094 C 167.042969 73.980469 167.464844 73.121094 168.304688 72.425781 C 169.15625 71.722656 170.328125 71.363281 171.828125 71.363281 C 173.203125 71.363281 174.324219 71.683594 175.1875 72.316406 C 176.054688 72.949219 176.527344 73.839844 176.601562 74.996094 L 173.644531 74.996094 C 173.59375 74.648438 173.414062 74.363281 173.105469 74.152344 C 172.800781 73.941406 172.371094 73.832031 171.828125 73.832031 C 171.308594 73.832031 170.890625 73.933594 170.585938 74.121094 C 170.277344 74.300781 170.121094 74.542969 170.121094 74.847656 C 170.121094 75.050781 170.199219 75.210938 170.351562 75.332031 C 170.507812 75.453125 170.710938 75.550781 170.96875 75.621094 C 171.234375 75.683594 171.539062 75.730469 171.875 75.769531 C 172.222656 75.8125 172.582031 75.863281 172.953125 75.925781 C 173.324219 75.972656 173.695312 76.039062 174.078125 76.121094 C 174.457031 76.203125 174.816406 76.328125 175.15625 76.496094 C 175.492188 76.671875 175.789062 76.886719 176.046875 77.136719 C 176.3125 77.378906 176.523438 77.703125 176.679688 78.117188 C 176.832031 78.535156 176.910156 79.011719 176.910156 79.554688 C 176.910156 80.6875 176.453125 81.609375 175.554688 82.3125 C 174.664062 83.019531 173.40625 83.375 171.796875 83.375 C 170.175781 83.375 168.949219 83.039062 168.117188 82.375 C 167.289062 81.699219 166.859375 80.761719 166.828125 79.570312 Z M 166.828125 79.570312 "/>
<path style=" stroke:none;fill-rule:nonzero;fill:rgb(0%,0%,0%);fill-opacity:1;" d="M 184.195312 77.421875 C 184.195312 75.628906 184.683594 74.167969 185.660156 73.042969 C 186.632812 71.925781 187.90625 71.363281 189.476562 71.363281 C 190.28125 71.363281 190.96875 71.53125 191.523438 71.863281 C 192.078125 72.191406 192.488281 72.550781 192.757812 72.957031 L 192.941406 72.957031 L 192.941406 66.835938 L 196.34375 66.835938 L 196.34375 83.085938 L 192.957031 83.085938 L 192.957031 81.78125 L 192.773438 81.78125 C 192.679688 81.945312 192.546875 82.109375 192.386719 82.265625 C 192.230469 82.421875 192.023438 82.585938 191.769531 82.765625 C 191.511719 82.945312 191.1875 83.09375 190.800781 83.203125 C 190.417969 83.316406 190.003906 83.375 189.554688 83.375 C 187.953125 83.375 186.660156 82.835938 185.675781 81.75 C 184.691406 80.664062 184.195312 79.21875 184.195312 77.421875 Z M 187.644531 77.363281 C 187.644531 78.25 187.890625 78.964844 188.382812 79.511719 C 188.878906 80.054688 189.523438 80.328125 190.320312 80.328125 C 191.128906 80.328125 191.777344 80.050781 192.261719 79.496094 C 192.757812 78.933594 193.003906 78.21875 193.003906 77.363281 C 193.003906 76.460938 192.75 75.746094 192.246094 75.210938 C 191.742188 74.667969 191.097656 74.394531 190.304688 74.394531 C 189.515625 74.394531 188.878906 74.675781 188.382812 75.222656 C 187.890625 75.769531 187.644531 76.480469 187.644531 77.363281 Z M 187.644531 77.363281 "/>
<path style=" stroke:none;fill-rule:nonzero;fill:rgb(0%,0%,0%);fill-opacity:1;" d="M 198.199219 77.421875 C 198.199219 75.636719 198.746094 74.183594 199.847656 73.058594 C 200.953125 71.933594 202.394531 71.363281 204.171875 71.363281 C 205.09375 71.363281 205.929688 71.527344 206.683594 71.847656 C 207.429688 72.164062 208.039062 72.597656 208.511719 73.152344 C 208.992188 73.699219 209.359375 74.328125 209.605469 75.042969 C 209.859375 75.761719 209.992188 76.519531 209.992188 77.316406 L 209.992188 78.285156 L 201.429688 78.285156 C 201.492188 79.023438 201.773438 79.625 202.277344 80.085938 C 202.78125 80.550781 203.433594 80.78125 204.230469 80.78125 C 204.867188 80.78125 205.40625 80.660156 205.851562 80.40625 C 206.300781 80.144531 206.621094 79.8125 206.804688 79.421875 L 209.882812 79.421875 C 209.613281 80.632812 208.972656 81.597656 207.957031 82.3125 C 206.945312 83.019531 205.652344 83.375 204.097656 83.375 C 202.988281 83.375 201.976562 83.121094 201.078125 82.617188 C 200.1875 82.101562 199.480469 81.390625 198.96875 80.480469 C 198.453125 79.570312 198.199219 78.554688 198.199219 77.421875 Z M 201.492188 76.058594 L 206.835938 76.058594 C 206.761719 75.445312 206.484375 74.9375 206.003906 74.527344 C 205.519531 74.128906 204.910156 73.925781 204.171875 73.925781 C 203.464844 73.925781 202.855469 74.136719 202.355469 74.558594 C 201.863281 74.972656 201.574219 75.472656 201.492188 76.058594 Z M 201.492188 76.058594 "/>
<path style=" stroke:none;fill-rule:nonzero;fill:rgb(0%,0%,0%);fill-opacity:1;" d="M 212.234375 79.480469 L 212.234375 66.835938 L 215.667969 66.835938 L 215.667969 79.101562 C 215.667969 79.792969 215.984375 80.132812 216.621094 80.132812 L 217.054688 80.132812 L 217.054688 83.085938 L 215.867188 83.085938 C 214.71875 83.085938 213.828125 82.765625 213.191406 82.132812 C 212.550781 81.492188 212.234375 80.613281 212.234375 79.480469 Z M 212.234375 79.480469 "/>
<path style=" stroke:none;fill-rule:nonzero;fill:rgb(0%,0%,0%);fill-opacity:1;" d="M 225.023438 88.066406 L 225.023438 71.652344 L 228.410156 71.652344 L 228.410156 72.925781 L 228.582031 72.925781 C 228.679688 72.765625 228.8125 72.605469 228.964844 72.457031 C 229.121094 72.296875 229.324219 72.128906 229.578125 71.957031 C 229.832031 71.773438 230.15625 71.632812 230.550781 71.53125 C 230.9375 71.421875 231.359375 71.363281 231.8125 71.363281 C 233.398438 71.363281 234.691406 71.90625 235.675781 72.984375 C 236.667969 74.066406 237.167969 75.503906 237.167969 77.300781 C 237.167969 79.097656 236.675781 80.5625 235.707031 81.691406 C 234.730469 82.8125 233.460938 83.375 231.90625 83.375 C 231.320312 83.375 230.785156 83.273438 230.300781 83.085938 C 229.816406 82.90625 229.457031 82.703125 229.210938 82.492188 C 228.964844 82.273438 228.769531 82.035156 228.628906 81.78125 L 228.457031 81.78125 L 228.457031 88.066406 Z M 228.378906 77.363281 C 228.378906 78.261719 228.628906 78.980469 229.121094 79.527344 C 229.609375 80.0625 230.25 80.328125 231.042969 80.328125 C 231.832031 80.328125 232.476562 80.054688 232.96875 79.511719 C 233.457031 78.957031 233.703125 78.238281 233.703125 77.363281 C 233.703125 76.460938 233.457031 75.746094 232.96875 75.210938 C 232.476562 74.667969 231.832031 74.394531 231.042969 74.394531 C 230.230469 74.394531 229.582031 74.675781 229.105469 75.222656 C 228.621094 75.78125 228.378906 76.492188 228.378906 77.363281 Z M 228.378906 77.363281 "/>
<path style=" stroke:none;fill-rule:nonzero;fill:rgb(0%,0%,0%);fill-opacity:1;" d="M 239.40625 83.085938 L 239.40625 71.652344 L 242.621094 71.652344 L 242.621094 73.378906 L 242.804688 73.378906 C 243.03125 72.886719 243.40625 72.457031 243.925781 72.089844 C 244.457031 71.730469 245.082031 71.546875 245.792969 71.546875 L 246.929688 71.546875 L 246.929688 74.710938 L 245.574219 74.710938 C 244.730469 74.710938 244.066406 74.992188 243.578125 75.558594 C 243.082031 76.128906 242.835938 76.898438 242.835938 77.875 L 242.835938 83.085938 Z M 239.40625 83.085938 "/>
<path style=" stroke:none;fill-rule:nonzero;fill:rgb(0%,0%,0%);fill-opacity:1;" d="M 249.160156 83.085938 L 249.160156 71.652344 L 252.589844 71.652344 L 252.589844 83.085938 Z M 249.496094 70.015625 L 250.574219 66.734375 L 253.839844 66.734375 L 251.804688 70.015625 Z M 249.496094 70.015625 "/>
<path style=" stroke:none;fill-rule:nonzero;fill:rgb(0%,0%,0%);fill-opacity:1;" d="M 255.070312 83.085938 L 255.070312 71.652344 L 258.292969 71.652344 L 258.292969 72.894531 L 258.472656 72.894531 C 258.726562 72.464844 259.128906 72.097656 259.675781 71.804688 C 260.21875 71.511719 260.863281 71.363281 261.601562 71.363281 C 262.859375 71.363281 263.867188 71.75 264.617188 72.515625 C 265.375 73.269531 265.753906 74.25 265.753906 75.453125 L 265.753906 83.085938 L 262.351562 83.085938 L 262.351562 76.496094 C 262.351562 75.894531 262.183594 75.410156 261.847656 75.042969 C 261.507812 74.675781 261.050781 74.480469 260.476562 74.480469 C 259.890625 74.480469 259.414062 74.699219 259.042969 75.121094 C 258.679688 75.535156 258.503906 76.054688 258.503906 76.679688 L 258.503906 83.085938 Z M 255.070312 83.085938 "/>
<path style=" stroke:none;fill-rule:nonzero;fill:rgb(0%,0%,0%);fill-opacity:1;" d="M 267.632812 77.363281 C 267.632812 76.238281 267.882812 75.222656 268.375 74.316406 C 268.875 73.410156 269.589844 72.695312 270.527344 72.167969 C 271.472656 71.632812 272.554688 71.363281 273.773438 71.363281 C 275.378906 71.363281 276.714844 71.800781 277.792969 72.667969 C 278.871094 73.535156 279.492188 74.675781 279.65625 76.074219 L 276.195312 76.074219 C 276.039062 75.582031 275.746094 75.179688 275.316406 74.863281 C 274.882812 74.550781 274.375 74.394531 273.789062 74.394531 C 272.964844 74.394531 272.316406 74.679688 271.820312 75.238281 C 271.328125 75.808594 271.082031 76.511719 271.082031 77.363281 C 271.082031 78.21875 271.332031 78.933594 271.835938 79.496094 C 272.339844 80.050781 272.992188 80.328125 273.804688 80.328125 C 274.367188 80.328125 274.859375 80.1875 275.285156 79.90625 C 275.703125 79.613281 275.992188 79.234375 276.148438 78.769531 L 279.625 78.769531 C 279.441406 80.132812 278.8125 81.246094 277.746094 82.101562 C 276.6875 82.945312 275.371094 83.375 273.789062 83.375 C 272.570312 83.375 271.488281 83.105469 270.542969 82.570312 C 269.59375 82.035156 268.875 81.3125 268.375 80.40625 C 267.882812 79.488281 267.632812 78.472656 267.632812 77.363281 Z M 267.632812 77.363281 "/>
<path style=" stroke:none;fill-rule:nonzero;fill:rgb(0%,0%,0%);fill-opacity:1;" d="M 282.152344 69.867188 C 281.785156 69.53125 281.597656 69.09375 281.597656 68.546875 C 281.597656 67.996094 281.785156 67.554688 282.152344 67.230469 C 282.53125 66.898438 283.019531 66.734375 283.617188 66.734375 C 284.207031 66.734375 284.691406 66.898438 285.0625 67.230469 C 285.433594 67.554688 285.617188 67.996094 285.617188 68.546875 C 285.617188 69.105469 285.433594 69.546875 285.0625 69.878906 C 284.691406 70.207031 284.207031 70.363281 283.617188 70.363281 C 283.019531 70.363281 282.53125 70.199219 282.152344 69.867188 Z M 281.90625 83.085938 L 281.90625 71.652344 L 285.339844 71.652344 L 285.339844 83.085938 Z M 281.90625 83.085938 "/>
<path style=" stroke:none;fill-rule:nonzero;fill:rgb(0%,0%,0%);fill-opacity:1;" d="M 287.820312 88.066406 L 287.820312 71.652344 L 291.207031 71.652344 L 291.207031 72.925781 L 291.375 72.925781 C 291.476562 72.765625 291.609375 72.605469 291.761719 72.457031 C 291.917969 72.296875 292.121094 72.128906 292.378906 71.957031 C 292.632812 71.773438 292.957031 71.632812 293.347656 71.53125 C 293.738281 71.421875 294.15625 71.363281 294.609375 71.363281 C 296.199219 71.363281 297.488281 71.90625 298.472656 72.984375 C 299.464844 74.066406 299.96875 75.503906 299.96875 77.300781 C 299.96875 79.097656 299.476562 80.5625 298.503906 81.691406 C 297.527344 82.8125 296.261719 83.375 294.699219 83.375 C 294.121094 83.375 293.585938 83.273438 293.101562 83.085938 C 292.617188 82.90625 292.253906 82.703125 292.007812 82.492188 C 291.761719 82.273438 291.566406 82.035156 291.421875 81.78125 L 291.253906 81.78125 L 291.253906 88.066406 Z M 291.175781 77.363281 C 291.175781 78.261719 291.421875 78.980469 291.917969 79.527344 C 292.410156 80.0625 293.046875 80.328125 293.84375 80.328125 C 294.628906 80.328125 295.269531 80.054688 295.765625 79.511719 C 296.257812 78.957031 296.503906 78.238281 296.503906 77.363281 C 296.503906 76.460938 296.257812 75.746094 295.765625 75.210938 C 295.269531 74.667969 294.628906 74.394531 293.84375 74.394531 C 293.03125 74.394531 292.382812 74.675781 291.902344 75.222656 C 291.414062 75.78125 291.175781 76.492188 291.175781 77.363281 Z M 291.175781 77.363281 "/>
<path style=" stroke:none;fill-rule:nonzero;fill:rgb(0%,0%,0%);fill-opacity:1;" d="M 301.558594 77.421875 C 301.558594 75.636719 302.101562 74.183594 303.203125 73.058594 C 304.3125 71.933594 305.75 71.363281 307.527344 71.363281 C 308.453125 71.363281 309.285156 71.527344 310.035156 71.847656 C 310.78125 72.164062 311.394531 72.597656 311.871094 73.152344 C 312.351562 73.699219 312.714844 74.328125 312.960938 75.042969 C 313.214844 75.761719 313.34375 76.519531 313.34375 77.316406 L 313.34375 78.285156 L 304.789062 78.285156 C 304.851562 79.023438 305.132812 79.625 305.632812 80.085938 C 306.132812 80.550781 306.789062 80.78125 307.589844 80.78125 C 308.226562 80.78125 308.765625 80.660156 309.203125 80.40625 C 309.65625 80.144531 309.972656 79.8125 310.160156 79.421875 L 313.238281 79.421875 C 312.96875 80.632812 312.332031 81.597656 311.316406 82.3125 C 310.296875 83.019531 309.007812 83.375 307.449219 83.375 C 306.339844 83.375 305.332031 83.121094 304.433594 82.617188 C 303.542969 82.101562 302.835938 81.390625 302.324219 80.480469 C 301.808594 79.570312 301.558594 78.554688 301.558594 77.421875 Z M 304.851562 76.058594 L 310.191406 76.058594 C 310.117188 75.445312 309.839844 74.9375 309.359375 74.527344 C 308.875 74.128906 308.269531 73.925781 307.527344 73.925781 C 306.820312 73.925781 306.210938 74.136719 305.710938 74.558594 C 305.222656 74.972656 304.933594 75.472656 304.851562 76.058594 Z M 304.851562 76.058594 "/>
<path style=" stroke:none;fill-rule:nonzero;fill:rgb(0%,0%,0%);fill-opacity:1;" d="M 315.316406 72.273438 C 315.316406 71.417969 315.492188 70.644531 315.855469 69.957031 C 316.222656 69.257812 316.78125 68.699219 317.53125 68.273438 C 318.277344 67.851562 319.179688 67.640625 320.222656 67.640625 C 321.804688 67.640625 323.046875 68.058594 323.949219 68.898438 C 324.851562 69.726562 325.304688 70.800781 325.304688 72.121094 C 325.304688 73.617188 324.503906 74.878906 322.90625 75.910156 L 321.796875 76.679688 C 321.300781 77.035156 321.054688 77.472656 321.054688 77.996094 L 321.054688 78.558594 L 317.992188 78.558594 L 317.992188 77.648438 C 317.992188 76.949219 318.136719 76.371094 318.425781 75.894531 C 318.710938 75.410156 319.148438 74.964844 319.734375 74.574219 L 320.949219 73.726562 C 321.273438 73.476562 321.519531 73.226562 321.671875 72.984375 C 321.832031 72.742188 321.917969 72.457031 321.917969 72.121094 C 321.917969 71.679688 321.765625 71.316406 321.457031 71.03125 C 321.15625 70.738281 320.730469 70.59375 320.175781 70.59375 C 319.613281 70.59375 319.183594 70.753906 318.886719 71.078125 C 318.585938 71.390625 318.429688 71.789062 318.410156 72.273438 Z M 317.65625 81.570312 C 317.65625 81.066406 317.832031 80.644531 318.195312 80.296875 C 318.5625 79.945312 319.003906 79.769531 319.519531 79.769531 C 320.070312 79.769531 320.519531 79.941406 320.871094 80.28125 C 321.21875 80.628906 321.394531 81.054688 321.394531 81.570312 C 321.394531 82.097656 321.21875 82.53125 320.871094 82.875 C 320.53125 83.203125 320.078125 83.375 319.519531 83.375 C 318.996094 83.375 318.550781 83.203125 318.195312 82.875 C 317.832031 82.53125 317.65625 82.097656 317.65625 81.570312 Z M 317.65625 81.570312 "/>
<path style=" stroke:none;fill-rule:nonzero;fill:rgb(99.215686%,37.254902%,9.803922%);fill-opacity:1;" d="M 355.933594 265.316406 L 231.230469 265.316406 C 229.410156 265.316406 227.941406 266.757812 227.941406 268.554688 L 227.941406 323.039062 C 227.941406 324.832031 229.410156 326.277344 231.230469 326.277344 L 355.933594 326.277344 C 357.757812 326.277344 359.226562 324.832031 359.226562 323.039062 L 359.226562 268.554688 C 359.226562 266.757812 357.757812 265.316406 355.933594 265.316406 Z M 355.933594 265.316406 "/>
<path style=" stroke:none;fill-rule:nonzero;fill:rgb(7.45098%,29.411765%,91.764706%);fill-opacity:1;" d="M 355.933594 372.191406 L 231.230469 372.191406 C 229.410156 372.191406 227.941406 373.632812 227.941406 375.429688 L 227.941406 429.917969 C 227.941406 431.710938 229.410156 433.152344 231.230469 433.152344 L 355.933594 433.152344 C 357.757812 433.152344 359.226562 431.710938 359.226562 429.917969 L 359.226562 375.429688 C 359.226562 373.632812 357.757812 372.191406 355.933594 372.191406 Z M 355.933594 372.191406 "/>
<path style=" stroke:none;fill-rule:nonzero;fill:rgb(100%,100%,100%);fill-opacity:1;" d="M 259.398438 181.894531 L 263.203125 181.894531 L 266.679688 192.242188 L 266.851562 192.242188 L 270.359375 181.894531 L 274.128906 181.894531 L 268.5 196.796875 L 264.972656 196.796875 Z M 259.398438 181.894531 "/>
<path style=" stroke:none;fill-rule:nonzero;fill:rgb(100%,100%,100%);fill-opacity:1;" d="M 275.886719 196.796875 L 275.886719 181.894531 L 285.476562 181.894531 L 285.476562 184.777344 L 279.304688 184.777344 L 279.304688 187.863281 L 284.566406 187.863281 L 284.566406 190.726562 L 279.304688 190.726562 L 279.304688 193.890625 L 285.707031 193.890625 L 285.707031 196.796875 Z M 275.886719 196.796875 "/>
<path style=" stroke:none;fill-rule:nonzero;fill:rgb(100%,100%,100%);fill-opacity:1;" d="M 288.035156 196.796875 L 288.035156 181.894531 L 293.960938 181.894531 C 295.519531 181.894531 296.800781 182.363281 297.8125 183.277344 C 298.824219 184.183594 299.332031 185.359375 299.332031 186.804688 C 299.332031 187.773438 299.078125 188.644531 298.578125 189.40625 C 298.089844 190.164062 297.441406 190.75 296.640625 191.148438 L 299.871094 196.796875 L 296.070312 196.796875 L 293.484375 191.816406 L 291.449219 191.816406 L 291.449219 196.796875 Z M 291.449219 188.9375 L 293.667969 188.9375 C 294.304688 188.9375 294.820312 188.753906 295.222656 188.378906 C 295.621094 188.007812 295.824219 187.480469 295.824219 186.804688 C 295.824219 186.191406 295.621094 185.699219 295.222656 185.335938 C 294.820312 184.964844 294.289062 184.777344 293.625 184.777344 L 291.449219 184.777344 Z M 291.449219 188.9375 "/>
<path style=" stroke:none;fill-rule:nonzero;fill:rgb(100%,100%,100%);fill-opacity:1;" d="M 302.03125 196.796875 L 302.03125 181.894531 L 307.417969 181.894531 C 308.609375 181.894531 309.6875 182.082031 310.667969 182.441406 C 311.652344 182.808594 312.476562 183.316406 313.144531 183.957031 C 313.808594 184.605469 314.324219 185.386719 314.683594 186.304688 C 315.042969 187.210938 315.222656 188.207031 315.222656 189.289062 C 315.222656 191.597656 314.523438 193.433594 313.128906 194.785156 C 311.734375 196.128906 309.828125 196.796875 307.417969 196.796875 Z M 305.445312 193.875 L 307.265625 193.875 C 307.726562 193.875 308.164062 193.824219 308.574219 193.726562 C 308.980469 193.625 309.375 193.464844 309.757812 193.242188 C 310.136719 193.011719 310.464844 192.722656 310.742188 192.375 C 311.019531 192.027344 311.242188 191.582031 311.40625 191.0625 C 311.566406 190.539062 311.652344 189.945312 311.652344 189.289062 C 311.652344 188.511719 311.53125 187.832031 311.28125 187.242188 C 311.035156 186.648438 310.703125 186.179688 310.28125 185.835938 C 309.859375 185.496094 309.394531 185.238281 308.898438 185.0625 C 308.394531 184.890625 307.851562 184.804688 307.265625 184.804688 L 305.445312 184.804688 Z M 305.445312 193.875 "/>
<path style=" stroke:none;fill-rule:nonzero;fill:rgb(100%,100%,100%);fill-opacity:1;" d="M 317.539062 196.796875 L 317.539062 181.894531 L 327.125 181.894531 L 327.125 184.777344 L 320.957031 184.777344 L 320.957031 187.863281 L 326.222656 187.863281 L 326.222656 190.726562 L 320.957031 190.726562 L 320.957031 193.890625 L 327.359375 193.890625 L 327.359375 196.796875 Z M 317.539062 196.796875 "/>
<path style=" stroke:none;fill-rule:nonzero;fill:rgb(100%,100%,100%);fill-opacity:1;" d="M 242.78125 302.8125 L 242.78125 287.914062 L 246.570312 287.914062 L 252.371094 297.285156 L 252.492188 297.285156 L 252.492188 287.914062 L 255.804688 287.914062 L 255.804688 302.8125 L 252 302.8125 L 246.230469 293.441406 L 246.089844 293.441406 L 246.089844 302.8125 Z M 242.78125 302.8125 "/>
<path style=" stroke:none;fill-rule:nonzero;fill:rgb(100%,100%,100%);fill-opacity:1;" d="M 257.585938 302.8125 L 262.726562 287.914062 L 267.097656 287.914062 L 272.316406 302.8125 L 268.667969 302.8125 L 267.761719 300.179688 L 261.957031 300.179688 L 261.082031 302.8125 Z M 262.894531 297.167969 L 266.835938 297.167969 L 264.976562 291.625 L 264.789062 291.625 Z M 262.894531 297.167969 "/>
<path style=" stroke:none;fill-rule:nonzero;fill:rgb(100%,100%,100%);fill-opacity:1;" d="M 274.070312 302.8125 L 274.070312 287.914062 L 280 287.914062 C 281.554688 287.914062 282.839844 288.375 283.84375 289.289062 C 284.859375 290.199219 285.371094 291.378906 285.371094 292.820312 C 285.371094 293.789062 285.113281 294.660156 284.613281 295.425781 C 284.121094 296.183594 283.476562 296.761719 282.675781 297.167969 L 285.910156 302.8125 L 282.105469 302.8125 L 279.523438 297.832031 L 277.488281 297.832031 L 277.488281 302.8125 Z M 277.488281 294.957031 L 279.707031 294.957031 C 280.339844 294.957031 280.859375 294.769531 281.257812 294.394531 C 281.660156 294.023438 281.859375 293.5 281.859375 292.820312 C 281.859375 292.207031 281.660156 291.714844 281.257812 291.351562 C 280.859375 290.980469 280.324219 290.789062 279.660156 290.789062 L 277.488281 290.789062 Z M 277.488281 294.957031 "/>
<path style=" stroke:none;fill-rule:nonzero;fill:rgb(100%,100%,100%);fill-opacity:1;" d="M 286.871094 302.8125 L 292.007812 287.914062 L 296.378906 287.914062 L 301.601562 302.8125 L 297.953125 302.8125 L 297.042969 300.179688 L 291.238281 300.179688 L 290.363281 302.8125 Z M 292.175781 297.167969 L 296.117188 297.167969 L 294.257812 291.625 L 294.074219 291.625 Z M 292.175781 297.167969 "/>
<path style=" stroke:none;fill-rule:nonzero;fill:rgb(100%,100%,100%);fill-opacity:1;" d="M 303.355469 302.8125 L 303.355469 287.914062 L 307.140625 287.914062 L 312.941406 297.285156 L 313.066406 297.285156 L 313.066406 287.914062 L 316.375 287.914062 L 316.375 302.8125 L 312.570312 302.8125 L 306.800781 293.441406 L 306.664062 293.441406 L 306.664062 302.8125 Z M 303.355469 302.8125 "/>
<path style=" stroke:none;fill-rule:nonzero;fill:rgb(100%,100%,100%);fill-opacity:1;" d="M 318.511719 298.027344 L 321.757812 298.027344 C 321.757812 298.628906 321.9375 299.105469 322.296875 299.46875 C 322.667969 299.832031 323.183594 300.011719 323.851562 300.011719 C 324.566406 300.011719 325.097656 299.792969 325.4375 299.347656 C 325.785156 298.894531 325.960938 298.34375 325.960938 297.695312 L 325.960938 290.820312 L 321.160156 290.820312 L 321.160156 287.914062 L 329.410156 287.914062 L 329.410156 297.863281 C 329.410156 299.460938 328.910156 300.722656 327.914062 301.664062 C 326.933594 302.601562 325.585938 303.070312 323.882812 303.070312 C 322.179688 303.070312 320.855469 302.617188 319.910156 301.710938 C 318.976562 300.792969 318.511719 299.566406 318.511719 298.027344 Z M 318.511719 298.027344 "/>
<path style=" stroke:none;fill-rule:nonzero;fill:rgb(100%,100%,100%);fill-opacity:1;" d="M 331.023438 302.8125 L 336.164062 287.914062 L 340.539062 287.914062 L 345.753906 302.8125 L 342.105469 302.8125 L 341.199219 300.179688 L 335.394531 300.179688 L 334.515625 302.8125 Z M 336.335938 297.167969 L 340.273438 297.167969 L 338.410156 291.625 L 338.226562 291.625 Z M 336.335938 297.167969 "/>
<path style=" stroke:none;fill-rule:nonzero;fill:rgb(100%,100%,100%);fill-opacity:1;" d="M 266.226562 409.691406 L 271.371094 394.789062 L 275.742188 394.789062 L 280.957031 409.691406 L 277.308594 409.691406 L 276.40625 407.058594 L 270.601562 407.058594 L 269.722656 409.691406 Z M 271.539062 404.042969 L 275.480469 404.042969 L 273.617188 398.5 L 273.429688 398.5 Z M 271.539062 404.042969 "/>
<path style=" stroke:none;fill-rule:nonzero;fill:rgb(100%,100%,100%);fill-opacity:1;" d="M 282.144531 409.691406 L 282.144531 406.753906 L 289.378906 397.835938 L 289.378906 397.667969 L 282.421875 397.667969 L 282.421875 394.789062 L 293.78125 394.789062 L 293.78125 397.695312 L 286.503906 406.617188 L 286.503906 406.785156 L 293.8125 406.785156 L 293.8125 409.691406 Z M 282.144531 409.691406 "/>
<path style=" stroke:none;fill-rule:nonzero;fill:rgb(100%,100%,100%);fill-opacity:1;" d="M 296.082031 404.027344 L 296.082031 394.789062 L 299.53125 394.789062 L 299.53125 403.996094 C 299.53125 404.878906 299.761719 405.566406 300.222656 406.058594 C 300.691406 406.542969 301.371094 406.785156 302.253906 406.785156 C 303.148438 406.785156 303.824219 406.542969 304.289062 406.058594 C 304.75 405.566406 304.980469 404.875 304.980469 403.980469 L 304.980469 394.789062 L 308.414062 394.789062 L 308.414062 403.996094 C 308.414062 405.785156 307.847656 407.230469 306.71875 408.328125 C 305.585938 409.429688 304.101562 409.980469 302.253906 409.980469 C 300.410156 409.980469 298.914062 409.433594 297.777344 408.34375 C 296.644531 407.246094 296.082031 405.808594 296.082031 404.027344 Z M 296.082031 404.027344 "/>
<path style=" stroke:none;fill-rule:nonzero;fill:rgb(100%,100%,100%);fill-opacity:1;" d="M 311.246094 409.691406 L 311.246094 394.789062 L 314.664062 394.789062 L 314.664062 406.691406 L 320.589844 406.691406 L 320.589844 409.691406 Z M 311.246094 409.691406 "/>
</g>
</svg>
