<?xml version="1.0" encoding="UTF-8"?><svg xmlns="http://www.w3.org/2000/svg" xmlns:xlink="http://www.w3.org/1999/xlink" width="375pt" zoomAndPan="magnify" viewBox="0 0 375 374.999991" height="374.999991pt" preserveAspectRatio="xMidYMid meet" version="1.2"><defs><g/><clipPath xml:id="clip1" id="clip1"><path d="M 34.207031 64.585938 L 340.957031 64.585938 L 340.957031 371.335938 L 34.207031 371.335938 Z M 34.207031 64.585938 "/></clipPath></defs><g xml:id="surface1" id="surface1"><g clip-rule="nonzero" clip-path="url(#clip1)"><path style=" stroke:none;fill-rule:nonzero;fill:rgb(100%,100%,100%);fill-opacity:1;" d="M 340.957031 217.960938 C 340.957031 220.46875 340.894531 222.976562 340.773438 225.484375 C 340.648438 227.992188 340.464844 230.496094 340.21875 232.992188 C 339.972656 235.492188 339.664062 237.980469 339.296875 240.464844 C 338.929688 242.945312 338.5 245.417969 338.007812 247.882812 C 337.519531 250.34375 336.96875 252.792969 336.359375 255.226562 C 335.75 257.660156 335.082031 260.078125 334.351562 262.480469 C 333.625 264.882812 332.835938 267.265625 331.992188 269.628906 C 331.144531 271.992188 330.242188 274.335938 329.28125 276.652344 C 328.320312 278.972656 327.304688 281.265625 326.230469 283.535156 C 325.15625 285.804688 324.03125 288.046875 322.847656 290.261719 C 321.664062 292.472656 320.425781 294.65625 319.136719 296.808594 C 317.84375 298.964844 316.503906 301.082031 315.109375 303.171875 C 313.714844 305.257812 312.269531 307.308594 310.773438 309.324219 C 309.277344 311.339844 307.734375 313.320312 306.140625 315.257812 C 304.550781 317.199219 302.910156 319.101562 301.226562 320.960938 C 299.539062 322.820312 297.808594 324.636719 296.035156 326.410156 C 294.257812 328.1875 292.441406 329.917969 290.582031 331.601562 C 288.722656 333.289062 286.820312 334.925781 284.882812 336.519531 C 282.941406 338.113281 280.964844 339.65625 278.945312 341.152344 C 276.929688 342.648438 274.878906 344.089844 272.792969 345.484375 C 270.703125 346.878906 268.585938 348.222656 266.433594 349.511719 C 264.277344 350.804688 262.09375 352.039062 259.882812 353.222656 C 257.667969 354.40625 255.425781 355.535156 253.15625 356.609375 C 250.886719 357.683594 248.59375 358.699219 246.277344 359.660156 C 243.957031 360.621094 241.617188 361.523438 239.253906 362.367188 C 236.886719 363.214844 234.507812 364 232.105469 364.730469 C 229.703125 365.457031 227.285156 366.128906 224.847656 366.738281 C 222.414062 367.347656 219.964844 367.898438 217.503906 368.386719 C 215.042969 368.878906 212.570312 369.304688 210.085938 369.675781 C 207.601562 370.042969 205.113281 370.351562 202.613281 370.597656 C 200.117188 370.84375 197.613281 371.027344 195.105469 371.148438 C 192.601562 371.273438 190.089844 371.335938 187.582031 371.335938 C 185.070312 371.335938 182.5625 371.273438 180.054688 371.148438 C 177.546875 371.027344 175.046875 370.84375 172.546875 370.597656 C 170.050781 370.351562 167.558594 370.042969 165.078125 369.675781 C 162.59375 369.304688 160.121094 368.878906 157.660156 368.386719 C 155.199219 367.898438 152.75 367.347656 150.3125 366.738281 C 147.878906 366.128906 145.460938 365.457031 143.058594 364.730469 C 140.65625 364 138.273438 363.214844 135.910156 362.367188 C 133.546875 361.523438 131.207031 360.621094 128.886719 359.660156 C 126.570312 358.699219 124.273438 357.683594 122.003906 356.609375 C 119.734375 355.535156 117.496094 354.40625 115.28125 353.222656 C 113.066406 352.039062 110.882812 350.804688 108.730469 349.511719 C 106.578125 348.222656 104.457031 346.878906 102.371094 345.484375 C 100.285156 344.089844 98.230469 342.648438 96.214844 341.152344 C 94.199219 339.65625 92.222656 338.113281 90.28125 336.519531 C 88.339844 334.925781 86.441406 333.289062 84.582031 331.601562 C 82.722656 329.917969 80.902344 328.1875 79.128906 326.410156 C 77.355469 324.636719 75.625 322.820312 73.9375 320.960938 C 72.253906 319.101562 70.613281 317.199219 69.019531 315.257812 C 67.429688 313.320312 65.886719 311.339844 64.390625 309.324219 C 62.894531 307.308594 61.449219 305.257812 60.054688 303.171875 C 58.660156 301.082031 57.316406 298.964844 56.027344 296.808594 C 54.738281 294.65625 53.5 292.472656 52.316406 290.261719 C 51.132812 288.046875 50.003906 285.804688 48.933594 283.535156 C 47.859375 281.265625 46.84375 278.972656 45.882812 276.652344 C 44.921875 274.335938 44.019531 271.992188 43.171875 269.628906 C 42.328125 267.265625 41.539062 264.882812 40.8125 262.480469 C 40.082031 260.078125 39.414062 257.660156 38.804688 255.226562 C 38.191406 252.792969 37.644531 250.34375 37.152344 247.882812 C 36.664062 245.417969 36.234375 242.945312 35.867188 240.464844 C 35.5 237.980469 35.191406 235.492188 34.945312 232.992188 C 34.699219 230.496094 34.515625 227.992188 34.390625 225.484375 C 34.269531 222.976562 34.207031 220.46875 34.207031 217.960938 C 34.207031 215.449219 34.269531 212.941406 34.390625 210.433594 C 34.515625 207.925781 34.699219 205.425781 34.945312 202.925781 C 35.191406 200.429688 35.5 197.9375 35.867188 195.453125 C 36.234375 192.972656 36.664062 190.5 37.152344 188.039062 C 37.644531 185.574219 38.191406 183.128906 38.804688 180.691406 C 39.414062 178.257812 40.082031 175.839844 40.8125 173.4375 C 41.539062 171.035156 42.328125 168.652344 43.171875 166.289062 C 44.019531 163.925781 44.921875 161.585938 45.882812 159.265625 C 46.84375 156.945312 47.859375 154.652344 48.933594 152.382812 C 50.003906 150.113281 51.132812 147.871094 52.316406 145.660156 C 53.5 143.445312 54.738281 141.261719 56.027344 139.109375 C 57.316406 136.957031 58.660156 134.835938 60.054688 132.75 C 61.449219 130.660156 62.894531 128.609375 64.390625 126.59375 C 65.886719 124.578125 67.429688 122.601562 69.019531 120.660156 C 70.613281 118.71875 72.253906 116.820312 73.9375 114.960938 C 75.625 113.097656 77.355469 111.28125 79.128906 109.507812 C 80.902344 107.730469 82.722656 106 84.582031 104.316406 C 86.441406 102.628906 88.339844 100.992188 90.28125 99.398438 C 92.222656 97.808594 94.199219 96.261719 96.214844 94.769531 C 98.230469 93.273438 100.285156 91.828125 102.371094 90.433594 C 104.457031 89.039062 106.578125 87.695312 108.730469 86.40625 C 110.882812 85.113281 113.066406 83.878906 115.28125 82.695312 C 117.496094 81.511719 119.734375 80.382812 122.003906 79.308594 C 124.273438 78.238281 126.570312 77.21875 128.886719 76.257812 C 131.207031 75.300781 133.546875 74.394531 135.910156 73.550781 C 138.273438 72.703125 140.65625 71.917969 143.058594 71.1875 C 145.460938 70.460938 147.878906 69.789062 150.3125 69.179688 C 152.75 68.570312 155.199219 68.019531 157.660156 67.53125 C 160.121094 67.042969 162.59375 66.613281 165.078125 66.246094 C 167.558594 65.875 170.050781 65.570312 172.546875 65.324219 C 175.046875 65.078125 177.546875 64.890625 180.054688 64.769531 C 182.5625 64.644531 185.070312 64.585938 187.582031 64.585938 C 190.089844 64.585938 192.601562 64.644531 195.105469 64.769531 C 197.613281 64.890625 200.117188 65.078125 202.613281 65.324219 C 205.113281 65.570312 207.601562 65.875 210.085938 66.246094 C 212.570312 66.613281 215.042969 67.042969 217.503906 67.53125 C 219.964844 68.019531 222.414062 68.570312 224.847656 69.179688 C 227.285156 69.789062 229.703125 70.460938 232.105469 71.1875 C 234.507812 71.917969 236.886719 72.703125 239.253906 73.550781 C 241.617188 74.394531 243.957031 75.300781 246.277344 76.257812 C 248.59375 77.21875 250.886719 78.238281 253.15625 79.308594 C 255.425781 80.382812 257.667969 81.511719 259.882812 82.695312 C 262.09375 83.878906 264.277344 85.113281 266.433594 86.40625 C 268.585938 87.695312 270.703125 89.039062 272.792969 90.433594 C 274.878906 91.828125 276.929688 93.273438 278.945312 94.769531 C 280.964844 96.261719 282.941406 97.808594 284.882812 99.398438 C 286.820312 100.992188 288.722656 102.628906 290.582031 104.316406 C 292.441406 106 294.257812 107.730469 296.035156 109.507812 C 297.808594 111.28125 299.539062 113.097656 301.226562 114.960938 C 302.910156 116.820312 304.550781 118.71875 306.140625 120.660156 C 307.734375 122.601562 309.277344 124.578125 310.773438 126.59375 C 312.269531 128.609375 313.714844 130.660156 315.109375 132.75 C 316.503906 134.835938 317.84375 136.957031 319.136719 139.109375 C 320.425781 141.261719 321.664062 143.445312 322.847656 145.660156 C 324.03125 147.871094 325.15625 150.113281 326.230469 152.382812 C 327.304688 154.652344 328.320312 156.945312 329.28125 159.265625 C 330.242188 161.585938 331.144531 163.925781 331.992188 166.289062 C 332.835938 168.652344 333.625 171.035156 334.351562 173.4375 C 335.082031 175.839844 335.75 178.257812 336.359375 180.691406 C 336.96875 183.128906 337.519531 185.574219 338.007812 188.039062 C 338.5 190.5 338.929688 192.972656 339.296875 195.453125 C 339.664062 197.9375 339.972656 200.429688 340.21875 202.925781 C 340.464844 205.425781 340.648438 207.925781 340.773438 210.433594 C 340.894531 212.941406 340.957031 215.449219 340.957031 217.960938 Z M 340.957031 217.960938 "/></g><path style=" stroke:none;fill-rule:nonzero;fill:rgb(99.609375%,78.039551%,28.62854%);fill-opacity:1;" d="M 300.410156 217.960938 C 300.410156 228.75 273.71875 235.191406 270.570312 244.925781 C 267.28125 255.019531 284.976562 275.890625 278.859375 284.289062 C 272.6875 292.773438 247.335938 282.375 238.851562 288.546875 C 230.441406 294.660156 232.542969 322.015625 222.453125 325.292969 C 212.71875 328.457031 198.371094 305.183594 187.582031 305.183594 C 176.792969 305.183594 162.445312 328.445312 152.710938 325.292969 C 142.617188 322.003906 144.710938 294.660156 136.3125 288.546875 C 127.824219 282.375 102.472656 292.773438 96.300781 284.289062 C 90.1875 275.878906 107.867188 255.019531 104.589844 244.925781 C 101.429688 235.191406 74.753906 228.746094 74.753906 217.960938 C 74.753906 207.175781 101.441406 200.726562 104.589844 190.992188 C 107.882812 180.902344 90.1875 160.027344 96.300781 151.628906 C 102.472656 143.144531 127.824219 153.546875 136.3125 147.371094 C 144.71875 141.257812 142.617188 113.902344 152.710938 110.625 C 162.445312 107.464844 176.792969 130.734375 187.582031 130.734375 C 198.371094 130.734375 212.71875 107.476562 222.453125 110.625 C 232.542969 113.917969 230.453125 141.257812 238.851562 147.371094 C 247.335938 153.546875 272.6875 143.144531 278.859375 151.628906 C 284.976562 160.039062 267.296875 180.902344 270.570312 190.992188 C 273.734375 200.726562 300.410156 207.175781 300.410156 217.960938 Z M 300.410156 217.960938 "/><path style=" stroke:none;fill-rule:nonzero;fill:rgb(100%,100%,100%);fill-opacity:1;" d="M 283.738281 217.960938 C 283.738281 226.953125 257.347656 231.660156 254.710938 239.777344 C 251.980469 248.183594 270.464844 267.488281 265.375 274.492188 C 260.230469 281.558594 236.125 269.914062 229.054688 275.058594 C 222.050781 280.152344 225.710938 306.703125 217.296875 309.425781 C 209.1875 312.058594 196.574219 288.515625 187.582031 288.515625 C 178.585938 288.515625 165.976562 312.058594 157.863281 309.425781 C 149.457031 306.695312 153.113281 280.148438 146.109375 275.058594 C 139.042969 269.914062 114.933594 281.558594 109.789062 274.492188 C 104.695312 267.488281 123.183594 248.183594 120.449219 239.777344 C 117.816406 231.671875 91.425781 226.953125 91.425781 217.960938 C 91.425781 208.964844 117.816406 204.261719 120.449219 196.144531 C 123.183594 187.734375 104.695312 168.429688 109.789062 161.429688 C 114.933594 154.359375 139.039062 166.003906 146.109375 160.863281 C 153.113281 155.765625 149.453125 129.21875 157.863281 126.492188 C 165.976562 123.863281 178.585938 147.402344 187.582031 147.402344 C 196.574219 147.402344 209.1875 123.863281 217.296875 126.492188 C 225.707031 129.226562 222.050781 155.773438 229.054688 160.863281 C 236.121094 166.003906 260.230469 154.359375 265.375 161.429688 C 270.464844 168.429688 251.980469 187.734375 254.710938 196.144531 C 257.347656 204.25 283.738281 208.964844 283.738281 217.960938 Z M 283.738281 217.960938 "/><path style=" stroke:none;fill-rule:nonzero;fill:rgb(99.609375%,78.039551%,28.62854%);fill-opacity:1;" d="M 269.84375 217.960938 C 269.84375 225.453125 243.691406 228.71875 241.496094 235.480469 C 239.222656 242.488281 258.378906 260.488281 254.132812 266.324219 C 249.84375 272.214844 226.773438 259.53125 220.886719 263.820312 C 215.035156 268.0625 220.015625 293.9375 213.007812 296.214844 C 206.242188 298.410156 195.089844 274.644531 187.582031 274.644531 C 180.070312 274.644531 168.933594 298.410156 162.15625 296.214844 C 155.148438 293.9375 160.113281 268.0625 154.277344 263.820312 C 148.386719 259.53125 125.316406 272.226562 121.027344 266.324219 C 116.785156 260.472656 135.941406 242.488281 133.667969 235.480469 C 131.460938 228.71875 105.320312 225.453125 105.320312 217.960938 C 105.320312 210.464844 131.460938 207.199219 133.652344 200.4375 C 135.925781 193.429688 116.769531 175.429688 121.015625 169.597656 C 125.304688 163.707031 148.375 176.390625 154.261719 172.101562 C 160.113281 167.855469 155.132812 141.980469 162.140625 139.703125 C 168.90625 137.511719 180.058594 161.273438 187.566406 161.273438 C 195.078125 161.273438 206.214844 137.511719 212.992188 139.703125 C 220 141.980469 215.035156 167.855469 220.871094 172.101562 C 226.761719 176.390625 249.832031 163.691406 254.121094 169.597656 C 258.363281 175.445312 239.207031 193.429688 241.480469 200.4375 C 243.703125 207.199219 269.84375 210.464844 269.84375 217.960938 Z M 269.84375 217.960938 "/><path style="fill:none;stroke-width:10;stroke-linecap:round;stroke-linejoin:round;stroke:rgb(0%,0%,0%);stroke-opacity:1;stroke-miterlimit:4;" d="M 390.547508 365.495728 C 390.547508 384.000568 373.292707 399.001026 351.999321 399.001026 C 330.705934 399.001026 313.451133 384.000568 313.451133 365.538465 " transform="matrix(0.365614,0,0,0.365614,34.206528,64.584555)"/><path style="fill:none;stroke-width:10;stroke-linecap:round;stroke-linejoin:round;stroke:rgb(0%,0%,0%);stroke-opacity:1;stroke-miterlimit:4;" d="M 525.551637 365.495728 C 525.551637 384.000568 508.286151 399.001026 487.003449 399.001026 C 465.710063 399.001026 448.455262 384.000568 448.455262 365.538465 " transform="matrix(0.365614,0,0,0.365614,34.206528,64.584555)"/><path style="fill:none;stroke-width:11;stroke-linecap:round;stroke-linejoin:round;stroke:rgb(0%,0%,0%);stroke-opacity:1;stroke-miterlimit:4;" d="M 448.551419 428.766894 C 448.551419 447.250365 435.548884 462.229456 419.554805 462.229456 C 403.550042 462.229456 390.547508 447.228997 390.547508 428.766894 " transform="matrix(0.365614,0,0,0.365614,34.206528,64.584555)"/><g style="fill:rgb(100%,100%,100%);fill-opacity:1;"><g transform="translate(69.203374, 70.027177)"><path style="stroke:none;" d="M -5.59375 -20.78125 C -6.019531 -21.78125 -6.03125 -22.742188 -5.625 -23.671875 C -5.21875 -24.609375 -4.523438 -25.28125 -3.546875 -25.6875 C -2.503906 -26.125 -1.523438 -26.160156 -0.609375 -25.796875 C 0.304688 -25.429688 0.976562 -24.742188 1.40625 -23.734375 C 1.8125 -22.753906 1.820312 -21.800781 1.4375 -20.875 C 1.0625 -19.945312 0.363281 -19.269531 -0.65625 -18.84375 C -1.625 -18.4375 -2.585938 -18.414062 -3.546875 -18.78125 C -4.515625 -19.15625 -5.195312 -19.820312 -5.59375 -20.78125 Z M 1.0625 -5.734375 L -1.5 -15.765625 L 2.203125 -17.3125 L 7.59375 -8.484375 L 12.125 2.3125 L 5.59375 5.0625 Z M 1.0625 -5.734375 "/></g></g><g style="fill:rgb(100%,100%,100%);fill-opacity:1;"><g transform="translate(80.588744, 64.957505)"><path style="stroke:none;" d="M -7.0625 -24.1875 L -9.0625 -30 L 14.203125 -38.015625 L 16.203125 -32.203125 L 7.90625 -29.34375 L 16.109375 -5.546875 L 9.390625 -3.234375 L 1.1875 -27.03125 Z M -7.0625 -24.1875 "/></g></g><g style="fill:rgb(100%,100%,100%);fill-opacity:1;"><g transform="translate(104.890286, 56.528684)"><path style="stroke:none;" d="M 0.84375 -8.296875 L -2.9375 -23.59375 L 3.78125 -25.265625 L 7.046875 -12.0625 C 7.347656 -10.851562 7.921875 -9.957031 8.765625 -9.375 C 9.617188 -8.800781 10.617188 -8.660156 11.765625 -8.953125 C 12.910156 -9.234375 13.738281 -9.878906 14.25 -10.890625 C 14.769531 -11.910156 14.875 -13.046875 14.5625 -14.296875 L 11.390625 -27.140625 L 18.109375 -28.8125 L 23.78125 -5.890625 L 17.390625 -4.3125 L 16.765625 -6.828125 L 16.4375 -6.734375 C 16.15625 -5.773438 15.550781 -4.859375 14.625 -3.984375 C 13.707031 -3.109375 12.523438 -2.488281 11.078125 -2.125 C 8.578125 -1.507812 6.394531 -1.78125 4.53125 -2.9375 C 2.675781 -4.09375 1.445312 -5.878906 0.84375 -8.296875 Z M 4.125 -28.796875 L 4.59375 -35.90625 L 11.03125 -37.5 L 8.671875 -29.921875 Z M 4.125 -28.796875 "/></g></g><g style="fill:rgb(100%,100%,100%);fill-opacity:1;"><g transform="translate(140.597224, 48.264994)"><path style="stroke:none;" d="M 4.09375 9.890625 L 0.296875 -23.796875 L 7.09375 -24.5625 L 7.390625 -21.953125 L 7.75 -22 C 7.90625 -22.332031 8.125 -22.675781 8.40625 -23.03125 C 8.6875 -23.382812 9.066406 -23.769531 9.546875 -24.1875 C 10.023438 -24.613281 10.644531 -24.976562 11.40625 -25.28125 C 12.164062 -25.59375 13 -25.800781 13.90625 -25.90625 C 17.125 -26.257812 19.851562 -25.441406 22.09375 -23.453125 C 24.34375 -21.460938 25.675781 -18.628906 26.09375 -14.953125 C 26.5 -11.265625 25.847656 -8.15625 24.140625 -5.625 C 22.429688 -3.09375 20.003906 -1.648438 16.859375 -1.296875 C 15.671875 -1.160156 14.570312 -1.226562 13.5625 -1.5 C 12.550781 -1.78125 11.773438 -2.117188 11.234375 -2.515625 C 10.691406 -2.910156 10.238281 -3.34375 9.875 -3.8125 L 9.53125 -3.78125 L 10.984375 9.109375 Z M 8.34375 -12.828125 C 8.550781 -10.972656 9.21875 -9.546875 10.34375 -8.546875 C 11.46875 -7.554688 12.828125 -7.148438 14.421875 -7.328125 C 16.015625 -7.515625 17.242188 -8.222656 18.109375 -9.453125 C 18.984375 -10.691406 19.316406 -12.21875 19.109375 -14.03125 C 18.910156 -15.875 18.253906 -17.289062 17.140625 -18.28125 C 16.023438 -19.28125 14.664062 -19.691406 13.0625 -19.515625 C 11.425781 -19.328125 10.179688 -18.609375 9.328125 -17.359375 C 8.472656 -16.117188 8.144531 -14.609375 8.34375 -12.828125 Z M 8.34375 -12.828125 "/></g></g><g style="fill:rgb(100%,100%,100%);fill-opacity:1;"><g transform="translate(168.295705, 45.136374)"><path style="stroke:none;" d="M 2.65625 -7.921875 L 2.359375 -23.671875 L 9.28125 -23.796875 L 9.546875 -10.203125 C 9.566406 -8.953125 9.925781 -7.953125 10.625 -7.203125 C 11.332031 -6.460938 12.273438 -6.101562 13.453125 -6.125 C 14.640625 -6.144531 15.59375 -6.59375 16.3125 -7.46875 C 17.039062 -8.351562 17.394531 -9.4375 17.375 -10.71875 L 17.125 -23.953125 L 24.046875 -24.09375 L 24.5 -0.484375 L 17.921875 -0.34375 L 17.875 -2.9375 L 17.53125 -2.9375 C 17.039062 -2.050781 16.25 -1.285156 15.15625 -0.640625 C 14.0625 0.00390625 12.769531 0.34375 11.28125 0.375 C 8.707031 0.425781 6.640625 -0.316406 5.078125 -1.859375 C 3.515625 -3.410156 2.707031 -5.429688 2.65625 -7.921875 Z M 2.65625 -7.921875 "/></g></g><g style="fill:rgb(100%,100%,100%);fill-opacity:1;"><g transform="translate(194.00709, 44.573427)"><path style="stroke:none;" d="M 2.421875 -11.546875 C 2.679688 -15.234375 4.007812 -18.15625 6.40625 -20.3125 C 8.8125 -22.46875 11.804688 -23.421875 15.390625 -23.171875 C 17.273438 -23.035156 18.953125 -22.585938 20.421875 -21.828125 C 21.898438 -21.066406 23.078125 -20.082031 23.953125 -18.875 C 24.828125 -17.675781 25.46875 -16.328125 25.875 -14.828125 C 26.289062 -13.328125 26.441406 -11.75 26.328125 -10.09375 L 26.1875 -8.078125 L 8.859375 -9.28125 C 8.867188 -7.78125 9.347656 -6.507812 10.296875 -5.46875 C 11.253906 -4.4375 12.539062 -3.863281 14.15625 -3.75 C 15.457031 -3.65625 16.578125 -3.847656 17.515625 -4.328125 C 18.453125 -4.804688 19.132812 -5.4375 19.5625 -6.21875 L 25.8125 -5.78125 C 25.101562 -3.300781 23.664062 -1.40625 21.5 -0.09375 C 19.332031 1.21875 16.675781 1.765625 13.53125 1.546875 C 11.269531 1.390625 9.265625 0.722656 7.515625 -0.453125 C 5.765625 -1.640625 4.4375 -3.203125 3.53125 -5.140625 C 2.632812 -7.085938 2.265625 -9.222656 2.421875 -11.546875 Z M 9.3125 -13.890625 L 20.125 -13.140625 C 20.070312 -14.410156 19.582031 -15.492188 18.65625 -16.390625 C 17.738281 -17.296875 16.523438 -17.800781 15.015625 -17.90625 C 13.585938 -18 12.34375 -17.648438 11.28125 -16.859375 C 10.21875 -16.066406 9.5625 -15.078125 9.3125 -13.890625 Z M 9.3125 -13.890625 "/></g></g><g style="fill:rgb(100%,100%,100%);fill-opacity:1;"><g transform="translate(219.832631, 46.290338)"><path style="stroke:none;" d="M 3.46875 -11.265625 C 4.0625 -14.929688 5.523438 -17.742188 7.859375 -19.703125 C 10.203125 -21.671875 12.941406 -22.398438 16.078125 -21.890625 C 17.691406 -21.628906 19 -21.070312 20 -20.21875 C 21.007812 -19.375 21.710938 -18.503906 22.109375 -17.609375 L 22.484375 -17.546875 L 24.515625 -30 L 31.34375 -28.875 L 25.953125 4.234375 L 19.15625 3.125 L 19.59375 0.46875 L 19.234375 0.40625 C 18.972656 0.707031 18.660156 0.988281 18.296875 1.25 C 17.929688 1.519531 17.457031 1.796875 16.875 2.078125 C 16.300781 2.359375 15.613281 2.550781 14.8125 2.65625 C 14.007812 2.769531 13.160156 2.753906 12.265625 2.609375 C 9.046875 2.078125 6.625 0.546875 5 -1.984375 C 3.382812 -4.523438 2.875 -7.617188 3.46875 -11.265625 Z M 10.421875 -10.265625 C 10.117188 -8.453125 10.367188 -6.90625 11.171875 -5.625 C 11.984375 -4.351562 13.191406 -3.585938 14.796875 -3.328125 C 16.410156 -3.066406 17.800781 -3.425781 18.96875 -4.40625 C 20.132812 -5.394531 20.863281 -6.765625 21.15625 -8.515625 C 21.445312 -10.347656 21.175781 -11.894531 20.34375 -13.15625 C 19.507812 -14.414062 18.300781 -15.171875 16.71875 -15.421875 C 15.144531 -15.679688 13.769531 -15.332031 12.59375 -14.375 C 11.425781 -13.414062 10.703125 -12.046875 10.421875 -10.265625 Z M 10.421875 -10.265625 "/></g></g><g style="fill:rgb(100%,100%,100%);fill-opacity:1;"><g transform="translate(246.609349, 50.618662)"><path style="stroke:none;" d="M 4.484375 -10.90625 C 5.410156 -14.488281 7.25 -17.117188 10 -18.796875 C 12.757812 -20.484375 15.878906 -20.878906 19.359375 -19.984375 C 21.191406 -19.503906 22.757812 -18.753906 24.0625 -17.734375 C 25.375 -16.710938 26.347656 -15.53125 26.984375 -14.1875 C 27.628906 -12.851562 28.019531 -11.410156 28.15625 -9.859375 C 28.289062 -8.304688 28.148438 -6.726562 27.734375 -5.125 L 27.234375 -3.171875 L 10.40625 -7.53125 C 10.132812 -6.03125 10.375 -4.6875 11.125 -3.5 C 11.882812 -2.3125 13.046875 -1.515625 14.609375 -1.109375 C 15.867188 -0.785156 17.003906 -0.769531 18.015625 -1.0625 C 19.023438 -1.363281 19.804688 -1.859375 20.359375 -2.546875 L 26.421875 -0.984375 C 25.285156 1.316406 23.53125 2.914062 21.15625 3.8125 C 18.789062 4.71875 16.078125 4.773438 13.015625 3.984375 C 10.828125 3.421875 8.976562 2.398438 7.46875 0.921875 C 5.96875 -0.554688 4.945312 -2.332031 4.40625 -4.40625 C 3.875 -6.476562 3.898438 -8.644531 4.484375 -10.90625 Z M 11.671875 -11.953125 L 22.171875 -9.234375 C 22.359375 -10.503906 22.078125 -11.664062 21.328125 -12.71875 C 20.585938 -13.769531 19.488281 -14.484375 18.03125 -14.859375 C 16.644531 -15.210938 15.351562 -15.097656 14.15625 -14.515625 C 12.96875 -13.941406 12.140625 -13.085938 11.671875 -11.953125 Z M 11.671875 -11.953125 "/></g></g><g style="fill:rgb(100%,100%,100%);fill-opacity:1;"><g transform="translate(271.760819, 57.146712)"><path style="stroke:none;" d="M 3.90625 -6.3125 L 9.859375 -4.234375 C 9.671875 -3.429688 9.820312 -2.710938 10.3125 -2.078125 C 10.800781 -1.453125 11.585938 -0.945312 12.671875 -0.5625 C 13.753906 -0.1875 14.660156 -0.0820312 15.390625 -0.25 C 16.117188 -0.414062 16.59375 -0.8125 16.8125 -1.4375 C 16.988281 -1.914062 16.945312 -2.367188 16.6875 -2.796875 C 16.425781 -3.222656 16.019531 -3.597656 15.46875 -3.921875 C 14.914062 -4.242188 14.285156 -4.597656 13.578125 -4.984375 C 12.878906 -5.378906 12.15625 -5.769531 11.40625 -6.15625 C 10.65625 -6.550781 9.957031 -7.035156 9.3125 -7.609375 C 8.664062 -8.179688 8.125 -8.796875 7.6875 -9.453125 C 7.257812 -10.109375 7.015625 -10.921875 6.953125 -11.890625 C 6.890625 -12.867188 7.054688 -13.929688 7.453125 -15.078125 C 8.148438 -17.066406 9.550781 -18.457031 11.65625 -19.25 C 13.769531 -20.039062 16.253906 -19.9375 19.109375 -18.9375 C 21.742188 -18.007812 23.675781 -16.640625 24.90625 -14.828125 C 26.132812 -13.015625 26.425781 -10.957031 25.78125 -8.65625 L 20.125 -10.625 C 20.269531 -11.363281 20.113281 -12.035156 19.65625 -12.640625 C 19.207031 -13.253906 18.460938 -13.742188 17.421875 -14.109375 C 16.429688 -14.453125 15.570312 -14.546875 14.84375 -14.390625 C 14.125 -14.234375 13.660156 -13.863281 13.453125 -13.28125 C 13.328125 -12.894531 13.367188 -12.53125 13.578125 -12.1875 C 13.796875 -11.84375 14.132812 -11.519531 14.59375 -11.21875 C 15.050781 -10.914062 15.585938 -10.613281 16.203125 -10.3125 C 16.828125 -10.019531 17.476562 -9.6875 18.15625 -9.3125 C 18.84375 -8.945312 19.515625 -8.5625 20.171875 -8.15625 C 20.835938 -7.75 21.4375 -7.265625 21.96875 -6.703125 C 22.507812 -6.140625 22.945312 -5.523438 23.28125 -4.859375 C 23.613281 -4.203125 23.785156 -3.421875 23.796875 -2.515625 C 23.804688 -1.609375 23.625 -0.628906 23.25 0.421875 C 22.476562 2.640625 20.992188 4.132812 18.796875 4.90625 C 16.597656 5.675781 13.953125 5.519531 10.859375 4.4375 C 7.742188 3.34375 5.617188 1.863281 4.484375 0 C 3.359375 -1.863281 3.164062 -3.96875 3.90625 -6.3125 Z M 3.90625 -6.3125 "/></g></g><g style="fill:rgb(100%,100%,100%);fill-opacity:1;"><g transform="translate(293.282822, 64.828228)"><path style="stroke:none;" d="M 3.890625 -1.75 C 4.285156 -2.71875 4.960938 -3.382812 5.921875 -3.75 C 6.878906 -4.125 7.84375 -4.109375 8.8125 -3.703125 C 9.851562 -3.265625 10.5625 -2.582031 10.9375 -1.65625 C 11.3125 -0.726562 11.296875 0.222656 10.890625 1.203125 C 10.460938 2.203125 9.789062 2.882812 8.875 3.25 C 7.96875 3.625 6.988281 3.585938 5.9375 3.140625 C 4.957031 2.734375 4.265625 2.066406 3.859375 1.140625 C 3.453125 0.210938 3.460938 -0.75 3.890625 -1.75 Z M 10.546875 -16.828125 L 15.09375 -27.625 L 21.625 -24.875 L 17.078125 -14.078125 L 11.6875 -5.21875 L 7.984375 -6.765625 Z M 10.546875 -16.828125 "/></g></g></g></svg>