<?xml version="1.0" encoding="UTF-8"?>
<svg xmlns="http://www.w3.org/2000/svg" xmlns:xlink="http://www.w3.org/1999/xlink" width="190px" height="197px" viewBox="0 0 190 197" version="1.1">
<defs>
<clipPath id="clip1">
  <path d="M 86.59375 114 L 105.835938 114 L 105.835938 136.699219 L 86.59375 136.699219 Z M 86.59375 114 "/>
</clipPath>
<clipPath id="clip2">
  <path d="M 50.984375 7.539062 L 171.761719 7.539062 L 171.761719 121.289062 L 50.984375 121.289062 Z M 50.984375 7.539062 "/>
</clipPath>
</defs>
<g id="surface1">
<path style=" stroke:none;fill-rule:nonzero;fill:rgb(100%,100%,100%);fill-opacity:1;" d="M 178.277344 182.195312 L 3.265625 182.195312 C 0.210938 182.195312 -2.273438 179.617188 -2.273438 176.453125 L -2.273438 126.105469 C -2.273438 122.945312 0.210938 120.367188 3.265625 120.367188 L 178.277344 120.367188 C 181.332031 120.367188 183.816406 122.945312 183.816406 126.105469 L 183.816406 176.453125 C 183.816406 179.617188 181.332031 182.195312 178.277344 182.195312 Z M 178.277344 182.195312 "/>
<g clip-path="url(#clip1)" clip-rule="nonzero">
<path style=" stroke:none;fill-rule:nonzero;fill:rgb(2.745098%,47.058824%,78.039216%);fill-opacity:1;" d="M 101.085938 114.234375 L 90.949219 128.769531 L 86.792969 127.984375 L 94.257812 136.691406 L 105.355469 120.894531 Z M 101.085938 114.234375 "/>
</g>
<path style=" stroke:none;fill-rule:nonzero;fill:rgb(2.745098%,47.058824%,78.039216%);fill-opacity:1;" d="M 131.109375 114.160156 L 143.667969 126.503906 L 149.089844 126.925781 L 141.832031 134.925781 L 128.101562 121.519531 Z M 131.109375 114.160156 "/>
<path style=" stroke:none;fill-rule:nonzero;fill:rgb(93.72549%,45.098039%,55.686275%);fill-opacity:1;" d="M 151.679688 103.707031 L 119.382812 90.554688 L 135.875 43.027344 L 168.171875 56.179688 Z M 151.679688 103.707031 "/>
<g clip-path="url(#clip2)" clip-rule="nonzero">
<path style=" stroke:none;fill-rule:nonzero;fill:rgb(99.607843%,78.039216%,28.627451%);fill-opacity:1;" d="M 50.984375 121.222656 L 171.761719 121.222656 L 111.375 7.550781 Z M 50.984375 121.222656 "/>
</g>
<path style="fill:none;stroke-width:10;stroke-linecap:butt;stroke-linejoin:round;stroke:rgb(0%,0%,0%);stroke-opacity:1;stroke-miterlimit:4;" d="M 307.588336 154.357866 C 312.312068 168.500979 306.593866 183.14326 294.774975 187.099634 C 282.975207 191.056008 269.588113 182.773505 264.864381 168.611905 " transform="matrix(0.204255,0,0,0.211289,50.98618,7.549974)"/>
<path style="fill:none;stroke-width:10;stroke-linecap:butt;stroke-linejoin:round;stroke:rgb(0%,0%,0%);stroke-opacity:1;stroke-miterlimit:4;" d="M 408.125414 120.765663 C 412.849145 134.908776 407.130944 149.569545 395.331176 153.507431 C 383.512285 157.445317 370.125191 149.181302 365.401459 135.001214 " transform="matrix(0.204255,0,0,0.211289,50.98618,7.549974)"/>
<path style="fill:none;stroke-width:5;stroke-linecap:round;stroke-linejoin:round;stroke:rgb(0%,0%,0%);stroke-opacity:1;stroke-miterlimit:4;" d="M 328.013217 286.748491 C 325.488794 301.446235 323.671974 315.737249 316.156077 314.443108 C 308.621055 313.148967 308.793175 299.172244 311.298474 284.456012 " transform="matrix(0.204255,0,0,0.211289,50.98618,7.549974)"/>
<path style=" stroke:none;fill-rule:nonzero;fill:rgb(0.392157%,60.392157%,33.72549%);fill-opacity:1;" d="M 145.890625 44.355469 C 145.941406 44.679688 145.953125 45.003906 145.917969 45.335938 C 145.886719 45.664062 145.816406 45.992188 145.699219 46.316406 C 145.585938 46.640625 145.433594 46.957031 145.242188 47.261719 C 145.050781 47.570312 144.824219 47.863281 144.5625 48.140625 C 144.300781 48.417969 144.007812 48.675781 143.6875 48.914062 C 143.367188 49.152344 143.019531 49.367188 142.648438 49.554688 C 142.28125 49.746094 141.894531 49.90625 141.492188 50.039062 C 141.089844 50.171875 140.675781 50.273438 140.257812 50.34375 C 139.835938 50.414062 139.414062 50.453125 138.988281 50.460938 C 138.566406 50.46875 138.152344 50.445312 137.742188 50.386719 C 137.335938 50.328125 136.941406 50.242188 136.5625 50.121094 C 136.183594 50.003906 135.828125 49.851562 135.496094 49.675781 C 135.160156 49.5 134.855469 49.296875 134.578125 49.070312 C 134.304688 48.84375 134.0625 48.59375 133.851562 48.324219 C 133.644531 48.050781 133.476562 47.765625 133.34375 47.464844 C 133.210938 47.164062 133.117188 46.851562 133.066406 46.53125 C 133.015625 46.207031 133.007812 45.882812 133.039062 45.550781 C 133.070312 45.222656 133.144531 44.894531 133.257812 44.570312 C 133.371094 44.25 133.527344 43.933594 133.71875 43.625 C 133.910156 43.316406 134.136719 43.027344 134.398438 42.746094 C 134.660156 42.46875 134.949219 42.210938 135.273438 41.972656 C 135.59375 41.734375 135.941406 41.523438 136.308594 41.332031 C 136.679688 41.144531 137.066406 40.984375 137.46875 40.847656 C 137.871094 40.714844 138.285156 40.617188 138.703125 40.542969 C 139.125 40.472656 139.546875 40.433594 139.96875 40.425781 C 140.390625 40.417969 140.808594 40.445312 141.21875 40.5 C 141.625 40.558594 142.019531 40.648438 142.394531 40.765625 C 142.777344 40.886719 143.132812 41.035156 143.464844 41.210938 C 143.800781 41.390625 144.101562 41.589844 144.378906 41.816406 C 144.65625 42.046875 144.898438 42.296875 145.105469 42.566406 C 145.3125 42.835938 145.484375 43.121094 145.617188 43.421875 C 145.75 43.726562 145.839844 44.035156 145.890625 44.355469 Z M 145.890625 44.355469 "/>
<path style=" stroke:none;fill-rule:nonzero;fill:rgb(0.392157%,60.392157%,33.72549%);fill-opacity:1;" d="M 104.015625 57.875 C 104.070312 58.199219 104.078125 58.523438 104.042969 58.855469 C 104.011719 59.183594 103.941406 59.511719 103.824219 59.835938 C 103.710938 60.160156 103.558594 60.476562 103.367188 60.78125 C 103.175781 61.089844 102.949219 61.382812 102.6875 61.660156 C 102.425781 61.9375 102.132812 62.195312 101.8125 62.433594 C 101.492188 62.671875 101.144531 62.886719 100.773438 63.074219 C 100.40625 63.265625 100.019531 63.425781 99.617188 63.558594 C 99.214844 63.691406 98.800781 63.792969 98.382812 63.863281 C 97.960938 63.933594 97.539062 63.972656 97.117188 63.980469 C 96.691406 63.988281 96.277344 63.964844 95.867188 63.90625 C 95.460938 63.847656 95.066406 63.761719 94.6875 63.640625 C 94.308594 63.519531 93.953125 63.375 93.621094 63.195312 C 93.285156 63.019531 92.980469 62.816406 92.703125 62.589844 C 92.429688 62.359375 92.1875 62.113281 91.976562 61.839844 C 91.769531 61.574219 91.601562 61.285156 91.46875 60.984375 C 91.335938 60.683594 91.246094 60.371094 91.191406 60.050781 C 91.140625 59.730469 91.132812 59.402344 91.164062 59.074219 C 91.195312 58.746094 91.269531 58.417969 91.386719 58.09375 C 91.496094 57.769531 91.652344 57.453125 91.84375 57.144531 C 92.035156 56.835938 92.261719 56.546875 92.523438 56.265625 C 92.785156 55.988281 93.074219 55.730469 93.398438 55.492188 C 93.71875 55.253906 94.066406 55.042969 94.433594 54.851562 C 94.804688 54.664062 95.191406 54.503906 95.59375 54.371094 C 95.996094 54.238281 96.410156 54.136719 96.828125 54.0625 C 97.25 53.992188 97.671875 53.953125 98.09375 53.945312 C 98.519531 53.9375 98.933594 53.964844 99.34375 54.019531 C 99.75 54.078125 100.144531 54.167969 100.523438 54.285156 C 100.902344 54.40625 101.257812 54.554688 101.589844 54.730469 C 101.925781 54.90625 102.230469 55.109375 102.503906 55.335938 C 102.78125 55.566406 103.023438 55.816406 103.230469 56.085938 C 103.4375 56.355469 103.609375 56.640625 103.742188 56.941406 C 103.875 57.246094 103.964844 57.554688 104.015625 57.875 Z M 104.015625 57.875 "/>
<path style="fill:none;stroke-width:8;stroke-linecap:round;stroke-linejoin:round;stroke:rgb(0%,0%,0%);stroke-opacity:1;stroke-miterlimit:4;" d="M 295.807693 272.51294 C 306.020134 277.15336 316.710685 280.166859 327.860222 281.553439 C 339.009759 282.958506 350.101923 282.644215 361.155837 280.64754 L 364.330491 280.074421 C 375.57565 277.948332 386.247077 274.13986 396.325646 268.68598 C 406.385091 263.213612 415.392693 256.336177 423.310203 248.072162 L 424.801908 246.519193 " transform="matrix(0.204255,0,0,0.211289,50.98618,7.549974)"/>
<path style="fill:none;stroke-width:8;stroke-linecap:round;stroke-linejoin:round;stroke:rgb(0%,0%,0%);stroke-opacity:1;stroke-miterlimit:4;" d="M 295.080965 256.1513 C 295.539951 257.297539 295.884191 258.499241 296.113684 259.737919 C 296.343177 260.958109 296.457924 262.178299 296.438799 263.435465 C 296.419675 264.674143 296.285804 265.912821 296.037186 267.133011 C 295.769445 268.353201 295.386956 269.536415 294.908846 270.682655 C 294.411611 271.828894 293.818754 272.91967 293.11115 273.954982 C 292.422671 274.971808 291.600321 275.933169 290.720598 276.802093 C 289.82175 277.671016 288.865529 278.447501 287.813686 279.131546 C 286.761843 279.815592 285.671751 280.388712 284.505161 280.850905 " transform="matrix(0.204255,0,0,0.211289,50.98618,7.549974)"/>
<path style=" stroke:none;fill-rule:nonzero;fill:rgb(100%,56.078431%,61.568627%);fill-opacity:1;" d="M 123.558594 55.933594 L 168.492188 55.933594 L 168.492188 106.433594 L 123.558594 106.433594 Z M 123.558594 55.933594 "/>
<path style=" stroke:none;fill-rule:nonzero;fill:rgb(2.745098%,47.058824%,78.039216%);fill-opacity:1;" d="M 125.808594 80.355469 L 120.726562 86.996094 C 118.566406 89.8125 116.054688 92.238281 113.195312 94.277344 L 112.636719 94.679688 C 111.089844 95.777344 109.464844 96.742188 107.769531 97.574219 L 88.3125 107.105469 L 83.953125 104.359375 L 104.816406 93.8125 C 106.40625 93.011719 107.929688 92.085938 109.382812 91.042969 C 111.996094 89.164062 114.316406 86.957031 116.347656 84.417969 L 122.59375 76.628906 C 123.433594 75.914062 122.59375 77.277344 123.519531 77.859375 L 125.539062 76.414062 C 125.699219 76.515625 125.84375 76.632812 125.976562 76.769531 C 126.109375 76.90625 126.222656 77.058594 126.320312 77.222656 C 126.417969 77.386719 126.496094 77.5625 126.550781 77.746094 C 126.609375 77.929688 126.644531 78.121094 126.660156 78.3125 C 126.671875 78.503906 126.664062 78.695312 126.628906 78.886719 C 126.597656 79.078125 126.546875 79.261719 126.472656 79.441406 C 126.398438 79.617188 126.304688 79.785156 126.195312 79.9375 C 126.082031 80.09375 125.953125 80.234375 125.808594 80.355469 Z M 125.808594 80.355469 "/>
<path style=" stroke:none;fill-rule:nonzero;fill:rgb(97.647059%,67.45098%,72.54902%);fill-opacity:1;" d="M 168.492188 55.933594 L 123.558594 55.933594 L 126.621094 55.089844 L 166.042969 55.511719 Z M 168.492188 55.933594 "/>
<path style=" stroke:none;fill-rule:nonzero;fill:rgb(99.215686%,38.431373%,14.901961%);fill-opacity:1;" d="M 142.785156 85.707031 L 141.894531 89.113281 L 140.019531 89.480469 L 143.035156 90.335938 L 144.019531 86.628906 Z M 142.785156 85.707031 "/>
<path style=" stroke:none;fill-rule:nonzero;fill:rgb(99.215686%,38.431373%,14.901961%);fill-opacity:1;" d="M 148.597656 85.8125 L 149.660156 89.164062 L 151.550781 89.433594 L 148.578125 90.441406 L 147.292969 86.417969 Z M 148.597656 85.8125 "/>
<path style=" stroke:none;fill-rule:nonzero;fill:rgb(99.607843%,78.039216%,28.627451%);fill-opacity:1;" d="M 151.097656 88.597656 L 145.871094 85.59375 L 140.515625 88.34375 L 141.664062 82.273438 L 137.480469 77.855469 L 143.414062 77.113281 L 146.1875 71.636719 L 148.707031 77.242188 L 154.605469 78.269531 L 150.226562 82.480469 Z M 151.097656 88.597656 "/>
<path style="fill:none;stroke-width:1;stroke-linecap:round;stroke-linejoin:round;stroke:rgb(0%,0%,0%);stroke-opacity:1;stroke-miterlimit:4;" d="M 469.208812 340.843585 C 468.864572 340.843585 468.539457 340.788121 468.214342 340.658707 C 467.889227 340.529293 467.602361 340.344416 467.372868 340.122563 C 467.105126 339.863735 466.933006 339.586419 466.799135 339.272128 C 466.665264 338.957836 466.588766 338.625057 466.588766 338.27379 " transform="matrix(0.204255,0,0,0.211289,50.98618,7.549974)"/>
<path style=" stroke:none;fill-rule:nonzero;fill:rgb(99.215686%,38.431373%,14.901961%);fill-opacity:1;" d="M 148.886719 77.570312 C 149.003906 77.585938 149.117188 77.613281 149.222656 77.660156 C 149.324219 77.707031 149.417969 77.765625 149.492188 77.835938 C 149.570312 77.910156 149.625 77.992188 149.660156 78.078125 C 149.699219 78.164062 149.714844 78.253906 149.703125 78.34375 C 149.695312 78.433594 149.660156 78.519531 149.609375 78.597656 C 149.558594 78.675781 149.484375 78.738281 149.394531 78.792969 C 149.304688 78.847656 149.203125 78.886719 149.09375 78.910156 C 148.980469 78.933594 148.867188 78.9375 148.75 78.925781 C 148.632812 78.910156 148.523438 78.882812 148.417969 78.835938 C 148.3125 78.789062 148.222656 78.730469 148.148438 78.65625 C 148.070312 78.585938 148.015625 78.503906 147.976562 78.417969 C 147.941406 78.328125 147.925781 78.242188 147.9375 78.152344 C 147.945312 78.0625 147.976562 77.980469 148.03125 77.902344 C 148.082031 77.824219 148.15625 77.753906 148.242188 77.703125 C 148.332031 77.644531 148.433594 77.609375 148.542969 77.585938 C 148.65625 77.5625 148.773438 77.558594 148.886719 77.570312 Z M 148.886719 77.570312 "/>
<path style=" stroke:none;fill-rule:nonzero;fill:rgb(99.215686%,38.431373%,14.901961%);fill-opacity:1;" d="M 141.054688 76.726562 C 141.171875 76.742188 141.285156 76.769531 141.386719 76.816406 C 141.492188 76.863281 141.582031 76.921875 141.660156 76.996094 C 141.734375 77.066406 141.792969 77.148438 141.828125 77.234375 C 141.867188 77.324219 141.878906 77.414062 141.871094 77.5 C 141.859375 77.589844 141.832031 77.675781 141.777344 77.753906 C 141.722656 77.832031 141.652344 77.898438 141.5625 77.953125 C 141.472656 78.003906 141.375 78.042969 141.261719 78.066406 C 141.148438 78.089844 141.035156 78.09375 140.917969 78.082031 C 140.800781 78.070312 140.6875 78.039062 140.585938 77.992188 C 140.480469 77.949219 140.386719 77.886719 140.3125 77.816406 C 140.234375 77.742188 140.179688 77.664062 140.144531 77.574219 C 140.109375 77.488281 140.09375 77.398438 140.105469 77.308594 C 140.113281 77.21875 140.144531 77.136719 140.195312 77.058594 C 140.25 76.980469 140.320312 76.910156 140.410156 76.859375 C 140.5 76.804688 140.601562 76.765625 140.714844 76.742188 C 140.824219 76.722656 140.9375 76.714844 141.054688 76.726562 Z M 141.054688 76.726562 "/>
<path style="fill:none;stroke-width:1;stroke-linecap:butt;stroke-linejoin:miter;stroke:rgb(0%,0%,0%);stroke-opacity:1;stroke-miterlimit:10;" d="M 453.259045 322.799561 C 452.991304 325.33238 451.059737 327.181153 448.956051 326.9593 C 446.871489 326.737448 445.36066 324.51892 445.628402 322.004589 " transform="matrix(0.204255,0,0,0.211289,50.98618,7.549974)"/>
<path style="fill:none;stroke-width:1;stroke-linecap:butt;stroke-linejoin:miter;stroke:rgb(0%,0%,0%);stroke-opacity:1;stroke-miterlimit:10;" d="M 469.878167 324.186141 C 469.878167 326.71896 468.137844 328.75261 466.015034 328.75261 C 463.892223 328.734122 462.19015 326.663497 462.209274 324.149166 " transform="matrix(0.204255,0,0,0.211289,50.98618,7.549974)"/>
<path style="fill:none;stroke-width:1;stroke-linecap:butt;stroke-linejoin:miter;stroke:rgb(0%,0%,0%);stroke-opacity:1;stroke-miterlimit:10;" d="M 466.990379 339.161201 C 466.225402 342.008311 461.769412 343.283965 457.083929 341.989824 " transform="matrix(0.204255,0,0,0.211289,50.98618,7.549974)"/>
</g>
</svg>
