<?xml version="1.0" encoding="UTF-8"?><svg xmlns="http://www.w3.org/2000/svg" xmlns:xlink="http://www.w3.org/1999/xlink" width="375pt" zoomAndPan="magnify" viewBox="0 0 375 374.999991" height="374.999991pt" preserveAspectRatio="xMidYMid meet" version="1.2"><defs><g/><clipPath xml:id="clip1" id="clip1"><path d="M 90.492188 127.335938 L 170.742188 127.335938 L 170.742188 203.835938 L 90.492188 203.835938 Z M 90.492188 127.335938 "/></clipPath><clipPath xml:id="clip2" id="clip2"><path d="M 203.359375 127.335938 L 283.609375 127.335938 L 283.609375 203.835938 L 203.359375 203.835938 Z M 203.359375 127.335938 "/></clipPath><clipPath xml:id="clip3" id="clip3"><path d="M 90.402344 247.050781 L 170.652344 247.050781 L 170.652344 323.550781 L 90.402344 323.550781 Z M 90.402344 247.050781 "/></clipPath><clipPath xml:id="clip4" id="clip4"><path d="M 203.359375 247.941406 L 283.609375 247.941406 L 283.609375 324.441406 L 203.359375 324.441406 Z M 203.359375 247.941406 "/></clipPath></defs><g xml:id="surface1" id="surface1"><path style=" stroke:none;fill-rule:nonzero;fill:rgb(100%,100%,100%);fill-opacity:1;" d="M 311.929688 88.761719 L 62.886719 88.761719 C 58.976562 88.761719 55.789062 85.582031 55.789062 81.683594 L 55.789062 17.089844 C 55.789062 13.191406 58.976562 10.011719 62.886719 10.011719 L 311.929688 10.011719 C 315.839844 10.011719 319.027344 13.191406 319.027344 17.089844 L 319.027344 81.683594 C 319.027344 85.582031 315.839844 88.761719 311.929688 88.761719 Z M 311.929688 88.761719 "/><path style=" stroke:none;fill-rule:nonzero;fill:rgb(100%,100%,100%);fill-opacity:1;" d="M 311.933594 364.65625 L 62.882812 364.65625 C 58.96875 364.65625 55.785156 361.46875 55.785156 357.5625 L 55.785156 110.753906 C 55.785156 106.84375 58.96875 103.660156 62.882812 103.660156 L 311.933594 103.660156 C 315.847656 103.660156 319.035156 106.84375 319.035156 110.753906 L 319.035156 357.5625 C 319.035156 361.46875 315.847656 364.65625 311.933594 364.65625 Z M 311.933594 364.65625 "/><g clip-rule="nonzero" clip-path="url(#clip1)"><path style=" stroke:none;fill-rule:nonzero;fill:rgb(7.449341%,29.40979%,91.758728%);fill-opacity:1;" d="M 170.742188 165.585938 C 170.742188 169.449219 161.855469 171.863281 160.71875 175.351562 C 159.542969 178.96875 165.273438 186.132812 163.082031 189.132812 C 160.867188 192.175781 152.257812 188.933594 149.214844 191.144531 C 146.210938 193.335938 146.640625 202.523438 143.027344 203.695312 C 139.527344 204.84375 134.488281 197.183594 130.617188 197.183594 C 126.746094 197.183594 121.710938 204.84375 118.21875 203.703125 C 114.597656 202.53125 115.035156 193.34375 112.03125 191.152344 C 108.980469 188.941406 100.371094 192.179688 98.15625 189.132812 C 95.960938 186.125 101.691406 178.960938 100.519531 175.347656 C 99.382812 171.863281 90.492188 169.449219 90.492188 165.585938 C 90.492188 161.71875 99.382812 159.300781 100.519531 155.816406 C 101.695312 152.203125 95.960938 145.035156 98.15625 142.027344 C 100.371094 138.988281 108.980469 142.226562 112.023438 140.015625 C 115.027344 137.828125 114.597656 128.640625 118.210938 127.464844 C 121.710938 126.332031 126.746094 133.984375 130.617188 133.984375 C 134.488281 133.984375 139.527344 126.332031 143.019531 127.464844 C 146.640625 128.640625 146.203125 137.828125 149.207031 140.015625 C 152.25 142.226562 160.859375 138.988281 163.074219 142.027344 C 165.269531 145.027344 159.539062 152.203125 160.710938 155.816406 C 161.855469 159.300781 170.742188 161.71875 170.742188 165.585938 Z M 170.742188 165.585938 "/></g><path style="fill:none;stroke-width:10;stroke-linecap:butt;stroke-linejoin:round;stroke:rgb(0%,0%,0%);stroke-opacity:1;stroke-miterlimit:4;" d="M 197.930431 157.760564 C 197.930431 169.754103 186.77048 179.379914 173.024957 179.379914 C 159.257335 179.379914 148.097385 169.709847 148.097385 157.760564 " transform="matrix(0.176762,0,0,0.176527,90.493871,127.350167)"/><path style="fill:none;stroke-width:10;stroke-linecap:butt;stroke-linejoin:round;stroke:rgb(0%,0%,0%);stroke-opacity:1;stroke-miterlimit:4;" d="M 307.209549 157.760564 C 307.209549 169.754103 296.049599 179.379914 282.281977 179.379914 C 268.514355 179.379914 257.354404 169.709847 257.354404 157.760564 " transform="matrix(0.176762,0,0,0.176527,90.493871,127.350167)"/><path style="fill:none;stroke-width:11;stroke-linecap:round;stroke-linejoin:round;stroke:rgb(0%,0%,0%);stroke-opacity:1;stroke-miterlimit:4;" d="M 271.608202 229.83244 C 271.608202 243.839655 252.956721 255.213602 229.929655 255.213602 C 206.902589 255.213602 188.229008 243.839655 188.229008 229.83244 " transform="matrix(0.176762,0,0,0.176527,90.493871,127.350167)"/><path style="fill:none;stroke-width:10;stroke-linecap:round;stroke-linejoin:round;stroke:rgb(0%,0%,0%);stroke-opacity:1;stroke-miterlimit:4;" d="M 283.939395 235.342387 C 281.950493 235.342387 280.027888 234.966206 278.193678 234.213844 C 276.359468 233.439353 274.746248 232.355067 273.331918 230.960984 C 271.917587 229.544773 270.834741 227.929407 270.083378 226.092758 C 269.309916 224.256109 268.934234 222.330946 268.934234 220.339399 " transform="matrix(0.176762,0,0,0.176527,90.493871,127.350167)"/><path style="fill:none;stroke-width:10;stroke-linecap:round;stroke-linejoin:round;stroke:rgb(0%,0%,0%);stroke-opacity:1;stroke-miterlimit:4;" d="M 174.947563 236.847112 C 176.936465 236.847112 178.836971 236.470931 180.671181 235.718569 C 182.527489 234.944078 184.14071 233.859791 185.55504 232.465708 C 186.947272 231.049497 188.030118 229.434131 188.80358 227.597482 C 189.554943 225.760833 189.930625 223.835671 189.930625 221.844124 " transform="matrix(0.176762,0,0,0.176527,90.493871,127.350167)"/><path style=" stroke:none;fill-rule:nonzero;fill:rgb(90.589905%,100%,57.249451%);fill-opacity:1;" d="M 153.808594 162.0625 C 153.808594 162.417969 153.71875 162.757812 153.535156 163.085938 C 153.347656 163.414062 153.085938 163.707031 152.746094 163.957031 C 152.402344 164.207031 152.011719 164.402344 151.566406 164.539062 C 151.121094 164.675781 150.65625 164.742188 150.175781 164.742188 C 149.691406 164.742188 149.226562 164.675781 148.78125 164.539062 C 148.335938 164.402344 147.945312 164.207031 147.601562 163.957031 C 147.261719 163.707031 147 163.414062 146.816406 163.085938 C 146.628906 162.757812 146.539062 162.417969 146.539062 162.0625 C 146.539062 161.707031 146.628906 161.363281 146.816406 161.035156 C 147 160.707031 147.261719 160.417969 147.601562 160.164062 C 147.945312 159.914062 148.335938 159.71875 148.78125 159.582031 C 149.226562 159.449219 149.691406 159.378906 150.175781 159.378906 C 150.65625 159.378906 151.121094 159.449219 151.566406 159.582031 C 152.011719 159.71875 152.402344 159.914062 152.746094 160.164062 C 153.085938 160.417969 153.347656 160.707031 153.535156 161.035156 C 153.71875 161.363281 153.808594 161.707031 153.808594 162.0625 Z M 153.808594 162.0625 "/><path style=" stroke:none;fill-rule:nonzero;fill:rgb(90.589905%,100%,57.249451%);fill-opacity:1;" d="M 115.414062 163.886719 C 115.414062 164.242188 115.320312 164.582031 115.136719 164.914062 C 114.953125 165.242188 114.691406 165.53125 114.347656 165.78125 C 114.007812 166.035156 113.613281 166.226562 113.167969 166.363281 C 112.722656 166.5 112.261719 166.566406 111.777344 166.566406 C 111.296875 166.566406 110.832031 166.5 110.386719 166.363281 C 109.941406 166.226562 109.546875 166.035156 109.207031 165.78125 C 108.867188 165.53125 108.601562 165.242188 108.417969 164.914062 C 108.234375 164.582031 108.140625 164.242188 108.140625 163.886719 C 108.140625 163.53125 108.234375 163.1875 108.417969 162.859375 C 108.601562 162.53125 108.867188 162.242188 109.207031 161.988281 C 109.546875 161.738281 109.941406 161.542969 110.386719 161.410156 C 110.832031 161.273438 111.296875 161.203125 111.777344 161.203125 C 112.261719 161.203125 112.722656 161.273438 113.167969 161.410156 C 113.613281 161.542969 114.007812 161.738281 114.347656 161.988281 C 114.691406 162.242188 114.953125 162.53125 115.136719 162.859375 C 115.320312 163.1875 115.414062 163.53125 115.414062 163.886719 Z M 115.414062 163.886719 "/><g clip-rule="nonzero" clip-path="url(#clip2)"><path style=" stroke:none;fill-rule:nonzero;fill:rgb(95.689392%,57.249451%,100%);fill-opacity:1;" d="M 283.609375 165.585938 C 283.609375 169.449219 274.722656 171.863281 273.585938 175.351562 C 272.410156 178.96875 278.140625 186.132812 275.949219 189.132812 C 273.734375 192.175781 265.125 188.933594 262.082031 191.144531 C 259.074219 193.335938 259.507812 202.523438 255.894531 203.695312 C 252.394531 204.84375 247.355469 197.183594 243.484375 197.183594 C 239.613281 197.183594 234.578125 204.84375 231.082031 203.703125 C 227.464844 202.53125 227.902344 193.34375 224.898438 191.152344 C 221.847656 188.941406 213.238281 192.179688 211.023438 189.132812 C 208.828125 186.125 214.558594 178.960938 213.382812 175.347656 C 212.25 171.863281 203.359375 169.449219 203.359375 165.585938 C 203.359375 161.71875 212.25 159.300781 213.382812 155.816406 C 214.558594 152.203125 208.828125 145.035156 211.023438 142.027344 C 213.238281 138.988281 221.847656 142.226562 224.890625 140.015625 C 227.894531 137.828125 227.464844 128.640625 231.078125 127.464844 C 234.578125 126.332031 239.613281 133.984375 243.484375 133.984375 C 247.355469 133.984375 252.394531 126.332031 255.886719 127.464844 C 259.507812 128.640625 259.070312 137.828125 262.074219 140.015625 C 265.117188 142.226562 273.726562 138.988281 275.941406 142.027344 C 278.132812 145.027344 272.40625 152.203125 273.578125 155.816406 C 274.722656 159.300781 283.609375 161.71875 283.609375 165.585938 Z M 283.609375 165.585938 "/></g><path style="fill:none;stroke-width:10;stroke-linecap:butt;stroke-linejoin:round;stroke:rgb(0%,0%,0%);stroke-opacity:1;stroke-miterlimit:4;" d="M 197.933837 157.760564 C 197.933837 169.754103 186.773887 179.379914 173.028364 179.379914 C 159.260742 179.379914 148.100791 169.709847 148.100791 157.760564 " transform="matrix(0.176762,0,0,0.176527,203.360456,127.350167)"/><path style="fill:none;stroke-width:10;stroke-linecap:butt;stroke-linejoin:round;stroke:rgb(0%,0%,0%);stroke-opacity:1;stroke-miterlimit:4;" d="M 307.190857 157.760564 C 307.190857 169.754103 296.030906 179.379914 282.285383 179.379914 C 268.517761 179.379914 257.357811 169.709847 257.357811 157.760564 " transform="matrix(0.176762,0,0,0.176527,203.360456,127.350167)"/><path style="fill:none;stroke-width:11;stroke-linecap:round;stroke-linejoin:round;stroke:rgb(0%,0%,0%);stroke-opacity:1;stroke-miterlimit:4;" d="M 271.611609 229.83244 C 271.611609 243.839655 252.960127 255.213602 229.933061 255.213602 C 206.905995 255.213602 188.232415 243.839655 188.232415 229.83244 " transform="matrix(0.176762,0,0,0.176527,203.360456,127.350167)"/><path style="fill:none;stroke-width:10;stroke-linecap:round;stroke-linejoin:round;stroke:rgb(0%,0%,0%);stroke-opacity:1;stroke-miterlimit:4;" d="M 283.942802 235.342387 C 281.953899 235.342387 280.031294 234.966206 278.197084 234.213844 C 276.362875 233.439353 274.749654 232.355067 273.335324 230.960984 C 271.920994 229.544773 270.838147 227.929407 270.086784 226.092758 C 269.313322 224.256109 268.93764 222.330946 268.93764 220.339399 " transform="matrix(0.176762,0,0,0.176527,203.360456,127.350167)"/><path style="fill:none;stroke-width:10;stroke-linecap:round;stroke-linejoin:round;stroke:rgb(0%,0%,0%);stroke-opacity:1;stroke-miterlimit:4;" d="M 174.950969 236.847112 C 176.939871 236.847112 178.840377 236.470931 180.674587 235.718569 C 182.508797 234.944078 184.144116 233.859791 185.536348 232.465708 C 186.950678 231.049497 188.033525 229.434131 188.806987 227.597482 C 189.55835 225.760833 189.934031 223.835671 189.934031 221.844124 " transform="matrix(0.176762,0,0,0.176527,203.360456,127.350167)"/><path style=" stroke:none;fill-rule:nonzero;fill:rgb(100%,41.178894%,23.139954%);fill-opacity:1;" d="M 266.675781 162.0625 C 266.675781 162.417969 266.585938 162.757812 266.398438 163.085938 C 266.214844 163.414062 265.953125 163.707031 265.613281 163.957031 C 265.269531 164.207031 264.878906 164.402344 264.433594 164.539062 C 263.988281 164.675781 263.523438 164.742188 263.039062 164.742188 C 262.558594 164.742188 262.09375 164.675781 261.648438 164.539062 C 261.203125 164.402344 260.808594 164.207031 260.46875 163.957031 C 260.128906 163.707031 259.867188 163.414062 259.679688 163.085938 C 259.496094 162.757812 259.40625 162.417969 259.40625 162.0625 C 259.40625 161.707031 259.496094 161.363281 259.679688 161.035156 C 259.867188 160.707031 260.128906 160.417969 260.46875 160.164062 C 260.808594 159.914062 261.203125 159.71875 261.648438 159.582031 C 262.09375 159.449219 262.558594 159.378906 263.039062 159.378906 C 263.523438 159.378906 263.988281 159.449219 264.433594 159.582031 C 264.878906 159.71875 265.269531 159.914062 265.613281 160.164062 C 265.953125 160.417969 266.214844 160.707031 266.398438 161.035156 C 266.585938 161.363281 266.675781 161.707031 266.675781 162.0625 Z M 266.675781 162.0625 "/><path style=" stroke:none;fill-rule:nonzero;fill:rgb(100%,41.178894%,23.139954%);fill-opacity:1;" d="M 228.28125 163.886719 C 228.28125 164.242188 228.1875 164.582031 228.003906 164.914062 C 227.820312 165.242188 227.554688 165.53125 227.214844 165.78125 C 226.875 166.035156 226.480469 166.226562 226.035156 166.363281 C 225.589844 166.5 225.125 166.566406 224.644531 166.566406 C 224.164062 166.566406 223.699219 166.5 223.253906 166.363281 C 222.808594 166.226562 222.414062 166.035156 222.074219 165.78125 C 221.730469 165.53125 221.46875 165.242188 221.285156 164.914062 C 221.101562 164.582031 221.007812 164.242188 221.007812 163.886719 C 221.007812 163.53125 221.101562 163.1875 221.285156 162.859375 C 221.46875 162.53125 221.730469 162.242188 222.074219 161.988281 C 222.414062 161.738281 222.808594 161.542969 223.253906 161.410156 C 223.699219 161.273438 224.164062 161.203125 224.644531 161.203125 C 225.125 161.203125 225.589844 161.273438 226.035156 161.410156 C 226.480469 161.542969 226.875 161.738281 227.214844 161.988281 C 227.554688 162.242188 227.820312 162.53125 228.003906 162.859375 C 228.1875 163.1875 228.28125 163.53125 228.28125 163.886719 Z M 228.28125 163.886719 "/><g clip-rule="nonzero" clip-path="url(#clip3)"><path style=" stroke:none;fill-rule:nonzero;fill:rgb(45.878601%,11.369324%,100%);fill-opacity:1;" d="M 170.652344 285.300781 C 170.652344 289.164062 161.761719 291.578125 160.628906 295.066406 C 159.453125 298.683594 165.183594 305.847656 162.988281 308.847656 C 160.773438 311.886719 152.164062 308.648438 149.121094 310.859375 C 146.117188 313.050781 146.546875 322.234375 142.933594 323.410156 C 139.433594 324.558594 134.398438 316.894531 130.527344 316.894531 C 126.65625 316.894531 121.617188 324.558594 118.125 323.417969 C 114.503906 322.246094 114.941406 313.054688 111.9375 310.867188 C 108.886719 308.652344 100.277344 311.894531 98.0625 308.847656 C 95.871094 305.839844 101.597656 298.675781 100.425781 295.0625 C 99.289062 291.578125 90.402344 289.164062 90.402344 285.300781 C 90.402344 281.433594 99.289062 279.015625 100.425781 275.53125 C 101.601562 271.917969 95.871094 264.753906 98.0625 261.742188 C 100.277344 258.703125 108.886719 261.945312 111.929688 259.730469 C 114.9375 257.542969 114.503906 248.355469 118.117188 247.183594 C 121.617188 246.046875 126.65625 253.703125 130.527344 253.703125 C 134.398438 253.703125 139.433594 246.046875 142.929688 247.183594 C 146.546875 248.355469 146.109375 257.542969 149.113281 259.730469 C 152.160156 261.945312 160.765625 258.703125 162.980469 261.742188 C 165.175781 264.742188 159.445312 271.917969 160.621094 275.53125 C 161.761719 279.015625 170.652344 281.433594 170.652344 285.300781 Z M 170.652344 285.300781 "/></g><path style="fill:none;stroke-width:10;stroke-linecap:butt;stroke-linejoin:round;stroke:rgb(0%,0%,0%);stroke-opacity:1;stroke-miterlimit:4;" d="M 197.945938 157.756528 C 197.945938 169.750733 186.785987 179.399207 173.018365 179.399207 C 159.250743 179.399207 148.090793 169.706474 148.090793 157.756528 " transform="matrix(0.176762,0,0,0.176518,90.401286,247.067269)"/><path style="fill:none;stroke-width:10;stroke-linecap:butt;stroke-linejoin:round;stroke:rgb(0%,0%,0%);stroke-opacity:1;stroke-miterlimit:4;" d="M 307.202957 157.756528 C 307.202957 169.750733 296.043007 179.399207 282.275385 179.399207 C 268.529862 179.399207 257.347812 169.706474 257.347812 157.756528 " transform="matrix(0.176762,0,0,0.176518,90.401286,247.067269)"/><path style="fill:none;stroke-width:11;stroke-linecap:round;stroke-linejoin:round;stroke:rgb(0%,0%,0%);stroke-opacity:1;stroke-miterlimit:4;" d="M 271.60161 229.832404 C 271.60161 243.840396 252.950129 255.214974 229.923063 255.214974 C 206.918096 255.214974 188.244515 243.840396 188.244515 229.832404 " transform="matrix(0.176762,0,0,0.176518,90.401286,247.067269)"/><path style="fill:none;stroke-width:10;stroke-linecap:round;stroke-linejoin:round;stroke:rgb(0%,0%,0%);stroke-opacity:1;stroke-miterlimit:4;" d="M 283.932803 235.342657 C 281.943901 235.342657 280.043395 234.966455 278.209185 234.214051 C 276.352876 233.439518 274.739656 232.355171 273.325326 230.96101 C 271.933094 229.54472 270.850247 227.929265 270.076786 226.092514 C 269.325423 224.255763 268.949741 222.330494 268.949741 220.360966 " transform="matrix(0.176762,0,0,0.176518,90.401286,247.067269)"/><path style="fill:none;stroke-width:10;stroke-linecap:round;stroke-linejoin:round;stroke:rgb(0%,0%,0%);stroke-opacity:1;stroke-miterlimit:4;" d="M 174.940971 236.847465 C 176.929873 236.847465 178.852478 236.471263 180.686688 235.718859 C 182.520897 234.944326 184.134118 233.859979 185.548448 232.465818 C 186.962779 231.049528 188.045625 229.434073 188.796988 227.597322 C 189.548351 225.760571 189.946132 223.835302 189.946132 221.843644 " transform="matrix(0.176762,0,0,0.176518,90.401286,247.067269)"/><path style=" stroke:none;fill-rule:nonzero;fill:rgb(78.039551%,69.799805%,59.999084%);fill-opacity:1;" d="M 153.71875 281.777344 C 153.71875 282.132812 153.625 282.472656 153.441406 282.800781 C 153.257812 283.128906 152.992188 283.421875 152.652344 283.671875 C 152.3125 283.921875 151.917969 284.117188 151.472656 284.253906 C 151.027344 284.390625 150.5625 284.457031 150.082031 284.457031 C 149.597656 284.457031 149.136719 284.390625 148.691406 284.253906 C 148.246094 284.117188 147.851562 283.921875 147.511719 283.671875 C 147.167969 283.421875 146.90625 283.128906 146.722656 282.800781 C 146.539062 282.472656 146.445312 282.132812 146.445312 281.777344 C 146.445312 281.421875 146.539062 281.078125 146.722656 280.75 C 146.90625 280.421875 147.167969 280.132812 147.511719 279.878906 C 147.851562 279.628906 148.246094 279.433594 148.691406 279.296875 C 149.136719 279.164062 149.597656 279.09375 150.082031 279.09375 C 150.5625 279.09375 151.027344 279.164062 151.472656 279.296875 C 151.917969 279.433594 152.3125 279.628906 152.652344 279.878906 C 152.992188 280.132812 153.257812 280.421875 153.441406 280.75 C 153.625 281.078125 153.71875 281.421875 153.71875 281.777344 Z M 153.71875 281.777344 "/><path style=" stroke:none;fill-rule:nonzero;fill:rgb(78.039551%,69.799805%,59.999084%);fill-opacity:1;" d="M 115.320312 283.601562 C 115.320312 283.957031 115.230469 284.296875 115.042969 284.628906 C 114.859375 284.957031 114.597656 285.246094 114.257812 285.496094 C 113.914062 285.75 113.523438 285.941406 113.078125 286.078125 C 112.632812 286.214844 112.167969 286.28125 111.683594 286.28125 C 111.203125 286.28125 110.738281 286.214844 110.292969 286.078125 C 109.847656 285.941406 109.457031 285.75 109.113281 285.496094 C 108.773438 285.246094 108.511719 284.957031 108.324219 284.628906 C 108.140625 284.296875 108.050781 283.957031 108.050781 283.601562 C 108.050781 283.246094 108.140625 282.902344 108.324219 282.574219 C 108.511719 282.246094 108.773438 281.957031 109.113281 281.707031 C 109.457031 281.453125 109.847656 281.261719 110.292969 281.125 C 110.738281 280.988281 111.203125 280.917969 111.683594 280.917969 C 112.167969 280.917969 112.632812 280.988281 113.078125 281.125 C 113.523438 281.261719 113.914062 281.453125 114.257812 281.707031 C 114.597656 281.957031 114.859375 282.246094 115.042969 282.574219 C 115.230469 282.902344 115.320312 283.246094 115.320312 283.601562 Z M 115.320312 283.601562 "/><g clip-rule="nonzero" clip-path="url(#clip4)"><path style=" stroke:none;fill-rule:nonzero;fill:rgb(0.389099%,60.389709%,33.729553%);fill-opacity:1;" d="M 283.609375 286.191406 C 283.609375 290.058594 274.722656 292.472656 273.585938 295.960938 C 272.410156 299.574219 278.140625 306.742188 275.949219 309.742188 C 273.734375 312.78125 265.125 309.539062 262.082031 311.753906 C 259.074219 313.941406 259.507812 323.128906 255.894531 324.304688 C 252.394531 325.453125 247.355469 317.789062 243.484375 317.789062 C 239.613281 317.789062 234.578125 325.453125 231.082031 324.308594 C 227.464844 323.136719 227.902344 313.949219 224.898438 311.757812 C 221.847656 309.546875 213.238281 312.789062 211.023438 309.742188 C 208.828125 306.730469 214.558594 299.566406 213.382812 295.953125 C 212.25 292.472656 203.359375 290.058594 203.359375 286.191406 C 203.359375 282.324219 212.25 279.910156 213.382812 276.421875 C 214.558594 272.808594 208.828125 265.644531 211.023438 262.632812 C 213.238281 259.59375 221.847656 262.835938 224.890625 260.621094 C 227.894531 258.433594 227.464844 249.246094 231.078125 248.070312 C 234.578125 246.9375 239.613281 254.59375 243.484375 254.59375 C 247.355469 254.59375 252.394531 246.9375 255.886719 248.070312 C 259.507812 249.246094 259.070312 258.433594 262.074219 260.621094 C 265.117188 262.835938 273.726562 259.59375 275.941406 262.632812 C 278.132812 265.632812 272.40625 272.808594 273.578125 276.421875 C 274.722656 279.910156 283.609375 282.324219 283.609375 286.191406 Z M 283.609375 286.191406 "/></g><path style="fill:none;stroke-width:10;stroke-linecap:butt;stroke-linejoin:round;stroke:rgb(0%,0%,0%);stroke-opacity:1;stroke-miterlimit:4;" d="M 197.933837 157.753915 C 197.933837 169.769583 186.773887 179.395393 173.028364 179.395393 C 159.260742 179.395393 148.100791 169.703198 148.100791 157.753915 " transform="matrix(0.176762,0,0,0.176527,203.360456,247.956809)"/><path style="fill:none;stroke-width:10;stroke-linecap:butt;stroke-linejoin:round;stroke:rgb(0%,0%,0%);stroke-opacity:1;stroke-miterlimit:4;" d="M 307.190857 157.753915 C 307.190857 169.769583 296.030906 179.395393 282.285383 179.395393 C 268.517761 179.395393 257.357811 169.703198 257.357811 157.753915 " transform="matrix(0.176762,0,0,0.176527,203.360456,247.956809)"/><path style="fill:none;stroke-width:11;stroke-linecap:round;stroke-linejoin:round;stroke:rgb(0%,0%,0%);stroke-opacity:1;stroke-miterlimit:4;" d="M 271.611609 229.825791 C 271.611609 243.833006 252.960127 255.206953 229.933061 255.206953 C 206.905995 255.206953 188.232415 243.833006 188.232415 229.825791 " transform="matrix(0.176762,0,0,0.176527,203.360456,247.956809)"/><path style="fill:none;stroke-width:10;stroke-linecap:round;stroke-linejoin:round;stroke:rgb(0%,0%,0%);stroke-opacity:1;stroke-miterlimit:4;" d="M 283.942802 235.357867 C 281.953899 235.357867 280.031294 234.959557 278.197084 234.207195 C 276.362875 233.454833 274.749654 232.370546 273.335324 230.954335 C 271.920994 229.560252 270.838147 227.922758 270.086784 226.086109 C 269.313322 224.24946 268.93764 222.346426 268.93764 220.354879 " transform="matrix(0.176762,0,0,0.176527,203.360456,247.956809)"/><path style="fill:none;stroke-width:10;stroke-linecap:round;stroke-linejoin:round;stroke:rgb(0%,0%,0%);stroke-opacity:1;stroke-miterlimit:4;" d="M 174.950969 236.840463 C 176.939871 236.840463 178.840377 236.464282 180.674587 235.71192 C 182.508797 234.937429 184.144116 233.853142 185.536348 232.459059 C 186.950678 231.042848 188.033525 229.427482 188.806987 227.590833 C 189.55835 225.754184 189.934031 223.829022 189.934031 221.859603 " transform="matrix(0.176762,0,0,0.176527,203.360456,247.956809)"/><path style=" stroke:none;fill-rule:nonzero;fill:rgb(100%,56.079102%,61.569214%);fill-opacity:1;" d="M 266.675781 282.667969 C 266.675781 283.023438 266.585938 283.363281 266.398438 283.695312 C 266.214844 284.023438 265.953125 284.3125 265.613281 284.5625 C 265.269531 284.816406 264.878906 285.007812 264.433594 285.144531 C 263.988281 285.28125 263.523438 285.347656 263.039062 285.347656 C 262.558594 285.347656 262.09375 285.28125 261.648438 285.144531 C 261.203125 285.007812 260.808594 284.816406 260.46875 284.5625 C 260.128906 284.3125 259.867188 284.023438 259.679688 283.695312 C 259.496094 283.363281 259.40625 283.023438 259.40625 282.667969 C 259.40625 282.3125 259.496094 281.96875 259.679688 281.640625 C 259.867188 281.3125 260.128906 281.023438 260.46875 280.769531 C 260.808594 280.519531 261.203125 280.324219 261.648438 280.191406 C 262.09375 280.054688 262.558594 279.984375 263.039062 279.984375 C 263.523438 279.984375 263.988281 280.054688 264.433594 280.191406 C 264.878906 280.324219 265.269531 280.519531 265.613281 280.769531 C 265.953125 281.023438 266.214844 281.3125 266.398438 281.640625 C 266.585938 281.96875 266.675781 282.3125 266.675781 282.667969 Z M 266.675781 282.667969 "/><path style=" stroke:none;fill-rule:nonzero;fill:rgb(100%,56.079102%,61.569214%);fill-opacity:1;" d="M 228.28125 284.492188 C 228.28125 284.847656 228.1875 285.191406 228.003906 285.519531 C 227.820312 285.847656 227.554688 286.136719 227.214844 286.390625 C 226.875 286.640625 226.480469 286.832031 226.035156 286.96875 C 225.589844 287.105469 225.125 287.175781 224.644531 287.175781 C 224.164062 287.175781 223.699219 287.105469 223.253906 286.96875 C 222.808594 286.832031 222.414062 286.640625 222.074219 286.390625 C 221.730469 286.136719 221.46875 285.847656 221.285156 285.519531 C 221.101562 285.191406 221.007812 284.847656 221.007812 284.492188 C 221.007812 284.136719 221.101562 283.796875 221.285156 283.464844 C 221.46875 283.136719 221.730469 282.847656 222.074219 282.597656 C 222.414062 282.34375 222.808594 282.152344 223.253906 282.015625 C 223.699219 281.878906 224.164062 281.8125 224.644531 281.8125 C 225.125 281.8125 225.589844 281.878906 226.035156 282.015625 C 226.480469 282.152344 226.875 282.34375 227.214844 282.597656 C 227.554688 282.847656 227.820312 283.136719 228.003906 283.464844 C 228.1875 283.796875 228.28125 284.136719 228.28125 284.492188 Z M 228.28125 284.492188 "/><g style="fill:rgb(0%,0%,0%);fill-opacity:1;"><g transform="translate(72.492186, 40.228899)"><path style="stroke:none;" d="M 0.96875 -8.53125 C 0.96875 -9.769531 1.195312 -10.929688 1.65625 -12.015625 C 2.125 -13.109375 2.753906 -14.046875 3.546875 -14.828125 C 4.347656 -15.617188 5.304688 -16.238281 6.421875 -16.6875 C 7.546875 -17.132812 8.75 -17.359375 10.03125 -17.359375 C 11.3125 -17.359375 12.515625 -17.128906 13.640625 -16.671875 C 14.765625 -16.222656 15.722656 -15.601562 16.515625 -14.8125 C 17.316406 -14.03125 17.945312 -13.09375 18.40625 -12 C 18.875 -10.914062 19.109375 -9.757812 19.109375 -8.53125 C 19.109375 -6.882812 18.710938 -5.382812 17.921875 -4.03125 C 17.140625 -2.6875 16.054688 -1.625 14.671875 -0.84375 C 13.285156 -0.0625 11.738281 0.328125 10.03125 0.328125 C 8.75 0.328125 7.546875 0.101562 6.421875 -0.34375 C 5.296875 -0.800781 4.332031 -1.421875 3.53125 -2.203125 C 2.738281 -2.984375 2.113281 -3.921875 1.65625 -5.015625 C 1.195312 -6.109375 0.96875 -7.28125 0.96875 -8.53125 Z M 4.96875 -8.53125 C 4.96875 -7.039062 5.441406 -5.8125 6.390625 -4.84375 C 7.335938 -3.875 8.550781 -3.390625 10.03125 -3.390625 C 11.5 -3.390625 12.707031 -3.875 13.65625 -4.84375 C 14.601562 -5.8125 15.078125 -7.039062 15.078125 -8.53125 C 15.078125 -10 14.601562 -11.222656 13.65625 -12.203125 C 12.707031 -13.179688 11.5 -13.671875 10.03125 -13.671875 C 8.5625 -13.671875 7.347656 -13.179688 6.390625 -12.203125 C 5.441406 -11.222656 4.96875 -10 4.96875 -8.53125 Z M 4.96875 -8.53125 "/></g></g><g style="fill:rgb(0%,0%,0%);fill-opacity:1;"><g transform="translate(92.527528, 40.228899)"><path style="stroke:none;" d="M 1.671875 0 L 1.671875 -17.0625 L 8.28125 -17.0625 C 9.976562 -17.0625 11.390625 -16.523438 12.515625 -15.453125 C 13.648438 -14.390625 14.21875 -13.019531 14.21875 -11.34375 C 14.21875 -10.25 13.953125 -9.257812 13.421875 -8.375 C 12.890625 -7.5 12.171875 -6.816406 11.265625 -6.328125 C 10.359375 -5.847656 9.363281 -5.609375 8.28125 -5.609375 L 5.53125 -5.609375 L 5.53125 0 Z M 5.53125 -8.859375 L 7.890625 -8.859375 C 8.585938 -8.859375 9.160156 -9.085938 9.609375 -9.546875 C 10.066406 -10.003906 10.296875 -10.601562 10.296875 -11.34375 C 10.296875 -12.070312 10.070312 -12.65625 9.625 -13.09375 C 9.175781 -13.539062 8.597656 -13.765625 7.890625 -13.765625 L 5.53125 -13.765625 Z M 5.53125 -8.859375 "/></g></g><g style="fill:rgb(0%,0%,0%);fill-opacity:1;"><g transform="translate(107.378651, 40.228899)"><path style="stroke:none;" d="M 1.671875 0 L 1.671875 -17.0625 L 8.34375 -17.0625 C 10.101562 -17.0625 11.550781 -16.535156 12.6875 -15.484375 C 13.820312 -14.441406 14.390625 -13.09375 14.390625 -11.4375 C 14.390625 -10.320312 14.109375 -9.328125 13.546875 -8.453125 C 12.992188 -7.578125 12.269531 -6.910156 11.375 -6.453125 L 15.015625 0 L 10.71875 0 L 7.8125 -5.703125 L 5.53125 -5.703125 L 5.53125 0 Z M 5.53125 -8.984375 L 8.015625 -8.984375 C 8.734375 -8.984375 9.316406 -9.195312 9.765625 -9.625 C 10.222656 -10.0625 10.453125 -10.664062 10.453125 -11.4375 C 10.453125 -12.132812 10.222656 -12.695312 9.765625 -13.125 C 9.316406 -13.550781 8.71875 -13.765625 7.96875 -13.765625 L 5.53125 -13.765625 Z M 5.53125 -8.984375 "/></g></g><g style="fill:rgb(0%,0%,0%);fill-opacity:1;"><g transform="translate(123.133445, 40.228899)"><path style="stroke:none;" d="M 1.671875 0 L 1.671875 -17.0625 L 5.53125 -17.0625 L 5.53125 0 Z M 1.671875 0 "/></g></g><g style="fill:rgb(0%,0%,0%);fill-opacity:1;"><g transform="translate(130.339033, 40.228899)"><path style="stroke:none;" d="M 1.671875 0 L 1.671875 -17.0625 L 6.4375 -17.0625 L 11.03125 -5.484375 L 11.1875 -5.484375 L 15.21875 -17.0625 L 20 -17.0625 L 20 0 L 16.265625 0 L 16.265625 -9.640625 L 16.125 -9.640625 L 12.578125 0 L 9.484375 0 L 5.53125 -10.03125 L 5.390625 -10.03125 L 5.390625 0 Z M 1.671875 0 "/></g></g><g style="fill:rgb(0%,0%,0%);fill-opacity:1;"><g transform="translate(151.979581, 40.228899)"><path style="stroke:none;" d="M 0.328125 0 L 6.109375 -17.0625 L 11.03125 -17.0625 L 16.90625 0 L 12.8125 0 L 11.78125 -3.015625 L 5.25 -3.015625 L 4.265625 0 Z M 6.296875 -6.453125 L 10.734375 -6.453125 L 8.640625 -12.8125 L 8.4375 -12.8125 Z M 6.296875 -6.453125 "/></g></g><g style="fill:rgb(0%,0%,0%);fill-opacity:1;"><g transform="translate(169.185005, 40.228899)"><path style="stroke:none;" d=""/></g></g><g style="fill:rgb(0%,0%,0%);fill-opacity:1;"><g transform="translate(175.463142, 40.228899)"><path style="stroke:none;" d="M 1.671875 0 L 1.671875 -17.0625 L 12.484375 -17.0625 L 12.484375 -13.765625 L 5.53125 -13.765625 L 5.53125 -10.234375 L 11.453125 -10.234375 L 11.453125 -6.953125 L 5.53125 -6.953125 L 5.53125 -3.3125 L 12.734375 -3.3125 L 12.734375 0 Z M 1.671875 0 "/></g></g><g style="fill:rgb(0%,0%,0%);fill-opacity:1;"><g transform="translate(189.137114, 40.228899)"><path style="stroke:none;" d="M 1.671875 0 L 1.671875 -17.0625 L 5.53125 -17.0625 L 5.53125 -3.4375 L 12.203125 -3.4375 L 12.203125 0 Z M 1.671875 0 "/></g></g><g style="fill:rgb(0%,0%,0%);fill-opacity:1;"><g transform="translate(202.204675, 40.228899)"><path style="stroke:none;" d=""/></g></g><g style="fill:rgb(0%,0%,0%);fill-opacity:1;"><g transform="translate(208.482812, 40.228899)"><path style="stroke:none;" d="M 1.671875 0 L 1.671875 -17.0625 L 8.34375 -17.0625 C 9.988281 -17.0625 11.28125 -16.632812 12.21875 -15.78125 C 13.164062 -14.9375 13.640625 -13.851562 13.640625 -12.53125 C 13.640625 -11.769531 13.46875 -11.085938 13.125 -10.484375 C 12.78125 -9.890625 12.3125 -9.414062 11.71875 -9.0625 L 11.71875 -8.921875 C 12.394531 -8.609375 12.976562 -8.125 13.46875 -7.46875 C 13.957031 -6.8125 14.203125 -5.988281 14.203125 -5 C 14.203125 -3.976562 13.945312 -3.082031 13.4375 -2.3125 C 12.9375 -1.539062 12.285156 -0.960938 11.484375 -0.578125 C 10.679688 -0.191406 9.804688 0 8.859375 0 Z M 5.359375 -3.234375 L 7.84375 -3.234375 C 8.539062 -3.234375 9.09375 -3.414062 9.5 -3.78125 C 9.90625 -4.144531 10.109375 -4.679688 10.109375 -5.390625 C 10.109375 -6.046875 9.882812 -6.550781 9.4375 -6.90625 C 9 -7.257812 8.453125 -7.4375 7.796875 -7.4375 L 5.359375 -7.4375 Z M 5.359375 -10.203125 L 7.84375 -10.203125 C 8.457031 -10.203125 8.945312 -10.378906 9.3125 -10.734375 C 9.675781 -11.097656 9.859375 -11.5625 9.859375 -12.125 C 9.859375 -12.65625 9.675781 -13.082031 9.3125 -13.40625 C 8.945312 -13.738281 8.46875 -13.90625 7.875 -13.90625 L 5.359375 -13.90625 Z M 5.359375 -10.203125 "/></g></g><g style="fill:rgb(0%,0%,0%);fill-opacity:1;"><g transform="translate(223.452839, 40.228899)"><path style="stroke:none;" d="M 0.96875 -8.53125 C 0.96875 -9.769531 1.195312 -10.929688 1.65625 -12.015625 C 2.125 -13.109375 2.753906 -14.046875 3.546875 -14.828125 C 4.347656 -15.617188 5.304688 -16.238281 6.421875 -16.6875 C 7.546875 -17.132812 8.75 -17.359375 10.03125 -17.359375 C 11.3125 -17.359375 12.515625 -17.128906 13.640625 -16.671875 C 14.765625 -16.222656 15.722656 -15.601562 16.515625 -14.8125 C 17.316406 -14.03125 17.945312 -13.09375 18.40625 -12 C 18.875 -10.914062 19.109375 -9.757812 19.109375 -8.53125 C 19.109375 -6.882812 18.710938 -5.382812 17.921875 -4.03125 C 17.140625 -2.6875 16.054688 -1.625 14.671875 -0.84375 C 13.285156 -0.0625 11.738281 0.328125 10.03125 0.328125 C 8.75 0.328125 7.546875 0.101562 6.421875 -0.34375 C 5.296875 -0.800781 4.332031 -1.421875 3.53125 -2.203125 C 2.738281 -2.984375 2.113281 -3.921875 1.65625 -5.015625 C 1.195312 -6.109375 0.96875 -7.28125 0.96875 -8.53125 Z M 4.96875 -8.53125 C 4.96875 -7.039062 5.441406 -5.8125 6.390625 -4.84375 C 7.335938 -3.875 8.550781 -3.390625 10.03125 -3.390625 C 11.5 -3.390625 12.707031 -3.875 13.65625 -4.84375 C 14.601562 -5.8125 15.078125 -7.039062 15.078125 -8.53125 C 15.078125 -10 14.601562 -11.222656 13.65625 -12.203125 C 12.707031 -13.179688 11.5 -13.671875 10.03125 -13.671875 C 8.5625 -13.671875 7.347656 -13.179688 6.390625 -12.203125 C 5.441406 -11.222656 4.96875 -10 4.96875 -8.53125 Z M 4.96875 -8.53125 "/></g></g><g style="fill:rgb(0%,0%,0%);fill-opacity:1;"><g transform="translate(243.48818, 40.228899)"><path style="stroke:none;" d="M 0.65625 -13.71875 L 0.65625 -17.0625 L 14.0625 -17.0625 L 14.0625 -13.71875 L 9.28125 -13.71875 L 9.28125 0 L 5.40625 0 L 5.40625 -13.71875 Z M 0.65625 -13.71875 "/></g></g><g style="fill:rgb(0%,0%,0%);fill-opacity:1;"><g transform="translate(258.184728, 40.228899)"><path style="stroke:none;" d="M 0.96875 -8.53125 C 0.96875 -9.769531 1.195312 -10.929688 1.65625 -12.015625 C 2.125 -13.109375 2.753906 -14.046875 3.546875 -14.828125 C 4.347656 -15.617188 5.304688 -16.238281 6.421875 -16.6875 C 7.546875 -17.132812 8.75 -17.359375 10.03125 -17.359375 C 11.3125 -17.359375 12.515625 -17.128906 13.640625 -16.671875 C 14.765625 -16.222656 15.722656 -15.601562 16.515625 -14.8125 C 17.316406 -14.03125 17.945312 -13.09375 18.40625 -12 C 18.875 -10.914062 19.109375 -9.757812 19.109375 -8.53125 C 19.109375 -6.882812 18.710938 -5.382812 17.921875 -4.03125 C 17.140625 -2.6875 16.054688 -1.625 14.671875 -0.84375 C 13.285156 -0.0625 11.738281 0.328125 10.03125 0.328125 C 8.75 0.328125 7.546875 0.101562 6.421875 -0.34375 C 5.296875 -0.800781 4.332031 -1.421875 3.53125 -2.203125 C 2.738281 -2.984375 2.113281 -3.921875 1.65625 -5.015625 C 1.195312 -6.109375 0.96875 -7.28125 0.96875 -8.53125 Z M 4.96875 -8.53125 C 4.96875 -7.039062 5.441406 -5.8125 6.390625 -4.84375 C 7.335938 -3.875 8.550781 -3.390625 10.03125 -3.390625 C 11.5 -3.390625 12.707031 -3.875 13.65625 -4.84375 C 14.601562 -5.8125 15.078125 -7.039062 15.078125 -8.53125 C 15.078125 -10 14.601562 -11.222656 13.65625 -12.203125 C 12.707031 -13.179688 11.5 -13.671875 10.03125 -13.671875 C 8.5625 -13.671875 7.347656 -13.179688 6.390625 -12.203125 C 5.441406 -11.222656 4.96875 -10 4.96875 -8.53125 Z M 8.5 -19 L 9.6875 -22.703125 L 13.296875 -22.703125 L 11.0625 -19 Z M 8.5 -19 "/></g></g><g style="fill:rgb(0%,0%,0%);fill-opacity:1;"><g transform="translate(278.22007, 40.228899)"><path style="stroke:none;" d="M 1.671875 0 L 1.671875 -17.0625 L 5.953125 -17.0625 L 12.484375 -6.328125 L 12.625 -6.328125 L 12.625 -17.0625 L 16.34375 -17.0625 L 16.34375 0 L 12.0625 0 L 5.546875 -10.71875 L 5.40625 -10.71875 L 5.40625 0 Z M 1.671875 0 "/></g></g><g style="fill:rgb(0%,0%,0%);fill-opacity:1;"><g transform="translate(296.226551, 40.228899)"><path style="stroke:none;" d=""/></g></g><g style="fill:rgb(7.449341%,29.40979%,91.758728%);fill-opacity:1;"><g transform="translate(148.617181, 73.978896)"><path style="stroke:none;" d="M 0.328125 -17.0625 L 4.609375 -17.0625 L 8.53125 -5.203125 L 8.71875 -5.203125 L 12.671875 -17.0625 L 16.90625 -17.0625 L 10.578125 0 L 6.59375 0 Z M 0.328125 -17.0625 "/></g></g><g style="fill:rgb(7.449341%,29.40979%,91.758728%);fill-opacity:1;"><g transform="translate(165.822606, 73.978896)"><path style="stroke:none;" d="M 1.671875 0 L 1.671875 -17.0625 L 12.484375 -17.0625 L 12.484375 -13.765625 L 5.53125 -13.765625 L 5.53125 -10.234375 L 11.453125 -10.234375 L 11.453125 -6.953125 L 5.53125 -6.953125 L 5.53125 -3.3125 L 12.734375 -3.3125 L 12.734375 0 Z M 1.671875 0 "/></g></g><g style="fill:rgb(7.449341%,29.40979%,91.758728%);fill-opacity:1;"><g transform="translate(179.496578, 73.978896)"><path style="stroke:none;" d="M 1.671875 0 L 1.671875 -17.0625 L 8.34375 -17.0625 C 10.101562 -17.0625 11.550781 -16.535156 12.6875 -15.484375 C 13.820312 -14.441406 14.390625 -13.09375 14.390625 -11.4375 C 14.390625 -10.320312 14.109375 -9.328125 13.546875 -8.453125 C 12.992188 -7.578125 12.269531 -6.910156 11.375 -6.453125 L 15.015625 0 L 10.71875 0 L 7.8125 -5.703125 L 5.53125 -5.703125 L 5.53125 0 Z M 5.53125 -8.984375 L 8.015625 -8.984375 C 8.734375 -8.984375 9.316406 -9.195312 9.765625 -9.625 C 10.222656 -10.0625 10.453125 -10.664062 10.453125 -11.4375 C 10.453125 -12.132812 10.222656 -12.695312 9.765625 -13.125 C 9.316406 -13.550781 8.71875 -13.765625 7.96875 -13.765625 L 5.53125 -13.765625 Z M 5.53125 -8.984375 "/></g></g><g style="fill:rgb(7.449341%,29.40979%,91.758728%);fill-opacity:1;"><g transform="translate(195.251371, 73.978896)"><path style="stroke:none;" d="M 1.671875 0 L 1.671875 -17.0625 L 7.75 -17.0625 C 9.082031 -17.0625 10.300781 -16.851562 11.40625 -16.4375 C 12.519531 -16.019531 13.445312 -15.4375 14.1875 -14.6875 C 14.9375 -13.945312 15.507812 -13.054688 15.90625 -12.015625 C 16.3125 -10.972656 16.515625 -9.832031 16.515625 -8.59375 C 16.515625 -5.945312 15.734375 -3.851562 14.171875 -2.3125 C 12.609375 -0.769531 10.46875 0 7.75 0 Z M 5.53125 -3.34375 L 7.578125 -3.34375 C 8.085938 -3.34375 8.570312 -3.398438 9.03125 -3.515625 C 9.5 -3.628906 9.945312 -3.816406 10.375 -4.078125 C 10.8125 -4.335938 11.179688 -4.664062 11.484375 -5.0625 C 11.796875 -5.457031 12.039062 -5.957031 12.21875 -6.5625 C 12.40625 -7.164062 12.5 -7.84375 12.5 -8.59375 C 12.5 -9.488281 12.363281 -10.269531 12.09375 -10.9375 C 11.820312 -11.613281 11.445312 -12.144531 10.96875 -12.53125 C 10.5 -12.925781 9.976562 -13.222656 9.40625 -13.421875 C 8.832031 -13.617188 8.222656 -13.71875 7.578125 -13.71875 L 5.53125 -13.71875 Z M 5.53125 -3.34375 "/></g></g><g style="fill:rgb(7.449341%,29.40979%,91.758728%);fill-opacity:1;"><g transform="translate(212.706495, 73.978896)"><path style="stroke:none;" d="M 1.671875 0 L 1.671875 -17.0625 L 12.484375 -17.0625 L 12.484375 -13.765625 L 5.53125 -13.765625 L 5.53125 -10.234375 L 11.453125 -10.234375 L 11.453125 -6.953125 L 5.53125 -6.953125 L 5.53125 -3.3125 L 12.734375 -3.3125 L 12.734375 0 Z M 1.671875 0 "/></g></g></g></svg>