<?xml version="1.0" encoding="UTF-8"?><svg xmlns="http://www.w3.org/2000/svg" xmlns:xlink="http://www.w3.org/1999/xlink" contentScriptType="text/ecmascript" width="375pt" zoomAndPan="magnify" contentStyleType="text/css" viewBox="0 0 375 374.999991" height="374.999991pt" preserveAspectRatio="xMidYMid meet" version="1.2"><defs><g/><clipPath xml:id="clip1" id="clip1"><path d="M 222 173 L 248 173 L 248 202.585938 L 222 202.585938 Z M 222 173 "/></clipPath><clipPath xml:id="clip2" id="clip2"><path d="M 174.359375 35.359375 L 336.359375 35.359375 L 336.359375 183 L 174.359375 183 Z M 174.359375 35.359375 "/></clipPath></defs><g xml:id="surface1" id="surface1"><path style=" stroke:none;fill-rule:nonzero;fill:rgb(100%,56.079102%,61.569214%);fill-opacity:1;" d="M 331.085938 371.859375 L 59.125 371.859375 C 52.644531 371.859375 47.363281 366.582031 47.363281 360.105469 L 47.363281 189.367188 C 47.363281 182.886719 52.644531 177.609375 59.125 177.609375 L 331.085938 177.609375 C 337.566406 177.609375 342.847656 182.886719 342.847656 189.367188 L 342.847656 360.105469 C 342.847656 366.582031 337.566406 371.859375 331.085938 371.859375 Z M 331.085938 371.859375 "/><g clip-rule="nonzero" clip-path="url(#clip1)"><path style=" stroke:none;fill-rule:nonzero;fill:rgb(2.749634%,47.059631%,78.039551%);fill-opacity:1;" d="M 241.644531 173.5 L 228.03125 192.316406 L 222.449219 191.300781 L 232.472656 202.574219 L 247.378906 182.121094 Z M 241.644531 173.5 "/></g><path style=" stroke:none;fill-rule:nonzero;fill:rgb(2.749634%,47.059631%,78.039551%);fill-opacity:1;" d="M 281.964844 173.402344 L 298.828125 189.386719 L 306.113281 189.933594 L 296.363281 200.285156 L 277.925781 182.929688 Z M 281.964844 173.402344 "/><path style=" stroke:none;fill-rule:nonzero;fill:rgb(93.728638%,45.098877%,55.688477%);fill-opacity:1;" d="M 309.59375 159.867188 L 266.214844 142.839844 L 288.367188 81.300781 L 331.742188 98.332031 Z M 309.59375 159.867188 "/><g clip-rule="nonzero" clip-path="url(#clip2)"><path style=" stroke:none;fill-rule:nonzero;fill:rgb(99.609375%,78.039551%,28.62854%);fill-opacity:1;" d="M 174.359375 182.546875 L 336.558594 182.546875 L 255.460938 35.371094 Z M 174.359375 182.546875 "/></g><path style="fill:none;stroke-width:10;stroke-linecap:butt;stroke-linejoin:round;stroke:rgb(0%,0%,0%);stroke-opacity:1;stroke-miterlimit:4;" d="M 307.583946 154.343322 C 312.311718 168.494178 306.587127 183.144812 294.781937 187.100197 C 282.976747 191.055583 269.590886 182.773548 264.863114 168.622692 " transform="matrix(0.27431,0,0,0.273559,174.361032,35.371748)"/><path style="fill:none;stroke-width:10;stroke-linecap:butt;stroke-linejoin:round;stroke:rgb(0%,0%,0%);stroke-opacity:1;stroke-miterlimit:4;" d="M 408.134543 120.772522 C 412.848075 134.909099 407.123484 149.574012 395.318294 153.515118 C 383.513104 157.456225 370.127243 149.17419 365.399471 134.994775 " transform="matrix(0.27431,0,0,0.273559,174.361032,35.371748)"/><path style="fill:none;stroke-width:5;stroke-linecap:round;stroke-linejoin:round;stroke:rgb(0%,0%,0%);stroke-opacity:1;stroke-miterlimit:4;" d="M 328.004504 286.741644 C 325.483974 301.435116 323.675459 315.743045 316.156593 314.443622 C 308.623486 313.158479 308.79437 299.164696 311.300658 284.456945 " transform="matrix(0.27431,0,0,0.273559,174.361032,35.371748)"/><path style=" stroke:none;fill-rule:nonzero;fill:rgb(0.389099%,60.389709%,33.729553%);fill-opacity:1;" d="M 301.816406 83.027344 C 301.886719 83.445312 301.898438 83.867188 301.855469 84.292969 C 301.8125 84.71875 301.714844 85.140625 301.5625 85.5625 C 301.40625 85.980469 301.203125 86.390625 300.945312 86.789062 C 300.6875 87.1875 300.382812 87.566406 300.03125 87.925781 C 299.679688 88.285156 299.289062 88.617188 298.855469 88.925781 C 298.425781 89.234375 297.960938 89.511719 297.464844 89.757812 C 296.96875 90 296.449219 90.210938 295.90625 90.382812 C 295.367188 90.554688 294.8125 90.683594 294.25 90.777344 C 293.683594 90.871094 293.117188 90.921875 292.546875 90.929688 C 291.980469 90.941406 291.421875 90.90625 290.875 90.832031 C 290.324219 90.757812 289.796875 90.644531 289.289062 90.488281 C 288.78125 90.335938 288.300781 90.144531 287.855469 89.914062 C 287.40625 89.683594 286.996094 89.421875 286.625 89.128906 C 286.253906 88.832031 285.929688 88.511719 285.648438 88.160156 C 285.371094 87.8125 285.140625 87.441406 284.964844 87.050781 C 284.785156 86.660156 284.664062 86.257812 284.59375 85.839844 C 284.527344 85.421875 284.515625 85 284.558594 84.574219 C 284.601562 84.148438 284.699219 83.726562 284.851562 83.304688 C 285.003906 82.886719 285.210938 82.476562 285.46875 82.078125 C 285.726562 81.679688 286.03125 81.300781 286.378906 80.941406 C 286.730469 80.582031 287.125 80.25 287.554688 79.941406 C 287.988281 79.632812 288.453125 79.355469 288.949219 79.109375 C 289.445312 78.867188 289.964844 78.65625 290.503906 78.484375 C 291.046875 78.3125 291.597656 78.183594 292.164062 78.089844 C 292.730469 77.996094 293.296875 77.945312 293.863281 77.9375 C 294.433594 77.929688 294.992188 77.960938 295.539062 78.035156 C 296.085938 78.109375 296.617188 78.222656 297.125 78.378906 C 297.632812 78.53125 298.109375 78.722656 298.558594 78.953125 C 299.007812 79.183594 299.417969 79.445312 299.789062 79.738281 C 300.160156 80.035156 300.484375 80.355469 300.761719 80.707031 C 301.042969 81.054688 301.269531 81.425781 301.449219 81.816406 C 301.625 82.207031 301.75 82.609375 301.816406 83.027344 Z M 301.816406 83.027344 "/><path style=" stroke:none;fill-rule:nonzero;fill:rgb(0.389099%,60.389709%,33.729553%);fill-opacity:1;" d="M 245.582031 100.53125 C 245.648438 100.949219 245.660156 101.371094 245.617188 101.796875 C 245.574219 102.222656 245.476562 102.644531 245.324219 103.066406 C 245.171875 103.488281 244.964844 103.894531 244.707031 104.292969 C 244.449219 104.691406 244.144531 105.070312 243.796875 105.429688 C 243.445312 105.789062 243.050781 106.125 242.621094 106.433594 C 242.1875 106.738281 241.722656 107.015625 241.226562 107.261719 C 240.730469 107.503906 240.210938 107.714844 239.671875 107.886719 C 239.128906 108.058594 238.578125 108.191406 238.011719 108.28125 C 237.445312 108.375 236.878906 108.425781 236.3125 108.433594 C 235.742188 108.445312 235.183594 108.410156 234.636719 108.335938 C 234.089844 108.261719 233.558594 108.148438 233.050781 107.996094 C 232.542969 107.839844 232.066406 107.648438 231.617188 107.417969 C 231.167969 107.1875 230.757812 106.925781 230.386719 106.632812 C 230.015625 106.335938 229.691406 106.015625 229.414062 105.664062 C 229.132812 105.316406 228.90625 104.945312 228.726562 104.554688 C 228.550781 104.164062 228.425781 103.761719 228.359375 103.34375 C 228.289062 102.925781 228.277344 102.507812 228.320312 102.078125 C 228.363281 101.652344 228.460938 101.230469 228.613281 100.808594 C 228.769531 100.390625 228.972656 99.980469 229.230469 99.582031 C 229.488281 99.183594 229.792969 98.804688 230.144531 98.445312 C 230.496094 98.085938 230.886719 97.753906 231.320312 97.445312 C 231.75 97.136719 232.214844 96.859375 232.710938 96.613281 C 233.207031 96.371094 233.726562 96.160156 234.269531 95.988281 C 234.808594 95.816406 235.363281 95.6875 235.925781 95.59375 C 236.492188 95.5 237.058594 95.449219 237.628906 95.441406 C 238.195312 95.433594 238.753906 95.464844 239.300781 95.539062 C 239.851562 95.613281 240.378906 95.726562 240.886719 95.882812 C 241.394531 96.035156 241.875 96.226562 242.320312 96.457031 C 242.769531 96.6875 243.179688 96.949219 243.550781 97.242188 C 243.921875 97.539062 244.246094 97.863281 244.527344 98.210938 C 244.804688 98.558594 245.035156 98.929688 245.210938 99.320312 C 245.390625 99.710938 245.511719 100.113281 245.582031 100.53125 Z M 245.582031 100.53125 "/><path style="fill:none;stroke-width:8;stroke-linecap:round;stroke-linejoin:round;stroke:rgb(0%,0%,0%);stroke-opacity:1;stroke-miterlimit:4;" d="M 295.792996 272.505112 C 306.017516 277.160186 316.711964 280.173134 327.862101 281.572512 C 338.997998 282.957611 350.105414 282.643465 361.155869 280.644353 L 364.31721 280.073178 C 375.58127 277.931272 386.247237 274.13296 396.315113 268.67824 C 406.397229 263.209242 415.397085 256.340864 423.314679 248.073109 L 424.809908 246.516658 " transform="matrix(0.27431,0,0,0.273559,174.361032,35.371748)"/><path style="fill:none;stroke-width:8;stroke-linecap:round;stroke-linejoin:round;stroke:rgb(0%,0%,0%);stroke-opacity:1;stroke-miterlimit:4;" d="M 295.080983 256.155233 C 295.536671 257.311862 295.892678 258.497049 296.120523 259.725075 C 296.348367 260.953101 296.448049 262.195406 296.433809 263.437711 C 296.419569 264.680017 296.291406 265.922322 296.035081 267.136068 C 295.778756 268.364094 295.394269 269.535003 294.910099 270.691632 C 294.42593 271.833981 293.827838 272.919213 293.115824 273.947328 C 292.418051 274.975443 291.606355 275.932161 290.723458 276.803202 C 289.82632 277.674244 288.857981 278.44533 287.818441 279.13074 C 286.764661 279.816149 285.668159 280.387324 284.514697 280.844264 " transform="matrix(0.27431,0,0,0.273559,174.361032,35.371748)"/><path style=" stroke:none;fill-rule:nonzero;fill:rgb(100%,56.079102%,61.569214%);fill-opacity:1;" d="M 271.824219 98.015625 L 332.171875 98.015625 L 332.171875 163.398438 L 271.824219 163.398438 Z M 271.824219 98.015625 "/><path style=" stroke:none;fill-rule:nonzero;fill:rgb(2.749634%,47.059631%,78.039551%);fill-opacity:1;" d="M 274.847656 129.632812 L 268.019531 138.230469 C 265.121094 141.875 261.75 145.019531 257.90625 147.660156 L 257.15625 148.175781 C 255.078125 149.601562 252.898438 150.851562 250.621094 151.925781 L 224.488281 164.269531 L 218.632812 160.714844 L 246.652344 147.058594 C 248.789062 146.015625 250.832031 144.820312 252.785156 143.472656 C 256.296875 141.039062 259.414062 138.179688 262.140625 134.894531 L 270.53125 124.804688 C 271.65625 123.882812 270.53125 125.648438 271.773438 126.402344 L 274.484375 124.53125 C 274.699219 124.660156 274.894531 124.8125 275.070312 124.992188 C 275.25 125.167969 275.402344 125.363281 275.535156 125.578125 C 275.664062 125.792969 275.769531 126.015625 275.84375 126.257812 C 275.921875 126.496094 275.96875 126.738281 275.988281 126.988281 C 276.003906 127.238281 275.992188 127.488281 275.949219 127.734375 C 275.910156 127.980469 275.839844 128.21875 275.738281 128.449219 C 275.640625 128.679688 275.515625 128.894531 275.367188 129.09375 C 275.214844 129.296875 275.042969 129.476562 274.847656 129.632812 Z M 274.847656 129.632812 "/><path style=" stroke:none;fill-rule:nonzero;fill:rgb(97.648621%,67.449951%,72.549438%);fill-opacity:1;" d="M 332.171875 98.015625 L 271.824219 98.015625 L 275.9375 96.921875 L 328.878906 97.46875 Z M 332.171875 98.015625 "/><path style=" stroke:none;fill-rule:nonzero;fill:rgb(99.21875%,38.42926%,14.898682%);fill-opacity:1;" d="M 297.648438 136.5625 L 296.449219 140.972656 L 293.929688 141.445312 L 297.980469 142.554688 L 299.304688 137.753906 Z M 297.648438 136.5625 "/><path style=" stroke:none;fill-rule:nonzero;fill:rgb(99.21875%,38.42926%,14.898682%);fill-opacity:1;" d="M 305.449219 136.699219 L 306.878906 141.035156 L 309.417969 141.386719 L 305.425781 142.691406 L 303.699219 137.480469 Z M 305.449219 136.699219 "/><path style=" stroke:none;fill-rule:nonzero;fill:rgb(99.609375%,78.039551%,28.62854%);fill-opacity:1;" d="M 308.808594 140.304688 L 301.789062 136.417969 L 294.597656 139.976562 L 296.136719 132.117188 L 290.519531 126.398438 L 298.492188 125.4375 L 302.214844 118.34375 L 305.597656 125.601562 L 313.519531 126.933594 L 307.636719 132.386719 Z M 308.808594 140.304688 "/><path style="fill:none;stroke-width:1;stroke-linecap:round;stroke-linejoin:round;stroke:rgb(0%,0%,0%);stroke-opacity:1;stroke-miterlimit:4;" d="M 469.211092 340.846178 C 468.499078 340.860458 467.872506 340.617708 467.359856 340.103651 C 466.847206 339.603873 466.590881 339.004139 466.576641 338.275892 " transform="matrix(0.27431,0,0,0.273559,174.361032,35.371748)"/><path style=" stroke:none;fill-rule:nonzero;fill:rgb(99.21875%,38.42926%,14.898682%);fill-opacity:1;" d="M 305.84375 126.03125 C 306 126.046875 306.148438 126.085938 306.289062 126.144531 C 306.429688 126.203125 306.550781 126.28125 306.65625 126.375 C 306.757812 126.46875 306.832031 126.570312 306.882812 126.6875 C 306.929688 126.800781 306.949219 126.914062 306.9375 127.03125 C 306.925781 127.148438 306.882812 127.253906 306.8125 127.355469 C 306.738281 127.457031 306.644531 127.542969 306.523438 127.613281 C 306.402344 127.683594 306.269531 127.734375 306.117188 127.761719 C 305.96875 127.792969 305.8125 127.796875 305.65625 127.78125 C 305.5 127.765625 305.351562 127.726562 305.210938 127.667969 C 305.070312 127.609375 304.949219 127.53125 304.84375 127.4375 C 304.742188 127.34375 304.667969 127.238281 304.617188 127.125 C 304.570312 127.011719 304.550781 126.898438 304.5625 126.78125 C 304.574219 126.664062 304.617188 126.554688 304.6875 126.453125 C 304.761719 126.355469 304.855469 126.269531 304.976562 126.199219 C 305.097656 126.128906 305.230469 126.078125 305.382812 126.046875 C 305.53125 126.019531 305.683594 126.011719 305.84375 126.03125 Z M 305.84375 126.03125 "/><path style=" stroke:none;fill-rule:nonzero;fill:rgb(99.21875%,38.42926%,14.898682%);fill-opacity:1;" d="M 295.324219 124.9375 C 295.480469 124.953125 295.628906 124.992188 295.769531 125.050781 C 295.910156 125.113281 296.03125 125.1875 296.132812 125.28125 C 296.238281 125.375 296.3125 125.480469 296.363281 125.59375 C 296.410156 125.707031 296.429688 125.824219 296.417969 125.9375 C 296.40625 126.054688 296.363281 126.164062 296.289062 126.265625 C 296.21875 126.367188 296.125 126.453125 296.003906 126.523438 C 295.882812 126.59375 295.75 126.640625 295.597656 126.671875 C 295.449219 126.699219 295.292969 126.707031 295.136719 126.691406 C 294.980469 126.671875 294.832031 126.636719 294.691406 126.574219 C 294.550781 126.515625 294.429688 126.4375 294.324219 126.34375 C 294.222656 126.25 294.148438 126.148438 294.097656 126.035156 C 294.050781 125.921875 294.03125 125.804688 294.042969 125.6875 C 294.054688 125.574219 294.097656 125.464844 294.167969 125.363281 C 294.242188 125.261719 294.335938 125.175781 294.457031 125.105469 C 294.578125 125.035156 294.710938 124.984375 294.863281 124.957031 C 295.011719 124.929688 295.164062 124.921875 295.324219 124.9375 Z M 295.324219 124.9375 "/><path style="fill:none;stroke-width:1;stroke-linecap:butt;stroke-linejoin:miter;stroke:rgb(0%,0%,0%);stroke-opacity:1;stroke-miterlimit:10;" d="M 453.247741 322.811333 C 452.991416 325.324503 451.054739 327.180821 448.961418 326.96663 C 446.853857 326.73816 445.358628 324.524858 445.629193 322.011689 " transform="matrix(0.27431,0,0,0.273559,174.361032,35.371748)"/><path style="fill:none;stroke-width:1;stroke-linecap:butt;stroke-linejoin:miter;stroke:rgb(0%,0%,0%);stroke-opacity:1;stroke-miterlimit:10;" d="M 469.866145 324.196432 C 469.866145 326.723881 468.128831 328.765831 466.00703 328.751552 C 463.885229 328.737272 462.190636 326.666763 462.204876 324.153594 " transform="matrix(0.27431,0,0,0.273559,174.361032,35.371748)"/><path style="fill:none;stroke-width:1;stroke-linecap:butt;stroke-linejoin:miter;stroke:rgb(0%,0%,0%);stroke-opacity:1;stroke-miterlimit:10;" d="M 467.003849 339.146933 C 466.220634 342.017087 461.763427 343.287951 457.078376 342.002807 " transform="matrix(0.27431,0,0,0.273559,174.361032,35.371748)"/><g style="fill:rgb(2.749634%,47.059631%,78.039551%);fill-opacity:1;"><g transform="translate(133.642721, 33.19602)"><path style="stroke:none;" d="M 1.4375 -15.765625 L 1.4375 -20.390625 L 3.359375 -20.390625 C 3.890625 -20.390625 4.300781 -20.554688 4.59375 -20.890625 C 4.882812 -21.222656 5.03125 -21.664062 5.03125 -22.21875 L 5.03125 -25.96875 L 10.71875 -25.96875 L 10.71875 -20.421875 L 16.0625 -20.421875 L 16.0625 -15.765625 L 10.71875 -15.765625 L 10.71875 -7.390625 C 10.71875 -6.617188 10.941406 -6.019531 11.390625 -5.59375 C 11.835938 -5.164062 12.492188 -4.953125 13.359375 -4.953125 L 15.984375 -4.953125 L 15.984375 0 L 11.84375 0 C 9.601562 0 7.851562 -0.617188 6.59375 -1.859375 C 5.34375 -3.097656 4.71875 -4.84375 4.71875 -7.09375 L 4.71875 -15.765625 Z M 1.4375 -15.765625 "/></g><g transform="translate(150.824131, 33.19602)"><path style="stroke:none;" d="M 1.40625 -10.109375 C 1.40625 -13.304688 2.375 -15.910156 4.3125 -17.921875 C 6.25 -19.929688 8.773438 -20.9375 11.890625 -20.9375 C 13.523438 -20.9375 15 -20.648438 16.3125 -20.078125 C 17.632812 -19.503906 18.707031 -18.722656 19.53125 -17.734375 C 20.363281 -16.753906 21.003906 -15.628906 21.453125 -14.359375 C 21.898438 -13.085938 22.125 -11.734375 22.125 -10.296875 L 22.125 -8.5625 L 7.09375 -8.5625 C 7.1875 -7.25 7.675781 -6.175781 8.5625 -5.34375 C 9.457031 -4.507812 10.601562 -4.09375 12 -4.09375 C 13.125 -4.09375 14.078125 -4.328125 14.859375 -4.796875 C 15.648438 -5.265625 16.203125 -5.84375 16.515625 -6.53125 L 21.9375 -6.53125 C 21.46875 -4.363281 20.335938 -2.644531 18.546875 -1.375 C 16.765625 -0.113281 14.507812 0.515625 11.78125 0.515625 C 9.820312 0.515625 8.050781 0.0625 6.46875 -0.84375 C 4.882812 -1.757812 3.644531 -3.03125 2.75 -4.65625 C 1.851562 -6.28125 1.40625 -8.097656 1.40625 -10.109375 Z M 7.203125 -12.546875 L 16.578125 -12.546875 C 16.460938 -13.660156 15.976562 -14.570312 15.125 -15.28125 C 14.28125 -16 13.203125 -16.359375 11.890625 -16.359375 C 10.648438 -16.359375 9.59375 -15.984375 8.71875 -15.234375 C 7.84375 -14.484375 7.335938 -13.585938 7.203125 -12.546875 Z M 7.203125 -12.546875 "/></g></g><g style="fill:rgb(2.749634%,47.059631%,78.039551%);fill-opacity:1;"><g transform="translate(38.326655, 77.436193)"><path style="stroke:none;" d="M 1.40625 -10.21875 C 1.40625 -12.226562 1.84375 -14.039062 2.71875 -15.65625 C 3.59375 -17.269531 4.851562 -18.550781 6.5 -19.5 C 8.144531 -20.457031 10.039062 -20.9375 12.1875 -20.9375 C 15.007812 -20.9375 17.363281 -20.15625 19.25 -18.59375 C 21.144531 -17.039062 22.238281 -15.015625 22.53125 -12.515625 L 16.4375 -12.515625 C 16.164062 -13.410156 15.65625 -14.132812 14.90625 -14.6875 C 14.15625 -15.238281 13.265625 -15.515625 12.234375 -15.515625 C 10.796875 -15.515625 9.640625 -15.007812 8.765625 -14 C 7.898438 -12.988281 7.46875 -11.726562 7.46875 -10.21875 C 7.46875 -8.695312 7.90625 -7.429688 8.78125 -6.421875 C 9.664062 -5.410156 10.828125 -4.90625 12.265625 -4.90625 C 13.242188 -4.90625 14.101562 -5.164062 14.84375 -5.6875 C 15.59375 -6.207031 16.097656 -6.878906 16.359375 -7.703125 L 22.484375 -7.703125 C 22.148438 -5.265625 21.050781 -3.285156 19.1875 -1.765625 C 17.332031 -0.242188 15.015625 0.515625 12.234375 0.515625 C 10.085938 0.515625 8.179688 0.0351562 6.515625 -0.921875 C 4.859375 -1.878906 3.59375 -3.171875 2.71875 -4.796875 C 1.84375 -6.421875 1.40625 -8.226562 1.40625 -10.21875 Z M 1.40625 -10.21875 "/></g><g transform="translate(62.27478, 77.436193)"><path style="stroke:none;" d="M 2.4375 -6.796875 L 2.4375 -20.421875 L 8.421875 -20.421875 L 8.421875 -8.671875 C 8.421875 -7.585938 8.71875 -6.710938 9.3125 -6.046875 C 9.90625 -5.390625 10.710938 -5.0625 11.734375 -5.0625 C 12.765625 -5.0625 13.601562 -5.4375 14.25 -6.1875 C 14.894531 -6.9375 15.21875 -7.863281 15.21875 -8.96875 L 15.21875 -20.421875 L 21.203125 -20.421875 L 21.203125 0 L 15.515625 0 L 15.515625 -2.25 L 15.21875 -2.25 C 14.789062 -1.488281 14.09375 -0.835938 13.125 -0.296875 C 12.15625 0.242188 11.03125 0.515625 9.75 0.515625 C 7.519531 0.515625 5.742188 -0.164062 4.421875 -1.53125 C 3.097656 -2.894531 2.4375 -4.648438 2.4375 -6.796875 Z M 2.4375 -6.796875 "/></g><g transform="translate(85.636961, 77.436193)"><path style="stroke:none;" d="M 1.40625 -10.109375 C 1.40625 -13.304688 2.375 -15.910156 4.3125 -17.921875 C 6.25 -19.929688 8.773438 -20.9375 11.890625 -20.9375 C 13.523438 -20.9375 15 -20.648438 16.3125 -20.078125 C 17.632812 -19.503906 18.707031 -18.722656 19.53125 -17.734375 C 20.363281 -16.753906 21.003906 -15.628906 21.453125 -14.359375 C 21.898438 -13.085938 22.125 -11.734375 22.125 -10.296875 L 22.125 -8.5625 L 7.09375 -8.5625 C 7.1875 -7.25 7.675781 -6.175781 8.5625 -5.34375 C 9.457031 -4.507812 10.601562 -4.09375 12 -4.09375 C 13.125 -4.09375 14.078125 -4.328125 14.859375 -4.796875 C 15.648438 -5.265625 16.203125 -5.84375 16.515625 -6.53125 L 21.9375 -6.53125 C 21.46875 -4.363281 20.335938 -2.644531 18.546875 -1.375 C 16.765625 -0.113281 14.507812 0.515625 11.78125 0.515625 C 9.820312 0.515625 8.050781 0.0625 6.46875 -0.84375 C 4.882812 -1.757812 3.644531 -3.03125 2.75 -4.65625 C 1.851562 -6.28125 1.40625 -8.097656 1.40625 -10.109375 Z M 7.203125 -12.546875 L 16.578125 -12.546875 C 16.460938 -13.660156 15.976562 -14.570312 15.125 -15.28125 C 14.28125 -16 13.203125 -16.359375 11.890625 -16.359375 C 10.648438 -16.359375 9.59375 -15.984375 8.71875 -15.234375 C 7.84375 -14.484375 7.335938 -13.585938 7.203125 -12.546875 Z M 7.203125 -12.546875 "/></g><g transform="translate(109.169256, 77.436193)"><path style="stroke:none;" d="M 2.546875 0 L 2.546875 -20.421875 L 8.203125 -20.421875 L 8.203125 -18.203125 L 8.515625 -18.203125 C 8.960938 -18.972656 9.664062 -19.617188 10.625 -20.140625 C 11.59375 -20.671875 12.71875 -20.9375 14 -20.9375 C 16.226562 -20.9375 18.003906 -20.253906 19.328125 -18.890625 C 20.648438 -17.535156 21.3125 -15.78125 21.3125 -13.625 L 21.3125 0 L 15.328125 0 L 15.328125 -11.78125 C 15.328125 -12.84375 15.03125 -13.703125 14.4375 -14.359375 C 13.84375 -15.023438 13.039062 -15.359375 12.03125 -15.359375 C 11 -15.359375 10.160156 -14.984375 9.515625 -14.234375 C 8.878906 -13.484375 8.5625 -12.554688 8.5625 -11.453125 L 8.5625 0 Z M 2.546875 0 "/></g><g transform="translate(132.380225, 77.436193)"><path style="stroke:none;" d="M 1.4375 -15.765625 L 1.4375 -20.390625 L 3.359375 -20.390625 C 3.890625 -20.390625 4.300781 -20.554688 4.59375 -20.890625 C 4.882812 -21.222656 5.03125 -21.664062 5.03125 -22.21875 L 5.03125 -25.96875 L 10.71875 -25.96875 L 10.71875 -20.421875 L 16.0625 -20.421875 L 16.0625 -15.765625 L 10.71875 -15.765625 L 10.71875 -7.390625 C 10.71875 -6.617188 10.941406 -6.019531 11.390625 -5.59375 C 11.835938 -5.164062 12.492188 -4.953125 13.359375 -4.953125 L 15.984375 -4.953125 L 15.984375 0 L 11.84375 0 C 9.601562 0 7.851562 -0.617188 6.59375 -1.859375 C 5.34375 -3.097656 4.71875 -4.84375 4.71875 -7.09375 L 4.71875 -15.765625 Z M 1.4375 -15.765625 "/></g><g transform="translate(149.561635, 77.436193)"><path style="stroke:none;" d="M 1.40625 -10.21875 C 1.40625 -11.71875 1.671875 -13.125 2.203125 -14.4375 C 2.734375 -15.75 3.472656 -16.882812 4.421875 -17.84375 C 5.367188 -18.800781 6.53125 -19.554688 7.90625 -20.109375 C 9.289062 -20.660156 10.796875 -20.9375 12.421875 -20.9375 C 15.640625 -20.9375 18.273438 -19.910156 20.328125 -17.859375 C 22.390625 -15.816406 23.421875 -13.269531 23.421875 -10.21875 C 23.421875 -8.71875 23.148438 -7.3125 22.609375 -6 C 22.078125 -4.6875 21.332031 -3.550781 20.375 -2.59375 C 19.414062 -1.632812 18.242188 -0.875 16.859375 -0.3125 C 15.484375 0.238281 13.988281 0.515625 12.375 0.515625 C 10.25 0.515625 8.34375 0.0390625 6.65625 -0.90625 C 4.976562 -1.863281 3.679688 -3.15625 2.765625 -4.78125 C 1.859375 -6.40625 1.40625 -8.21875 1.40625 -10.21875 Z M 7.46875 -10.21875 C 7.46875 -8.65625 7.929688 -7.378906 8.859375 -6.390625 C 9.785156 -5.398438 10.957031 -4.90625 12.375 -4.90625 C 13.8125 -4.90625 15 -5.40625 15.9375 -6.40625 C 16.875 -7.40625 17.34375 -8.675781 17.34375 -10.21875 C 17.34375 -11.769531 16.875 -13.039062 15.9375 -14.03125 C 15 -15.019531 13.8125 -15.515625 12.375 -15.515625 C 10.957031 -15.515625 9.785156 -15.019531 8.859375 -14.03125 C 7.929688 -13.039062 7.46875 -11.769531 7.46875 -10.21875 Z M 7.46875 -10.21875 "/></g></g><g style="fill:rgb(2.749634%,47.059631%,78.039551%);fill-opacity:1;"><g transform="translate(127.779874, 121.676366)"><path style="stroke:none;" d="M 2.4375 -6.796875 L 2.4375 -20.421875 L 8.421875 -20.421875 L 8.421875 -8.671875 C 8.421875 -7.585938 8.71875 -6.710938 9.3125 -6.046875 C 9.90625 -5.390625 10.710938 -5.0625 11.734375 -5.0625 C 12.765625 -5.0625 13.601562 -5.4375 14.25 -6.1875 C 14.894531 -6.9375 15.21875 -7.863281 15.21875 -8.96875 L 15.21875 -20.421875 L 21.203125 -20.421875 L 21.203125 0 L 15.515625 0 L 15.515625 -2.25 L 15.21875 -2.25 C 14.789062 -1.488281 14.09375 -0.835938 13.125 -0.296875 C 12.15625 0.242188 11.03125 0.515625 9.75 0.515625 C 7.519531 0.515625 5.742188 -0.164062 4.421875 -1.53125 C 3.097656 -2.894531 2.4375 -4.648438 2.4375 -6.796875 Z M 2.4375 -6.796875 "/></g><g transform="translate(151.142055, 121.676366)"><path style="stroke:none;" d="M 2.546875 0 L 2.546875 -20.421875 L 8.203125 -20.421875 L 8.203125 -18.203125 L 8.515625 -18.203125 C 8.960938 -18.972656 9.664062 -19.617188 10.625 -20.140625 C 11.59375 -20.671875 12.71875 -20.9375 14 -20.9375 C 16.226562 -20.9375 18.003906 -20.253906 19.328125 -18.890625 C 20.648438 -17.535156 21.3125 -15.78125 21.3125 -13.625 L 21.3125 0 L 15.328125 0 L 15.328125 -11.78125 C 15.328125 -12.84375 15.03125 -13.703125 14.4375 -14.359375 C 13.84375 -15.023438 13.039062 -15.359375 12.03125 -15.359375 C 11 -15.359375 10.160156 -14.984375 9.515625 -14.234375 C 8.878906 -13.484375 8.5625 -12.554688 8.5625 -11.453125 L 8.5625 0 Z M 2.546875 0 "/></g></g><g style="fill:rgb(2.749634%,47.059631%,78.039551%);fill-opacity:1;"><g transform="translate(38.326655, 165.916538)"><path style="stroke:none;" d="M 1.40625 -10.21875 C 1.40625 -12.226562 1.84375 -14.039062 2.71875 -15.65625 C 3.59375 -17.269531 4.851562 -18.550781 6.5 -19.5 C 8.144531 -20.457031 10.039062 -20.9375 12.1875 -20.9375 C 15.007812 -20.9375 17.363281 -20.15625 19.25 -18.59375 C 21.144531 -17.039062 22.238281 -15.015625 22.53125 -12.515625 L 16.4375 -12.515625 C 16.164062 -13.410156 15.65625 -14.132812 14.90625 -14.6875 C 14.15625 -15.238281 13.265625 -15.515625 12.234375 -15.515625 C 10.796875 -15.515625 9.640625 -15.007812 8.765625 -14 C 7.898438 -12.988281 7.46875 -11.726562 7.46875 -10.21875 C 7.46875 -8.695312 7.90625 -7.429688 8.78125 -6.421875 C 9.664062 -5.410156 10.828125 -4.90625 12.265625 -4.90625 C 13.242188 -4.90625 14.101562 -5.164062 14.84375 -5.6875 C 15.59375 -6.207031 16.097656 -6.878906 16.359375 -7.703125 L 22.484375 -7.703125 C 22.148438 -5.265625 21.050781 -3.285156 19.1875 -1.765625 C 17.332031 -0.242188 15.015625 0.515625 12.234375 0.515625 C 10.085938 0.515625 8.179688 0.0351562 6.515625 -0.921875 C 4.859375 -1.878906 3.59375 -3.171875 2.71875 -4.796875 C 1.84375 -6.421875 1.40625 -8.226562 1.40625 -10.21875 Z M 1.40625 -10.21875 "/></g><g transform="translate(62.27478, 165.916538)"><path style="stroke:none;" d="M 2.4375 -6.796875 L 2.4375 -20.421875 L 8.421875 -20.421875 L 8.421875 -8.671875 C 8.421875 -7.585938 8.71875 -6.710938 9.3125 -6.046875 C 9.90625 -5.390625 10.710938 -5.0625 11.734375 -5.0625 C 12.765625 -5.0625 13.601562 -5.4375 14.25 -6.1875 C 14.894531 -6.9375 15.21875 -7.863281 15.21875 -8.96875 L 15.21875 -20.421875 L 21.203125 -20.421875 L 21.203125 0 L 15.515625 0 L 15.515625 -2.25 L 15.21875 -2.25 C 14.789062 -1.488281 14.09375 -0.835938 13.125 -0.296875 C 12.15625 0.242188 11.03125 0.515625 9.75 0.515625 C 7.519531 0.515625 5.742188 -0.164062 4.421875 -1.53125 C 3.097656 -2.894531 2.4375 -4.648438 2.4375 -6.796875 Z M 2.4375 -6.796875 "/></g><g transform="translate(85.636961, 165.916538)"><path style="stroke:none;" d="M 1.40625 -10.109375 C 1.40625 -13.304688 2.375 -15.910156 4.3125 -17.921875 C 6.25 -19.929688 8.773438 -20.9375 11.890625 -20.9375 C 13.523438 -20.9375 15 -20.648438 16.3125 -20.078125 C 17.632812 -19.503906 18.707031 -18.722656 19.53125 -17.734375 C 20.363281 -16.753906 21.003906 -15.628906 21.453125 -14.359375 C 21.898438 -13.085938 22.125 -11.734375 22.125 -10.296875 L 22.125 -8.5625 L 7.09375 -8.5625 C 7.1875 -7.25 7.675781 -6.175781 8.5625 -5.34375 C 9.457031 -4.507812 10.601562 -4.09375 12 -4.09375 C 13.125 -4.09375 14.078125 -4.328125 14.859375 -4.796875 C 15.648438 -5.265625 16.203125 -5.84375 16.515625 -6.53125 L 21.9375 -6.53125 C 21.46875 -4.363281 20.335938 -2.644531 18.546875 -1.375 C 16.765625 -0.113281 14.507812 0.515625 11.78125 0.515625 C 9.820312 0.515625 8.050781 0.0625 6.46875 -0.84375 C 4.882812 -1.757812 3.644531 -3.03125 2.75 -4.65625 C 1.851562 -6.28125 1.40625 -8.097656 1.40625 -10.109375 Z M 7.203125 -12.546875 L 16.578125 -12.546875 C 16.460938 -13.660156 15.976562 -14.570312 15.125 -15.28125 C 14.28125 -16 13.203125 -16.359375 11.890625 -16.359375 C 10.648438 -16.359375 9.59375 -15.984375 8.71875 -15.234375 C 7.84375 -14.484375 7.335938 -13.585938 7.203125 -12.546875 Z M 7.203125 -12.546875 "/></g><g transform="translate(109.169256, 165.916538)"><path style="stroke:none;" d="M 2.546875 0 L 2.546875 -20.421875 L 8.203125 -20.421875 L 8.203125 -18.203125 L 8.515625 -18.203125 C 8.960938 -18.972656 9.664062 -19.617188 10.625 -20.140625 C 11.59375 -20.671875 12.71875 -20.9375 14 -20.9375 C 16.226562 -20.9375 18.003906 -20.253906 19.328125 -18.890625 C 20.648438 -17.535156 21.3125 -15.78125 21.3125 -13.625 L 21.3125 0 L 15.328125 0 L 15.328125 -11.78125 C 15.328125 -12.84375 15.03125 -13.703125 14.4375 -14.359375 C 13.84375 -15.023438 13.039062 -15.359375 12.03125 -15.359375 C 11 -15.359375 10.160156 -14.984375 9.515625 -14.234375 C 8.878906 -13.484375 8.5625 -12.554688 8.5625 -11.453125 L 8.5625 0 Z M 2.546875 0 "/></g><g transform="translate(132.380225, 165.916538)"><path style="stroke:none;" d="M 1.4375 -15.765625 L 1.4375 -20.390625 L 3.359375 -20.390625 C 3.890625 -20.390625 4.300781 -20.554688 4.59375 -20.890625 C 4.882812 -21.222656 5.03125 -21.664062 5.03125 -22.21875 L 5.03125 -25.96875 L 10.71875 -25.96875 L 10.71875 -20.421875 L 16.0625 -20.421875 L 16.0625 -15.765625 L 10.71875 -15.765625 L 10.71875 -7.390625 C 10.71875 -6.617188 10.941406 -6.019531 11.390625 -5.59375 C 11.835938 -5.164062 12.492188 -4.953125 13.359375 -4.953125 L 15.984375 -4.953125 L 15.984375 0 L 11.84375 0 C 9.601562 0 7.851562 -0.617188 6.59375 -1.859375 C 5.34375 -3.097656 4.71875 -4.84375 4.71875 -7.09375 L 4.71875 -15.765625 Z M 1.4375 -15.765625 "/></g><g transform="translate(149.561635, 165.916538)"><path style="stroke:none;" d="M 1.40625 -10.21875 C 1.40625 -11.71875 1.671875 -13.125 2.203125 -14.4375 C 2.734375 -15.75 3.472656 -16.882812 4.421875 -17.84375 C 5.367188 -18.800781 6.53125 -19.554688 7.90625 -20.109375 C 9.289062 -20.660156 10.796875 -20.9375 12.421875 -20.9375 C 15.640625 -20.9375 18.273438 -19.910156 20.328125 -17.859375 C 22.390625 -15.816406 23.421875 -13.269531 23.421875 -10.21875 C 23.421875 -8.71875 23.148438 -7.3125 22.609375 -6 C 22.078125 -4.6875 21.332031 -3.550781 20.375 -2.59375 C 19.414062 -1.632812 18.242188 -0.875 16.859375 -0.3125 C 15.484375 0.238281 13.988281 0.515625 12.375 0.515625 C 10.25 0.515625 8.34375 0.0390625 6.65625 -0.90625 C 4.976562 -1.863281 3.679688 -3.15625 2.765625 -4.78125 C 1.859375 -6.40625 1.40625 -8.21875 1.40625 -10.21875 Z M 7.46875 -10.21875 C 7.46875 -8.65625 7.929688 -7.378906 8.859375 -6.390625 C 9.785156 -5.398438 10.957031 -4.90625 12.375 -4.90625 C 13.8125 -4.90625 15 -5.40625 15.9375 -6.40625 C 16.875 -7.40625 17.34375 -8.675781 17.34375 -10.21875 C 17.34375 -11.769531 16.875 -13.039062 15.9375 -14.03125 C 15 -15.019531 13.8125 -15.515625 12.375 -15.515625 C 10.957031 -15.515625 9.785156 -15.019531 8.859375 -14.03125 C 7.929688 -13.039062 7.46875 -11.769531 7.46875 -10.21875 Z M 7.46875 -10.21875 "/></g></g></g></svg>