<?xml version="1.0" encoding="UTF-8"?>
<svg xmlns="http://www.w3.org/2000/svg" xmlns:xlink="http://www.w3.org/1999/xlink" width="50pt" height="50pt" viewBox="0 0 50 50" version="1.1">
<defs>
<clipPath id="clip1">
  <path d="M 0 0 L 49.972656 0 L 49.972656 49.875 L 0 49.875 Z M 0 0 "/>
</clipPath>
</defs>
<g id="surface1">
<g clip-path="url(#clip1)" clip-rule="nonzero">
<path style=" stroke:none;fill-rule:nonzero;fill:rgb(100%,100%,100%);fill-opacity:1;" d="M 35.929688 50.019531 C 36.945312 50.019531 37.941406 49.621094 38.691406 48.871094 L 48.253906 39.332031 C 49.363281 38.226562 49.972656 36.753906 49.972656 35.183594 C 49.972656 33.617188 49.363281 32.144531 48.253906 31.039062 L 38.691406 21.496094 C 37.566406 20.375 35.894531 20.042969 34.425781 20.652344 C 32.960938 21.261719 32.015625 22.675781 32.015625 24.261719 L 32.015625 33.234375 C 16.515625 33.234375 3.90625 20.621094 3.90625 5.125 L 3.90625 2 C 3.90625 0.921875 3.03125 0.0507812 1.953125 0.0507812 C 0.875 0.0507812 0 0.921875 0 2 L 0 5.125 C 0 13.675781 3.332031 21.714844 9.378906 27.761719 C 15.425781 33.808594 23.464844 37.136719 32.015625 37.136719 C 34.167969 37.136719 35.917969 35.386719 35.917969 33.234375 L 35.917969 24.261719 C 35.921875 24.257812 35.925781 24.257812 35.929688 24.253906 C 35.929688 24.257812 35.933594 24.257812 35.933594 24.261719 L 45.496094 33.800781 C 45.863281 34.171875 46.070312 34.660156 46.070312 35.183594 C 46.070312 35.707031 45.863281 36.199219 45.496094 36.570312 L 35.933594 46.109375 L 35.929688 46.113281 C 35.925781 46.113281 35.921875 46.113281 35.917969 46.109375 L 35.917969 43.96875 C 35.917969 42.890625 35.042969 42.015625 33.964844 42.015625 C 32.890625 42.015625 32.015625 42.890625 32.015625 43.96875 L 32.015625 46.109375 C 32.015625 47.691406 32.960938 49.109375 34.425781 49.71875 C 34.914062 49.917969 35.425781 50.019531 35.929688 50.019531 Z M 35.929688 50.019531 "/>
</g>
</g>
</svg>
