<?xml version="1.0" encoding="UTF-8"?>
<svg xmlns="http://www.w3.org/2000/svg" xmlns:xlink="http://www.w3.org/1999/xlink" width="135px" height="px" viewBox="0 0 135 135" version="1.1">
<defs>
<clipPath id="clip1">
  <path d="M 40.863281 35.570312 L 94.023438 35.570312 L 94.023438 98.714844 L 40.863281 98.714844 Z M 40.863281 35.570312 "/>
</clipPath>
</defs>
<g id="surface1">
<path style=" stroke:none;fill-rule:nonzero;fill:rgb(53.72549%,77.254902%,66.27451%);fill-opacity:1;" d="M 67.425781 0 C 66.328125 0 65.230469 0.0273438 64.136719 0.0820312 C 63.039062 0.136719 61.945312 0.214844 60.855469 0.324219 C 59.761719 0.429688 58.671875 0.566406 57.585938 0.726562 C 56.5 0.886719 55.421875 1.074219 54.34375 1.289062 C 53.265625 1.503906 52.199219 1.742188 51.132812 2.011719 C 50.066406 2.277344 49.011719 2.570312 47.960938 2.886719 C 46.910156 3.207031 45.867188 3.550781 44.835938 3.921875 C 43.800781 4.289062 42.777344 4.683594 41.765625 5.105469 C 40.75 5.523438 39.746094 5.96875 38.753906 6.4375 C 37.761719 6.90625 36.785156 7.402344 35.816406 7.917969 C 34.847656 8.4375 33.890625 8.976562 32.949219 9.539062 C 32.011719 10.105469 31.082031 10.691406 30.171875 11.300781 C 29.257812 11.910156 28.359375 12.542969 27.480469 13.195312 C 26.597656 13.851562 25.734375 14.527344 24.882812 15.222656 C 24.035156 15.917969 23.203125 16.632812 22.390625 17.371094 C 21.578125 18.109375 20.785156 18.863281 20.007812 19.640625 C 19.234375 20.417969 18.476562 21.210938 17.738281 22.027344 C 17.003906 22.839844 16.285156 23.667969 15.589844 24.515625 C 14.894531 25.363281 14.21875 26.230469 13.566406 27.113281 C 12.910156 27.992188 12.277344 28.890625 11.667969 29.804688 C 11.058594 30.714844 10.472656 31.640625 9.90625 32.582031 C 9.34375 33.527344 8.800781 34.480469 8.285156 35.449219 C 7.769531 36.414062 7.273438 37.394531 6.804688 38.386719 C 6.335938 39.378906 5.890625 40.382812 5.472656 41.394531 C 5.050781 42.410156 4.65625 43.433594 4.285156 44.46875 C 3.917969 45.5 3.574219 46.542969 3.253906 47.59375 C 2.9375 48.644531 2.644531 49.699219 2.375 50.765625 C 2.109375 51.828125 1.871094 52.898438 1.65625 53.976562 C 1.441406 55.054688 1.253906 56.132812 1.09375 57.21875 C 0.933594 58.304688 0.796875 59.394531 0.691406 60.484375 C 0.582031 61.578125 0.5 62.671875 0.449219 63.769531 C 0.394531 64.867188 0.367188 65.960938 0.367188 67.058594 C 0.367188 68.15625 0.394531 69.253906 0.449219 70.347656 C 0.5 71.445312 0.582031 72.539062 0.691406 73.632812 C 0.796875 74.726562 0.933594 75.8125 1.09375 76.898438 C 1.253906 77.984375 1.441406 79.066406 1.65625 80.140625 C 1.871094 81.21875 2.109375 82.289062 2.375 83.351562 C 2.644531 84.417969 2.9375 85.476562 3.253906 86.527344 C 3.574219 87.574219 3.917969 88.617188 4.285156 89.652344 C 4.65625 90.683594 5.050781 91.707031 5.472656 92.722656 C 5.890625 93.734375 6.335938 94.738281 6.804688 95.730469 C 7.273438 96.722656 7.769531 97.703125 8.285156 98.671875 C 8.800781 99.640625 9.34375 100.59375 9.90625 101.535156 C 10.472656 102.476562 11.058594 103.402344 11.667969 104.316406 C 12.277344 105.226562 12.910156 106.125 13.566406 107.007812 C 14.21875 107.886719 14.894531 108.753906 15.589844 109.601562 C 16.285156 110.449219 17.003906 111.28125 17.738281 112.09375 C 18.476562 112.90625 19.234375 113.699219 20.007812 114.476562 C 20.785156 115.253906 21.578125 116.011719 22.390625 116.746094 C 23.203125 117.484375 24.035156 118.199219 24.882812 118.898438 C 25.734375 119.59375 26.597656 120.265625 27.480469 120.921875 C 28.359375 121.574219 29.257812 122.207031 30.171875 122.816406 C 31.082031 123.425781 32.011719 124.011719 32.949219 124.578125 C 33.890625 125.140625 34.847656 125.683594 35.816406 126.199219 C 36.785156 126.71875 37.761719 127.210938 38.753906 127.679688 C 39.746094 128.148438 40.75 128.59375 41.765625 129.015625 C 42.777344 129.433594 43.800781 129.828125 44.835938 130.199219 C 45.867188 130.566406 46.910156 130.914062 47.960938 131.230469 C 49.011719 131.550781 50.066406 131.839844 51.132812 132.109375 C 52.199219 132.375 53.265625 132.617188 54.34375 132.828125 C 55.421875 133.042969 56.5 133.230469 57.585938 133.394531 C 58.671875 133.554688 59.761719 133.6875 60.855469 133.796875 C 61.945312 133.902344 63.039062 133.984375 64.136719 134.039062 C 65.230469 134.089844 66.328125 134.117188 67.425781 134.117188 C 68.523438 134.117188 69.621094 134.089844 70.714844 134.039062 C 71.8125 133.984375 72.90625 133.902344 74 133.796875 C 75.089844 133.6875 76.179688 133.554688 77.265625 133.394531 C 78.351562 133.230469 79.433594 133.042969 80.507812 132.828125 C 81.585938 132.617188 82.65625 132.375 83.71875 132.109375 C 84.785156 131.839844 85.84375 131.550781 86.890625 131.230469 C 87.945312 130.914062 88.984375 130.566406 90.019531 130.199219 C 91.050781 129.828125 92.074219 129.433594 93.089844 129.015625 C 94.101562 128.59375 95.105469 128.148438 96.097656 127.679688 C 97.089844 127.210938 98.070312 126.71875 99.039062 126.199219 C 100.003906 125.683594 100.960938 125.140625 101.902344 124.578125 C 102.84375 124.011719 103.769531 123.425781 104.683594 122.816406 C 105.59375 122.207031 106.492188 121.574219 107.375 120.921875 C 108.253906 120.265625 109.121094 119.59375 109.96875 118.898438 C 110.816406 118.199219 111.648438 117.484375 112.460938 116.746094 C 113.273438 116.011719 114.070312 115.253906 114.84375 114.476562 C 115.621094 113.699219 116.375 112.90625 117.113281 112.09375 C 117.851562 111.28125 118.566406 110.449219 119.265625 109.601562 C 119.960938 108.753906 120.636719 107.886719 121.289062 107.007812 C 121.941406 106.125 122.574219 105.226562 123.183594 104.316406 C 123.792969 103.402344 124.382812 102.476562 124.945312 101.535156 C 125.511719 100.59375 126.050781 99.640625 126.566406 98.671875 C 127.085938 97.703125 127.578125 96.722656 128.046875 95.730469 C 128.515625 94.738281 128.960938 93.734375 129.378906 92.722656 C 129.800781 91.707031 130.195312 90.683594 130.566406 89.652344 C 130.933594 88.617188 131.28125 87.574219 131.597656 86.527344 C 131.917969 85.476562 132.210938 84.417969 132.476562 83.351562 C 132.742188 82.289062 132.984375 81.21875 133.195312 80.140625 C 133.410156 79.066406 133.597656 77.984375 133.761719 76.898438 C 133.921875 75.8125 134.054688 74.726562 134.160156 73.632812 C 134.269531 72.539062 134.351562 71.445312 134.40625 70.347656 C 134.457031 69.253906 134.484375 68.15625 134.484375 67.058594 C 134.484375 65.960938 134.457031 64.867188 134.40625 63.769531 C 134.351562 62.671875 134.269531 61.578125 134.160156 60.484375 C 134.054688 59.394531 133.921875 58.304688 133.761719 57.21875 C 133.597656 56.132812 133.410156 55.054688 133.195312 53.976562 C 132.984375 52.898438 132.742188 51.828125 132.476562 50.765625 C 132.210938 49.699219 131.917969 48.644531 131.597656 47.59375 C 131.28125 46.542969 130.933594 45.5 130.566406 44.46875 C 130.195312 43.433594 129.800781 42.410156 129.378906 41.394531 C 128.960938 40.382812 128.515625 39.378906 128.046875 38.386719 C 127.578125 37.394531 127.085938 36.414062 126.566406 35.449219 C 126.050781 34.480469 125.511719 33.527344 124.945312 32.582031 C 124.382812 31.640625 123.792969 30.714844 123.183594 29.804688 C 122.574219 28.890625 121.941406 27.992188 121.289062 27.113281 C 120.636719 26.230469 119.960938 25.363281 119.265625 24.515625 C 118.566406 23.667969 117.851562 22.839844 117.113281 22.027344 C 116.375 21.210938 115.621094 20.417969 114.84375 19.640625 C 114.070312 18.863281 113.273438 18.109375 112.460938 17.371094 C 111.648438 16.632812 110.816406 15.917969 109.96875 15.222656 C 109.121094 14.527344 108.253906 13.851562 107.375 13.195312 C 106.492188 12.542969 105.59375 11.910156 104.683594 11.300781 C 103.769531 10.691406 102.84375 10.105469 101.902344 9.539062 C 100.960938 8.976562 100.003906 8.4375 99.039062 7.917969 C 98.070312 7.402344 97.089844 6.90625 96.097656 6.4375 C 95.105469 5.96875 94.101562 5.523438 93.089844 5.105469 C 92.074219 4.683594 91.050781 4.289062 90.019531 3.921875 C 88.984375 3.550781 87.945312 3.207031 86.890625 2.886719 C 85.84375 2.570312 84.785156 2.277344 83.71875 2.011719 C 82.65625 1.742188 81.585938 1.503906 80.507812 1.289062 C 79.433594 1.074219 78.351562 0.886719 77.265625 0.726562 C 76.179688 0.566406 75.089844 0.429688 74 0.324219 C 72.90625 0.214844 71.8125 0.136719 70.714844 0.0820312 C 69.621094 0.0273438 68.523438 0 67.425781 0 Z M 67.425781 0 "/>
<g clip-path="url(#clip1)" clip-rule="nonzero">
<path style=" stroke:none;fill-rule:nonzero;fill:rgb(45.098039%,45.098039%,45.098039%);fill-opacity:1;" d="M 51.941406 98.714844 L 83.148438 98.714844 C 89.199219 98.714844 94.023438 93.785156 94.023438 87.714844 L 94.023438 69.265625 C 94.023438 64.085938 90.578125 59.742188 85.65625 58.558594 L 85.65625 53.824219 C 85.65625 43.761719 77.484375 35.570312 67.445312 35.570312 C 57.402344 35.570312 49.230469 43.761719 49.230469 53.824219 L 49.230469 58.558594 C 44.308594 59.742188 40.863281 64.085938 40.863281 69.265625 L 40.863281 87.714844 C 40.863281 93.785156 45.886719 98.714844 51.941406 98.714844 Z M 71.875 75.480469 C 71.875 75.679688 71.875 75.875 71.824219 76.074219 L 71.875 76.121094 C 71.675781 77.601562 70.398438 78.835938 69.414062 79.476562 L 69.414062 86.285156 C 69.414062 86.582031 69.117188 86.875 68.824219 86.875 L 66.214844 86.875 C 65.917969 86.875 65.96875 86.582031 65.96875 86.285156 L 65.96875 79.476562 C 64 78.785156 63.210938 77.257812 63.210938 75.480469 C 63.210938 73.0625 65.132812 71.089844 67.542969 71.089844 C 68.132812 71.089844 68.726562 71.238281 69.265625 71.4375 C 69.414062 71.484375 69.5625 71.582031 69.707031 71.632812 C 69.757812 71.632812 69.757812 71.683594 69.808594 71.683594 L 69.855469 71.683594 C 70.695312 72.175781 71.332031 72.964844 71.675781 73.902344 C 71.675781 73.902344 71.675781 73.953125 71.726562 73.953125 C 71.726562 74 71.777344 74.050781 71.777344 74.097656 C 71.777344 74.148438 71.824219 74.25 71.824219 74.296875 C 71.824219 74.347656 71.824219 74.394531 71.875 74.445312 C 71.875 74.542969 71.921875 74.59375 71.921875 74.691406 C 71.921875 74.789062 71.972656 74.839844 71.972656 74.9375 C 71.972656 75.085938 71.972656 75.183594 72.023438 75.332031 C 71.875 75.433594 71.875 75.433594 71.875 75.480469 Z M 52.679688 53.921875 C 52.679688 45.78125 59.324219 39.121094 67.445312 39.121094 C 75.566406 39.121094 82.210938 45.78125 82.210938 53.921875 L 82.210938 58.261719 L 52.679688 58.261719 Z M 52.679688 53.921875 "/>
</g>
</g>
</svg>
