<?xml version="1.0" encoding="UTF-8"?><svg xmlns="http://www.w3.org/2000/svg" xmlns:xlink="http://www.w3.org/1999/xlink" width="271.5pt" zoomAndPan="magnify" viewBox="0 0 271.5 138.750001" height="138.750001pt" preserveAspectRatio="xMidYMid meet" version="1.2"><defs><clipPath xml:id="clip1" id="clip1"><path d="M 45 119 L 61 119 L 61 138.496094 L 45 138.496094 Z M 45 119 "/></clipPath><clipPath xml:id="clip2" id="clip2"><path d="M 201 56 L 271 56 L 271 121 L 201 121 Z M 201 56 "/></clipPath><clipPath xml:id="clip3" id="clip3"><path d="M 212 119 L 227 119 L 227 138.496094 L 212 138.496094 Z M 212 119 "/></clipPath><clipPath xml:id="clip4" id="clip4"><path d="M 242 119 L 258 119 L 258 138.496094 L 242 138.496094 Z M 242 119 "/></clipPath><clipPath xml:id="clip5" id="clip5"><path d="M 91 1.375 L 198 1.375 L 198 108 L 91 108 Z M 91 1.375 "/></clipPath><clipPath xml:id="clip6" id="clip6"><path d="M 109 107 L 137 107 L 137 138.496094 L 109 138.496094 Z M 109 107 "/></clipPath><clipPath xml:id="clip7" id="clip7"><path d="M 152 107 L 175 107 L 175 138.496094 L 152 138.496094 Z M 152 107 "/></clipPath></defs><g xml:id="surface1" id="surface1"><path style=" stroke:none;fill-rule:nonzero;fill:rgb(100%,41.178894%,23.139954%);fill-opacity:1;" d="M 18.726562 84.53125 L 91.558594 59.265625 L 91.558594 51.136719 L 16.488281 77.175781 C 16.089844 77.3125 15.722656 77.507812 15.386719 77.761719 C 15.050781 78.011719 14.757812 78.308594 14.511719 78.652344 C 14.269531 78.996094 14.082031 79.367188 13.953125 79.769531 C 13.824219 80.171875 13.761719 80.582031 13.761719 81.003906 C 13.761719 81.300781 13.796875 81.59375 13.867188 81.882812 C 13.9375 82.171875 14.039062 82.449219 14.175781 82.714844 C 14.3125 82.980469 14.480469 83.226562 14.675781 83.449219 C 14.871094 83.675781 15.089844 83.875 15.332031 84.046875 C 15.574219 84.21875 15.835938 84.363281 16.113281 84.472656 C 16.390625 84.582031 16.675781 84.660156 16.96875 84.703125 C 17.265625 84.742188 17.5625 84.75 17.859375 84.722656 C 18.15625 84.691406 18.445312 84.628906 18.726562 84.53125 Z M 18.726562 84.53125 "/><path style=" stroke:none;fill-rule:nonzero;fill:rgb(100%,41.178894%,23.139954%);fill-opacity:1;" d="M 261.066406 94.296875 L 194.746094 64.796875 L 194.746094 56.664062 L 263.3125 86.941406 C 264.9375 87.507812 262.453125 87.460938 262.453125 89.1875 L 266.035156 90.769531 C 266.035156 91.066406 266 91.363281 265.929688 91.652344 C 265.859375 91.941406 265.757812 92.21875 265.621094 92.484375 C 265.484375 92.75 265.316406 92.992188 265.121094 93.21875 C 264.925781 93.445312 264.707031 93.644531 264.464844 93.816406 C 264.222656 93.988281 263.960938 94.128906 263.683594 94.242188 C 263.40625 94.351562 263.121094 94.425781 262.824219 94.46875 C 262.53125 94.511719 262.234375 94.519531 261.9375 94.488281 C 261.640625 94.460938 261.351562 94.398438 261.066406 94.296875 Z M 261.066406 94.296875 "/><path style=" stroke:none;fill-rule:nonzero;fill:rgb(99.21875%,38.42926%,14.898682%);fill-opacity:1;" d="M 91.398438 75.4375 C 91.398438 76.933594 91.324219 78.425781 91.175781 79.914062 C 91.03125 81.402344 90.8125 82.878906 90.519531 84.34375 C 90.226562 85.8125 89.863281 87.257812 89.429688 88.691406 C 88.996094 90.121094 88.492188 91.527344 87.917969 92.910156 C 87.347656 94.289062 86.707031 95.640625 86 96.957031 C 85.296875 98.277344 84.527344 99.558594 83.695312 100.800781 C 82.863281 102.046875 81.976562 103.246094 81.023438 104.398438 C 80.074219 105.554688 79.070312 106.664062 78.015625 107.71875 C 76.957031 108.777344 75.847656 109.78125 74.691406 110.730469 C 73.535156 111.675781 72.335938 112.566406 71.089844 113.398438 C 69.84375 114.226562 68.5625 114.996094 67.242188 115.699219 C 65.925781 116.40625 64.574219 117.042969 63.191406 117.617188 C 61.808594 118.1875 60.398438 118.691406 58.96875 119.125 C 57.535156 119.558594 56.085938 119.921875 54.617188 120.214844 C 53.152344 120.507812 51.671875 120.726562 50.183594 120.871094 C 48.695312 121.019531 47.199219 121.089844 45.703125 121.089844 C 44.207031 121.089844 42.714844 121.019531 41.226562 120.871094 C 39.738281 120.726562 38.257812 120.507812 36.789062 120.214844 C 35.324219 119.921875 33.871094 119.558594 32.441406 119.125 C 31.007812 118.691406 29.601562 118.1875 28.21875 117.617188 C 26.835938 117.042969 25.484375 116.40625 24.164062 115.699219 C 22.84375 114.996094 21.5625 114.226562 20.320312 113.398438 C 19.074219 112.566406 17.875 111.675781 16.71875 110.730469 C 15.5625 109.78125 14.453125 108.777344 13.394531 107.71875 C 12.335938 106.664062 11.332031 105.554688 10.382812 104.398438 C 9.433594 103.246094 8.542969 102.046875 7.710938 100.800781 C 6.882812 99.558594 6.113281 98.277344 5.40625 96.957031 C 4.703125 95.640625 4.0625 94.289062 3.488281 92.910156 C 2.917969 91.527344 2.414062 90.121094 1.980469 88.691406 C 1.546875 87.257812 1.183594 85.8125 0.890625 84.34375 C 0.597656 82.878906 0.378906 81.402344 0.230469 79.914062 C 0.0859375 78.425781 0.0117188 76.933594 0.0117188 75.4375 C 0.0117188 73.941406 0.0859375 72.453125 0.230469 70.964844 C 0.378906 69.476562 0.597656 67.996094 0.890625 66.53125 C 1.183594 65.066406 1.546875 63.617188 1.980469 62.183594 C 2.414062 60.753906 2.917969 59.347656 3.488281 57.96875 C 4.0625 56.585938 4.703125 55.234375 5.40625 53.917969 C 6.113281 52.597656 6.882812 51.316406 7.710938 50.074219 C 8.542969 48.832031 9.433594 47.632812 10.382812 46.476562 C 11.332031 45.320312 12.335938 44.214844 13.394531 43.15625 C 14.453125 42.097656 15.5625 41.097656 16.71875 40.148438 C 17.875 39.199219 19.074219 38.308594 20.320312 37.476562 C 21.5625 36.648438 22.84375 35.878906 24.164062 35.175781 C 25.484375 34.46875 26.835938 33.832031 28.21875 33.257812 C 29.601562 32.6875 31.007812 32.183594 32.441406 31.75 C 33.871094 31.316406 35.324219 30.953125 36.789062 30.660156 C 38.257812 30.371094 39.738281 30.152344 41.226562 30.003906 C 42.714844 29.859375 44.207031 29.785156 45.703125 29.785156 C 47.199219 29.785156 48.695312 29.859375 50.183594 30.003906 C 51.671875 30.152344 53.152344 30.371094 54.617188 30.660156 C 56.085938 30.953125 57.535156 31.316406 58.96875 31.75 C 60.398438 32.183594 61.808594 32.6875 63.191406 33.257812 C 64.574219 33.832031 65.925781 34.46875 67.242188 35.175781 C 68.5625 35.878906 69.84375 36.648438 71.089844 37.476562 C 72.335938 38.308594 73.535156 39.199219 74.691406 40.148438 C 75.847656 41.097656 76.957031 42.097656 78.015625 43.15625 C 79.070312 44.214844 80.074219 45.320312 81.023438 46.476562 C 81.976562 47.632812 82.863281 48.832031 83.695312 50.074219 C 84.527344 51.316406 85.296875 52.597656 86 53.917969 C 86.707031 55.234375 87.347656 56.585938 87.917969 57.96875 C 88.492188 59.347656 88.996094 60.753906 89.429688 62.183594 C 89.863281 63.617188 90.226562 65.066406 90.519531 66.53125 C 90.8125 67.996094 91.03125 69.476562 91.175781 70.964844 C 91.324219 72.453125 91.398438 73.941406 91.398438 75.4375 Z M 91.398438 75.4375 "/><path style=" stroke:none;fill-rule:nonzero;fill:rgb(100%,56.079102%,61.569214%);fill-opacity:1;" d="M 22.503906 112.699219 L 16.769531 129.492188 L 6.898438 130.699219 L 22.300781 136.007812 L 28.617188 117.730469 Z M 22.503906 112.699219 "/><g clip-rule="nonzero" clip-path="url(#clip1)"><path style=" stroke:none;fill-rule:nonzero;fill:rgb(99.609375%,78.039551%,28.62854%);fill-opacity:1;" d="M 55.097656 119.121094 L 52.519531 136.675781 L 60.636719 138.300781 L 45.011719 138.300781 L 47.382812 121.09375 Z M 55.097656 119.121094 "/></g><path style="fill:none;stroke-width:5;stroke-linecap:round;stroke-linejoin:miter;stroke:rgb(0%,0%,0%);stroke-opacity:1;stroke-miterlimit:10;" d="M 134.889686 177.214365 C 133.689663 185.393499 125.085499 190.894297 115.665319 189.513092 C 106.257139 188.131887 99.585012 180.385131 100.785035 172.205997 " transform="matrix(0.325515,0,0,0.325237,0.00549832,1.375065)"/><path style="fill:none;stroke-width:5;stroke-linecap:round;stroke-linejoin:miter;stroke:rgb(0%,0%,0%);stroke-opacity:1;stroke-miterlimit:10;" d="M 194.602827 185.994023 C 193.402804 194.185167 184.79864 199.685965 175.37846 198.30476 C 165.95828 196.923555 159.298152 189.140767 160.498175 180.997665 " transform="matrix(0.325515,0,0,0.325237,0.00549832,1.375065)"/><path style="fill:none;stroke-width:5;stroke-linecap:round;stroke-linejoin:miter;stroke:rgb(0%,0%,0%);stroke-opacity:1;stroke-miterlimit:10;" d="M 159.094149 209.354397 C 157.894126 217.521521 151.173997 223.346601 144.093862 222.265658 C 137.001727 221.184716 132.237636 213.762242 133.437658 205.595118 " transform="matrix(0.325515,0,0,0.325237,0.00549832,1.375065)"/><path style=" stroke:none;fill-rule:nonzero;fill:rgb(100%,56.079102%,61.569214%);fill-opacity:1;" d="M 74.308594 72.855469 C 74.835938 72.933594 75.355469 73.042969 75.867188 73.179688 C 76.375 73.316406 76.867188 73.484375 77.339844 73.675781 C 77.808594 73.867188 78.253906 74.085938 78.667969 74.324219 C 79.082031 74.566406 79.457031 74.824219 79.800781 75.105469 C 80.140625 75.382812 80.441406 75.675781 80.695312 75.980469 C 80.949219 76.289062 81.160156 76.601562 81.316406 76.925781 C 81.476562 77.246094 81.585938 77.570312 81.644531 77.894531 C 81.703125 78.222656 81.707031 78.542969 81.660156 78.859375 C 81.613281 79.175781 81.515625 79.480469 81.367188 79.777344 C 81.21875 80.070312 81.019531 80.351562 80.777344 80.613281 C 80.53125 80.875 80.242188 81.117188 79.910156 81.335938 C 79.574219 81.558594 79.207031 81.753906 78.796875 81.921875 C 78.390625 82.089844 77.953125 82.230469 77.488281 82.339844 C 77.023438 82.453125 76.535156 82.53125 76.03125 82.582031 C 75.523438 82.632812 75.003906 82.648438 74.476562 82.636719 C 73.949219 82.621094 73.421875 82.574219 72.890625 82.496094 C 72.363281 82.417969 71.84375 82.3125 71.332031 82.171875 C 70.820312 82.035156 70.332031 81.871094 69.859375 81.675781 C 69.390625 81.484375 68.945312 81.269531 68.53125 81.027344 C 68.117188 80.789062 67.738281 80.527344 67.398438 80.25 C 67.058594 79.96875 66.757812 79.679688 66.503906 79.371094 C 66.246094 79.066406 66.039062 78.75 65.878906 78.429688 C 65.722656 78.105469 65.613281 77.78125 65.554688 77.457031 C 65.496094 77.132812 65.492188 76.8125 65.539062 76.496094 C 65.585938 76.175781 65.683594 75.871094 65.832031 75.578125 C 65.980469 75.28125 66.175781 75.003906 66.421875 74.738281 C 66.667969 74.476562 66.957031 74.234375 67.289062 74.015625 C 67.621094 73.796875 67.992188 73.601562 68.398438 73.433594 C 68.808594 73.261719 69.242188 73.121094 69.710938 73.011719 C 70.175781 72.898438 70.660156 72.820312 71.167969 72.769531 C 71.675781 72.722656 72.191406 72.703125 72.722656 72.71875 C 73.25 72.730469 73.777344 72.777344 74.308594 72.855469 Z M 74.308594 72.855469 "/><path style=" stroke:none;fill-rule:nonzero;fill:rgb(99.609375%,78.039551%,28.62854%);fill-opacity:1;" d="M 20.859375 65.339844 C 21.34375 65.410156 21.816406 65.507812 22.28125 65.632812 C 22.742188 65.757812 23.191406 65.910156 23.621094 66.085938 C 24.046875 66.257812 24.449219 66.457031 24.828125 66.675781 C 25.207031 66.894531 25.550781 67.128906 25.859375 67.382812 C 26.171875 67.636719 26.441406 67.902344 26.675781 68.183594 C 26.90625 68.460938 27.097656 68.746094 27.242188 69.039062 C 27.386719 69.332031 27.484375 69.628906 27.539062 69.925781 C 27.589844 70.21875 27.59375 70.511719 27.554688 70.800781 C 27.511719 71.089844 27.421875 71.367188 27.285156 71.636719 C 27.152344 71.902344 26.972656 72.15625 26.746094 72.398438 C 26.523438 72.636719 26.261719 72.855469 25.957031 73.054688 C 25.65625 73.257812 25.320312 73.433594 24.949219 73.585938 C 24.578125 73.742188 24.179688 73.867188 23.757812 73.96875 C 23.332031 74.070312 22.890625 74.144531 22.429688 74.1875 C 21.96875 74.234375 21.496094 74.25 21.015625 74.234375 C 20.535156 74.222656 20.054688 74.179688 19.570312 74.109375 C 19.089844 74.039062 18.617188 73.941406 18.152344 73.816406 C 17.6875 73.691406 17.242188 73.539062 16.8125 73.363281 C 16.382812 73.191406 15.980469 72.992188 15.605469 72.773438 C 15.226562 72.554688 14.882812 72.320312 14.574219 72.066406 C 14.261719 71.8125 13.992188 71.546875 13.757812 71.265625 C 13.527344 70.988281 13.335938 70.703125 13.191406 70.410156 C 13.046875 70.117188 12.949219 69.820312 12.894531 69.523438 C 12.84375 69.230469 12.835938 68.9375 12.878906 68.648438 C 12.921875 68.359375 13.011719 68.082031 13.148438 67.8125 C 13.28125 67.546875 13.460938 67.292969 13.683594 67.050781 C 13.910156 66.8125 14.171875 66.59375 14.472656 66.394531 C 14.777344 66.191406 15.113281 66.015625 15.484375 65.863281 C 15.855469 65.707031 16.253906 65.582031 16.675781 65.480469 C 17.101562 65.378906 17.542969 65.304688 18.003906 65.261719 C 18.464844 65.214844 18.9375 65.199219 19.417969 65.214844 C 19.898438 65.226562 20.378906 65.269531 20.859375 65.339844 Z M 20.859375 65.339844 "/><g clip-rule="nonzero" clip-path="url(#clip2)"><path style=" stroke:none;fill-rule:nonzero;fill:rgb(99.609375%,78.039551%,28.62854%);fill-opacity:1;" d="M 201.453125 120.746094 L 271.496094 118.867188 L 234.761719 56.132812 Z M 201.453125 120.746094 "/></g><g clip-rule="nonzero" clip-path="url(#clip3)"><path style=" stroke:none;fill-rule:nonzero;fill:rgb(100%,56.079102%,61.569214%);fill-opacity:1;" d="M 219.488281 120.085938 L 220.0625 132.671875 L 212.652344 138.300781 L 226.648438 138.300781 L 226.648438 119.761719 Z M 219.488281 120.085938 "/></g><g clip-rule="nonzero" clip-path="url(#clip4)"><path style=" stroke:none;fill-rule:nonzero;fill:rgb(100%,41.178894%,23.139954%);fill-opacity:1;" d="M 250.410156 119.109375 L 250.085938 132.769531 L 257.570312 138.300781 L 244.152344 138.246094 L 242.925781 119.4375 Z M 250.410156 119.109375 "/></g><path style="fill:none;stroke-width:3;stroke-linecap:butt;stroke-linejoin:round;stroke:rgb(0%,0%,0%);stroke-opacity:1;stroke-miterlimit:4;" d="M 710.540684 234.456291 C 710.85269 239.885026 707.432624 244.461017 702.908538 244.737258 C 698.384452 245.025509 694.484377 240.809832 694.172371 235.393108 " transform="matrix(0.325515,0,0,0.325237,0.00549832,1.375065)"/><path style="fill:none;stroke-width:3;stroke-linecap:butt;stroke-linejoin:round;stroke:rgb(0%,0%,0%);stroke-opacity:1;stroke-miterlimit:4;" d="M 749.06142 232.270384 C 749.373426 237.687109 745.965361 242.27511 741.441274 242.551351 C 736.917188 242.827592 733.005113 238.623926 732.693107 233.195191 " transform="matrix(0.325515,0,0,0.325237,0.00549832,1.375065)"/><path style="fill:none;stroke-width:2;stroke-linecap:round;stroke-linejoin:round;stroke:rgb(0%,0%,0%);stroke-opacity:1;stroke-miterlimit:4;" d="M 742.881302 278.13839 C 744.537333 283.314905 746.505371 288.143116 742.185288 289.572362 C 737.877206 291.001609 735.093153 286.569744 733.425121 281.405239 " transform="matrix(0.325515,0,0,0.325237,0.00549832,1.375065)"/><path style=" stroke:none;fill-rule:nonzero;fill:rgb(100%,56.079102%,61.569214%);fill-opacity:1;" d="M 253.585938 81.863281 C 253.796875 82.164062 253.921875 82.511719 253.960938 82.898438 C 254 83.289062 253.949219 83.691406 253.808594 84.105469 C 253.667969 84.523438 253.449219 84.921875 253.148438 85.300781 C 252.851562 85.679688 252.496094 86.011719 252.085938 86.296875 C 251.675781 86.585938 251.242188 86.800781 250.785156 86.949219 C 250.324219 87.097656 249.875 87.164062 249.433594 87.152344 C 248.996094 87.140625 248.601562 87.050781 248.25 86.878906 C 247.894531 86.710938 247.613281 86.472656 247.402344 86.171875 C 247.191406 85.871094 247.066406 85.523438 247.03125 85.136719 C 246.992188 84.746094 247.042969 84.34375 247.183594 83.929688 C 247.324219 83.511719 247.542969 83.113281 247.839844 82.734375 C 248.140625 82.355469 248.492188 82.023438 248.902344 81.738281 C 249.3125 81.449219 249.75 81.234375 250.207031 81.085938 C 250.667969 80.9375 251.117188 80.871094 251.554688 80.882812 C 251.996094 80.894531 252.390625 80.984375 252.742188 81.15625 C 253.09375 81.324219 253.375 81.5625 253.585938 81.863281 Z M 253.585938 81.863281 "/><path style=" stroke:none;fill-rule:nonzero;fill:rgb(100%,41.178894%,23.139954%);fill-opacity:1;" d="M 220.683594 81.285156 C 221.183594 81.304688 221.660156 81.398438 222.113281 81.558594 C 222.570312 81.71875 222.96875 81.9375 223.3125 82.210938 C 223.652344 82.488281 223.910156 82.800781 224.089844 83.148438 C 224.265625 83.496094 224.34375 83.855469 224.328125 84.222656 C 224.3125 84.59375 224.203125 84.941406 223.996094 85.273438 C 223.789062 85.609375 223.503906 85.894531 223.140625 86.140625 C 222.777344 86.386719 222.359375 86.570312 221.894531 86.691406 C 221.425781 86.8125 220.941406 86.863281 220.441406 86.839844 C 219.945312 86.820312 219.464844 86.726562 219.011719 86.566406 C 218.554688 86.40625 218.15625 86.1875 217.816406 85.910156 C 217.472656 85.636719 217.214844 85.324219 217.039062 84.976562 C 216.863281 84.625 216.78125 84.269531 216.796875 83.898438 C 216.8125 83.53125 216.925781 83.179688 217.128906 82.847656 C 217.335938 82.515625 217.621094 82.226562 217.984375 81.984375 C 218.347656 81.738281 218.765625 81.554688 219.234375 81.433594 C 219.699219 81.3125 220.183594 81.261719 220.683594 81.285156 Z M 220.683594 81.285156 "/><path style="fill:none;stroke-width:3;stroke-linecap:round;stroke-linejoin:round;stroke:rgb(0%,0%,0%);stroke-opacity:1;stroke-miterlimit:4;" d="M 701.864518 276.168672 C 709.220659 280.192181 717.056808 281.753543 725.384967 280.864768 L 726.54899 280.744663 C 730.689069 280.276255 734.673145 279.171291 738.465217 277.453793 C 742.26929 275.736295 745.725356 273.490336 748.821415 270.691895 L 749.397426 270.175445 " transform="matrix(0.325515,0,0,0.325237,0.00549832,1.375065)"/><path style="fill:none;stroke-width:3;stroke-linecap:round;stroke-linejoin:round;stroke:rgb(0%,0%,0%);stroke-opacity:1;stroke-miterlimit:4;" d="M 755.241538 272.613571 C 754.32952 272.541508 753.453504 272.301299 752.637488 271.892943 C 751.821472 271.472576 751.113459 270.920094 750.513447 270.223487 C 749.913436 269.53889 749.469427 268.746198 749.181422 267.881444 C 748.893416 267.004679 748.785414 266.115904 748.845416 265.203108 " transform="matrix(0.325515,0,0,0.325237,0.00549832,1.375065)"/><g clip-rule="nonzero" clip-path="url(#clip5)"><path style=" stroke:none;fill-rule:nonzero;fill:rgb(100%,56.079102%,61.569214%);fill-opacity:1;" d="M 91.402344 1.375 L 197.835938 1.375 L 197.835938 107.71875 L 91.402344 107.71875 Z M 91.402344 1.375 "/></g><g clip-rule="nonzero" clip-path="url(#clip6)"><path style=" stroke:none;fill-rule:nonzero;fill:rgb(100%,41.178894%,23.139954%);fill-opacity:1;" d="M 122.496094 107.71875 L 122.414062 129.070312 L 109.867188 138.300781 L 132.78125 138.625 L 136.132812 107.71875 Z M 122.496094 107.71875 "/></g><g clip-rule="nonzero" clip-path="url(#clip7)"><path style=" stroke:none;fill-rule:nonzero;fill:rgb(100%,41.178894%,23.139954%);fill-opacity:1;" d="M 165.84375 107.71875 L 164.214844 128.851562 L 174.644531 138.625 L 154.023438 138.601562 L 152.816406 107.71875 Z M 165.84375 107.71875 "/></g><path style=" stroke:none;fill-rule:nonzero;fill:rgb(100%,41.178894%,23.139954%);fill-opacity:1;" d="M 122.40625 45.316406 C 122.40625 45.628906 122.347656 45.9375 122.238281 46.246094 C 122.125 46.554688 121.960938 46.851562 121.738281 47.144531 C 121.519531 47.433594 121.25 47.707031 120.929688 47.96875 C 120.613281 48.230469 120.25 48.472656 119.84375 48.691406 C 119.4375 48.914062 118.996094 49.113281 118.515625 49.285156 C 118.039062 49.460938 117.535156 49.609375 117.003906 49.730469 C 116.472656 49.847656 115.925781 49.9375 115.363281 50 C 114.800781 50.0625 114.230469 50.09375 113.65625 50.09375 C 113.082031 50.09375 112.511719 50.0625 111.949219 50 C 111.386719 49.9375 110.839844 49.847656 110.308594 49.730469 C 109.777344 49.609375 109.273438 49.460938 108.792969 49.285156 C 108.316406 49.113281 107.875 48.914062 107.46875 48.691406 C 107.0625 48.472656 106.699219 48.230469 106.378906 47.96875 C 106.0625 47.707031 105.792969 47.433594 105.570312 47.144531 C 105.351562 46.851562 105.1875 46.554688 105.074219 46.246094 C 104.960938 45.9375 104.90625 45.628906 104.90625 45.316406 C 104.90625 45 104.960938 44.691406 105.074219 44.382812 C 105.1875 44.074219 105.351562 43.777344 105.570312 43.484375 C 105.792969 43.195312 106.0625 42.921875 106.378906 42.660156 C 106.699219 42.398438 107.0625 42.15625 107.46875 41.9375 C 107.875 41.714844 108.316406 41.515625 108.792969 41.34375 C 109.273438 41.167969 109.777344 41.019531 110.308594 40.902344 C 110.839844 40.78125 111.386719 40.691406 111.949219 40.628906 C 112.511719 40.566406 113.082031 40.535156 113.65625 40.535156 C 114.230469 40.535156 114.800781 40.566406 115.363281 40.628906 C 115.925781 40.691406 116.472656 40.78125 117.003906 40.902344 C 117.535156 41.019531 118.039062 41.167969 118.515625 41.34375 C 118.996094 41.515625 119.4375 41.714844 119.84375 41.9375 C 120.25 42.15625 120.613281 42.398438 120.929688 42.660156 C 121.25 42.921875 121.519531 43.195312 121.738281 43.484375 C 121.960938 43.777344 122.125 44.074219 122.238281 44.382812 C 122.347656 44.691406 122.40625 45 122.40625 45.316406 Z M 122.40625 45.316406 "/><path style=" stroke:none;fill-rule:nonzero;fill:rgb(100%,41.178894%,23.139954%);fill-opacity:1;" d="M 182.152344 43.523438 C 182.152344 43.835938 182.097656 44.148438 181.984375 44.453125 C 181.875 44.761719 181.707031 45.0625 181.488281 45.351562 C 181.269531 45.640625 181 45.917969 180.679688 46.175781 C 180.359375 46.4375 179.996094 46.679688 179.589844 46.902344 C 179.183594 47.121094 178.742188 47.320312 178.265625 47.496094 C 177.789062 47.667969 177.28125 47.816406 176.753906 47.9375 C 176.222656 48.054688 175.675781 48.148438 175.109375 48.207031 C 174.546875 48.269531 173.976562 48.300781 173.402344 48.300781 C 172.828125 48.300781 172.261719 48.269531 171.695312 48.207031 C 171.132812 48.148438 170.585938 48.054688 170.054688 47.9375 C 169.523438 47.816406 169.019531 47.667969 168.542969 47.496094 C 168.066406 47.320312 167.625 47.121094 167.21875 46.902344 C 166.8125 46.679688 166.449219 46.4375 166.128906 46.175781 C 165.808594 45.917969 165.539062 45.640625 165.320312 45.351562 C 165.101562 45.0625 164.933594 44.761719 164.820312 44.453125 C 164.710938 44.148438 164.652344 43.835938 164.652344 43.523438 C 164.652344 43.207031 164.710938 42.898438 164.820312 42.589844 C 164.933594 42.28125 165.101562 41.984375 165.320312 41.695312 C 165.539062 41.40625 165.808594 41.128906 166.128906 40.867188 C 166.449219 40.605469 166.808594 40.367188 167.214844 40.144531 C 167.621094 39.921875 168.066406 39.722656 168.542969 39.550781 C 169.019531 39.375 169.523438 39.230469 170.054688 39.109375 C 170.585938 38.988281 171.132812 38.898438 171.695312 38.835938 C 172.261719 38.773438 172.828125 38.746094 173.402344 38.746094 C 173.976562 38.746094 174.546875 38.773438 175.109375 38.835938 C 175.675781 38.898438 176.222656 38.988281 176.753906 39.109375 C 177.28125 39.230469 177.789062 39.375 178.265625 39.550781 C 178.742188 39.722656 179.183594 39.921875 179.589844 40.144531 C 179.996094 40.367188 180.359375 40.605469 180.679688 40.867188 C 181 41.128906 181.269531 41.40625 181.488281 41.695312 C 181.707031 41.984375 181.875 42.28125 181.984375 42.589844 C 182.097656 42.898438 182.152344 43.207031 182.152344 43.523438 Z M 182.152344 43.523438 "/><path style="fill:none;stroke-width:6;stroke-linecap:butt;stroke-linejoin:miter;stroke:rgb(0%,0%,0%);stroke-opacity:1;stroke-miterlimit:10;" d="M 418.407103 87.772355 C 418.407103 97.092484 412.094982 104.647073 404.318834 104.647073 C 396.542685 104.647073 390.242565 97.092484 390.242565 87.772355 " transform="matrix(0.325515,0,0,0.325237,0.00549832,1.375065)"/><path style="fill:none;stroke-width:6;stroke-linecap:butt;stroke-linejoin:miter;stroke:rgb(0%,0%,0%);stroke-opacity:1;stroke-miterlimit:10;" d="M 484.684369 87.772355 C 484.684369 97.092484 478.372248 104.647073 470.584099 104.647073 C 462.807951 104.647073 456.507831 97.092484 456.507831 87.772355 " transform="matrix(0.325515,0,0,0.325237,0.00549832,1.375065)"/><path style="fill:none;stroke-width:6;stroke-linecap:butt;stroke-linejoin:miter;stroke:rgb(0%,0%,0%);stroke-opacity:1;stroke-miterlimit:10;" d="M 459.003878 144.209579 C 459.003878 155.763656 450.879723 165.131827 440.871532 165.131827 C 430.863341 165.131827 422.739185 155.763656 422.739185 144.209579 " transform="matrix(0.325515,0,0,0.325237,0.00549832,1.375065)"/></g></svg>