<?xml version="1.0" encoding="UTF-8"?>
<svg xmlns="http://www.w3.org/2000/svg" xmlns:xlink="http://www.w3.org/1999/xlink" width="200px" height="240px" viewBox="0 0 200 240" version="1.1">
<g id="surface1">
<path style=" stroke:none;fill-rule:nonzero;fill:rgb(99.607843%,78.039216%,28.627451%);fill-opacity:1;" d="M 176.179688 81.347656 C 176.179688 88.300781 158.828125 92.449219 156.78125 98.714844 C 154.636719 105.210938 166.148438 118.65625 162.167969 124.066406 C 158.152344 129.53125 141.671875 122.835938 136.152344 126.816406 C 130.683594 130.75 132.046875 148.367188 125.480469 150.476562 C 119.148438 152.507812 109.824219 137.523438 102.808594 137.523438 C 95.785156 137.523438 86.460938 152.5 80.128906 150.476562 C 73.5625 148.359375 74.925781 130.75 69.464844 126.816406 C 63.945312 122.835938 47.457031 129.53125 43.441406 124.066406 C 39.460938 118.648438 50.964844 105.210938 48.835938 98.714844 C 46.773438 92.449219 29.429688 88.300781 29.429688 81.347656 C 29.429688 74.402344 46.785156 70.257812 48.835938 63.984375 C 50.972656 57.484375 39.460938 44.039062 43.441406 38.632812 C 47.457031 33.171875 63.945312 39.867188 69.464844 35.890625 C 74.933594 31.953125 73.5625 14.332031 80.128906 12.226562 C 86.460938 10.183594 95.785156 25.171875 102.808594 25.171875 C 109.824219 25.171875 119.148438 10.191406 125.480469 12.226562 C 132.046875 14.347656 130.683594 31.953125 136.152344 35.890625 C 141.671875 39.867188 158.152344 33.171875 162.167969 38.632812 C 166.148438 44.046875 154.644531 57.484375 156.78125 63.984375 C 158.835938 70.257812 176.179688 74.402344 176.179688 81.347656 Z M 176.179688 81.347656 "/>
<path style=" stroke:none;fill-rule:nonzero;fill:rgb(100%,100%,100%);fill-opacity:1;" d="M 165.34375 81.347656 C 165.34375 87.140625 148.179688 90.175781 146.46875 95.398438 C 144.6875 100.816406 156.707031 113.25 153.398438 117.75 C 150.050781 122.316406 134.375 114.808594 129.777344 118.125 C 125.222656 121.402344 127.601562 138.5 122.132812 140.257812 C 116.855469 141.957031 108.652344 126.796875 102.808594 126.796875 C 96.957031 126.796875 88.753906 141.957031 83.476562 140.257812 C 78.007812 138.5 80.386719 121.402344 75.839844 118.125 C 71.234375 114.816406 55.558594 122.316406 52.210938 117.761719 C 48.902344 113.25 60.921875 100.816406 59.152344 95.40625 C 57.429688 90.175781 40.269531 87.140625 40.269531 81.347656 C 40.269531 75.554688 57.429688 72.527344 59.152344 67.300781 C 60.921875 61.882812 48.902344 49.449219 52.210938 44.941406 C 55.558594 40.390625 71.234375 47.890625 75.839844 44.574219 C 80.386719 41.296875 78.007812 24.191406 83.476562 22.449219 C 88.753906 20.746094 96.957031 35.90625 102.808594 35.90625 C 108.652344 35.90625 116.855469 20.746094 122.132812 22.4375 C 127.601562 24.191406 125.222656 41.296875 129.777344 44.566406 C 134.375 47.882812 150.050781 40.382812 153.398438 44.933594 C 156.707031 49.441406 144.6875 61.875 146.46875 67.300781 C 148.179688 72.527344 165.34375 75.554688 165.34375 81.347656 Z M 165.34375 81.347656 "/>
<path style=" stroke:none;fill-rule:nonzero;fill:rgb(99.607843%,78.039216%,28.627451%);fill-opacity:1;" d="M 156.308594 81.347656 C 156.308594 86.183594 139.296875 88.277344 137.867188 92.632812 C 136.386719 97.148438 148.851562 108.742188 146.085938 112.5 C 143.300781 116.285156 128.300781 108.125 124.46875 110.882812 C 120.636719 113.640625 123.902344 130.277344 119.339844 131.742188 C 114.945312 133.164062 107.6875 117.851562 102.808594 117.851562 C 97.921875 117.851562 90.683594 133.164062 86.269531 131.742188 C 81.714844 130.277344 84.941406 113.617188 81.140625 110.882812 C 77.320312 108.125 62.308594 116.300781 59.523438 112.5 C 56.765625 108.726562 69.222656 97.148438 67.746094 92.632812 C 66.316406 88.277344 49.308594 86.183594 49.308594 81.347656 C 49.308594 76.523438 66.316406 74.417969 67.746094 70.066406 C 69.222656 65.558594 56.765625 53.960938 59.523438 50.207031 C 62.308594 46.410156 77.320312 54.574219 81.140625 51.816406 C 84.949219 49.082031 81.714844 32.417969 86.269531 30.949219 C 90.667969 29.542969 97.921875 44.84375 102.808594 44.84375 C 107.6875 44.84375 114.933594 29.542969 119.339844 30.949219 C 123.902344 32.417969 120.667969 49.082031 124.46875 51.816406 C 128.257812 54.550781 143.300781 46.402344 146.085938 50.207031 C 148.851562 53.96875 136.386719 65.558594 137.867188 70.066406 C 139.296875 74.417969 156.308594 76.523438 156.308594 81.347656 Z M 156.308594 81.347656 "/>
<path style="fill:none;stroke-width:10;stroke-linecap:round;stroke-linejoin:round;stroke:rgb(0%,0%,0%);stroke-opacity:1;stroke-miterlimit:4;" d="M 502.035205 343.988035 C 502.035205 362.468846 484.801985 377.465842 463.52742 377.465842 C 442.20357 377.465842 425.003207 362.468846 425.003207 343.988035 " transform="matrix(0.237777,0,0,0.235464,-23.454253,-12.363928)"/>
<path style="fill:none;stroke-width:10;stroke-linecap:round;stroke-linejoin:round;stroke:rgb(0%,0%,0%);stroke-opacity:1;stroke-miterlimit:4;" d="M 637.058875 343.988035 C 637.058875 362.468846 619.7928 377.465842 598.518234 377.465842 C 577.22724 377.465842 559.994021 362.468846 559.994021 343.988035 " transform="matrix(0.237777,0,0,0.235464,-23.454253,-12.363928)"/>
<path style="fill:none;stroke-width:11;stroke-linecap:round;stroke-linejoin:round;stroke:rgb(0%,0%,0%);stroke-opacity:1;stroke-miterlimit:4;" d="M 560.059734 407.277347 C 560.059734 425.774747 547.064999 440.721974 531.047469 440.721974 C 515.046368 440.721974 502.035205 425.741568 502.035205 407.277347 " transform="matrix(0.237777,0,0,0.235464,-23.454253,-12.363928)"/>
<path style=" stroke:none;fill-rule:nonzero;fill:rgb(100%,100%,100%);fill-opacity:1;" d="M 66.707031 195.332031 C 61.941406 195.332031 58.078125 199.160156 58.078125 203.867188 L 58.078125 221.050781 L 62.542969 221.050781 L 62.542969 211.925781 L 70.828125 211.925781 L 70.828125 221.050781 L 75.324219 221.050781 L 75.324219 203.867188 C 75.324219 199.160156 71.460938 195.332031 66.707031 195.332031 Z M 62.542969 207.476562 L 62.542969 203.867188 C 62.542969 201.625 64.394531 199.78125 66.707031 199.78125 C 68.964844 199.78125 70.828125 201.625 70.828125 203.867188 L 70.828125 207.476562 Z M 62.542969 207.476562 "/>
<path style=" stroke:none;fill-rule:nonzero;fill:rgb(99.607843%,78.039216%,28.627451%);fill-opacity:1;" d="M 87.484375 195.324219 L 77.261719 195.324219 L 77.261719 199.78125 L 79.1875 199.78125 L 79.1875 221.058594 L 87.484375 221.058594 C 92.097656 221.058594 95.8125 217.382812 95.8125 212.8125 L 95.8125 203.570312 C 95.8125 199.011719 92.097656 195.324219 87.484375 195.324219 Z M 91.316406 212.8125 C 91.316406 214.910156 89.601562 216.609375 87.484375 216.640625 L 83.695312 216.640625 L 83.695312 199.78125 L 87.484375 199.78125 C 89.601562 199.78125 91.316406 201.472656 91.316406 203.570312 Z M 91.316406 212.8125 "/>
<path style=" stroke:none;fill-rule:nonzero;fill:rgb(100%,100%,100%);fill-opacity:1;" d="M 108.4375 195.339844 C 103.671875 195.339844 99.808594 199.160156 99.808594 203.867188 L 99.808594 221.050781 L 104.273438 221.050781 L 104.273438 211.933594 L 112.558594 211.933594 L 112.558594 221.050781 L 117.054688 221.050781 L 117.054688 203.867188 C 117.054688 199.160156 113.191406 195.339844 108.4375 195.339844 Z M 104.273438 207.484375 L 104.273438 203.867188 C 104.273438 201.632812 106.125 199.792969 108.4375 199.792969 C 110.695312 199.792969 112.558594 201.632812 112.558594 203.867188 L 112.558594 207.484375 Z M 104.273438 207.484375 "/>
<path style=" stroke:none;fill-rule:nonzero;fill:rgb(99.607843%,78.039216%,28.627451%);fill-opacity:1;" d="M 140.375 195.308594 C 138.289062 195.308594 136.285156 196.152344 134.839844 197.617188 C 132.121094 194.933594 127.851562 194.535156 124.734375 196.742188 C 123.910156 195.851562 122.757812 195.339844 121.535156 195.382812 L 119.308594 195.382812 L 119.308594 199.792969 L 121.425781 199.792969 L 121.425781 221.058594 L 125.921875 221.058594 L 125.921875 203.074219 C 125.921875 201.234375 127.402344 199.757812 129.261719 199.757812 C 131.082031 199.757812 132.570312 201.234375 132.570312 203.074219 L 132.570312 221.058594 L 137.066406 221.058594 L 137.066406 203.074219 C 137.066406 201.234375 138.554688 199.757812 140.375 199.757812 C 142.230469 199.757812 143.714844 201.234375 143.714844 203.074219 L 143.714844 221.058594 L 148.214844 221.058594 L 148.214844 203.074219 C 148.214844 198.761719 144.679688 195.308594 140.375 195.308594 Z M 140.375 195.308594 "/>
</g>
</svg>
