<?xml version="1.0" encoding="UTF-8"?><svg xmlns="http://www.w3.org/2000/svg" xmlns:xlink="http://www.w3.org/1999/xlink" contentScriptType="text/ecmascript" width="375pt" zoomAndPan="magnify" contentStyleType="text/css" viewBox="0 0 375 374.999991" height="374.999991pt" preserveAspectRatio="xMidYMid meet" version="1.2"><defs><g/><clipPath xml:id="clip1" id="clip1"><path d="M 23.894531 83 L 69 83 L 69 104 L 23.894531 104 Z M 23.894531 83 "/></clipPath><clipPath xml:id="clip2" id="clip2"><path d="M 83 137 L 105 137 L 105 166.5 L 83 166.5 Z M 83 137 "/></clipPath><clipPath xml:id="clip3" id="clip3"><path d="M 128 137 L 151 137 L 151 166.5 L 128 166.5 Z M 128 137 "/></clipPath><clipPath xml:id="clip4" id="clip4"><path d="M 180 2 L 211.394531 2 L 211.394531 32 L 180 32 Z M 180 2 "/></clipPath></defs><g xml:id="surface1" id="surface1"><path style=" stroke:none;fill-rule:nonzero;fill:rgb(38.038635%,67.449951%,84.709167%);fill-opacity:1;" d="M 334.460938 372.5 L 45.917969 372.5 C 39.042969 372.5 33.4375 366.898438 33.4375 360.019531 L 33.4375 178.738281 C 33.4375 171.859375 39.042969 166.257812 45.917969 166.257812 L 334.460938 166.257812 C 341.335938 166.257812 346.9375 171.859375 346.9375 178.738281 L 346.9375 360.019531 C 346.9375 366.898438 341.335938 372.5 334.460938 372.5 Z M 334.460938 372.5 "/><g clip-rule="nonzero" clip-path="url(#clip1)"><path style=" stroke:none;fill-rule:nonzero;fill:rgb(2.749634%,47.059631%,78.039551%);fill-opacity:1;" d="M 25.09375 87.582031 L 31.058594 92.460938 C 33.585938 94.539062 36.363281 96.199219 39.386719 97.449219 L 39.980469 97.691406 C 41.617188 98.363281 43.300781 98.902344 45.027344 99.304688 L 64.773438 103.917969 L 68.253906 100.601562 L 47.015625 95.359375 C 45.398438 94.964844 43.820312 94.445312 42.28125 93.808594 C 39.511719 92.660156 36.945312 91.160156 34.585938 89.3125 L 27.332031 83.628906 C 26.425781 83.160156 27.457031 84.203125 26.71875 84.910156 L 24.582031 84.023438 C 24.453125 84.144531 24.34375 84.28125 24.246094 84.429688 C 24.152344 84.578125 24.078125 84.734375 24.019531 84.898438 C 23.960938 85.066406 23.925781 85.238281 23.90625 85.414062 C 23.890625 85.585938 23.894531 85.761719 23.921875 85.9375 C 23.945312 86.109375 23.992188 86.277344 24.054688 86.441406 C 24.121094 86.605469 24.207031 86.757812 24.308594 86.902344 C 24.410156 87.042969 24.527344 87.175781 24.660156 87.289062 C 24.792969 87.40625 24.9375 87.503906 25.09375 87.582031 Z M 25.09375 87.582031 "/></g><path style=" stroke:none;fill-rule:nonzero;fill:rgb(2.749634%,47.059631%,78.039551%);fill-opacity:1;" d="M 208.207031 84.292969 L 202.242188 89.175781 C 199.710938 91.25 196.933594 92.90625 193.90625 94.152344 L 193.316406 94.394531 C 191.675781 95.070312 189.992188 95.605469 188.269531 96.007812 L 168.523438 100.621094 L 165.039062 97.304688 L 186.285156 92.066406 C 187.902344 91.671875 189.480469 91.160156 191.019531 90.527344 C 193.792969 89.378906 196.355469 87.882812 198.714844 86.035156 L 205.96875 80.34375 C 206.878906 79.875 205.84375 80.917969 206.582031 81.621094 L 208.71875 80.738281 C 208.847656 80.859375 208.957031 80.996094 209.054688 81.140625 C 209.148438 81.289062 209.222656 81.445312 209.28125 81.613281 C 209.339844 81.78125 209.375 81.949219 209.394531 82.125 C 209.410156 82.300781 209.40625 82.472656 209.378906 82.648438 C 209.355469 82.820312 209.308594 82.992188 209.246094 83.152344 C 209.179688 83.316406 209.09375 83.46875 208.992188 83.613281 C 208.890625 83.757812 208.773438 83.886719 208.640625 84 C 208.507812 84.117188 208.363281 84.214844 208.207031 84.292969 Z M 208.207031 84.292969 "/><g clip-rule="nonzero" clip-path="url(#clip2)"><path style=" stroke:none;fill-rule:nonzero;fill:rgb(2.749634%,47.059631%,78.039551%);fill-opacity:1;" d="M 95.050781 137.542969 L 95.132812 161 L 83.316406 166.757812 L 104.855469 166.757812 L 104.863281 141.195312 Z M 95.050781 137.542969 "/></g><g clip-rule="nonzero" clip-path="url(#clip3)"><path style=" stroke:none;fill-rule:nonzero;fill:rgb(2.749634%,47.059631%,78.039551%);fill-opacity:1;" d="M 138.621094 137.523438 L 138.621094 160.980469 L 150.433594 166.738281 L 128.894531 166.738281 L 128.910156 141.578125 Z M 138.621094 137.523438 "/></g><path style=" stroke:none;fill-rule:nonzero;fill:rgb(100%,56.079102%,61.569214%);fill-opacity:1;" d="M 182.585938 82.1875 C 182.585938 88.699219 172.546875 93.542969 170.636719 99.417969 C 168.65625 105.507812 173.859375 115.308594 170.167969 120.367188 C 166.441406 125.484375 155.476562 123.550781 150.355469 127.285156 C 145.28125 130.976562 143.753906 142.011719 137.65625 143.988281 C 131.777344 145.894531 124.078125 137.925781 117.558594 137.925781 C 111.042969 137.925781 103.351562 145.894531 97.464844 143.988281 C 91.367188 142.011719 89.84375 130.976562 84.765625 127.285156 C 79.644531 123.5625 68.679688 125.496094 64.949219 120.367188 C 61.257812 115.300781 66.460938 105.496094 64.484375 99.417969 C 62.574219 93.542969 52.535156 88.699219 52.535156 82.1875 C 52.535156 75.675781 62.578125 70.832031 64.488281 64.964844 C 66.464844 58.875 61.261719 49.074219 64.953125 44.015625 C 68.683594 38.898438 79.648438 40.832031 84.769531 37.097656 C 89.84375 33.40625 91.367188 22.371094 97.46875 20.394531 C 103.351562 18.476562 111.046875 26.449219 117.5625 26.449219 C 124.078125 26.449219 131.78125 18.476562 137.660156 20.386719 C 143.753906 22.359375 145.28125 33.398438 150.355469 37.085938 C 155.480469 40.8125 166.445312 38.878906 170.171875 44.003906 C 173.863281 49.074219 168.660156 58.875 170.640625 64.957031 C 172.546875 70.832031 182.585938 75.675781 182.585938 82.1875 Z M 182.585938 82.1875 "/><path style=" stroke:none;fill-rule:nonzero;fill:rgb(100%,41.178894%,23.139954%);fill-opacity:1;" d="M 207.402344 50.183594 C 207.402344 50.953125 198.269531 50.285156 198.042969 50.988281 C 197.816406 51.691406 205.582031 56.53125 205.140625 57.140625 C 204.703125 57.75 197.707031 51.84375 197.09375 52.28125 C 196.484375 52.71875 199.957031 61.1875 199.226562 61.421875 C 198.5 61.660156 196.34375 52.773438 195.574219 52.773438 C 194.804688 52.773438 192.621094 61.648438 191.917969 61.421875 C 191.214844 61.195312 194.652344 52.726562 194.046875 52.28125 C 193.441406 51.835938 186.445312 57.742188 186.003906 57.128906 C 185.558594 56.519531 193.335938 51.710938 193.097656 50.980469 C 192.863281 50.25 183.738281 50.953125 183.738281 50.175781 C 183.738281 49.398438 192.871094 50.074219 193.097656 49.371094 C 193.324219 48.671875 185.558594 43.828125 186.003906 43.222656 C 186.445312 42.613281 193.4375 48.515625 194.046875 48.070312 C 194.660156 47.625 191.1875 39.164062 191.914062 38.929688 C 192.644531 38.695312 194.800781 47.578125 195.570312 47.578125 C 196.339844 47.578125 198.527344 38.699219 199.226562 38.929688 C 199.925781 39.15625 196.488281 47.628906 197.09375 48.070312 C 197.699219 48.511719 204.695312 42.609375 205.140625 43.222656 C 205.585938 43.832031 197.804688 48.640625 198.042969 49.371094 C 198.277344 50.101562 207.402344 49.40625 207.402344 50.183594 Z M 207.402344 50.183594 "/><g clip-rule="nonzero" clip-path="url(#clip4)"><path style=" stroke:none;fill-rule:nonzero;fill:rgb(100%,56.079102%,61.569214%);fill-opacity:1;" d="M 209.515625 7.464844 C 210.171875 8.398438 202.316406 13.070312 202.554688 14.144531 C 202.796875 15.222656 211.917969 15.953125 211.769531 17.078125 C 211.625 18.15625 202.546875 16.667969 202.058594 17.703125 C 201.601562 18.6875 208.683594 24.585938 207.933594 25.457031 C 207.230469 26.277344 200.253906 20.242188 199.3125 20.902344 C 198.371094 21.558594 201.621094 30.183594 200.609375 30.558594 C 199.535156 30.957031 196.441406 22.28125 195.359375 22.371094 C 194.21875 22.46875 192.472656 31.496094 191.417969 31.257812 C 190.3125 31.011719 192.777344 22.207031 191.847656 21.609375 C 190.917969 21.011719 183.820312 26.761719 183.164062 25.824219 C 182.511719 24.890625 190.367188 20.21875 190.125 19.140625 C 189.882812 18.066406 180.761719 17.332031 180.914062 16.210938 C 181.058594 15.128906 190.148438 16.621094 190.621094 15.585938 C 191.074219 14.609375 184 8.703125 184.746094 7.835938 C 185.453125 7.011719 192.425781 13.046875 193.371094 12.386719 C 194.316406 11.730469 191.0625 3.109375 192.070312 2.730469 C 193.148438 2.332031 196.242188 11.007812 197.324219 10.917969 C 198.460938 10.820312 200.210938 1.792969 201.265625 2.03125 C 202.371094 2.277344 199.90625 11.082031 200.835938 11.679688 C 201.761719 12.277344 208.863281 6.535156 209.515625 7.464844 Z M 209.515625 7.464844 "/></g><path style=" stroke:none;fill-rule:nonzero;fill:rgb(99.609375%,78.039551%,28.62854%);fill-opacity:1;" d="M 173.734375 12.898438 C 173.734375 13.859375 164.574219 13.363281 164.292969 14.242188 C 164 15.144531 171.691406 20.121094 171.144531 20.871094 C 170.597656 21.621094 163.472656 15.851562 162.714844 16.40625 C 161.953125 16.957031 165.265625 25.5 164.363281 25.792969 C 163.492188 26.078125 161.140625 17.230469 160.171875 17.230469 C 159.207031 17.230469 156.851562 26.070312 155.984375 25.792969 C 155.082031 25.5 158.382812 16.953125 157.632812 16.40625 C 156.878906 15.855469 149.753906 21.632812 149.203125 20.871094 C 148.648438 20.113281 156.347656 15.136719 156.0625 14.234375 C 155.777344 13.363281 146.617188 13.851562 146.617188 12.890625 C 146.617188 11.929688 155.777344 12.421875 156.0625 11.542969 C 156.355469 10.640625 148.664062 5.664062 149.210938 4.914062 C 149.753906 4.160156 156.882812 9.929688 157.640625 9.378906 C 158.398438 8.828125 155.082031 0.300781 155.984375 0 C 156.851562 -0.28125 159.210938 8.566406 160.171875 8.566406 C 161.136719 8.566406 163.492188 -0.277344 164.363281 0 C 165.265625 0.292969 161.964844 8.839844 162.714844 9.390625 C 163.464844 9.9375 170.59375 4.171875 171.144531 4.929688 C 171.695312 5.683594 164 10.65625 164.292969 11.558594 C 164.574219 12.429688 173.734375 11.933594 173.734375 12.898438 Z M 173.734375 12.898438 "/><path style="fill:none;stroke-width:10;stroke-linecap:butt;stroke-linejoin:round;stroke:rgb(0%,0%,0%);stroke-opacity:1;stroke-miterlimit:4;" d="M 441.923122 336.593068 C 441.923122 355.087192 424.664014 370.065401 403.364244 370.065401 C 382.084779 370.065401 364.825671 355.066869 364.825671 336.593068 " transform="matrix(0.19238,0,0,0.192206,23.896757,0)"/><path style="fill:none;stroke-width:10;stroke-linecap:butt;stroke-linejoin:round;stroke:rgb(0%,0%,0%);stroke-opacity:1;stroke-miterlimit:4;" d="M 610.920248 336.593068 C 610.920248 355.087192 593.66114 370.065401 572.36137 370.065401 C 551.081905 370.065401 533.822797 355.066869 533.822797 336.593068 " transform="matrix(0.19238,0,0,0.192206,23.896757,0)"/><path style="fill:none;stroke-width:11;stroke-linecap:round;stroke-linejoin:round;stroke:rgb(0%,0%,0%);stroke-opacity:1;stroke-miterlimit:4;" d="M 555.873846 448.065896 C 555.873846 469.750765 527.000373 487.330345 491.406001 487.330345 C 455.791323 487.330345 426.917851 469.750765 426.917851 448.065896 " transform="matrix(0.19238,0,0,0.192206,23.896757,0)"/><path style="fill:none;stroke-width:10;stroke-linecap:round;stroke-linejoin:round;stroke:rgb(0%,0%,0%);stroke-opacity:1;stroke-miterlimit:4;" d="M 575.000999 456.601645 C 573.478136 456.601645 571.955274 456.459383 570.473021 456.154535 C 568.970463 455.87001 567.508515 455.422899 566.107482 454.833526 C 564.686143 454.264476 563.346024 453.53284 562.087125 452.699588 C 560.80792 451.846013 559.650545 450.890822 558.554084 449.813692 C 557.477928 448.716238 556.5236 447.557815 555.670797 446.277453 C 554.817994 445.017413 554.107325 443.676081 553.518485 442.27378 C 552.929645 440.851155 552.503243 439.408206 552.198671 437.904289 C 551.894098 436.400371 551.751965 434.896453 551.751965 433.372212 " transform="matrix(0.19238,0,0,0.192206,23.896757,0)"/><path style="fill:none;stroke-width:10;stroke-linecap:round;stroke-linejoin:round;stroke:rgb(0%,0%,0%);stroke-opacity:1;stroke-miterlimit:4;" d="M 406.349055 458.938815 C 407.871917 458.938815 409.39478 458.776229 410.877033 458.491704 C 412.37959 458.186856 413.841538 457.739745 415.242572 457.150372 C 416.66391 456.581322 418.004029 455.849686 419.262929 455.016435 C 420.542133 454.16286 421.719813 453.207669 422.79597 452.110215 C 423.872126 451.033085 424.826453 449.874662 425.679256 448.594299 C 426.532059 447.33426 427.242728 445.992928 427.831568 444.570303 C 428.420408 443.168001 428.84681 441.70473 429.151382 440.221135 C 429.455955 438.717217 429.598089 437.213299 429.598089 435.689058 " transform="matrix(0.19238,0,0,0.192206,23.896757,0)"/><path style=" stroke:none;fill-rule:nonzero;fill:rgb(2.749634%,47.059631%,78.039551%);fill-opacity:1;" d="M 156.601562 76.25 C 156.601562 76.546875 156.5625 76.839844 156.484375 77.132812 C 156.40625 77.421875 156.289062 77.703125 156.136719 77.980469 C 155.984375 78.253906 155.792969 78.511719 155.570312 78.757812 C 155.347656 79.007812 155.09375 79.234375 154.808594 79.445312 C 154.527344 79.652344 154.21875 79.839844 153.882812 80.003906 C 153.546875 80.171875 153.195312 80.308594 152.824219 80.421875 C 152.453125 80.535156 152.070312 80.621094 151.675781 80.679688 C 151.28125 80.738281 150.886719 80.765625 150.484375 80.765625 C 150.082031 80.765625 149.683594 80.738281 149.289062 80.679688 C 148.894531 80.621094 148.511719 80.535156 148.140625 80.421875 C 147.769531 80.308594 147.417969 80.171875 147.082031 80.003906 C 146.75 79.839844 146.441406 79.652344 146.15625 79.445312 C 145.871094 79.234375 145.617188 79.007812 145.394531 78.757812 C 145.171875 78.511719 144.984375 78.253906 144.828125 77.980469 C 144.675781 77.703125 144.558594 77.421875 144.480469 77.132812 C 144.402344 76.839844 144.363281 76.546875 144.363281 76.25 C 144.363281 75.953125 144.402344 75.660156 144.480469 75.367188 C 144.558594 75.078125 144.675781 74.796875 144.828125 74.523438 C 144.984375 74.246094 145.171875 73.988281 145.394531 73.742188 C 145.617188 73.492188 145.871094 73.265625 146.15625 73.054688 C 146.441406 72.847656 146.75 72.660156 147.082031 72.496094 C 147.417969 72.328125 147.769531 72.191406 148.140625 72.078125 C 148.511719 71.964844 148.894531 71.878906 149.289062 71.820312 C 149.683594 71.761719 150.082031 71.734375 150.484375 71.734375 C 150.886719 71.734375 151.28125 71.761719 151.675781 71.820312 C 152.070312 71.878906 152.453125 71.964844 152.824219 72.078125 C 153.195312 72.191406 153.546875 72.328125 153.882812 72.496094 C 154.21875 72.660156 154.527344 72.847656 154.808594 73.054688 C 155.09375 73.265625 155.347656 73.492188 155.570312 73.742188 C 155.792969 73.988281 155.984375 74.246094 156.136719 74.523438 C 156.289062 74.796875 156.40625 75.078125 156.484375 75.367188 C 156.5625 75.660156 156.601562 75.953125 156.601562 76.25 Z M 156.601562 76.25 "/><path style=" stroke:none;fill-rule:nonzero;fill:rgb(2.749634%,47.059631%,78.039551%);fill-opacity:1;" d="M 91.960938 79.324219 C 91.960938 79.621094 91.921875 79.914062 91.84375 80.207031 C 91.765625 80.496094 91.652344 80.78125 91.496094 81.054688 C 91.34375 81.328125 91.15625 81.589844 90.929688 81.835938 C 90.707031 82.082031 90.453125 82.308594 90.171875 82.519531 C 89.886719 82.730469 89.578125 82.917969 89.242188 83.082031 C 88.910156 83.246094 88.554688 83.386719 88.183594 83.5 C 87.8125 83.613281 87.429688 83.699219 87.035156 83.753906 C 86.644531 83.8125 86.246094 83.84375 85.84375 83.84375 C 85.441406 83.84375 85.042969 83.8125 84.648438 83.753906 C 84.253906 83.699219 83.871094 83.613281 83.5 83.5 C 83.128906 83.386719 82.777344 83.246094 82.441406 83.082031 C 82.109375 82.917969 81.800781 82.730469 81.515625 82.519531 C 81.230469 82.308594 80.976562 82.082031 80.753906 81.835938 C 80.53125 81.589844 80.34375 81.328125 80.1875 81.054688 C 80.035156 80.78125 79.917969 80.496094 79.839844 80.207031 C 79.761719 79.914062 79.722656 79.621094 79.722656 79.324219 C 79.722656 79.027344 79.761719 78.734375 79.839844 78.445312 C 79.917969 78.152344 80.035156 77.871094 80.1875 77.597656 C 80.34375 77.324219 80.53125 77.0625 80.753906 76.816406 C 80.976562 76.570312 81.230469 76.339844 81.515625 76.132812 C 81.800781 75.921875 82.109375 75.734375 82.441406 75.570312 C 82.777344 75.40625 83.128906 75.265625 83.5 75.152344 C 83.871094 75.039062 84.253906 74.953125 84.648438 74.894531 C 85.042969 74.835938 85.441406 74.808594 85.84375 74.808594 C 86.246094 74.808594 86.644531 74.835938 87.035156 74.894531 C 87.429688 74.953125 87.8125 75.039062 88.183594 75.152344 C 88.554688 75.265625 88.910156 75.40625 89.242188 75.570312 C 89.578125 75.734375 89.886719 75.921875 90.171875 76.132812 C 90.453125 76.339844 90.707031 76.570312 90.929688 76.816406 C 91.15625 77.0625 91.34375 77.324219 91.496094 77.597656 C 91.652344 77.871094 91.765625 78.152344 91.84375 78.445312 C 91.921875 78.734375 91.960938 79.027344 91.960938 79.324219 Z M 91.960938 79.324219 "/><g style="fill:rgb(100%,56.079102%,61.569214%);fill-opacity:1;"><g transform="translate(175.063963, 156.095046)"><path style="stroke:none;" d="M 1.421875 -10.25 C 1.421875 -13.5 2.289062 -16.140625 4.03125 -18.171875 C 5.769531 -20.203125 8.03125 -21.21875 10.8125 -21.21875 C 12.257812 -21.21875 13.476562 -20.921875 14.46875 -20.328125 C 15.457031 -19.734375 16.1875 -19.070312 16.65625 -18.34375 L 16.984375 -18.34375 L 16.984375 -20.703125 L 23.0625 -20.703125 L 23.0625 0 L 17.03125 0 L 17.03125 -2.359375 L 16.703125 -2.359375 C 16.523438 -2.066406 16.296875 -1.78125 16.015625 -1.5 C 15.734375 -1.21875 15.363281 -0.910156 14.90625 -0.578125 C 14.457031 -0.253906 13.890625 0.00390625 13.203125 0.203125 C 12.515625 0.410156 11.769531 0.515625 10.96875 0.515625 C 8.113281 0.515625 5.804688 -0.460938 4.046875 -2.421875 C 2.296875 -4.390625 1.421875 -7 1.421875 -10.25 Z M 7.5625 -10.359375 C 7.5625 -8.753906 8 -7.457031 8.875 -6.46875 C 9.757812 -5.476562 10.914062 -4.984375 12.34375 -4.984375 C 13.78125 -4.984375 14.929688 -5.488281 15.796875 -6.5 C 16.660156 -7.519531 17.09375 -8.804688 17.09375 -10.359375 C 17.09375 -11.984375 16.644531 -13.28125 15.75 -14.25 C 14.863281 -15.226562 13.71875 -15.71875 12.3125 -15.71875 C 10.90625 -15.71875 9.757812 -15.21875 8.875 -14.21875 C 8 -13.226562 7.5625 -11.941406 7.5625 -10.359375 Z M 7.5625 -10.359375 "/></g></g><g style="fill:rgb(2.749634%,47.059631%,78.039551%);fill-opacity:1;"><g transform="translate(199.983987, 156.095046)"><path style="stroke:none;" d="M 2.578125 0 L 2.578125 -20.703125 L 8.3125 -20.703125 L 8.3125 -17.578125 L 8.640625 -17.578125 C 9.046875 -18.460938 9.710938 -19.234375 10.640625 -19.890625 C 11.578125 -20.546875 12.679688 -20.875 13.953125 -20.875 L 15.96875 -20.875 L 15.96875 -15.140625 L 13.578125 -15.140625 C 12.066406 -15.140625 10.867188 -14.628906 9.984375 -13.609375 C 9.109375 -12.585938 8.671875 -11.191406 8.671875 -9.421875 L 8.671875 0 Z M 2.578125 0 "/></g></g><g style="fill:rgb(99.609375%,78.039551%,28.62854%);fill-opacity:1;"><g transform="translate(217.342313, 156.095046)"><path style="stroke:none;" d="M 1.421875 -10.359375 C 1.421875 -12.390625 1.863281 -14.222656 2.75 -15.859375 C 3.632812 -17.503906 4.910156 -18.804688 6.578125 -19.765625 C 8.253906 -20.734375 10.179688 -21.21875 12.359375 -21.21875 C 15.210938 -21.21875 17.597656 -20.425781 19.515625 -18.84375 C 21.429688 -17.269531 22.535156 -15.210938 22.828125 -12.671875 L 16.65625 -12.671875 C 16.375 -13.578125 15.851562 -14.3125 15.09375 -14.875 C 14.332031 -15.4375 13.429688 -15.71875 12.390625 -15.71875 C 10.929688 -15.71875 9.757812 -15.207031 8.875 -14.1875 C 8 -13.164062 7.5625 -11.890625 7.5625 -10.359375 C 7.5625 -8.816406 8.007812 -7.535156 8.90625 -6.515625 C 9.800781 -5.492188 10.972656 -4.984375 12.421875 -4.984375 C 13.421875 -4.984375 14.296875 -5.242188 15.046875 -5.765625 C 15.804688 -6.285156 16.316406 -6.96875 16.578125 -7.8125 L 22.78125 -7.8125 C 22.4375 -5.332031 21.320312 -3.320312 19.4375 -1.78125 C 17.5625 -0.25 15.210938 0.515625 12.390625 0.515625 C 10.222656 0.515625 8.296875 0.03125 6.609375 -0.9375 C 4.921875 -1.90625 3.632812 -3.210938 2.75 -4.859375 C 1.863281 -6.503906 1.421875 -8.335938 1.421875 -10.359375 Z M 1.421875 -10.359375 "/></g></g><g style="fill:rgb(98.429871%,42.349243%,21.179199%);fill-opacity:1;"><g transform="translate(241.590701, 156.095046)"><path style="stroke:none;" d="M 1.421875 -10.359375 C 1.421875 -11.878906 1.691406 -13.300781 2.234375 -14.625 C 2.773438 -15.957031 3.523438 -17.109375 4.484375 -18.078125 C 5.441406 -19.046875 6.617188 -19.8125 8.015625 -20.375 C 9.410156 -20.9375 10.929688 -21.21875 12.578125 -21.21875 C 15.847656 -21.21875 18.523438 -20.179688 20.609375 -18.109375 C 22.691406 -16.035156 23.734375 -13.453125 23.734375 -10.359375 C 23.734375 -8.835938 23.457031 -7.410156 22.90625 -6.078125 C 22.363281 -4.742188 21.609375 -3.59375 20.640625 -2.625 C 19.671875 -1.65625 18.488281 -0.890625 17.09375 -0.328125 C 15.695312 0.234375 14.179688 0.515625 12.546875 0.515625 C 10.390625 0.515625 8.457031 0.0351562 6.75 -0.921875 C 5.039062 -1.890625 3.722656 -3.195312 2.796875 -4.84375 C 1.878906 -6.488281 1.421875 -8.328125 1.421875 -10.359375 Z M 7.5625 -10.359375 C 7.5625 -8.773438 8.03125 -7.484375 8.96875 -6.484375 C 9.90625 -5.484375 11.097656 -4.984375 12.546875 -4.984375 C 13.992188 -4.984375 15.191406 -5.484375 16.140625 -6.484375 C 17.097656 -7.492188 17.578125 -8.785156 17.578125 -10.359375 C 17.578125 -11.929688 17.097656 -13.21875 16.140625 -14.21875 C 15.191406 -15.21875 13.992188 -15.71875 12.546875 -15.71875 C 11.097656 -15.71875 9.90625 -15.21875 8.96875 -14.21875 C 8.03125 -13.21875 7.5625 -11.929688 7.5625 -10.359375 Z M 7.5625 -10.359375 "/></g></g><g style="fill:rgb(100%,56.079102%,61.569214%);fill-opacity:1;"><g transform="translate(266.707584, 156.095046)"><path style="stroke:none;" d="M 3.015625 -23.90625 C 2.359375 -24.507812 2.03125 -25.3125 2.03125 -26.3125 C 2.03125 -27.3125 2.359375 -28.109375 3.015625 -28.703125 C 3.679688 -29.304688 4.546875 -29.609375 5.609375 -29.609375 C 6.671875 -29.609375 7.53125 -29.3125 8.1875 -28.71875 C 8.84375 -28.125 9.171875 -27.320312 9.171875 -26.3125 C 9.171875 -25.300781 8.84375 -24.5 8.1875 -23.90625 C 7.53125 -23.3125 6.671875 -23.015625 5.609375 -23.015625 C 4.546875 -23.015625 3.679688 -23.3125 3.015625 -23.90625 Z M 2.578125 0 L 2.578125 -20.703125 L 8.671875 -20.703125 L 8.671875 0 Z M 2.578125 0 "/></g></g><g style="fill:rgb(2.749634%,47.059631%,78.039551%);fill-opacity:1;"><g transform="translate(277.233747, 156.095046)"><path style="stroke:none;" d="M 2.578125 0 L 2.578125 -20.703125 L 8.3125 -20.703125 L 8.3125 -17.578125 L 8.640625 -17.578125 C 9.046875 -18.460938 9.710938 -19.234375 10.640625 -19.890625 C 11.578125 -20.546875 12.679688 -20.875 13.953125 -20.875 L 15.96875 -20.875 L 15.96875 -15.140625 L 13.578125 -15.140625 C 12.066406 -15.140625 10.867188 -14.628906 9.984375 -13.609375 C 9.109375 -12.585938 8.671875 -11.191406 8.671875 -9.421875 L 8.671875 0 Z M 2.578125 0 "/></g></g><g style="fill:rgb(99.609375%,78.039551%,28.62854%);fill-opacity:1;"><g transform="translate(294.592073, 156.095046)"><path style="stroke:none;" d="M 3.015625 -23.90625 C 2.359375 -24.507812 2.03125 -25.3125 2.03125 -26.3125 C 2.03125 -27.3125 2.359375 -28.109375 3.015625 -28.703125 C 3.679688 -29.304688 4.546875 -29.609375 5.609375 -29.609375 C 6.671875 -29.609375 7.53125 -29.3125 8.1875 -28.71875 C 8.84375 -28.125 9.171875 -27.320312 9.171875 -26.3125 C 9.171875 -25.300781 8.84375 -24.5 8.1875 -23.90625 C 7.53125 -23.3125 6.671875 -23.015625 5.609375 -23.015625 C 4.546875 -23.015625 3.679688 -23.3125 3.015625 -23.90625 Z M 2.578125 0 L 2.578125 -20.703125 L 8.671875 -20.703125 L 8.671875 0 Z M 2.578125 0 "/></g></g><g style="fill:rgb(98.429871%,42.349243%,21.179199%);fill-opacity:1;"><g transform="translate(305.118235, 156.095046)"><path style="stroke:none;" d="M 1.421875 -6.359375 L 6.9375 -6.359375 C 7.007812 -5.640625 7.335938 -5.09375 7.921875 -4.71875 C 8.515625 -4.34375 9.3125 -4.15625 10.3125 -4.15625 C 11.320312 -4.15625 12.101562 -4.328125 12.65625 -4.671875 C 13.21875 -5.015625 13.5 -5.484375 13.5 -6.078125 C 13.5 -6.515625 13.328125 -6.867188 12.984375 -7.140625 C 12.648438 -7.421875 12.210938 -7.613281 11.671875 -7.71875 C 11.128906 -7.832031 10.503906 -7.945312 9.796875 -8.0625 C 9.097656 -8.1875 8.378906 -8.300781 7.640625 -8.40625 C 6.910156 -8.507812 6.191406 -8.703125 5.484375 -8.984375 C 4.785156 -9.273438 4.164062 -9.628906 3.625 -10.046875 C 3.082031 -10.472656 2.640625 -11.078125 2.296875 -11.859375 C 1.960938 -12.648438 1.796875 -13.570312 1.796875 -14.625 C 1.796875 -16.476562 2.550781 -18.039062 4.0625 -19.3125 C 5.582031 -20.582031 7.671875 -21.21875 10.328125 -21.21875 C 12.773438 -21.21875 14.769531 -20.644531 16.3125 -19.5 C 17.851562 -18.363281 18.691406 -16.738281 18.828125 -14.625 L 13.578125 -14.625 C 13.472656 -15.28125 13.144531 -15.796875 12.59375 -16.171875 C 12.050781 -16.546875 11.296875 -16.734375 10.328125 -16.734375 C 9.398438 -16.734375 8.660156 -16.5625 8.109375 -16.21875 C 7.566406 -15.882812 7.296875 -15.445312 7.296875 -14.90625 C 7.296875 -14.539062 7.429688 -14.242188 7.703125 -14.015625 C 7.984375 -13.796875 8.351562 -13.628906 8.8125 -13.515625 C 9.28125 -13.398438 9.816406 -13.304688 10.421875 -13.234375 C 11.035156 -13.171875 11.671875 -13.085938 12.328125 -12.984375 C 12.992188 -12.878906 13.660156 -12.753906 14.328125 -12.609375 C 15.003906 -12.460938 15.644531 -12.234375 16.25 -11.921875 C 16.851562 -11.609375 17.390625 -11.226562 17.859375 -10.78125 C 18.328125 -10.332031 18.695312 -9.734375 18.96875 -8.984375 C 19.238281 -8.242188 19.375 -7.378906 19.375 -6.390625 C 19.375 -4.335938 18.578125 -2.671875 16.984375 -1.390625 C 15.390625 -0.117188 13.15625 0.515625 10.28125 0.515625 C 7.382812 0.515625 5.195312 -0.0859375 3.71875 -1.296875 C 2.25 -2.515625 1.484375 -4.203125 1.421875 -6.359375 Z M 1.421875 -6.359375 "/></g></g></g></svg>