<?xml version="1.0" encoding="UTF-8"?>
<svg xmlns="http://www.w3.org/2000/svg" xmlns:xlink="http://www.w3.org/1999/xlink" width="29px" height="29px" viewBox="0 0 29 29" version="1.1">
<defs>
<clipPath id="clip1">
  <path d="M 0.171875 0.113281 L 28.769531 0.113281 L 28.769531 28.769531 L 0.171875 28.769531 Z M 0.171875 0.113281 "/>
</clipPath>
</defs>
<g id="surface1">
<g clip-path="url(#clip1)" clip-rule="nonzero">
<path style=" stroke:none;fill-rule:nonzero;fill:rgb(100%,100%,100%);fill-opacity:1;" d="M 14.5 0.0976562 C 6.582031 0.0976562 0.15625 6.523438 0.15625 14.441406 C 0.15625 22.363281 6.582031 28.785156 14.5 28.785156 C 22.421875 28.785156 28.839844 22.363281 28.839844 14.441406 C 28.839844 6.523438 22.421875 0.0976562 14.5 0.0976562 Z M 17.488281 22.328125 C 16.746094 22.621094 16.160156 22.839844 15.71875 22.992188 C 15.28125 23.144531 14.765625 23.222656 14.1875 23.222656 C 13.292969 23.222656 12.597656 23.003906 12.101562 22.570312 C 11.605469 22.132812 11.359375 21.582031 11.359375 20.90625 C 11.359375 20.648438 11.378906 20.382812 11.414062 20.105469 C 11.453125 19.835938 11.511719 19.53125 11.59375 19.1875 L 12.515625 15.921875 C 12.597656 15.613281 12.667969 15.3125 12.726562 15.035156 C 12.78125 14.757812 12.808594 14.5 12.808594 14.269531 C 12.808594 13.851562 12.722656 13.5625 12.550781 13.394531 C 12.375 13.234375 12.050781 13.152344 11.5625 13.152344 C 11.324219 13.152344 11.082031 13.1875 10.828125 13.261719 C 10.578125 13.335938 10.363281 13.410156 10.1875 13.476562 L 10.429688 12.46875 C 11.035156 12.222656 11.613281 12.011719 12.167969 11.839844 C 12.71875 11.660156 13.242188 11.574219 13.734375 11.574219 C 14.617188 11.574219 15.304688 11.789062 15.789062 12.21875 C 16.265625 12.644531 16.507812 13.203125 16.507812 13.886719 C 16.507812 14.03125 16.492188 14.277344 16.457031 14.636719 C 16.425781 14.996094 16.363281 15.320312 16.273438 15.621094 L 15.355469 18.875 C 15.28125 19.136719 15.210938 19.433594 15.152344 19.769531 C 15.09375 20.101562 15.0625 20.359375 15.0625 20.53125 C 15.0625 20.960938 15.15625 21.257812 15.355469 21.414062 C 15.542969 21.570312 15.882812 21.648438 16.359375 21.648438 C 16.582031 21.648438 16.835938 21.609375 17.117188 21.53125 C 17.398438 21.453125 17.605469 21.382812 17.730469 21.324219 Z M 17.324219 9.121094 C 16.894531 9.519531 16.378906 9.71875 15.773438 9.71875 C 15.171875 9.71875 14.652344 9.519531 14.222656 9.121094 C 13.792969 8.722656 13.574219 8.238281 13.574219 7.671875 C 13.574219 7.105469 13.792969 6.621094 14.222656 6.222656 C 14.652344 5.816406 15.171875 5.617188 15.773438 5.617188 C 16.378906 5.617188 16.894531 5.816406 17.324219 6.222656 C 17.75 6.621094 17.96875 7.105469 17.96875 7.671875 C 17.96875 8.238281 17.75 8.722656 17.324219 9.121094 Z M 17.324219 9.121094 "/>
</g>
</g>
</svg>
