<?xml version="1.0" encoding="UTF-8"?>
<svg xmlns="http://www.w3.org/2000/svg" xmlns:xlink="http://www.w3.org/1999/xlink" width="58px" height="px" viewBox="0 0 58 58" version="1.1">
<g id="surface1">
<path style=" stroke:none;fill-rule:nonzero;fill:rgb(0.392157%,60.392157%,33.72549%);fill-opacity:1;" d="M 0 0 L 57.96875 0 L 57.96875 57.96875 L 0 57.96875 Z M 0 0 "/>
<path style=" stroke:none;fill-rule:nonzero;fill:rgb(99.607843%,78.039216%,28.627451%);fill-opacity:1;" d="M 16.886719 23.953125 C 16.886719 24.039062 16.878906 24.121094 16.863281 24.207031 C 16.847656 24.292969 16.824219 24.375 16.796875 24.460938 C 16.765625 24.542969 16.726562 24.625 16.683594 24.707031 C 16.636719 24.789062 16.585938 24.871094 16.523438 24.949219 C 16.464844 25.027344 16.398438 25.105469 16.324219 25.179688 C 16.25 25.253906 16.171875 25.328125 16.085938 25.398438 C 15.996094 25.46875 15.902344 25.539062 15.804688 25.605469 C 15.707031 25.671875 15.601562 25.734375 15.492188 25.792969 C 15.382812 25.855469 15.265625 25.910156 15.144531 25.964844 C 15.023438 26.019531 14.898438 26.070312 14.769531 26.117188 C 14.640625 26.164062 14.503906 26.207031 14.367188 26.25 C 14.230469 26.289062 14.089844 26.324219 13.945312 26.359375 C 13.800781 26.390625 13.652344 26.417969 13.503906 26.445312 C 13.355469 26.46875 13.203125 26.488281 13.050781 26.507812 C 12.898438 26.523438 12.742188 26.535156 12.589844 26.542969 C 12.433594 26.550781 12.277344 26.554688 12.121094 26.554688 C 11.964844 26.554688 11.808594 26.550781 11.652344 26.542969 C 11.5 26.535156 11.34375 26.523438 11.191406 26.507812 C 11.039062 26.488281 10.886719 26.46875 10.738281 26.445312 C 10.589844 26.417969 10.441406 26.390625 10.296875 26.359375 C 10.152344 26.324219 10.011719 26.289062 9.875 26.25 C 9.738281 26.207031 9.605469 26.164062 9.472656 26.117188 C 9.34375 26.070312 9.21875 26.019531 9.097656 25.964844 C 8.976562 25.910156 8.863281 25.855469 8.75 25.792969 C 8.640625 25.734375 8.535156 25.671875 8.4375 25.605469 C 8.339844 25.539062 8.246094 25.46875 8.160156 25.398438 C 8.070312 25.328125 7.992188 25.253906 7.917969 25.179688 C 7.84375 25.105469 7.777344 25.027344 7.71875 24.949219 C 7.660156 24.871094 7.605469 24.789062 7.5625 24.707031 C 7.515625 24.625 7.476562 24.542969 7.445312 24.460938 C 7.417969 24.375 7.394531 24.292969 7.378906 24.207031 C 7.363281 24.121094 7.355469 24.039062 7.355469 23.953125 C 7.355469 23.867188 7.363281 23.78125 7.378906 23.695312 C 7.394531 23.613281 7.417969 23.527344 7.445312 23.445312 C 7.476562 23.359375 7.515625 23.277344 7.5625 23.195312 C 7.605469 23.113281 7.660156 23.035156 7.71875 22.957031 C 7.777344 22.875 7.84375 22.800781 7.917969 22.722656 C 7.992188 22.648438 8.070312 22.574219 8.160156 22.503906 C 8.246094 22.433594 8.339844 22.367188 8.4375 22.300781 C 8.535156 22.234375 8.640625 22.171875 8.75 22.109375 C 8.863281 22.050781 8.976562 21.992188 9.097656 21.9375 C 9.21875 21.882812 9.34375 21.832031 9.472656 21.785156 C 9.605469 21.738281 9.738281 21.695312 9.875 21.65625 C 10.011719 21.613281 10.152344 21.578125 10.296875 21.546875 C 10.441406 21.511719 10.589844 21.484375 10.738281 21.460938 C 10.886719 21.433594 11.039062 21.414062 11.191406 21.398438 C 11.34375 21.382812 11.5 21.367188 11.652344 21.359375 C 11.808594 21.351562 11.964844 21.347656 12.121094 21.347656 C 12.277344 21.347656 12.433594 21.351562 12.589844 21.359375 C 12.742188 21.367188 12.898438 21.382812 13.050781 21.398438 C 13.203125 21.414062 13.355469 21.433594 13.503906 21.460938 C 13.652344 21.484375 13.800781 21.511719 13.945312 21.546875 C 14.089844 21.578125 14.230469 21.613281 14.367188 21.65625 C 14.503906 21.695312 14.640625 21.738281 14.769531 21.785156 C 14.898438 21.832031 15.023438 21.882812 15.144531 21.9375 C 15.265625 21.992188 15.382812 22.050781 15.492188 22.109375 C 15.601562 22.171875 15.707031 22.234375 15.804688 22.300781 C 15.902344 22.367188 15.996094 22.433594 16.085938 22.503906 C 16.171875 22.574219 16.25 22.648438 16.324219 22.722656 C 16.398438 22.800781 16.464844 22.875 16.523438 22.957031 C 16.585938 23.035156 16.636719 23.113281 16.683594 23.195312 C 16.726562 23.277344 16.765625 23.359375 16.796875 23.445312 C 16.824219 23.527344 16.847656 23.613281 16.863281 23.695312 C 16.878906 23.78125 16.886719 23.867188 16.886719 23.953125 Z M 16.886719 23.953125 "/>
<path style=" stroke:none;fill-rule:nonzero;fill:rgb(99.607843%,78.039216%,28.627451%);fill-opacity:1;" d="M 49.429688 22.976562 C 49.429688 23.0625 49.421875 23.144531 49.40625 23.230469 C 49.390625 23.316406 49.367188 23.398438 49.335938 23.484375 C 49.308594 23.566406 49.269531 23.648438 49.222656 23.730469 C 49.179688 23.8125 49.125 23.894531 49.066406 23.972656 C 49.007812 24.050781 48.941406 24.128906 48.867188 24.203125 C 48.792969 24.277344 48.710938 24.351562 48.625 24.421875 C 48.539062 24.492188 48.445312 24.5625 48.347656 24.628906 C 48.25 24.695312 48.144531 24.757812 48.03125 24.816406 C 47.921875 24.878906 47.808594 24.933594 47.6875 24.988281 C 47.566406 25.042969 47.441406 25.09375 47.3125 25.140625 C 47.179688 25.1875 47.046875 25.230469 46.910156 25.273438 C 46.773438 25.3125 46.632812 25.347656 46.488281 25.382812 C 46.34375 25.414062 46.195312 25.441406 46.046875 25.46875 C 45.898438 25.492188 45.746094 25.511719 45.59375 25.53125 C 45.441406 25.546875 45.285156 25.558594 45.128906 25.566406 C 44.976562 25.574219 44.820312 25.578125 44.664062 25.578125 C 44.507812 25.578125 44.351562 25.574219 44.195312 25.566406 C 44.039062 25.558594 43.886719 25.546875 43.734375 25.53125 C 43.582031 25.511719 43.429688 25.492188 43.28125 25.46875 C 43.128906 25.441406 42.984375 25.414062 42.839844 25.382812 C 42.695312 25.347656 42.554688 25.3125 42.417969 25.273438 C 42.28125 25.230469 42.144531 25.1875 42.015625 25.140625 C 41.886719 25.09375 41.761719 25.042969 41.640625 24.988281 C 41.519531 24.933594 41.402344 24.878906 41.292969 24.816406 C 41.183594 24.757812 41.078125 24.695312 40.980469 24.628906 C 40.878906 24.5625 40.789062 24.492188 40.699219 24.421875 C 40.613281 24.351562 40.535156 24.277344 40.460938 24.203125 C 40.386719 24.128906 40.320312 24.050781 40.261719 23.972656 C 40.199219 23.894531 40.148438 23.8125 40.101562 23.730469 C 40.058594 23.648438 40.019531 23.566406 39.988281 23.484375 C 39.957031 23.398438 39.9375 23.316406 39.921875 23.230469 C 39.90625 23.144531 39.898438 23.0625 39.898438 22.976562 C 39.898438 22.890625 39.90625 22.804688 39.921875 22.71875 C 39.9375 22.636719 39.957031 22.550781 39.988281 22.46875 C 40.019531 22.382812 40.058594 22.300781 40.101562 22.21875 C 40.148438 22.136719 40.199219 22.058594 40.261719 21.980469 C 40.320312 21.898438 40.386719 21.824219 40.460938 21.746094 C 40.535156 21.671875 40.613281 21.597656 40.699219 21.527344 C 40.789062 21.457031 40.878906 21.390625 40.980469 21.324219 C 41.078125 21.257812 41.183594 21.195312 41.292969 21.132812 C 41.402344 21.074219 41.519531 21.015625 41.640625 20.960938 C 41.761719 20.90625 41.886719 20.855469 42.015625 20.808594 C 42.144531 20.761719 42.28125 20.71875 42.417969 20.679688 C 42.554688 20.636719 42.695312 20.601562 42.839844 20.570312 C 42.984375 20.535156 43.128906 20.507812 43.28125 20.484375 C 43.429688 20.457031 43.582031 20.4375 43.734375 20.421875 C 43.886719 20.40625 44.039062 20.390625 44.195312 20.382812 C 44.351562 20.375 44.507812 20.371094 44.664062 20.371094 C 44.820312 20.371094 44.976562 20.375 45.128906 20.382812 C 45.285156 20.390625 45.441406 20.40625 45.59375 20.421875 C 45.746094 20.4375 45.898438 20.457031 46.046875 20.484375 C 46.195312 20.507812 46.34375 20.535156 46.488281 20.570312 C 46.632812 20.601562 46.773438 20.636719 46.910156 20.679688 C 47.046875 20.71875 47.179688 20.761719 47.3125 20.808594 C 47.441406 20.855469 47.566406 20.90625 47.6875 20.960938 C 47.808594 21.015625 47.921875 21.074219 48.03125 21.132812 C 48.144531 21.195312 48.25 21.257812 48.347656 21.324219 C 48.445312 21.390625 48.539062 21.457031 48.625 21.527344 C 48.710938 21.597656 48.792969 21.671875 48.867188 21.746094 C 48.941406 21.824219 49.007812 21.898438 49.066406 21.980469 C 49.125 22.058594 49.179688 22.136719 49.222656 22.21875 C 49.269531 22.300781 49.308594 22.382812 49.335938 22.46875 C 49.367188 22.550781 49.390625 22.636719 49.40625 22.71875 C 49.421875 22.804688 49.429688 22.890625 49.429688 22.976562 Z M 49.429688 22.976562 "/>
<path style="fill:none;stroke-width:6;stroke-linecap:butt;stroke-linejoin:miter;stroke:rgb(0%,0%,0%);stroke-opacity:1;stroke-miterlimit:10;" d="M 137.639499 87.779059 C 137.639499 97.098974 131.316058 104.656257 123.560478 104.656257 C 115.782866 104.656257 109.459425 97.098974 109.459425 87.779059 " transform="matrix(0.177292,0,0,0.177292,0.000000695629,0)"/>
<path style="fill:none;stroke-width:6;stroke-linecap:butt;stroke-linejoin:miter;stroke:rgb(0%,0%,0%);stroke-opacity:1;stroke-miterlimit:10;" d="M 203.892418 87.779059 C 203.892418 97.098974 197.59101 104.656257 189.813398 104.656257 C 182.057818 104.656257 175.734377 97.098974 175.734377 87.779059 " transform="matrix(0.177292,0,0,0.177292,0.000000695629,0)"/>
<path style="fill:none;stroke-width:6;stroke-linecap:butt;stroke-linejoin:miter;stroke:rgb(0%,0%,0%);stroke-opacity:1;stroke-miterlimit:10;" d="M 178.180028 144.205306 C 178.180028 155.750544 170.04989 165.136558 160.046955 165.136558 C 150.021987 165.136558 141.913881 155.750544 141.913881 144.205306 " transform="matrix(0.177292,0,0,0.177292,0.000000695629,0)"/>
</g>
</svg>
