<?xml version="1.0" encoding="UTF-8"?><svg xmlns="http://www.w3.org/2000/svg" xmlns:xlink="http://www.w3.org/1999/xlink" width="150pt" zoomAndPan="magnify" viewBox="0 0 150 149.999998" height="149.999998pt" preserveAspectRatio="xMidYMid meet" version="1.2"><defs><clipPath xml:id="clip1" id="clip1"><path d="M 97 16.734375 L 120 16.734375 L 120 38 L 97 38 Z M 97 16.734375 "/></clipPath></defs><g xml:id="surface1" id="surface1"><path style=" stroke:none;fill-rule:nonzero;fill:rgb(2.749634%,47.059631%,78.039551%);fill-opacity:1;" d="M 0.960938 86.851562 L 5.722656 90.757812 C 7.742188 92.417969 9.957031 93.75 12.371094 94.75 L 12.84375 94.941406 C 14.152344 95.480469 15.496094 95.914062 16.875 96.234375 L 32.636719 99.929688 L 35.417969 97.273438 L 18.464844 93.078125 C 17.171875 92.757812 15.910156 92.34375 14.683594 91.835938 C 12.46875 90.914062 10.421875 89.714844 8.539062 88.234375 L 2.746094 83.683594 C 2.023438 83.3125 2.847656 84.144531 2.257812 84.710938 L 0.550781 84 C 0.449219 84.097656 0.359375 84.207031 0.285156 84.324219 C 0.210938 84.445312 0.148438 84.570312 0.101562 84.703125 C 0.0546875 84.835938 0.0273438 84.972656 0.0117188 85.113281 C 0 85.253906 0.00390625 85.390625 0.0234375 85.53125 C 0.0429688 85.671875 0.078125 85.804688 0.132812 85.9375 C 0.183594 86.066406 0.25 86.191406 0.332031 86.304688 C 0.414062 86.417969 0.507812 86.523438 0.613281 86.613281 C 0.722656 86.707031 0.835938 86.785156 0.960938 86.851562 Z M 0.960938 86.851562 "/><path style=" stroke:none;fill-rule:nonzero;fill:rgb(2.749634%,47.059631%,78.039551%);fill-opacity:1;" d="M 147.152344 84.21875 L 142.390625 88.125 C 140.371094 89.785156 138.152344 91.113281 135.734375 92.109375 L 135.261719 92.304688 C 133.953125 92.84375 132.609375 93.273438 131.234375 93.597656 L 115.46875 97.289062 L 112.6875 94.632812 L 129.648438 90.441406 C 130.941406 90.125 132.203125 89.714844 133.429688 89.207031 C 135.640625 88.289062 137.691406 87.089844 139.574219 85.609375 L 145.363281 81.054688 C 146.089844 80.679688 145.265625 81.515625 145.855469 82.078125 L 147.5625 81.371094 C 147.664062 81.46875 147.75 81.574219 147.828125 81.695312 C 147.902344 81.8125 147.964844 81.9375 148.007812 82.070312 C 148.054688 82.203125 148.085938 82.339844 148.097656 82.480469 C 148.109375 82.621094 148.109375 82.761719 148.085938 82.898438 C 148.066406 83.039062 148.03125 83.175781 147.980469 83.304688 C 147.925781 83.433594 147.859375 83.558594 147.777344 83.671875 C 147.695312 83.785156 147.601562 83.890625 147.496094 83.980469 C 147.390625 84.074219 147.277344 84.152344 147.152344 84.21875 Z M 147.152344 84.21875 "/><path style=" stroke:none;fill-rule:nonzero;fill:rgb(2.749634%,47.059631%,78.039551%);fill-opacity:1;" d="M 56.8125 126.847656 L 56.875 145.625 L 47.445312 150.234375 L 64.640625 150.234375 L 64.644531 129.769531 Z M 56.8125 126.847656 "/><path style=" stroke:none;fill-rule:nonzero;fill:rgb(2.749634%,47.059631%,78.039551%);fill-opacity:1;" d="M 91.597656 126.828125 L 91.597656 145.609375 L 101.027344 150.21875 L 83.832031 150.21875 L 83.84375 130.078125 Z M 91.597656 126.828125 "/><path style=" stroke:none;fill-rule:nonzero;fill:rgb(100%,56.079102%,61.569214%);fill-opacity:1;" d="M 126.695312 82.53125 C 126.695312 87.742188 118.679688 91.621094 117.15625 96.324219 C 115.574219 101.199219 119.730469 109.046875 116.78125 113.097656 C 113.804688 117.195312 105.050781 115.644531 100.964844 118.636719 C 96.914062 121.589844 95.695312 130.421875 90.828125 132.007812 C 86.132812 133.535156 79.984375 127.152344 74.78125 127.152344 C 69.578125 127.152344 63.4375 133.535156 58.738281 132.007812 C 53.871094 130.421875 52.652344 121.589844 48.601562 118.636719 C 44.511719 115.652344 35.757812 117.203125 32.78125 113.097656 C 29.832031 109.039062 33.988281 101.191406 32.410156 96.324219 C 30.882812 91.621094 22.867188 87.742188 22.867188 82.53125 C 22.867188 77.320312 30.886719 73.441406 32.410156 68.742188 C 33.992188 63.871094 29.835938 56.023438 32.785156 51.972656 C 35.761719 47.875 44.515625 49.421875 48.601562 46.433594 C 52.652344 43.480469 53.871094 34.644531 58.742188 33.0625 C 63.4375 31.527344 69.582031 37.90625 74.78125 37.90625 C 79.984375 37.90625 86.132812 31.527344 90.828125 33.054688 C 95.695312 34.636719 96.914062 43.472656 100.964844 46.425781 C 105.054688 49.40625 113.808594 47.859375 116.785156 51.964844 C 119.730469 56.023438 115.578125 63.871094 117.15625 68.734375 C 118.679688 73.441406 126.695312 77.316406 126.695312 82.53125 Z M 126.695312 82.53125 "/><path style=" stroke:none;fill-rule:nonzero;fill:rgb(100%,41.178894%,23.139954%);fill-opacity:1;" d="M 146.507812 56.910156 C 146.507812 57.527344 139.21875 56.992188 139.035156 57.554688 C 138.855469 58.117188 145.054688 61.992188 144.703125 62.476562 C 144.351562 62.964844 138.769531 58.238281 138.28125 58.589844 C 137.792969 58.9375 140.5625 65.71875 139.984375 65.90625 C 139.402344 66.097656 137.679688 58.984375 137.066406 58.984375 C 136.449219 58.984375 134.707031 66.089844 134.144531 65.90625 C 133.585938 65.726562 136.332031 58.945312 135.847656 58.589844 C 135.363281 58.230469 129.777344 62.960938 129.421875 62.46875 C 129.070312 61.980469 135.277344 58.132812 135.089844 57.546875 C 134.902344 56.960938 127.617188 57.523438 127.617188 56.902344 C 127.617188 56.28125 134.90625 56.820312 135.089844 56.261719 C 135.269531 55.699219 129.070312 51.824219 129.421875 51.335938 C 129.777344 50.851562 135.359375 55.574219 135.847656 55.21875 C 136.335938 54.863281 133.5625 48.089844 134.144531 47.898438 C 134.726562 47.710938 136.449219 54.824219 137.0625 54.824219 C 137.675781 54.824219 139.421875 47.71875 139.980469 47.898438 C 140.539062 48.082031 137.792969 54.867188 138.277344 55.21875 C 138.761719 55.570312 144.347656 50.847656 144.703125 51.335938 C 145.058594 51.824219 138.847656 55.675781 139.035156 56.261719 C 139.222656 56.84375 146.507812 56.289062 146.507812 56.910156 Z M 146.507812 56.910156 "/><path style=" stroke:none;fill-rule:nonzero;fill:rgb(100%,56.079102%,61.569214%);fill-opacity:1;" d="M 148.195312 22.710938 C 148.71875 23.460938 142.449219 27.199219 142.640625 28.058594 C 142.832031 28.921875 150.113281 29.507812 149.992188 30.40625 C 149.878906 31.269531 142.628906 30.078125 142.242188 30.90625 C 141.875 31.695312 147.53125 36.417969 146.933594 37.113281 C 146.371094 37.769531 140.804688 32.941406 140.050781 33.46875 C 139.296875 33.992188 141.894531 40.898438 141.085938 41.199219 C 140.226562 41.519531 137.757812 34.570312 136.894531 34.644531 C 135.984375 34.722656 134.589844 41.949219 133.746094 41.757812 C 132.863281 41.5625 134.832031 34.511719 134.089844 34.035156 C 133.347656 33.554688 127.679688 38.160156 127.15625 37.410156 C 126.636719 36.660156 132.90625 32.921875 132.714844 32.058594 C 132.523438 31.199219 125.242188 30.609375 125.359375 29.710938 C 125.476562 28.847656 132.734375 30.039062 133.109375 29.210938 C 133.472656 28.429688 127.828125 23.703125 128.421875 23.007812 C 128.984375 22.351562 134.550781 27.179688 135.304688 26.652344 C 136.058594 26.125 133.464844 19.222656 134.269531 18.917969 C 135.128906 18.601562 137.597656 25.546875 138.460938 25.476562 C 139.371094 25.398438 140.765625 18.171875 141.609375 18.363281 C 142.492188 18.558594 140.523438 25.605469 141.265625 26.085938 C 142.003906 26.5625 147.675781 21.964844 148.195312 22.710938 Z M 148.195312 22.710938 "/><g clip-rule="nonzero" clip-path="url(#clip1)"><path style=" stroke:none;fill-rule:nonzero;fill:rgb(99.609375%,78.039551%,28.62854%);fill-opacity:1;" d="M 119.628906 27.058594 C 119.628906 27.828125 112.316406 27.433594 112.089844 28.136719 C 111.859375 28.859375 117.996094 32.84375 117.5625 33.445312 C 117.125 34.042969 111.4375 29.425781 110.832031 29.867188 C 110.226562 30.308594 112.871094 37.152344 112.148438 37.382812 C 111.453125 37.609375 109.574219 30.527344 108.800781 30.527344 C 108.03125 30.527344 106.152344 37.605469 105.457031 37.382812 C 104.738281 37.152344 107.375 30.304688 106.773438 29.867188 C 106.171875 29.429688 100.484375 34.050781 100.042969 33.445312 C 99.601562 32.835938 105.75 28.851562 105.519531 28.128906 C 105.292969 27.433594 97.980469 27.824219 97.980469 27.054688 C 97.980469 26.285156 105.292969 26.679688 105.519531 25.976562 C 105.753906 25.253906 99.613281 21.269531 100.050781 20.667969 C 100.484375 20.066406 106.175781 24.683594 106.78125 24.242188 C 107.386719 23.800781 104.738281 16.976562 105.457031 16.734375 C 106.152344 16.507812 108.03125 23.59375 108.800781 23.59375 C 109.570312 23.59375 111.453125 16.511719 112.148438 16.734375 C 112.871094 16.96875 110.234375 23.8125 110.832031 24.25 C 111.429688 24.691406 117.121094 20.074219 117.5625 20.679688 C 118.003906 21.285156 111.859375 25.265625 112.089844 25.988281 C 112.316406 26.683594 119.628906 26.289062 119.628906 27.058594 Z M 119.628906 27.058594 "/></g><path style="fill:none;stroke-width:10;stroke-linecap:butt;stroke-linejoin:round;stroke:rgb(0%,0%,0%);stroke-opacity:1;stroke-miterlimit:4;" d="M 441.920437 336.592687 C 441.920437 355.073868 424.651348 370.051748 403.363827 370.051748 C 382.076306 370.051748 364.832651 355.048482 364.832651 336.592687 " transform="matrix(0.153589,0,0,0.153873,0.00474314,16.734903)"/><path style="fill:none;stroke-width:10;stroke-linecap:butt;stroke-linejoin:round;stroke:rgb(0%,0%,0%);stroke-opacity:1;stroke-miterlimit:4;" d="M 610.923516 336.592687 C 610.923516 355.073868 593.654428 370.051748 572.366907 370.051748 C 551.079386 370.051748 533.810297 355.048482 533.810297 336.592687 " transform="matrix(0.153589,0,0,0.153873,0.00474314,16.734903)"/><path style="fill:none;stroke-width:11;stroke-linecap:round;stroke-linejoin:round;stroke:rgb(0%,0%,0%);stroke-opacity:1;stroke-miterlimit:4;" d="M 555.860812 448.063655 C 555.860812 469.743502 527.019655 487.336165 491.387854 487.336165 C 455.781487 487.336165 426.914896 469.743502 426.914896 448.063655 " transform="matrix(0.153589,0,0,0.153873,0.00474314,16.734903)"/><path style="fill:none;stroke-width:10;stroke-linecap:round;stroke-linejoin:round;stroke:rgb(0%,0%,0%);stroke-opacity:1;stroke-miterlimit:4;" d="M 575.011951 456.618817 C 571.909111 456.618817 568.958869 456.009548 566.110359 454.841781 C 563.26185 453.674014 560.743971 451.973136 558.556723 449.815306 C 556.394908 447.632089 554.690889 445.118852 553.520965 442.275593 C 552.351042 439.406949 551.740647 436.462145 551.740647 433.365024 " transform="matrix(0.153589,0,0,0.153873,0.00474314,16.734903)"/><path style="fill:none;stroke-width:10;stroke-linecap:round;stroke-linejoin:round;stroke:rgb(0%,0%,0%);stroke-opacity:1;stroke-miterlimit:4;" d="M 406.339502 458.928965 C 409.442343 458.928965 412.392585 458.345082 415.241094 457.151928 C 418.089603 455.984162 420.607482 454.30867 422.794731 452.125453 C 424.981979 449.942237 426.660565 447.429 427.830488 444.585741 C 429.000412 441.717096 429.610807 438.772293 429.610807 435.675172 " transform="matrix(0.153589,0,0,0.153873,0.00474314,16.734903)"/><path style=" stroke:none;fill-rule:nonzero;fill:rgb(2.749634%,47.059631%,78.039551%);fill-opacity:1;" d="M 105.953125 77.777344 C 105.953125 78.015625 105.921875 78.25 105.859375 78.484375 C 105.796875 78.714844 105.703125 78.941406 105.582031 79.160156 C 105.457031 79.382812 105.308594 79.589844 105.128906 79.785156 C 104.949219 79.984375 104.746094 80.167969 104.519531 80.335938 C 104.292969 80.503906 104.046875 80.652344 103.78125 80.785156 C 103.515625 80.917969 103.230469 81.027344 102.9375 81.117188 C 102.640625 81.210938 102.335938 81.277344 102.019531 81.324219 C 101.703125 81.371094 101.386719 81.394531 101.066406 81.394531 C 100.746094 81.394531 100.429688 81.371094 100.113281 81.324219 C 99.796875 81.277344 99.492188 81.210938 99.195312 81.117188 C 98.898438 81.027344 98.617188 80.917969 98.351562 80.785156 C 98.085938 80.652344 97.839844 80.503906 97.613281 80.335938 C 97.386719 80.167969 97.183594 79.984375 97.003906 79.785156 C 96.824219 79.589844 96.675781 79.382812 96.550781 79.160156 C 96.429688 78.941406 96.335938 78.714844 96.273438 78.484375 C 96.210938 78.25 96.179688 78.015625 96.179688 77.777344 C 96.179688 77.539062 96.210938 77.304688 96.273438 77.074219 C 96.335938 76.839844 96.429688 76.613281 96.550781 76.394531 C 96.675781 76.175781 96.824219 75.964844 97.003906 75.769531 C 97.183594 75.570312 97.386719 75.390625 97.613281 75.222656 C 97.839844 75.054688 98.085938 74.902344 98.351562 74.769531 C 98.617188 74.640625 98.898438 74.527344 99.195312 74.4375 C 99.492188 74.347656 99.796875 74.277344 100.113281 74.230469 C 100.429688 74.183594 100.746094 74.160156 101.066406 74.160156 C 101.386719 74.160156 101.703125 74.183594 102.019531 74.230469 C 102.335938 74.277344 102.640625 74.347656 102.9375 74.4375 C 103.230469 74.527344 103.515625 74.640625 103.78125 74.769531 C 104.046875 74.902344 104.292969 75.054688 104.519531 75.222656 C 104.746094 75.390625 104.949219 75.570312 105.128906 75.769531 C 105.308594 75.964844 105.457031 76.175781 105.582031 76.394531 C 105.703125 76.613281 105.796875 76.839844 105.859375 77.074219 C 105.921875 77.304688 105.953125 77.539062 105.953125 77.777344 Z M 105.953125 77.777344 "/><path style=" stroke:none;fill-rule:nonzero;fill:rgb(2.749634%,47.059631%,78.039551%);fill-opacity:1;" d="M 54.347656 80.238281 C 54.347656 80.476562 54.316406 80.710938 54.253906 80.945312 C 54.191406 81.179688 54.097656 81.402344 53.972656 81.625 C 53.851562 81.84375 53.699219 82.050781 53.523438 82.25 C 53.34375 82.445312 53.140625 82.628906 52.914062 82.796875 C 52.6875 82.964844 52.441406 83.113281 52.175781 83.246094 C 51.90625 83.378906 51.625 83.488281 51.332031 83.582031 C 51.035156 83.671875 50.726562 83.738281 50.414062 83.785156 C 50.097656 83.832031 49.78125 83.855469 49.460938 83.855469 C 49.140625 83.855469 48.820312 83.832031 48.507812 83.785156 C 48.191406 83.738281 47.886719 83.671875 47.589844 83.582031 C 47.292969 83.488281 47.011719 83.378906 46.746094 83.246094 C 46.480469 83.113281 46.234375 82.964844 46.003906 82.796875 C 45.777344 82.628906 45.578125 82.445312 45.398438 82.25 C 45.21875 82.050781 45.070312 81.84375 44.945312 81.625 C 44.824219 81.402344 44.730469 81.179688 44.667969 80.945312 C 44.605469 80.710938 44.574219 80.476562 44.574219 80.238281 C 44.574219 80.003906 44.605469 79.765625 44.667969 79.535156 C 44.730469 79.300781 44.824219 79.074219 44.945312 78.855469 C 45.070312 78.636719 45.21875 78.429688 45.398438 78.230469 C 45.578125 78.035156 45.777344 77.851562 46.003906 77.683594 C 46.234375 77.515625 46.480469 77.363281 46.746094 77.234375 C 47.011719 77.101562 47.292969 76.988281 47.589844 76.898438 C 47.886719 76.808594 48.191406 76.738281 48.507812 76.691406 C 48.820312 76.648438 49.140625 76.625 49.460938 76.625 C 49.78125 76.625 50.097656 76.648438 50.414062 76.691406 C 50.726562 76.738281 51.035156 76.808594 51.332031 76.898438 C 51.625 76.988281 51.90625 77.101562 52.175781 77.234375 C 52.441406 77.363281 52.6875 77.515625 52.914062 77.683594 C 53.140625 77.851562 53.34375 78.035156 53.523438 78.230469 C 53.699219 78.429688 53.851562 78.636719 53.972656 78.855469 C 54.097656 79.074219 54.191406 79.300781 54.253906 79.535156 C 54.316406 79.765625 54.347656 80.003906 54.347656 80.238281 Z M 54.347656 80.238281 "/></g></svg>