<?xml version="1.0" encoding="UTF-8"?>
<svg xmlns="http://www.w3.org/2000/svg" xmlns:xlink="http://www.w3.org/1999/xlink" width="125pt" height="125pt" viewBox="0 0 125 125" version="1.1">
<g id="surface1">
<path style=" stroke:none;fill-rule:nonzero;fill:rgb(100%,79.607843%,80.392157%);fill-opacity:1;" d="M 94.996094 89.453125 L 22.550781 89.453125 C 13.792969 89.453125 6.703125 82.359375 6.703125 73.609375 L 6.703125 28.335938 C 6.703125 19.585938 13.792969 12.492188 22.550781 12.492188 L 94.996094 12.492188 C 103.75 12.492188 110.84375 19.585938 110.84375 28.335938 L 110.84375 73.609375 C 110.84375 82.359375 103.75 89.453125 94.996094 89.453125 Z M 94.996094 89.453125 "/>
<path style=" stroke:none;fill-rule:nonzero;fill:rgb(100%,79.607843%,80.392157%);fill-opacity:1;" d="M 94.996094 113.292969 L 22.550781 113.292969 C 13.792969 113.292969 6.703125 106.199219 6.703125 97.445312 L 6.703125 52.175781 C 6.703125 43.421875 13.792969 36.332031 22.550781 36.332031 L 94.996094 36.332031 C 103.75 36.332031 110.84375 43.421875 110.84375 52.175781 L 110.84375 97.445312 C 110.84375 106.199219 103.75 113.292969 94.996094 113.292969 Z M 94.996094 113.292969 "/>
<path style=" stroke:none;fill-rule:nonzero;fill:rgb(2.745098%,47.058824%,78.039216%);fill-opacity:1;" d="M 75.316406 96.109375 L 68.441406 105.632812 L 65.621094 105.121094 L 70.683594 110.828125 L 78.214844 100.472656 Z M 75.316406 96.109375 "/>
<path style=" stroke:none;fill-rule:nonzero;fill:rgb(2.745098%,47.058824%,78.039216%);fill-opacity:1;" d="M 95.683594 96.058594 L 104.203125 104.152344 L 107.882812 104.425781 L 102.957031 109.667969 L 93.644531 100.882812 Z M 95.683594 96.058594 "/>
<path style=" stroke:none;fill-rule:nonzero;fill:rgb(93.72549%,45.098039%,55.686275%);fill-opacity:1;" d="M 109.640625 89.207031 L 87.730469 80.589844 L 98.917969 49.4375 L 120.828125 58.054688 Z M 109.640625 89.207031 "/>
<path style=" stroke:none;fill-rule:nonzero;fill:rgb(99.607843%,78.039216%,28.627451%);fill-opacity:1;" d="M 41.332031 100.6875 L 123.261719 100.6875 L 82.296875 26.183594 Z M 41.332031 100.6875 "/>
<path style="fill:none;stroke-width:10;stroke-linecap:butt;stroke-linejoin:round;stroke:rgb(0%,0%,0%);stroke-opacity:1;stroke-miterlimit:4;" d="M 307.605044 154.342837 C 312.313154 168.502886 306.590122 183.142458 294.777556 187.091476 C 282.964991 191.040493 269.60185 182.775764 264.865547 168.615715 " transform="matrix(0.138557,0,0,0.138484,41.332159,26.18461)"/>
<path style="fill:none;stroke-width:10;stroke-linecap:butt;stroke-linejoin:round;stroke:rgb(0%,0%,0%);stroke-opacity:1;stroke-miterlimit:4;" d="M 408.138713 120.776187 C 412.846824 134.908029 407.123791 149.575808 395.311226 153.524826 C 383.498661 157.445636 370.13552 149.180907 365.399217 134.99265 " transform="matrix(0.138557,0,0,0.138484,41.332159,26.18461)"/>
<path style="fill:none;stroke-width:5;stroke-linecap:round;stroke-linejoin:round;stroke:rgb(0%,0%,0%);stroke-opacity:1;stroke-miterlimit:4;" d="M 327.988062 286.747756 C 325.507141 301.443743 323.674643 315.744828 316.147304 314.447294 C 308.619966 313.177967 308.789119 299.158954 311.298232 284.43476 " transform="matrix(0.138557,0,0,0.138484,41.332159,26.18461)"/>
<path style=" stroke:none;fill-rule:nonzero;fill:rgb(0.392157%,60.392157%,33.72549%);fill-opacity:1;" d="M 105.710938 50.308594 C 105.746094 50.519531 105.753906 50.734375 105.730469 50.949219 C 105.710938 51.164062 105.660156 51.378906 105.582031 51.59375 C 105.503906 51.804688 105.402344 52.011719 105.269531 52.214844 C 105.140625 52.414062 104.988281 52.605469 104.808594 52.789062 C 104.632812 52.96875 104.433594 53.140625 104.214844 53.296875 C 103.996094 53.453125 103.761719 53.59375 103.511719 53.714844 C 103.261719 53.839844 103 53.945312 102.726562 54.03125 C 102.453125 54.121094 102.175781 54.1875 101.886719 54.234375 C 101.601562 54.28125 101.316406 54.304688 101.03125 54.308594 C 100.742188 54.316406 100.460938 54.296875 100.183594 54.261719 C 99.90625 54.222656 99.640625 54.164062 99.382812 54.085938 C 99.125 54.007812 98.882812 53.910156 98.660156 53.796875 C 98.433594 53.679688 98.226562 53.546875 98.039062 53.398438 C 97.851562 53.246094 97.6875 53.085938 97.546875 52.90625 C 97.402344 52.730469 97.289062 52.542969 97.199219 52.347656 C 97.109375 52.148438 97.046875 51.945312 97.011719 51.734375 C 96.976562 51.523438 96.972656 51.308594 96.992188 51.09375 C 97.015625 50.875 97.066406 50.664062 97.140625 50.449219 C 97.21875 50.238281 97.324219 50.03125 97.453125 49.828125 C 97.582031 49.628906 97.738281 49.4375 97.914062 49.253906 C 98.09375 49.070312 98.289062 48.902344 98.507812 48.746094 C 98.726562 48.589844 98.960938 48.449219 99.210938 48.328125 C 99.460938 48.203125 99.722656 48.097656 99.996094 48.007812 C 100.269531 47.921875 100.550781 47.855469 100.835938 47.808594 C 101.121094 47.761719 101.40625 47.738281 101.695312 47.730469 C 101.980469 47.726562 102.261719 47.742188 102.539062 47.78125 C 102.816406 47.820312 103.085938 47.875 103.34375 47.953125 C 103.597656 48.035156 103.839844 48.128906 104.066406 48.246094 C 104.292969 48.363281 104.5 48.496094 104.6875 48.644531 C 104.875 48.792969 105.039062 48.957031 105.179688 49.132812 C 105.320312 49.3125 105.4375 49.5 105.527344 49.695312 C 105.617188 49.894531 105.679688 50.097656 105.710938 50.308594 Z M 105.710938 50.308594 "/>
<path style=" stroke:none;fill-rule:nonzero;fill:rgb(0.392157%,60.392157%,33.72549%);fill-opacity:1;" d="M 77.304688 59.171875 C 77.339844 59.382812 77.347656 59.59375 77.324219 59.8125 C 77.304688 60.027344 77.253906 60.242188 77.175781 60.453125 C 77.097656 60.667969 76.996094 60.875 76.867188 61.074219 C 76.734375 61.277344 76.582031 61.46875 76.40625 61.648438 C 76.226562 61.832031 76.027344 62 75.808594 62.15625 C 75.59375 62.3125 75.359375 62.453125 75.105469 62.578125 C 74.855469 62.699219 74.59375 62.804688 74.320312 62.894531 C 74.046875 62.980469 73.769531 63.046875 73.484375 63.09375 C 73.195312 63.140625 72.910156 63.167969 72.625 63.171875 C 72.335938 63.175781 72.054688 63.160156 71.777344 63.121094 C 71.5 63.085938 71.234375 63.027344 70.976562 62.949219 C 70.722656 62.871094 70.480469 62.773438 70.253906 62.65625 C 70.027344 62.539062 69.820312 62.40625 69.632812 62.257812 C 69.445312 62.109375 69.28125 61.945312 69.140625 61.769531 C 69 61.59375 68.882812 61.40625 68.792969 61.207031 C 68.703125 61.007812 68.640625 60.804688 68.605469 60.59375 C 68.574219 60.382812 68.566406 60.167969 68.585938 59.953125 C 68.609375 59.738281 68.660156 59.523438 68.738281 59.3125 C 68.8125 59.097656 68.917969 58.890625 69.046875 58.691406 C 69.179688 58.488281 69.332031 58.296875 69.507812 58.113281 C 69.6875 57.933594 69.882812 57.761719 70.101562 57.605469 C 70.320312 57.449219 70.554688 57.3125 70.804688 57.1875 C 71.054688 57.0625 71.320312 56.957031 71.59375 56.871094 C 71.867188 56.785156 72.144531 56.71875 72.429688 56.671875 C 72.714844 56.625 73 56.597656 73.289062 56.59375 C 73.574219 56.589844 73.859375 56.605469 74.136719 56.644531 C 74.414062 56.679688 74.679688 56.738281 74.933594 56.816406 C 75.191406 56.894531 75.433594 56.992188 75.660156 57.109375 C 75.886719 57.226562 76.09375 57.359375 76.28125 57.503906 C 76.46875 57.65625 76.632812 57.816406 76.773438 57.996094 C 76.914062 58.171875 77.03125 58.359375 77.121094 58.558594 C 77.207031 58.753906 77.269531 58.960938 77.304688 59.171875 Z M 77.304688 59.171875 "/>
<path style="fill:none;stroke-width:8;stroke-linecap:round;stroke-linejoin:round;stroke:rgb(0%,0%,0%);stroke-opacity:1;stroke-miterlimit:4;" d="M 295.792478 272.503085 C 306.026276 277.157285 316.71115 280.175462 327.8471 281.557619 C 339.011243 282.939775 350.090809 282.657702 361.170375 280.654986 L 364.32791 280.062633 C 375.57663 277.947088 386.233312 274.139107 396.326148 268.666897 C 406.390792 263.222894 415.384129 256.34032 423.30616 248.075591 L 424.800351 246.524191 " transform="matrix(0.138557,0,0,0.138484,41.332159,26.18461)"/>
<path style="fill:none;stroke-width:8;stroke-linecap:round;stroke-linejoin:round;stroke:rgb(0%,0%,0%);stroke-opacity:1;stroke-miterlimit:4;" d="M 295.087671 256.14287 C 295.538748 257.299368 295.877055 258.51228 296.102593 259.725193 C 296.356324 260.938105 296.440901 262.179225 296.440901 263.420345 C 296.412709 264.689672 296.299939 265.902584 296.018017 267.143704 C 295.764286 268.356617 295.397786 269.541322 294.918518 270.69782 C 294.411057 271.826111 293.819019 272.926194 293.114212 273.941656 C 292.409405 274.985325 291.620021 275.944372 290.717868 276.818797 C 289.843907 277.693223 288.857178 278.454819 287.814063 279.131794 C 286.770949 279.808768 285.67145 280.372913 284.515566 280.852437 " transform="matrix(0.138557,0,0,0.138484,41.332159,26.18461)"/>
<path style=" stroke:none;fill-rule:nonzero;fill:rgb(100%,56.078431%,61.568627%);fill-opacity:1;" d="M 90.5625 57.898438 L 121.042969 57.898438 L 121.042969 90.996094 L 90.5625 90.996094 Z M 90.5625 57.898438 "/>
<path style=" stroke:none;fill-rule:nonzero;fill:rgb(2.745098%,47.058824%,78.039216%);fill-opacity:1;" d="M 92.089844 73.902344 L 88.640625 78.253906 C 87.175781 80.097656 85.472656 81.691406 83.53125 83.027344 L 83.152344 83.289062 C 82.101562 84.011719 81.003906 84.644531 79.851562 85.1875 L 66.652344 91.4375 L 63.695312 89.636719 L 77.847656 82.722656 C 78.925781 82.195312 79.957031 81.59375 80.945312 80.90625 C 82.71875 79.675781 84.292969 78.230469 85.671875 76.566406 L 89.910156 71.460938 C 90.476562 70.992188 89.910156 71.886719 90.535156 72.265625 L 91.90625 71.320312 C 92.011719 71.386719 92.113281 71.464844 92.203125 71.554688 C 92.292969 71.644531 92.371094 71.742188 92.4375 71.851562 C 92.503906 71.957031 92.554688 72.070312 92.59375 72.191406 C 92.632812 72.3125 92.65625 72.4375 92.664062 72.5625 C 92.671875 72.691406 92.667969 72.816406 92.644531 72.941406 C 92.625 73.066406 92.589844 73.1875 92.539062 73.304688 C 92.488281 73.417969 92.425781 73.527344 92.351562 73.628906 C 92.273438 73.730469 92.1875 73.824219 92.089844 73.902344 Z M 92.089844 73.902344 "/>
<path style=" stroke:none;fill-rule:nonzero;fill:rgb(97.647059%,67.45098%,72.54902%);fill-opacity:1;" d="M 121.042969 57.898438 L 90.5625 57.898438 L 92.640625 57.34375 L 119.382812 57.621094 Z M 121.042969 57.898438 "/>
<path style=" stroke:none;fill-rule:nonzero;fill:rgb(99.215686%,38.431373%,14.901961%);fill-opacity:1;" d="M 103.605469 77.410156 L 103 79.644531 L 101.726562 79.882812 L 103.773438 80.445312 L 104.441406 78.011719 Z M 103.605469 77.410156 "/>
<path style=" stroke:none;fill-rule:nonzero;fill:rgb(99.215686%,38.431373%,14.901961%);fill-opacity:1;" d="M 107.546875 77.480469 L 108.269531 79.675781 L 109.550781 79.851562 L 107.535156 80.511719 L 106.660156 77.875 Z M 107.546875 77.480469 "/>
<path style=" stroke:none;fill-rule:nonzero;fill:rgb(99.607843%,78.039216%,28.627451%);fill-opacity:1;" d="M 109.242188 79.304688 L 105.699219 77.335938 L 102.0625 79.136719 L 102.84375 75.160156 L 100.003906 72.265625 L 104.03125 71.777344 L 105.914062 68.1875 L 107.621094 71.859375 L 111.621094 72.535156 L 108.652344 75.296875 Z M 109.242188 79.304688 "/>
<path style="fill:none;stroke-width:1;stroke-linecap:round;stroke-linejoin:round;stroke:rgb(0%,0%,0%);stroke-opacity:1;stroke-miterlimit:4;" d="M 469.203191 340.849297 C 468.864884 340.849297 468.526576 340.792883 468.216461 340.651847 C 467.906346 340.539017 467.624424 340.341567 467.370693 340.115908 C 467.116962 339.862043 466.919617 339.57997 466.806847 339.26969 C 466.665886 338.95941 466.581309 338.620923 466.581309 338.282436 " transform="matrix(0.138557,0,0,0.138484,41.332159,26.18461)"/>
<path style=" stroke:none;fill-rule:nonzero;fill:rgb(99.215686%,38.431373%,14.901961%);fill-opacity:1;" d="M 107.746094 72.078125 C 107.824219 72.085938 107.898438 72.105469 107.972656 72.136719 C 108.042969 72.164062 108.105469 72.203125 108.15625 72.253906 C 108.207031 72.300781 108.246094 72.351562 108.269531 72.410156 C 108.296875 72.46875 108.304688 72.527344 108.296875 72.585938 C 108.292969 72.644531 108.269531 72.699219 108.234375 72.75 C 108.199219 72.800781 108.148438 72.84375 108.089844 72.878906 C 108.027344 72.914062 107.960938 72.941406 107.882812 72.957031 C 107.808594 72.96875 107.730469 72.972656 107.652344 72.964844 C 107.570312 72.957031 107.496094 72.9375 107.425781 72.90625 C 107.355469 72.875 107.292969 72.839844 107.242188 72.789062 C 107.1875 72.742188 107.152344 72.691406 107.125 72.632812 C 107.101562 72.574219 107.09375 72.515625 107.097656 72.457031 C 107.105469 72.398438 107.125 72.34375 107.164062 72.292969 C 107.199219 72.242188 107.246094 72.199219 107.308594 72.164062 C 107.367188 72.128906 107.4375 72.101562 107.511719 72.085938 C 107.589844 72.074219 107.664062 72.070312 107.746094 72.078125 Z M 107.746094 72.078125 "/>
<path style=" stroke:none;fill-rule:nonzero;fill:rgb(99.215686%,38.431373%,14.901961%);fill-opacity:1;" d="M 102.429688 71.527344 C 102.511719 71.535156 102.585938 71.554688 102.65625 71.585938 C 102.726562 71.613281 102.789062 71.652344 102.839844 71.699219 C 102.894531 71.75 102.933594 71.800781 102.957031 71.859375 C 102.980469 71.917969 102.992188 71.972656 102.984375 72.03125 C 102.976562 72.089844 102.957031 72.144531 102.921875 72.195312 C 102.882812 72.246094 102.835938 72.292969 102.777344 72.328125 C 102.714844 72.363281 102.648438 72.386719 102.570312 72.402344 C 102.496094 72.417969 102.417969 72.421875 102.335938 72.414062 C 102.257812 72.402344 102.183594 72.382812 102.113281 72.355469 C 102.039062 72.324219 101.980469 72.285156 101.925781 72.238281 C 101.875 72.191406 101.835938 72.136719 101.8125 72.078125 C 101.789062 72.023438 101.777344 71.964844 101.785156 71.90625 C 101.789062 71.847656 101.8125 71.792969 101.847656 71.742188 C 101.882812 71.691406 101.933594 71.648438 101.992188 71.613281 C 102.054688 71.574219 102.121094 71.550781 102.199219 71.535156 C 102.273438 71.519531 102.351562 71.519531 102.429688 71.527344 Z M 102.429688 71.527344 "/>
<path style="fill:none;stroke-width:1;stroke-linecap:butt;stroke-linejoin:miter;stroke:rgb(0%,0%,0%);stroke-opacity:1;stroke-miterlimit:10;" d="M 453.246361 322.796645 C 452.99263 325.3353 451.075555 327.168772 448.961134 326.971321 C 446.874906 326.745663 445.352523 324.517289 445.634445 322.006842 " transform="matrix(0.138557,0,0,0.138484,41.332159,26.18461)"/>
<path style="fill:none;stroke-width:1;stroke-linecap:butt;stroke-linejoin:miter;stroke:rgb(0%,0%,0%);stroke-opacity:1;stroke-miterlimit:10;" d="M 469.879806 324.178802 C 469.879806 326.717456 468.131885 328.776586 466.017464 328.748379 C 463.903043 328.748379 462.183314 326.661041 462.211506 324.150594 " transform="matrix(0.138557,0,0,0.138484,41.332159,26.18461)"/>
<path style="fill:none;stroke-width:1;stroke-linecap:butt;stroke-linejoin:miter;stroke:rgb(0%,0%,0%);stroke-opacity:1;stroke-miterlimit:10;" d="M 467.004193 339.156861 C 466.21481 342.034003 461.760429 343.30333 457.080511 342.005795 " transform="matrix(0.138557,0,0,0.138484,41.332159,26.18461)"/>
</g>
</svg>
