<?xml version="1.0" encoding="UTF-8"?>
<svg xmlns="http://www.w3.org/2000/svg" xmlns:xlink="http://www.w3.org/1999/xlink" width="414pt" height="414pt" viewBox="0 0 414 414" version="1.1">
<defs>
<clipPath id="clip1">
  <path d="M 53.113281 61.191406 L 134 61.191406 L 134 138.15625 L 53.113281 138.15625 Z M 53.113281 61.191406 "/>
</clipPath>
<clipPath id="clip2">
  <path d="M 165 128 L 244.957031 128 L 244.957031 201.925781 L 165 201.925781 Z M 165 128 "/>
</clipPath>
<clipPath id="clip3">
  <path d="M 168.113281 127.246094 L 247.503906 130.21875 L 244.746094 203.820312 L 165.355469 200.847656 Z M 168.113281 127.246094 "/>
</clipPath>
<clipPath id="clip4">
  <path d="M 168.113281 127.246094 L 247.503906 130.21875 L 244.746094 203.820312 L 165.355469 200.847656 Z M 168.113281 127.246094 "/>
</clipPath>
<clipPath id="clip5">
  <path d="M 168.113281 127.246094 L 247.207031 130.210938 L 244.449219 203.8125 L 165.355469 200.847656 Z M 168.113281 127.246094 "/>
</clipPath>
<clipPath id="clip6">
  <path d="M 194.199219 152.269531 L 201.925781 152.269531 L 201.925781 157.789062 L 194.199219 157.789062 Z M 194.199219 152.269531 "/>
</clipPath>
<clipPath id="clip7">
  <path d="M 168.113281 127.246094 L 247.503906 130.21875 L 244.746094 203.820312 L 165.355469 200.847656 Z M 168.113281 127.246094 "/>
</clipPath>
<clipPath id="clip8">
  <path d="M 168.113281 127.246094 L 247.503906 130.21875 L 244.746094 203.820312 L 165.355469 200.847656 Z M 168.113281 127.246094 "/>
</clipPath>
<clipPath id="clip9">
  <path d="M 168.113281 127.246094 L 247.207031 130.210938 L 244.449219 203.8125 L 165.355469 200.847656 Z M 168.113281 127.246094 "/>
</clipPath>
<clipPath id="clip10">
  <path d="M 208.542969 152.269531 L 216 152.269531 L 216 157 L 208.542969 157 Z M 208.542969 152.269531 "/>
</clipPath>
<clipPath id="clip11">
  <path d="M 168.113281 127.246094 L 247.503906 130.21875 L 244.746094 203.820312 L 165.355469 200.847656 Z M 168.113281 127.246094 "/>
</clipPath>
<clipPath id="clip12">
  <path d="M 168.113281 127.246094 L 247.503906 130.21875 L 244.746094 203.820312 L 165.355469 200.847656 Z M 168.113281 127.246094 "/>
</clipPath>
<clipPath id="clip13">
  <path d="M 168.113281 127.246094 L 247.207031 130.210938 L 244.449219 203.8125 L 165.355469 200.847656 Z M 168.113281 127.246094 "/>
</clipPath>
<clipPath id="clip14">
  <path d="M 208 169 L 214 169 L 214 174.339844 L 208 174.339844 Z M 208 169 "/>
</clipPath>
<clipPath id="clip15">
  <path d="M 168.113281 127.246094 L 247.503906 130.21875 L 244.746094 203.820312 L 165.355469 200.847656 Z M 168.113281 127.246094 "/>
</clipPath>
<clipPath id="clip16">
  <path d="M 168.113281 127.246094 L 247.503906 130.21875 L 244.746094 203.820312 L 165.355469 200.847656 Z M 168.113281 127.246094 "/>
</clipPath>
<clipPath id="clip17">
  <path d="M 168.113281 127.246094 L 247.207031 130.210938 L 244.449219 203.8125 L 165.355469 200.847656 Z M 168.113281 127.246094 "/>
</clipPath>
<clipPath id="clip18">
  <path d="M 218 157 L 227 157 L 227 165 L 218 165 Z M 218 157 "/>
</clipPath>
<clipPath id="clip19">
  <path d="M 168.113281 127.246094 L 247.503906 130.21875 L 244.746094 203.820312 L 165.355469 200.847656 Z M 168.113281 127.246094 "/>
</clipPath>
<clipPath id="clip20">
  <path d="M 168.113281 127.246094 L 247.503906 130.21875 L 244.746094 203.820312 L 165.355469 200.847656 Z M 168.113281 127.246094 "/>
</clipPath>
<clipPath id="clip21">
  <path d="M 168.113281 127.246094 L 247.207031 130.210938 L 244.449219 203.8125 L 165.355469 200.847656 Z M 168.113281 127.246094 "/>
</clipPath>
<clipPath id="clip22">
  <path d="M 184 156.683594 L 193 156.683594 L 193 163.304688 L 184 163.304688 Z M 184 156.683594 "/>
</clipPath>
<clipPath id="clip23">
  <path d="M 168.113281 127.246094 L 247.503906 130.21875 L 244.746094 203.820312 L 165.355469 200.847656 Z M 168.113281 127.246094 "/>
</clipPath>
<clipPath id="clip24">
  <path d="M 168.113281 127.246094 L 247.503906 130.21875 L 244.746094 203.820312 L 165.355469 200.847656 Z M 168.113281 127.246094 "/>
</clipPath>
<clipPath id="clip25">
  <path d="M 168.113281 127.246094 L 247.207031 130.210938 L 244.449219 203.8125 L 165.355469 200.847656 Z M 168.113281 127.246094 "/>
</clipPath>
<clipPath id="clip26">
  <path d="M 196.40625 166 L 215.164062 166 L 215.164062 171 L 196.40625 171 Z M 196.40625 166 "/>
</clipPath>
<clipPath id="clip27">
  <path d="M 168.113281 127.246094 L 247.503906 130.21875 L 244.746094 203.820312 L 165.355469 200.847656 Z M 168.113281 127.246094 "/>
</clipPath>
<clipPath id="clip28">
  <path d="M 168.113281 127.246094 L 247.503906 130.21875 L 244.746094 203.820312 L 165.355469 200.847656 Z M 168.113281 127.246094 "/>
</clipPath>
<clipPath id="clip29">
  <path d="M 168.113281 127.246094 L 247.207031 130.210938 L 244.449219 203.8125 L 165.355469 200.847656 Z M 168.113281 127.246094 "/>
</clipPath>
<clipPath id="clip30">
  <path d="M 214.0625 164.410156 L 217.371094 164.410156 L 217.371094 168.820312 L 214.0625 168.820312 Z M 214.0625 164.410156 "/>
</clipPath>
<clipPath id="clip31">
  <path d="M 168.113281 127.246094 L 247.503906 130.21875 L 244.746094 203.820312 L 165.355469 200.847656 Z M 168.113281 127.246094 "/>
</clipPath>
<clipPath id="clip32">
  <path d="M 168.113281 127.246094 L 247.503906 130.21875 L 244.746094 203.820312 L 165.355469 200.847656 Z M 168.113281 127.246094 "/>
</clipPath>
<clipPath id="clip33">
  <path d="M 168.113281 127.246094 L 247.207031 130.210938 L 244.449219 203.8125 L 165.355469 200.847656 Z M 168.113281 127.246094 "/>
</clipPath>
<clipPath id="clip34">
  <path d="M 278.75 213.152344 L 360.574219 213.152344 L 360.574219 284.324219 L 278.75 284.324219 Z M 278.75 213.152344 "/>
</clipPath>
</defs>
<g id="surface1">
<path style=" stroke:none;fill-rule:nonzero;fill:rgb(100%,100%,100%);fill-opacity:1;" d="M 41.15625 146.8125 L 146.203125 146.8125 L 146.203125 169.984375 L 41.15625 169.984375 Z M 41.15625 146.8125 "/>
<path style=" stroke:none;fill-rule:nonzero;fill:rgb(100%,100%,100%);fill-opacity:1;" d="M 153.15625 209.597656 L 258.199219 209.597656 L 258.199219 232.769531 L 153.15625 232.769531 Z M 153.15625 209.597656 "/>
<path style=" stroke:none;fill-rule:nonzero;fill:rgb(100%,100%,100%);fill-opacity:1;" d="M 267.167969 290.097656 L 372.214844 290.097656 L 372.214844 313.269531 L 267.167969 313.269531 Z M 267.167969 290.097656 "/>
<g clip-path="url(#clip1)" clip-rule="nonzero">
<path style=" stroke:none;fill-rule:nonzero;fill:rgb(2.745098%,47.058824%,78.039216%);fill-opacity:1;" d="M 133.988281 99.734375 C 133.988281 103.558594 123.554688 105.65625 122.425781 109.109375 C 121.261719 112.675781 128.378906 120.597656 126.207031 123.566406 C 124.03125 126.535156 114.375 122.054688 111.371094 124.234375 C 108.402344 126.378906 109.566406 137.03125 106.003906 138.1875 C 102.574219 139.296875 97.375 129.984375 93.578125 129.984375 C 89.777344 129.984375 84.582031 139.289062 81.152344 138.1875 C 77.582031 137.039062 78.75 126.386719 75.785156 124.234375 C 72.78125 122.054688 63.140625 126.554688 60.949219 123.566406 C 58.761719 120.578125 65.898438 112.675781 64.726562 109.109375 C 63.601562 105.65625 53.167969 103.558594 53.167969 99.734375 C 53.167969 95.90625 63.601562 93.8125 64.726562 90.355469 C 65.894531 86.785156 58.773438 78.867188 60.949219 75.898438 C 63.121094 72.933594 72.78125 77.40625 75.785156 75.234375 C 78.75 73.089844 77.59375 62.433594 81.152344 61.273438 C 84.582031 60.171875 89.777344 69.480469 93.578125 69.480469 C 97.375 69.480469 102.574219 60.175781 106.003906 61.273438 C 109.574219 62.425781 108.402344 73.078125 111.371094 75.234375 C 114.375 77.40625 124.015625 72.90625 126.207031 75.898438 C 128.398438 78.890625 121.257812 86.785156 122.425781 90.355469 C 123.550781 93.808594 133.988281 95.90625 133.988281 99.734375 Z M 133.988281 99.734375 "/>
</g>
<path style="fill:none;stroke-width:10;stroke-linecap:butt;stroke-linejoin:round;stroke:rgb(0%,0%,0%);stroke-opacity:1;stroke-miterlimit:4;" d="M 170.043914 132.250955 C 170.043914 142.076567 160.77717 150.05526 149.370514 150.05526 C 137.94525 150.05526 128.678506 142.058098 128.678506 132.250955 " transform="matrix(0.209924,0,0,0.211501,53.166976,61.192878)"/>
<path style="fill:none;stroke-width:10;stroke-linecap:butt;stroke-linejoin:round;stroke:rgb(0%,0%,0%);stroke-opacity:1;stroke-miterlimit:4;" d="M 269.317174 132.250955 C 269.317174 142.076567 260.050429 150.05526 248.643773 150.05526 C 237.21851 150.05526 227.951765 142.058098 227.951765 132.250955 " transform="matrix(0.209924,0,0,0.211501,53.166976,61.192878)"/>
<path style="fill:none;stroke-width:7;stroke-linecap:round;stroke-linejoin:round;stroke:rgb(0%,0%,0%);stroke-opacity:1;stroke-miterlimit:4;" d="M 233.106159 187.824765 C 233.106159 199.368013 217.624369 208.713426 198.495426 208.713426 C 179.385091 208.713426 163.9033 199.368013 163.9033 187.824765 " transform="matrix(0.209924,0,0,0.211501,53.166976,61.192878)"/>
<path style="fill:none;stroke-width:7;stroke-linecap:round;stroke-linejoin:round;stroke:rgb(0%,0%,0%);stroke-opacity:1;stroke-miterlimit:4;" d="M 243.321908 191.85105 C 241.684411 191.85105 240.102738 191.537074 238.576888 190.909121 C 237.069646 190.299638 235.711268 189.394647 234.538969 188.231088 C 233.36667 187.067528 232.454882 185.756216 231.822213 184.223272 C 231.189543 182.708798 230.854601 181.120447 230.854601 179.476689 " transform="matrix(0.209924,0,0,0.211501,53.166976,61.192878)"/>
<path style="fill:none;stroke-width:7;stroke-linecap:round;stroke-linejoin:round;stroke:rgb(0%,0%,0%);stroke-opacity:1;stroke-miterlimit:4;" d="M 153.482864 193.420932 C 155.138969 193.439401 156.720643 193.125425 158.2651 192.515941 C 159.772342 191.887989 161.13072 190.982998 162.303019 189.819439 C 163.475318 188.655879 164.405714 187.344566 165.038384 185.811623 C 165.671053 184.27868 166.005995 182.690329 166.005995 181.046571 " transform="matrix(0.209924,0,0,0.211501,53.166976,61.192878)"/>
<path style=" stroke:none;fill-rule:nonzero;fill:rgb(100%,56.078431%,61.568627%);fill-opacity:1;" d="M 116.855469 99.210938 C 116.855469 99.5625 116.761719 99.898438 116.582031 100.222656 C 116.402344 100.542969 116.144531 100.832031 115.804688 101.078125 C 115.46875 101.328125 115.082031 101.519531 114.644531 101.652344 C 114.203125 101.785156 113.746094 101.855469 113.273438 101.855469 C 112.796875 101.855469 112.339844 101.785156 111.902344 101.652344 C 111.460938 101.519531 111.074219 101.328125 110.738281 101.078125 C 110.402344 100.832031 110.144531 100.542969 109.960938 100.222656 C 109.78125 99.898438 109.691406 99.5625 109.691406 99.210938 C 109.691406 98.859375 109.78125 98.523438 109.960938 98.199219 C 110.144531 97.875 110.402344 97.585938 110.738281 97.339844 C 111.074219 97.089844 111.460938 96.902344 111.902344 96.769531 C 112.339844 96.632812 112.796875 96.566406 113.273438 96.566406 C 113.746094 96.566406 114.203125 96.632812 114.644531 96.769531 C 115.082031 96.902344 115.46875 97.089844 115.804688 97.339844 C 116.144531 97.585938 116.402344 97.875 116.582031 98.199219 C 116.761719 98.523438 116.855469 98.859375 116.855469 99.210938 Z M 116.855469 99.210938 "/>
<path style=" stroke:none;fill-rule:nonzero;fill:rgb(100%,56.078431%,61.568627%);fill-opacity:1;" d="M 81.242188 99.132812 C 81.242188 99.484375 81.152344 99.820312 80.972656 100.148438 C 80.789062 100.472656 80.53125 100.753906 80.195312 101.003906 C 79.859375 101.25 79.472656 101.441406 79.03125 101.578125 C 78.59375 101.710938 78.136719 101.777344 77.660156 101.777344 C 77.1875 101.777344 76.730469 101.710938 76.289062 101.578125 C 75.851562 101.441406 75.464844 101.25 75.125 101.003906 C 74.789062 100.753906 74.53125 100.472656 74.351562 100.148438 C 74.171875 99.820312 74.078125 99.484375 74.078125 99.132812 C 74.078125 98.785156 74.171875 98.445312 74.351562 98.121094 C 74.53125 97.796875 74.789062 97.515625 75.125 97.265625 C 75.464844 97.019531 75.851562 96.824219 76.289062 96.691406 C 76.730469 96.558594 77.1875 96.488281 77.660156 96.488281 C 78.136719 96.488281 78.59375 96.558594 79.03125 96.691406 C 79.472656 96.824219 79.859375 97.019531 80.195312 97.265625 C 80.53125 97.515625 80.789062 97.796875 80.972656 98.121094 C 81.152344 98.445312 81.242188 98.785156 81.242188 99.132812 Z M 81.242188 99.132812 "/>
<g clip-path="url(#clip2)" clip-rule="nonzero">
<g clip-path="url(#clip3)" clip-rule="nonzero">
<g clip-path="url(#clip4)" clip-rule="nonzero">
<g clip-path="url(#clip5)" clip-rule="nonzero">
<path style=" stroke:none;fill-rule:nonzero;fill:rgb(100%,41.176471%,23.137255%);fill-opacity:1;" d="M 165.355469 200.832031 L 244.53125 201.65625 L 205.730469 128.667969 Z M 165.355469 200.832031 "/>
</g>
</g>
</g>
</g>
<g clip-path="url(#clip6)" clip-rule="nonzero">
<g clip-path="url(#clip7)" clip-rule="nonzero">
<g clip-path="url(#clip8)" clip-rule="nonzero">
<g clip-path="url(#clip9)" clip-rule="nonzero">
<path style="fill:none;stroke-width:3;stroke-linecap:butt;stroke-linejoin:round;stroke:rgb(0%,0%,0%);stroke-opacity:1;stroke-miterlimit:4;" d="M 122.99856 88.706768 C 123.415886 95.981312 118.829076 102.168032 112.766404 102.506825 C 106.688956 102.832012 101.471811 97.236515 101.056086 90.004378 " transform="matrix(0.273899,0.0102663,-0.0103433,0.275953,168.115088,127.258339)"/>
</g>
</g>
</g>
</g>
<g clip-path="url(#clip10)" clip-rule="nonzero">
<g clip-path="url(#clip11)" clip-rule="nonzero">
<g clip-path="url(#clip12)" clip-rule="nonzero">
<g clip-path="url(#clip13)" clip-rule="nonzero">
<path style="fill:none;stroke-width:3;stroke-linecap:butt;stroke-linejoin:round;stroke:rgb(0%,0%,0%);stroke-opacity:1;stroke-miterlimit:4;" d="M 174.728522 85.763067 C 175.145848 93.037611 170.57328 99.223801 164.510607 99.562594 C 158.433694 99.901917 153.187531 94.293344 152.769671 87.004665 " transform="matrix(0.273899,0.0102663,-0.0103433,0.275953,168.115088,127.258339)"/>
</g>
</g>
</g>
</g>
<g clip-path="url(#clip14)" clip-rule="nonzero">
<g clip-path="url(#clip15)" clip-rule="nonzero">
<g clip-path="url(#clip16)" clip-rule="nonzero">
<g clip-path="url(#clip17)" clip-rule="nonzero">
<path style="fill:none;stroke-width:2;stroke-linecap:round;stroke-linejoin:round;stroke:rgb(0%,0%,0%);stroke-opacity:1;stroke-miterlimit:4;" d="M 166.443045 147.336208 C 168.672626 154.260222 171.287095 160.801874 165.510474 162.672972 C 159.719077 164.530464 155.975056 158.667831 153.742806 151.673139 " transform="matrix(0.273899,0.0102663,-0.0103433,0.275953,168.115088,127.258339)"/>
</g>
</g>
</g>
</g>
<g clip-path="url(#clip18)" clip-rule="nonzero">
<g clip-path="url(#clip19)" clip-rule="nonzero">
<g clip-path="url(#clip20)" clip-rule="nonzero">
<g clip-path="url(#clip21)" clip-rule="nonzero">
<path style=" stroke:none;fill-rule:nonzero;fill:rgb(99.607843%,78.039216%,28.627451%);fill-opacity:1;" d="M 225.882812 158.757812 C 226.109375 159.109375 226.234375 159.507812 226.257812 159.953125 C 226.289062 160.394531 226.210938 160.851562 226.035156 161.320312 C 225.859375 161.789062 225.597656 162.230469 225.242188 162.652344 C 224.890625 163.070312 224.476562 163.433594 224 163.746094 C 223.527344 164.050781 223.027344 164.277344 222.5 164.429688 C 221.976562 164.582031 221.460938 164.636719 220.972656 164.605469 C 220.476562 164.570312 220.03125 164.453125 219.640625 164.246094 C 219.25 164.035156 218.941406 163.753906 218.71875 163.398438 C 218.492188 163.046875 218.363281 162.644531 218.335938 162.203125 C 218.3125 161.757812 218.386719 161.300781 218.5625 160.835938 C 218.738281 160.367188 219.003906 159.921875 219.359375 159.503906 C 219.707031 159.085938 220.121094 158.71875 220.601562 158.414062 C 221.074219 158.101562 221.574219 157.875 222.101562 157.726562 C 222.625 157.578125 223.136719 157.519531 223.628906 157.550781 C 224.125 157.582031 224.570312 157.703125 224.957031 157.914062 C 225.351562 158.121094 225.65625 158.402344 225.882812 158.757812 Z M 225.882812 158.757812 "/>
</g>
</g>
</g>
</g>
<g clip-path="url(#clip22)" clip-rule="nonzero">
<g clip-path="url(#clip23)" clip-rule="nonzero">
<g clip-path="url(#clip24)" clip-rule="nonzero">
<g clip-path="url(#clip25)" clip-rule="nonzero">
<path style=" stroke:none;fill-rule:nonzero;fill:rgb(99.607843%,78.039216%,28.627451%);fill-opacity:1;" d="M 188.765625 156.710938 C 189.328125 156.757812 189.863281 156.882812 190.371094 157.085938 C 190.878906 157.289062 191.320312 157.550781 191.691406 157.878906 C 192.066406 158.210938 192.347656 158.578125 192.53125 158.980469 C 192.71875 159.382812 192.789062 159.796875 192.757812 160.214844 C 192.722656 160.632812 192.585938 161.027344 192.339844 161.398438 C 192.089844 161.765625 191.757812 162.085938 191.335938 162.347656 C 190.910156 162.609375 190.433594 162.804688 189.902344 162.921875 C 189.367188 163.042969 188.820312 163.078125 188.257812 163.027344 C 187.695312 162.984375 187.15625 162.859375 186.652344 162.660156 C 186.144531 162.457031 185.703125 162.191406 185.328125 161.859375 C 184.953125 161.535156 184.675781 161.167969 184.492188 160.761719 C 184.308594 160.355469 184.230469 159.945312 184.265625 159.523438 C 184.300781 159.105469 184.441406 158.714844 184.6875 158.34375 C 184.933594 157.972656 185.269531 157.660156 185.6875 157.390625 C 186.109375 157.128906 186.589844 156.9375 187.125 156.816406 C 187.652344 156.703125 188.203125 156.667969 188.765625 156.710938 Z M 188.765625 156.710938 "/>
</g>
</g>
</g>
</g>
<g clip-path="url(#clip26)" clip-rule="nonzero">
<g clip-path="url(#clip27)" clip-rule="nonzero">
<g clip-path="url(#clip28)" clip-rule="nonzero">
<g clip-path="url(#clip29)" clip-rule="nonzero">
<path style="fill:none;stroke-width:3;stroke-linecap:round;stroke-linejoin:round;stroke:rgb(0%,0%,0%);stroke-opacity:1;stroke-miterlimit:4;" d="M 111.406987 144.684094 C 121.266377 150.092729 131.813697 152.191702 143.006758 150.996736 L 144.554827 150.825899 C 150.12154 150.194137 155.456841 148.721655 160.561264 146.42259 C 165.650912 144.109919 170.300328 141.091696 174.450944 137.327635 L 175.223388 136.63359 " transform="matrix(0.273899,0.0102663,-0.0103433,0.275953,168.115088,127.258339)"/>
</g>
</g>
</g>
</g>
<g clip-path="url(#clip30)" clip-rule="nonzero">
<g clip-path="url(#clip31)" clip-rule="nonzero">
<g clip-path="url(#clip32)" clip-rule="nonzero">
<g clip-path="url(#clip33)" clip-rule="nonzero">
<path style="fill:none;stroke-width:3;stroke-linecap:round;stroke-linejoin:round;stroke:rgb(0%,0%,0%);stroke-opacity:1;stroke-miterlimit:4;" d="M 182.991431 139.911776 C 181.775552 139.815456 180.6081 139.490846 179.517556 138.936887 C 178.39853 138.383989 177.457705 137.640439 176.652357 136.707828 C 175.847543 135.789352 175.251015 134.721573 174.865444 133.575169 C 174.478805 132.400493 174.319498 131.203204 174.415473 129.968107 " transform="matrix(0.273899,0.0102663,-0.0103433,0.275953,168.115088,127.258339)"/>
</g>
</g>
</g>
</g>
<g clip-path="url(#clip34)" clip-rule="nonzero">
<path style=" stroke:none;fill-rule:nonzero;fill:rgb(100%,56.078431%,61.568627%);fill-opacity:1;" d="M 340.203125 213.246094 L 299.292969 213.152344 L 278.75 248.652344 L 299.125 284.25 L 340.035156 284.34375 L 360.574219 248.84375 Z M 340.203125 213.246094 "/>
</g>
<path style="fill:none;stroke-width:5;stroke-linecap:butt;stroke-linejoin:round;stroke:rgb(0%,0%,0%);stroke-opacity:1;stroke-miterlimit:4;" d="M 102.274991 55.178474 C 102.217418 62.500982 97.220058 68.411783 91.094263 68.365874 C 84.968468 68.331442 80.097769 62.363254 80.097769 54.994838 " transform="matrix(0.339242,0,0,0.340346,278.749375,213.153811)"/>
<path style="fill:none;stroke-width:5;stroke-linecap:butt;stroke-linejoin:round;stroke:rgb(0%,0%,0%);stroke-opacity:1;stroke-miterlimit:4;" d="M 154.424854 55.568702 C 154.424854 62.902687 149.369921 68.813488 143.244126 68.767579 C 137.118331 68.710193 132.236118 62.764959 132.236118 55.396543 " transform="matrix(0.339242,0,0,0.340346,278.749375,213.153811)"/>
<path style=" stroke:none;fill-rule:nonzero;fill:rgb(0.392157%,60.392157%,33.72549%);fill-opacity:1;" d="M 340.316406 239.546875 C 340.824219 239.550781 341.3125 239.625 341.78125 239.777344 C 342.25 239.921875 342.660156 240.128906 343.019531 240.402344 C 343.375 240.667969 343.652344 240.980469 343.847656 241.328125 C 344.035156 241.675781 344.128906 242.042969 344.125 242.417969 C 344.125 242.792969 344.023438 243.15625 343.828125 243.503906 C 343.628906 243.851562 343.351562 244.15625 342.988281 244.417969 C 342.625 244.679688 342.210938 244.882812 341.742188 245.027344 C 341.273438 245.167969 340.78125 245.234375 340.273438 245.234375 C 339.765625 245.230469 339.277344 245.152344 338.808594 245.003906 C 338.335938 244.859375 337.929688 244.648438 337.570312 244.378906 C 337.214844 244.109375 336.9375 243.796875 336.742188 243.449219 C 336.554688 243.101562 336.457031 242.738281 336.464844 242.363281 C 336.464844 241.984375 336.5625 241.621094 336.761719 241.277344 C 336.957031 240.925781 337.238281 240.621094 337.601562 240.359375 C 337.957031 240.09375 338.375 239.894531 338.847656 239.753906 C 339.316406 239.613281 339.808594 239.542969 340.316406 239.546875 Z M 340.316406 239.546875 "/>
<path style=" stroke:none;fill-rule:nonzero;fill:rgb(0.392157%,60.392157%,33.72549%);fill-opacity:1;" d="M 297.445312 238.675781 C 297.957031 238.675781 298.441406 238.753906 298.914062 238.902344 C 299.378906 239.050781 299.792969 239.257812 300.148438 239.527344 C 300.507812 239.796875 300.78125 240.109375 300.972656 240.457031 C 301.167969 240.804688 301.261719 241.167969 301.257812 241.546875 C 301.257812 241.921875 301.152344 242.285156 300.960938 242.628906 C 300.761719 242.980469 300.480469 243.285156 300.121094 243.546875 C 299.757812 243.8125 299.34375 244.011719 298.875 244.15625 C 298.398438 244.292969 297.914062 244.363281 297.402344 244.359375 C 296.894531 244.355469 296.410156 244.28125 295.9375 244.128906 C 295.46875 243.984375 295.054688 243.777344 294.703125 243.503906 C 294.34375 243.238281 294.066406 242.925781 293.875 242.578125 C 293.683594 242.230469 293.589844 241.867188 293.59375 241.488281 C 293.59375 241.113281 293.691406 240.75 293.890625 240.402344 C 294.089844 240.058594 294.371094 239.75 294.730469 239.488281 C 295.089844 239.226562 295.507812 239.023438 295.976562 238.878906 C 296.445312 238.742188 296.9375 238.671875 297.445312 238.675781 Z M 297.445312 238.675781 "/>
<path style="fill:none;stroke-width:3;stroke-linecap:round;stroke-linejoin:round;stroke:rgb(0%,0%,0%);stroke-opacity:1;stroke-miterlimit:4;" d="M 94.99773 111.463079 L 105.176683 112.805921 C 113.90479 114.03399 122.678956 114.538991 131.49918 114.320922 L 140.169714 113.620808 " transform="matrix(0.339242,0,0,0.340346,278.749375,213.153811)"/>
<path style="fill:none;stroke-width:3;stroke-linecap:round;stroke-linejoin:round;stroke:rgb(0%,0%,0%);stroke-opacity:1;stroke-miterlimit:4;" d="M 146.928815 116.99513 C 146.065216 116.788539 145.270705 116.409788 144.545282 115.870356 C 143.842888 115.342401 143.255641 114.688196 142.795054 113.919217 C 142.322954 113.150239 142.035087 112.323875 141.908426 111.440124 C 141.781765 110.556373 141.816309 109.684099 142.035087 108.811826 " transform="matrix(0.339242,0,0,0.340346,278.749375,213.153811)"/>
</g>
</svg>
