<?xml version="1.0" encoding="UTF-8"?>
<svg xmlns="http://www.w3.org/2000/svg" xmlns:xlink="http://www.w3.org/1999/xlink" width="60pt" height="60pt" viewBox="0 0 60 60" version="1.1">
<g id="surface1">
<path style=" stroke:none;fill-rule:nonzero;fill:rgb(99.607843%,78.039216%,28.627451%);fill-opacity:1;" d="M 59.027344 30 C 59.027344 46.03125 46.03125 59.027344 30 59.027344 C 13.96875 59.027344 0.972656 46.03125 0.972656 30 C 0.972656 13.96875 13.96875 0.972656 30 0.972656 C 46.03125 0.972656 59.027344 13.96875 59.027344 30 Z M 59.027344 30 "/>
<path style=" stroke:none;fill-rule:nonzero;fill:rgb(100%,56.078431%,61.568627%);fill-opacity:1;" d="M 25.671875 41.320312 L 25.691406 47.457031 L 22.601562 48.964844 L 28.234375 48.964844 L 28.238281 42.277344 Z M 25.671875 41.320312 "/>
<path style=" stroke:none;fill-rule:nonzero;fill:rgb(100%,56.078431%,61.568627%);fill-opacity:1;" d="M 37.0625 41.3125 L 37.0625 47.453125 L 40.152344 48.960938 L 34.519531 48.960938 L 34.527344 42.375 Z M 37.0625 41.3125 "/>
<path style=" stroke:none;fill-rule:nonzero;fill:rgb(0.392157%,60.392157%,33.72549%);fill-opacity:1;" d="M 48.6875 26.832031 C 48.6875 28.539062 45.816406 29.765625 45.316406 31.304688 C 44.800781 32.898438 46.382812 35.578125 45.417969 36.902344 C 44.441406 38.242188 41.398438 37.5625 40.058594 38.535156 C 38.730469 39.5 38.445312 42.609375 36.851562 43.125 C 35.3125 43.625 33.261719 41.292969 31.558594 41.292969 C 29.851562 41.292969 27.800781 43.625 26.261719 43.125 C 24.667969 42.609375 24.382812 39.5 23.054688 38.535156 C 21.714844 37.558594 18.671875 38.242188 17.699219 36.902344 C 16.730469 35.574219 18.3125 32.894531 17.796875 31.300781 C 17.296875 29.765625 14.425781 28.535156 14.425781 26.832031 C 14.425781 25.125 17.296875 23.898438 17.796875 22.359375 C 18.3125 20.765625 16.730469 18.085938 17.699219 16.761719 C 18.671875 15.421875 21.714844 16.101562 23.054688 15.128906 C 24.382812 14.164062 24.667969 11.050781 26.261719 10.535156 C 27.800781 10.035156 29.851562 12.367188 31.558594 12.367188 C 33.261719 12.367188 35.3125 10.035156 36.851562 10.535156 C 38.445312 11.050781 38.730469 14.164062 40.058594 15.128906 C 41.398438 16.101562 44.441406 15.421875 45.414062 16.761719 C 46.382812 18.085938 44.800781 20.765625 45.316406 22.359375 C 45.816406 23.898438 48.6875 25.125 48.6875 26.832031 Z M 48.6875 26.832031 "/>
<path style="fill:none;stroke-width:10;stroke-linecap:butt;stroke-linejoin:round;stroke:rgb(0%,0%,0%);stroke-opacity:1;stroke-miterlimit:4;" d="M 309.09375 384.257812 C 309.09375 400.992188 293.484375 414.5625 274.148438 414.5625 C 254.882812 414.5625 239.273438 400.992188 239.273438 384.257812 " transform="matrix(0.0555556,0,0,0.0555556,0,0)"/>
<path style="fill:none;stroke-width:10;stroke-linecap:butt;stroke-linejoin:round;stroke:rgb(0%,0%,0%);stroke-opacity:1;stroke-miterlimit:4;" d="M 439.523438 384.257812 C 439.523438 400.992188 423.84375 414.5625 404.578125 414.5625 C 385.3125 414.5625 369.703125 400.992188 369.703125 384.257812 " transform="matrix(0.0555556,0,0,0.0555556,0,0)"/>
<path style="fill:none;stroke-width:11;stroke-linecap:round;stroke-linejoin:round;stroke:rgb(0%,0%,0%);stroke-opacity:1;stroke-miterlimit:4;" d="M 422.226562 465.257812 C 422.226562 484.875 396.070312 500.835938 363.867188 500.835938 C 331.59375 500.835938 305.4375 484.875 305.4375 465.257812 " transform="matrix(0.0555556,0,0,0.0555556,0,0)"/>
<path style="fill:none;stroke-width:10;stroke-linecap:round;stroke-linejoin:round;stroke:rgb(0%,0%,0%);stroke-opacity:1;stroke-miterlimit:4;" d="M 439.523438 472.078125 C 427.851562 472.078125 418.429688 462.65625 418.429688 451.054688 " transform="matrix(0.0555556,0,0,0.0555556,0,0)"/>
<path style="fill:none;stroke-width:10;stroke-linecap:round;stroke-linejoin:round;stroke:rgb(0%,0%,0%);stroke-opacity:1;stroke-miterlimit:4;" d="M 289.546875 469.6875 C 301.21875 469.6875 310.640625 460.265625 310.640625 448.59375 " transform="matrix(0.0555556,0,0,0.0555556,0,0)"/>
<path style=" stroke:none;fill-rule:nonzero;fill:rgb(100%,56.078431%,61.568627%);fill-opacity:1;" d="M 29.367188 24.164062 C 29.261719 23.519531 28.46875 23.113281 27.597656 23.257812 C 26.726562 23.398438 26.105469 24.039062 26.210938 24.683594 C 26.316406 25.328125 27.109375 25.734375 27.980469 25.589844 C 28.851562 25.449219 29.472656 24.808594 29.367188 24.164062 Z M 29.367188 24.164062 "/>
<path style=" stroke:none;fill-rule:nonzero;fill:rgb(100%,56.078431%,61.568627%);fill-opacity:1;" d="M 13.371094 27.535156 C 13.265625 26.890625 12.472656 26.484375 11.597656 26.625 C 10.726562 26.769531 10.105469 27.40625 10.210938 28.050781 C 10.316406 28.695312 11.109375 29.101562 11.980469 28.960938 C 12.855469 28.816406 13.476562 28.179688 13.371094 27.535156 Z M 13.371094 27.535156 "/>
</g>
</svg>
