<?xml version="1.0" encoding="UTF-8"?>
<svg xmlns="http://www.w3.org/2000/svg" xmlns:xlink="http://www.w3.org/1999/xlink" width="163px" height="163px" viewBox="0 0 163 163" version="1.1">
<defs>
<clipPath id="clip1">
  <path d="M 74.328125 94.324219 L 90.84375 94.324219 L 90.84375 113.167969 L 74.328125 113.167969 Z M 74.328125 94.324219 "/>
</clipPath>
<clipPath id="clip2">
  <path d="M 43.765625 6.238281 L 147.433594 6.238281 L 147.433594 100.40625 L 43.765625 100.40625 Z M 43.765625 6.238281 "/>
</clipPath>
</defs>
<g id="surface1">
<path style=" stroke:none;fill-rule:nonzero;fill:rgb(100%,100%,100%);fill-opacity:1;" d="M 153.027344 150.828125 L 2.800781 150.828125 C 0.183594 150.828125 -1.953125 148.695312 -1.953125 146.078125 L -1.953125 104.394531 C -1.953125 101.78125 0.183594 99.648438 2.800781 99.648438 L 153.027344 99.648438 C 155.644531 99.648438 157.78125 101.78125 157.78125 104.394531 L 157.78125 146.078125 C 157.78125 148.695312 155.644531 150.828125 153.027344 150.828125 Z M 153.027344 150.828125 "/>
<g clip-path="url(#clip1)" clip-rule="nonzero">
<path style=" stroke:none;fill-rule:nonzero;fill:rgb(2.745098%,47.058824%,78.039216%);fill-opacity:1;" d="M 86.765625 94.570312 L 78.066406 106.601562 L 74.496094 105.953125 L 80.90625 113.160156 L 90.433594 100.082031 Z M 86.765625 94.570312 "/>
</g>
<path style=" stroke:none;fill-rule:nonzero;fill:rgb(2.745098%,47.058824%,78.039216%);fill-opacity:1;" d="M 112.539062 94.507812 L 123.316406 104.726562 L 127.972656 105.078125 L 121.742188 111.699219 L 109.957031 100.601562 Z M 112.539062 94.507812 "/>
<path style=" stroke:none;fill-rule:nonzero;fill:rgb(93.72549%,45.098039%,55.686275%);fill-opacity:1;" d="M 130.195312 85.855469 L 102.472656 74.964844 L 116.628906 35.617188 L 144.351562 46.507812 Z M 130.195312 85.855469 "/>
<g clip-path="url(#clip2)" clip-rule="nonzero">
<path style=" stroke:none;fill-rule:nonzero;fill:rgb(99.607843%,78.039216%,28.627451%);fill-opacity:1;" d="M 43.765625 100.355469 L 147.433594 100.355469 L 95.597656 6.25 Z M 43.765625 100.355469 "/>
</g>
<path style="fill:none;stroke-width:10;stroke-linecap:butt;stroke-linejoin:round;stroke:rgb(0%,0%,0%);stroke-opacity:1;stroke-miterlimit:4;" d="M 307.589405 154.358337 C 312.312846 168.49459 306.586787 183.144484 294.778183 187.097275 C 282.969578 191.050066 269.579066 182.764837 264.855624 168.628583 " transform="matrix(0.175322,0,0,0.174916,43.764104,6.250265)"/>
<path style="fill:none;stroke-width:10;stroke-linecap:butt;stroke-linejoin:round;stroke:rgb(0%,0%,0%);stroke-opacity:1;stroke-miterlimit:4;" d="M 408.140787 120.770777 C 412.841949 134.907031 407.13817 149.579256 395.329565 153.509715 C 383.49868 157.440174 370.130449 149.177277 365.407007 134.996359 " transform="matrix(0.175322,0,0,0.174916,43.764104,6.250265)"/>
<path style="fill:none;stroke-width:5;stroke-linecap:round;stroke-linejoin:round;stroke:rgb(0%,0%,0%);stroke-opacity:1;stroke-miterlimit:4;" d="M 327.998238 286.743347 C 325.480555 301.437904 323.675843 315.730483 316.145073 314.45755 C 308.636583 313.162285 308.792545 299.160024 311.287949 284.443135 " transform="matrix(0.175322,0,0,0.174916,43.764104,6.250265)"/>
<path style=" stroke:none;fill-rule:nonzero;fill:rgb(0.392157%,60.392157%,33.72549%);fill-opacity:1;" d="M 125.226562 36.722656 C 125.269531 36.988281 125.277344 37.257812 125.25 37.53125 C 125.222656 37.800781 125.160156 38.074219 125.0625 38.34375 C 124.964844 38.609375 124.832031 38.871094 124.667969 39.125 C 124.503906 39.382812 124.308594 39.621094 124.085938 39.851562 C 123.859375 40.082031 123.609375 40.296875 123.332031 40.492188 C 123.058594 40.691406 122.761719 40.867188 122.445312 41.023438 C 122.128906 41.179688 121.796875 41.3125 121.449219 41.425781 C 121.105469 41.535156 120.75 41.617188 120.390625 41.675781 C 120.027344 41.738281 119.664062 41.769531 119.300781 41.777344 C 118.9375 41.78125 118.582031 41.761719 118.230469 41.710938 C 117.882812 41.664062 117.542969 41.59375 117.21875 41.492188 C 116.894531 41.394531 116.589844 41.269531 116.300781 41.125 C 116.015625 40.980469 115.753906 40.8125 115.515625 40.621094 C 115.28125 40.433594 115.070312 40.226562 114.894531 40.003906 C 114.714844 39.78125 114.570312 39.542969 114.453125 39.292969 C 114.339844 39.042969 114.261719 38.789062 114.21875 38.519531 C 114.175781 38.253906 114.167969 37.984375 114.195312 37.710938 C 114.222656 37.4375 114.285156 37.167969 114.382812 36.898438 C 114.480469 36.628906 114.613281 36.371094 114.777344 36.113281 C 114.941406 35.859375 115.136719 35.617188 115.359375 35.386719 C 115.585938 35.160156 115.835938 34.945312 116.113281 34.746094 C 116.386719 34.550781 116.683594 34.375 117 34.214844 C 117.320312 34.058594 117.648438 33.929688 117.996094 33.816406 C 118.339844 33.707031 118.695312 33.625 119.054688 33.5625 C 119.417969 33.503906 119.78125 33.472656 120.144531 33.46875 C 120.507812 33.460938 120.863281 33.480469 121.214844 33.527344 C 121.5625 33.578125 121.902344 33.648438 122.226562 33.746094 C 122.550781 33.847656 122.859375 33.96875 123.144531 34.117188 C 123.429688 34.265625 123.691406 34.429688 123.929688 34.617188 C 124.167969 34.808594 124.375 35.015625 124.550781 35.238281 C 124.730469 35.460938 124.875 35.699219 124.992188 35.949219 C 125.105469 36.199219 125.183594 36.457031 125.226562 36.722656 Z M 125.226562 36.722656 "/>
<path style=" stroke:none;fill-rule:nonzero;fill:rgb(0.392157%,60.392157%,33.72549%);fill-opacity:1;" d="M 89.285156 47.914062 C 89.328125 48.179688 89.335938 48.449219 89.308594 48.722656 C 89.28125 48.996094 89.21875 49.265625 89.117188 49.535156 C 89.023438 49.804688 88.890625 50.066406 88.726562 50.320312 C 88.5625 50.574219 88.367188 50.816406 88.140625 51.046875 C 87.917969 51.273438 87.667969 51.488281 87.390625 51.6875 C 87.113281 51.882812 86.816406 52.058594 86.5 52.21875 C 86.183594 52.375 85.851562 52.507812 85.507812 52.617188 C 85.160156 52.726562 84.808594 52.808594 84.445312 52.871094 C 84.085938 52.929688 83.722656 52.960938 83.359375 52.964844 C 82.996094 52.972656 82.640625 52.953125 82.289062 52.90625 C 81.9375 52.859375 81.601562 52.785156 81.277344 52.6875 C 80.949219 52.585938 80.644531 52.464844 80.359375 52.316406 C 80.070312 52.171875 79.8125 52.003906 79.574219 51.816406 C 79.335938 51.625 79.128906 51.417969 78.949219 51.195312 C 78.769531 50.972656 78.625 50.734375 78.511719 50.484375 C 78.398438 50.234375 78.320312 49.976562 78.277344 49.714844 C 78.230469 49.445312 78.226562 49.175781 78.25 48.902344 C 78.277344 48.632812 78.34375 48.359375 78.441406 48.089844 C 78.539062 47.824219 78.667969 47.5625 78.835938 47.308594 C 78.996094 47.050781 79.191406 46.8125 79.417969 46.582031 C 79.640625 46.351562 79.890625 46.136719 80.167969 45.941406 C 80.445312 45.742188 80.742188 45.566406 81.058594 45.410156 C 81.375 45.253906 81.707031 45.121094 82.054688 45.011719 C 82.398438 44.898438 82.753906 44.816406 83.113281 44.757812 C 83.476562 44.699219 83.839844 44.664062 84.199219 44.660156 C 84.5625 44.652344 84.917969 44.675781 85.269531 44.722656 C 85.621094 44.769531 85.957031 44.84375 86.28125 44.941406 C 86.609375 45.039062 86.914062 45.164062 87.199219 45.308594 C 87.488281 45.453125 87.75 45.621094 87.984375 45.8125 C 88.222656 46 88.429688 46.207031 88.609375 46.429688 C 88.789062 46.652344 88.933594 46.890625 89.046875 47.140625 C 89.160156 47.390625 89.238281 47.648438 89.285156 47.914062 Z M 89.285156 47.914062 "/>
<path style="fill:none;stroke-width:8;stroke-linecap:round;stroke-linejoin:round;stroke:rgb(0%,0%,0%);stroke-opacity:1;stroke-miterlimit:4;" d="M 295.80308 272.495432 C 306.029778 277.162852 316.702083 280.177693 327.864556 281.562287 C 339.004749 282.969213 350.100381 282.656562 361.173733 280.646668 L 364.315268 280.066032 C 375.566863 277.944478 386.239168 274.125679 396.309902 268.676634 C 406.380637 263.205256 415.381913 256.349285 423.31373 248.064056 L 424.806516 246.523137 " transform="matrix(0.175322,0,0,0.174916,43.764104,6.250265)"/>
<path style="fill:none;stroke-width:8;stroke-linecap:round;stroke-linejoin:round;stroke:rgb(0%,0%,0%);stroke-opacity:1;stroke-miterlimit:4;" d="M 295.067828 256.148295 C 295.535716 257.309567 295.892202 258.493172 296.115006 259.72144 C 296.33781 260.949709 296.449212 262.177977 296.449212 263.428578 C 296.426931 264.679178 296.293249 265.907447 296.025884 267.135715 C 295.7808 268.363984 295.402033 269.547588 294.911865 270.686528 C 294.421696 271.825468 293.820126 272.919743 293.129434 273.947022 C 292.416462 274.974301 291.614368 275.934584 290.723152 276.805538 C 289.831937 277.676492 288.8516 278.458117 287.804422 279.128082 C 286.757244 279.820379 285.665505 280.378683 284.506925 280.847658 " transform="matrix(0.175322,0,0,0.174916,43.764104,6.250265)"/>
<path style=" stroke:none;fill-rule:nonzero;fill:rgb(100%,56.078431%,61.568627%);fill-opacity:1;" d="M 106.054688 46.304688 L 144.625 46.304688 L 144.625 88.113281 L 106.054688 88.113281 Z M 106.054688 46.304688 "/>
<path style=" stroke:none;fill-rule:nonzero;fill:rgb(2.745098%,47.058824%,78.039216%);fill-opacity:1;" d="M 107.988281 66.523438 L 103.625 72.019531 C 101.769531 74.351562 99.617188 76.359375 97.160156 78.046875 L 96.679688 78.378906 C 95.351562 79.289062 93.960938 80.089844 92.503906 80.777344 L 75.800781 88.667969 L 72.0625 86.394531 L 89.96875 77.664062 C 91.335938 77 92.640625 76.234375 93.886719 75.371094 C 96.132812 73.8125 98.125 71.988281 99.867188 69.886719 L 105.230469 63.4375 C 105.949219 62.847656 105.230469 63.972656 106.023438 64.457031 L 107.757812 63.257812 C 107.894531 63.34375 108.019531 63.441406 108.132812 63.554688 C 108.246094 63.667969 108.34375 63.792969 108.425781 63.929688 C 108.511719 64.066406 108.578125 64.210938 108.625 64.363281 C 108.675781 64.515625 108.707031 64.671875 108.71875 64.832031 C 108.726562 64.992188 108.722656 65.148438 108.695312 65.308594 C 108.667969 65.464844 108.621094 65.617188 108.558594 65.765625 C 108.496094 65.910156 108.414062 66.050781 108.320312 66.179688 C 108.222656 66.304688 108.113281 66.421875 107.988281 66.523438 Z M 107.988281 66.523438 "/>
<path style=" stroke:none;fill-rule:nonzero;fill:rgb(97.647059%,67.45098%,72.54902%);fill-opacity:1;" d="M 144.625 46.304688 L 106.054688 46.304688 L 108.683594 45.605469 L 142.523438 45.957031 Z M 144.625 46.304688 "/>
<path style=" stroke:none;fill-rule:nonzero;fill:rgb(99.215686%,38.431373%,14.901961%);fill-opacity:1;" d="M 122.5625 70.953125 L 121.796875 73.773438 L 120.183594 74.074219 L 122.773438 74.785156 L 123.621094 71.714844 Z M 122.5625 70.953125 "/>
<path style=" stroke:none;fill-rule:nonzero;fill:rgb(99.215686%,38.431373%,14.901961%);fill-opacity:1;" d="M 127.546875 71.039062 L 128.460938 73.8125 L 130.085938 74.039062 L 127.53125 74.871094 L 126.429688 71.539062 Z M 127.546875 71.039062 "/>
<path style=" stroke:none;fill-rule:nonzero;fill:rgb(99.607843%,78.039216%,28.627451%);fill-opacity:1;" d="M 129.695312 73.347656 L 125.207031 70.859375 L 120.613281 73.132812 L 121.597656 68.109375 L 118.003906 64.453125 L 123.101562 63.839844 L 125.480469 59.304688 L 127.644531 63.945312 L 132.707031 64.796875 L 128.945312 68.28125 Z M 129.695312 73.347656 "/>
<path style="fill:none;stroke-width:1;stroke-linecap:round;stroke-linejoin:round;stroke:rgb(0%,0%,0%);stroke-opacity:1;stroke-miterlimit:4;" d="M 469.211326 340.854156 C 468.87712 340.854156 468.542914 340.78716 468.208708 340.675499 C 467.896783 340.541506 467.607138 340.340516 467.362054 340.117195 C 467.116969 339.871541 466.938726 339.581223 466.782764 339.268573 C 466.649081 338.955923 466.58224 338.620941 466.58224 338.285958 " transform="matrix(0.175322,0,0,0.174916,43.764104,6.250265)"/>
<path style=" stroke:none;fill-rule:nonzero;fill:rgb(99.215686%,38.431373%,14.901961%);fill-opacity:1;" d="M 127.796875 64.21875 C 127.898438 64.230469 127.992188 64.253906 128.085938 64.292969 C 128.175781 64.328125 128.253906 64.378906 128.316406 64.4375 C 128.382812 64.5 128.433594 64.566406 128.460938 64.636719 C 128.496094 64.710938 128.507812 64.785156 128.5 64.855469 C 128.488281 64.933594 128.460938 65 128.417969 65.066406 C 128.371094 65.128906 128.3125 65.183594 128.234375 65.230469 C 128.15625 65.273438 128.070312 65.308594 127.976562 65.324219 C 127.878906 65.34375 127.78125 65.347656 127.679688 65.335938 C 127.578125 65.328125 127.484375 65.304688 127.394531 65.265625 C 127.304688 65.226562 127.226562 65.179688 127.160156 65.117188 C 127.097656 65.058594 127.046875 64.992188 127.015625 64.917969 C 126.984375 64.84375 126.972656 64.773438 126.980469 64.699219 C 126.988281 64.625 127.015625 64.554688 127.0625 64.492188 C 127.109375 64.425781 127.167969 64.371094 127.246094 64.324219 C 127.320312 64.28125 127.410156 64.25 127.503906 64.230469 C 127.601562 64.210938 127.699219 64.207031 127.796875 64.21875 Z M 127.796875 64.21875 "/>
<path style=" stroke:none;fill-rule:nonzero;fill:rgb(99.215686%,38.431373%,14.901961%);fill-opacity:1;" d="M 121.074219 63.519531 C 121.175781 63.53125 121.273438 63.554688 121.359375 63.59375 C 121.449219 63.632812 121.527344 63.679688 121.59375 63.738281 C 121.660156 63.800781 121.707031 63.867188 121.738281 63.9375 C 121.769531 64.011719 121.78125 64.085938 121.773438 64.160156 C 121.765625 64.234375 121.742188 64.304688 121.695312 64.367188 C 121.648438 64.433594 121.585938 64.488281 121.511719 64.53125 C 121.433594 64.578125 121.347656 64.609375 121.25 64.628906 C 121.15625 64.644531 121.058594 64.648438 120.957031 64.640625 C 120.855469 64.628906 120.761719 64.605469 120.671875 64.566406 C 120.582031 64.53125 120.503906 64.480469 120.4375 64.417969 C 120.371094 64.359375 120.324219 64.292969 120.292969 64.21875 C 120.261719 64.148438 120.25 64.074219 120.257812 64 C 120.265625 63.925781 120.292969 63.855469 120.339844 63.792969 C 120.382812 63.726562 120.445312 63.671875 120.523438 63.628906 C 120.597656 63.582031 120.683594 63.550781 120.78125 63.53125 C 120.875 63.515625 120.976562 63.507812 121.074219 63.519531 Z M 121.074219 63.519531 "/>
<path style="fill:none;stroke-width:1;stroke-linecap:butt;stroke-linejoin:miter;stroke:rgb(0%,0%,0%);stroke-opacity:1;stroke-miterlimit:10;" d="M 453.258569 322.809775 C 452.991205 325.333309 451.052811 327.186878 448.958455 326.963556 C 446.864098 326.740235 445.371313 324.529351 445.638677 322.005818 " transform="matrix(0.175322,0,0,0.174916,43.764104,6.250265)"/>
<path style="fill:none;stroke-width:1;stroke-linecap:butt;stroke-linejoin:miter;stroke:rgb(0%,0%,0%);stroke-opacity:1;stroke-miterlimit:10;" d="M 469.879737 324.194369 C 469.879737 326.717902 468.119587 328.750128 466.00295 328.750128 C 463.886313 328.727796 462.193004 326.673238 462.193004 324.149705 " transform="matrix(0.175322,0,0,0.174916,43.764104,6.250265)"/>
<path style="fill:none;stroke-width:1;stroke-linecap:butt;stroke-linejoin:miter;stroke:rgb(0%,0%,0%);stroke-opacity:1;stroke-miterlimit:10;" d="M 467.005567 339.156912 C 466.225754 342.015428 461.769677 343.288361 457.090796 341.993096 " transform="matrix(0.175322,0,0,0.174916,43.764104,6.250265)"/>
</g>
</svg>
