<?xml version="1.0" encoding="UTF-8"?>
<svg xmlns="http://www.w3.org/2000/svg" xmlns:xlink="http://www.w3.org/1999/xlink" width="149px" height="51px" viewBox="0 0 149 51" version="1.1">
<g id="surface1">
<path style=" stroke:none;fill-rule:nonzero;fill:rgb(99.215686%,66.666667%,66.27451%);fill-opacity:1;" d="M 17.703125 8.5 C 17.324219 8.5 16.949219 8.527344 16.578125 8.578125 C 16.207031 8.632812 15.84375 8.710938 15.492188 8.8125 C 15.144531 8.917969 14.8125 9.042969 14.496094 9.195312 C 14.179688 9.34375 13.890625 9.515625 13.621094 9.707031 C 13.355469 9.898438 13.113281 10.105469 12.902344 10.332031 C 12.691406 10.554688 12.515625 10.792969 12.371094 11.042969 C 12.222656 11.292969 12.117188 11.550781 12.039062 11.8125 C 11.964844 12.078125 11.929688 12.347656 11.929688 12.617188 C 11.929688 12.886719 11.964844 13.15625 12.039062 13.421875 C 12.117188 13.683594 12.222656 13.941406 12.371094 14.191406 C 12.515625 14.441406 12.691406 14.679688 12.902344 14.902344 C 13.113281 15.128906 13.355469 15.335938 13.621094 15.527344 C 13.890625 15.71875 14.179688 15.890625 14.496094 16.039062 C 14.8125 16.191406 15.144531 16.316406 15.492188 16.421875 C 15.84375 16.523438 16.207031 16.601562 16.578125 16.65625 C 16.949219 16.707031 17.324219 16.734375 17.703125 16.734375 C 18.082031 16.734375 18.457031 16.707031 18.832031 16.65625 C 19.203125 16.601562 19.5625 16.523438 19.914062 16.421875 C 20.265625 16.316406 20.597656 16.191406 20.914062 16.039062 C 21.226562 15.890625 21.519531 15.71875 21.789062 15.527344 C 22.054688 15.335938 22.292969 15.128906 22.503906 14.902344 C 22.714844 14.679688 22.894531 14.441406 23.039062 14.191406 C 23.183594 13.941406 23.292969 13.683594 23.367188 13.421875 C 23.441406 13.15625 23.476562 12.886719 23.476562 12.617188 C 23.476562 12.347656 23.441406 12.078125 23.367188 11.8125 C 23.292969 11.550781 23.183594 11.292969 23.039062 11.042969 C 22.894531 10.792969 22.714844 10.554688 22.503906 10.332031 C 22.292969 10.105469 22.054688 9.898438 21.789062 9.707031 C 21.519531 9.515625 21.226562 9.34375 20.914062 9.195312 C 20.597656 9.042969 20.265625 8.917969 19.914062 8.8125 C 19.5625 8.710938 19.203125 8.632812 18.832031 8.578125 C 18.457031 8.527344 18.082031 8.5 17.703125 8.5 Z M 17.703125 8.5 "/>
<path style=" stroke:none;fill-rule:nonzero;fill:rgb(99.215686%,66.666667%,66.27451%);fill-opacity:1;" d="M 119.492188 40.980469 L 9.410156 40.980469 C 8.234375 40.980469 7.277344 40.296875 7.277344 39.457031 L 7.277344 11.429688 C 7.277344 10.589844 8.234375 9.902344 9.410156 9.902344 L 119.492188 9.902344 C 120.667969 9.902344 121.625 10.589844 121.625 11.429688 L 121.625 39.457031 C 121.625 40.296875 120.667969 40.980469 119.492188 40.980469 Z M 119.492188 40.980469 "/>
<path style=" stroke:none;fill-rule:nonzero;fill:rgb(99.215686%,66.666667%,66.27451%);fill-opacity:1;" d="M 13.046875 35.609375 C 12.667969 35.609375 12.292969 35.636719 11.921875 35.6875 C 11.546875 35.742188 11.1875 35.820312 10.835938 35.921875 C 10.484375 36.027344 10.15625 36.152344 9.839844 36.304688 C 9.523438 36.453125 9.230469 36.625 8.964844 36.816406 C 8.695312 37.007812 8.457031 37.214844 8.246094 37.4375 C 8.035156 37.664062 7.855469 37.902344 7.710938 38.152344 C 7.566406 38.402344 7.457031 38.660156 7.382812 38.921875 C 7.308594 39.1875 7.273438 39.457031 7.273438 39.726562 C 7.273438 39.996094 7.308594 40.265625 7.382812 40.53125 C 7.457031 40.796875 7.566406 41.054688 7.710938 41.304688 C 7.855469 41.550781 8.035156 41.789062 8.246094 42.015625 C 8.457031 42.238281 8.695312 42.449219 8.964844 42.636719 C 9.230469 42.828125 9.523438 43 9.839844 43.148438 C 10.15625 43.300781 10.484375 43.425781 10.835938 43.53125 C 11.1875 43.632812 11.546875 43.710938 11.921875 43.765625 C 12.292969 43.820312 12.667969 43.84375 13.046875 43.84375 C 13.425781 43.84375 13.800781 43.820312 14.171875 43.765625 C 14.546875 43.710938 14.90625 43.632812 15.253906 43.53125 C 15.605469 43.425781 15.9375 43.300781 16.253906 43.148438 C 16.570312 43 16.863281 42.828125 17.128906 42.636719 C 17.398438 42.449219 17.636719 42.238281 17.847656 42.015625 C 18.054688 41.789062 18.234375 41.550781 18.378906 41.304688 C 18.527344 41.054688 18.632812 40.796875 18.707031 40.53125 C 18.78125 40.265625 18.820312 39.996094 18.820312 39.726562 C 18.820312 39.457031 18.78125 39.1875 18.707031 38.921875 C 18.632812 38.660156 18.527344 38.402344 18.378906 38.152344 C 18.234375 37.902344 18.054688 37.664062 17.847656 37.4375 C 17.636719 37.214844 17.398438 37.007812 17.128906 36.816406 C 16.863281 36.625 16.570312 36.453125 16.253906 36.304688 C 15.9375 36.152344 15.605469 36.027344 15.253906 35.921875 C 14.90625 35.820312 14.546875 35.742188 14.171875 35.6875 C 13.800781 35.636719 13.425781 35.609375 13.046875 35.609375 Z M 13.046875 35.609375 "/>
<path style=" stroke:none;fill-rule:nonzero;fill:rgb(99.215686%,66.666667%,66.27451%);fill-opacity:1;" d="M 137.128906 35.609375 C 136.753906 35.609375 136.375 35.636719 136.003906 35.6875 C 135.632812 35.742188 135.273438 35.820312 134.921875 35.921875 C 134.570312 36.027344 134.238281 36.152344 133.921875 36.304688 C 133.605469 36.453125 133.316406 36.625 133.046875 36.816406 C 132.78125 37.007812 132.539062 37.214844 132.332031 37.4375 C 132.121094 37.664062 131.941406 37.902344 131.796875 38.152344 C 131.652344 38.402344 131.539062 38.660156 131.46875 38.921875 C 131.394531 39.1875 131.355469 39.457031 131.355469 39.726562 C 131.355469 39.996094 131.394531 40.265625 131.46875 40.53125 C 131.539062 40.796875 131.652344 41.054688 131.796875 41.304688 C 131.941406 41.550781 132.121094 41.789062 132.332031 42.015625 C 132.539062 42.238281 132.78125 42.449219 133.046875 42.636719 C 133.316406 42.828125 133.605469 43 133.921875 43.148438 C 134.238281 43.300781 134.570312 43.425781 134.921875 43.53125 C 135.273438 43.632812 135.632812 43.710938 136.003906 43.765625 C 136.375 43.820312 136.753906 43.84375 137.128906 43.84375 C 137.507812 43.84375 137.886719 43.820312 138.257812 43.765625 C 138.628906 43.710938 138.988281 43.632812 139.339844 43.53125 C 139.6875 43.425781 140.023438 43.300781 140.335938 43.148438 C 140.652344 43 140.945312 42.828125 141.210938 42.636719 C 141.480469 42.449219 141.722656 42.238281 141.929688 42.015625 C 142.140625 41.789062 142.320312 41.550781 142.464844 41.304688 C 142.609375 41.054688 142.71875 40.796875 142.792969 40.53125 C 142.867188 40.265625 142.902344 39.996094 142.902344 39.726562 C 142.902344 39.457031 142.867188 39.1875 142.792969 38.921875 C 142.71875 38.660156 142.609375 38.402344 142.464844 38.152344 C 142.320312 37.902344 142.140625 37.664062 141.929688 37.4375 C 141.722656 37.214844 141.480469 37.007812 141.210938 36.816406 C 140.945312 36.625 140.652344 36.453125 140.335938 36.304688 C 140.023438 36.152344 139.6875 36.027344 139.339844 35.921875 C 138.988281 35.820312 138.628906 35.742188 138.257812 35.6875 C 137.886719 35.636719 137.507812 35.609375 137.128906 35.609375 Z M 137.128906 35.609375 "/>
<path style=" stroke:none;fill-rule:nonzero;fill:rgb(99.215686%,66.666667%,66.27451%);fill-opacity:1;" d="M 137.128906 7.058594 C 136.753906 7.058594 136.375 7.085938 136.003906 7.136719 C 135.632812 7.191406 135.273438 7.269531 134.921875 7.371094 C 134.570312 7.476562 134.238281 7.601562 133.921875 7.753906 C 133.605469 7.902344 133.316406 8.074219 133.046875 8.265625 C 132.78125 8.457031 132.539062 8.664062 132.332031 8.890625 C 132.121094 9.113281 131.941406 9.351562 131.796875 9.601562 C 131.652344 9.851562 131.539062 10.109375 131.46875 10.375 C 131.394531 10.636719 131.355469 10.90625 131.355469 11.175781 C 131.355469 11.445312 131.394531 11.714844 131.46875 11.980469 C 131.539062 12.246094 131.652344 12.503906 131.796875 12.75 C 131.941406 13 132.121094 13.238281 132.332031 13.464844 C 132.539062 13.6875 132.78125 13.894531 133.046875 14.085938 C 133.316406 14.277344 133.605469 14.449219 133.921875 14.601562 C 134.238281 14.75 134.570312 14.875 134.921875 14.980469 C 135.273438 15.082031 135.632812 15.160156 136.003906 15.214844 C 136.375 15.265625 136.753906 15.292969 137.128906 15.292969 C 137.507812 15.292969 137.886719 15.265625 138.257812 15.214844 C 138.628906 15.160156 138.988281 15.082031 139.339844 14.980469 C 139.6875 14.875 140.023438 14.75 140.335938 14.601562 C 140.652344 14.449219 140.945312 14.277344 141.210938 14.085938 C 141.480469 13.894531 141.722656 13.6875 141.929688 13.464844 C 142.140625 13.238281 142.320312 13 142.464844 12.75 C 142.609375 12.503906 142.71875 12.246094 142.792969 11.980469 C 142.867188 11.714844 142.902344 11.445312 142.902344 11.175781 C 142.902344 10.90625 142.867188 10.636719 142.792969 10.375 C 142.71875 10.109375 142.609375 9.851562 142.464844 9.601562 C 142.320312 9.351562 142.140625 9.113281 141.929688 8.890625 C 141.722656 8.664062 141.480469 8.457031 141.210938 8.265625 C 140.945312 8.074219 140.652344 7.902344 140.335938 7.753906 C 140.023438 7.601562 139.6875 7.476562 139.339844 7.371094 C 138.988281 7.269531 138.628906 7.191406 138.257812 7.136719 C 137.886719 7.085938 137.507812 7.058594 137.128906 7.058594 Z M 137.128906 7.058594 "/>
<path style=" stroke:none;fill-rule:nonzero;fill:rgb(99.215686%,66.666667%,66.27451%);fill-opacity:1;" d="M 136.449219 30.433594 L 14.0625 30.433594 C 12.886719 30.433594 11.929688 29.75 11.929688 28.914062 L 11.929688 8.578125 C 11.929688 7.742188 12.886719 7.058594 14.0625 7.058594 L 136.449219 7.058594 C 137.625 7.058594 138.578125 7.742188 138.578125 8.578125 L 138.578125 28.914062 C 138.578125 29.75 137.625 30.433594 136.449219 30.433594 Z M 136.449219 30.433594 "/>
<path style=" stroke:none;fill-rule:nonzero;fill:rgb(99.215686%,66.666667%,66.27451%);fill-opacity:1;" d="M 140.90625 40.980469 L 112.390625 40.980469 C 111.21875 40.980469 110.261719 40.296875 110.261719 39.457031 L 110.261719 11.429688 C 110.261719 10.589844 111.21875 9.902344 112.390625 9.902344 L 140.90625 9.902344 C 142.082031 9.902344 143.039062 10.589844 143.039062 11.429688 L 143.039062 39.457031 C 143.039062 40.296875 142.082031 40.980469 140.90625 40.980469 Z M 140.90625 40.980469 "/>
<path style=" stroke:none;fill-rule:nonzero;fill:rgb(99.215686%,66.666667%,66.27451%);fill-opacity:1;" d="M 137.210938 43.941406 L 13.332031 43.941406 C 12.15625 43.941406 11.199219 43.257812 11.199219 42.421875 L 11.199219 22.085938 C 11.199219 21.25 12.15625 20.566406 13.332031 20.566406 L 137.210938 20.566406 C 138.382812 20.566406 139.339844 21.25 139.339844 22.085938 L 139.339844 42.421875 C 139.339844 43.257812 138.382812 43.941406 137.210938 43.941406 Z M 137.210938 43.941406 "/>
<path style=" stroke:none;fill-rule:nonzero;fill:rgb(99.215686%,66.666667%,66.27451%);fill-opacity:1;" d="M 13.046875 7.058594 C 12.667969 7.058594 12.292969 7.085938 11.921875 7.136719 C 11.546875 7.191406 11.1875 7.269531 10.835938 7.371094 C 10.484375 7.476562 10.15625 7.601562 9.839844 7.753906 C 9.523438 7.902344 9.230469 8.074219 8.964844 8.265625 C 8.695312 8.457031 8.457031 8.664062 8.246094 8.890625 C 8.035156 9.113281 7.855469 9.351562 7.710938 9.601562 C 7.566406 9.851562 7.457031 10.109375 7.382812 10.375 C 7.308594 10.636719 7.273438 10.90625 7.273438 11.175781 C 7.273438 11.445312 7.308594 11.714844 7.382812 11.980469 C 7.457031 12.246094 7.566406 12.503906 7.710938 12.75 C 7.855469 13 8.035156 13.238281 8.246094 13.464844 C 8.457031 13.6875 8.695312 13.894531 8.964844 14.085938 C 9.230469 14.277344 9.523438 14.449219 9.839844 14.601562 C 10.15625 14.75 10.484375 14.875 10.835938 14.980469 C 11.1875 15.082031 11.546875 15.160156 11.921875 15.214844 C 12.292969 15.265625 12.667969 15.292969 13.046875 15.292969 C 13.425781 15.292969 13.800781 15.265625 14.171875 15.214844 C 14.546875 15.160156 14.90625 15.082031 15.253906 14.980469 C 15.605469 14.875 15.9375 14.75 16.253906 14.601562 C 16.570312 14.449219 16.863281 14.277344 17.128906 14.085938 C 17.398438 13.894531 17.636719 13.6875 17.847656 13.464844 C 18.054688 13.238281 18.234375 13 18.378906 12.75 C 18.527344 12.503906 18.632812 12.246094 18.707031 11.980469 C 18.78125 11.714844 18.820312 11.445312 18.820312 11.175781 C 18.820312 10.90625 18.78125 10.636719 18.707031 10.375 C 18.632812 10.109375 18.527344 9.851562 18.378906 9.601562 C 18.234375 9.351562 18.054688 9.113281 17.847656 8.890625 C 17.636719 8.664062 17.398438 8.457031 17.128906 8.265625 C 16.863281 8.074219 16.570312 7.902344 16.253906 7.753906 C 15.9375 7.601562 15.605469 7.476562 15.253906 7.371094 C 14.90625 7.269531 14.546875 7.191406 14.171875 7.136719 C 13.800781 7.085938 13.425781 7.058594 13.046875 7.058594 Z M 13.046875 7.058594 "/>
</g>
</svg>
