<?xml version="1.0" encoding="UTF-8"?>
<svg xmlns="http://www.w3.org/2000/svg" xmlns:xlink="http://www.w3.org/1999/xlink" width="135pt" height="135pt" viewBox="0 0 135 135" version="1.1">
<g id="surface1">
<path style=" stroke:none;fill-rule:nonzero;fill:rgb(99.607843%,78.039216%,28.627451%);fill-opacity:1;" d="M 132.8125 67.5 C 132.8125 103.570312 103.570312 132.8125 67.5 132.8125 C 31.429688 132.8125 2.1875 103.570312 2.1875 67.5 C 2.1875 31.429688 31.429688 2.1875 67.5 2.1875 C 103.570312 2.1875 132.8125 31.429688 132.8125 67.5 Z M 132.8125 67.5 "/>
<path style=" stroke:none;fill-rule:nonzero;fill:rgb(2.745098%,47.058824%,78.039216%);fill-opacity:1;" d="M 39.140625 30 L 101.898438 30 L 101.898438 92.761719 L 39.140625 92.761719 Z M 39.140625 30 "/>
<path style=" stroke:none;fill-rule:nonzero;fill:rgb(100%,41.176471%,23.137255%);fill-opacity:1;" d="M 53.058594 92.761719 L 53.011719 105.359375 L 45.691406 108.359375 L 59.125 111 L 61.101562 92.761719 Z M 53.058594 92.761719 "/>
<path style=" stroke:none;fill-rule:nonzero;fill:rgb(100%,41.176471%,23.137255%);fill-opacity:1;" d="M 78.621094 92.761719 L 77.660156 105.234375 L 83.78125 109.078125 L 71.648438 110.988281 L 70.941406 92.761719 Z M 78.621094 92.761719 "/>
<path style=" stroke:none;fill-rule:nonzero;fill:rgb(100%,41.176471%,23.137255%);fill-opacity:1;" d="M 38.421875 54.78125 C 38.421875 53.222656 36.109375 51.960938 33.261719 51.960938 C 30.410156 51.960938 28.101562 53.222656 28.101562 54.78125 C 28.101562 56.335938 30.410156 57.601562 33.261719 57.601562 C 36.109375 57.601562 38.421875 56.335938 38.421875 54.78125 Z M 38.421875 54.78125 "/>
<path style=" stroke:none;fill-rule:nonzero;fill:rgb(100%,41.176471%,23.137255%);fill-opacity:1;" d="M 70.578125 49.5 C 70.578125 47.941406 68.269531 46.679688 65.421875 46.679688 C 62.570312 46.679688 60.261719 47.941406 60.261719 49.5 C 60.261719 51.058594 62.570312 52.320312 65.421875 52.320312 C 68.269531 52.320312 70.578125 51.058594 70.578125 49.5 Z M 70.578125 49.5 "/>
<path style="fill:none;stroke-width:10;stroke-linecap:butt;stroke-linejoin:round;stroke:rgb(0%,0%,0%);stroke-opacity:1;stroke-miterlimit:4;" d="M 329.4375 353.28125 C 329.4375 367.59375 319.75 379.1875 307.8125 379.1875 C 295.875 379.1875 286.1875 367.59375 286.1875 353.28125 " transform="matrix(0.125,0,0,0.125,0,0)"/>
<path style="fill:none;stroke-width:10;stroke-linecap:butt;stroke-linejoin:round;stroke:rgb(0%,0%,0%);stroke-opacity:1;stroke-miterlimit:4;" d="M 431.1875 353.28125 C 431.1875 367.59375 421.53125 379.1875 409.59375 379.1875 C 397.625 379.1875 388 367.59375 388 353.28125 " transform="matrix(0.125,0,0,0.125,0,0)"/>
<path style="fill:none;stroke-width:11;stroke-linecap:round;stroke-linejoin:round;stroke:rgb(0%,0%,0%);stroke-opacity:1;stroke-miterlimit:4;" d="M 410.125 439.9375 C 410.125 457.6875 397.65625 472.0625 382.28125 472.0625 C 366.90625 472.0625 354.4375 457.6875 354.4375 439.9375 " transform="matrix(0.125,0,0,0.125,0,0)"/>
</g>
</svg>
