<?xml version="1.0" encoding="UTF-8"?><svg xmlns="http://www.w3.org/2000/svg" xmlns:xlink="http://www.w3.org/1999/xlink" width="300pt" zoomAndPan="magnify" viewBox="0 0 300 143.999998" height="143.999998pt" preserveAspectRatio="xMidYMid meet" version="1.2"><g xml:id="surface1" id="surface1"><path style=" stroke:none;fill-rule:nonzero;fill:rgb(100%,41.178894%,23.139954%);fill-opacity:1;" d="M 35.644531 24 C 34.882812 24 34.125 24.074219 33.378906 24.222656 C 32.628906 24.371094 31.902344 24.59375 31.195312 24.886719 C 30.492188 25.175781 29.820312 25.535156 29.1875 25.960938 C 28.550781 26.382812 27.964844 26.863281 27.425781 27.40625 C 26.886719 27.945312 26.402344 28.53125 25.980469 29.167969 C 25.554688 29.800781 25.199219 30.472656 24.90625 31.175781 C 24.613281 31.882812 24.394531 32.609375 24.242188 33.355469 C 24.09375 34.105469 24.019531 34.863281 24.019531 35.625 C 24.019531 36.386719 24.09375 37.144531 24.242188 37.894531 C 24.394531 38.640625 24.613281 39.367188 24.90625 40.074219 C 25.199219 40.777344 25.554688 41.449219 25.980469 42.082031 C 26.402344 42.71875 26.886719 43.304688 27.425781 43.84375 C 27.964844 44.386719 28.550781 44.867188 29.1875 45.289062 C 29.820312 45.714844 30.492188 46.074219 31.195312 46.363281 C 31.902344 46.65625 32.628906 46.878906 33.378906 47.027344 C 34.125 47.175781 34.882812 47.25 35.644531 47.25 C 36.410156 47.25 37.164062 47.175781 37.914062 47.027344 C 38.660156 46.878906 39.390625 46.65625 40.09375 46.363281 C 40.800781 46.074219 41.46875 45.714844 42.105469 45.289062 C 42.738281 44.867188 43.324219 44.386719 43.867188 43.84375 C 44.40625 43.304688 44.886719 42.71875 45.3125 42.082031 C 45.734375 41.449219 46.09375 40.777344 46.386719 40.074219 C 46.675781 39.367188 46.898438 38.640625 47.046875 37.894531 C 47.195312 37.144531 47.269531 36.386719 47.269531 35.625 C 47.269531 34.863281 47.195312 34.105469 47.046875 33.355469 C 46.898438 32.609375 46.675781 31.882812 46.386719 31.175781 C 46.09375 30.472656 45.734375 29.800781 45.3125 29.167969 C 44.886719 28.53125 44.40625 27.945312 43.867188 27.40625 C 43.324219 26.863281 42.738281 26.382812 42.105469 25.960938 C 41.46875 25.535156 40.800781 25.175781 40.09375 24.886719 C 39.390625 24.59375 38.660156 24.371094 37.914062 24.222656 C 37.164062 24.074219 36.410156 24 35.644531 24 Z M 35.644531 24 "/><path style=" stroke:none;fill-rule:nonzero;fill:rgb(100%,41.178894%,23.139954%);fill-opacity:1;" d="M 240.589844 115.714844 L 18.945312 115.714844 C 16.578125 115.714844 14.652344 113.78125 14.652344 111.40625 L 14.652344 32.277344 C 14.652344 29.902344 16.578125 27.964844 18.945312 27.964844 L 240.589844 27.964844 C 242.957031 27.964844 244.882812 29.902344 244.882812 32.277344 L 244.882812 111.40625 C 244.882812 113.78125 242.957031 115.714844 240.589844 115.714844 Z M 240.589844 115.714844 "/><path style=" stroke:none;fill-rule:nonzero;fill:rgb(100%,41.178894%,23.139954%);fill-opacity:1;" d="M 26.265625 100.546875 C 25.503906 100.546875 24.75 100.621094 24 100.769531 C 23.25 100.917969 22.523438 101.140625 21.820312 101.429688 C 21.113281 101.722656 20.445312 102.082031 19.808594 102.503906 C 19.175781 102.929688 18.585938 103.410156 18.046875 103.949219 C 17.507812 104.492188 17.027344 105.078125 16.601562 105.710938 C 16.175781 106.347656 15.820312 107.015625 15.527344 107.722656 C 15.234375 108.425781 15.015625 109.15625 14.867188 109.902344 C 14.71875 110.652344 14.640625 111.40625 14.640625 112.171875 C 14.640625 112.933594 14.71875 113.691406 14.867188 114.4375 C 15.015625 115.1875 15.234375 115.914062 15.527344 116.621094 C 15.820312 117.324219 16.175781 117.996094 16.601562 118.628906 C 17.027344 119.265625 17.507812 119.851562 18.046875 120.390625 C 18.585938 120.929688 19.175781 121.414062 19.808594 121.835938 C 20.445312 122.261719 21.113281 122.617188 21.820312 122.910156 C 22.523438 123.203125 23.25 123.421875 24 123.574219 C 24.75 123.722656 25.503906 123.796875 26.265625 123.796875 C 27.03125 123.796875 27.785156 123.722656 28.535156 123.574219 C 29.285156 123.421875 30.011719 123.203125 30.714844 122.910156 C 31.421875 122.617188 32.089844 122.261719 32.726562 121.835938 C 33.359375 121.414062 33.949219 120.929688 34.488281 120.390625 C 35.027344 119.851562 35.507812 119.265625 35.933594 118.628906 C 36.355469 117.996094 36.714844 117.324219 37.007812 116.621094 C 37.300781 115.914062 37.519531 115.1875 37.667969 114.4375 C 37.816406 113.691406 37.890625 112.933594 37.890625 112.171875 C 37.890625 111.40625 37.816406 110.652344 37.667969 109.902344 C 37.519531 109.15625 37.300781 108.425781 37.007812 107.722656 C 36.714844 107.015625 36.355469 106.347656 35.933594 105.710938 C 35.507812 105.078125 35.027344 104.492188 34.488281 103.949219 C 33.949219 103.410156 33.359375 102.929688 32.726562 102.503906 C 32.089844 102.082031 31.421875 101.722656 30.714844 101.429688 C 30.011719 101.140625 29.285156 100.917969 28.535156 100.769531 C 27.785156 100.621094 27.03125 100.546875 26.265625 100.546875 Z M 26.265625 100.546875 "/><path style=" stroke:none;fill-rule:nonzero;fill:rgb(100%,41.178894%,23.139954%);fill-opacity:1;" d="M 276.101562 100.546875 C 275.339844 100.546875 274.582031 100.621094 273.832031 100.769531 C 273.085938 100.917969 272.359375 101.140625 271.652344 101.429688 C 270.949219 101.722656 270.277344 102.082031 269.644531 102.503906 C 269.007812 102.929688 268.421875 103.410156 267.882812 103.949219 C 267.34375 104.492188 266.859375 105.078125 266.4375 105.710938 C 266.011719 106.347656 265.652344 107.015625 265.363281 107.722656 C 265.070312 108.425781 264.847656 109.15625 264.699219 109.902344 C 264.550781 110.652344 264.476562 111.40625 264.476562 112.171875 C 264.476562 112.933594 264.550781 113.691406 264.699219 114.4375 C 264.847656 115.1875 265.070312 115.914062 265.363281 116.621094 C 265.652344 117.324219 266.011719 117.996094 266.4375 118.628906 C 266.859375 119.265625 267.34375 119.851562 267.882812 120.390625 C 268.421875 120.929688 269.007812 121.414062 269.644531 121.835938 C 270.277344 122.261719 270.949219 122.617188 271.652344 122.910156 C 272.359375 123.203125 273.085938 123.421875 273.832031 123.574219 C 274.582031 123.722656 275.339844 123.796875 276.101562 123.796875 C 276.863281 123.796875 277.621094 123.722656 278.371094 123.574219 C 279.117188 123.421875 279.84375 123.203125 280.550781 122.910156 C 281.253906 122.617188 281.925781 122.261719 282.558594 121.835938 C 283.195312 121.414062 283.78125 120.929688 284.320312 120.390625 C 284.863281 119.851562 285.34375 119.265625 285.765625 118.628906 C 286.191406 117.996094 286.550781 117.324219 286.84375 116.621094 C 287.132812 115.914062 287.355469 115.1875 287.503906 114.4375 C 287.652344 113.691406 287.726562 112.933594 287.726562 112.171875 C 287.726562 111.40625 287.652344 110.652344 287.503906 109.902344 C 287.355469 109.15625 287.132812 108.425781 286.84375 107.722656 C 286.550781 107.015625 286.191406 106.347656 285.765625 105.710938 C 285.34375 105.078125 284.863281 104.492188 284.320312 103.949219 C 283.78125 103.410156 283.195312 102.929688 282.558594 102.503906 C 281.925781 102.082031 281.253906 101.722656 280.550781 101.429688 C 279.84375 101.140625 279.117188 100.917969 278.371094 100.769531 C 277.621094 100.621094 276.863281 100.546875 276.101562 100.546875 Z M 276.101562 100.546875 "/><path style=" stroke:none;fill-rule:nonzero;fill:rgb(100%,41.178894%,23.139954%);fill-opacity:1;" d="M 276.101562 19.929688 C 275.339844 19.929688 274.582031 20.003906 273.832031 20.152344 C 273.085938 20.304688 272.359375 20.523438 271.652344 20.816406 C 270.949219 21.109375 270.277344 21.464844 269.644531 21.890625 C 269.007812 22.3125 268.421875 22.796875 267.882812 23.335938 C 267.34375 23.875 266.859375 24.460938 266.4375 25.097656 C 266.011719 25.730469 265.652344 26.402344 265.363281 27.105469 C 265.070312 27.8125 264.847656 28.539062 264.699219 29.289062 C 264.550781 30.035156 264.476562 30.792969 264.476562 31.554688 C 264.476562 32.320312 264.550781 33.074219 264.699219 33.824219 C 264.847656 34.574219 265.070312 35.300781 265.363281 36.003906 C 265.652344 36.710938 266.011719 37.378906 266.4375 38.015625 C 266.859375 38.648438 267.34375 39.234375 267.882812 39.777344 C 268.421875 40.316406 269.007812 40.796875 269.644531 41.222656 C 270.277344 41.644531 270.949219 42.003906 271.652344 42.296875 C 272.359375 42.589844 273.085938 42.808594 273.832031 42.957031 C 274.582031 43.105469 275.339844 43.179688 276.101562 43.179688 C 276.863281 43.179688 277.621094 43.105469 278.371094 42.957031 C 279.117188 42.808594 279.84375 42.589844 280.550781 42.296875 C 281.253906 42.003906 281.925781 41.644531 282.558594 41.222656 C 283.195312 40.796875 283.78125 40.316406 284.320312 39.777344 C 284.863281 39.234375 285.34375 38.648438 285.765625 38.015625 C 286.191406 37.378906 286.550781 36.710938 286.84375 36.003906 C 287.132812 35.300781 287.355469 34.574219 287.503906 33.824219 C 287.652344 33.074219 287.726562 32.320312 287.726562 31.554688 C 287.726562 30.792969 287.652344 30.035156 287.503906 29.289062 C 287.355469 28.539062 287.132812 27.8125 286.84375 27.105469 C 286.550781 26.402344 286.191406 25.730469 285.765625 25.097656 C 285.34375 24.460938 284.863281 23.875 284.320312 23.335938 C 283.78125 22.796875 283.195312 22.3125 282.558594 21.890625 C 281.925781 21.464844 281.253906 21.109375 280.550781 20.816406 C 279.84375 20.523438 279.117188 20.304688 278.371094 20.152344 C 277.621094 20.003906 276.863281 19.929688 276.101562 19.929688 Z M 276.101562 19.929688 "/><path style=" stroke:none;fill-rule:nonzero;fill:rgb(100%,41.178894%,23.139954%);fill-opacity:1;" d="M 274.726562 85.929688 L 28.3125 85.929688 C 25.949219 85.929688 24.019531 84.003906 24.019531 81.636719 L 24.019531 24.222656 C 24.019531 21.859375 25.949219 19.929688 28.3125 19.929688 L 274.726562 19.929688 C 277.09375 19.929688 279.019531 21.859375 279.019531 24.222656 L 279.019531 81.636719 C 279.019531 84.003906 277.09375 85.929688 274.726562 85.929688 Z M 274.726562 85.929688 "/><path style=" stroke:none;fill-rule:nonzero;fill:rgb(100%,41.178894%,23.139954%);fill-opacity:1;" d="M 283.707031 115.714844 L 226.292969 115.714844 C 223.929688 115.714844 222.003906 113.78125 222.003906 111.40625 L 222.003906 32.277344 C 222.003906 29.902344 223.929688 27.964844 226.292969 27.964844 L 283.707031 27.964844 C 286.070312 27.964844 287.996094 29.902344 287.996094 32.277344 L 287.996094 111.40625 C 287.996094 113.78125 286.070312 115.714844 283.707031 115.714844 Z M 283.707031 115.714844 "/><path style=" stroke:none;fill-rule:nonzero;fill:rgb(100%,41.178894%,23.139954%);fill-opacity:1;" d="M 276.261719 124.070312 L 26.839844 124.070312 C 24.476562 124.070312 22.550781 122.140625 22.550781 119.777344 L 22.550781 62.363281 C 22.550781 59.996094 24.476562 58.070312 26.839844 58.070312 L 276.261719 58.070312 C 278.625 58.070312 280.550781 59.996094 280.550781 62.363281 L 280.550781 119.777344 C 280.550781 122.140625 278.625 124.070312 276.261719 124.070312 Z M 276.261719 124.070312 "/><path style=" stroke:none;fill-rule:nonzero;fill:rgb(100%,41.178894%,23.139954%);fill-opacity:1;" d="M 26.265625 19.929688 C 25.503906 19.929688 24.75 20.003906 24 20.152344 C 23.25 20.304688 22.523438 20.523438 21.820312 20.816406 C 21.113281 21.109375 20.445312 21.464844 19.808594 21.890625 C 19.175781 22.3125 18.585938 22.796875 18.046875 23.335938 C 17.507812 23.875 17.027344 24.460938 16.601562 25.097656 C 16.175781 25.730469 15.820312 26.402344 15.527344 27.105469 C 15.234375 27.8125 15.015625 28.539062 14.867188 29.289062 C 14.71875 30.035156 14.640625 30.792969 14.640625 31.554688 C 14.640625 32.320312 14.71875 33.074219 14.867188 33.824219 C 15.015625 34.574219 15.234375 35.300781 15.527344 36.003906 C 15.820312 36.710938 16.175781 37.378906 16.601562 38.015625 C 17.027344 38.648438 17.507812 39.234375 18.046875 39.777344 C 18.585938 40.316406 19.175781 40.796875 19.808594 41.222656 C 20.445312 41.644531 21.113281 42.003906 21.820312 42.296875 C 22.523438 42.589844 23.25 42.808594 24 42.957031 C 24.75 43.105469 25.503906 43.179688 26.265625 43.179688 C 27.03125 43.179688 27.785156 43.105469 28.535156 42.957031 C 29.285156 42.808594 30.011719 42.589844 30.714844 42.296875 C 31.421875 42.003906 32.089844 41.644531 32.726562 41.222656 C 33.359375 40.796875 33.949219 40.316406 34.488281 39.777344 C 35.027344 39.234375 35.507812 38.648438 35.933594 38.015625 C 36.355469 37.378906 36.714844 36.710938 37.007812 36.003906 C 37.300781 35.300781 37.519531 34.574219 37.667969 33.824219 C 37.816406 33.074219 37.890625 32.320312 37.890625 31.554688 C 37.890625 30.792969 37.816406 30.035156 37.667969 29.289062 C 37.519531 28.539062 37.300781 27.8125 37.007812 27.105469 C 36.714844 26.402344 36.355469 25.730469 35.933594 25.097656 C 35.507812 24.460938 35.027344 23.875 34.488281 23.335938 C 33.949219 22.796875 33.359375 22.3125 32.726562 21.890625 C 32.089844 21.464844 31.421875 21.109375 30.714844 20.816406 C 30.011719 20.523438 29.285156 20.304688 28.535156 20.152344 C 27.785156 20.003906 27.03125 19.929688 26.265625 19.929688 Z M 26.265625 19.929688 "/></g></svg>