<?xml version="1.0" encoding="UTF-8"?><svg xmlns="http://www.w3.org/2000/svg" xmlns:xlink="http://www.w3.org/1999/xlink" width="300pt" zoomAndPan="magnify" viewBox="0 0 300 93.749996" height="93.749996pt" preserveAspectRatio="xMidYMid meet" version="1.2"><defs><clipPath xml:id="clip1" id="clip1"><path d="M 0.398438 0 L 299.601562 0 L 299.601562 93.5 L 0.398438 93.5 Z M 0.398438 0 "/></clipPath><clipPath xml:id="clip2" id="clip2"><path d="M 0.398438 1 L 299.601562 1 L 299.601562 91 L 0.398438 91 Z M 0.398438 1 "/></clipPath></defs><g xml:id="surface1" id="surface1"><g clip-rule="nonzero" clip-path="url(#clip1)"><path style=" stroke:none;fill-rule:nonzero;fill:rgb(100%,100%,100%);fill-opacity:1;" d="M 0.398438 0 L 299.601562 0 L 299.601562 100.234375 L 0.398438 100.234375 Z M 0.398438 0 "/><path style=" stroke:none;fill-rule:nonzero;fill:rgb(100%,100%,100%);fill-opacity:1;" d="M 0.398438 0 L 299.601562 0 L 299.601562 93.5 L 0.398438 93.5 Z M 0.398438 0 "/><path style=" stroke:none;fill-rule:nonzero;fill:rgb(100%,100%,100%);fill-opacity:1;" d="M 0.398438 0 L 299.601562 0 L 299.601562 93.5 L 0.398438 93.5 Z M 0.398438 0 "/></g><g clip-rule="nonzero" clip-path="url(#clip2)"><path style=" stroke:none;fill-rule:nonzero;fill:rgb(100%,100%,100%);fill-opacity:1;" d="M 291.523438 90.941406 L 8.476562 90.941406 C 4.03125 90.941406 0.410156 87.320312 0.410156 82.875 L 0.410156 9.25 C 0.410156 4.804688 4.03125 1.183594 8.476562 1.183594 L 291.523438 1.183594 C 295.96875 1.183594 299.589844 4.804688 299.589844 9.25 L 299.589844 82.875 C 299.589844 87.320312 295.96875 90.941406 291.523438 90.941406 Z M 291.523438 90.941406 "/></g></g></svg>