<?xml version="1.0" encoding="UTF-8"?><svg xmlns="http://www.w3.org/2000/svg" xmlns:xlink="http://www.w3.org/1999/xlink" width="206.25" zoomAndPan="magnify" viewBox="0 0 206.25 91.5" height="91.5" preserveAspectRatio="xMidYMid meet" version="1.0"><defs><clipPath id="clip-0"><path d="M 0.1875 13 L 171 13 L 171 77 L 0.1875 77 Z M 0.1875 13 " clip-rule="nonzero"/></clipPath><clipPath id="clip-1"><path d="M 0.1875 66 L 18 66 L 18 84 L 0.1875 84 Z M 0.1875 66 " clip-rule="nonzero"/></clipPath><clipPath id="clip-2"><path d="M 188 66 L 205.316406 66 L 205.316406 84 L 188 84 Z M 188 66 " clip-rule="nonzero"/></clipPath><clipPath id="clip-3"><path d="M 188 7 L 205.316406 7 L 205.316406 26 L 188 26 Z M 188 7 " clip-rule="nonzero"/></clipPath><clipPath id="clip-4"><path d="M 153 16 L 205.316406 16 L 205.316406 77 L 153 77 Z M 153 16 " clip-rule="nonzero"/></clipPath><clipPath id="clip-5"><path d="M 0.1875 7 L 18 7 L 18 26 L 0.1875 26 Z M 0.1875 7 " clip-rule="nonzero"/></clipPath></defs><path fill="rgb(99.609375%, 78.039551%, 28.62854%)" d="M 19.625 10.921875 C 19.0625 10.921875 18.503906 10.976562 17.949219 11.085938 C 17.398438 11.199219 16.863281 11.359375 16.339844 11.574219 C 15.820312 11.792969 15.328125 12.054688 14.859375 12.367188 C 14.390625 12.679688 13.957031 13.035156 13.558594 13.433594 C 13.160156 13.832031 12.804688 14.265625 12.492188 14.734375 C 12.179688 15.203125 11.914062 15.699219 11.699219 16.21875 C 11.484375 16.738281 11.320312 17.273438 11.210938 17.828125 C 11.101562 18.378906 11.046875 18.9375 11.046875 19.5 C 11.046875 20.0625 11.101562 20.621094 11.210938 21.175781 C 11.320312 21.726562 11.484375 22.261719 11.699219 22.785156 C 11.914062 23.304688 12.179688 23.796875 12.492188 24.265625 C 12.804688 24.734375 13.160156 25.167969 13.558594 25.566406 C 13.957031 25.964844 14.390625 26.320312 14.859375 26.632812 C 15.328125 26.945312 15.820312 27.210938 16.339844 27.425781 C 16.863281 27.640625 17.398438 27.804688 17.949219 27.914062 C 18.503906 28.023438 19.0625 28.078125 19.625 28.078125 C 20.1875 28.078125 20.746094 28.023438 21.296875 27.914062 C 21.851562 27.804688 22.386719 27.640625 22.90625 27.425781 C 23.425781 27.210938 23.921875 26.945312 24.390625 26.632812 C 24.859375 26.320312 25.292969 25.964844 25.691406 25.566406 C 26.089844 25.167969 26.445312 24.734375 26.757812 24.265625 C 27.070312 23.796875 27.332031 23.304688 27.550781 22.785156 C 27.765625 22.261719 27.925781 21.726562 28.039062 21.175781 C 28.148438 20.621094 28.203125 20.0625 28.203125 19.5 C 28.203125 18.9375 28.148438 18.378906 28.039062 17.828125 C 27.925781 17.273438 27.765625 16.738281 27.550781 16.21875 C 27.332031 15.699219 27.070312 15.203125 26.757812 14.734375 C 26.445312 14.265625 26.089844 13.832031 25.691406 13.433594 C 25.292969 13.035156 24.859375 12.679688 24.390625 12.367188 C 23.921875 12.054688 23.425781 11.792969 22.90625 11.574219 C 22.386719 11.359375 21.851562 11.199219 21.296875 11.085938 C 20.746094 10.976562 20.1875 10.921875 19.625 10.921875 Z M 19.625 10.921875 " fill-opacity="1" fill-rule="nonzero"/><g clip-path="url(#clip-0)"><path fill="rgb(99.609375%, 78.039551%, 28.62854%)" d="M 167.160156 76.4375 L 3.285156 76.4375 C 1.578125 76.4375 0.191406 75.054688 0.191406 73.359375 L 0.191406 16.855469 C 0.191406 15.160156 1.578125 13.78125 3.285156 13.78125 L 167.160156 13.78125 C 168.867188 13.78125 170.257812 15.160156 170.257812 16.855469 L 170.257812 73.359375 C 170.257812 75.054688 168.867188 76.4375 167.160156 76.4375 Z M 167.160156 76.4375 " fill-opacity="1" fill-rule="nonzero"/></g><g clip-path="url(#clip-1)"><path fill="rgb(99.609375%, 78.039551%, 28.62854%)" d="M 8.765625 66.066406 C 8.203125 66.066406 7.644531 66.121094 7.09375 66.230469 C 6.539062 66.339844 6.003906 66.503906 5.484375 66.71875 C 4.960938 66.933594 4.46875 67.199219 4 67.511719 C 3.53125 67.824219 3.097656 68.179688 2.699219 68.578125 C 2.300781 68.976562 1.945312 69.410156 1.632812 69.878906 C 1.320312 70.347656 1.054688 70.839844 0.839844 71.359375 C 0.625 71.882812 0.460938 72.417969 0.351562 72.96875 C 0.242188 73.523438 0.1875 74.082031 0.1875 74.644531 C 0.1875 75.207031 0.242188 75.765625 0.351562 76.316406 C 0.460938 76.871094 0.625 77.40625 0.839844 77.925781 C 1.054688 78.445312 1.320312 78.941406 1.632812 79.410156 C 1.945312 79.878906 2.300781 80.3125 2.699219 80.710938 C 3.097656 81.109375 3.53125 81.464844 4 81.777344 C 4.46875 82.089844 4.960938 82.351562 5.484375 82.570312 C 6.003906 82.785156 6.539062 82.945312 7.09375 83.058594 C 7.644531 83.167969 8.203125 83.222656 8.765625 83.222656 C 9.328125 83.222656 9.886719 83.167969 10.4375 83.058594 C 10.992188 82.945312 11.527344 82.785156 12.046875 82.570312 C 12.570312 82.351562 13.0625 82.089844 13.53125 81.777344 C 14 81.464844 14.433594 81.109375 14.832031 80.710938 C 15.230469 80.3125 15.585938 79.878906 15.898438 79.410156 C 16.210938 78.941406 16.476562 78.445312 16.691406 77.925781 C 16.90625 77.40625 17.070312 76.871094 17.179688 76.316406 C 17.289062 75.765625 17.34375 75.207031 17.34375 74.644531 C 17.34375 74.082031 17.289062 73.523438 17.179688 72.96875 C 17.070312 72.417969 16.90625 71.882812 16.691406 71.359375 C 16.476562 70.839844 16.210938 70.347656 15.898438 69.878906 C 15.585938 69.410156 15.230469 68.976562 14.832031 68.578125 C 14.433594 68.179688 14 67.824219 13.53125 67.511719 C 13.0625 67.199219 12.570312 66.933594 12.046875 66.71875 C 11.527344 66.503906 10.992188 66.339844 10.4375 66.230469 C 9.886719 66.121094 9.328125 66.066406 8.765625 66.066406 Z M 8.765625 66.066406 " fill-opacity="1" fill-rule="nonzero"/></g><g clip-path="url(#clip-2)"><path fill="rgb(99.609375%, 78.039551%, 28.62854%)" d="M 196.949219 66.066406 C 196.386719 66.066406 195.828125 66.121094 195.273438 66.230469 C 194.722656 66.339844 194.1875 66.503906 193.667969 66.71875 C 193.144531 66.933594 192.652344 67.199219 192.183594 67.511719 C 191.714844 67.824219 191.28125 68.179688 190.882812 68.578125 C 190.484375 68.976562 190.128906 69.410156 189.816406 69.878906 C 189.503906 70.347656 189.238281 70.839844 189.023438 71.359375 C 188.808594 71.882812 188.644531 72.417969 188.535156 72.96875 C 188.425781 73.523438 188.371094 74.082031 188.371094 74.644531 C 188.371094 75.207031 188.425781 75.765625 188.535156 76.316406 C 188.644531 76.871094 188.808594 77.40625 189.023438 77.925781 C 189.238281 78.445312 189.503906 78.941406 189.816406 79.410156 C 190.128906 79.878906 190.484375 80.3125 190.882812 80.710938 C 191.28125 81.109375 191.714844 81.464844 192.183594 81.777344 C 192.652344 82.089844 193.144531 82.351562 193.667969 82.570312 C 194.1875 82.785156 194.722656 82.945312 195.273438 83.058594 C 195.828125 83.167969 196.386719 83.222656 196.949219 83.222656 C 197.511719 83.222656 198.070312 83.167969 198.621094 83.058594 C 199.175781 82.945312 199.710938 82.785156 200.230469 82.570312 C 200.75 82.351562 201.246094 82.089844 201.714844 81.777344 C 202.183594 81.464844 202.617188 81.109375 203.015625 80.710938 C 203.414062 80.3125 203.769531 79.878906 204.082031 79.410156 C 204.394531 78.941406 204.660156 78.445312 204.875 77.925781 C 205.089844 77.40625 205.253906 76.871094 205.363281 76.316406 C 205.472656 75.765625 205.527344 75.207031 205.527344 74.644531 C 205.527344 74.082031 205.472656 73.523438 205.363281 72.96875 C 205.253906 72.417969 205.089844 71.882812 204.875 71.359375 C 204.660156 70.839844 204.394531 70.347656 204.082031 69.878906 C 203.769531 69.410156 203.414062 68.976562 203.015625 68.578125 C 202.617188 68.179688 202.183594 67.824219 201.714844 67.511719 C 201.246094 67.199219 200.75 66.933594 200.230469 66.71875 C 199.710938 66.503906 199.175781 66.339844 198.621094 66.230469 C 198.070312 66.121094 197.511719 66.066406 196.949219 66.066406 Z M 196.949219 66.066406 " fill-opacity="1" fill-rule="nonzero"/></g><g clip-path="url(#clip-3)"><path fill="rgb(99.609375%, 78.039551%, 28.62854%)" d="M 196.949219 7.992188 C 196.386719 7.992188 195.828125 8.046875 195.273438 8.15625 C 194.722656 8.265625 194.1875 8.429688 193.667969 8.644531 C 193.144531 8.859375 192.652344 9.125 192.183594 9.4375 C 191.714844 9.75 191.28125 10.105469 190.882812 10.503906 C 190.484375 10.902344 190.128906 11.335938 189.816406 11.804688 C 189.503906 12.273438 189.238281 12.765625 189.023438 13.285156 C 188.808594 13.808594 188.644531 14.34375 188.535156 14.894531 C 188.425781 15.449219 188.371094 16.007812 188.371094 16.570312 C 188.371094 17.132812 188.425781 17.691406 188.535156 18.242188 C 188.644531 18.796875 188.808594 19.332031 189.023438 19.851562 C 189.238281 20.371094 189.503906 20.867188 189.816406 21.335938 C 190.128906 21.804688 190.484375 22.238281 190.882812 22.636719 C 191.28125 23.035156 191.714844 23.390625 192.183594 23.703125 C 192.652344 24.015625 193.144531 24.277344 193.667969 24.496094 C 194.1875 24.710938 194.722656 24.871094 195.273438 24.984375 C 195.828125 25.09375 196.386719 25.148438 196.949219 25.148438 C 197.511719 25.148438 198.070312 25.09375 198.621094 24.984375 C 199.175781 24.871094 199.710938 24.710938 200.230469 24.496094 C 200.75 24.277344 201.246094 24.015625 201.714844 23.703125 C 202.183594 23.390625 202.617188 23.035156 203.015625 22.636719 C 203.414062 22.238281 203.769531 21.804688 204.082031 21.335938 C 204.394531 20.867188 204.660156 20.371094 204.875 19.851562 C 205.089844 19.332031 205.253906 18.796875 205.363281 18.242188 C 205.472656 17.691406 205.527344 17.132812 205.527344 16.570312 C 205.527344 16.007812 205.472656 15.449219 205.363281 14.894531 C 205.253906 14.34375 205.089844 13.808594 204.875 13.285156 C 204.660156 12.765625 204.394531 12.273438 204.082031 11.804688 C 203.769531 11.335938 203.414062 10.902344 203.015625 10.503906 C 202.617188 10.105469 202.183594 9.75 201.714844 9.4375 C 201.246094 9.125 200.75 8.859375 200.230469 8.644531 C 199.710938 8.429688 199.175781 8.265625 198.621094 8.15625 C 198.070312 8.046875 197.511719 7.992188 196.949219 7.992188 Z M 196.949219 7.992188 " fill-opacity="1" fill-rule="nonzero"/></g><path fill="rgb(99.609375%, 78.039551%, 28.62854%)" d="M 194.914062 55.730469 L 10.15625 55.730469 C 8.453125 55.730469 7.066406 54.335938 7.066406 52.625 L 7.066406 11.097656 C 7.066406 9.386719 8.453125 7.992188 10.15625 7.992188 L 194.914062 7.992188 C 196.617188 7.992188 198.003906 9.386719 198.003906 11.097656 L 198.003906 52.625 C 198.003906 54.335938 196.617188 55.730469 194.914062 55.730469 Z M 194.914062 55.730469 " fill-opacity="1" fill-rule="nonzero"/><g clip-path="url(#clip-4)"><path fill="rgb(99.609375%, 78.039551%, 28.62854%)" d="M 204.296875 76.878906 L 156.746094 76.878906 C 155.050781 76.878906 153.667969 75.488281 153.667969 73.78125 L 153.667969 19.566406 C 153.667969 17.859375 155.050781 16.46875 156.746094 16.46875 L 204.296875 16.46875 C 205.992188 16.46875 207.375 17.859375 207.375 19.566406 L 207.375 73.78125 C 207.375 75.488281 205.992188 76.878906 204.296875 76.878906 Z M 204.296875 76.878906 " fill-opacity="1" fill-rule="nonzero"/></g><path fill="rgb(99.609375%, 78.039551%, 28.62854%)" d="M 196.40625 83.203125 L 10.15625 83.203125 C 8.453125 83.203125 7.066406 81.8125 7.066406 80.101562 L 7.066406 38.570312 C 7.066406 36.859375 8.453125 35.464844 10.15625 35.464844 L 196.40625 35.464844 C 198.109375 35.464844 199.5 36.859375 199.5 38.570312 L 199.5 80.101562 C 199.5 81.8125 198.109375 83.203125 196.40625 83.203125 Z M 196.40625 83.203125 " fill-opacity="1" fill-rule="nonzero"/><g clip-path="url(#clip-5)"><path fill="rgb(99.609375%, 78.039551%, 28.62854%)" d="M 8.765625 7.992188 C 8.203125 7.992188 7.644531 8.046875 7.09375 8.15625 C 6.539062 8.265625 6.003906 8.429688 5.484375 8.644531 C 4.960938 8.859375 4.46875 9.125 4 9.4375 C 3.53125 9.75 3.097656 10.105469 2.699219 10.503906 C 2.300781 10.902344 1.945312 11.335938 1.632812 11.804688 C 1.320312 12.273438 1.054688 12.765625 0.839844 13.285156 C 0.625 13.808594 0.460938 14.34375 0.351562 14.894531 C 0.242188 15.449219 0.1875 16.007812 0.1875 16.570312 C 0.1875 17.132812 0.242188 17.691406 0.351562 18.242188 C 0.460938 18.796875 0.625 19.332031 0.839844 19.851562 C 1.054688 20.371094 1.320312 20.867188 1.632812 21.335938 C 1.945312 21.804688 2.300781 22.238281 2.699219 22.636719 C 3.097656 23.035156 3.53125 23.390625 4 23.703125 C 4.46875 24.015625 4.960938 24.277344 5.484375 24.496094 C 6.003906 24.710938 6.539062 24.871094 7.09375 24.984375 C 7.644531 25.09375 8.203125 25.148438 8.765625 25.148438 C 9.328125 25.148438 9.886719 25.09375 10.4375 24.984375 C 10.992188 24.871094 11.527344 24.710938 12.046875 24.496094 C 12.570312 24.277344 13.0625 24.015625 13.53125 23.703125 C 14 23.390625 14.433594 23.035156 14.832031 22.636719 C 15.230469 22.238281 15.585938 21.804688 15.898438 21.335938 C 16.210938 20.867188 16.476562 20.371094 16.691406 19.851562 C 16.90625 19.332031 17.070312 18.796875 17.179688 18.242188 C 17.289062 17.691406 17.34375 17.132812 17.34375 16.570312 C 17.34375 16.007812 17.289062 15.449219 17.179688 14.894531 C 17.070312 14.34375 16.90625 13.808594 16.691406 13.285156 C 16.476562 12.765625 16.210938 12.273438 15.898438 11.804688 C 15.585938 11.335938 15.230469 10.902344 14.832031 10.503906 C 14.433594 10.105469 14 9.75 13.53125 9.4375 C 13.0625 9.125 12.570312 8.859375 12.046875 8.644531 C 11.527344 8.429688 10.992188 8.265625 10.4375 8.15625 C 9.886719 8.046875 9.328125 7.992188 8.765625 7.992188 Z M 8.765625 7.992188 " fill-opacity="1" fill-rule="nonzero"/></g></svg>