<?xml version="1.0" encoding="UTF-8"?>
<svg xmlns="http://www.w3.org/2000/svg" xmlns:xlink="http://www.w3.org/1999/xlink" width="414px" height="296px" viewBox="0 0 414 296" version="1.1">
<defs>
<clipPath id="clip1">
  <path d="M 79.679688 203.089844 L 96.929688 203.089844 L 96.929688 222.953125 L 79.679688 222.953125 Z M 79.679688 203.089844 "/>
</clipPath>
<clipPath id="clip2">
  <path d="M 47.304688 109.488281 L 156.964844 109.488281 L 156.964844 209.667969 L 47.304688 209.667969 Z M 47.304688 109.488281 "/>
</clipPath>
</defs>
<g id="surface1">
<path style=" stroke:none;fill-rule:nonzero;fill:rgb(100%,100%,100%);fill-opacity:1;" d="M 378.765625 294.523438 L 43.359375 294.523438 C 38 294.523438 33.632812 290.152344 33.632812 284.789062 L 33.632812 11.34375 C 33.632812 5.980469 38 1.609375 43.359375 1.609375 L 378.765625 1.609375 C 384.125 1.609375 388.492188 5.980469 388.492188 11.34375 L 388.492188 284.789062 C 388.492188 290.152344 384.125 294.523438 378.765625 294.523438 Z M 378.765625 294.523438 "/>
<path style=" stroke:none;fill-rule:nonzero;fill:rgb(100%,71.764706%,76.078431%);fill-opacity:1;" d="M 163.148438 264.066406 L 34.613281 264.066406 C 31.835938 264.066406 29.570312 261.792969 29.570312 258.992188 L 29.570312 213.644531 C 29.570312 210.847656 31.835938 208.566406 34.613281 208.566406 L 163.148438 208.566406 C 165.921875 208.566406 168.1875 210.847656 168.1875 213.644531 L 168.1875 258.992188 C 168.1875 261.792969 165.921875 264.066406 163.148438 264.066406 Z M 163.148438 264.066406 "/>
<g clip-path="url(#clip1)" clip-rule="nonzero">
<path style=" stroke:none;fill-rule:nonzero;fill:rgb(2.745098%,47.058824%,78.039216%);fill-opacity:1;" d="M 92.789062 203.21875 L 83.585938 215.984375 L 79.8125 215.296875 L 86.589844 222.945312 L 96.667969 209.066406 Z M 92.789062 203.21875 "/>
</g>
<path style=" stroke:none;fill-rule:nonzero;fill:rgb(2.745098%,47.058824%,78.039216%);fill-opacity:1;" d="M 120.050781 203.152344 L 131.453125 213.996094 L 136.375 214.367188 L 129.785156 221.394531 L 117.320312 209.617188 Z M 120.050781 203.152344 "/>
<path style=" stroke:none;fill-rule:nonzero;fill:rgb(93.72549%,45.098039%,55.686275%);fill-opacity:1;" d="M 138.730469 193.96875 L 109.402344 182.414062 L 124.378906 140.664062 L 153.703125 152.21875 Z M 138.730469 193.96875 "/>
<g clip-path="url(#clip2)" clip-rule="nonzero">
<path style=" stroke:none;fill-rule:nonzero;fill:rgb(99.607843%,78.039216%,28.627451%);fill-opacity:1;" d="M 47.304688 209.359375 L 156.964844 209.359375 L 102.132812 109.5 Z M 47.304688 209.359375 "/>
</g>
<path style="fill:none;stroke-width:10;stroke-linecap:butt;stroke-linejoin:round;stroke:rgb(0%,0%,0%);stroke-opacity:1;stroke-miterlimit:4;" d="M 307.596572 154.351938 C 312.314641 168.494551 306.585557 183.142257 294.76932 187.098822 C 282.974147 191.034341 269.5782 182.763437 264.860131 168.620825 " transform="matrix(0.185457,0,0,0.185609,47.301653,109.499287)"/>
<path style="fill:none;stroke-width:10;stroke-linecap:butt;stroke-linejoin:round;stroke:rgb(0%,0%,0%);stroke-opacity:1;stroke-miterlimit:4;" d="M 408.129362 120.763233 C 412.847431 134.905846 407.13941 149.574597 395.323174 153.510116 C 383.506937 157.445635 370.132053 149.174732 365.392921 134.990028 " transform="matrix(0.185457,0,0,0.185609,47.301653,109.499287)"/>
<path style="fill:none;stroke-width:5;stroke-linecap:round;stroke-linejoin:round;stroke:rgb(0%,0%,0%);stroke-opacity:1;stroke-miterlimit:4;" d="M 327.985371 286.728478 C 325.478897 301.439321 323.667495 315.729253 316.148072 314.445474 C 308.628649 313.161695 308.797152 299.166401 311.303626 284.455558 " transform="matrix(0.185457,0,0,0.185609,47.301653,109.499287)"/>
<path style=" stroke:none;fill-rule:nonzero;fill:rgb(0.392157%,60.392157%,33.72549%);fill-opacity:1;" d="M 133.472656 141.832031 C 133.519531 142.117188 133.527344 142.402344 133.5 142.691406 C 133.46875 142.980469 133.402344 143.269531 133.300781 143.554688 C 133.195312 143.835938 133.058594 144.117188 132.882812 144.386719 C 132.707031 144.65625 132.503906 144.914062 132.265625 145.15625 C 132.027344 145.402344 131.761719 145.625 131.46875 145.835938 C 131.179688 146.046875 130.863281 146.234375 130.53125 146.402344 C 130.191406 146.5625 129.84375 146.707031 129.476562 146.824219 C 129.113281 146.941406 128.738281 147.03125 128.355469 147.089844 C 127.972656 147.15625 127.589844 147.191406 127.207031 147.195312 C 126.820312 147.199219 126.445312 147.179688 126.074219 147.128906 C 125.703125 147.078125 125.34375 147 125 146.894531 C 124.65625 146.792969 124.335938 146.660156 124.03125 146.507812 C 123.730469 146.347656 123.453125 146.171875 123.203125 145.972656 C 122.953125 145.769531 122.730469 145.550781 122.542969 145.316406 C 122.355469 145.082031 122.195312 144.828125 122.078125 144.5625 C 121.960938 144.296875 121.875 144.023438 121.828125 143.742188 C 121.78125 143.457031 121.773438 143.171875 121.800781 142.882812 C 121.835938 142.59375 121.898438 142.304688 122.003906 142.023438 C 122.105469 141.738281 122.246094 141.460938 122.417969 141.191406 C 122.59375 140.921875 122.800781 140.664062 123.039062 140.421875 C 123.273438 140.171875 123.539062 139.949219 123.832031 139.738281 C 124.121094 139.53125 124.4375 139.339844 124.773438 139.175781 C 125.109375 139.011719 125.460938 138.867188 125.828125 138.753906 C 126.191406 138.632812 126.5625 138.542969 126.945312 138.484375 C 127.328125 138.417969 127.710938 138.386719 128.09375 138.378906 C 128.480469 138.375 128.859375 138.398438 129.226562 138.445312 C 129.601562 138.496094 129.957031 138.574219 130.300781 138.679688 C 130.640625 138.78125 130.964844 138.914062 131.269531 139.066406 C 131.574219 139.226562 131.847656 139.402344 132.097656 139.605469 C 132.351562 139.804688 132.570312 140.023438 132.761719 140.257812 C 132.949219 140.496094 133.101562 140.746094 133.226562 141.011719 C 133.34375 141.277344 133.425781 141.550781 133.472656 141.832031 Z M 133.472656 141.832031 "/>
<path style=" stroke:none;fill-rule:nonzero;fill:rgb(0.392157%,60.392157%,33.72549%);fill-opacity:1;" d="M 95.453125 153.710938 C 95.496094 153.992188 95.507812 154.277344 95.476562 154.566406 C 95.449219 154.855469 95.382812 155.144531 95.28125 155.429688 C 95.171875 155.714844 95.035156 155.992188 94.863281 156.261719 C 94.6875 156.535156 94.484375 156.789062 94.246094 157.035156 C 94.007812 157.277344 93.742188 157.503906 93.449219 157.710938 C 93.160156 157.921875 92.84375 158.109375 92.511719 158.273438 C 92.171875 158.441406 91.824219 158.582031 91.457031 158.699219 C 91.09375 158.816406 90.714844 158.90625 90.335938 158.96875 C 89.953125 159.03125 89.566406 159.066406 89.1875 159.070312 C 88.800781 159.078125 88.425781 159.054688 88.054688 159.007812 C 87.679688 158.957031 87.324219 158.878906 86.980469 158.773438 C 86.636719 158.667969 86.3125 158.539062 86.011719 158.382812 C 85.707031 158.226562 85.433594 158.050781 85.179688 157.851562 C 84.929688 157.648438 84.710938 157.429688 84.519531 157.191406 C 84.332031 156.953125 84.175781 156.703125 84.058594 156.441406 C 83.9375 156.175781 83.851562 155.902344 83.808594 155.617188 C 83.761719 155.335938 83.753906 155.050781 83.78125 154.761719 C 83.8125 154.472656 83.878906 154.183594 83.980469 153.898438 C 84.085938 153.613281 84.226562 153.335938 84.398438 153.066406 C 84.570312 152.796875 84.777344 152.539062 85.015625 152.292969 C 85.253906 152.050781 85.519531 151.824219 85.808594 151.617188 C 86.101562 151.40625 86.417969 151.21875 86.75 151.050781 C 87.085938 150.886719 87.4375 150.746094 87.804688 150.628906 C 88.167969 150.511719 88.542969 150.421875 88.925781 150.359375 C 89.308594 150.296875 89.691406 150.261719 90.074219 150.257812 C 90.460938 150.25 90.835938 150.269531 91.207031 150.320312 C 91.578125 150.375 91.9375 150.449219 92.277344 150.554688 C 92.621094 150.660156 92.945312 150.792969 93.25 150.945312 C 93.554688 151.101562 93.828125 151.277344 94.078125 151.476562 C 94.328125 151.679688 94.550781 151.898438 94.742188 152.136719 C 94.929688 152.371094 95.082031 152.625 95.203125 152.886719 C 95.324219 153.15625 95.40625 153.429688 95.453125 153.710938 Z M 95.453125 153.710938 "/>
<path style="fill:none;stroke-width:8;stroke-linecap:round;stroke-linejoin:round;stroke:rgb(0%,0%,0%);stroke-opacity:1;stroke-miterlimit:4;" d="M 295.801398 272.501683 C 306.016861 277.152751 316.716768 280.183311 327.858994 281.551272 C 339.022284 282.961324 350.101321 282.645641 361.159296 280.646313 L 364.318718 280.078083 C 375.566258 277.952482 386.245103 274.143237 396.313126 268.671392 C 406.381149 263.220594 415.396031 256.338697 423.315648 248.067794 L 424.811107 246.510423 " transform="matrix(0.185457,0,0,0.185609,47.301653,109.499287)"/>
<path style="fill:none;stroke-width:8;stroke-linecap:round;stroke-linejoin:round;stroke:rgb(0%,0%,0%);stroke-opacity:1;stroke-miterlimit:4;" d="M 295.085263 256.149287 C 295.548644 257.306793 295.906712 258.485344 296.11734 259.727031 C 296.349031 260.947674 296.454345 262.189361 296.433282 263.452095 C 296.433282 264.693782 296.285843 265.914425 296.033089 267.156112 C 295.780335 268.355709 295.401205 269.53426 294.91676 270.691766 C 294.432316 271.828226 293.821494 272.922594 293.105359 273.953827 C 292.410286 274.985059 291.609899 275.932109 290.725261 276.794976 C 289.81956 277.657844 288.850671 278.43653 287.818593 279.131033 C 286.765453 279.804491 285.670187 280.393766 284.511732 280.856769 " transform="matrix(0.185457,0,0,0.185609,47.301653,109.499287)"/>
<path style=" stroke:none;fill-rule:nonzero;fill:rgb(100%,56.078431%,61.568627%);fill-opacity:1;" d="M 113.195312 152.003906 L 153.996094 152.003906 L 153.996094 196.363281 L 113.195312 196.363281 Z M 113.195312 152.003906 "/>
<path style=" stroke:none;fill-rule:nonzero;fill:rgb(2.745098%,47.058824%,78.039216%);fill-opacity:1;" d="M 115.242188 173.457031 L 110.625 179.289062 C 108.664062 181.761719 106.382812 183.894531 103.785156 185.6875 L 103.277344 186.039062 C 101.875 187.003906 100.398438 187.851562 98.859375 188.582031 L 81.191406 196.957031 L 77.234375 194.542969 L 96.179688 185.28125 C 97.621094 184.574219 99.003906 183.761719 100.324219 182.84375 C 102.699219 181.195312 104.804688 179.253906 106.648438 177.023438 L 112.320312 170.179688 C 113.082031 169.554688 112.320312 170.753906 113.160156 171.261719 L 114.992188 169.996094 C 115.136719 170.082031 115.269531 170.1875 115.390625 170.304688 C 115.511719 170.425781 115.617188 170.558594 115.703125 170.703125 C 115.792969 170.847656 115.863281 171.003906 115.914062 171.164062 C 115.964844 171.328125 115.996094 171.492188 116.011719 171.660156 C 116.019531 171.832031 116.015625 172 115.984375 172.164062 C 115.957031 172.332031 115.90625 172.496094 115.84375 172.652344 C 115.777344 172.808594 115.691406 172.957031 115.589844 173.089844 C 115.488281 173.226562 115.371094 173.347656 115.242188 173.457031 Z M 115.242188 173.457031 "/>
<path style=" stroke:none;fill-rule:nonzero;fill:rgb(97.647059%,67.45098%,72.54902%);fill-opacity:1;" d="M 153.996094 152.003906 L 113.195312 152.003906 L 115.976562 151.261719 L 151.769531 151.632812 Z M 153.996094 152.003906 "/>
<path style=" stroke:none;fill-rule:nonzero;fill:rgb(99.215686%,38.431373%,14.901961%);fill-opacity:1;" d="M 130.652344 178.160156 L 129.84375 181.148438 L 128.140625 181.46875 L 130.878906 182.222656 L 131.773438 178.964844 Z M 130.652344 178.160156 "/>
<path style=" stroke:none;fill-rule:nonzero;fill:rgb(99.215686%,38.431373%,14.901961%);fill-opacity:1;" d="M 135.925781 178.25 L 136.894531 181.195312 L 138.613281 181.433594 L 135.914062 182.316406 L 134.742188 178.777344 Z M 135.925781 178.25 "/>
<path style=" stroke:none;fill-rule:nonzero;fill:rgb(99.607843%,78.039216%,28.627451%);fill-opacity:1;" d="M 138.199219 180.695312 L 133.453125 178.054688 L 128.59375 180.472656 L 129.636719 175.144531 L 125.835938 171.261719 L 131.222656 170.609375 L 133.742188 165.792969 L 136.03125 170.71875 L 141.386719 171.625 L 137.40625 175.324219 Z M 138.199219 180.695312 "/>
<path style="fill:none;stroke-width:1;stroke-linecap:round;stroke-linejoin:round;stroke:rgb(0%,0%,0%);stroke-opacity:1;stroke-miterlimit:4;" d="M 469.21151 340.8366 C 468.495374 340.857645 467.884553 340.626144 467.357983 340.121051 C 466.852475 339.615958 466.599721 338.984591 466.578659 338.290088 " transform="matrix(0.185457,0,0,0.185609,47.301653,109.499287)"/>
<path style=" stroke:none;fill-rule:nonzero;fill:rgb(99.215686%,38.431373%,14.901961%);fill-opacity:1;" d="M 136.195312 171.007812 C 136.414062 171.035156 136.597656 171.113281 136.742188 171.242188 C 136.886719 171.375 136.949219 171.527344 136.933594 171.691406 C 136.914062 171.855469 136.824219 171.984375 136.65625 172.085938 C 136.484375 172.183594 136.289062 172.222656 136.070312 172.199219 C 135.847656 172.175781 135.664062 172.097656 135.519531 171.964844 C 135.375 171.832031 135.3125 171.683594 135.332031 171.519531 C 135.347656 171.355469 135.4375 171.222656 135.609375 171.125 C 135.777344 171.027344 135.972656 170.988281 136.195312 171.007812 Z M 136.195312 171.007812 "/>
<path style=" stroke:none;fill-rule:nonzero;fill:rgb(99.215686%,38.431373%,14.901961%);fill-opacity:1;" d="M 129.082031 170.269531 C 129.304688 170.292969 129.488281 170.371094 129.632812 170.503906 C 129.777344 170.636719 129.839844 170.785156 129.820312 170.949219 C 129.804688 171.113281 129.710938 171.242188 129.542969 171.34375 C 129.375 171.441406 129.179688 171.480469 128.957031 171.460938 C 128.738281 171.4375 128.554688 171.355469 128.410156 171.222656 C 128.265625 171.09375 128.199219 170.945312 128.214844 170.777344 C 128.234375 170.613281 128.328125 170.484375 128.496094 170.382812 C 128.664062 170.285156 128.863281 170.246094 129.082031 170.269531 Z M 129.082031 170.269531 "/>
<path style="fill:none;stroke-width:1;stroke-linecap:butt;stroke-linejoin:miter;stroke:rgb(0%,0%,0%);stroke-opacity:1;stroke-miterlimit:10;" d="M 453.2459 322.821605 C 452.993146 325.326026 451.055368 327.178035 448.97015 326.967579 C 446.863869 326.736078 445.368409 324.526295 445.621163 322.021874 " transform="matrix(0.185457,0,0,0.185609,47.301653,109.499287)"/>
<path style="fill:none;stroke-width:1;stroke-linecap:butt;stroke-linejoin:miter;stroke:rgb(0%,0%,0%);stroke-opacity:1;stroke-miterlimit:10;" d="M 469.864457 324.189566 C 469.864457 326.715033 468.137307 328.756451 466.009963 328.756451 C 463.903682 328.735406 462.176531 326.672941 462.197594 324.147475 " transform="matrix(0.185457,0,0,0.185609,47.301653,109.499287)"/>
<path style="fill:none;stroke-width:1;stroke-linecap:butt;stroke-linejoin:miter;stroke:rgb(0%,0%,0%);stroke-opacity:1;stroke-miterlimit:10;" d="M 466.999915 339.152955 C 466.220591 342.015151 461.776338 343.277884 457.079332 341.994105 " transform="matrix(0.185457,0,0,0.185609,47.301653,109.499287)"/>
</g>
</svg>
