<?xml version="1.0" encoding="UTF-8"?>
<svg xmlns="http://www.w3.org/2000/svg" xmlns:xlink="http://www.w3.org/1999/xlink" width="135pt" height="135pt" viewBox="0 0 135 135" version="1.1">
<g id="surface1">
<path style=" stroke:none;fill-rule:nonzero;fill:rgb(0.392157%,60.392157%,33.72549%);fill-opacity:1;" d="M 132.8125 67.5 C 132.8125 103.570312 103.570312 132.8125 67.5 132.8125 C 31.429688 132.8125 2.1875 103.570312 2.1875 67.5 C 2.1875 31.429688 31.429688 2.1875 67.5 2.1875 C 103.570312 2.1875 132.8125 31.429688 132.8125 67.5 Z M 132.8125 67.5 "/>
<path style=" stroke:none;fill-rule:nonzero;fill:rgb(100%,56.078431%,61.568627%);fill-opacity:1;" d="M 32.585938 90.25 L 106.5 90.25 L 69.542969 23 Z M 32.585938 90.25 "/>
<path style=" stroke:none;fill-rule:nonzero;fill:rgb(99.607843%,78.039216%,28.627451%);fill-opacity:1;" d="M 55.625 89.375 L 55.574219 102.5 L 47.949219 105.625 L 61.945312 108.375 L 63.824219 90.25 Z M 55.625 89.375 "/>
<path style=" stroke:none;fill-rule:nonzero;fill:rgb(99.607843%,78.039216%,28.627451%);fill-opacity:1;" d="M 82.875 81.5 L 90.136719 94.917969 L 97.648438 95.40625 L 87.484375 103.167969 L 77.355469 87.058594 Z M 82.875 81.5 "/>
<path style="fill:none;stroke-width:10;stroke-linecap:butt;stroke-linejoin:round;stroke:rgb(0%,0%,0%);stroke-opacity:1;stroke-miterlimit:4;" d="M 435.21875 359.09375 C 437.625 373.8125 429.625 387.375 417.34375 389.375 C 405.0625 391.375 393.15625 381.09375 390.75 366.375 " transform="matrix(0.125,0,0,0.125,0,0)"/>
<path style="fill:none;stroke-width:10;stroke-linecap:butt;stroke-linejoin:round;stroke:rgb(0%,0%,0%);stroke-opacity:1;stroke-miterlimit:4;" d="M 539.84375 342 C 542.25 356.71875 534.25 370.28125 521.96875 372.28125 C 509.6875 374.3125 497.78125 364 495.375 349.28125 " transform="matrix(0.125,0,0,0.125,0,0)"/>
<path style="fill:none;stroke-width:5;stroke-linecap:round;stroke-linejoin:round;stroke:rgb(0%,0%,0%);stroke-opacity:1;stroke-miterlimit:4;" d="M 542 471.21875 C 548 484.875 554.78125 497.625 543.40625 502.65625 C 532.03125 507.6875 523.15625 496.5 517.125 482.875 " transform="matrix(0.125,0,0,0.125,0,0)"/>
<path style=" stroke:none;fill-rule:nonzero;fill:rgb(95.686275%,68.627451%,14.509804%);fill-opacity:1;" d="M 81.292969 50.277344 C 81.027344 48.675781 79.058594 47.667969 76.890625 48.023438 C 74.726562 48.378906 73.179688 49.960938 73.441406 51.5625 C 73.707031 53.164062 75.675781 54.175781 77.84375 53.820312 C 80.007812 53.464844 81.554688 51.878906 81.292969 50.277344 Z M 81.292969 50.277344 "/>
<path style=" stroke:none;fill-rule:nonzero;fill:rgb(95.686275%,68.627451%,14.509804%);fill-opacity:1;" d="M 47.289062 57.402344 C 47.027344 55.800781 45.058594 54.789062 42.890625 55.144531 C 40.722656 55.5 39.179688 57.085938 39.441406 58.6875 C 39.703125 60.285156 41.671875 61.296875 43.839844 60.941406 C 46.007812 60.585938 47.550781 59 47.289062 57.402344 Z M 47.289062 57.402344 "/>
<path style="fill:none;stroke-width:8;stroke-linecap:round;stroke-linejoin:round;stroke:rgb(0%,0%,0%);stroke-opacity:1;stroke-miterlimit:4;" d="M 429.5 479.5 C 449.9375 488.8125 472.75 491.65625 494.875 487.65625 L 498.03125 487.0625 C 520.53125 482.8125 541.15625 471.625 557.03125 455.0625 L 558.5 453.53125 " transform="matrix(0.125,0,0,0.125,0,0)"/>
<path style="fill:none;stroke-width:8;stroke-linecap:round;stroke-linejoin:round;stroke:rgb(0%,0%,0%);stroke-opacity:1;stroke-miterlimit:4;" d="M 575 459 C 564.5 459 556 450.5 556 440 " transform="matrix(0.125,0,0,0.125,0,0)"/>
</g>
</svg>
