<?xml version="1.0" encoding="UTF-8"?>
<svg xmlns="http://www.w3.org/2000/svg" xmlns:xlink="http://www.w3.org/1999/xlink" width="60pt" height="60pt" viewBox="0 0 60 60" version="1.1">
<g id="surface1">
<path style=" stroke:none;fill-rule:nonzero;fill:rgb(100%,68.235294%,69.411765%);fill-opacity:1;" d="M 59.027344 30 C 59.027344 46.03125 46.03125 59.027344 30 59.027344 C 13.96875 59.027344 0.972656 46.03125 0.972656 30 C 0.972656 13.96875 13.96875 0.972656 30 0.972656 C 46.03125 0.972656 59.027344 13.96875 59.027344 30 Z M 59.027344 30 "/>
<path style=" stroke:none;fill-rule:nonzero;fill:rgb(100%,41.176471%,23.137255%);fill-opacity:1;" d="M 46.382812 27.707031 C 46.382812 36.3125 39.40625 43.289062 30.800781 43.289062 C 22.191406 43.289062 15.214844 36.3125 15.214844 27.707031 C 15.214844 19.101562 22.191406 12.125 30.800781 12.125 C 39.40625 12.125 46.382812 19.101562 46.382812 27.707031 Z M 46.382812 27.707031 "/>
<path style=" stroke:none;fill-rule:nonzero;fill:rgb(2.745098%,47.058824%,78.039216%);fill-opacity:1;" d="M 24.894531 42 L 24.914062 48.054688 L 21.867188 49.542969 L 27.421875 49.542969 L 27.425781 42.941406 Z M 24.894531 42 "/>
<path style=" stroke:none;fill-rule:nonzero;fill:rgb(2.745098%,47.058824%,78.039216%);fill-opacity:1;" d="M 36.132812 41.996094 L 36.132812 48.050781 L 39.179688 49.539062 L 33.625 49.539062 L 33.628906 43.042969 Z M 36.132812 41.996094 "/>
<path style="fill:none;stroke-width:10;stroke-linecap:round;stroke-linejoin:round;stroke:rgb(0%,0%,0%);stroke-opacity:1;stroke-miterlimit:4;" d="M 281.109375 400.429688 C 281.109375 416.953125 265.640625 430.382812 246.65625 430.382812 C 227.671875 430.382812 212.203125 417.023438 212.203125 400.429688 " transform="matrix(0.0555556,0,0,0.0555556,0,0)"/>
<path style="fill:none;stroke-width:10;stroke-linecap:round;stroke-linejoin:round;stroke:rgb(0%,0%,0%);stroke-opacity:1;stroke-miterlimit:4;" d="M 401.695312 400.429688 C 401.695312 416.953125 386.226562 430.382812 367.242188 430.382812 C 348.1875 430.382812 332.789062 417.023438 332.789062 400.429688 " transform="matrix(0.0555556,0,0,0.0555556,0,0)"/>
<path style="fill:none;stroke-width:11;stroke-linecap:round;stroke-linejoin:round;stroke:rgb(0%,0%,0%);stroke-opacity:1;stroke-miterlimit:4;" d="M 338.273438 457.03125 C 338.273438 473.484375 326.671875 486.914062 312.328125 486.914062 C 298.054688 486.914062 286.453125 473.484375 286.453125 457.03125 " transform="matrix(0.0555556,0,0,0.0555556,0,0)"/>
<path style=" stroke:none;fill-rule:nonzero;fill:rgb(2.745098%,47.058824%,78.039216%);fill-opacity:1;" d="M 29.113281 25.527344 C 29.113281 24.605469 27.867188 23.863281 26.332031 23.863281 C 24.796875 23.863281 23.554688 24.605469 23.554688 25.527344 C 23.554688 26.445312 24.796875 27.1875 26.332031 27.1875 C 27.867188 27.1875 29.113281 26.445312 29.113281 25.527344 Z M 29.113281 25.527344 "/>
<path style=" stroke:none;fill-rule:nonzero;fill:rgb(2.745098%,47.058824%,78.039216%);fill-opacity:1;" d="M 14.230469 27.035156 C 14.230469 26.199219 13.097656 25.523438 11.703125 25.523438 C 10.304688 25.523438 9.171875 26.199219 9.171875 27.035156 C 9.171875 27.871094 10.304688 28.550781 11.703125 28.550781 C 13.097656 28.550781 14.230469 27.871094 14.230469 27.035156 Z M 14.230469 27.035156 "/>
</g>
</svg>
