<?xml version="1.0" encoding="UTF-8"?><svg xmlns="http://www.w3.org/2000/svg" xmlns:xlink="http://www.w3.org/1999/xlink" width="375pt" zoomAndPan="magnify" viewBox="0 0 375 374.999991" height="374.999991pt" preserveAspectRatio="xMidYMid meet" version="1.2"><defs><clipPath xml:id="clip1" id="clip1"><path d="M 171 217 L 209 217 L 209 260.355469 L 171 260.355469 Z M 171 217 "/></clipPath><clipPath xml:id="clip2" id="clip2"><path d="M 100.683594 14.355469 L 339.183594 14.355469 L 339.183594 231 L 100.683594 231 Z M 100.683594 14.355469 "/></clipPath></defs><g xml:id="surface1" id="surface1"><path style=" stroke:none;fill-rule:nonzero;fill:rgb(100%,100%,100%);fill-opacity:1;" d="M 352.054688 347 L 6.445312 347 C 0.417969 347 -4.492188 342.09375 -4.492188 336.070312 L -4.492188 240.175781 C -4.492188 234.15625 0.417969 229.25 6.445312 229.25 L 352.054688 229.25 C 358.082031 229.25 362.992188 234.15625 362.992188 240.175781 L 362.992188 336.070312 C 362.992188 342.09375 358.082031 347 352.054688 347 Z M 352.054688 347 "/><g clip-rule="nonzero" clip-path="url(#clip1)"><path style=" stroke:none;fill-rule:nonzero;fill:rgb(2.749634%,47.059631%,78.039551%);fill-opacity:1;" d="M 199.617188 217.570312 L 179.601562 245.25 L 171.390625 243.753906 L 186.132812 260.339844 L 208.050781 230.25 Z M 199.617188 217.570312 "/></g><path style=" stroke:none;fill-rule:nonzero;fill:rgb(2.749634%,47.059631%,78.039551%);fill-opacity:1;" d="M 258.90625 217.425781 L 283.703125 240.9375 L 294.414062 241.742188 L 280.078125 256.972656 L 252.964844 231.441406 Z M 258.90625 217.425781 "/><path style=" stroke:none;fill-rule:nonzero;fill:rgb(93.728638%,45.098877%,55.688477%);fill-opacity:1;" d="M 299.53125 197.519531 L 235.75 172.46875 L 268.320312 81.945312 L 332.097656 106.996094 Z M 299.53125 197.519531 "/><g clip-rule="nonzero" clip-path="url(#clip2)"><path style=" stroke:none;fill-rule:nonzero;fill:rgb(99.609375%,78.039551%,28.62854%);fill-opacity:1;" d="M 100.683594 230.878906 L 339.183594 230.878906 L 219.933594 14.378906 Z M 100.683594 230.878906 "/></g><path style="fill:none;stroke-width:10;stroke-linecap:butt;stroke-linejoin:round;stroke:rgb(0%,0%,0%);stroke-opacity:1;stroke-miterlimit:4;" d="M 307.589326 154.350309 C 312.305703 168.493467 306.591817 183.151097 294.776664 187.101862 C 282.971195 191.052628 269.587145 182.772523 264.861083 168.619658 " transform="matrix(0.403349,0,0,0.402414,100.684289,14.379443)"/><path style="fill:none;stroke-width:10;stroke-linecap:butt;stroke-linejoin:round;stroke:rgb(0%,0%,0%);stroke-opacity:1;stroke-miterlimit:4;" d="M 408.134343 120.773658 C 412.850719 134.907108 407.127149 149.574446 395.321681 153.505797 C 383.506527 157.446855 370.132161 149.176457 365.396416 135.004179 " transform="matrix(0.403349,0,0,0.402414,100.684289,14.379443)"/><path style="fill:none;stroke-width:5;stroke-linecap:round;stroke-linejoin:round;stroke:rgb(0%,0%,0%);stroke-opacity:1;stroke-miterlimit:4;" d="M 328.004361 286.744628 C 325.486378 301.441086 323.665682 315.739556 316.15047 314.44852 C 308.625573 313.157484 308.79021 299.169639 311.298509 284.453766 " transform="matrix(0.403349,0,0,0.402414,100.684289,14.379443)"/><path style=" stroke:none;fill-rule:nonzero;fill:rgb(0.389099%,60.389709%,33.729553%);fill-opacity:1;" d="M 288.097656 84.480469 C 288.199219 85.09375 288.21875 85.714844 288.152344 86.34375 C 288.089844 86.96875 287.945312 87.59375 287.71875 88.210938 C 287.496094 88.828125 287.191406 89.429688 286.816406 90.015625 C 286.4375 90.601562 285.988281 91.15625 285.472656 91.6875 C 284.957031 92.214844 284.378906 92.707031 283.742188 93.160156 C 283.109375 93.613281 282.425781 94.019531 281.695312 94.382812 C 280.96875 94.742188 280.203125 95.046875 279.410156 95.300781 C 278.613281 95.554688 277.800781 95.746094 276.96875 95.882812 C 276.136719 96.019531 275.304688 96.09375 274.46875 96.109375 C 273.632812 96.121094 272.8125 96.074219 272.003906 95.964844 C 271.199219 95.855469 270.421875 95.6875 269.675781 95.460938 C 268.929688 95.234375 268.226562 94.949219 267.566406 94.613281 C 266.90625 94.277344 266.304688 93.890625 265.757812 93.457031 C 265.214844 93.023438 264.734375 92.546875 264.324219 92.035156 C 263.914062 91.519531 263.578125 90.976562 263.316406 90.402344 C 263.054688 89.824219 262.875 89.234375 262.773438 88.621094 C 262.671875 88.007812 262.65625 87.386719 262.71875 86.757812 C 262.78125 86.132812 262.925781 85.507812 263.152344 84.890625 C 263.375 84.273438 263.679688 83.671875 264.058594 83.085938 C 264.433594 82.5 264.882812 81.945312 265.398438 81.414062 C 265.917969 80.886719 266.492188 80.394531 267.128906 79.941406 C 267.761719 79.488281 268.445312 79.082031 269.175781 78.71875 C 269.90625 78.359375 270.667969 78.054688 271.464844 77.800781 C 272.257812 77.546875 273.074219 77.355469 273.902344 77.21875 C 274.734375 77.082031 275.570312 77.007812 276.402344 76.996094 C 277.238281 76.980469 278.058594 77.027344 278.867188 77.136719 C 279.671875 77.246094 280.449219 77.414062 281.195312 77.640625 C 281.945312 77.871094 282.648438 78.152344 283.304688 78.488281 C 283.964844 78.828125 284.566406 79.210938 285.113281 79.644531 C 285.660156 80.082031 286.136719 80.554688 286.546875 81.070312 C 286.957031 81.582031 287.292969 82.128906 287.554688 82.703125 C 287.816406 83.277344 287.996094 83.871094 288.097656 84.480469 Z M 288.097656 84.480469 "/><path style=" stroke:none;fill-rule:nonzero;fill:rgb(0.389099%,60.389709%,33.729553%);fill-opacity:1;" d="M 205.40625 110.230469 C 205.507812 110.84375 205.523438 111.464844 205.460938 112.09375 C 205.398438 112.71875 205.253906 113.34375 205.027344 113.960938 C 204.804688 114.578125 204.5 115.179688 204.125 115.765625 C 203.746094 116.351562 203.296875 116.90625 202.78125 117.4375 C 202.265625 117.964844 201.6875 118.457031 201.050781 118.910156 C 200.417969 119.363281 199.734375 119.769531 199.003906 120.132812 C 198.277344 120.492188 197.511719 120.796875 196.71875 121.050781 C 195.921875 121.304688 195.109375 121.496094 194.277344 121.632812 C 193.445312 121.769531 192.613281 121.84375 191.777344 121.855469 C 190.941406 121.871094 190.121094 121.824219 189.3125 121.714844 C 188.507812 121.605469 187.730469 121.4375 186.984375 121.210938 C 186.234375 120.980469 185.53125 120.699219 184.875 120.363281 C 184.214844 120.023438 183.613281 119.640625 183.066406 119.207031 C 182.523438 118.769531 182.042969 118.296875 181.632812 117.78125 C 181.222656 117.269531 180.886719 116.722656 180.625 116.148438 C 180.363281 115.574219 180.183594 114.980469 180.082031 114.371094 C 179.980469 113.757812 179.964844 113.136719 180.027344 112.507812 C 180.089844 111.882812 180.234375 111.257812 180.460938 110.640625 C 180.683594 110.023438 180.988281 109.421875 181.367188 108.835938 C 181.742188 108.25 182.191406 107.695312 182.707031 107.164062 C 183.226562 106.636719 183.800781 106.144531 184.4375 105.691406 C 185.070312 105.238281 185.753906 104.832031 186.484375 104.46875 C 187.214844 104.109375 187.976562 103.804688 188.773438 103.550781 C 189.566406 103.296875 190.382812 103.105469 191.210938 102.96875 C 192.042969 102.832031 192.878906 102.757812 193.710938 102.742188 C 194.546875 102.730469 195.367188 102.777344 196.175781 102.886719 C 196.980469 102.996094 197.757812 103.164062 198.503906 103.390625 C 199.253906 103.617188 199.957031 103.902344 200.613281 104.238281 C 201.273438 104.574219 201.875 104.960938 202.421875 105.394531 C 202.96875 105.828125 203.445312 106.304688 203.855469 106.816406 C 204.265625 107.332031 204.601562 107.875 204.863281 108.449219 C 205.125 109.027344 205.304688 109.617188 205.40625 110.230469 Z M 205.40625 110.230469 "/><path style="fill:none;stroke-width:8;stroke-linecap:round;stroke-linejoin:round;stroke:rgb(0%,0%,0%);stroke-opacity:1;stroke-miterlimit:4;" d="M 295.803226 272.5044 C 306.020429 277.154072 316.712174 280.172962 327.859093 281.561068 C 339.006012 282.958882 350.104508 282.648257 361.164266 280.648607 L 364.32143 280.066184 C 375.57488 277.940343 386.247256 274.135183 396.31919 268.679826 C 406.391123 263.214763 415.388072 256.342179 423.31972 248.071781 L 424.811141 246.518654 " transform="matrix(0.403349,0,0,0.402414,100.684289,14.379443)"/><path style="fill:none;stroke-width:8;stroke-linecap:round;stroke-linejoin:round;stroke:rgb(0%,0%,0%);stroke-opacity:1;stroke-miterlimit:4;" d="M 295.076885 256.148038 C 295.541743 257.303176 295.890387 258.497141 296.122817 259.729936 C 296.345561 260.953023 296.452091 262.185817 296.442407 263.438025 C 296.423038 264.680526 296.287454 265.91332 296.035656 267.136407 C 295.774173 268.359494 295.396475 269.543753 294.912248 270.689184 C 294.418335 271.834614 293.817893 272.921803 293.120606 273.950749 C 292.413633 274.979695 291.609815 275.930985 290.718837 276.804619 C 289.827858 277.678252 288.859403 278.454816 287.813471 279.134308 C 286.76754 279.813801 285.663501 280.386517 284.511039 280.852455 " transform="matrix(0.403349,0,0,0.402414,100.684289,14.379443)"/><path style=" stroke:none;fill-rule:nonzero;fill:rgb(100%,56.079102%,61.569214%);fill-opacity:1;" d="M 243.992188 106.53125 L 332.730469 106.53125 L 332.730469 202.710938 L 243.992188 202.710938 Z M 243.992188 106.53125 "/><path style=" stroke:none;fill-rule:nonzero;fill:rgb(2.749634%,47.059631%,78.039551%);fill-opacity:1;" d="M 248.441406 153.042969 L 238.402344 165.6875 C 234.136719 171.050781 229.179688 175.671875 223.53125 179.558594 L 222.425781 180.320312 C 219.371094 182.414062 216.167969 184.253906 212.816406 185.835938 L 174.390625 203.992188 L 165.785156 198.761719 L 206.984375 178.671875 C 210.125 177.144531 213.128906 175.382812 216 173.398438 C 221.164062 169.816406 225.746094 165.613281 229.753906 160.78125 L 242.09375 145.941406 C 243.746094 144.585938 242.09375 147.179688 243.921875 148.289062 L 247.90625 145.535156 C 248.222656 145.726562 248.511719 145.953125 248.769531 146.210938 C 249.03125 146.472656 249.257812 146.761719 249.449219 147.074219 C 249.644531 147.390625 249.796875 147.722656 249.90625 148.074219 C 250.019531 148.425781 250.089844 148.785156 250.117188 149.152344 C 250.140625 149.519531 250.125 149.882812 250.0625 150.246094 C 250 150.609375 249.898438 150.960938 249.753906 151.300781 C 249.605469 151.636719 249.421875 151.953125 249.203125 152.25 C 248.980469 152.542969 248.726562 152.808594 248.441406 153.042969 Z M 248.441406 153.042969 "/><path style=" stroke:none;fill-rule:nonzero;fill:rgb(97.648621%,67.449951%,72.549438%);fill-opacity:1;" d="M 332.730469 106.53125 L 243.992188 106.53125 L 250.042969 104.921875 L 327.890625 105.726562 Z M 332.730469 106.53125 "/><path style=" stroke:none;fill-rule:nonzero;fill:rgb(99.21875%,38.42926%,14.898682%);fill-opacity:1;" d="M 281.964844 163.238281 L 280.207031 169.722656 L 276.5 170.417969 L 282.457031 172.050781 L 284.402344 164.988281 Z M 281.964844 163.238281 "/><path style=" stroke:none;fill-rule:nonzero;fill:rgb(99.21875%,38.42926%,14.898682%);fill-opacity:1;" d="M 293.4375 163.433594 L 295.539062 169.816406 L 299.273438 170.332031 L 293.402344 172.25 L 290.863281 164.585938 Z M 293.4375 163.433594 "/><path style=" stroke:none;fill-rule:nonzero;fill:rgb(99.609375%,78.039551%,28.62854%);fill-opacity:1;" d="M 298.378906 168.742188 L 288.054688 163.019531 L 277.480469 168.253906 L 279.746094 156.695312 L 271.484375 148.28125 L 283.207031 146.867188 L 288.679688 136.433594 L 293.660156 147.109375 L 305.304688 149.070312 L 296.65625 157.089844 Z M 298.378906 168.742188 "/><path style="fill:none;stroke-width:1;stroke-linecap:round;stroke-linejoin:round;stroke:rgb(0%,0%,0%);stroke-opacity:1;stroke-miterlimit:4;" d="M 469.214811 340.851669 C 468.866167 340.851669 468.536892 340.793426 468.217302 340.667235 C 467.888027 340.531336 467.607175 340.346903 467.365062 340.113934 C 467.113263 339.871258 466.929257 339.589753 466.793673 339.269421 C 466.658089 338.958796 466.580613 338.628757 466.580613 338.279303 " transform="matrix(0.403349,0,0,0.402414,100.684289,14.379443)"/><path style=" stroke:none;fill-rule:nonzero;fill:rgb(99.21875%,38.42926%,14.898682%);fill-opacity:1;" d="M 294.015625 147.738281 C 294.246094 147.765625 294.464844 147.820312 294.671875 147.910156 C 294.878906 147.996094 295.058594 148.109375 295.210938 148.246094 C 295.359375 148.386719 295.472656 148.539062 295.542969 148.707031 C 295.617188 148.871094 295.644531 149.042969 295.625 149.210938 C 295.605469 149.382812 295.542969 149.542969 295.441406 149.691406 C 295.335938 149.839844 295.195312 149.964844 295.015625 150.070312 C 294.839844 150.171875 294.640625 150.246094 294.421875 150.289062 C 294.199219 150.332031 293.976562 150.339844 293.742188 150.316406 C 293.511719 150.292969 293.292969 150.238281 293.085938 150.148438 C 292.878906 150.0625 292.699219 149.949219 292.550781 149.808594 C 292.398438 149.671875 292.289062 149.519531 292.214844 149.351562 C 292.144531 149.183594 292.117188 149.015625 292.136719 148.84375 C 292.152344 148.675781 292.214844 148.515625 292.320312 148.367188 C 292.425781 148.21875 292.566406 148.089844 292.742188 147.988281 C 292.917969 147.882812 293.117188 147.8125 293.335938 147.769531 C 293.558594 147.726562 293.785156 147.714844 294.015625 147.738281 Z M 294.015625 147.738281 "/><path style=" stroke:none;fill-rule:nonzero;fill:rgb(99.21875%,38.42926%,14.898682%);fill-opacity:1;" d="M 278.546875 146.132812 C 278.777344 146.160156 279 146.214844 279.203125 146.304688 C 279.410156 146.390625 279.589844 146.503906 279.742188 146.640625 C 279.890625 146.78125 280.003906 146.933594 280.074219 147.097656 C 280.148438 147.265625 280.175781 147.4375 280.15625 147.605469 C 280.136719 147.777344 280.078125 147.9375 279.972656 148.085938 C 279.867188 148.234375 279.726562 148.359375 279.550781 148.464844 C 279.371094 148.566406 279.175781 148.640625 278.953125 148.683594 C 278.734375 148.726562 278.507812 148.734375 278.273438 148.710938 C 278.042969 148.6875 277.824219 148.632812 277.617188 148.542969 C 277.410156 148.457031 277.230469 148.34375 277.082031 148.203125 C 276.929688 148.066406 276.820312 147.914062 276.746094 147.746094 C 276.675781 147.578125 276.648438 147.410156 276.667969 147.238281 C 276.683594 147.070312 276.746094 146.910156 276.851562 146.761719 C 276.957031 146.613281 277.097656 146.484375 277.273438 146.382812 C 277.449219 146.277344 277.648438 146.207031 277.871094 146.164062 C 278.089844 146.121094 278.316406 146.109375 278.546875 146.132812 Z M 278.546875 146.132812 "/><path style="fill:none;stroke-width:1;stroke-linecap:butt;stroke-linejoin:miter;stroke:rgb(0%,0%,0%);stroke-opacity:1;stroke-miterlimit:10;" d="M 453.25467 322.806281 C 452.993187 325.330112 451.056276 327.184156 448.964413 326.960894 C 446.862865 326.737633 445.36176 324.524427 445.632927 322.010304 " transform="matrix(0.403349,0,0,0.402414,100.684289,14.379443)"/><path style="fill:none;stroke-width:1;stroke-linecap:butt;stroke-linejoin:miter;stroke:rgb(0%,0%,0%);stroke-opacity:1;stroke-miterlimit:10;" d="M 469.87336 324.194388 C 469.87336 326.718218 468.130141 328.756697 466.009224 328.74699 C 463.888307 328.737283 462.193511 326.669683 462.203195 324.145853 " transform="matrix(0.403349,0,0,0.402414,100.684289,14.379443)"/><path style="fill:none;stroke-width:1;stroke-linecap:butt;stroke-linejoin:miter;stroke:rgb(0%,0%,0%);stroke-opacity:1;stroke-miterlimit:10;" d="M 466.997049 339.152937 C 466.222284 342.016513 461.767391 343.288136 457.080068 341.997099 " transform="matrix(0.403349,0,0,0.402414,100.684289,14.379443)"/></g></svg>