<?xml version="1.0" encoding="UTF-8"?><svg xmlns="http://www.w3.org/2000/svg" xmlns:xlink="http://www.w3.org/1999/xlink" width="375" zoomAndPan="magnify" viewBox="0 0 375 374.999991" height="374.999991" preserveAspectRatio="xMidYMid meet" version="1.0"><defs><clipPath id="clip-0"><path d="M 2.25 1.5 L 375 1.5 L 375 375 L 2.25 375 Z M 2.25 1.5 " clip-rule="nonzero"/></clipPath></defs><g clip-path="url(#clip-0)"><path fill="rgb(100%, 100%, 100%)" d="M 189 1.308594 C 85.765625 1.308594 2.058594 85.015625 2.058594 188.25 C 2.058594 291.484375 85.765625 375.207031 189 375.207031 C 292.234375 375.207031 375.957031 291.484375 375.957031 188.25 C 375.957031 85.015625 292.234375 1.308594 189 1.308594 Z M 227.917969 291.042969 C 218.292969 294.839844 210.632812 297.71875 204.890625 299.714844 C 199.160156 301.707031 192.496094 302.707031 184.917969 302.707031 C 173.269531 302.707031 164.199219 299.855469 157.742188 294.175781 C 151.285156 288.492188 148.074219 281.292969 148.074219 272.539062 C 148.074219 269.136719 148.3125 265.65625 148.785156 262.109375 C 149.277344 258.566406 150.050781 254.578125 151.113281 250.097656 L 163.15625 207.558594 C 164.214844 203.476562 165.132812 199.597656 165.863281 195.988281 C 166.589844 192.347656 166.9375 189.007812 166.9375 185.972656 C 166.9375 180.558594 165.816406 176.761719 163.582031 174.625 C 161.320312 172.488281 157.0625 171.441406 150.714844 171.441406 C 147.613281 171.441406 144.417969 171.902344 141.140625 172.867188 C 137.898438 173.863281 135.078125 174.765625 132.769531 175.652344 L 135.949219 162.546875 C 143.832031 159.335938 151.382812 156.582031 158.582031 154.300781 C 165.78125 151.992188 172.589844 150.851562 178.996094 150.851562 C 190.566406 150.851562 199.492188 153.667969 205.777344 159.242188 C 212.027344 164.828125 215.175781 172.089844 215.175781 181.015625 C 215.175781 182.867188 214.953125 186.128906 214.527344 190.78125 C 214.101562 195.449219 213.292969 199.707031 212.121094 203.617188 L 200.140625 246.03125 C 199.160156 249.433594 198.289062 253.328125 197.5 257.679688 C 196.722656 262.03125 196.34375 265.355469 196.34375 267.585938 C 196.34375 273.222656 197.59375 277.066406 200.125 279.109375 C 202.625 281.148438 207.011719 282.179688 213.214844 282.179688 C 216.140625 282.179688 219.417969 281.65625 223.121094 280.644531 C 226.792969 279.628906 229.453125 278.730469 231.128906 277.953125 Z M 225.796875 118.882812 C 220.210938 124.074219 213.484375 126.671875 205.617188 126.671875 C 197.769531 126.671875 190.992188 124.074219 185.359375 118.882812 C 179.757812 113.691406 176.925781 107.378906 176.925781 100.003906 C 176.925781 92.644531 179.773438 86.3125 185.359375 81.074219 C 190.992188 75.820312 197.769531 73.207031 205.617188 73.207031 C 213.484375 73.207031 220.226562 75.820312 225.796875 81.074219 C 231.382812 86.3125 234.183594 92.644531 234.183594 100.003906 C 234.183594 107.394531 231.382812 113.691406 225.796875 118.882812 Z M 225.796875 118.882812 " fill-opacity="1" fill-rule="nonzero"/></g></svg>