<?xml version="1.0" encoding="UTF-8"?>
<svg xmlns="http://www.w3.org/2000/svg" xmlns:xlink="http://www.w3.org/1999/xlink" width="374pt" height="114pt" viewBox="0 0 374 114" version="1.1">
<defs>
<clipPath id="clip1">
  <path d="M 0.496094 1.21875 L 373.503906 1.21875 L 373.503906 110.832031 L 0.496094 110.832031 Z M 0.496094 1.21875 "/>
</clipPath>
</defs>
<g id="surface1">
<g clip-path="url(#clip1)" clip-rule="nonzero">
<path style=" stroke:none;fill-rule:nonzero;fill:rgb(100%,100%,100%);fill-opacity:1;" d="M 363.433594 110.761719 L 10.566406 110.761719 C 5.027344 110.761719 0.511719 106.351562 0.511719 100.9375 L 0.511719 11.265625 C 0.511719 5.851562 5.027344 1.441406 10.566406 1.441406 L 363.433594 1.441406 C 368.972656 1.441406 373.488281 5.851562 373.488281 11.265625 L 373.488281 100.9375 C 373.488281 106.351562 368.972656 110.761719 363.433594 110.761719 Z M 363.433594 110.761719 "/>
</g>
<path style=" stroke:none;fill-rule:nonzero;fill:rgb(0%,0%,0%);fill-opacity:1;" d="M 25.539062 31.441406 C 25.539062 29.742188 25.859375 28.140625 26.511719 26.625 C 27.160156 25.117188 28.050781 23.824219 29.179688 22.746094 C 30.3125 21.65625 31.664062 20.796875 33.253906 20.175781 C 34.835938 19.542969 36.535156 19.222656 38.355469 19.222656 C 40.171875 19.222656 41.871094 19.542969 43.460938 20.175781 C 45.058594 20.8125 46.421875 21.675781 47.550781 22.761719 C 48.679688 23.84375 49.566406 25.136719 50.21875 26.644531 C 50.867188 28.144531 51.191406 29.742188 51.191406 31.441406 C 51.191406 33.714844 50.632812 35.789062 49.519531 37.664062 C 48.414062 39.527344 46.878906 41.003906 44.921875 42.078125 C 42.957031 43.144531 40.773438 43.679688 38.355469 43.679688 C 36.535156 43.679688 34.832031 43.363281 33.234375 42.746094 C 31.644531 42.125 30.292969 41.273438 29.160156 40.195312 C 28.03125 39.121094 27.140625 37.824219 26.492188 36.3125 C 25.855469 34.789062 25.539062 33.167969 25.539062 31.441406 Z M 31.1875 31.441406 C 31.1875 33.496094 31.855469 35.199219 33.195312 36.542969 C 34.542969 37.886719 36.261719 38.558594 38.355469 38.558594 C 40.429688 38.558594 42.140625 37.886719 43.480469 36.542969 C 44.828125 35.199219 45.503906 33.496094 45.503906 31.441406 C 45.503906 29.414062 44.828125 27.726562 43.480469 26.378906 C 42.140625 25.023438 40.429688 24.34375 38.355469 24.34375 C 36.277344 24.34375 34.5625 25.023438 33.214844 26.378906 C 31.859375 27.726562 31.1875 29.414062 31.1875 31.441406 Z M 31.1875 31.441406 "/>
<path style=" stroke:none;fill-rule:nonzero;fill:rgb(0%,0%,0%);fill-opacity:1;" d="M 54.902344 43.238281 L 54.902344 19.660156 L 64.25 19.660156 C 66.652344 19.660156 68.652344 20.398438 70.25 21.867188 C 71.859375 23.34375 72.667969 25.234375 72.667969 27.539062 C 72.667969 29.0625 72.28125 30.433594 71.515625 31.652344 C 70.761719 32.867188 69.746094 33.816406 68.457031 34.484375 C 67.183594 35.160156 65.78125 35.496094 64.25 35.496094 L 60.355469 35.496094 L 60.355469 43.238281 Z M 60.355469 30.984375 L 63.707031 30.984375 C 64.6875 30.984375 65.503906 30.671875 66.140625 30.03125 C 66.773438 29.398438 67.09375 28.566406 67.09375 27.539062 C 67.09375 26.539062 66.773438 25.730469 66.140625 25.125 C 65.515625 24.515625 64.703125 24.210938 63.707031 24.210938 L 60.355469 24.210938 Z M 60.355469 30.984375 "/>
<path style=" stroke:none;fill-rule:nonzero;fill:rgb(0%,0%,0%);fill-opacity:1;" d="M 75.929688 43.238281 L 75.929688 19.660156 L 85.375 19.660156 C 87.855469 19.660156 89.902344 20.382812 91.511719 21.832031 C 93.121094 23.277344 93.929688 25.140625 93.929688 27.425781 C 93.929688 28.960938 93.527344 30.335938 92.738281 31.554688 C 91.945312 32.765625 90.914062 33.683594 89.644531 34.316406 L 94.804688 43.238281 L 88.726562 43.238281 L 84.617188 35.363281 L 81.382812 35.363281 L 81.382812 43.238281 Z M 81.382812 30.8125 L 84.910156 30.8125 C 85.921875 30.8125 86.746094 30.519531 87.382812 29.917969 C 88.03125 29.324219 88.355469 28.492188 88.355469 27.425781 C 88.355469 26.464844 88.03125 25.6875 87.382812 25.105469 C 86.746094 24.507812 85.894531 24.210938 84.832031 24.210938 L 81.382812 24.210938 Z M 81.382812 30.8125 "/>
<path style=" stroke:none;fill-rule:nonzero;fill:rgb(0%,0%,0%);fill-opacity:1;" d="M 98.238281 43.238281 L 98.238281 19.660156 L 103.691406 19.660156 L 103.691406 43.238281 Z M 98.238281 43.238281 "/>
<path style=" stroke:none;fill-rule:nonzero;fill:rgb(0%,0%,0%);fill-opacity:1;" d="M 108.441406 43.238281 L 108.441406 19.660156 L 115.179688 19.660156 L 121.6875 35.667969 L 121.878906 35.667969 L 127.609375 19.660156 L 134.367188 19.660156 L 134.367188 43.238281 L 129.085938 43.238281 L 129.085938 29.898438 L 128.894531 29.898438 L 123.867188 43.238281 L 119.484375 43.238281 L 113.894531 29.367188 L 113.699219 29.367188 L 113.699219 43.238281 Z M 108.441406 43.238281 "/>
<path style=" stroke:none;fill-rule:nonzero;fill:rgb(0%,0%,0%);fill-opacity:1;" d="M 137.152344 43.238281 L 145.355469 19.660156 L 152.328125 19.660156 L 160.625 43.238281 L 154.839844 43.238281 L 153.378906 39.054688 L 144.144531 39.054688 L 142.722656 43.238281 Z M 145.625 34.316406 L 151.898438 34.316406 L 148.9375 25.523438 L 148.644531 25.523438 Z M 145.625 34.316406 "/>
<path style=" stroke:none;fill-rule:nonzero;fill:rgb(0%,0%,0%);fill-opacity:1;" d="M 172.332031 43.238281 L 172.332031 19.660156 L 187.625 19.660156 L 187.625 24.210938 L 177.789062 24.210938 L 177.789062 29.101562 L 186.164062 29.101562 L 186.164062 33.628906 L 177.789062 33.628906 L 177.789062 38.652344 L 187.996094 38.652344 L 187.996094 43.238281 Z M 172.332031 43.238281 "/>
<path style=" stroke:none;fill-rule:nonzero;fill:rgb(0%,0%,0%);fill-opacity:1;" d="M 191.695312 43.238281 L 191.695312 19.660156 L 197.148438 19.660156 L 197.148438 38.484375 L 206.597656 38.484375 L 206.597656 43.238281 Z M 191.695312 43.238281 "/>
<path style=" stroke:none;fill-rule:nonzero;fill:rgb(0%,0%,0%);fill-opacity:1;" d="M 219.085938 43.238281 L 219.085938 19.660156 L 228.535156 19.660156 C 230.855469 19.660156 232.683594 20.25 234.007812 21.429688 C 235.34375 22.601562 236.015625 24.09375 236.015625 25.921875 C 236.015625 26.964844 235.765625 27.902344 235.273438 28.738281 C 234.792969 29.566406 234.128906 30.21875 233.289062 30.699219 L 233.289062 30.910156 C 234.246094 31.339844 235.070312 32.011719 235.761719 32.925781 C 236.460938 33.828125 236.8125 34.960938 236.8125 36.332031 C 236.8125 37.742188 236.453125 38.976562 235.742188 40.042969 C 235.027344 41.109375 234.105469 41.90625 232.976562 42.441406 C 231.847656 42.972656 230.605469 43.238281 229.253906 43.238281 Z M 224.308594 38.769531 L 227.8125 38.769531 C 228.796875 38.769531 229.578125 38.515625 230.152344 38.007812 C 230.734375 37.503906 231.027344 36.761719 231.027344 35.78125 C 231.027344 34.882812 230.707031 34.191406 230.074219 33.707031 C 229.449219 33.210938 228.671875 32.964844 227.734375 32.964844 L 224.308594 32.964844 Z M 224.308594 29.121094 L 227.8125 29.121094 C 228.679688 29.121094 229.371094 28.882812 229.878906 28.394531 C 230.394531 27.902344 230.65625 27.253906 230.65625 26.457031 C 230.65625 25.730469 230.394531 25.152344 229.878906 24.703125 C 229.371094 24.246094 228.695312 24.019531 227.851562 24.019531 L 224.308594 24.019531 Z M 224.308594 29.121094 "/>
<path style=" stroke:none;fill-rule:nonzero;fill:rgb(0%,0%,0%);fill-opacity:1;" d="M 239.289062 31.441406 C 239.289062 29.742188 239.613281 28.140625 240.265625 26.625 C 240.910156 25.117188 241.804688 23.824219 242.933594 22.746094 C 244.0625 21.65625 245.417969 20.796875 247.003906 20.175781 C 248.585938 19.542969 250.285156 19.222656 252.105469 19.222656 C 253.921875 19.222656 255.625 19.542969 257.210938 20.175781 C 258.808594 20.8125 260.171875 21.675781 261.300781 22.761719 C 262.429688 23.84375 263.316406 25.136719 263.96875 26.644531 C 264.617188 28.144531 264.945312 29.742188 264.945312 31.441406 C 264.945312 33.714844 264.382812 35.789062 263.269531 37.664062 C 262.164062 39.527344 260.628906 41.003906 258.671875 42.078125 C 256.710938 43.144531 254.523438 43.679688 252.105469 43.679688 C 250.285156 43.679688 248.582031 43.363281 246.984375 42.746094 C 245.398438 42.125 244.042969 41.273438 242.914062 40.195312 C 241.785156 39.121094 240.890625 37.824219 240.246094 36.3125 C 239.605469 34.789062 239.289062 33.167969 239.289062 31.441406 Z M 244.9375 31.441406 C 244.9375 33.496094 245.605469 35.199219 246.945312 36.542969 C 248.292969 37.886719 250.011719 38.558594 252.105469 38.558594 C 254.183594 38.558594 255.890625 37.886719 257.230469 36.542969 C 258.578125 35.199219 259.257812 33.496094 259.257812 31.441406 C 259.257812 29.414062 258.578125 27.726562 257.230469 26.378906 C 255.890625 25.023438 254.183594 24.34375 252.105469 24.34375 C 250.027344 24.34375 248.3125 25.023438 246.964844 26.378906 C 245.609375 27.726562 244.9375 29.414062 244.9375 31.441406 Z M 244.9375 31.441406 "/>
<path style=" stroke:none;fill-rule:nonzero;fill:rgb(0%,0%,0%);fill-opacity:1;" d="M 267.210938 24.285156 L 267.210938 19.660156 L 286.183594 19.660156 L 286.183594 24.285156 L 279.40625 24.285156 L 279.40625 43.238281 L 273.929688 43.238281 L 273.929688 24.285156 Z M 267.210938 24.285156 "/>
<path style=" stroke:none;fill-rule:nonzero;fill:rgb(0%,0%,0%);fill-opacity:1;" d="M 288.46875 31.441406 C 288.46875 29.742188 288.789062 28.140625 289.441406 26.625 C 290.089844 25.117188 290.980469 23.824219 292.109375 22.746094 C 293.242188 21.65625 294.59375 20.796875 296.183594 20.175781 C 297.765625 19.542969 299.464844 19.222656 301.285156 19.222656 C 303.101562 19.222656 304.800781 19.542969 306.390625 20.175781 C 307.988281 20.8125 309.351562 21.675781 310.480469 22.761719 C 311.609375 23.84375 312.496094 25.136719 313.148438 26.644531 C 313.796875 28.144531 314.121094 29.742188 314.121094 31.441406 C 314.121094 33.714844 313.5625 35.789062 312.445312 37.664062 C 311.339844 39.527344 309.808594 41.003906 307.851562 42.078125 C 305.886719 43.144531 303.699219 43.679688 301.285156 43.679688 C 299.464844 43.679688 297.761719 43.363281 296.164062 42.746094 C 294.574219 42.125 293.222656 41.273438 292.089844 40.195312 C 290.960938 39.121094 290.070312 37.824219 289.421875 36.3125 C 288.785156 34.789062 288.46875 33.167969 288.46875 31.441406 Z M 294.117188 31.441406 C 294.117188 33.496094 294.785156 35.199219 296.125 36.542969 C 297.472656 37.886719 299.191406 38.558594 301.285156 38.558594 C 303.359375 38.558594 305.070312 37.886719 306.410156 36.542969 C 307.757812 35.199219 308.433594 33.496094 308.433594 31.441406 C 308.433594 29.414062 307.757812 27.726562 306.410156 26.378906 C 305.070312 25.023438 303.359375 24.34375 301.285156 24.34375 C 299.207031 24.34375 297.492188 25.023438 296.144531 26.378906 C 294.789062 27.726562 294.117188 29.414062 294.117188 31.441406 Z M 299.125 16.976562 L 300.796875 11.839844 L 305.902344 11.839844 L 302.746094 16.976562 Z M 299.125 16.976562 "/>
<path style=" stroke:none;fill-rule:nonzero;fill:rgb(0%,0%,0%);fill-opacity:1;" d="M 317.832031 43.238281 L 317.832031 19.660156 L 323.871094 19.660156 L 333.121094 34.484375 L 333.316406 34.484375 L 333.316406 19.660156 L 338.574219 19.660156 L 338.574219 43.238281 L 332.519531 43.238281 L 323.324219 28.414062 L 323.109375 28.414062 L 323.109375 43.238281 Z M 317.832031 43.238281 "/>
</g>
</svg>
