<?xml version="1.0" encoding="UTF-8"?>
<svg xmlns="http://www.w3.org/2000/svg" xmlns:xlink="http://www.w3.org/1999/xlink" width="60pt" height="60pt" viewBox="0 0 60 60" version="1.1">
<g id="surface1">
<path style=" stroke:none;fill-rule:nonzero;fill:rgb(99.215686%,38.431373%,14.901961%);fill-opacity:1;" d="M 59.027344 30 C 59.027344 46.03125 46.03125 59.027344 30 59.027344 C 13.96875 59.027344 0.972656 46.03125 0.972656 30 C 0.972656 13.96875 13.96875 0.972656 30 0.972656 C 46.03125 0.972656 59.027344 13.96875 59.027344 30 Z M 59.027344 30 "/>
<path style=" stroke:none;fill-rule:nonzero;fill:rgb(0.392157%,60.392157%,33.72549%);fill-opacity:1;" d="M 26.832031 39.277344 L 26.855469 46.058594 L 23.445312 47.722656 L 29.664062 47.722656 L 29.667969 40.332031 Z M 26.832031 39.277344 "/>
<path style=" stroke:none;fill-rule:nonzero;fill:rgb(0.392157%,60.392157%,33.72549%);fill-opacity:1;" d="M 38.023438 36.417969 L 41.765625 42.070312 L 45.527344 41.574219 L 40.34375 45.007812 L 35.832031 38.222656 Z M 38.023438 36.417969 "/>
<path style=" stroke:none;fill-rule:nonzero;fill:rgb(99.607843%,78.039216%,28.627451%);fill-opacity:1;" d="M 44.238281 40.269531 L 32.691406 37.445312 L 23.816406 45.351562 L 22.9375 33.507812 L 12.675781 27.519531 L 23.675781 23.019531 L 26.207031 11.410156 L 33.886719 20.472656 L 45.714844 19.289062 L 39.457031 29.390625 Z M 44.238281 40.269531 "/>
<path style="fill:none;stroke-width:8;stroke-linecap:round;stroke-linejoin:round;stroke:rgb(0%,0%,0%);stroke-opacity:1;stroke-miterlimit:4;" d="M 566.226562 463.992188 C 556.171875 466.875 545.625 461.109375 542.742188 450.984375 " transform="matrix(0.0555556,0,0,0.0555556,0,0)"/>
<path style=" stroke:none;fill-rule:nonzero;fill:rgb(0.392157%,60.392157%,33.72549%);fill-opacity:1;" d="M 36.359375 22.003906 C 36.246094 21.289062 35.367188 20.839844 34.40625 21 C 33.441406 21.15625 32.757812 21.863281 32.871094 22.574219 C 32.988281 23.285156 33.863281 23.734375 34.828125 23.574219 C 35.789062 23.417969 36.476562 22.714844 36.359375 22.003906 Z M 36.359375 22.003906 "/>
<path style=" stroke:none;fill-rule:nonzero;fill:rgb(0.392157%,60.392157%,33.72549%);fill-opacity:1;" d="M 20.917969 24.554688 C 20.800781 23.84375 19.925781 23.394531 18.960938 23.554688 C 18 23.710938 17.3125 24.414062 17.429688 25.128906 C 17.542969 25.839844 18.421875 26.289062 19.382812 26.128906 C 20.347656 25.972656 21.03125 25.265625 20.917969 24.554688 Z M 20.917969 24.554688 "/>
<path style="fill:none;stroke-width:10;stroke-linecap:round;stroke-linejoin:round;stroke:rgb(0%,0%,0%);stroke-opacity:1;stroke-miterlimit:4;" d="M 418.921875 367.664062 C 421.945312 385.945312 411.960938 402.75 396.703125 405.210938 C 381.445312 407.742188 366.609375 395.015625 363.585938 376.734375 " transform="matrix(0.0555556,0,0,0.0555556,0,0)"/>
<path style="fill:none;stroke-width:10;stroke-linecap:round;stroke-linejoin:round;stroke:rgb(0%,0%,0%);stroke-opacity:1;stroke-miterlimit:4;" d="M 538.734375 345.304688 C 543.515625 363.164062 535.21875 380.882812 520.3125 384.890625 C 505.335938 388.898438 489.375 377.648438 484.59375 359.789062 " transform="matrix(0.0555556,0,0,0.0555556,0,0)"/>
<path style="fill:none;stroke-width:11;stroke-linecap:round;stroke-linejoin:round;stroke:rgb(0%,0%,0%);stroke-opacity:1;stroke-miterlimit:4;" d="M 549 463.5 C 549 485.15625 520.101562 502.734375 484.523438 502.734375 " transform="matrix(0.0555556,0,0,0.0555556,0,0)"/>
</g>
</svg>
