<?xml version="1.0" encoding="UTF-8"?>
<svg xmlns="http://www.w3.org/2000/svg" xmlns:xlink="http://www.w3.org/1999/xlink" width="228px" height="109px" viewBox="0 0 227 109" version="1.1">
<g id="surface1">
<path style=" stroke:none;fill-rule:nonzero;fill:rgb(99.607843%,38.039216%,11.372549%);fill-opacity:1;" d="M 5.0625 42.75 C 5.0625 40.886719 5.695312 39.355469 6.964844 38.148438 C 8.242188 36.933594 9.800781 36.324219 11.644531 36.324219 C 13.585938 36.324219 15.164062 36.925781 16.386719 38.125 C 17.609375 39.316406 18.21875 40.855469 18.21875 42.75 C 18.21875 44.59375 17.597656 46.128906 16.363281 47.347656 C 15.132812 48.574219 13.5625 49.183594 11.644531 49.183594 C 9.824219 49.183594 8.269531 48.5625 6.988281 47.324219 C 5.703125 46.089844 5.0625 44.5625 5.0625 42.75 Z M 5.59375 71.265625 L 8.242188 53.523438 L 15.191406 53.523438 L 17.839844 71.265625 L 17.839844 91.535156 L 5.59375 91.535156 Z M 5.59375 71.265625 "/>
<path style=" stroke:none;fill-rule:nonzero;fill:rgb(99.215686%,66.666667%,66.27451%);fill-opacity:1;" d="M 28.574219 79.695312 L 28.574219 25.46875 L 40.820312 25.46875 L 40.820312 46.460938 L 62.398438 46.460938 L 62.398438 25.46875 L 74.730469 25.46875 L 74.730469 79.695312 L 62.398438 79.695312 L 62.398438 58.253906 L 40.820312 58.253906 L 40.820312 79.695312 Z M 28.574219 79.695312 "/>
<path style=" stroke:none;fill-rule:nonzero;fill:rgb(99.607843%,38.039216%,11.372549%);fill-opacity:1;" d="M 82.78125 59.234375 C 82.78125 56.238281 83.3125 53.433594 84.375 50.816406 C 85.445312 48.1875 86.929688 45.917969 88.820312 44.003906 C 90.714844 42.085938 93.035156 40.570312 95.796875 39.460938 C 98.554688 38.347656 101.5625 37.792969 104.820312 37.792969 C 111.265625 37.792969 116.539062 39.84375 120.648438 43.941406 C 124.753906 48.042969 126.808594 53.140625 126.808594 59.234375 C 126.808594 62.238281 126.269531 65.058594 125.203125 67.691406 C 124.136719 70.328125 122.648438 72.601562 120.730469 74.515625 C 118.816406 76.433594 116.476562 77.945312 113.710938 79.058594 C 110.949219 80.160156 107.957031 80.714844 104.734375 80.714844 C 100.480469 80.714844 96.667969 79.761719 93.304688 77.863281 C 89.9375 75.964844 87.339844 73.390625 85.511719 70.140625 C 83.691406 66.882812 82.78125 63.25 82.78125 59.234375 Z M 94.910156 59.234375 C 94.910156 62.367188 95.835938 64.921875 97.6875 66.898438 C 99.539062 68.878906 101.890625 69.867188 104.734375 69.867188 C 107.613281 69.867188 109.988281 68.875 111.863281 66.886719 C 113.738281 64.894531 114.679688 62.347656 114.679688 59.246094 C 114.679688 56.144531 113.738281 53.601562 111.863281 51.617188 C 109.988281 49.640625 107.613281 48.648438 104.734375 48.648438 C 101.890625 48.648438 99.539062 49.640625 97.6875 51.617188 C 95.835938 53.601562 94.910156 56.136719 94.910156 59.234375 Z M 94.910156 59.234375 "/>
<path style=" stroke:none;fill-rule:nonzero;fill:rgb(99.215686%,66.666667%,66.27451%);fill-opacity:1;" d="M 134.679688 66.839844 L 134.679688 21.613281 L 146.691406 21.613281 L 146.691406 65.445312 C 146.691406 67.914062 147.828125 69.148438 150.097656 69.148438 L 151.574219 69.148438 L 151.574219 79.695312 L 147.449219 79.695312 C 143.398438 79.695312 140.253906 78.5625 138.027344 76.289062 C 135.792969 74.019531 134.679688 70.871094 134.679688 66.839844 Z M 134.679688 66.839844 "/>
<path style=" stroke:none;fill-rule:nonzero;fill:rgb(99.607843%,38.039216%,11.372549%);fill-opacity:1;" d="M 157.351562 59.460938 C 157.351562 53.035156 159.070312 47.820312 162.507812 43.8125 C 165.941406 39.800781 170.410156 37.792969 175.902344 37.792969 C 178.753906 37.792969 181.15625 38.382812 183.101562 39.554688 C 185.058594 40.730469 186.503906 42.035156 187.441406 43.46875 L 188.082031 43.46875 L 188.082031 38.820312 L 200.070312 38.820312 L 200.070312 79.695312 L 188.152344 79.695312 L 188.152344 75.046875 L 187.511719 75.046875 C 187.160156 75.625 186.703125 76.191406 186.152344 76.75 C 185.601562 77.304688 184.875 77.90625 183.976562 78.550781 C 183.085938 79.1875 181.960938 79.707031 180.609375 80.109375 C 179.261719 80.511719 177.796875 80.714844 176.210938 80.714844 C 170.566406 80.714844 166.011719 78.773438 162.542969 74.894531 C 159.082031 71.015625 157.351562 65.871094 157.351562 59.460938 Z M 169.484375 59.234375 C 169.484375 62.414062 170.347656 64.980469 172.085938 66.933594 C 173.824219 68.890625 176.105469 69.867188 178.929688 69.867188 C 181.75 69.867188 184.015625 68.867188 185.726562 66.863281 C 187.445312 64.851562 188.304688 62.3125 188.304688 59.234375 C 188.304688 56.035156 187.421875 53.472656 185.65625 51.546875 C 183.898438 49.617188 181.632812 48.648438 178.859375 48.648438 C 176.082031 48.648438 173.824219 49.636719 172.085938 51.605469 C 170.347656 53.570312 169.484375 56.113281 169.484375 59.234375 Z M 169.484375 59.234375 "/>
<path style=" stroke:none;fill-rule:nonzero;fill:rgb(99.215686%,66.666667%,66.27451%);fill-opacity:1;" d="M 208.785156 74.292969 C 208.785156 72.480469 209.425781 70.953125 210.710938 69.714844 C 211.992188 68.476562 213.546875 67.859375 215.371094 67.859375 C 217.308594 67.859375 218.886719 68.46875 220.109375 69.691406 C 221.332031 70.914062 221.941406 72.445312 221.941406 74.292969 C 221.941406 76.183594 221.335938 77.730469 220.121094 78.929688 C 218.917969 80.117188 217.332031 80.714844 215.371094 80.714844 C 213.523438 80.714844 211.964844 80.109375 210.6875 78.902344 C 209.417969 77.691406 208.785156 76.15625 208.785156 74.292969 Z M 209.316406 45.777344 L 209.316406 25.46875 L 221.566406 25.46875 L 221.566406 45.777344 L 218.917969 63.515625 L 211.964844 63.515625 Z M 209.316406 45.777344 "/>
</g>
</svg>
