<?xml version="1.0" encoding="UTF-8"?>
<svg xmlns="http://www.w3.org/2000/svg" xmlns:xlink="http://www.w3.org/1999/xlink" width="44pt" height="44pt" viewBox="0 0 44 44" version="1.1">
<g id="surface1">
<path style=" stroke:none;fill-rule:nonzero;fill:rgb(99.607843%,38.039216%,11.372549%);fill-opacity:1;" d="M 32.859375 39.601562 C 33.777344 39.601562 34.554688 39.179688 35.050781 38.332031 C 35.402344 37.695312 35.542969 36.988281 35.402344 36.285156 C 35.191406 35.578125 34.839844 35.011719 34.273438 34.660156 L 15.136719 22.445312 L 34.273438 10.300781 C 34.910156 9.945312 35.261719 9.382812 35.402344 8.605469 C 35.542969 7.898438 35.402344 7.265625 35.050781 6.628906 C 34.695312 6.0625 34.132812 5.640625 33.425781 5.5 C 32.71875 5.214844 32.085938 5.355469 31.449219 5.710938 L 8.710938 20.183594 C 8.359375 20.46875 8.007812 20.820312 7.792969 21.171875 C 7.582031 21.527344 7.441406 21.949219 7.441406 22.445312 C 7.441406 23.433594 7.867188 24.210938 8.710938 24.703125 L 31.449219 39.179688 C 31.871094 39.460938 32.367188 39.601562 32.859375 39.601562 Z M 32.859375 39.601562 "/>
</g>
</svg>
