<?xml version="1.0" encoding="UTF-8"?>
<svg xmlns="http://www.w3.org/2000/svg" xmlns:xlink="http://www.w3.org/1999/xlink" width="60px" height="px" viewBox="0 0 60 60" version="1.1">
<defs>
<clipPath id="clip1">
  <path d="M 0 2.289062 L 59.96875 2.289062 L 59.96875 57.699219 L 0 57.699219 Z M 0 2.289062 "/>
</clipPath>
</defs>
<g id="surface1">
<g clip-path="url(#clip1)" clip-rule="nonzero">
<path style=" stroke:none;fill-rule:nonzero;fill:rgb(100%,41.176471%,23.137255%);fill-opacity:1;" d="M 0 57.691406 L 59.96875 56.078125 L 28.519531 2.300781 Z M 0 57.691406 "/>
</g>
<path style="fill:none;stroke-width:3;stroke-linecap:butt;stroke-linejoin:round;stroke:rgb(0%,0%,0%);stroke-opacity:1;stroke-miterlimit:4;" d="M 122.999646 88.715884 C 123.41347 95.973655 118.82379 102.159683 112.766918 102.498129 C 106.691236 102.836574 101.480821 97.233424 101.066997 89.994455 " transform="matrix(0.207667,0,0,0.207751,0.000000719616,2.299616)"/>
<path style="fill:none;stroke-width:3;stroke-linecap:butt;stroke-linejoin:round;stroke:rgb(0%,0%,0%);stroke-opacity:1;stroke-miterlimit:4;" d="M 174.746402 85.763888 C 175.160225 93.059265 170.570546 99.226491 164.494864 99.564936 C 158.437991 99.903381 153.171146 94.281429 152.776133 87.004854 " transform="matrix(0.207667,0,0,0.207751,0.000000719616,2.299616)"/>
<path style="fill:none;stroke-width:2;stroke-linecap:round;stroke-linejoin:round;stroke:rgb(0%,0%,0%);stroke-opacity:1;stroke-miterlimit:4;" d="M 166.43231 147.32333 C 168.67072 154.261458 171.285332 160.804734 165.510612 162.666184 C 159.735893 164.527633 155.97386 158.68005 153.754261 151.666711 " transform="matrix(0.207667,0,0,0.207751,0.000000719616,2.299616)"/>
<path style=" stroke:none;fill-rule:nonzero;fill:rgb(99.607843%,78.039216%,28.627451%);fill-opacity:1;" d="M 44.632812 24.351562 C 44.675781 24.414062 44.714844 24.484375 44.753906 24.550781 C 44.789062 24.621094 44.820312 24.695312 44.847656 24.769531 C 44.875 24.84375 44.894531 24.917969 44.914062 25 C 44.929688 25.078125 44.945312 25.160156 44.953125 25.242188 C 44.960938 25.324219 44.964844 25.40625 44.960938 25.492188 C 44.960938 25.578125 44.953125 25.664062 44.941406 25.75 C 44.933594 25.835938 44.917969 25.921875 44.894531 26.011719 C 44.875 26.097656 44.851562 26.1875 44.820312 26.273438 C 44.789062 26.363281 44.757812 26.453125 44.71875 26.539062 C 44.679688 26.625 44.636719 26.710938 44.589844 26.800781 C 44.542969 26.882812 44.488281 26.96875 44.433594 27.054688 C 44.378906 27.136719 44.320312 27.21875 44.257812 27.296875 C 44.195312 27.378906 44.128906 27.457031 44.058594 27.535156 C 43.988281 27.609375 43.914062 27.683594 43.839844 27.757812 C 43.761719 27.828125 43.683594 27.898438 43.601562 27.964844 C 43.519531 28.03125 43.433594 28.09375 43.347656 28.15625 C 43.261719 28.214844 43.171875 28.273438 43.082031 28.324219 C 42.992188 28.378906 42.898438 28.429688 42.804688 28.476562 C 42.710938 28.523438 42.617188 28.566406 42.519531 28.605469 C 42.425781 28.644531 42.328125 28.679688 42.230469 28.710938 C 42.132812 28.742188 42.035156 28.769531 41.941406 28.792969 C 41.839844 28.816406 41.746094 28.835938 41.648438 28.851562 C 41.550781 28.863281 41.453125 28.875 41.359375 28.882812 C 41.261719 28.886719 41.167969 28.890625 41.078125 28.886719 C 40.984375 28.882812 40.890625 28.878906 40.804688 28.867188 C 40.714844 28.855469 40.625 28.839844 40.539062 28.820312 C 40.457031 28.800781 40.371094 28.777344 40.292969 28.75 C 40.210938 28.722656 40.136719 28.6875 40.058594 28.652344 C 39.984375 28.617188 39.914062 28.578125 39.847656 28.53125 C 39.78125 28.488281 39.714844 28.441406 39.65625 28.390625 C 39.59375 28.339844 39.535156 28.285156 39.484375 28.226562 C 39.429688 28.171875 39.382812 28.109375 39.335938 28.046875 C 39.292969 27.980469 39.253906 27.914062 39.214844 27.84375 C 39.179688 27.773438 39.148438 27.703125 39.121094 27.628906 C 39.09375 27.554688 39.074219 27.476562 39.054688 27.398438 C 39.039062 27.320312 39.023438 27.238281 39.015625 27.15625 C 39.007812 27.074219 39.003906 26.988281 39.007812 26.90625 C 39.007812 26.820312 39.015625 26.734375 39.027344 26.644531 C 39.035156 26.558594 39.054688 26.472656 39.074219 26.382812 C 39.09375 26.296875 39.117188 26.207031 39.148438 26.121094 C 39.179688 26.03125 39.210938 25.945312 39.25 25.859375 C 39.289062 25.769531 39.332031 25.683594 39.378906 25.597656 C 39.425781 25.511719 39.476562 25.425781 39.535156 25.34375 C 39.589844 25.257812 39.648438 25.179688 39.710938 25.097656 C 39.773438 25.015625 39.839844 24.9375 39.910156 24.863281 C 39.980469 24.785156 40.054688 24.710938 40.128906 24.640625 C 40.207031 24.566406 40.285156 24.5 40.367188 24.433594 C 40.449219 24.367188 40.535156 24.300781 40.621094 24.242188 C 40.707031 24.179688 40.796875 24.125 40.886719 24.070312 C 40.976562 24.015625 41.070312 23.964844 41.164062 23.917969 C 41.257812 23.871094 41.351562 23.828125 41.449219 23.789062 C 41.542969 23.75 41.640625 23.714844 41.738281 23.683594 C 41.835938 23.652344 41.933594 23.625 42.03125 23.601562 C 42.125 23.578125 42.222656 23.558594 42.320312 23.546875 C 42.417969 23.53125 42.515625 23.519531 42.609375 23.515625 C 42.703125 23.507812 42.800781 23.507812 42.890625 23.507812 C 42.984375 23.511719 43.074219 23.519531 43.164062 23.53125 C 43.253906 23.539062 43.34375 23.554688 43.429688 23.574219 C 43.511719 23.59375 43.597656 23.621094 43.675781 23.648438 C 43.757812 23.675781 43.832031 23.707031 43.910156 23.742188 C 43.984375 23.777344 44.054688 23.820312 44.121094 23.863281 C 44.191406 23.90625 44.253906 23.953125 44.316406 24.003906 C 44.375 24.054688 44.433594 24.109375 44.484375 24.167969 C 44.539062 24.226562 44.585938 24.285156 44.632812 24.351562 Z M 44.632812 24.351562 "/>
<path style=" stroke:none;fill-rule:nonzero;fill:rgb(99.607843%,78.039216%,28.627451%);fill-opacity:1;" d="M 16.472656 23.859375 C 16.578125 23.863281 16.683594 23.871094 16.785156 23.886719 C 16.890625 23.898438 16.996094 23.914062 17.097656 23.933594 C 17.199219 23.953125 17.300781 23.976562 17.402344 24.003906 C 17.503906 24.03125 17.601562 24.0625 17.699219 24.09375 C 17.792969 24.128906 17.886719 24.167969 17.980469 24.207031 C 18.070312 24.246094 18.160156 24.292969 18.246094 24.339844 C 18.332031 24.386719 18.414062 24.4375 18.492188 24.488281 C 18.574219 24.542969 18.648438 24.597656 18.71875 24.65625 C 18.792969 24.714844 18.859375 24.777344 18.925781 24.839844 C 18.992188 24.902344 19.050781 24.96875 19.105469 25.035156 C 19.164062 25.101562 19.214844 25.171875 19.261719 25.242188 C 19.308594 25.3125 19.347656 25.386719 19.386719 25.460938 C 19.425781 25.535156 19.457031 25.609375 19.484375 25.683594 C 19.511719 25.761719 19.535156 25.835938 19.550781 25.914062 C 19.566406 25.992188 19.582031 26.070312 19.585938 26.148438 C 19.59375 26.226562 19.597656 26.304688 19.59375 26.382812 C 19.589844 26.460938 19.582031 26.539062 19.566406 26.613281 C 19.554688 26.691406 19.535156 26.769531 19.511719 26.84375 C 19.488281 26.921875 19.457031 26.996094 19.425781 27.066406 C 19.390625 27.140625 19.351562 27.214844 19.308594 27.285156 C 19.265625 27.355469 19.214844 27.421875 19.164062 27.488281 C 19.109375 27.554688 19.054688 27.621094 18.992188 27.683594 C 18.929688 27.746094 18.863281 27.804688 18.796875 27.863281 C 18.726562 27.917969 18.652344 27.972656 18.574219 28.027344 C 18.5 28.078125 18.417969 28.125 18.335938 28.171875 C 18.25 28.21875 18.164062 28.261719 18.074219 28.300781 C 17.984375 28.339844 17.890625 28.378906 17.796875 28.410156 C 17.703125 28.441406 17.605469 28.472656 17.507812 28.496094 C 17.410156 28.523438 17.308594 28.546875 17.207031 28.5625 C 17.105469 28.582031 17 28.597656 16.898438 28.605469 C 16.792969 28.617188 16.6875 28.625 16.582031 28.628906 C 16.476562 28.632812 16.371094 28.628906 16.265625 28.625 C 16.160156 28.621094 16.054688 28.613281 15.949219 28.601562 C 15.84375 28.589844 15.742188 28.570312 15.636719 28.554688 C 15.535156 28.53125 15.433594 28.511719 15.335938 28.484375 C 15.234375 28.457031 15.136719 28.425781 15.039062 28.390625 C 14.941406 28.355469 14.847656 28.320312 14.757812 28.277344 C 14.667969 28.238281 14.578125 28.195312 14.492188 28.148438 C 14.40625 28.101562 14.324219 28.050781 14.242188 27.996094 C 14.164062 27.945312 14.089844 27.886719 14.015625 27.828125 C 13.945312 27.769531 13.875 27.710938 13.8125 27.648438 C 13.746094 27.585938 13.6875 27.519531 13.628906 27.449219 C 13.574219 27.382812 13.523438 27.3125 13.476562 27.242188 C 13.429688 27.171875 13.386719 27.101562 13.351562 27.027344 C 13.3125 26.953125 13.28125 26.878906 13.253906 26.800781 C 13.226562 26.726562 13.203125 26.648438 13.1875 26.570312 C 13.167969 26.492188 13.15625 26.414062 13.148438 26.335938 C 13.144531 26.257812 13.140625 26.183594 13.144531 26.105469 C 13.148438 26.027344 13.15625 25.949219 13.167969 25.871094 C 13.183594 25.792969 13.203125 25.71875 13.226562 25.640625 C 13.25 25.566406 13.277344 25.492188 13.3125 25.417969 C 13.347656 25.34375 13.386719 25.273438 13.429688 25.203125 C 13.472656 25.132812 13.519531 25.0625 13.574219 24.996094 C 13.625 24.929688 13.683594 24.867188 13.746094 24.804688 C 13.804688 24.742188 13.871094 24.679688 13.941406 24.625 C 14.011719 24.566406 14.085938 24.511719 14.160156 24.460938 C 14.238281 24.40625 14.320312 24.359375 14.402344 24.3125 C 14.484375 24.265625 14.574219 24.222656 14.664062 24.183594 C 14.753906 24.144531 14.84375 24.109375 14.9375 24.074219 C 15.035156 24.042969 15.128906 24.015625 15.230469 23.988281 C 15.328125 23.960938 15.429688 23.941406 15.53125 23.921875 C 15.632812 23.902344 15.734375 23.890625 15.839844 23.878906 C 15.945312 23.867188 16.050781 23.859375 16.15625 23.859375 C 16.261719 23.855469 16.367188 23.855469 16.472656 23.859375 Z M 16.472656 23.859375 "/>
<path style="fill:none;stroke-width:3;stroke-linecap:round;stroke-linejoin:round;stroke:rgb(0%,0%,0%);stroke-opacity:1;stroke-miterlimit:4;" d="M 111.393776 144.672175 C 113.801477 145.988351 116.284418 147.116502 118.8426 148.056628 C 121.419592 148.977951 124.034205 149.730052 126.724058 150.256522 C 129.395101 150.801795 132.103765 151.121438 134.831238 151.253056 C 137.558712 151.365871 140.286185 151.290661 142.994848 151.008623 L 144.556092 150.820598 C 147.321186 150.519757 150.048659 149.993287 152.738512 149.241186 C 155.409555 148.507888 158.024168 147.567762 160.56354 146.420809 C 163.102912 145.273855 165.529422 143.938876 167.861883 142.415873 C 170.175532 140.892869 172.376321 139.200642 174.445439 137.339193 L 175.235466 136.6435 " transform="matrix(0.207667,0,0,0.207751,0.000000719616,2.299616)"/>
<path style="fill:none;stroke-width:3;stroke-linecap:round;stroke-linejoin:round;stroke:rgb(0%,0%,0%);stroke-opacity:1;stroke-miterlimit:4;" d="M 183.004063 139.896335 C 182.383328 139.85873 181.800213 139.745915 181.198287 139.595495 C 180.615172 139.426272 180.050868 139.219445 179.505373 138.937407 C 178.959878 138.655369 178.452004 138.335726 177.98175 137.959676 C 177.492686 137.583626 177.060052 137.16997 176.646228 136.71871 C 176.251215 136.248647 175.912632 135.759781 175.611669 135.233311 C 175.310707 134.688038 175.066175 134.142765 174.859263 133.559887 C 174.671161 132.977009 174.53949 132.394131 174.464249 131.79245 C 174.389009 131.19077 174.370199 130.570287 174.426629 129.968606 " transform="matrix(0.207667,0,0,0.207751,0.000000719616,2.299616)"/>
</g>
</svg>
