<?xml version="1.0" encoding="UTF-8"?><svg xmlns="http://www.w3.org/2000/svg" xmlns:xlink="http://www.w3.org/1999/xlink" contentScriptType="text/ecmascript" width="375pt" zoomAndPan="magnify" contentStyleType="text/css" viewBox="0 0 375 374.999991" height="374.999991pt" preserveAspectRatio="xMidYMid meet" version="1.2"><defs><g/><clipPath xml:id="clip1" id="clip1"><path d="M 69.203125 71 L 149 71 L 149 152 L 69.203125 152 Z M 69.203125 71 "/></clipPath><clipPath xml:id="clip2" id="clip2"><path d="M 108 149 L 122 149 L 122 166.488281 L 108 166.488281 Z M 108 149 "/></clipPath><clipPath xml:id="clip3" id="clip3"><path d="M 244 94 L 305.113281 94 L 305.113281 152 L 244 152 Z M 244 94 "/></clipPath><clipPath xml:id="clip4" id="clip4"><path d="M 253 150 L 267 150 L 267 166.488281 L 253 166.488281 Z M 253 150 "/></clipPath><clipPath xml:id="clip5" id="clip5"><path d="M 280 149 L 294 149 L 294 166.488281 L 280 166.488281 Z M 280 149 "/></clipPath><clipPath xml:id="clip6" id="clip6"><path d="M 148 46.492188 L 242 46.492188 L 242 140 L 148 140 Z M 148 46.492188 "/></clipPath><clipPath xml:id="clip7" id="clip7"><path d="M 164 139 L 188 139 L 188 166.488281 L 164 166.488281 Z M 164 139 "/></clipPath><clipPath xml:id="clip8" id="clip8"><path d="M 201 139 L 221 139 L 221 166.488281 L 201 166.488281 Z M 201 139 "/></clipPath></defs><g xml:id="surface1" id="surface1"><path style=" stroke:none;fill-rule:nonzero;fill:rgb(36.079407%,74.508667%,56.858826%);fill-opacity:1;" d="M 331.367188 371.707031 L 43.523438 371.707031 C 36.664062 371.707031 31.078125 366.121094 31.078125 359.269531 L 31.078125 178.640625 C 31.078125 171.789062 36.664062 166.207031 43.523438 166.207031 L 331.367188 166.207031 C 338.226562 166.207031 343.816406 171.789062 343.816406 178.640625 L 343.816406 359.269531 C 343.816406 366.121094 338.226562 371.707031 331.367188 371.707031 Z M 331.367188 371.707031 "/><path style=" stroke:none;fill-rule:nonzero;fill:rgb(100%,41.178894%,23.139954%);fill-opacity:1;" d="M 85.472656 119.375 L 148.761719 97.230469 L 148.761719 90.105469 L 83.527344 112.925781 C 83.183594 113.046875 82.863281 113.21875 82.570312 113.4375 C 82.277344 113.660156 82.023438 113.921875 81.8125 114.222656 C 81.601562 114.523438 81.4375 114.847656 81.324219 115.199219 C 81.214844 115.550781 81.160156 115.910156 81.160156 116.28125 C 81.160156 116.542969 81.1875 116.800781 81.25 117.054688 C 81.3125 117.308594 81.402344 117.550781 81.519531 117.78125 C 81.636719 118.015625 81.78125 118.226562 81.953125 118.425781 C 82.121094 118.625 82.3125 118.796875 82.523438 118.949219 C 82.734375 119.101562 82.960938 119.222656 83.199219 119.320312 C 83.441406 119.417969 83.691406 119.484375 83.945312 119.523438 C 84.203125 119.558594 84.460938 119.566406 84.71875 119.539062 C 84.976562 119.515625 85.226562 119.460938 85.472656 119.375 Z M 85.472656 119.375 "/><path style=" stroke:none;fill-rule:nonzero;fill:rgb(100%,41.178894%,23.139954%);fill-opacity:1;" d="M 296.050781 127.933594 L 238.425781 102.078125 L 238.425781 94.949219 L 298 121.484375 C 299.414062 121.980469 297.257812 121.941406 297.257812 123.457031 L 300.367188 124.839844 C 300.367188 125.101562 300.339844 125.359375 300.277344 125.613281 C 300.214844 125.867188 300.125 126.109375 300.007812 126.34375 C 299.890625 126.574219 299.746094 126.789062 299.574219 126.988281 C 299.40625 127.183594 299.214844 127.359375 299.003906 127.511719 C 298.792969 127.660156 298.566406 127.785156 298.324219 127.882812 C 298.085938 127.980469 297.835938 128.046875 297.578125 128.082031 C 297.320312 128.121094 297.066406 128.125 296.808594 128.101562 C 296.546875 128.074219 296.296875 128.019531 296.050781 127.933594 Z M 296.050781 127.933594 "/><g clip-rule="nonzero" clip-path="url(#clip1)"><path style=" stroke:none;fill-rule:nonzero;fill:rgb(99.21875%,38.42926%,14.898682%);fill-opacity:1;" d="M 148.617188 111.402344 C 148.617188 112.714844 148.554688 114.019531 148.425781 115.324219 C 148.300781 116.628906 148.109375 117.925781 147.855469 119.210938 C 147.601562 120.496094 147.285156 121.765625 146.910156 123.019531 C 146.53125 124.273438 146.09375 125.503906 145.597656 126.714844 C 145.097656 127.925781 144.542969 129.109375 143.929688 130.265625 C 143.316406 131.421875 142.648438 132.542969 141.925781 133.632812 C 141.203125 134.722656 140.429688 135.773438 139.605469 136.789062 C 138.78125 137.800781 137.910156 138.769531 136.988281 139.695312 C 136.070312 140.625 135.109375 141.503906 134.101562 142.332031 C 133.097656 143.164062 132.054688 143.945312 130.972656 144.671875 C 129.890625 145.402344 128.777344 146.074219 127.632812 146.691406 C 126.484375 147.308594 125.308594 147.871094 124.109375 148.371094 C 122.90625 148.871094 121.683594 149.3125 120.441406 149.695312 C 119.195312 150.074219 117.9375 150.390625 116.660156 150.648438 C 115.386719 150.902344 114.101562 151.09375 112.804688 151.222656 C 111.511719 151.351562 110.214844 151.417969 108.914062 151.417969 C 107.613281 151.417969 106.316406 151.351562 105.023438 151.222656 C 103.730469 151.09375 102.445312 150.902344 101.167969 150.648438 C 99.894531 150.390625 98.632812 150.074219 97.390625 149.695312 C 96.144531 149.3125 94.921875 148.871094 93.722656 148.371094 C 92.519531 147.871094 91.34375 147.308594 90.199219 146.691406 C 89.050781 146.074219 87.9375 145.402344 86.855469 144.671875 C 85.777344 143.945312 84.730469 143.164062 83.726562 142.332031 C 82.722656 141.503906 81.757812 140.625 80.839844 139.695312 C 79.921875 138.769531 79.046875 137.800781 78.222656 136.789062 C 77.398438 135.773438 76.625 134.722656 75.902344 133.632812 C 75.179688 132.542969 74.511719 131.421875 73.898438 130.265625 C 73.285156 129.109375 72.730469 127.925781 72.234375 126.714844 C 71.734375 125.503906 71.296875 124.273438 70.921875 123.019531 C 70.542969 121.765625 70.226562 120.496094 69.972656 119.210938 C 69.71875 117.925781 69.53125 116.628906 69.402344 115.324219 C 69.273438 114.019531 69.210938 112.714844 69.210938 111.402344 C 69.210938 110.09375 69.273438 108.785156 69.402344 107.480469 C 69.53125 106.175781 69.71875 104.882812 69.972656 103.597656 C 70.226562 102.3125 70.542969 101.042969 70.921875 99.789062 C 71.296875 98.535156 71.734375 97.300781 72.234375 96.089844 C 72.730469 94.878906 73.285156 93.695312 73.898438 92.542969 C 74.511719 91.386719 75.179688 90.261719 75.902344 89.171875 C 76.625 88.082031 77.398438 87.03125 78.222656 86.019531 C 79.046875 85.007812 79.921875 84.035156 80.839844 83.109375 C 81.757812 82.183594 82.722656 81.304688 83.726562 80.472656 C 84.730469 79.640625 85.777344 78.863281 86.855469 78.132812 C 87.9375 77.40625 89.050781 76.730469 90.199219 76.113281 C 91.34375 75.496094 92.519531 74.9375 93.722656 74.4375 C 94.921875 73.933594 96.144531 73.492188 97.390625 73.113281 C 98.632812 72.734375 99.894531 72.414062 101.167969 72.160156 C 102.445312 71.902344 103.730469 71.710938 105.023438 71.582031 C 106.316406 71.453125 107.613281 71.390625 108.914062 71.390625 C 110.214844 71.390625 111.511719 71.453125 112.804688 71.582031 C 114.101562 71.710938 115.386719 71.902344 116.660156 72.160156 C 117.9375 72.414062 119.195312 72.734375 120.441406 73.113281 C 121.683594 73.492188 122.90625 73.933594 124.109375 74.4375 C 125.308594 74.9375 126.484375 75.496094 127.632812 76.113281 C 128.777344 76.730469 129.890625 77.40625 130.972656 78.132812 C 132.054688 78.863281 133.097656 79.640625 134.101562 80.472656 C 135.109375 81.304688 136.070312 82.183594 136.988281 83.109375 C 137.910156 84.035156 138.78125 85.007812 139.605469 86.019531 C 140.429688 87.03125 141.203125 88.082031 141.925781 89.171875 C 142.648438 90.261719 143.316406 91.386719 143.929688 92.542969 C 144.542969 93.695312 145.097656 94.878906 145.597656 96.089844 C 146.09375 97.300781 146.53125 98.535156 146.910156 99.789062 C 147.285156 101.042969 147.601562 102.3125 147.855469 103.597656 C 148.109375 104.882812 148.300781 106.175781 148.425781 107.480469 C 148.554688 108.785156 148.617188 110.09375 148.617188 111.402344 Z M 148.617188 111.402344 "/></g><path style=" stroke:none;fill-rule:nonzero;fill:rgb(100%,56.079102%,61.569214%);fill-opacity:1;" d="M 88.757812 144.0625 L 83.773438 158.78125 L 75.195312 159.835938 L 88.578125 164.488281 L 94.066406 148.46875 Z M 88.757812 144.0625 "/><g clip-rule="nonzero" clip-path="url(#clip2)"><path style=" stroke:none;fill-rule:nonzero;fill:rgb(99.609375%,78.039551%,28.62854%);fill-opacity:1;" d="M 117.078125 149.6875 L 114.835938 165.078125 L 121.890625 166.5 L 108.3125 166.5 L 110.375 151.417969 Z M 117.078125 149.6875 "/></g><path style="fill:none;stroke-width:5;stroke-linecap:round;stroke-linejoin:miter;stroke:rgb(0%,0%,0%);stroke-opacity:1;stroke-miterlimit:10;" d="M 134.89047 177.206058 C 133.688979 185.387014 125.085195 190.895798 115.666608 189.51175 C 106.26183 188.127702 99.591481 180.385257 100.792972 172.204301 " transform="matrix(0.282852,0,0,0.285056,69.205392,46.490241)"/><path style="fill:none;stroke-width:5;stroke-linecap:round;stroke-linejoin:miter;stroke:rgb(0%,0%,0%);stroke-opacity:1;stroke-miterlimit:10;" d="M 194.605975 186.003669 C 193.404483 194.184625 184.8007 199.679705 175.382112 198.295658 C 165.963524 196.925313 159.293175 189.141757 160.494667 181.001912 " transform="matrix(0.282852,0,0,0.285056,69.205392,46.490241)"/><path style="fill:none;stroke-width:5;stroke-linecap:round;stroke-linejoin:miter;stroke:rgb(0%,0%,0%);stroke-opacity:1;stroke-miterlimit:10;" d="M 159.086022 209.354337 C 157.88453 217.521589 151.186561 223.345553 144.088094 222.276684 C 137.003438 221.194112 132.238903 213.766845 133.440394 205.58589 " transform="matrix(0.282852,0,0,0.285056,69.205392,46.490241)"/><path style=" stroke:none;fill-rule:nonzero;fill:rgb(100%,56.079102%,61.569214%);fill-opacity:1;" d="M 133.769531 109.140625 C 134.230469 109.207031 134.679688 109.300781 135.125 109.421875 C 135.566406 109.542969 135.992188 109.6875 136.402344 109.859375 C 136.8125 110.027344 137.195312 110.21875 137.558594 110.429688 C 137.917969 110.636719 138.246094 110.867188 138.542969 111.109375 C 138.839844 111.355469 139.097656 111.609375 139.320312 111.878906 C 139.542969 112.148438 139.722656 112.421875 139.859375 112.707031 C 140 112.988281 140.09375 113.273438 140.144531 113.558594 C 140.195312 113.84375 140.199219 114.125 140.160156 114.402344 C 140.117188 114.679688 140.03125 114.945312 139.902344 115.207031 C 139.773438 115.464844 139.601562 115.707031 139.390625 115.9375 C 139.175781 116.167969 138.925781 116.382812 138.636719 116.574219 C 138.347656 116.765625 138.027344 116.9375 137.671875 117.085938 C 137.316406 117.234375 136.9375 117.355469 136.535156 117.453125 C 136.128906 117.550781 135.707031 117.621094 135.265625 117.664062 C 134.824219 117.707031 134.375 117.722656 133.917969 117.710938 C 133.457031 117.699219 133 117.65625 132.539062 117.589844 C 132.078125 117.523438 131.625 117.425781 131.183594 117.304688 C 130.742188 117.1875 130.3125 117.039062 129.90625 116.871094 C 129.496094 116.703125 129.109375 116.511719 128.75 116.300781 C 128.390625 116.089844 128.0625 115.863281 127.765625 115.621094 C 127.46875 115.375 127.210938 115.121094 126.988281 114.851562 C 126.765625 114.582031 126.585938 114.308594 126.445312 114.023438 C 126.308594 113.742188 126.214844 113.457031 126.164062 113.171875 C 126.113281 112.886719 126.109375 112.605469 126.148438 112.328125 C 126.1875 112.050781 126.273438 111.785156 126.402344 111.523438 C 126.53125 111.265625 126.703125 111.019531 126.917969 110.792969 C 127.132812 110.5625 127.382812 110.347656 127.671875 110.15625 C 127.960938 109.964844 128.28125 109.792969 128.636719 109.644531 C 128.988281 109.496094 129.367188 109.375 129.773438 109.277344 C 130.179688 109.179688 130.601562 109.109375 131.042969 109.066406 C 131.480469 109.023438 131.929688 109.007812 132.390625 109.019531 C 132.847656 109.03125 133.308594 109.070312 133.769531 109.140625 Z M 133.769531 109.140625 "/><path style=" stroke:none;fill-rule:nonzero;fill:rgb(99.609375%,78.039551%,28.62854%);fill-opacity:1;" d="M 87.328125 102.550781 C 87.746094 102.613281 88.15625 102.699219 88.558594 102.808594 C 88.964844 102.917969 89.351562 103.050781 89.722656 103.203125 C 90.097656 103.359375 90.445312 103.53125 90.773438 103.722656 C 91.101562 103.914062 91.402344 104.121094 91.671875 104.34375 C 91.941406 104.566406 92.175781 104.800781 92.378906 105.042969 C 92.582031 105.289062 92.746094 105.539062 92.871094 105.796875 C 92.996094 106.050781 93.082031 106.3125 93.128906 106.570312 C 93.175781 106.832031 93.179688 107.085938 93.140625 107.339844 C 93.105469 107.589844 93.027344 107.835938 92.910156 108.070312 C 92.792969 108.304688 92.636719 108.527344 92.441406 108.738281 C 92.25 108.949219 92.019531 109.140625 91.757812 109.316406 C 91.492188 109.492188 91.203125 109.644531 90.878906 109.78125 C 90.558594 109.914062 90.210938 110.027344 89.84375 110.117188 C 89.476562 110.203125 89.089844 110.269531 88.691406 110.308594 C 88.289062 110.347656 87.878906 110.363281 87.460938 110.351562 C 87.042969 110.339844 86.625 110.300781 86.207031 110.238281 C 85.789062 110.179688 85.378906 110.09375 84.976562 109.980469 C 84.570312 109.871094 84.183594 109.738281 83.8125 109.585938 C 83.4375 109.433594 83.085938 109.257812 82.761719 109.066406 C 82.433594 108.875 82.132812 108.667969 81.863281 108.445312 C 81.59375 108.226562 81.359375 107.992188 81.15625 107.746094 C 80.953125 107.503906 80.789062 107.253906 80.664062 106.996094 C 80.539062 106.738281 80.453125 106.480469 80.40625 106.222656 C 80.359375 105.960938 80.355469 105.707031 80.390625 105.453125 C 80.429688 105.199219 80.507812 104.957031 80.625 104.722656 C 80.742188 104.484375 80.898438 104.261719 81.09375 104.054688 C 81.285156 103.84375 81.515625 103.652344 81.777344 103.476562 C 82.039062 103.300781 82.332031 103.144531 82.65625 103.011719 C 82.976562 102.875 83.324219 102.765625 83.691406 102.675781 C 84.058594 102.585938 84.445312 102.523438 84.84375 102.484375 C 85.246094 102.445312 85.65625 102.429688 86.074219 102.441406 C 86.492188 102.453125 86.910156 102.488281 87.328125 102.550781 Z M 87.328125 102.550781 "/><g clip-rule="nonzero" clip-path="url(#clip3)"><path style=" stroke:none;fill-rule:nonzero;fill:rgb(99.609375%,78.039551%,28.62854%);fill-opacity:1;" d="M 244.25 151.113281 L 305.113281 149.464844 L 273.195312 94.480469 Z M 244.25 151.113281 "/></g><g clip-rule="nonzero" clip-path="url(#clip4)"><path style=" stroke:none;fill-rule:nonzero;fill:rgb(100%,56.079102%,61.569214%);fill-opacity:1;" d="M 259.921875 150.535156 L 260.421875 161.566406 L 253.980469 166.5 L 266.144531 166.5 L 266.144531 150.25 Z M 259.921875 150.535156 "/></g><g clip-rule="nonzero" clip-path="url(#clip5)"><path style=" stroke:none;fill-rule:nonzero;fill:rgb(100%,41.178894%,23.139954%);fill-opacity:1;" d="M 286.792969 149.679688 L 286.507812 161.652344 L 293.015625 166.5 L 281.351562 166.453125 L 280.285156 149.964844 Z M 286.792969 149.679688 "/></g><path style="fill:none;stroke-width:3;stroke-linecap:butt;stroke-linejoin:round;stroke:rgb(0%,0%,0%);stroke-opacity:1;stroke-miterlimit:4;" d="M 710.542963 234.459045 C 710.846788 239.885609 707.435657 244.462559 702.905897 244.736628 C 698.389946 245.0244 694.481646 240.80374 694.164011 235.390879 " transform="matrix(0.282852,0,0,0.285056,69.205392,46.490241)"/><path style="fill:none;stroke-width:3;stroke-linecap:butt;stroke-linejoin:round;stroke:rgb(0%,0%,0%);stroke-opacity:1;stroke-miterlimit:4;" d="M 749.059739 232.266494 C 749.363565 237.693058 745.966244 242.270008 741.436483 242.544077 C 736.920533 242.831849 732.998423 238.624892 732.694598 233.198328 " transform="matrix(0.282852,0,0,0.285056,69.205392,46.490241)"/><path style="fill:none;stroke-width:2;stroke-linecap:round;stroke-linejoin:round;stroke:rgb(0%,0%,0%);stroke-opacity:1;stroke-miterlimit:4;" d="M 742.886559 278.145624 C 744.543789 283.311822 746.504844 288.135434 742.196047 289.574295 C 737.87344 290.999454 735.08377 286.573241 733.426541 281.39334 " transform="matrix(0.282852,0,0,0.285056,69.205392,46.490241)"/><path style=" stroke:none;fill-rule:nonzero;fill:rgb(100%,56.079102%,61.569214%);fill-opacity:1;" d="M 289.550781 117.035156 C 289.734375 117.300781 289.84375 117.601562 289.878906 117.945312 C 289.910156 118.285156 289.867188 118.636719 289.742188 119 C 289.621094 119.367188 289.429688 119.714844 289.171875 120.046875 C 288.914062 120.378906 288.605469 120.671875 288.25 120.921875 C 287.890625 121.171875 287.515625 121.363281 287.117188 121.492188 C 286.714844 121.621094 286.324219 121.683594 285.945312 121.671875 C 285.5625 121.660156 285.21875 121.582031 284.914062 121.433594 C 284.605469 121.28125 284.363281 121.074219 284.179688 120.8125 C 283.996094 120.546875 283.886719 120.242188 283.855469 119.902344 C 283.820312 119.5625 283.867188 119.207031 283.988281 118.84375 C 284.109375 118.480469 284.300781 118.132812 284.558594 117.796875 C 284.816406 117.464844 285.125 117.175781 285.480469 116.921875 C 285.839844 116.671875 286.214844 116.484375 286.617188 116.351562 C 287.015625 116.222656 287.40625 116.164062 287.785156 116.175781 C 288.167969 116.183594 288.511719 116.265625 288.816406 116.414062 C 289.125 116.5625 289.367188 116.769531 289.550781 117.035156 Z M 289.550781 117.035156 "/><path style=" stroke:none;fill-rule:nonzero;fill:rgb(100%,41.178894%,23.139954%);fill-opacity:1;" d="M 260.960938 116.527344 C 261.394531 116.546875 261.808594 116.625 262.203125 116.765625 C 262.601562 116.90625 262.945312 117.097656 263.242188 117.339844 C 263.539062 117.582031 263.765625 117.855469 263.917969 118.160156 C 264.074219 118.46875 264.140625 118.78125 264.128906 119.105469 C 264.113281 119.425781 264.019531 119.734375 263.839844 120.023438 C 263.660156 120.316406 263.414062 120.570312 263.097656 120.785156 C 262.78125 121 262.417969 121.160156 262.011719 121.265625 C 261.605469 121.371094 261.1875 121.414062 260.75 121.398438 C 260.316406 121.378906 259.902344 121.296875 259.507812 121.15625 C 259.113281 121.015625 258.765625 120.824219 258.46875 120.582031 C 258.171875 120.339844 257.945312 120.066406 257.792969 119.761719 C 257.640625 119.457031 257.570312 119.140625 257.582031 118.820312 C 257.597656 118.496094 257.695312 118.191406 257.871094 117.898438 C 258.050781 117.609375 258.300781 117.355469 258.617188 117.140625 C 258.933594 116.925781 259.292969 116.765625 259.699219 116.65625 C 260.105469 116.550781 260.527344 116.507812 260.960938 116.527344 Z M 260.960938 116.527344 "/><path style="fill:none;stroke-width:3;stroke-linecap:round;stroke-linejoin:round;stroke:rgb(0%,0%,0%);stroke-opacity:1;stroke-miterlimit:4;" d="M 701.870128 276.172328 C 709.217179 280.187437 717.047589 281.749629 725.375167 280.872609 L 726.549038 280.749278 C 735.042339 279.776333 742.472252 276.41899 748.824965 270.69095 L 749.404995 270.170219 " transform="matrix(0.282852,0,0,0.285056,69.205392,46.490241)"/><path style="fill:none;stroke-width:3;stroke-linecap:round;stroke-linejoin:round;stroke:rgb(0%,0%,0%);stroke-opacity:1;stroke-miterlimit:4;" d="M 755.24673 272.609432 C 754.321443 272.540915 753.451398 272.307957 752.636593 271.88315 C 751.821789 271.472046 751.103656 270.923909 750.509815 270.225033 C 749.915975 269.539861 749.474047 268.745061 749.184032 267.881744 C 748.894016 267.004724 748.783534 266.114 748.852586 265.195869 " transform="matrix(0.282852,0,0,0.285056,69.205392,46.490241)"/><g clip-rule="nonzero" clip-path="url(#clip6)"><path style=" stroke:none;fill-rule:nonzero;fill:rgb(100%,56.079102%,61.569214%);fill-opacity:1;" d="M 148.625 46.492188 L 241.109375 46.492188 L 241.109375 139.695312 L 148.625 139.695312 Z M 148.625 46.492188 "/></g><g clip-rule="nonzero" clip-path="url(#clip7)"><path style=" stroke:none;fill-rule:nonzero;fill:rgb(100%,41.178894%,23.139954%);fill-opacity:1;" d="M 175.640625 139.695312 L 175.570312 158.410156 L 164.667969 166.5 L 184.582031 166.785156 L 187.492188 139.695312 Z M 175.640625 139.695312 "/></g><g clip-rule="nonzero" clip-path="url(#clip8)"><path style=" stroke:none;fill-rule:nonzero;fill:rgb(100%,41.178894%,23.139954%);fill-opacity:1;" d="M 213.308594 139.695312 L 211.894531 158.21875 L 220.957031 166.785156 L 203.035156 166.765625 L 201.988281 139.695312 Z M 213.308594 139.695312 "/></g><path style=" stroke:none;fill-rule:nonzero;fill:rgb(100%,41.178894%,23.139954%);fill-opacity:1;" d="M 175.5625 85 C 175.5625 85.277344 175.515625 85.546875 175.417969 85.816406 C 175.320312 86.089844 175.175781 86.351562 174.984375 86.605469 C 174.792969 86.859375 174.558594 87.097656 174.28125 87.328125 C 174.003906 87.554688 173.6875 87.769531 173.335938 87.960938 C 172.984375 88.15625 172.597656 88.332031 172.183594 88.484375 C 171.769531 88.636719 171.332031 88.765625 170.871094 88.871094 C 170.410156 88.976562 169.933594 89.054688 169.445312 89.109375 C 168.953125 89.160156 168.460938 89.1875 167.960938 89.1875 C 167.460938 89.1875 166.964844 89.160156 166.476562 89.109375 C 165.988281 89.054688 165.511719 88.976562 165.050781 88.871094 C 164.589844 88.765625 164.152344 88.636719 163.734375 88.484375 C 163.320312 88.332031 162.9375 88.15625 162.585938 87.960938 C 162.230469 87.769531 161.914062 87.554688 161.636719 87.328125 C 161.359375 87.097656 161.125 86.859375 160.9375 86.605469 C 160.746094 86.351562 160.601562 86.089844 160.503906 85.816406 C 160.40625 85.546875 160.355469 85.277344 160.355469 85 C 160.355469 84.726562 160.40625 84.453125 160.503906 84.183594 C 160.601562 83.914062 160.746094 83.652344 160.9375 83.398438 C 161.125 83.144531 161.359375 82.902344 161.636719 82.675781 C 161.914062 82.445312 162.230469 82.234375 162.585938 82.039062 C 162.9375 81.847656 163.320312 81.671875 163.734375 81.519531 C 164.152344 81.367188 164.589844 81.238281 165.050781 81.132812 C 165.511719 81.027344 165.988281 80.949219 166.476562 80.894531 C 166.964844 80.839844 167.460938 80.8125 167.960938 80.8125 C 168.460938 80.8125 168.953125 80.839844 169.445312 80.894531 C 169.933594 80.949219 170.410156 81.027344 170.871094 81.132812 C 171.332031 81.238281 171.769531 81.367188 172.183594 81.519531 C 172.597656 81.671875 172.984375 81.847656 173.335938 82.039062 C 173.6875 82.234375 174.003906 82.445312 174.28125 82.675781 C 174.558594 82.902344 174.792969 83.144531 174.984375 83.398438 C 175.175781 83.652344 175.320312 83.914062 175.417969 84.183594 C 175.515625 84.453125 175.5625 84.726562 175.5625 85 Z M 175.5625 85 "/><path style=" stroke:none;fill-rule:nonzero;fill:rgb(100%,41.178894%,23.139954%);fill-opacity:1;" d="M 227.480469 83.429688 C 227.480469 83.707031 227.433594 83.976562 227.335938 84.246094 C 227.238281 84.515625 227.09375 84.777344 226.902344 85.03125 C 226.710938 85.289062 226.476562 85.527344 226.199219 85.757812 C 225.921875 85.984375 225.605469 86.195312 225.253906 86.390625 C 224.902344 86.585938 224.515625 86.757812 224.101562 86.914062 C 223.6875 87.066406 223.25 87.195312 222.789062 87.300781 C 222.324219 87.40625 221.851562 87.484375 221.359375 87.539062 C 220.871094 87.589844 220.375 87.617188 219.878906 87.617188 C 219.378906 87.617188 218.882812 87.589844 218.394531 87.539062 C 217.90625 87.484375 217.429688 87.40625 216.96875 87.300781 C 216.507812 87.195312 216.070312 87.066406 215.652344 86.914062 C 215.238281 86.757812 214.855469 86.585938 214.5 86.390625 C 214.148438 86.195312 213.832031 85.984375 213.554688 85.757812 C 213.277344 85.527344 213.042969 85.289062 212.851562 85.03125 C 212.664062 84.777344 212.519531 84.515625 212.421875 84.246094 C 212.324219 83.976562 212.273438 83.707031 212.273438 83.429688 C 212.273438 83.15625 212.324219 82.882812 212.421875 82.613281 C 212.519531 82.34375 212.664062 82.082031 212.851562 81.828125 C 213.042969 81.574219 213.277344 81.332031 213.554688 81.105469 C 213.832031 80.875 214.148438 80.664062 214.5 80.46875 C 214.855469 80.273438 215.238281 80.101562 215.652344 79.949219 C 216.070312 79.796875 216.507812 79.667969 216.96875 79.5625 C 217.429688 79.457031 217.90625 79.378906 218.394531 79.324219 C 218.882812 79.269531 219.378906 79.242188 219.878906 79.242188 C 220.375 79.242188 220.871094 79.269531 221.359375 79.324219 C 221.851562 79.378906 222.324219 79.457031 222.789062 79.5625 C 223.25 79.667969 223.6875 79.796875 224.101562 79.949219 C 224.515625 80.101562 224.902344 80.273438 225.253906 80.46875 C 225.605469 80.664062 225.921875 80.875 226.199219 81.105469 C 226.476562 81.332031 226.710938 81.574219 226.902344 81.828125 C 227.09375 82.082031 227.238281 82.34375 227.335938 82.613281 C 227.433594 82.882812 227.480469 83.15625 227.480469 83.429688 Z M 227.480469 83.429688 "/><path style="fill:none;stroke-width:6;stroke-linecap:butt;stroke-linejoin:miter;stroke:rgb(0%,0%,0%);stroke-opacity:1;stroke-miterlimit:10;" d="M 418.414825 87.763682 C 418.414825 97.095727 412.103542 104.646324 404.314563 104.646324 C 396.539395 104.646324 390.241923 97.095727 390.241923 87.763682 " transform="matrix(0.282852,0,0,0.285056,69.205392,46.490241)"/><path style="fill:none;stroke-width:6;stroke-linecap:butt;stroke-linejoin:miter;stroke:rgb(0%,0%,0%);stroke-opacity:1;stroke-miterlimit:10;" d="M 484.676386 87.763682 C 484.676386 97.095727 478.365104 104.646324 470.589935 104.646324 C 462.814766 104.646324 456.503484 97.095727 456.503484 87.763682 " transform="matrix(0.282852,0,0,0.285056,69.205392,46.490241)"/><path style="fill:none;stroke-width:6;stroke-linecap:butt;stroke-linejoin:miter;stroke:rgb(0%,0%,0%);stroke-opacity:1;stroke-miterlimit:10;" d="M 459.003138 144.208166 C 459.003138 155.760169 450.882714 165.133324 440.870285 165.133324 C 430.857857 165.133324 422.737432 155.760169 422.737432 144.208166 " transform="matrix(0.282852,0,0,0.285056,69.205392,46.490241)"/><g style="fill:rgb(92.939758%,44.709778%,26.669312%);fill-opacity:1;"><g transform="translate(109.470708, 27.290308)"><path style="stroke:none;" d="M 0.96875 -7.0625 C 0.96875 -9.289062 1.644531 -11.101562 3 -12.5 C 4.351562 -13.90625 6.117188 -14.609375 8.296875 -14.609375 C 9.441406 -14.609375 10.472656 -14.410156 11.390625 -14.015625 C 12.304688 -13.617188 13.054688 -13.078125 13.640625 -12.390625 C 14.222656 -11.703125 14.671875 -10.910156 14.984375 -10.015625 C 15.296875 -9.128906 15.453125 -8.1875 15.453125 -7.1875 L 15.453125 -5.96875 L 4.953125 -5.96875 C 5.015625 -5.0625 5.351562 -4.316406 5.96875 -3.734375 C 6.59375 -3.148438 7.394531 -2.859375 8.375 -2.859375 C 9.15625 -2.859375 9.820312 -3.019531 10.375 -3.34375 C 10.925781 -3.675781 11.3125 -4.082031 11.53125 -4.5625 L 15.3125 -4.5625 C 14.988281 -3.050781 14.203125 -1.851562 12.953125 -0.96875 C 11.703125 -0.0820312 10.125 0.359375 8.21875 0.359375 C 6.851562 0.359375 5.617188 0.0390625 4.515625 -0.59375 C 3.410156 -1.226562 2.539062 -2.113281 1.90625 -3.25 C 1.28125 -4.382812 0.96875 -5.65625 0.96875 -7.0625 Z M 5.03125 -8.765625 L 11.5625 -8.765625 C 11.488281 -9.535156 11.15625 -10.171875 10.5625 -10.671875 C 9.96875 -11.171875 9.210938 -11.421875 8.296875 -11.421875 C 7.429688 -11.421875 6.691406 -11.160156 6.078125 -10.640625 C 5.472656 -10.117188 5.125 -9.492188 5.03125 -8.765625 Z M 5.03125 -8.765625 "/></g></g><g style="fill:rgb(92.939758%,44.709778%,26.669312%);fill-opacity:1;"><g transform="translate(125.885759, 27.290308)"><path style="stroke:none;" d="M 1.78125 0 L 1.78125 -14.265625 L 5.71875 -14.265625 L 5.71875 -12.703125 L 5.953125 -12.703125 C 6.253906 -13.242188 6.738281 -13.695312 7.40625 -14.0625 C 8.082031 -14.425781 8.875 -14.609375 9.78125 -14.609375 C 11.332031 -14.609375 12.566406 -14.132812 13.484375 -13.1875 C 14.410156 -12.238281 14.875 -11.015625 14.875 -9.515625 L 14.875 0 L 10.703125 0 L 10.703125 -8.21875 C 10.703125 -8.96875 10.492188 -9.570312 10.078125 -10.03125 C 9.660156 -10.488281 9.101562 -10.71875 8.40625 -10.71875 C 7.6875 -10.71875 7.097656 -10.457031 6.640625 -9.9375 C 6.191406 -9.414062 5.96875 -8.769531 5.96875 -8 L 5.96875 0 Z M 1.78125 0 "/></g></g><g style="fill:rgb(92.939758%,44.709778%,26.669312%);fill-opacity:1;"><g transform="translate(142.076662, 27.290308)"><path style="stroke:none;" d=""/></g></g><g style="fill:rgb(92.939758%,44.709778%,26.669312%);fill-opacity:1;"><g transform="translate(149.038222, 27.290308)"><path style="stroke:none;" d="M 0.71875 -11 L 0.71875 -14.265625 L 3.171875 -14.265625 L 3.171875 -15.1875 C 3.171875 -16.738281 3.664062 -17.972656 4.65625 -18.890625 C 5.65625 -19.804688 6.972656 -20.265625 8.609375 -20.265625 L 10.671875 -20.265625 L 10.671875 -16.8125 L 9.109375 -16.8125 C 8.472656 -16.8125 7.992188 -16.644531 7.671875 -16.3125 C 7.347656 -15.988281 7.1875 -15.550781 7.1875 -15 L 7.1875 -14.265625 L 10.78125 -14.265625 L 10.78125 -11 L 7.234375 -11 L 7.234375 0 L 3.046875 0 L 3.046875 -11 Z M 0.71875 -11 "/></g></g><g style="fill:rgb(92.939758%,44.709778%,26.669312%);fill-opacity:1;"><g transform="translate(160.917711, 27.290308)"><path style="stroke:none;" d="M 0.96875 -7.140625 C 0.96875 -8.179688 1.15625 -9.160156 1.53125 -10.078125 C 1.90625 -10.992188 2.421875 -11.785156 3.078125 -12.453125 C 3.742188 -13.117188 4.554688 -13.644531 5.515625 -14.03125 C 6.484375 -14.414062 7.535156 -14.609375 8.671875 -14.609375 C 10.921875 -14.609375 12.757812 -13.894531 14.1875 -12.46875 C 15.625 -11.039062 16.34375 -9.265625 16.34375 -7.140625 C 16.34375 -6.085938 16.15625 -5.101562 15.78125 -4.1875 C 15.40625 -3.269531 14.882812 -2.472656 14.21875 -1.796875 C 13.550781 -1.128906 12.734375 -0.601562 11.765625 -0.21875 C 10.804688 0.164062 9.765625 0.359375 8.640625 0.359375 C 7.148438 0.359375 5.816406 0.0234375 4.640625 -0.640625 C 3.472656 -1.304688 2.566406 -2.203125 1.921875 -3.328125 C 1.285156 -4.460938 0.96875 -5.734375 0.96875 -7.140625 Z M 5.203125 -7.140625 C 5.203125 -6.046875 5.523438 -5.15625 6.171875 -4.46875 C 6.828125 -3.78125 7.648438 -3.4375 8.640625 -3.4375 C 9.640625 -3.4375 10.46875 -3.78125 11.125 -4.46875 C 11.78125 -5.164062 12.109375 -6.054688 12.109375 -7.140625 C 12.109375 -8.222656 11.78125 -9.109375 11.125 -9.796875 C 10.46875 -10.484375 9.640625 -10.828125 8.640625 -10.828125 C 7.648438 -10.828125 6.828125 -10.484375 6.171875 -9.796875 C 5.523438 -9.109375 5.203125 -8.222656 5.203125 -7.140625 Z M 5.203125 -7.140625 "/></g></g><g style="fill:rgb(92.939758%,44.709778%,26.669312%);fill-opacity:1;"><g transform="translate(178.216135, 27.290308)"><path style="stroke:none;" d="M 1.78125 0 L 1.78125 -14.265625 L 5.71875 -14.265625 L 5.71875 -12.109375 L 5.953125 -12.109375 C 6.234375 -12.710938 6.691406 -13.238281 7.328125 -13.6875 C 7.972656 -14.144531 8.734375 -14.375 9.609375 -14.375 L 11 -14.375 L 11 -10.4375 L 9.359375 -10.4375 C 8.316406 -10.4375 7.488281 -10.082031 6.875 -9.375 C 6.269531 -8.675781 5.96875 -7.710938 5.96875 -6.484375 L 5.96875 0 Z M 1.78125 0 "/></g></g><g style="fill:rgb(92.939758%,44.709778%,26.669312%);fill-opacity:1;"><g transform="translate(190.174732, 27.290308)"><path style="stroke:none;" d="M 1.78125 0 L 1.78125 -14.265625 L 5.71875 -14.265625 L 5.71875 -12.734375 L 5.953125 -12.734375 C 6.285156 -13.265625 6.765625 -13.707031 7.390625 -14.0625 C 8.023438 -14.425781 8.785156 -14.609375 9.671875 -14.609375 C 11.503906 -14.609375 12.882812 -13.960938 13.8125 -12.671875 L 14 -12.671875 C 14.976562 -13.960938 16.351562 -14.609375 18.125 -14.609375 C 19.675781 -14.609375 20.925781 -14.140625 21.875 -13.203125 C 22.832031 -12.273438 23.3125 -11.070312 23.3125 -9.59375 L 23.3125 0 L 19.125 0 L 19.125 -8.125 C 19.125 -8.9375 18.941406 -9.570312 18.578125 -10.03125 C 18.210938 -10.488281 17.675781 -10.71875 16.96875 -10.71875 C 16.28125 -10.71875 15.722656 -10.460938 15.296875 -9.953125 C 14.878906 -9.441406 14.671875 -8.789062 14.671875 -8 L 14.671875 0 L 10.484375 0 L 10.484375 -8.25 C 10.484375 -8.988281 10.289062 -9.582031 9.90625 -10.03125 C 9.519531 -10.488281 8.972656 -10.71875 8.265625 -10.71875 C 7.585938 -10.71875 7.035156 -10.460938 6.609375 -9.953125 C 6.179688 -9.441406 5.96875 -8.796875 5.96875 -8.015625 L 5.96875 0 Z M 1.78125 0 "/></g></g><g style="fill:rgb(92.939758%,44.709778%,26.669312%);fill-opacity:1;"><g transform="translate(214.790712, 27.290308)"><path style="stroke:none;" d="M 2.078125 -16.46875 C 1.617188 -16.882812 1.390625 -17.4375 1.390625 -18.125 C 1.390625 -18.8125 1.617188 -19.359375 2.078125 -19.765625 C 2.535156 -20.179688 3.128906 -20.390625 3.859375 -20.390625 C 4.585938 -20.390625 5.175781 -20.1875 5.625 -19.78125 C 6.082031 -19.375 6.3125 -18.820312 6.3125 -18.125 C 6.3125 -17.425781 6.082031 -16.875 5.625 -16.46875 C 5.175781 -16.0625 4.585938 -15.859375 3.859375 -15.859375 C 3.128906 -15.859375 2.535156 -16.0625 2.078125 -16.46875 Z M 1.78125 0 L 1.78125 -14.265625 L 5.96875 -14.265625 L 5.96875 0 Z M 1.78125 0 "/></g></g><g style="fill:rgb(92.939758%,44.709778%,26.669312%);fill-opacity:1;"><g transform="translate(222.042337, 27.290308)"><path style="stroke:none;" d="M 1 -11 L 1 -14.234375 L 2.34375 -14.234375 C 2.71875 -14.234375 3.003906 -14.347656 3.203125 -14.578125 C 3.410156 -14.816406 3.515625 -15.128906 3.515625 -15.515625 L 3.515625 -18.125 L 7.484375 -18.125 L 7.484375 -14.265625 L 11.21875 -14.265625 L 11.21875 -11 L 7.484375 -11 L 7.484375 -5.15625 C 7.484375 -4.625 7.640625 -4.207031 7.953125 -3.90625 C 8.265625 -3.601562 8.722656 -3.453125 9.328125 -3.453125 L 11.15625 -3.453125 L 11.15625 0 L 8.265625 0 C 6.703125 0 5.484375 -0.429688 4.609375 -1.296875 C 3.734375 -2.160156 3.296875 -3.378906 3.296875 -4.953125 L 3.296875 -11 Z M 1 -11 "/></g></g><g style="fill:rgb(92.939758%,44.709778%,26.669312%);fill-opacity:1;"><g transform="translate(234.027304, 27.290308)"><path style="stroke:none;" d="M 0.96875 -7.0625 C 0.96875 -9.300781 1.566406 -11.117188 2.765625 -12.515625 C 3.972656 -13.910156 5.535156 -14.609375 7.453125 -14.609375 C 8.441406 -14.609375 9.273438 -14.40625 9.953125 -14 C 10.640625 -13.59375 11.144531 -13.140625 11.46875 -12.640625 L 11.703125 -12.640625 L 11.703125 -14.265625 L 15.875 -14.265625 L 15.875 0 L 11.734375 0 L 11.734375 -1.625 L 11.5 -1.625 C 11.375 -1.414062 11.210938 -1.210938 11.015625 -1.015625 C 10.828125 -0.828125 10.578125 -0.617188 10.265625 -0.390625 C 9.953125 -0.171875 9.5625 0.00390625 9.09375 0.140625 C 8.625 0.285156 8.113281 0.359375 7.5625 0.359375 C 5.59375 0.359375 4 -0.316406 2.78125 -1.671875 C 1.570312 -3.023438 0.96875 -4.820312 0.96875 -7.0625 Z M 5.203125 -7.140625 C 5.203125 -6.023438 5.503906 -5.128906 6.109375 -4.453125 C 6.722656 -3.773438 7.519531 -3.4375 8.5 -3.4375 C 9.488281 -3.4375 10.28125 -3.785156 10.875 -4.484375 C 11.476562 -5.179688 11.78125 -6.066406 11.78125 -7.140625 C 11.78125 -8.253906 11.472656 -9.144531 10.859375 -9.8125 C 10.242188 -10.488281 9.453125 -10.828125 8.484375 -10.828125 C 7.515625 -10.828125 6.722656 -10.484375 6.109375 -9.796875 C 5.503906 -9.109375 5.203125 -8.222656 5.203125 -7.140625 Z M 5.203125 -7.140625 "/></g></g><g style="fill:rgb(92.939758%,44.709778%,26.669312%);fill-opacity:1;"><g transform="translate(251.19388, 27.290308)"><path style="stroke:none;" d="M 0.96875 -4.375 L 4.78125 -4.375 C 4.832031 -3.882812 5.054688 -3.507812 5.453125 -3.25 C 5.859375 -2.988281 6.410156 -2.859375 7.109375 -2.859375 C 7.804688 -2.859375 8.34375 -2.976562 8.71875 -3.21875 C 9.101562 -3.457031 9.296875 -3.78125 9.296875 -4.1875 C 9.296875 -4.488281 9.175781 -4.734375 8.9375 -4.921875 C 8.707031 -5.109375 8.40625 -5.238281 8.03125 -5.3125 C 7.664062 -5.394531 7.238281 -5.476562 6.75 -5.5625 C 6.269531 -5.644531 5.773438 -5.71875 5.265625 -5.78125 C 4.765625 -5.851562 4.269531 -5.988281 3.78125 -6.1875 C 3.300781 -6.382812 2.875 -6.628906 2.5 -6.921875 C 2.125 -7.210938 1.816406 -7.628906 1.578125 -8.171875 C 1.347656 -8.710938 1.234375 -9.347656 1.234375 -10.078125 C 1.234375 -11.347656 1.753906 -12.421875 2.796875 -13.296875 C 3.835938 -14.171875 5.273438 -14.609375 7.109375 -14.609375 C 8.796875 -14.609375 10.171875 -14.210938 11.234375 -13.421875 C 12.296875 -12.640625 12.875 -11.523438 12.96875 -10.078125 L 9.359375 -10.078125 C 9.285156 -10.523438 9.054688 -10.878906 8.671875 -11.140625 C 8.296875 -11.398438 7.773438 -11.53125 7.109375 -11.53125 C 6.472656 -11.53125 5.96875 -11.410156 5.59375 -11.171875 C 5.21875 -10.941406 5.03125 -10.640625 5.03125 -10.265625 C 5.03125 -10.015625 5.125 -9.8125 5.3125 -9.65625 C 5.5 -9.507812 5.753906 -9.394531 6.078125 -9.3125 C 6.398438 -9.226562 6.769531 -9.160156 7.1875 -9.109375 C 7.601562 -9.066406 8.039062 -9.007812 8.5 -8.9375 C 8.957031 -8.875 9.414062 -8.789062 9.875 -8.6875 C 10.332031 -8.582031 10.769531 -8.421875 11.1875 -8.203125 C 11.601562 -7.992188 11.972656 -7.734375 12.296875 -7.421875 C 12.617188 -7.117188 12.875 -6.707031 13.0625 -6.1875 C 13.25 -5.675781 13.34375 -5.082031 13.34375 -4.40625 C 13.34375 -2.988281 12.789062 -1.835938 11.6875 -0.953125 C 10.59375 -0.078125 9.054688 0.359375 7.078125 0.359375 C 5.085938 0.359375 3.582031 -0.0546875 2.5625 -0.890625 C 1.550781 -1.734375 1.019531 -2.894531 0.96875 -4.375 Z M 0.96875 -4.375 "/></g></g></g></svg>