<?xml version="1.0" encoding="UTF-8"?>
<svg xmlns="http://www.w3.org/2000/svg" xmlns:xlink="http://www.w3.org/1999/xlink" width="25px" height="25px" viewBox="0 0 25 25" version="1.1">
<g id="surface1">
<path style=" stroke:none;fill-rule:nonzero;fill:rgb(99.607843%,78.039216%,28.627451%);fill-opacity:1;" d="M 20.984375 13.054688 C 20.984375 13.910156 18.871094 14.417969 18.621094 15.191406 C 18.359375 15.988281 19.761719 17.644531 19.277344 18.308594 C 18.789062 18.980469 16.777344 18.15625 16.105469 18.644531 C 15.441406 19.128906 15.605469 21.296875 14.808594 21.558594 C 14.035156 21.808594 12.898438 19.964844 12.042969 19.964844 C 11.191406 19.964844 10.054688 21.804688 9.28125 21.558594 C 8.484375 21.296875 8.648438 19.128906 7.984375 18.644531 C 7.3125 18.15625 5.300781 18.980469 4.8125 18.308594 C 4.328125 17.640625 5.730469 15.988281 5.46875 15.191406 C 5.21875 14.417969 3.105469 13.910156 3.105469 13.054688 C 3.105469 12.199219 5.21875 11.6875 5.46875 10.917969 C 5.730469 10.117188 4.328125 8.464844 4.8125 7.796875 C 5.300781 7.125 7.3125 7.949219 7.984375 7.460938 C 8.648438 6.976562 8.484375 4.808594 9.28125 4.550781 C 10.054688 4.300781 11.191406 6.144531 12.042969 6.144531 C 12.898438 6.144531 14.035156 4.300781 14.808594 4.550781 C 15.605469 4.808594 15.441406 6.976562 16.105469 7.460938 C 16.777344 7.949219 18.789062 7.125 19.277344 7.796875 C 19.761719 8.464844 18.359375 10.117188 18.621094 10.917969 C 18.871094 11.6875 20.984375 12.199219 20.984375 13.054688 Z M 20.984375 13.054688 "/>
<path style=" stroke:none;fill-rule:nonzero;fill:rgb(100%,100%,100%);fill-opacity:1;" d="M 19.664062 13.054688 C 19.664062 13.765625 17.570312 14.136719 17.363281 14.78125 C 17.148438 15.449219 18.613281 16.976562 18.207031 17.53125 C 17.800781 18.09375 15.890625 17.167969 15.332031 17.578125 C 14.777344 17.980469 15.066406 20.082031 14.398438 20.300781 C 13.757812 20.507812 12.757812 18.644531 12.042969 18.644531 C 11.332031 18.644531 10.332031 20.507812 9.691406 20.300781 C 9.023438 20.082031 9.3125 17.980469 8.757812 17.578125 C 8.199219 17.171875 6.289062 18.09375 5.882812 17.53125 C 5.476562 16.976562 6.941406 15.449219 6.726562 14.78125 C 6.519531 14.136719 4.425781 13.765625 4.425781 13.054688 C 4.425781 12.339844 6.519531 11.96875 6.726562 11.324219 C 6.941406 10.660156 5.476562 9.128906 5.882812 8.574219 C 6.289062 8.015625 8.199219 8.9375 8.757812 8.53125 C 9.3125 8.125 9.023438 6.023438 9.691406 5.808594 C 10.332031 5.597656 11.332031 7.464844 12.042969 7.464844 C 12.757812 7.464844 13.757812 5.597656 14.398438 5.804688 C 15.066406 6.023438 14.777344 8.125 15.332031 8.527344 C 15.890625 8.9375 17.800781 8.015625 18.207031 8.574219 C 18.613281 9.128906 17.148438 10.65625 17.363281 11.324219 C 17.570312 11.96875 19.664062 12.339844 19.664062 13.054688 Z M 19.664062 13.054688 "/>
<path style=" stroke:none;fill-rule:nonzero;fill:rgb(99.607843%,78.039216%,28.627451%);fill-opacity:1;" d="M 18.5625 13.054688 C 18.5625 13.648438 16.492188 13.90625 16.316406 14.441406 C 16.136719 14.996094 17.652344 16.421875 17.316406 16.886719 C 16.976562 17.351562 15.148438 16.347656 14.683594 16.6875 C 14.21875 17.027344 14.613281 19.074219 14.058594 19.253906 C 13.523438 19.425781 12.640625 17.542969 12.042969 17.542969 C 11.449219 17.542969 10.566406 19.425781 10.03125 19.253906 C 9.476562 19.074219 9.867188 17.023438 9.40625 16.6875 C 8.941406 16.347656 7.113281 17.351562 6.773438 16.886719 C 6.4375 16.421875 7.953125 14.996094 7.773438 14.441406 C 7.597656 13.90625 5.527344 13.648438 5.527344 13.054688 C 5.527344 12.460938 7.597656 12.199219 7.773438 11.664062 C 7.953125 11.109375 6.4375 9.683594 6.773438 9.222656 C 7.113281 8.753906 8.941406 9.761719 9.40625 9.421875 C 9.871094 9.082031 9.476562 7.035156 10.03125 6.851562 C 10.566406 6.679688 11.449219 8.5625 12.042969 8.5625 C 12.640625 8.5625 13.523438 6.679688 14.058594 6.851562 C 14.613281 7.035156 14.222656 9.082031 14.683594 9.421875 C 15.144531 9.757812 16.976562 8.753906 17.316406 9.222656 C 17.652344 9.683594 16.136719 11.109375 16.316406 11.664062 C 16.492188 12.199219 18.5625 12.460938 18.5625 13.054688 Z M 18.5625 13.054688 "/>
<path style="fill:none;stroke-width:10;stroke-linecap:round;stroke-linejoin:round;stroke:rgb(0%,0%,0%);stroke-opacity:1;stroke-miterlimit:4;" d="M 502.073527 343.970351 C 502.073527 362.445664 484.811921 377.414713 463.504626 377.414713 C 442.197331 377.414713 425.070581 362.445664 425.070581 343.970351 " transform="matrix(0.028966,0,0,0.028966,-3.33604,1.52483)"/>
<path style="fill:none;stroke-width:10;stroke-linecap:round;stroke-linejoin:round;stroke:rgb(0%,0%,0%);stroke-opacity:1;stroke-miterlimit:4;" d="M 637.064683 343.970351 C 637.064683 362.445664 619.803076 377.414713 598.495781 377.414713 C 577.188486 377.414713 560.061736 362.445664 560.061736 343.970351 " transform="matrix(0.028966,0,0,0.028966,-3.33604,1.52483)"/>
<path style="fill:none;stroke-width:11;stroke-linecap:round;stroke-linejoin:round;stroke:rgb(0%,0%,0%);stroke-opacity:1;stroke-miterlimit:4;" d="M 560.061736 407.217955 C 560.061736 425.693268 546.980675 440.797174 531.067632 440.797174 C 515.019732 440.797174 502.073527 425.693268 502.073527 407.217955 " transform="matrix(0.028966,0,0,0.028966,-3.33604,1.52483)"/>
<path style=" stroke:none;fill-rule:nonzero;fill:rgb(100%,100%,100%);fill-opacity:1;" d="M 3.695312 5.144531 C 3.101562 5.085938 2.574219 5.515625 2.511719 6.109375 L 2.292969 8.265625 L 2.847656 8.320312 L 2.964844 7.175781 L 3.992188 7.28125 L 3.875 8.425781 L 4.433594 8.484375 L 4.65625 6.328125 C 4.714844 5.734375 4.285156 5.207031 3.695312 5.144531 Z M 3.019531 6.617188 L 3.066406 6.164062 C 3.097656 5.882812 3.351562 5.675781 3.636719 5.703125 C 3.917969 5.734375 4.125 5.988281 4.097656 6.269531 L 4.050781 6.722656 Z M 3.019531 6.617188 "/>
<path style=" stroke:none;fill-rule:nonzero;fill:rgb(100%,100%,100%);fill-opacity:1;" d="M 6.265625 3.769531 L 5.09375 4.277344 L 5.320312 4.792969 L 5.539062 4.695312 L 6.613281 7.160156 L 7.5625 6.746094 C 8.089844 6.515625 8.332031 5.902344 8.101562 5.375 L 7.636719 4.304688 C 7.40625 3.777344 6.792969 3.539062 6.265625 3.769531 Z M 7.585938 5.597656 C 7.691406 5.84375 7.582031 6.125 7.339844 6.234375 L 6.90625 6.421875 L 6.054688 4.472656 L 6.492188 4.28125 C 6.734375 4.175781 7.015625 4.289062 7.121094 4.53125 Z M 7.585938 5.597656 "/>
<path style=" stroke:none;fill-rule:nonzero;fill:rgb(100%,100%,100%);fill-opacity:1;" d="M 9.277344 0.9375 C 8.683594 0.9375 8.199219 1.421875 8.199219 2.015625 L 8.199219 4.183594 L 8.757812 4.183594 L 8.757812 3.03125 L 9.792969 3.03125 L 9.792969 4.183594 L 10.355469 4.183594 L 10.355469 2.015625 C 10.355469 1.421875 9.871094 0.9375 9.277344 0.9375 Z M 8.757812 2.46875 L 8.757812 2.015625 C 8.757812 1.730469 8.988281 1.5 9.277344 1.5 C 9.558594 1.5 9.792969 1.730469 9.792969 2.015625 L 9.792969 2.46875 Z M 8.757812 2.46875 "/>
<path style=" stroke:none;fill-rule:nonzero;fill:rgb(100%,100%,100%);fill-opacity:1;" d="M 13.160156 1.167969 C 12.941406 1.308594 12.789062 1.535156 12.738281 1.789062 C 12.269531 1.683594 11.792969 1.929688 11.613281 2.375 C 11.46875 2.335938 11.3125 2.359375 11.1875 2.445312 L 10.953125 2.597656 L 11.253906 3.066406 L 11.476562 2.921875 L 12.925781 5.179688 L 13.398438 4.878906 L 12.171875 2.96875 C 12.046875 2.773438 12.101562 2.515625 12.296875 2.390625 C 12.488281 2.265625 12.746094 2.324219 12.871094 2.519531 L 14.097656 4.429688 L 14.570312 4.125 L 13.34375 2.214844 C 13.21875 2.019531 13.273438 1.761719 13.464844 1.640625 C 13.660156 1.515625 13.917969 1.570312 14.042969 1.765625 L 15.269531 3.675781 L 15.742188 3.375 L 14.515625 1.464844 C 14.222656 1.007812 13.613281 0.878906 13.160156 1.167969 Z M 13.160156 1.167969 "/>
</g>
</svg>
