<?xml version="1.0" encoding="UTF-8"?>
<svg xmlns="http://www.w3.org/2000/svg" xmlns:xlink="http://www.w3.org/1999/xlink" width="220px" height="px" viewBox="0 0 220 220" version="1.1">
<g id="surface1">
<path style=" stroke:none;fill-rule:nonzero;fill:rgb(99.215686%,38.431373%,14.901961%);fill-opacity:1;" d="M 214.484375 109.957031 C 214.484375 98.71875 220.085938 86.792969 216.636719 76.675781 C 213.105469 66.171875 201.125 59.714844 194.535156 50.976562 C 187.855469 42.148438 185.097656 29.277344 175.921875 22.863281 C 166.832031 16.53125 153.257812 17.953125 142.359375 14.507812 C 131.800781 11.238281 121.761719 2.28125 110.085938 2.28125 C 98.410156 2.28125 88.328125 11.195312 77.816406 14.507812 C 66.914062 17.910156 53.300781 16.492188 44.207031 22.863281 C 35.03125 29.277344 32.273438 42.148438 25.59375 50.976562 C 18.957031 59.714844 7.023438 66.171875 3.449219 76.675781 C 0.046875 86.792969 5.601562 98.71875 5.601562 109.957031 C 5.601562 121.191406 0.00390625 133.117188 3.449219 143.234375 C 6.984375 153.742188 18.957031 160.199219 25.550781 168.9375 C 32.230469 177.765625 34.988281 190.636719 44.164062 197.050781 C 53.257812 203.425781 66.828125 202.003906 77.773438 205.40625 C 88.328125 208.675781 98.367188 217.628906 110.042969 217.628906 C 121.71875 217.628906 131.800781 208.71875 142.316406 205.40625 C 153.214844 202.003906 166.832031 203.425781 175.921875 197.050781 C 185.097656 190.636719 187.855469 177.765625 194.535156 168.9375 C 201.167969 160.199219 213.105469 153.742188 216.636719 143.234375 C 220.085938 133.078125 214.484375 121.152344 214.484375 109.957031 Z M 214.484375 109.957031 "/>
</g>
</svg>
