<?xml version="1.0" encoding="UTF-8"?>
<svg xmlns="http://www.w3.org/2000/svg" xmlns:xlink="http://www.w3.org/1999/xlink" width="153pt" height="153pt" viewBox="0 0 153 153" version="1.1">
<g id="surface1">
<path style=" stroke:none;fill-rule:nonzero;fill:rgb(51.764706%,79.215686%,63.921569%);fill-opacity:1;" d="M 112.433594 102.714844 L 40.769531 102.714844 C 32.109375 102.714844 25.09375 95.699219 25.09375 87.039062 L 25.09375 42.242188 C 25.09375 33.578125 32.109375 26.5625 40.769531 26.5625 L 112.433594 26.5625 C 121.09375 26.5625 128.109375 33.578125 128.109375 42.242188 L 128.109375 87.039062 C 128.109375 95.699219 121.09375 102.714844 112.433594 102.714844 Z M 112.433594 102.714844 "/>
<path style=" stroke:none;fill-rule:nonzero;fill:rgb(51.764706%,79.215686%,63.921569%);fill-opacity:1;" d="M 112.433594 126.3125 L 40.769531 126.3125 C 32.109375 126.3125 25.09375 119.296875 25.09375 110.632812 L 25.09375 65.835938 C 25.09375 57.175781 32.109375 50.160156 40.769531 50.160156 L 112.433594 50.160156 C 121.09375 50.160156 128.109375 57.175781 128.109375 65.835938 L 128.109375 110.632812 C 128.109375 119.296875 121.09375 126.3125 112.433594 126.3125 Z M 112.433594 126.3125 "/>
<path style=" stroke:none;fill-rule:nonzero;fill:rgb(100%,41.176471%,23.137255%);fill-opacity:1;" d="M 10.886719 93.679688 L 51.847656 79.515625 L 51.847656 74.957031 L 9.628906 89.554688 C 9.40625 89.632812 9.199219 89.742188 9.007812 89.882812 C 8.820312 90.023438 8.65625 90.191406 8.519531 90.382812 C 8.382812 90.574219 8.277344 90.785156 8.203125 91.011719 C 8.132812 91.234375 8.097656 91.464844 8.097656 91.703125 C 8.097656 91.867188 8.117188 92.03125 8.15625 92.195312 C 8.195312 92.359375 8.253906 92.511719 8.328125 92.664062 C 8.40625 92.808594 8.5 92.949219 8.609375 93.074219 C 8.71875 93.199219 8.84375 93.308594 8.980469 93.40625 C 9.117188 93.503906 9.261719 93.585938 9.417969 93.648438 C 9.574219 93.707031 9.734375 93.75 9.898438 93.773438 C 10.066406 93.796875 10.234375 93.800781 10.398438 93.785156 C 10.566406 93.769531 10.730469 93.734375 10.886719 93.679688 Z M 10.886719 93.679688 "/>
<path style=" stroke:none;fill-rule:nonzero;fill:rgb(100%,41.176471%,23.137255%);fill-opacity:1;" d="M 147.167969 99.15625 L 109.871094 82.613281 L 109.871094 78.054688 L 148.429688 95.03125 C 149.34375 95.347656 147.945312 95.324219 147.945312 96.289062 L 149.960938 97.175781 C 149.960938 97.34375 149.941406 97.507812 149.902344 97.671875 C 149.863281 97.835938 149.804688 97.988281 149.726562 98.136719 C 149.648438 98.285156 149.558594 98.421875 149.449219 98.550781 C 149.335938 98.675781 149.214844 98.789062 149.078125 98.886719 C 148.941406 98.980469 148.792969 99.0625 148.636719 99.121094 C 148.480469 99.183594 148.320312 99.226562 148.15625 99.253906 C 147.988281 99.273438 147.824219 99.277344 147.65625 99.261719 C 147.488281 99.246094 147.324219 99.210938 147.167969 99.15625 Z M 147.167969 99.15625 "/>
<path style=" stroke:none;fill-rule:nonzero;fill:rgb(99.215686%,38.431373%,14.901961%);fill-opacity:1;" d="M 51.753906 88.582031 C 51.753906 89.417969 51.710938 90.253906 51.628906 91.089844 C 51.546875 91.925781 51.421875 92.753906 51.257812 93.574219 C 51.09375 94.398438 50.890625 95.210938 50.648438 96.011719 C 50.402344 96.8125 50.121094 97.601562 49.796875 98.375 C 49.476562 99.148438 49.117188 99.910156 48.71875 100.648438 C 48.324219 101.386719 47.890625 102.105469 47.425781 102.800781 C 46.957031 103.5 46.457031 104.171875 45.921875 104.820312 C 45.386719 105.46875 44.824219 106.085938 44.226562 106.679688 C 43.632812 107.273438 43.011719 107.835938 42.359375 108.367188 C 41.707031 108.898438 41.035156 109.398438 40.332031 109.863281 C 39.632812 110.328125 38.914062 110.757812 38.171875 111.152344 C 37.429688 111.550781 36.671875 111.90625 35.890625 112.230469 C 35.113281 112.550781 34.324219 112.832031 33.519531 113.074219 C 32.710938 113.320312 31.898438 113.519531 31.070312 113.683594 C 30.246094 113.847656 29.414062 113.972656 28.578125 114.054688 C 27.742188 114.136719 26.902344 114.175781 26.058594 114.175781 C 25.21875 114.175781 24.378906 114.136719 23.539062 114.054688 C 22.703125 113.972656 21.871094 113.847656 21.046875 113.683594 C 20.21875 113.519531 19.40625 113.320312 18.601562 113.074219 C 17.792969 112.832031 17.003906 112.550781 16.226562 112.230469 C 15.449219 111.90625 14.6875 111.550781 13.945312 111.152344 C 13.203125 110.757812 12.484375 110.328125 11.785156 109.863281 C 11.082031 109.398438 10.410156 108.898438 9.757812 108.367188 C 9.109375 107.835938 8.484375 107.273438 7.890625 106.679688 C 7.296875 106.085938 6.730469 105.46875 6.195312 104.820312 C 5.664062 104.171875 5.164062 103.5 4.695312 102.800781 C 4.226562 102.105469 3.792969 101.386719 3.398438 100.648438 C 3 99.910156 2.644531 99.148438 2.320312 98.375 C 1.996094 97.601562 1.714844 96.8125 1.46875 96.011719 C 1.226562 95.210938 1.023438 94.398438 0.859375 93.574219 C 0.691406 92.753906 0.570312 91.925781 0.488281 91.089844 C 0.40625 90.253906 0.363281 89.417969 0.363281 88.582031 C 0.363281 87.742188 0.40625 86.90625 0.488281 86.074219 C 0.570312 85.238281 0.691406 84.410156 0.859375 83.585938 C 1.023438 82.765625 1.226562 81.953125 1.46875 81.148438 C 1.714844 80.347656 1.996094 79.5625 2.320312 78.785156 C 2.644531 78.011719 3 77.253906 3.398438 76.515625 C 3.792969 75.777344 4.226562 75.058594 4.695312 74.363281 C 5.164062 73.664062 5.664062 72.992188 6.195312 72.34375 C 6.730469 71.695312 7.296875 71.074219 7.890625 70.484375 C 8.484375 69.886719 9.109375 69.328125 9.757812 68.796875 C 10.410156 68.265625 11.082031 67.765625 11.785156 67.296875 C 12.484375 66.832031 13.203125 66.402344 13.945312 66.007812 C 14.6875 65.613281 15.449219 65.253906 16.226562 64.933594 C 17.003906 64.613281 17.792969 64.332031 18.601562 64.085938 C 19.40625 63.84375 20.21875 63.640625 21.046875 63.476562 C 21.871094 63.3125 22.703125 63.191406 23.539062 63.109375 C 24.378906 63.027344 25.21875 62.984375 26.058594 62.984375 C 26.902344 62.984375 27.742188 63.027344 28.578125 63.109375 C 29.414062 63.191406 30.246094 63.3125 31.070312 63.476562 C 31.898438 63.640625 32.710938 63.84375 33.519531 64.085938 C 34.324219 64.332031 35.113281 64.613281 35.890625 64.933594 C 36.671875 65.253906 37.429688 65.613281 38.171875 66.007812 C 38.914062 66.402344 39.632812 66.832031 40.332031 67.296875 C 41.035156 67.765625 41.707031 68.265625 42.359375 68.796875 C 43.011719 69.328125 43.632812 69.886719 44.226562 70.484375 C 44.824219 71.074219 45.386719 71.695312 45.921875 72.34375 C 46.457031 72.992188 46.957031 73.664062 47.425781 74.363281 C 47.890625 75.058594 48.324219 75.777344 48.71875 76.515625 C 49.117188 77.253906 49.476562 78.011719 49.796875 78.785156 C 50.121094 79.5625 50.402344 80.347656 50.648438 81.148438 C 50.890625 81.953125 51.09375 82.765625 51.257812 83.585938 C 51.421875 84.410156 51.546875 85.238281 51.628906 86.074219 C 51.710938 86.90625 51.753906 87.742188 51.753906 88.582031 Z M 51.753906 88.582031 "/>
<path style=" stroke:none;fill-rule:nonzero;fill:rgb(100%,56.078431%,61.568627%);fill-opacity:1;" d="M 13.011719 109.472656 L 9.789062 118.886719 L 4.238281 119.5625 L 12.898438 122.539062 L 16.449219 112.292969 Z M 13.011719 109.472656 "/>
<path style=" stroke:none;fill-rule:nonzero;fill:rgb(99.607843%,78.039216%,28.627451%);fill-opacity:1;" d="M 31.34375 113.070312 L 29.890625 122.917969 L 34.457031 123.824219 L 25.667969 123.824219 L 27.003906 114.179688 Z M 31.34375 113.070312 "/>
<path style="fill:none;stroke-width:5;stroke-linecap:round;stroke-linejoin:miter;stroke:rgb(0%,0%,0%);stroke-opacity:1;stroke-miterlimit:10;" d="M 134.882361 177.211704 C 133.687337 185.394903 125.087432 190.900354 115.676618 189.507925 C 106.265804 188.136917 99.586474 180.382158 100.781498 172.198959 " transform="matrix(0.183051,0,0,0.182348,0.360468,47.056947)"/>
<path style="fill:none;stroke-width:5;stroke-linecap:round;stroke-linejoin:miter;stroke:rgb(0%,0%,0%);stroke-opacity:1;stroke-miterlimit:10;" d="M 194.590882 185.994719 C 193.395858 194.177918 184.795953 199.683368 175.385139 198.290939 C 165.952985 196.919932 159.294994 189.143751 160.490018 181.003396 " transform="matrix(0.183051,0,0,0.182348,0.360468,47.056947)"/>
<path style="fill:none;stroke-width:5;stroke-linecap:round;stroke-linejoin:miter;stroke:rgb(0%,0%,0%);stroke-opacity:1;stroke-miterlimit:10;" d="M 159.081597 209.344684 C 157.886573 217.506461 151.185903 223.354664 144.101118 222.262142 C 136.994993 221.191043 132.236237 213.757613 133.431261 205.595837 " transform="matrix(0.183051,0,0,0.182348,0.360468,47.056947)"/>
<path style=" stroke:none;fill-rule:nonzero;fill:rgb(100%,56.078431%,61.568627%);fill-opacity:1;" d="M 42.144531 87.132812 C 42.441406 87.175781 42.734375 87.238281 43.019531 87.316406 C 43.308594 87.390625 43.582031 87.484375 43.847656 87.59375 C 44.113281 87.699219 44.363281 87.824219 44.59375 87.957031 C 44.828125 88.09375 45.039062 88.238281 45.230469 88.394531 C 45.425781 88.550781 45.59375 88.714844 45.734375 88.886719 C 45.878906 89.058594 45.996094 89.234375 46.085938 89.414062 C 46.175781 89.59375 46.238281 89.777344 46.269531 89.960938 C 46.300781 90.140625 46.304688 90.320312 46.277344 90.5 C 46.253906 90.675781 46.199219 90.847656 46.113281 91.011719 C 46.03125 91.179688 45.917969 91.335938 45.78125 91.484375 C 45.644531 91.628906 45.480469 91.765625 45.292969 91.886719 C 45.105469 92.011719 44.898438 92.121094 44.667969 92.214844 C 44.441406 92.308594 44.195312 92.390625 43.933594 92.453125 C 43.671875 92.515625 43.398438 92.558594 43.113281 92.585938 C 42.828125 92.613281 42.535156 92.625 42.238281 92.617188 C 41.941406 92.609375 41.644531 92.582031 41.347656 92.539062 C 41.050781 92.496094 40.757812 92.433594 40.472656 92.359375 C 40.183594 92.28125 39.90625 92.1875 39.640625 92.078125 C 39.378906 91.972656 39.128906 91.851562 38.894531 91.714844 C 38.664062 91.582031 38.449219 91.433594 38.257812 91.277344 C 38.066406 91.121094 37.898438 90.957031 37.753906 90.785156 C 37.613281 90.617188 37.496094 90.4375 37.40625 90.257812 C 37.316406 90.078125 37.253906 89.894531 37.222656 89.714844 C 37.1875 89.53125 37.1875 89.351562 37.210938 89.171875 C 37.238281 88.996094 37.292969 88.824219 37.378906 88.660156 C 37.460938 88.492188 37.570312 88.335938 37.710938 88.1875 C 37.847656 88.042969 38.011719 87.90625 38.199219 87.78125 C 38.382812 87.660156 38.59375 87.550781 38.820312 87.457031 C 39.050781 87.359375 39.296875 87.28125 39.558594 87.222656 C 39.820312 87.160156 40.09375 87.113281 40.378906 87.085938 C 40.664062 87.058594 40.953125 87.046875 41.25 87.058594 C 41.550781 87.066406 41.84375 87.089844 42.144531 87.132812 Z M 42.144531 87.132812 "/>
<path style=" stroke:none;fill-rule:nonzero;fill:rgb(99.607843%,78.039216%,28.627451%);fill-opacity:1;" d="M 12.089844 82.917969 C 12.359375 82.957031 12.625 83.015625 12.886719 83.085938 C 13.148438 83.152344 13.398438 83.238281 13.640625 83.335938 C 13.878906 83.433594 14.105469 83.546875 14.320312 83.667969 C 14.53125 83.792969 14.726562 83.921875 14.898438 84.066406 C 15.074219 84.207031 15.226562 84.355469 15.355469 84.511719 C 15.488281 84.667969 15.59375 84.828125 15.675781 84.992188 C 15.757812 85.15625 15.8125 85.324219 15.84375 85.488281 C 15.875 85.65625 15.875 85.820312 15.851562 85.980469 C 15.828125 86.140625 15.777344 86.296875 15.703125 86.449219 C 15.625 86.601562 15.523438 86.742188 15.398438 86.875 C 15.273438 87.011719 15.125 87.132812 14.957031 87.246094 C 14.785156 87.359375 14.597656 87.457031 14.386719 87.542969 C 14.179688 87.628906 13.957031 87.699219 13.714844 87.757812 C 13.480469 87.816406 13.230469 87.855469 12.96875 87.878906 C 12.710938 87.90625 12.445312 87.914062 12.175781 87.90625 C 11.90625 87.898438 11.632812 87.878906 11.363281 87.835938 C 11.09375 87.796875 10.828125 87.742188 10.566406 87.671875 C 10.304688 87.601562 10.054688 87.515625 9.8125 87.417969 C 9.570312 87.320312 9.34375 87.210938 9.132812 87.085938 C 8.921875 86.964844 8.726562 86.832031 8.550781 86.691406 C 8.378906 86.546875 8.226562 86.398438 8.09375 86.242188 C 7.964844 86.085938 7.859375 85.925781 7.773438 85.761719 C 7.695312 85.597656 7.636719 85.433594 7.609375 85.265625 C 7.578125 85.097656 7.574219 84.9375 7.601562 84.773438 C 7.625 84.613281 7.675781 84.457031 7.75 84.304688 C 7.824219 84.15625 7.929688 84.011719 8.054688 83.878906 C 8.179688 83.746094 8.324219 83.621094 8.496094 83.507812 C 8.667969 83.398438 8.855469 83.300781 9.066406 83.214844 C 9.273438 83.128906 9.496094 83.054688 9.734375 83 C 9.972656 82.941406 10.222656 82.902344 10.480469 82.875 C 10.742188 82.851562 11.003906 82.839844 11.277344 82.847656 C 11.546875 82.855469 11.816406 82.878906 12.089844 82.917969 Z M 12.089844 82.917969 "/>
<path style=" stroke:none;fill-rule:nonzero;fill:rgb(99.607843%,78.039216%,28.627451%);fill-opacity:1;" d="M 113.644531 113.984375 L 153.03125 112.929688 L 132.375 77.757812 Z M 113.644531 113.984375 "/>
<path style=" stroke:none;fill-rule:nonzero;fill:rgb(100%,56.078431%,61.568627%);fill-opacity:1;" d="M 123.785156 113.613281 L 124.109375 120.667969 L 119.941406 123.824219 L 127.8125 123.824219 L 127.8125 113.433594 Z M 123.785156 113.613281 "/>
<path style=" stroke:none;fill-rule:nonzero;fill:rgb(100%,41.176471%,23.137255%);fill-opacity:1;" d="M 141.175781 113.066406 L 140.992188 120.726562 L 145.199219 123.824219 L 137.652344 123.796875 L 136.964844 113.25 Z M 141.175781 113.066406 "/>
<path style="fill:none;stroke-width:3;stroke-linecap:butt;stroke-linejoin:round;stroke:rgb(0%,0%,0%);stroke-opacity:1;stroke-miterlimit:4;" d="M 710.542494 234.472675 C 710.84125 239.871015 707.426896 244.45532 702.902876 244.733806 C 698.400196 245.012292 694.473689 240.813583 694.174933 235.39382 " transform="matrix(0.183051,0,0,0.182348,0.360468,47.056947)"/>
<path style="fill:none;stroke-width:3;stroke-linecap:butt;stroke-linejoin:round;stroke:rgb(0%,0%,0%);stroke-opacity:1;stroke-miterlimit:4;" d="M 749.060678 232.26621 C 749.359434 237.685973 745.96642 242.270278 741.4424 242.548764 C 736.918381 242.827249 732.991873 238.62854 732.693117 233.187355 " transform="matrix(0.183051,0,0,0.182348,0.360468,47.056947)"/>
<path style="fill:none;stroke-width:2;stroke-linecap:round;stroke-linejoin:round;stroke:rgb(0%,0%,0%);stroke-opacity:1;stroke-miterlimit:4;" d="M 742.893501 278.152105 C 744.536659 283.314804 746.499912 288.134751 742.18929 289.570024 C 737.878668 291.005297 735.083165 286.570946 733.440007 281.408247 " transform="matrix(0.183051,0,0,0.182348,0.360468,47.056947)"/>
<path style=" stroke:none;fill-rule:nonzero;fill:rgb(100%,56.078431%,61.568627%);fill-opacity:1;" d="M 142.960938 92.183594 C 143.019531 92.265625 143.066406 92.359375 143.101562 92.457031 C 143.136719 92.554688 143.160156 92.65625 143.171875 92.765625 C 143.179688 92.871094 143.179688 92.984375 143.164062 93.097656 C 143.152344 93.210938 143.125 93.328125 143.082031 93.441406 C 143.046875 93.558594 142.996094 93.671875 142.933594 93.785156 C 142.871094 93.898438 142.796875 94.003906 142.714844 94.109375 C 142.632812 94.214844 142.539062 94.316406 142.4375 94.410156 C 142.339844 94.503906 142.230469 94.589844 142.117188 94.671875 C 142.003906 94.75 141.882812 94.820312 141.761719 94.882812 C 141.636719 94.941406 141.511719 94.996094 141.382812 95.035156 C 141.253906 95.074219 141.128906 95.105469 141 95.125 C 140.871094 95.144531 140.746094 95.152344 140.625 95.148438 C 140.503906 95.148438 140.386719 95.132812 140.273438 95.105469 C 140.160156 95.082031 140.054688 95.042969 139.957031 94.996094 C 139.859375 94.949219 139.769531 94.890625 139.691406 94.824219 C 139.613281 94.757812 139.542969 94.683594 139.484375 94.597656 C 139.425781 94.515625 139.378906 94.425781 139.34375 94.328125 C 139.308594 94.226562 139.285156 94.125 139.273438 94.019531 C 139.261719 93.910156 139.265625 93.800781 139.277344 93.683594 C 139.292969 93.570312 139.320312 93.457031 139.359375 93.339844 C 139.398438 93.226562 139.449219 93.113281 139.511719 93 C 139.574219 92.886719 139.644531 92.777344 139.730469 92.671875 C 139.8125 92.566406 139.90625 92.464844 140.003906 92.371094 C 140.105469 92.277344 140.210938 92.191406 140.328125 92.113281 C 140.441406 92.03125 140.558594 91.964844 140.683594 91.902344 C 140.804688 91.839844 140.933594 91.789062 141.0625 91.746094 C 141.1875 91.707031 141.316406 91.675781 141.441406 91.65625 C 141.570312 91.636719 141.695312 91.628906 141.820312 91.632812 C 141.941406 91.636719 142.058594 91.652344 142.167969 91.675781 C 142.28125 91.703125 142.386719 91.738281 142.484375 91.785156 C 142.582031 91.832031 142.671875 91.890625 142.753906 91.957031 C 142.832031 92.023438 142.902344 92.101562 142.960938 92.183594 Z M 142.960938 92.183594 "/>
<path style=" stroke:none;fill-rule:nonzero;fill:rgb(100%,41.176471%,23.137255%);fill-opacity:1;" d="M 124.457031 91.859375 C 124.597656 91.863281 124.734375 91.878906 124.867188 91.90625 C 125.003906 91.933594 125.136719 91.96875 125.261719 92.011719 C 125.386719 92.058594 125.507812 92.109375 125.621094 92.171875 C 125.734375 92.234375 125.839844 92.300781 125.933594 92.378906 C 126.03125 92.457031 126.113281 92.539062 126.1875 92.628906 C 126.261719 92.714844 126.324219 92.808594 126.371094 92.90625 C 126.421875 93 126.457031 93.101562 126.480469 93.203125 C 126.5 93.300781 126.511719 93.40625 126.507812 93.507812 C 126.503906 93.609375 126.484375 93.710938 126.453125 93.808594 C 126.421875 93.90625 126.378906 94.003906 126.320312 94.097656 C 126.261719 94.1875 126.195312 94.277344 126.113281 94.355469 C 126.03125 94.441406 125.941406 94.515625 125.839844 94.582031 C 125.738281 94.648438 125.628906 94.710938 125.507812 94.761719 C 125.390625 94.8125 125.265625 94.855469 125.136719 94.890625 C 125.007812 94.925781 124.875 94.949219 124.738281 94.960938 C 124.601562 94.976562 124.460938 94.980469 124.324219 94.972656 C 124.183594 94.96875 124.046875 94.953125 123.910156 94.925781 C 123.773438 94.898438 123.644531 94.863281 123.515625 94.820312 C 123.390625 94.777344 123.269531 94.722656 123.15625 94.660156 C 123.042969 94.597656 122.941406 94.53125 122.84375 94.453125 C 122.75 94.375 122.664062 94.296875 122.589844 94.207031 C 122.519531 94.117188 122.457031 94.027344 122.40625 93.929688 C 122.359375 93.832031 122.320312 93.734375 122.300781 93.628906 C 122.277344 93.527344 122.269531 93.429688 122.269531 93.324219 C 122.277344 93.222656 122.296875 93.121094 122.324219 93.023438 C 122.355469 92.921875 122.402344 92.828125 122.460938 92.734375 C 122.515625 92.644531 122.585938 92.558594 122.667969 92.476562 C 122.746094 92.394531 122.839844 92.316406 122.941406 92.25 C 123.042969 92.183594 123.148438 92.121094 123.269531 92.070312 C 123.386719 92.019531 123.511719 91.976562 123.640625 91.941406 C 123.773438 91.910156 123.90625 91.886719 124.042969 91.871094 C 124.179688 91.855469 124.316406 91.851562 124.457031 91.859375 Z M 124.457031 91.859375 "/>
<path style="fill:none;stroke-width:3;stroke-linecap:round;stroke-linejoin:round;stroke:rgb(0%,0%,0%);stroke-opacity:1;stroke-miterlimit:4;" d="M 701.87857 276.159861 C 705.463642 278.130683 709.262111 279.523113 713.252638 280.315726 C 717.264504 281.129762 721.31905 281.301138 725.373595 280.872698 L 726.54728 280.744166 C 730.687184 280.272882 734.677711 279.180361 738.47618 277.466602 C 742.274649 275.731421 745.710343 273.482112 748.825941 270.697254 L 749.402114 270.161704 " transform="matrix(0.183051,0,0,0.182348,0.360468,47.056947)"/>
<path style="fill:none;stroke-width:3;stroke-linecap:round;stroke-linejoin:round;stroke:rgb(0%,0%,0%);stroke-opacity:1;stroke-miterlimit:4;" d="M 755.249195 272.603811 C 754.331588 272.539545 753.456659 272.303903 752.64575 271.896885 C 751.813501 271.468446 751.109291 270.932896 750.511779 270.22597 C 749.914267 269.540467 749.466133 268.747853 749.188716 267.869552 C 748.88996 267.012672 748.783262 266.112949 748.847281 265.213226 " transform="matrix(0.183051,0,0,0.182348,0.360468,47.056947)"/>
<path style=" stroke:none;fill-rule:nonzero;fill:rgb(100%,56.078431%,61.568627%);fill-opacity:1;" d="M 51.757812 47.058594 L 111.609375 47.058594 L 111.609375 106.679688 L 51.757812 106.679688 Z M 51.757812 47.058594 "/>
<path style=" stroke:none;fill-rule:nonzero;fill:rgb(100%,41.176471%,23.137255%);fill-opacity:1;" d="M 69.242188 106.679688 L 69.195312 118.648438 L 62.140625 123.824219 L 75.027344 124.007812 L 76.910156 106.679688 Z M 69.242188 106.679688 "/>
<path style=" stroke:none;fill-rule:nonzero;fill:rgb(100%,41.176471%,23.137255%);fill-opacity:1;" d="M 93.617188 106.679688 L 92.703125 118.527344 L 98.566406 124.007812 L 86.972656 123.996094 L 86.292969 106.679688 Z M 93.617188 106.679688 "/>
<path style=" stroke:none;fill-rule:nonzero;fill:rgb(100%,41.176471%,23.137255%);fill-opacity:1;" d="M 69.191406 71.691406 C 69.191406 71.867188 69.160156 72.042969 69.097656 72.214844 C 69.03125 72.386719 68.941406 72.554688 68.816406 72.71875 C 68.695312 72.878906 68.539062 73.035156 68.363281 73.179688 C 68.183594 73.324219 67.980469 73.460938 67.75 73.585938 C 67.519531 73.710938 67.273438 73.820312 67.003906 73.921875 C 66.734375 74.015625 66.453125 74.101562 66.152344 74.167969 C 65.855469 74.234375 65.546875 74.285156 65.230469 74.320312 C 64.914062 74.351562 64.59375 74.371094 64.269531 74.371094 C 63.949219 74.371094 63.628906 74.351562 63.3125 74.320312 C 62.996094 74.285156 62.6875 74.234375 62.386719 74.167969 C 62.089844 74.101562 61.804688 74.015625 61.535156 73.921875 C 61.269531 73.820312 61.019531 73.710938 60.792969 73.585938 C 60.5625 73.460938 60.359375 73.324219 60.179688 73.179688 C 60 73.035156 59.847656 72.878906 59.722656 72.71875 C 59.601562 72.554688 59.507812 72.386719 59.445312 72.214844 C 59.382812 72.042969 59.351562 71.867188 59.351562 71.691406 C 59.351562 71.515625 59.382812 71.34375 59.445312 71.167969 C 59.507812 70.996094 59.601562 70.828125 59.722656 70.667969 C 59.847656 70.503906 60 70.351562 60.179688 70.203125 C 60.359375 70.058594 60.5625 69.921875 60.792969 69.796875 C 61.019531 69.671875 61.269531 69.5625 61.535156 69.464844 C 61.804688 69.367188 62.089844 69.285156 62.386719 69.21875 C 62.6875 69.148438 62.996094 69.097656 63.3125 69.066406 C 63.628906 69.03125 63.949219 69.015625 64.269531 69.015625 C 64.59375 69.015625 64.914062 69.03125 65.230469 69.066406 C 65.546875 69.097656 65.855469 69.148438 66.152344 69.21875 C 66.453125 69.285156 66.734375 69.367188 67.003906 69.464844 C 67.273438 69.5625 67.519531 69.671875 67.75 69.796875 C 67.980469 69.921875 68.183594 70.058594 68.363281 70.203125 C 68.539062 70.351562 68.695312 70.503906 68.816406 70.667969 C 68.941406 70.828125 69.03125 70.996094 69.097656 71.167969 C 69.160156 71.34375 69.191406 71.515625 69.191406 71.691406 Z M 69.191406 71.691406 "/>
<path style=" stroke:none;fill-rule:nonzero;fill:rgb(100%,41.176471%,23.137255%);fill-opacity:1;" d="M 102.789062 70.6875 C 102.789062 70.863281 102.757812 71.035156 102.695312 71.210938 C 102.632812 71.382812 102.539062 71.550781 102.414062 71.710938 C 102.292969 71.875 102.140625 72.03125 101.960938 72.175781 C 101.78125 72.324219 101.578125 72.457031 101.351562 72.582031 C 101.121094 72.707031 100.871094 72.816406 100.601562 72.914062 C 100.335938 73.011719 100.050781 73.09375 99.753906 73.160156 C 99.453125 73.230469 99.148438 73.28125 98.828125 73.316406 C 98.511719 73.347656 98.191406 73.367188 97.871094 73.367188 C 97.546875 73.367188 97.226562 73.347656 96.910156 73.316406 C 96.59375 73.28125 96.285156 73.230469 95.988281 73.160156 C 95.6875 73.09375 95.40625 73.011719 95.136719 72.914062 C 94.867188 72.816406 94.617188 72.707031 94.390625 72.582031 C 94.164062 72.457031 93.957031 72.324219 93.777344 72.175781 C 93.597656 72.03125 93.449219 71.875 93.324219 71.710938 C 93.199219 71.550781 93.105469 71.382812 93.042969 71.210938 C 92.980469 71.035156 92.949219 70.863281 92.949219 70.6875 C 92.949219 70.511719 92.980469 70.335938 93.042969 70.164062 C 93.105469 69.992188 93.199219 69.824219 93.324219 69.664062 C 93.449219 69.5 93.597656 69.34375 93.777344 69.199219 C 93.957031 69.050781 94.164062 68.917969 94.390625 68.792969 C 94.617188 68.667969 94.867188 68.558594 95.136719 68.460938 C 95.40625 68.363281 95.6875 68.28125 95.988281 68.210938 C 96.285156 68.144531 96.59375 68.09375 96.910156 68.058594 C 97.226562 68.027344 97.546875 68.007812 97.871094 68.007812 C 98.191406 68.007812 98.511719 68.027344 98.828125 68.058594 C 99.148438 68.09375 99.453125 68.144531 99.753906 68.210938 C 100.050781 68.28125 100.335938 68.363281 100.601562 68.460938 C 100.871094 68.558594 101.121094 68.667969 101.351562 68.792969 C 101.578125 68.917969 101.78125 69.050781 101.960938 69.199219 C 102.140625 69.34375 102.292969 69.5 102.414062 69.664062 C 102.539062 69.824219 102.632812 69.992188 102.695312 70.164062 C 102.757812 70.335938 102.789062 70.511719 102.789062 70.6875 Z M 102.789062 70.6875 "/>
<path style="fill:none;stroke-width:6;stroke-linecap:butt;stroke-linejoin:miter;stroke:rgb(0%,0%,0%);stroke-opacity:1;stroke-miterlimit:10;" d="M 418.423145 87.77491 C 418.423145 97.093474 412.08525 104.655435 404.317594 104.655435 C 396.528598 104.655435 390.233382 97.093474 390.233382 87.77491 " transform="matrix(0.183051,0,0,0.182348,0.360468,47.056947)"/>
<path style="fill:none;stroke-width:6;stroke-linecap:butt;stroke-linejoin:miter;stroke:rgb(0%,0%,0%);stroke-opacity:1;stroke-miterlimit:10;" d="M 484.682958 87.77491 C 484.682958 97.093474 478.366402 104.655435 470.598746 104.655435 C 462.809751 104.655435 456.514535 97.093474 456.514535 87.77491 " transform="matrix(0.183051,0,0,0.182348,0.360468,47.056947)"/>
<path style="fill:none;stroke-width:6;stroke-linecap:butt;stroke-linejoin:miter;stroke:rgb(0%,0%,0%);stroke-opacity:1;stroke-miterlimit:10;" d="M 458.989942 144.200423 C 458.989942 155.746874 450.88085 165.129704 440.872524 165.129704 C 430.864198 165.129704 422.733767 155.746874 422.733767 144.200423 " transform="matrix(0.183051,0,0,0.182348,0.360468,47.056947)"/>
</g>
</svg>
