<?xml version="1.0" encoding="UTF-8"?><svg xmlns="http://www.w3.org/2000/svg" xmlns:xlink="http://www.w3.org/1999/xlink" width="375pt" zoomAndPan="magnify" viewBox="0 0 375 374.999991" height="374.999991pt" preserveAspectRatio="xMidYMid meet" version="1.2"><defs><g/><clipPath xml:id="clip1" id="clip1"><path d="M 6.738281 169.929688 L 368.238281 169.929688 L 368.238281 375 L 6.738281 375 Z M 6.738281 169.929688 "/></clipPath></defs><g xml:id="surface1" id="surface1"><g clip-rule="nonzero" clip-path="url(#clip1)"><path style=" stroke:none;fill-rule:nonzero;fill:rgb(100%,100%,100%);fill-opacity:1;" d="M 368.238281 350.679688 C 368.238281 353.636719 368.164062 356.59375 368.019531 359.550781 C 367.875 362.503906 367.65625 365.453125 367.367188 368.398438 C 367.078125 371.339844 366.714844 374.277344 366.28125 377.203125 C 365.847656 380.128906 365.34375 383.042969 364.765625 385.941406 C 364.1875 388.84375 363.539062 391.730469 362.820312 394.597656 C 362.101562 397.46875 361.3125 400.320312 360.453125 403.148438 C 359.597656 405.980469 358.667969 408.789062 357.671875 411.574219 C 356.675781 414.359375 355.609375 417.117188 354.480469 419.851562 C 353.347656 422.582031 352.148438 425.285156 350.882812 427.960938 C 349.617188 430.636719 348.289062 433.277344 346.894531 435.886719 C 345.5 438.492188 344.042969 441.066406 342.523438 443.605469 C 341 446.140625 339.417969 448.640625 337.777344 451.097656 C 336.132812 453.558594 334.429688 455.976562 332.667969 458.351562 C 330.90625 460.730469 329.085938 463.058594 327.210938 465.347656 C 325.332031 467.632812 323.402344 469.871094 321.414062 472.066406 C 319.429688 474.257812 317.390625 476.398438 315.296875 478.488281 C 313.207031 480.582031 311.0625 482.621094 308.871094 484.605469 C 306.679688 486.59375 304.441406 488.523438 302.15625 490.402344 C 299.867188 492.277344 297.535156 494.097656 295.160156 495.859375 C 292.785156 497.621094 290.367188 499.324219 287.90625 500.96875 C 285.449219 502.613281 282.949219 504.195312 280.410156 505.714844 C 277.875 507.234375 275.300781 508.691406 272.691406 510.085938 C 270.082031 511.480469 267.441406 512.8125 264.769531 514.078125 C 262.09375 515.339844 259.390625 516.539062 256.65625 517.671875 C 253.925781 518.804688 251.164062 519.867188 248.378906 520.863281 C 245.59375 521.859375 242.789062 522.789062 239.957031 523.648438 C 237.125 524.507812 234.277344 525.292969 231.40625 526.011719 C 228.535156 526.730469 225.652344 527.378906 222.75 527.957031 C 219.847656 528.535156 216.933594 529.039062 214.007812 529.472656 C 211.082031 529.90625 208.148438 530.269531 205.203125 530.558594 C 202.261719 530.851562 199.3125 531.066406 196.355469 531.210938 C 193.402344 531.359375 190.445312 531.429688 187.488281 531.429688 C 184.53125 531.429688 181.574219 531.359375 178.617188 531.210938 C 175.664062 531.066406 172.714844 530.851562 169.769531 530.558594 C 166.828125 530.269531 163.890625 529.90625 160.964844 529.472656 C 158.039062 529.039062 155.125 528.535156 152.226562 527.957031 C 149.324219 527.378906 146.4375 526.730469 143.570312 526.011719 C 140.699219 525.292969 137.847656 524.507812 135.019531 523.648438 C 132.1875 522.789062 129.378906 521.859375 126.59375 520.863281 C 123.808594 519.867188 121.050781 518.804688 118.316406 517.671875 C 115.585938 516.539062 112.882812 515.339844 110.207031 514.078125 C 107.53125 512.8125 104.890625 511.480469 102.28125 510.085938 C 99.675781 508.691406 97.101562 507.234375 94.5625 505.714844 C 92.027344 504.195312 89.527344 502.613281 87.070312 500.96875 C 84.609375 499.324219 82.191406 497.621094 79.816406 495.859375 C 77.4375 494.097656 75.109375 492.277344 72.820312 490.402344 C 70.535156 488.523438 68.296875 486.59375 66.105469 484.605469 C 63.910156 482.621094 61.769531 480.582031 59.679688 478.488281 C 57.585938 476.398438 55.546875 474.257812 53.5625 472.066406 C 51.574219 469.871094 49.644531 467.632812 47.765625 465.347656 C 45.890625 463.058594 44.070312 460.730469 42.308594 458.351562 C 40.546875 455.976562 38.84375 453.558594 37.199219 451.097656 C 35.554688 448.640625 33.972656 446.140625 32.453125 443.605469 C 30.933594 441.066406 29.476562 438.492188 28.082031 435.886719 C 26.6875 433.277344 25.355469 430.636719 24.089844 427.960938 C 22.828125 425.285156 21.628906 422.582031 20.496094 419.851562 C 19.363281 417.117188 18.300781 414.359375 17.304688 411.574219 C 16.308594 408.789062 15.378906 405.980469 14.519531 403.148438 C 13.664062 400.320312 12.875 397.46875 12.15625 394.597656 C 11.4375 391.730469 10.789062 388.84375 10.210938 385.941406 C 9.632812 383.042969 9.128906 380.128906 8.695312 377.203125 C 8.261719 374.277344 7.898438 371.339844 7.609375 368.398438 C 7.316406 365.453125 7.101562 362.503906 6.957031 359.550781 C 6.808594 356.59375 6.738281 353.636719 6.738281 350.679688 C 6.738281 347.722656 6.808594 344.765625 6.957031 341.8125 C 7.101562 338.855469 7.316406 335.90625 7.609375 332.964844 C 7.898438 330.019531 8.261719 327.085938 8.695312 324.160156 C 9.128906 321.234375 9.632812 318.320312 10.210938 315.417969 C 10.789062 312.515625 11.4375 309.632812 12.15625 306.761719 C 12.875 303.890625 13.664062 301.042969 14.519531 298.210938 C 15.378906 295.378906 16.308594 292.574219 17.304688 289.789062 C 18.300781 287.003906 19.363281 284.242188 20.496094 281.511719 C 21.628906 278.777344 22.828125 276.074219 24.089844 273.398438 C 25.355469 270.726562 26.6875 268.085938 28.082031 265.476562 C 29.476562 262.867188 30.933594 260.292969 32.453125 257.757812 C 33.972656 255.21875 35.554688 252.71875 37.199219 250.261719 C 38.84375 247.800781 40.546875 245.382812 42.308594 243.007812 C 44.070312 240.632812 45.890625 238.300781 47.765625 236.015625 C 49.644531 233.726562 51.574219 231.488281 53.5625 229.296875 C 55.546875 227.105469 57.585938 224.960938 59.679688 222.871094 C 61.769531 220.777344 63.910156 218.738281 66.105469 216.753906 C 68.296875 214.765625 70.535156 212.835938 72.820312 210.957031 C 75.109375 209.082031 77.4375 207.261719 79.816406 205.5 C 82.191406 203.738281 84.609375 202.035156 87.070312 200.390625 C 89.527344 198.75 92.027344 197.167969 94.5625 195.644531 C 97.101562 194.125 99.675781 192.667969 102.28125 191.273438 C 104.890625 189.878906 107.53125 188.550781 110.207031 187.285156 C 112.882812 186.019531 115.585938 184.820312 118.316406 183.6875 C 121.050781 182.558594 123.808594 181.492188 126.59375 180.496094 C 129.378906 179.5 132.1875 178.570312 135.019531 177.714844 C 137.847656 176.855469 140.699219 176.066406 143.570312 175.347656 C 146.4375 174.628906 149.324219 173.980469 152.226562 173.402344 C 155.125 172.828125 158.039062 172.320312 160.964844 171.886719 C 163.890625 171.453125 166.828125 171.089844 169.769531 170.800781 C 172.714844 170.511719 175.664062 170.292969 178.617188 170.148438 C 181.574219 170.003906 184.53125 169.929688 187.488281 169.929688 C 190.445312 169.929688 193.402344 170.003906 196.355469 170.148438 C 199.3125 170.292969 202.261719 170.511719 205.203125 170.800781 C 208.148438 171.089844 211.082031 171.453125 214.007812 171.886719 C 216.933594 172.320312 219.847656 172.828125 222.75 173.402344 C 225.652344 173.980469 228.535156 174.628906 231.40625 175.347656 C 234.277344 176.066406 237.125 176.855469 239.957031 177.714844 C 242.789062 178.570312 245.59375 179.5 248.378906 180.496094 C 251.164062 181.492188 253.925781 182.558594 256.65625 183.6875 C 259.390625 184.820312 262.09375 186.019531 264.769531 187.285156 C 267.441406 188.550781 270.082031 189.878906 272.691406 191.273438 C 275.300781 192.667969 277.875 194.125 280.410156 195.644531 C 282.949219 197.167969 285.449219 198.75 287.90625 200.390625 C 290.367188 202.035156 292.785156 203.738281 295.160156 205.5 C 297.535156 207.261719 299.867188 209.082031 302.15625 210.957031 C 304.441406 212.835938 306.679688 214.765625 308.871094 216.753906 C 311.0625 218.738281 313.207031 220.777344 315.296875 222.871094 C 317.390625 224.960938 319.429688 227.105469 321.414062 229.296875 C 323.402344 231.488281 325.332031 233.726562 327.210938 236.015625 C 329.085938 238.300781 330.90625 240.632812 332.667969 243.007812 C 334.429688 245.382812 336.132812 247.800781 337.777344 250.261719 C 339.417969 252.71875 341 255.21875 342.523438 257.757812 C 344.042969 260.292969 345.5 262.867188 346.894531 265.476562 C 348.289062 268.085938 349.617188 270.726562 350.882812 273.398438 C 352.148438 276.074219 353.347656 278.777344 354.480469 281.511719 C 355.609375 284.242188 356.675781 287.003906 357.671875 289.789062 C 358.667969 292.574219 359.597656 295.378906 360.453125 298.210938 C 361.3125 301.042969 362.101562 303.890625 362.820312 306.761719 C 363.539062 309.632812 364.1875 312.515625 364.765625 315.417969 C 365.34375 318.320312 365.847656 321.234375 366.28125 324.160156 C 366.714844 327.085938 367.078125 330.019531 367.367188 332.964844 C 367.65625 335.90625 367.875 338.855469 368.019531 341.8125 C 368.164062 344.765625 368.238281 347.722656 368.238281 350.679688 Z M 368.238281 350.679688 "/></g><path style=" stroke:none;fill-rule:nonzero;fill:rgb(99.609375%,78.039551%,28.62854%);fill-opacity:1;" d="M 320.453125 350.679688 C 320.453125 363.394531 289 370.988281 285.289062 382.460938 C 281.414062 394.351562 302.265625 418.953125 295.058594 428.847656 C 287.785156 438.847656 257.910156 426.589844 247.910156 433.867188 C 238 441.074219 240.476562 473.308594 228.585938 477.171875 C 217.109375 480.898438 200.203125 453.472656 187.488281 453.472656 C 174.773438 453.472656 157.867188 480.886719 146.390625 477.171875 C 134.5 473.292969 136.964844 441.074219 127.066406 433.867188 C 117.066406 426.589844 87.191406 438.847656 79.917969 428.847656 C 72.707031 418.9375 93.546875 394.351562 89.683594 382.460938 C 85.957031 370.988281 54.519531 363.390625 54.519531 350.679688 C 54.519531 337.96875 85.976562 330.375 89.683594 318.898438 C 93.5625 307.007812 72.707031 282.410156 79.917969 272.511719 C 87.191406 262.511719 117.066406 274.769531 127.066406 267.492188 C 136.976562 260.289062 134.5 228.050781 146.390625 224.191406 C 157.867188 220.460938 174.773438 247.886719 187.488281 247.886719 C 200.203125 247.886719 217.109375 220.476562 228.585938 224.191406 C 240.476562 228.066406 238.011719 260.289062 247.910156 267.492188 C 257.910156 274.769531 287.785156 262.511719 295.058594 272.511719 C 302.265625 282.421875 281.429688 307.007812 285.289062 318.898438 C 289.019531 330.375 320.453125 337.96875 320.453125 350.679688 Z M 320.453125 350.679688 "/><path style=" stroke:none;fill-rule:nonzero;fill:rgb(100%,100%,100%);fill-opacity:1;" d="M 300.804688 350.679688 C 300.804688 361.28125 269.707031 366.824219 266.601562 376.390625 C 263.382812 386.300781 285.167969 409.050781 279.164062 417.300781 C 273.101562 425.628906 244.695312 411.90625 236.363281 417.96875 C 228.109375 423.976562 232.421875 455.261719 222.507812 458.472656 C 212.949219 461.574219 198.085938 433.828125 187.488281 433.828125 C 176.886719 433.828125 162.027344 461.574219 152.464844 458.472656 C 142.558594 455.253906 146.867188 423.96875 138.613281 417.96875 C 130.285156 411.90625 101.875 425.628906 95.8125 417.300781 C 89.808594 409.050781 111.59375 386.300781 108.375 376.390625 C 105.269531 366.839844 74.167969 361.28125 74.167969 350.679688 C 74.167969 340.082031 105.269531 334.535156 108.375 324.96875 C 111.59375 315.058594 89.808594 292.308594 95.8125 284.058594 C 101.875 275.730469 130.28125 289.453125 138.613281 283.390625 C 146.867188 277.386719 142.550781 246.097656 152.464844 242.890625 C 162.027344 239.789062 176.886719 267.53125 187.488281 267.53125 C 198.085938 267.53125 212.949219 239.789062 222.507812 242.890625 C 232.417969 246.109375 228.109375 277.394531 236.363281 283.390625 C 244.691406 289.453125 273.101562 275.730469 279.164062 284.058594 C 285.167969 292.308594 263.382812 315.058594 266.601562 324.96875 C 269.707031 334.523438 300.804688 340.082031 300.804688 350.679688 Z M 300.804688 350.679688 "/><path style=" stroke:none;fill-rule:nonzero;fill:rgb(99.609375%,78.039551%,28.62854%);fill-opacity:1;" d="M 284.433594 350.679688 C 284.433594 359.511719 253.613281 363.359375 251.023438 371.328125 C 248.34375 379.585938 270.921875 400.800781 265.917969 407.675781 C 260.863281 414.617188 233.675781 399.671875 226.734375 404.722656 C 219.84375 409.726562 225.710938 440.21875 217.449219 442.902344 C 209.480469 445.488281 196.339844 417.480469 187.488281 417.480469 C 178.636719 417.480469 165.511719 445.488281 157.523438 442.902344 C 149.265625 440.21875 155.117188 409.726562 148.238281 404.722656 C 141.296875 399.671875 114.109375 414.632812 109.054688 407.675781 C 104.054688 400.78125 126.632812 379.585938 123.953125 371.328125 C 121.347656 363.359375 90.542969 359.511719 90.542969 350.679688 C 90.542969 341.847656 121.347656 338 123.933594 330.03125 C 126.613281 321.773438 104.035156 300.5625 109.039062 293.683594 C 114.09375 286.742188 141.28125 301.691406 148.222656 296.636719 C 155.117188 291.632812 149.25 261.140625 157.507812 258.457031 C 165.480469 255.871094 178.621094 283.878906 187.46875 283.878906 C 196.320312 283.878906 209.445312 255.871094 217.433594 258.457031 C 225.691406 261.140625 219.84375 291.632812 226.71875 296.636719 C 233.660156 301.691406 260.847656 286.726562 265.902344 293.683594 C 270.902344 300.578125 248.328125 321.773438 251.007812 330.03125 C 253.625 338 284.433594 341.847656 284.433594 350.679688 Z M 284.433594 350.679688 "/><path style="fill:none;stroke-width:10;stroke-linecap:round;stroke-linejoin:round;stroke:rgb(0%,0%,0%);stroke-opacity:1;stroke-miterlimit:4;" d="M 390.553459 365.501677 C 390.553459 383.996233 373.291873 399.000395 351.995935 399.000395 C 330.709063 399.000395 313.447478 383.996233 313.447478 365.537941 " transform="matrix(0.43087,0,0,0.43087,6.737845,169.930345)"/><path style="fill:none;stroke-width:10;stroke-linecap:round;stroke-linejoin:round;stroke:rgb(0%,0%,0%);stroke-opacity:1;stroke-miterlimit:4;" d="M 525.545588 365.501677 C 525.545588 383.996233 508.293068 399.000395 486.99713 399.000395 C 465.710259 399.000395 448.448673 383.996233 448.448673 365.537941 " transform="matrix(0.43087,0,0,0.43087,6.737845,169.930345)"/><path style="fill:none;stroke-width:11;stroke-linecap:round;stroke-linejoin:round;stroke:rgb(0%,0%,0%);stroke-opacity:1;stroke-miterlimit:4;" d="M 448.548398 428.773005 C 448.548398 447.249429 435.547813 462.226393 419.546396 462.226393 C 403.554044 462.226393 390.553459 447.231297 390.553459 428.773005 " transform="matrix(0.43087,0,0,0.43087,6.737845,169.930345)"/><g style="fill:rgb(100%,100%,100%);fill-opacity:1;"><g transform="translate(48.00578, 176.348224)"><path style="stroke:none;" d="M -6.59375 -24.515625 C -7.09375 -25.679688 -7.097656 -26.8125 -6.609375 -27.90625 C -6.128906 -29.007812 -5.316406 -29.800781 -4.171875 -30.28125 C -2.953125 -30.789062 -1.796875 -30.832031 -0.703125 -30.40625 C 0.378906 -29.988281 1.171875 -29.1875 1.671875 -28 C 2.148438 -26.84375 2.160156 -25.71875 1.703125 -24.625 C 1.253906 -23.53125 0.425781 -22.726562 -0.78125 -22.21875 C -1.914062 -21.738281 -3.046875 -21.710938 -4.171875 -22.140625 C -5.304688 -22.578125 -6.113281 -23.367188 -6.59375 -24.515625 Z M 1.265625 -6.75 L -1.75 -18.59375 L 2.609375 -20.421875 L 8.953125 -9.984375 L 14.296875 2.734375 L 6.609375 5.96875 Z M 1.265625 -6.75 "/></g></g><g style="fill:rgb(100%,100%,100%);fill-opacity:1;"><g transform="translate(61.431292, 170.370114)"><path style="stroke:none;" d="M -8.328125 -28.53125 L -10.671875 -35.375 L 16.765625 -44.8125 L 19.109375 -37.96875 L 9.3125 -34.59375 L 18.984375 -6.53125 L 11.078125 -3.8125 L 1.40625 -31.875 Z M -8.328125 -28.53125 "/></g></g><g style="fill:rgb(100%,100%,100%);fill-opacity:1;"><g transform="translate(90.087433, 160.430946)"><path style="stroke:none;" d="M 1 -9.796875 L -3.453125 -27.8125 L 4.453125 -29.78125 L 8.296875 -14.234375 C 8.648438 -12.804688 9.328125 -11.75 10.328125 -11.0625 C 11.335938 -10.382812 12.515625 -10.210938 13.859375 -10.546875 C 15.234375 -10.890625 16.222656 -11.660156 16.828125 -12.859375 C 17.429688 -14.054688 17.550781 -15.390625 17.1875 -16.859375 L 13.4375 -32 L 21.359375 -33.953125 L 28.046875 -6.9375 L 20.515625 -5.078125 L 19.78125 -8.046875 L 19.390625 -7.953125 C 19.078125 -6.804688 18.367188 -5.71875 17.265625 -4.6875 C 16.160156 -3.664062 14.757812 -2.941406 13.0625 -2.515625 C 10.125 -1.785156 7.554688 -2.101562 5.359375 -3.46875 C 3.160156 -4.832031 1.707031 -6.941406 1 -9.796875 Z M 4.859375 -33.953125 L 5.4375 -42.359375 L 13 -44.234375 L 10.21875 -35.28125 Z M 4.859375 -33.953125 "/></g></g><g style="fill:rgb(100%,100%,100%);fill-opacity:1;"><g transform="translate(132.1927, 150.686475)"><path style="stroke:none;" d="M 4.8125 11.65625 L 0.34375 -28.046875 L 8.375 -28.953125 L 8.71875 -25.890625 L 9.125 -25.9375 C 9.320312 -26.332031 9.585938 -26.734375 9.921875 -27.140625 C 10.265625 -27.554688 10.710938 -28.015625 11.265625 -28.515625 C 11.816406 -29.023438 12.546875 -29.460938 13.453125 -29.828125 C 14.359375 -30.203125 15.34375 -30.445312 16.40625 -30.5625 C 20.195312 -30.988281 23.414062 -30.023438 26.0625 -27.671875 C 28.707031 -25.316406 30.273438 -21.96875 30.765625 -17.625 C 31.253906 -13.28125 30.492188 -9.617188 28.484375 -6.640625 C 26.472656 -3.660156 23.609375 -1.960938 19.890625 -1.546875 C 18.484375 -1.390625 17.179688 -1.472656 15.984375 -1.796875 C 14.796875 -2.117188 13.878906 -2.507812 13.234375 -2.96875 C 12.597656 -3.425781 12.066406 -3.9375 11.640625 -4.5 L 11.234375 -4.46875 L 12.953125 10.734375 Z M 9.84375 -15.125 C 10.09375 -12.945312 10.878906 -11.269531 12.203125 -10.09375 C 13.523438 -8.914062 15.125 -8.429688 17 -8.640625 C 18.882812 -8.847656 20.335938 -9.6875 21.359375 -11.15625 C 22.378906 -12.632812 22.769531 -14.4375 22.53125 -16.5625 C 22.289062 -18.726562 21.515625 -20.394531 20.203125 -21.5625 C 18.898438 -22.726562 17.300781 -23.207031 15.40625 -23 C 13.46875 -22.78125 12 -21.9375 11 -20.46875 C 10 -19 9.613281 -17.21875 9.84375 -15.125 Z M 9.84375 -15.125 "/></g></g><g style="fill:rgb(100%,100%,100%);fill-opacity:1;"><g transform="translate(164.854493, 146.99724)"><path style="stroke:none;" d="M 3.140625 -9.328125 L 2.78125 -27.890625 L 10.9375 -28.046875 L 11.25 -12.03125 C 11.28125 -10.5625 11.707031 -9.382812 12.53125 -8.5 C 13.351562 -7.613281 14.457031 -7.1875 15.84375 -7.21875 C 17.257812 -7.25 18.394531 -7.78125 19.25 -8.8125 C 20.113281 -9.851562 20.53125 -11.128906 20.5 -12.640625 L 20.1875 -28.234375 L 28.34375 -28.390625 L 28.890625 -0.5625 L 21.140625 -0.40625 L 21.078125 -3.46875 L 20.671875 -3.46875 C 20.109375 -2.425781 19.175781 -1.523438 17.875 -0.765625 C 16.570312 -0.00390625 15.046875 0.390625 13.296875 0.421875 C 10.265625 0.484375 7.828125 -0.390625 5.984375 -2.203125 C 4.148438 -4.015625 3.203125 -6.390625 3.140625 -9.328125 Z M 3.140625 -9.328125 "/></g></g><g style="fill:rgb(100%,100%,100%);fill-opacity:1;"><g transform="translate(195.173101, 146.333423)"><path style="stroke:none;" d="M 2.859375 -13.609375 C 3.171875 -17.953125 4.738281 -21.398438 7.5625 -23.953125 C 10.382812 -26.503906 13.910156 -27.632812 18.140625 -27.34375 C 20.367188 -27.1875 22.347656 -26.65625 24.078125 -25.75 C 25.816406 -24.84375 27.207031 -23.679688 28.25 -22.265625 C 29.289062 -20.859375 30.050781 -19.265625 30.53125 -17.484375 C 31.019531 -15.703125 31.195312 -13.835938 31.0625 -11.890625 L 30.890625 -9.53125 L 10.4375 -10.96875 C 10.445312 -9.175781 11.019531 -7.671875 12.15625 -6.453125 C 13.289062 -5.242188 14.800781 -4.570312 16.6875 -4.4375 C 18.21875 -4.332031 19.539062 -4.554688 20.65625 -5.109375 C 21.769531 -5.671875 22.570312 -6.410156 23.0625 -7.328125 L 30.4375 -6.8125 C 29.59375 -3.90625 27.894531 -1.675781 25.34375 -0.125 C 22.800781 1.414062 19.671875 2.0625 15.953125 1.8125 C 13.296875 1.625 10.9375 0.835938 8.875 -0.546875 C 6.8125 -1.929688 5.242188 -3.765625 4.171875 -6.046875 C 3.109375 -8.335938 2.671875 -10.859375 2.859375 -13.609375 Z M 10.96875 -16.359375 L 23.703125 -15.46875 C 23.660156 -16.988281 23.09375 -18.28125 22 -19.34375 C 20.914062 -20.40625 19.484375 -21 17.703125 -21.125 C 16.023438 -21.238281 14.554688 -20.828125 13.296875 -19.890625 C 12.035156 -18.953125 11.257812 -17.773438 10.96875 -16.359375 Z M 10.96875 -16.359375 "/></g></g><g style="fill:rgb(100%,100%,100%);fill-opacity:1;"><g transform="translate(225.626315, 148.357992)"><path style="stroke:none;" d="M 4.09375 -13.296875 C 4.789062 -17.609375 6.519531 -20.921875 9.28125 -23.234375 C 12.039062 -25.554688 15.265625 -26.414062 18.953125 -25.8125 C 20.859375 -25.5 22.40625 -24.84375 23.59375 -23.84375 C 24.78125 -22.84375 25.609375 -21.8125 26.078125 -20.75 L 26.515625 -20.671875 L 28.90625 -35.359375 L 36.953125 -34.046875 L 30.59375 4.984375 L 22.59375 3.671875 L 23.109375 0.546875 L 22.671875 0.484375 C 22.378906 0.828125 22.015625 1.15625 21.578125 1.46875 C 21.140625 1.789062 20.582031 2.117188 19.90625 2.453125 C 19.226562 2.785156 18.414062 3.007812 17.46875 3.125 C 16.519531 3.238281 15.515625 3.210938 14.453125 3.046875 C 10.660156 2.421875 7.804688 0.617188 5.890625 -2.359375 C 3.984375 -5.335938 3.382812 -8.984375 4.09375 -13.296875 Z M 12.28125 -12.109375 C 11.9375 -9.972656 12.238281 -8.148438 13.1875 -6.640625 C 14.144531 -5.140625 15.570312 -4.234375 17.46875 -3.921875 C 19.363281 -3.617188 21 -4.046875 22.375 -5.203125 C 23.75 -6.359375 24.601562 -7.972656 24.9375 -10.046875 C 25.289062 -12.203125 24.976562 -14.023438 24 -15.515625 C 23.019531 -17.003906 21.597656 -17.898438 19.734375 -18.203125 C 17.867188 -18.503906 16.242188 -18.085938 14.859375 -16.953125 C 13.484375 -15.828125 12.625 -14.210938 12.28125 -12.109375 Z M 12.28125 -12.109375 "/></g></g><g style="fill:rgb(100%,100%,100%);fill-opacity:1;"><g transform="translate(257.201145, 153.461899)"><path style="stroke:none;" d="M 5.296875 -12.859375 C 6.390625 -17.078125 8.554688 -20.179688 11.796875 -22.171875 C 15.046875 -24.160156 18.722656 -24.625 22.828125 -23.5625 C 24.984375 -23.007812 26.832031 -22.128906 28.375 -20.921875 C 29.914062 -19.722656 31.066406 -18.332031 31.828125 -16.75 C 32.585938 -15.164062 33.046875 -13.457031 33.203125 -11.625 C 33.359375 -9.789062 33.191406 -7.925781 32.703125 -6.03125 L 32.109375 -3.75 L 12.265625 -8.875 C 11.953125 -7.113281 12.238281 -5.535156 13.125 -4.140625 C 14.019531 -2.742188 15.390625 -1.804688 17.234375 -1.328125 C 18.710938 -0.941406 20.046875 -0.921875 21.234375 -1.265625 C 22.429688 -1.617188 23.359375 -2.191406 24.015625 -2.984375 L 31.171875 -1.140625 C 29.816406 1.554688 27.742188 3.4375 24.953125 4.5 C 22.160156 5.5625 18.960938 5.625 15.359375 4.6875 C 12.773438 4.019531 10.597656 2.816406 8.828125 1.078125 C 7.054688 -0.648438 5.851562 -2.738281 5.21875 -5.1875 C 4.582031 -7.632812 4.609375 -10.191406 5.296875 -12.859375 Z M 13.78125 -14.09375 L 26.140625 -10.890625 C 26.359375 -12.398438 26.03125 -13.773438 25.15625 -15.015625 C 24.28125 -16.253906 22.984375 -17.09375 21.265625 -17.53125 C 19.628906 -17.957031 18.101562 -17.820312 16.6875 -17.125 C 15.28125 -16.4375 14.3125 -15.425781 13.78125 -14.09375 Z M 13.78125 -14.09375 "/></g></g><g style="fill:rgb(100%,100%,100%);fill-opacity:1;"><g transform="translate(286.859515, 161.159721)"><path style="stroke:none;" d="M 4.625 -7.4375 L 11.625 -4.984375 C 11.394531 -4.046875 11.566406 -3.207031 12.140625 -2.46875 C 12.722656 -1.726562 13.65625 -1.132812 14.9375 -0.6875 C 16.21875 -0.238281 17.289062 -0.109375 18.15625 -0.296875 C 19.019531 -0.492188 19.582031 -0.960938 19.84375 -1.703125 C 20.039062 -2.265625 19.984375 -2.796875 19.671875 -3.296875 C 19.359375 -3.796875 18.878906 -4.234375 18.234375 -4.609375 C 17.597656 -4.992188 16.863281 -5.414062 16.03125 -5.875 C 15.195312 -6.34375 14.335938 -6.804688 13.453125 -7.265625 C 12.566406 -7.734375 11.738281 -8.300781 10.96875 -8.96875 C 10.207031 -9.644531 9.570312 -10.367188 9.0625 -11.140625 C 8.5625 -11.921875 8.269531 -12.882812 8.1875 -14.03125 C 8.113281 -15.175781 8.3125 -16.421875 8.78125 -17.765625 C 9.601562 -20.117188 11.253906 -21.765625 13.734375 -22.703125 C 16.222656 -23.640625 19.15625 -23.515625 22.53125 -22.328125 C 25.644531 -21.242188 27.925781 -19.632812 29.375 -17.5 C 30.820312 -15.363281 31.160156 -12.925781 30.390625 -10.1875 L 23.71875 -12.53125 C 23.882812 -13.394531 23.703125 -14.1875 23.171875 -14.90625 C 22.640625 -15.632812 21.757812 -16.210938 20.53125 -16.640625 C 19.375 -17.046875 18.367188 -17.15625 17.515625 -16.96875 C 16.671875 -16.789062 16.128906 -16.351562 15.890625 -15.65625 C 15.734375 -15.195312 15.78125 -14.765625 16.03125 -14.359375 C 16.28125 -13.960938 16.671875 -13.585938 17.203125 -13.234375 C 17.742188 -12.878906 18.382812 -12.519531 19.125 -12.15625 C 19.863281 -11.789062 20.628906 -11.398438 21.421875 -10.984375 C 22.210938 -10.566406 23 -10.113281 23.78125 -9.625 C 24.570312 -9.144531 25.285156 -8.570312 25.921875 -7.90625 C 26.554688 -7.238281 27.066406 -6.515625 27.453125 -5.734375 C 27.847656 -4.960938 28.050781 -4.039062 28.0625 -2.96875 C 28.082031 -1.894531 27.875 -0.734375 27.4375 0.515625 C 26.519531 3.117188 24.765625 4.875 22.171875 5.78125 C 19.578125 6.6875 16.457031 6.503906 12.8125 5.234375 C 9.132812 3.941406 6.628906 2.195312 5.296875 0 C 3.972656 -2.195312 3.75 -4.675781 4.625 -7.4375 Z M 4.625 -7.4375 "/></g></g><g style="fill:rgb(100%,100%,100%);fill-opacity:1;"><g transform="translate(312.238052, 170.217679)"><path style="stroke:none;" d="M 4.59375 -2.078125 C 5.0625 -3.203125 5.863281 -3.984375 7 -4.421875 C 8.132812 -4.867188 9.269531 -4.851562 10.40625 -4.375 C 11.625 -3.863281 12.457031 -3.054688 12.90625 -1.953125 C 13.351562 -0.859375 13.335938 0.257812 12.859375 1.40625 C 12.347656 2.601562 11.550781 3.414062 10.46875 3.84375 C 9.394531 4.269531 8.242188 4.222656 7.015625 3.703125 C 5.867188 3.222656 5.050781 2.429688 4.5625 1.328125 C 4.082031 0.234375 4.09375 -0.898438 4.59375 -2.078125 Z M 12.4375 -19.8125 L 17.796875 -32.5625 L 25.484375 -29.328125 L 20.125 -16.578125 L 13.78125 -6.15625 L 9.421875 -7.984375 Z M 12.4375 -19.8125 "/></g></g></g></svg>