<?xml version="1.0" encoding="UTF-8"?>
<svg xmlns="http://www.w3.org/2000/svg" xmlns:xlink="http://www.w3.org/1999/xlink" width="135pt" height="135pt" viewBox="0 0 135 135" version="1.1">
<g id="surface1">
<path style=" stroke:none;fill-rule:nonzero;fill:rgb(100%,68.235294%,69.411765%);fill-opacity:1;" d="M 132.8125 67.5 C 132.8125 103.570312 103.570312 132.8125 67.5 132.8125 C 31.429688 132.8125 2.1875 103.570312 2.1875 67.5 C 2.1875 31.429688 31.429688 2.1875 67.5 2.1875 C 103.570312 2.1875 132.8125 31.429688 132.8125 67.5 Z M 132.8125 67.5 "/>
<path style=" stroke:none;fill-rule:nonzero;fill:rgb(100%,41.176471%,23.137255%);fill-opacity:1;" d="M 104.359375 62.339844 C 104.359375 81.703125 88.664062 97.402344 69.296875 97.402344 C 49.933594 97.402344 34.234375 81.703125 34.234375 62.339844 C 34.234375 42.976562 49.933594 27.277344 69.296875 27.277344 C 88.664062 27.277344 104.359375 42.976562 104.359375 62.339844 Z M 104.359375 62.339844 "/>
<path style=" stroke:none;fill-rule:nonzero;fill:rgb(2.745098%,47.058824%,78.039216%);fill-opacity:1;" d="M 56.011719 94.5 L 56.054688 108.125 L 49.199219 111.472656 L 61.703125 111.472656 L 61.703125 96.621094 Z M 56.011719 94.5 "/>
<path style=" stroke:none;fill-rule:nonzero;fill:rgb(2.745098%,47.058824%,78.039216%);fill-opacity:1;" d="M 81.296875 94.488281 L 81.296875 108.113281 L 88.15625 111.460938 L 75.652344 111.460938 L 75.664062 96.84375 Z M 81.296875 94.488281 "/>
<path style="fill:none;stroke-width:10;stroke-linecap:round;stroke-linejoin:round;stroke:rgb(0%,0%,0%);stroke-opacity:1;stroke-miterlimit:4;" d="M 281.09375 400.46875 C 281.09375 416.96875 265.65625 430.34375 246.65625 430.34375 C 227.625 430.34375 212.21875 417 212.21875 400.46875 " transform="matrix(0.125,0,0,0.125,0,0)"/>
<path style="fill:none;stroke-width:10;stroke-linecap:round;stroke-linejoin:round;stroke:rgb(0%,0%,0%);stroke-opacity:1;stroke-miterlimit:4;" d="M 401.6875 400.46875 C 401.6875 416.96875 386.25 430.34375 367.25 430.34375 C 348.21875 430.34375 332.8125 417 332.8125 400.46875 " transform="matrix(0.125,0,0,0.125,0,0)"/>
<path style="fill:none;stroke-width:11;stroke-linecap:round;stroke-linejoin:round;stroke:rgb(0%,0%,0%);stroke-opacity:1;stroke-miterlimit:4;" d="M 338.25 457 C 338.25 473.5 326.65625 486.875 312.34375 486.875 C 298.03125 486.875 286.4375 473.5 286.4375 457 " transform="matrix(0.125,0,0,0.125,0,0)"/>
<path style=" stroke:none;fill-rule:nonzero;fill:rgb(2.745098%,47.058824%,78.039216%);fill-opacity:1;" d="M 65.5 57.433594 C 65.5 55.367188 62.703125 53.691406 59.25 53.691406 C 55.796875 53.691406 52.996094 55.367188 52.996094 57.433594 C 52.996094 59.5 55.796875 61.175781 59.25 61.175781 C 62.703125 61.175781 65.5 59.5 65.5 57.433594 Z M 65.5 57.433594 "/>
<path style=" stroke:none;fill-rule:nonzero;fill:rgb(2.745098%,47.058824%,78.039216%);fill-opacity:1;" d="M 32.019531 60.832031 C 32.019531 58.953125 29.472656 57.425781 26.328125 57.425781 C 23.1875 57.425781 20.640625 58.953125 20.640625 60.832031 C 20.640625 62.714844 23.1875 64.238281 26.328125 64.238281 C 29.472656 64.238281 32.019531 62.714844 32.019531 60.832031 Z M 32.019531 60.832031 "/>
</g>
</svg>
