<?xml version="1.0" encoding="UTF-8"?>
<svg xmlns="http://www.w3.org/2000/svg" xmlns:xlink="http://www.w3.org/1999/xlink" width="60px" height="px" viewBox="0 0 60 60" version="1.1">
<g id="surface1">
<path style=" stroke:none;fill-rule:nonzero;fill:rgb(100%,41.176471%,23.137255%);fill-opacity:1;" d="M 59.964844 29.984375 C 59.964844 30.472656 59.953125 30.964844 59.929688 31.453125 C 59.90625 31.945312 59.871094 32.433594 59.820312 32.921875 C 59.773438 33.410156 59.714844 33.898438 59.640625 34.382812 C 59.570312 34.867188 59.484375 35.351562 59.390625 35.832031 C 59.292969 36.3125 59.1875 36.792969 59.066406 37.269531 C 58.949219 37.746094 58.816406 38.21875 58.675781 38.6875 C 58.53125 39.15625 58.378906 39.621094 58.214844 40.082031 C 58.046875 40.546875 57.871094 41.003906 57.683594 41.457031 C 57.496094 41.910156 57.296875 42.359375 57.085938 42.800781 C 56.878906 43.246094 56.65625 43.683594 56.425781 44.117188 C 56.195312 44.550781 55.953125 44.976562 55.699219 45.398438 C 55.449219 45.816406 55.1875 46.234375 54.914062 46.640625 C 54.640625 47.046875 54.359375 47.449219 54.066406 47.84375 C 53.773438 48.238281 53.472656 48.625 53.160156 49.003906 C 52.847656 49.382812 52.527344 49.753906 52.199219 50.117188 C 51.871094 50.480469 51.53125 50.835938 51.183594 51.183594 C 50.835938 51.53125 50.480469 51.871094 50.117188 52.199219 C 49.753906 52.527344 49.382812 52.847656 49.003906 53.160156 C 48.625 53.472656 48.238281 53.773438 47.84375 54.066406 C 47.449219 54.359375 47.046875 54.640625 46.640625 54.914062 C 46.234375 55.1875 45.816406 55.449219 45.398438 55.699219 C 44.976562 55.953125 44.550781 56.195312 44.117188 56.425781 C 43.683594 56.65625 43.246094 56.878906 42.800781 57.085938 C 42.359375 57.296875 41.910156 57.496094 41.457031 57.683594 C 41.003906 57.871094 40.546875 58.046875 40.082031 58.214844 C 39.621094 58.378906 39.15625 58.53125 38.6875 58.675781 C 38.21875 58.816406 37.746094 58.949219 37.269531 59.066406 C 36.792969 59.1875 36.3125 59.292969 35.832031 59.390625 C 35.351562 59.484375 34.867188 59.570312 34.382812 59.640625 C 33.898438 59.714844 33.410156 59.773438 32.921875 59.820312 C 32.433594 59.871094 31.945312 59.90625 31.453125 59.929688 C 30.964844 59.953125 30.472656 59.964844 29.984375 59.964844 C 29.492188 59.964844 29.003906 59.953125 28.511719 59.929688 C 28.023438 59.90625 27.53125 59.871094 27.042969 59.820312 C 26.554688 59.773438 26.070312 59.714844 25.582031 59.640625 C 25.097656 59.570312 24.613281 59.484375 24.132812 59.390625 C 23.652344 59.292969 23.175781 59.1875 22.699219 59.066406 C 22.222656 58.949219 21.75 58.816406 21.277344 58.675781 C 20.808594 58.53125 20.34375 58.378906 19.882812 58.214844 C 19.421875 58.046875 18.960938 57.871094 18.507812 57.683594 C 18.054688 57.496094 17.605469 57.296875 17.164062 57.085938 C 16.71875 56.878906 16.28125 56.65625 15.847656 56.425781 C 15.417969 56.195312 14.988281 55.953125 14.570312 55.699219 C 14.148438 55.449219 13.734375 55.1875 13.324219 54.914062 C 12.917969 54.640625 12.515625 54.359375 12.121094 54.066406 C 11.726562 53.773438 11.339844 53.472656 10.960938 53.160156 C 10.582031 52.847656 10.210938 52.527344 9.847656 52.199219 C 9.484375 51.871094 9.128906 51.53125 8.78125 51.183594 C 8.433594 50.835938 8.097656 50.480469 7.765625 50.117188 C 7.4375 49.753906 7.117188 49.382812 6.804688 49.003906 C 6.496094 48.625 6.191406 48.238281 5.902344 47.84375 C 5.609375 47.449219 5.324219 47.046875 5.054688 46.640625 C 4.78125 46.234375 4.519531 45.816406 4.265625 45.398438 C 4.011719 44.976562 3.773438 44.550781 3.539062 44.117188 C 3.308594 43.683594 3.089844 43.246094 2.878906 42.800781 C 2.667969 42.359375 2.46875 41.910156 2.28125 41.457031 C 2.09375 41.003906 1.917969 40.546875 1.753906 40.082031 C 1.585938 39.621094 1.433594 39.15625 1.292969 38.6875 C 1.148438 38.21875 1.019531 37.746094 0.898438 37.269531 C 0.78125 36.792969 0.671875 36.3125 0.574219 35.832031 C 0.480469 35.351562 0.398438 34.867188 0.324219 34.382812 C 0.253906 33.898438 0.191406 33.410156 0.144531 32.921875 C 0.0976562 32.433594 0.0585938 31.945312 0.0351562 31.453125 C 0.0117188 30.964844 0 30.472656 0 29.984375 C 0 29.492188 0.0117188 29.003906 0.0351562 28.511719 C 0.0585938 28.023438 0.0976562 27.53125 0.144531 27.042969 C 0.191406 26.554688 0.253906 26.070312 0.324219 25.582031 C 0.398438 25.097656 0.480469 24.613281 0.574219 24.132812 C 0.671875 23.652344 0.78125 23.175781 0.898438 22.699219 C 1.019531 22.222656 1.148438 21.75 1.292969 21.277344 C 1.433594 20.808594 1.585938 20.34375 1.753906 19.882812 C 1.917969 19.421875 2.09375 18.960938 2.28125 18.507812 C 2.46875 18.054688 2.667969 17.605469 2.878906 17.164062 C 3.089844 16.71875 3.308594 16.28125 3.539062 15.847656 C 3.773438 15.417969 4.011719 14.988281 4.265625 14.570312 C 4.519531 14.148438 4.78125 13.734375 5.054688 13.324219 C 5.324219 12.917969 5.609375 12.515625 5.902344 12.121094 C 6.191406 11.726562 6.496094 11.339844 6.804688 10.960938 C 7.117188 10.582031 7.4375 10.210938 7.765625 9.847656 C 8.097656 9.484375 8.433594 9.128906 8.78125 8.78125 C 9.128906 8.433594 9.484375 8.097656 9.847656 7.765625 C 10.210938 7.4375 10.582031 7.117188 10.960938 6.804688 C 11.339844 6.496094 11.726562 6.191406 12.121094 5.902344 C 12.515625 5.609375 12.917969 5.324219 13.324219 5.054688 C 13.734375 4.78125 14.148438 4.519531 14.570312 4.265625 C 14.988281 4.011719 15.417969 3.773438 15.847656 3.539062 C 16.28125 3.308594 16.71875 3.089844 17.164062 2.878906 C 17.605469 2.667969 18.054688 2.46875 18.507812 2.28125 C 18.960938 2.09375 19.421875 1.917969 19.882812 1.753906 C 20.34375 1.585938 20.808594 1.433594 21.277344 1.292969 C 21.75 1.148438 22.222656 1.019531 22.699219 0.898438 C 23.175781 0.78125 23.652344 0.671875 24.132812 0.574219 C 24.613281 0.480469 25.097656 0.398438 25.582031 0.324219 C 26.070312 0.253906 26.554688 0.191406 27.042969 0.144531 C 27.53125 0.0976562 28.023438 0.0585938 28.511719 0.0351562 C 29.003906 0.0117188 29.492188 0 29.984375 0 C 30.472656 0 30.964844 0.0117188 31.453125 0.0351562 C 31.945312 0.0585938 32.433594 0.0976562 32.921875 0.144531 C 33.410156 0.191406 33.898438 0.253906 34.382812 0.324219 C 34.867188 0.398438 35.351562 0.480469 35.832031 0.574219 C 36.3125 0.671875 36.792969 0.78125 37.269531 0.898438 C 37.746094 1.019531 38.21875 1.148438 38.6875 1.292969 C 39.15625 1.433594 39.621094 1.585938 40.082031 1.753906 C 40.546875 1.917969 41.003906 2.09375 41.457031 2.28125 C 41.910156 2.46875 42.359375 2.667969 42.800781 2.878906 C 43.246094 3.089844 43.683594 3.308594 44.117188 3.539062 C 44.550781 3.773438 44.976562 4.011719 45.398438 4.265625 C 45.816406 4.519531 46.234375 4.78125 46.640625 5.054688 C 47.046875 5.324219 47.449219 5.609375 47.84375 5.902344 C 48.238281 6.191406 48.625 6.496094 49.003906 6.804688 C 49.382812 7.117188 49.753906 7.4375 50.117188 7.765625 C 50.480469 8.097656 50.835938 8.433594 51.183594 8.78125 C 51.53125 9.128906 51.871094 9.484375 52.199219 9.847656 C 52.527344 10.210938 52.847656 10.582031 53.160156 10.960938 C 53.472656 11.339844 53.773438 11.726562 54.066406 12.121094 C 54.359375 12.515625 54.640625 12.917969 54.914062 13.324219 C 55.1875 13.734375 55.449219 14.148438 55.699219 14.570312 C 55.953125 14.988281 56.195312 15.417969 56.425781 15.847656 C 56.65625 16.28125 56.878906 16.71875 57.085938 17.164062 C 57.296875 17.605469 57.496094 18.054688 57.683594 18.507812 C 57.871094 18.960938 58.046875 19.421875 58.214844 19.882812 C 58.378906 20.34375 58.53125 20.808594 58.675781 21.277344 C 58.816406 21.75 58.949219 22.222656 59.066406 22.699219 C 59.1875 23.175781 59.292969 23.652344 59.390625 24.132812 C 59.484375 24.613281 59.570312 25.097656 59.640625 25.582031 C 59.714844 26.070312 59.773438 26.554688 59.820312 27.042969 C 59.871094 27.53125 59.90625 28.023438 59.929688 28.511719 C 59.953125 29.003906 59.964844 29.492188 59.964844 29.984375 Z M 59.964844 29.984375 "/>
<path style="fill:none;stroke-width:5;stroke-linecap:round;stroke-linejoin:miter;stroke:rgb(0%,0%,0%);stroke-opacity:1;stroke-miterlimit:10;" d="M 127.593573 91.20097 C 127.593573 99.467029 119.876146 106.196918 110.36652 106.196918 C 100.856894 106.196918 93.121179 99.503604 93.121179 91.20097 " transform="matrix(0.213599,0,0,0.213599,0.000000719616,0)"/>
<path style="fill:none;stroke-width:5;stroke-linecap:round;stroke-linejoin:miter;stroke:rgb(0%,0%,0%);stroke-opacity:1;stroke-miterlimit:10;" d="M 187.997985 91.20097 C 187.997985 99.467029 180.280558 106.196918 170.770932 106.196918 C 161.261306 106.196918 153.525591 99.503604 153.525591 91.20097 " transform="matrix(0.213599,0,0,0.213599,0.000000719616,0)"/>
<path style="fill:none;stroke-width:5;stroke-linecap:round;stroke-linejoin:miter;stroke:rgb(0%,0%,0%);stroke-opacity:1;stroke-miterlimit:10;" d="M 156.213889 119.473819 C 156.213889 127.739878 150.416675 134.488055 143.211304 134.488055 C 136.005934 134.488055 130.20872 127.776454 130.20872 119.473819 " transform="matrix(0.213599,0,0,0.213599,0.000000719616,0)"/>
<path style=" stroke:none;fill-rule:nonzero;fill:rgb(99.607843%,78.039216%,28.627451%);fill-opacity:1;" d="M 53.648438 28.777344 C 53.648438 28.882812 53.640625 28.988281 53.625 29.09375 C 53.605469 29.195312 53.582031 29.300781 53.546875 29.402344 C 53.511719 29.503906 53.46875 29.605469 53.417969 29.707031 C 53.367188 29.808594 53.308594 29.90625 53.242188 30.003906 C 53.175781 30.097656 53.101562 30.195312 53.019531 30.285156 C 52.9375 30.378906 52.847656 30.46875 52.75 30.554688 C 52.652344 30.644531 52.546875 30.726562 52.4375 30.808594 C 52.324219 30.890625 52.207031 30.964844 52.085938 31.039062 C 51.960938 31.113281 51.832031 31.183594 51.695312 31.25 C 51.558594 31.316406 51.417969 31.378906 51.273438 31.4375 C 51.128906 31.496094 50.976562 31.550781 50.824219 31.601562 C 50.667969 31.648438 50.511719 31.695312 50.347656 31.734375 C 50.1875 31.773438 50.023438 31.808594 49.855469 31.839844 C 49.6875 31.871094 49.519531 31.894531 49.347656 31.917969 C 49.175781 31.9375 49 31.953125 48.828125 31.960938 C 48.652344 31.972656 48.480469 31.976562 48.304688 31.976562 C 48.128906 31.976562 47.953125 31.972656 47.78125 31.960938 C 47.605469 31.953125 47.433594 31.9375 47.261719 31.917969 C 47.089844 31.894531 46.917969 31.871094 46.75 31.839844 C 46.582031 31.808594 46.417969 31.773438 46.257812 31.734375 C 46.09375 31.695312 45.9375 31.648438 45.78125 31.601562 C 45.628906 31.550781 45.480469 31.496094 45.332031 31.4375 C 45.1875 31.378906 45.046875 31.316406 44.910156 31.25 C 44.777344 31.183594 44.648438 31.113281 44.523438 31.039062 C 44.398438 30.964844 44.28125 30.890625 44.171875 30.808594 C 44.058594 30.726562 43.957031 30.644531 43.859375 30.554688 C 43.761719 30.46875 43.671875 30.378906 43.589844 30.285156 C 43.503906 30.195312 43.429688 30.097656 43.363281 30.003906 C 43.296875 29.90625 43.238281 29.808594 43.1875 29.707031 C 43.136719 29.605469 43.09375 29.503906 43.058594 29.402344 C 43.027344 29.300781 43 29.195312 42.984375 29.09375 C 42.964844 28.988281 42.957031 28.882812 42.957031 28.777344 C 42.957031 28.671875 42.964844 28.570312 42.984375 28.464844 C 43 28.359375 43.027344 28.257812 43.058594 28.152344 C 43.09375 28.050781 43.136719 27.949219 43.1875 27.847656 C 43.238281 27.75 43.296875 27.652344 43.363281 27.554688 C 43.429688 27.457031 43.503906 27.363281 43.589844 27.269531 C 43.671875 27.175781 43.761719 27.085938 43.859375 27 C 43.957031 26.914062 44.058594 26.828125 44.171875 26.75 C 44.28125 26.667969 44.398438 26.589844 44.523438 26.515625 C 44.648438 26.441406 44.777344 26.371094 44.910156 26.304688 C 45.046875 26.238281 45.1875 26.175781 45.332031 26.117188 C 45.480469 26.058594 45.628906 26.003906 45.78125 25.957031 C 45.9375 25.90625 46.09375 25.863281 46.257812 25.820312 C 46.417969 25.78125 46.582031 25.746094 46.75 25.714844 C 46.917969 25.6875 47.089844 25.660156 47.261719 25.640625 C 47.433594 25.621094 47.605469 25.605469 47.78125 25.59375 C 47.953125 25.582031 48.128906 25.578125 48.304688 25.578125 C 48.480469 25.578125 48.652344 25.582031 48.828125 25.59375 C 49 25.605469 49.175781 25.621094 49.347656 25.640625 C 49.519531 25.660156 49.6875 25.6875 49.855469 25.714844 C 50.023438 25.746094 50.1875 25.78125 50.347656 25.820312 C 50.511719 25.863281 50.667969 25.90625 50.824219 25.957031 C 50.976562 26.003906 51.128906 26.058594 51.273438 26.117188 C 51.417969 26.175781 51.558594 26.238281 51.695312 26.304688 C 51.832031 26.371094 51.960938 26.441406 52.085938 26.515625 C 52.207031 26.589844 52.324219 26.667969 52.4375 26.75 C 52.546875 26.828125 52.652344 26.914062 52.75 27 C 52.847656 27.085938 52.9375 27.175781 53.019531 27.269531 C 53.101562 27.363281 53.175781 27.457031 53.242188 27.554688 C 53.308594 27.652344 53.367188 27.75 53.417969 27.847656 C 53.46875 27.949219 53.511719 28.050781 53.546875 28.152344 C 53.582031 28.257812 53.605469 28.359375 53.625 28.464844 C 53.640625 28.570312 53.648438 28.671875 53.648438 28.777344 Z M 53.648438 28.777344 "/>
<path style=" stroke:none;fill-rule:nonzero;fill:rgb(99.607843%,78.039216%,28.627451%);fill-opacity:1;" d="M 17.757812 28.695312 C 17.757812 28.789062 17.75 28.886719 17.734375 28.980469 C 17.71875 29.074219 17.695312 29.167969 17.664062 29.261719 C 17.632812 29.355469 17.59375 29.449219 17.546875 29.539062 C 17.5 29.632812 17.445312 29.722656 17.386719 29.808594 C 17.324219 29.898438 17.257812 29.984375 17.183594 30.066406 C 17.105469 30.152344 17.023438 30.234375 16.9375 30.3125 C 16.847656 30.390625 16.753906 30.46875 16.652344 30.542969 C 16.550781 30.617188 16.445312 30.6875 16.332031 30.753906 C 16.21875 30.820312 16.101562 30.886719 15.976562 30.945312 C 15.855469 31.007812 15.726562 31.0625 15.59375 31.117188 C 15.460938 31.167969 15.324219 31.21875 15.183594 31.261719 C 15.042969 31.308594 14.898438 31.347656 14.753906 31.382812 C 14.605469 31.421875 14.457031 31.453125 14.304688 31.480469 C 14.152344 31.507812 13.996094 31.53125 13.839844 31.550781 C 13.683594 31.570312 13.527344 31.582031 13.367188 31.59375 C 13.210938 31.601562 13.050781 31.605469 12.890625 31.605469 C 12.730469 31.605469 12.574219 31.601562 12.414062 31.59375 C 12.253906 31.582031 12.097656 31.570312 11.941406 31.550781 C 11.785156 31.53125 11.628906 31.507812 11.476562 31.480469 C 11.324219 31.453125 11.175781 31.421875 11.027344 31.382812 C 10.882812 31.347656 10.738281 31.308594 10.597656 31.261719 C 10.457031 31.21875 10.320312 31.167969 10.1875 31.117188 C 10.054688 31.0625 9.925781 31.007812 9.804688 30.945312 C 9.679688 30.886719 9.5625 30.820312 9.449219 30.753906 C 9.335938 30.6875 9.230469 30.617188 9.128906 30.542969 C 9.027344 30.46875 8.933594 30.390625 8.84375 30.3125 C 8.757812 30.234375 8.675781 30.152344 8.597656 30.066406 C 8.523438 29.984375 8.457031 29.898438 8.394531 29.808594 C 8.335938 29.722656 8.28125 29.632812 8.234375 29.539062 C 8.1875 29.449219 8.148438 29.355469 8.117188 29.261719 C 8.085938 29.167969 8.0625 29.074219 8.046875 28.980469 C 8.03125 28.886719 8.023438 28.789062 8.023438 28.695312 C 8.023438 28.601562 8.03125 28.503906 8.046875 28.410156 C 8.0625 28.316406 8.085938 28.21875 8.117188 28.125 C 8.148438 28.03125 8.1875 27.941406 8.234375 27.847656 C 8.28125 27.757812 8.335938 27.667969 8.394531 27.582031 C 8.457031 27.492188 8.523438 27.40625 8.597656 27.324219 C 8.675781 27.238281 8.757812 27.15625 8.84375 27.078125 C 8.933594 27 9.027344 26.921875 9.128906 26.847656 C 9.230469 26.773438 9.335938 26.703125 9.449219 26.636719 C 9.5625 26.570312 9.679688 26.503906 9.804688 26.445312 C 9.925781 26.382812 10.054688 26.328125 10.1875 26.273438 C 10.320312 26.222656 10.457031 26.171875 10.597656 26.128906 C 10.738281 26.082031 10.882812 26.042969 11.027344 26.003906 C 11.175781 25.96875 11.324219 25.9375 11.476562 25.910156 C 11.628906 25.882812 11.785156 25.859375 11.941406 25.839844 C 12.097656 25.820312 12.253906 25.808594 12.414062 25.796875 C 12.574219 25.789062 12.730469 25.785156 12.890625 25.785156 C 13.050781 25.785156 13.210938 25.789062 13.367188 25.796875 C 13.527344 25.808594 13.683594 25.820312 13.839844 25.839844 C 13.996094 25.859375 14.152344 25.882812 14.304688 25.910156 C 14.457031 25.9375 14.605469 25.96875 14.753906 26.003906 C 14.898438 26.042969 15.042969 26.082031 15.183594 26.128906 C 15.324219 26.171875 15.460938 26.222656 15.59375 26.273438 C 15.726562 26.328125 15.855469 26.382812 15.976562 26.445312 C 16.101562 26.503906 16.21875 26.570312 16.332031 26.636719 C 16.445312 26.703125 16.550781 26.773438 16.652344 26.847656 C 16.753906 26.921875 16.847656 27 16.9375 27.078125 C 17.023438 27.15625 17.105469 27.238281 17.183594 27.324219 C 17.257812 27.40625 17.324219 27.492188 17.386719 27.582031 C 17.445312 27.667969 17.5 27.757812 17.546875 27.847656 C 17.59375 27.941406 17.632812 28.03125 17.664062 28.125 C 17.695312 28.21875 17.71875 28.316406 17.734375 28.410156 C 17.75 28.503906 17.757812 28.601562 17.757812 28.695312 Z M 17.757812 28.695312 "/>
</g>
</svg>
