<?xml version="1.0" encoding="UTF-8"?>
<svg xmlns="http://www.w3.org/2000/svg" xmlns:xlink="http://www.w3.org/1999/xlink" width="135pt" height="135pt" viewBox="0 0 135 135" version="1.1">
<g id="surface1">
<path style=" stroke:none;fill-rule:nonzero;fill:rgb(2.745098%,47.058824%,78.039216%);fill-opacity:1;" d="M 132.8125 67.5 C 132.8125 103.570312 103.570312 132.8125 67.5 132.8125 C 31.429688 132.8125 2.1875 103.570312 2.1875 67.5 C 2.1875 31.429688 31.429688 2.1875 67.5 2.1875 C 103.570312 2.1875 132.8125 31.429688 132.8125 67.5 Z M 132.8125 67.5 "/>
<path style=" stroke:none;fill-rule:nonzero;fill:rgb(99.607843%,78.039216%,28.627451%);fill-opacity:1;" d="M 82.148438 23.75 L 44.53125 33.117188 L 33.839844 70.378906 L 60.761719 98.269531 L 98.375 88.898438 L 109.066406 51.640625 Z M 82.148438 23.75 "/>
<path style=" stroke:none;fill-rule:nonzero;fill:rgb(100%,56.078431%,61.568627%);fill-opacity:1;" d="M 65.628906 93.894531 L 65.582031 105.882812 L 58.617188 108.738281 L 71.402344 111.25 L 73.121094 94.695312 Z M 65.628906 93.894531 "/>
<path style=" stroke:none;fill-rule:nonzero;fill:rgb(100%,56.078431%,61.568627%);fill-opacity:1;" d="M 90.523438 86.699219 L 97.15625 98.957031 L 104.019531 99.402344 L 94.730469 106.492188 L 85.480469 91.777344 Z M 90.523438 86.699219 "/>
<path style="fill:none;stroke-width:10;stroke-linecap:butt;stroke-linejoin:round;stroke:rgb(0%,0%,0%);stroke-opacity:1;stroke-miterlimit:4;" d="M 317 404.125 C 319.1875 417.5625 311.875 429.9375 300.6875 431.78125 C 289.46875 433.625 278.59375 424.21875 276.375 410.78125 " transform="matrix(0.125,0,0,0.125,0,0)"/>
<path style="fill:none;stroke-width:10;stroke-linecap:butt;stroke-linejoin:round;stroke:rgb(0%,0%,0%);stroke-opacity:1;stroke-miterlimit:4;" d="M 412.53125 388.5 C 414.71875 401.9375 407.40625 414.3125 396.21875 416.15625 C 385 417.96875 374.125 408.59375 371.90625 395.15625 " transform="matrix(0.125,0,0,0.125,0,0)"/>
<path style=" stroke:none;fill-rule:nonzero;fill:rgb(100%,56.078431%,61.568627%);fill-opacity:1;" d="M 69.433594 52.8125 C 69.195312 51.351562 67.398438 50.425781 65.417969 50.75 C 63.4375 51.074219 62.027344 52.523438 62.265625 53.988281 C 62.503906 55.449219 64.304688 56.371094 66.285156 56.046875 C 68.265625 55.722656 69.675781 54.277344 69.433594 52.8125 Z M 69.433594 52.8125 "/>
<path style=" stroke:none;fill-rule:nonzero;fill:rgb(100%,56.078431%,61.568627%);fill-opacity:1;" d="M 33.125 60.460938 C 32.882812 59 31.085938 58.074219 29.105469 58.398438 C 27.125 58.722656 25.714844 60.171875 25.953125 61.636719 C 26.195312 63.097656 27.992188 64.019531 29.972656 63.695312 C 31.953125 63.371094 33.363281 61.925781 33.125 60.460938 Z M 33.125 60.460938 "/>
<path style="fill:none;stroke-width:8;stroke-linecap:round;stroke-linejoin:round;stroke:rgb(0%,0%,0%);stroke-opacity:1;stroke-miterlimit:4;" d="M 336.40625 505.875 L 363.46875 502.65625 C 386.1875 499.9375 410.34375 495.8125 432.3125 489.4375 L 454.25 482.125 " transform="matrix(0.125,0,0,0.125,0,0)"/>
<path style="fill:none;stroke-width:8;stroke-linecap:round;stroke-linejoin:round;stroke:rgb(0%,0%,0%);stroke-opacity:1;stroke-miterlimit:4;" d="M 469.3125 487.15625 C 459.75 487.125 452 479.375 452 469.8125 " transform="matrix(0.125,0,0,0.125,0,0)"/>
</g>
</svg>
