<?xml version="1.0" encoding="UTF-8"?>
<svg xmlns="http://www.w3.org/2000/svg" xmlns:xlink="http://www.w3.org/1999/xlink" width="40px" height="40px" viewBox="0 0 40 40" version="1.1">
<defs>
<clipPath id="clip1">
  <path d="M 10.722656 10.722656 L 29.269531 10.722656 L 29.269531 29.269531 L 10.722656 29.269531 Z M 10.722656 10.722656 "/>
</clipPath>
</defs>
<g id="surface1">
<g clip-path="url(#clip1)" clip-rule="nonzero">
<path style=" stroke:none;fill-rule:nonzero;fill:rgb(100%,100%,100%);fill-opacity:1;" d="M 29.285156 20.003906 C 29.285156 19.3125 28.789062 18.578125 28.175781 18.359375 C 27.5625 18.144531 26.96875 17.613281 26.792969 17.191406 C 26.621094 16.773438 26.667969 15.976562 26.945312 15.386719 C 27.226562 14.800781 27.058594 13.925781 26.570312 13.4375 C 26.082031 12.949219 25.207031 12.78125 24.621094 13.0625 C 24.03125 13.339844 23.234375 13.386719 22.816406 13.214844 C 22.398438 13.039062 21.867188 12.445312 21.648438 11.832031 C 21.429688 11.21875 20.695312 10.722656 20.003906 10.722656 C 19.3125 10.722656 18.578125 11.21875 18.359375 11.832031 C 18.140625 12.445312 17.609375 13.039062 17.191406 13.214844 C 16.773438 13.386719 15.976562 13.339844 15.386719 13.0625 C 14.800781 12.78125 13.925781 12.949219 13.4375 13.4375 C 12.949219 13.925781 12.78125 14.800781 13.0625 15.386719 C 13.339844 15.976562 13.386719 16.773438 13.210938 17.191406 C 13.039062 17.609375 12.445312 18.144531 11.832031 18.359375 C 11.21875 18.578125 10.722656 19.3125 10.722656 20.003906 C 10.722656 20.695312 11.21875 21.429688 11.832031 21.648438 C 12.445312 21.867188 13.039062 22.398438 13.210938 22.816406 C 13.386719 23.234375 13.339844 24.03125 13.0625 24.621094 C 12.78125 25.207031 12.949219 26.082031 13.4375 26.570312 C 13.925781 27.058594 14.800781 27.226562 15.386719 26.945312 C 15.976562 26.667969 16.773438 26.621094 17.191406 26.796875 C 17.609375 26.96875 18.140625 27.566406 18.359375 28.179688 C 18.578125 28.789062 19.3125 29.285156 20.003906 29.285156 C 20.695312 29.285156 21.429688 28.789062 21.648438 28.179688 C 21.867188 27.566406 22.398438 26.96875 22.816406 26.796875 C 23.234375 26.621094 24.03125 26.667969 24.621094 26.949219 C 25.207031 27.226562 26.082031 27.058594 26.570312 26.570312 C 27.058594 26.082031 27.226562 25.207031 26.945312 24.621094 C 26.667969 24.03125 26.621094 23.234375 26.792969 22.816406 C 26.96875 22.398438 27.5625 21.867188 28.175781 21.648438 C 28.789062 21.429688 29.285156 20.695312 29.285156 20.003906 Z M 20.003906 23.410156 C 18.121094 23.410156 16.597656 21.886719 16.597656 20.007812 C 16.597656 18.125 18.121094 16.601562 20.003906 16.601562 C 21.882812 16.601562 23.40625 18.125 23.40625 20.007812 C 23.40625 21.886719 21.882812 23.410156 20.003906 23.410156 Z M 20.003906 23.410156 "/>
</g>
</g>
</svg>
