<?xml version="1.0" encoding="UTF-8"?>
<svg xmlns="http://www.w3.org/2000/svg" xmlns:xlink="http://www.w3.org/1999/xlink" width="135pt" height="135pt" viewBox="0 0 135 135" version="1.1">
<g id="surface1">
<path style=" stroke:none;fill-rule:nonzero;fill:rgb(99.215686%,38.431373%,14.901961%);fill-opacity:1;" d="M 132.8125 67.5 C 132.8125 103.570312 103.570312 132.8125 67.5 132.8125 C 31.429688 132.8125 2.1875 103.570312 2.1875 67.5 C 2.1875 31.429688 31.429688 2.1875 67.5 2.1875 C 103.570312 2.1875 132.8125 31.429688 132.8125 67.5 Z M 132.8125 67.5 "/>
<path style=" stroke:none;fill-rule:nonzero;fill:rgb(0.392157%,60.392157%,33.72549%);fill-opacity:1;" d="M 60.375 88.375 L 60.425781 103.628906 L 52.75 107.375 L 66.746094 107.375 L 66.75 90.75 Z M 60.375 88.375 "/>
<path style=" stroke:none;fill-rule:nonzero;fill:rgb(0.392157%,60.392157%,33.72549%);fill-opacity:1;" d="M 85.550781 81.941406 L 93.972656 94.660156 L 102.441406 93.546875 L 90.769531 101.269531 L 80.625 86 Z M 85.550781 81.941406 "/>
<path style=" stroke:none;fill-rule:nonzero;fill:rgb(99.607843%,78.039216%,28.627451%);fill-opacity:1;" d="M 99.535156 90.601562 L 73.554688 84.253906 L 53.589844 102.046875 L 51.609375 75.390625 L 28.515625 61.917969 L 53.269531 51.789062 L 58.964844 25.671875 L 76.242188 46.066406 L 102.855469 43.398438 L 88.78125 66.132812 Z M 99.535156 90.601562 "/>
<path style="fill:none;stroke-width:8;stroke-linecap:round;stroke-linejoin:round;stroke:rgb(0%,0%,0%);stroke-opacity:1;stroke-miterlimit:4;" d="M 566.25 464 C 556.1875 466.90625 545.65625 461.09375 542.75 451 " transform="matrix(0.125,0,0,0.125,0,0)"/>
<path style=" stroke:none;fill-rule:nonzero;fill:rgb(0.392157%,60.392157%,33.72549%);fill-opacity:1;" d="M 81.8125 49.503906 C 81.550781 47.902344 79.582031 46.894531 77.414062 47.25 C 75.246094 47.601562 73.703125 49.1875 73.964844 50.789062 C 74.226562 52.390625 76.195312 53.402344 78.363281 53.046875 C 80.53125 52.691406 82.074219 51.105469 81.8125 49.503906 Z M 81.8125 49.503906 "/>
<path style=" stroke:none;fill-rule:nonzero;fill:rgb(0.392157%,60.392157%,33.72549%);fill-opacity:1;" d="M 47.0625 55.25 C 46.800781 53.648438 44.828125 52.640625 42.664062 52.996094 C 40.496094 53.347656 38.953125 54.933594 39.214844 56.535156 C 39.476562 58.136719 41.445312 59.148438 43.613281 58.792969 C 45.78125 58.4375 47.324219 56.851562 47.0625 55.25 Z M 47.0625 55.25 "/>
<path style="fill:none;stroke-width:10;stroke-linecap:round;stroke-linejoin:round;stroke:rgb(0%,0%,0%);stroke-opacity:1;stroke-miterlimit:4;" d="M 418.9375 367.6875 C 421.9375 385.9375 411.9375 402.75 396.6875 405.25 C 381.4375 407.75 366.59375 395 363.625 376.75 " transform="matrix(0.125,0,0,0.125,0,0)"/>
<path style="fill:none;stroke-width:10;stroke-linecap:round;stroke-linejoin:round;stroke:rgb(0%,0%,0%);stroke-opacity:1;stroke-miterlimit:4;" d="M 538.71875 345.3125 C 543.5 363.1875 535.25 380.90625 520.3125 384.90625 C 505.34375 388.90625 489.375 377.65625 484.59375 359.8125 " transform="matrix(0.125,0,0,0.125,0,0)"/>
<path style="fill:none;stroke-width:11;stroke-linecap:round;stroke-linejoin:round;stroke:rgb(0%,0%,0%);stroke-opacity:1;stroke-miterlimit:4;" d="M 549 463.46875 C 549 485.15625 520.125 502.71875 484.53125 502.71875 " transform="matrix(0.125,0,0,0.125,0,0)"/>
</g>
</svg>
