<?xml version="1.0" encoding="UTF-8"?><svg xmlns="http://www.w3.org/2000/svg" xmlns:xlink="http://www.w3.org/1999/xlink" width="300pt" zoomAndPan="magnify" viewBox="0 0 300 143.999998" height="143.999998pt" preserveAspectRatio="xMidYMid meet" version="1.2"><defs><g/></defs><g xml:id="surface1" id="surface1"><g style="fill:rgb(99.609375%,38.038635%,11.369324%);fill-opacity:1;"><g transform="translate(0.0478444, 105.28728)"><path style="stroke:none;" d="M 6.640625 -48.8125 C 6.640625 -51.269531 7.476562 -53.296875 9.15625 -54.890625 C 10.84375 -56.492188 12.90625 -57.296875 15.34375 -57.296875 C 17.90625 -57.296875 19.992188 -56.503906 21.609375 -54.921875 C 23.222656 -53.347656 24.03125 -51.3125 24.03125 -48.8125 C 24.03125 -46.375 23.210938 -44.347656 21.578125 -42.734375 C 19.953125 -41.117188 17.875 -40.3125 15.34375 -40.3125 C 12.9375 -40.3125 10.882812 -41.128906 9.1875 -42.765625 C 7.488281 -44.398438 6.640625 -46.414062 6.640625 -48.8125 Z M 7.34375 -11.140625 L 10.84375 -34.578125 L 20.03125 -34.578125 L 23.53125 -11.140625 L 23.53125 15.640625 L 7.34375 15.640625 Z M 7.34375 -11.140625 "/></g></g><g style="fill:rgb(99.21875%,66.668701%,66.268921%);fill-opacity:1;"><g transform="translate(30.71444, 105.28728)"><path style="stroke:none;" d="M 7.046875 0 L 7.046875 -71.640625 L 23.234375 -71.640625 L 23.234375 -43.90625 L 51.75 -43.90625 L 51.75 -71.640625 L 68.046875 -71.640625 L 68.046875 0 L 51.75 0 L 51.75 -28.328125 L 23.234375 -28.328125 L 23.234375 0 Z M 7.046875 0 "/></g></g><g style="fill:rgb(99.609375%,38.038635%,11.369324%);fill-opacity:1;"><g transform="translate(105.698494, 105.28728)"><path style="stroke:none;" d="M 3.703125 -27.03125 C 3.703125 -30.988281 4.40625 -34.695312 5.8125 -38.15625 C 7.226562 -41.625 9.1875 -44.625 11.6875 -47.15625 C 14.1875 -49.6875 17.257812 -51.6875 20.90625 -53.15625 C 24.550781 -54.625 28.523438 -55.359375 32.828125 -55.359375 C 41.347656 -55.359375 48.320312 -52.648438 53.75 -47.234375 C 59.175781 -41.816406 61.890625 -35.082031 61.890625 -27.03125 C 61.890625 -23.0625 61.179688 -19.335938 59.765625 -15.859375 C 58.359375 -12.378906 56.390625 -9.375 53.859375 -6.84375 C 51.328125 -4.3125 48.234375 -2.3125 44.578125 -0.84375 C 40.929688 0.613281 36.976562 1.34375 32.71875 1.34375 C 27.09375 1.34375 22.054688 0.0859375 17.609375 -2.421875 C 13.160156 -4.929688 9.726562 -8.332031 7.3125 -12.625 C 4.90625 -16.925781 3.703125 -21.726562 3.703125 -27.03125 Z M 19.734375 -27.03125 C 19.734375 -22.894531 20.957031 -19.519531 23.40625 -16.90625 C 25.851562 -14.289062 28.957031 -12.984375 32.71875 -12.984375 C 36.519531 -12.984375 39.660156 -14.296875 42.140625 -16.921875 C 44.617188 -19.554688 45.859375 -22.921875 45.859375 -27.015625 C 45.859375 -31.117188 44.617188 -34.476562 42.140625 -37.09375 C 39.660156 -39.707031 36.519531 -41.015625 32.71875 -41.015625 C 28.957031 -41.015625 25.851562 -39.707031 23.40625 -37.09375 C 20.957031 -34.476562 19.734375 -31.125 19.734375 -27.03125 Z M 19.734375 -27.03125 "/></g></g><g style="fill:rgb(99.21875%,66.668701%,66.268921%);fill-opacity:1;"><g transform="translate(171.241764, 105.28728)"><path style="stroke:none;" d="M 6.75 -16.984375 L 6.75 -76.734375 L 22.625 -76.734375 L 22.625 -18.828125 C 22.625 -15.566406 24.125 -13.9375 27.125 -13.9375 L 29.078125 -13.9375 L 29.078125 0 L 23.625 0 C 18.269531 0 14.117188 -1.5 11.171875 -4.5 C 8.222656 -7.5 6.75 -11.660156 6.75 -16.984375 Z M 6.75 -16.984375 "/></g></g><g style="fill:rgb(99.609375%,38.038635%,11.369324%);fill-opacity:1;"><g transform="translate(204.252609, 105.28728)"><path style="stroke:none;" d="M 3.703125 -26.734375 C 3.703125 -35.222656 5.972656 -42.113281 10.515625 -47.40625 C 15.054688 -52.707031 20.957031 -55.359375 28.21875 -55.359375 C 31.988281 -55.359375 35.160156 -54.582031 37.734375 -53.03125 C 40.316406 -51.476562 42.226562 -49.753906 43.46875 -47.859375 L 44.3125 -47.859375 L 44.3125 -54 L 60.15625 -54 L 60.15625 0 L 44.40625 0 L 44.40625 -6.140625 L 43.5625 -6.140625 C 43.09375 -5.378906 42.492188 -4.628906 41.765625 -3.890625 C 41.035156 -3.160156 40.078125 -2.367188 38.890625 -1.515625 C 37.710938 -0.671875 36.226562 0.015625 34.4375 0.546875 C 32.65625 1.078125 30.71875 1.34375 28.625 1.34375 C 21.164062 1.34375 15.144531 -1.21875 10.5625 -6.34375 C 5.988281 -11.46875 3.703125 -18.265625 3.703125 -26.734375 Z M 19.734375 -27.03125 C 19.734375 -22.832031 20.878906 -19.441406 23.171875 -16.859375 C 25.472656 -14.273438 28.488281 -12.984375 32.21875 -12.984375 C 35.945312 -12.984375 38.941406 -14.304688 41.203125 -16.953125 C 43.472656 -19.609375 44.609375 -22.96875 44.609375 -27.03125 C 44.609375 -31.257812 43.441406 -34.644531 41.109375 -37.1875 C 38.785156 -39.738281 35.789062 -41.015625 32.125 -41.015625 C 28.457031 -41.015625 25.472656 -39.710938 23.171875 -37.109375 C 20.878906 -34.515625 19.734375 -31.15625 19.734375 -27.03125 Z M 19.734375 -27.03125 "/></g></g><g style="fill:rgb(99.21875%,66.668701%,66.268921%);fill-opacity:1;"><g transform="translate(269.285567, 105.28728)"><path style="stroke:none;" d="M 6.640625 -7.140625 C 6.640625 -9.535156 7.488281 -11.550781 9.1875 -13.1875 C 10.882812 -14.820312 12.9375 -15.640625 15.34375 -15.640625 C 17.90625 -15.640625 19.992188 -14.832031 21.609375 -13.21875 C 23.222656 -11.601562 24.03125 -9.578125 24.03125 -7.140625 C 24.03125 -4.640625 23.226562 -2.597656 21.625 -1.015625 C 20.03125 0.554688 17.9375 1.34375 15.34375 1.34375 C 12.90625 1.34375 10.84375 0.546875 9.15625 -1.046875 C 7.476562 -2.648438 6.640625 -4.679688 6.640625 -7.140625 Z M 7.34375 -44.8125 L 7.34375 -71.640625 L 23.53125 -71.640625 L 23.53125 -44.8125 L 20.03125 -21.375 L 10.84375 -21.375 Z M 7.34375 -44.8125 "/></g></g></g></svg>