<?xml version="1.0" encoding="UTF-8"?>
<svg xmlns="http://www.w3.org/2000/svg" xmlns:xlink="http://www.w3.org/1999/xlink" width="261pt" height="100pt" viewBox="0 0 261 100" version="1.1">
<g id="surface1">
<path style=" stroke:none;fill-rule:nonzero;fill:rgb(100%,41.176471%,23.137255%);fill-opacity:1;" d="M 31.011719 16.667969 C 30.347656 16.667969 29.6875 16.71875 29.039062 16.820312 C 28.386719 16.925781 27.753906 17.078125 27.140625 17.28125 C 26.527344 17.484375 25.945312 17.734375 25.394531 18.027344 C 24.839844 18.320312 24.328125 18.65625 23.859375 19.03125 C 23.390625 19.40625 22.96875 19.8125 22.601562 20.253906 C 22.234375 20.695312 21.921875 21.160156 21.667969 21.648438 C 21.414062 22.140625 21.222656 22.644531 21.089844 23.164062 C 20.960938 23.683594 20.898438 24.210938 20.898438 24.738281 C 20.898438 25.269531 20.960938 25.792969 21.089844 26.316406 C 21.222656 26.832031 21.414062 27.339844 21.667969 27.828125 C 21.921875 28.316406 22.234375 28.785156 22.601562 29.222656 C 22.96875 29.664062 23.390625 30.074219 23.859375 30.445312 C 24.328125 30.824219 24.839844 31.15625 25.394531 31.449219 C 25.945312 31.746094 26.527344 31.996094 27.140625 32.195312 C 27.753906 32.398438 28.386719 32.554688 29.039062 32.65625 C 29.6875 32.761719 30.347656 32.8125 31.011719 32.8125 C 31.675781 32.8125 32.332031 32.761719 32.984375 32.65625 C 33.632812 32.554688 34.269531 32.398438 34.882812 32.195312 C 35.496094 31.996094 36.078125 31.746094 36.632812 31.449219 C 37.183594 31.15625 37.691406 30.824219 38.164062 30.445312 C 38.632812 30.074219 39.050781 29.664062 39.421875 29.222656 C 39.789062 28.785156 40.101562 28.316406 40.355469 27.828125 C 40.609375 27.339844 40.800781 26.832031 40.929688 26.316406 C 41.058594 25.792969 41.125 25.269531 41.125 24.738281 C 41.125 24.210938 41.058594 23.683594 40.929688 23.164062 C 40.800781 22.644531 40.609375 22.140625 40.355469 21.648438 C 40.101562 21.160156 39.789062 20.695312 39.421875 20.253906 C 39.050781 19.8125 38.632812 19.40625 38.164062 19.03125 C 37.691406 18.65625 37.183594 18.320312 36.632812 18.027344 C 36.078125 17.734375 35.496094 17.484375 34.882812 17.28125 C 34.269531 17.078125 33.632812 16.925781 32.984375 16.820312 C 32.332031 16.71875 31.675781 16.667969 31.011719 16.667969 Z M 31.011719 16.667969 "/>
<path style=" stroke:none;fill-rule:nonzero;fill:rgb(100%,41.176471%,23.137255%);fill-opacity:1;" d="M 209.3125 80.359375 L 16.480469 80.359375 C 14.421875 80.359375 12.746094 79.015625 12.746094 77.367188 L 12.746094 22.414062 C 12.746094 20.765625 14.421875 19.421875 16.480469 19.421875 L 209.3125 19.421875 C 211.371094 19.421875 213.046875 20.765625 213.046875 22.414062 L 213.046875 77.367188 C 213.046875 79.015625 211.371094 80.359375 209.3125 80.359375 Z M 209.3125 80.359375 "/>
<path style=" stroke:none;fill-rule:nonzero;fill:rgb(100%,41.176471%,23.137255%);fill-opacity:1;" d="M 22.851562 69.824219 C 22.1875 69.824219 21.53125 69.875 20.878906 69.980469 C 20.226562 70.082031 19.59375 70.238281 18.984375 70.4375 C 18.367188 70.640625 17.789062 70.890625 17.234375 71.183594 C 16.683594 71.480469 16.167969 71.8125 15.699219 72.1875 C 15.230469 72.5625 14.8125 72.972656 14.441406 73.410156 C 14.074219 73.851562 13.761719 74.316406 13.507812 74.808594 C 13.253906 75.296875 13.0625 75.804688 12.933594 76.320312 C 12.804688 76.84375 12.738281 77.367188 12.738281 77.898438 C 12.738281 78.425781 12.804688 78.953125 12.933594 79.46875 C 13.0625 79.992188 13.253906 80.496094 13.507812 80.988281 C 13.761719 81.476562 14.074219 81.941406 14.441406 82.382812 C 14.8125 82.824219 15.230469 83.230469 15.699219 83.605469 C 16.167969 83.980469 16.683594 84.316406 17.234375 84.609375 C 17.789062 84.902344 18.367188 85.152344 18.984375 85.355469 C 19.59375 85.558594 20.226562 85.710938 20.878906 85.816406 C 21.53125 85.917969 22.1875 85.96875 22.851562 85.96875 C 23.515625 85.96875 24.171875 85.917969 24.824219 85.816406 C 25.476562 85.710938 26.109375 85.558594 26.722656 85.355469 C 27.335938 85.152344 27.917969 84.902344 28.472656 84.609375 C 29.023438 84.316406 29.535156 83.980469 30.003906 83.605469 C 30.472656 83.230469 30.890625 82.824219 31.261719 82.382812 C 31.628906 81.941406 31.941406 81.476562 32.195312 80.988281 C 32.453125 80.496094 32.640625 79.992188 32.769531 79.46875 C 32.898438 78.953125 32.964844 78.425781 32.964844 77.898438 C 32.964844 77.367188 32.898438 76.84375 32.769531 76.320312 C 32.640625 75.804688 32.453125 75.296875 32.195312 74.808594 C 31.941406 74.316406 31.628906 73.851562 31.261719 73.410156 C 30.890625 72.972656 30.472656 72.5625 30.003906 72.1875 C 29.535156 71.8125 29.023438 71.480469 28.472656 71.183594 C 27.917969 70.890625 27.335938 70.640625 26.722656 70.4375 C 26.109375 70.238281 25.476562 70.082031 24.824219 69.980469 C 24.171875 69.875 23.515625 69.824219 22.851562 69.824219 Z M 22.851562 69.824219 "/>
<path style=" stroke:none;fill-rule:nonzero;fill:rgb(100%,41.176471%,23.137255%);fill-opacity:1;" d="M 240.207031 69.824219 C 239.546875 69.824219 238.886719 69.875 238.234375 69.980469 C 237.585938 70.082031 236.953125 70.238281 236.335938 70.4375 C 235.726562 70.640625 235.140625 70.890625 234.589844 71.183594 C 234.035156 71.480469 233.527344 71.8125 233.058594 72.1875 C 232.589844 72.5625 232.167969 72.972656 231.800781 73.410156 C 231.429688 73.851562 231.117188 74.316406 230.867188 74.808594 C 230.609375 75.296875 230.417969 75.804688 230.289062 76.320312 C 230.160156 76.84375 230.09375 77.367188 230.09375 77.898438 C 230.09375 78.425781 230.160156 78.953125 230.289062 79.46875 C 230.417969 79.992188 230.609375 80.496094 230.867188 80.988281 C 231.117188 81.476562 231.429688 81.941406 231.800781 82.382812 C 232.167969 82.824219 232.589844 83.230469 233.058594 83.605469 C 233.527344 83.980469 234.035156 84.316406 234.589844 84.609375 C 235.140625 84.902344 235.726562 85.152344 236.335938 85.355469 C 236.953125 85.558594 237.585938 85.710938 238.234375 85.816406 C 238.886719 85.917969 239.546875 85.96875 240.207031 85.96875 C 240.871094 85.96875 241.53125 85.917969 242.183594 85.816406 C 242.832031 85.710938 243.464844 85.558594 244.078125 85.355469 C 244.691406 85.152344 245.277344 84.902344 245.824219 84.609375 C 246.378906 84.316406 246.890625 83.980469 247.359375 83.605469 C 247.832031 83.230469 248.25 82.824219 248.617188 82.382812 C 248.988281 81.941406 249.300781 81.476562 249.554688 80.988281 C 249.804688 80.496094 250 79.992188 250.128906 79.46875 C 250.257812 78.953125 250.320312 78.425781 250.320312 77.898438 C 250.320312 77.367188 250.257812 76.84375 250.128906 76.320312 C 250 75.804688 249.804688 75.296875 249.554688 74.808594 C 249.300781 74.316406 248.988281 73.851562 248.617188 73.410156 C 248.25 72.972656 247.832031 72.5625 247.359375 72.1875 C 246.890625 71.8125 246.378906 71.480469 245.824219 71.183594 C 245.277344 70.890625 244.691406 70.640625 244.078125 70.4375 C 243.464844 70.238281 242.832031 70.082031 242.183594 69.980469 C 241.53125 69.875 240.871094 69.824219 240.207031 69.824219 Z M 240.207031 69.824219 "/>
<path style=" stroke:none;fill-rule:nonzero;fill:rgb(100%,41.176471%,23.137255%);fill-opacity:1;" d="M 240.207031 13.839844 C 239.546875 13.839844 238.886719 13.890625 238.234375 13.996094 C 237.585938 14.101562 236.953125 14.253906 236.335938 14.457031 C 235.726562 14.660156 235.140625 14.90625 234.589844 15.203125 C 234.035156 15.496094 233.527344 15.832031 233.058594 16.207031 C 232.589844 16.578125 232.167969 16.988281 231.800781 17.429688 C 231.429688 17.867188 231.117188 18.335938 230.867188 18.824219 C 230.609375 19.3125 230.417969 19.820312 230.289062 20.339844 C 230.160156 20.859375 230.09375 21.382812 230.09375 21.914062 C 230.09375 22.445312 230.160156 22.96875 230.289062 23.488281 C 230.417969 24.011719 230.609375 24.515625 230.867188 25.003906 C 231.117188 25.492188 231.429688 25.957031 231.800781 26.398438 C 232.167969 26.839844 232.589844 27.246094 233.058594 27.625 C 233.527344 27.996094 234.035156 28.332031 234.589844 28.625 C 235.140625 28.917969 235.726562 29.167969 236.335938 29.371094 C 236.953125 29.578125 237.585938 29.726562 238.234375 29.832031 C 238.886719 29.933594 239.546875 29.984375 240.207031 29.984375 C 240.871094 29.984375 241.53125 29.933594 242.183594 29.832031 C 242.832031 29.726562 243.464844 29.578125 244.078125 29.371094 C 244.691406 29.167969 245.277344 28.917969 245.824219 28.625 C 246.378906 28.332031 246.890625 27.996094 247.359375 27.625 C 247.832031 27.246094 248.25 26.839844 248.617188 26.398438 C 248.988281 25.957031 249.300781 25.492188 249.554688 25.003906 C 249.804688 24.515625 250 24.011719 250.128906 23.488281 C 250.257812 22.96875 250.320312 22.445312 250.320312 21.914062 C 250.320312 21.382812 250.257812 20.859375 250.128906 20.339844 C 250 19.820312 249.804688 19.3125 249.554688 18.824219 C 249.300781 18.335938 248.988281 17.867188 248.617188 17.429688 C 248.25 16.988281 247.832031 16.578125 247.359375 16.207031 C 246.890625 15.832031 246.378906 15.496094 245.824219 15.203125 C 245.277344 14.90625 244.691406 14.660156 244.078125 14.457031 C 243.464844 14.253906 242.832031 14.101562 242.183594 13.996094 C 241.53125 13.890625 240.871094 13.839844 240.207031 13.839844 Z M 240.207031 13.839844 "/>
<path style=" stroke:none;fill-rule:nonzero;fill:rgb(100%,41.176471%,23.137255%);fill-opacity:1;" d="M 239.011719 59.671875 L 24.632812 59.671875 C 22.574219 59.671875 20.898438 58.335938 20.898438 56.691406 L 20.898438 16.820312 C 20.898438 15.179688 22.574219 13.839844 24.632812 13.839844 L 239.011719 13.839844 C 241.070312 13.839844 242.746094 15.179688 242.746094 16.820312 L 242.746094 56.691406 C 242.746094 58.335938 241.070312 59.671875 239.011719 59.671875 Z M 239.011719 59.671875 "/>
<path style=" stroke:none;fill-rule:nonzero;fill:rgb(100%,41.176471%,23.137255%);fill-opacity:1;" d="M 246.824219 80.359375 L 196.875 80.359375 C 194.820312 80.359375 193.144531 79.015625 193.144531 77.367188 L 193.144531 22.414062 C 193.144531 20.765625 194.820312 19.421875 196.875 19.421875 L 246.824219 19.421875 C 248.882812 19.421875 250.554688 20.765625 250.554688 22.414062 L 250.554688 77.367188 C 250.554688 79.015625 248.882812 80.359375 246.824219 80.359375 Z M 246.824219 80.359375 "/>
<path style=" stroke:none;fill-rule:nonzero;fill:rgb(100%,41.176471%,23.137255%);fill-opacity:1;" d="M 240.347656 86.160156 L 23.351562 86.160156 C 21.292969 86.160156 19.621094 84.820312 19.621094 83.179688 L 19.621094 43.308594 C 19.621094 41.664062 21.292969 40.328125 23.351562 40.328125 L 240.347656 40.328125 C 242.402344 40.328125 244.078125 41.664062 244.078125 43.308594 L 244.078125 83.179688 C 244.078125 84.820312 242.402344 86.160156 240.347656 86.160156 Z M 240.347656 86.160156 "/>
<path style=" stroke:none;fill-rule:nonzero;fill:rgb(100%,41.176471%,23.137255%);fill-opacity:1;" d="M 22.851562 13.839844 C 22.1875 13.839844 21.53125 13.890625 20.878906 13.996094 C 20.226562 14.101562 19.59375 14.253906 18.984375 14.457031 C 18.367188 14.660156 17.789062 14.90625 17.234375 15.203125 C 16.683594 15.496094 16.167969 15.832031 15.699219 16.207031 C 15.230469 16.578125 14.8125 16.988281 14.441406 17.429688 C 14.074219 17.867188 13.761719 18.335938 13.507812 18.824219 C 13.253906 19.3125 13.0625 19.820312 12.933594 20.339844 C 12.804688 20.859375 12.738281 21.382812 12.738281 21.914062 C 12.738281 22.445312 12.804688 22.96875 12.933594 23.488281 C 13.0625 24.011719 13.253906 24.515625 13.507812 25.003906 C 13.761719 25.492188 14.074219 25.957031 14.441406 26.398438 C 14.8125 26.839844 15.230469 27.246094 15.699219 27.625 C 16.167969 27.996094 16.683594 28.332031 17.234375 28.625 C 17.789062 28.917969 18.367188 29.167969 18.984375 29.371094 C 19.59375 29.578125 20.226562 29.726562 20.878906 29.832031 C 21.53125 29.933594 22.1875 29.984375 22.851562 29.984375 C 23.515625 29.984375 24.171875 29.933594 24.824219 29.832031 C 25.476562 29.726562 26.109375 29.578125 26.722656 29.371094 C 27.335938 29.167969 27.917969 28.917969 28.472656 28.625 C 29.023438 28.332031 29.535156 27.996094 30.003906 27.625 C 30.472656 27.246094 30.890625 26.839844 31.261719 26.398438 C 31.628906 25.957031 31.941406 25.492188 32.195312 25.003906 C 32.453125 24.515625 32.640625 24.011719 32.769531 23.488281 C 32.898438 22.96875 32.964844 22.445312 32.964844 21.914062 C 32.964844 21.382812 32.898438 20.859375 32.769531 20.339844 C 32.640625 19.820312 32.453125 19.3125 32.195312 18.824219 C 31.941406 18.335938 31.628906 17.867188 31.261719 17.429688 C 30.890625 16.988281 30.472656 16.578125 30.003906 16.207031 C 29.535156 15.832031 29.023438 15.496094 28.472656 15.203125 C 27.917969 14.90625 27.335938 14.660156 26.722656 14.457031 C 26.109375 14.253906 25.476562 14.101562 24.824219 13.996094 C 24.171875 13.890625 23.515625 13.839844 22.851562 13.839844 Z M 22.851562 13.839844 "/>
</g>
</svg>
