<?xml version="1.0" encoding="UTF-8"?>
<svg xmlns="http://www.w3.org/2000/svg" xmlns:xlink="http://www.w3.org/1999/xlink" width="139pt" height="75pt" viewBox="0 0 139 75" version="1.1">
<g id="surface1">
<path style=" stroke:none;fill-rule:nonzero;fill:rgb(100%,41.176471%,23.137255%);fill-opacity:1;" d="M 120.171875 45.035156 C 130.378906 45.035156 138.652344 35.734375 138.652344 24.257812 C 138.652344 12.785156 130.378906 3.484375 120.171875 3.484375 L 101.691406 3.484375 L 101.691406 24.257812 C 101.6875 35.734375 109.964844 45.035156 120.171875 45.035156 Z M 120.171875 45.035156 "/>
<path style=" stroke:none;fill-rule:nonzero;fill:rgb(100%,41.176471%,23.137255%);fill-opacity:1;" d="M 21.9375 24.261719 L 1.4375 24.261719 C 0.765625 24.261719 0.222656 24.871094 0.222656 25.628906 L 0.222656 48.671875 C 0.222656 49.433594 0.765625 50.042969 1.4375 50.042969 L 21.9375 50.042969 C 22.613281 50.042969 23.15625 49.433594 23.15625 48.671875 L 23.15625 25.628906 C 23.15625 24.871094 22.613281 24.261719 21.9375 24.261719 Z M 21.9375 24.261719 "/>
<path style=" stroke:none;fill-rule:nonzero;fill:rgb(100%,41.176471%,23.137255%);fill-opacity:1;" d="M 18.703125 3.488281 C 8.492188 3.488281 0.222656 12.785156 0.222656 24.261719 C 0.222656 35.734375 8.492188 45.035156 18.703125 45.035156 L 37.183594 45.035156 L 37.183594 24.261719 C 37.183594 12.785156 28.90625 3.488281 18.703125 3.488281 Z M 18.703125 3.488281 "/>
<path style=" stroke:none;fill-rule:nonzero;fill:rgb(100%,41.176471%,23.137255%);fill-opacity:1;" d="M 0.230469 49.449219 C -0.0898438 60.917969 7.921875 70.503906 18.125 70.863281 C 28.324219 71.222656 36.851562 62.214844 37.171875 50.75 L 37.75 29.984375 L 19.277344 29.335938 C 9.078125 28.972656 0.546875 37.980469 0.230469 49.449219 Z M 0.230469 49.449219 "/>
<path style=" stroke:none;fill-rule:nonzero;fill:rgb(100%,41.176471%,23.137255%);fill-opacity:1;" d="M 19.269531 29.964844 C 9.0625 29.964844 0.789062 39.265625 0.789062 50.738281 C 0.789062 62.214844 9.0625 71.511719 19.269531 71.511719 L 37.75 71.511719 L 37.75 50.738281 C 37.753906 39.265625 29.476562 29.964844 19.269531 29.964844 Z M 19.269531 29.964844 "/>
<path style=" stroke:none;fill-rule:nonzero;fill:rgb(100%,41.176471%,23.137255%);fill-opacity:1;" d="M 138.652344 50.738281 C 138.652344 39.265625 130.378906 29.964844 120.171875 29.964844 C 109.964844 29.964844 101.691406 39.265625 101.691406 50.738281 L 101.691406 71.511719 L 120.171875 71.511719 C 130.378906 71.515625 138.652344 62.214844 138.652344 50.738281 Z M 138.652344 50.738281 "/>
<path style=" stroke:none;fill-rule:nonzero;fill:rgb(100%,41.176471%,23.137255%);fill-opacity:1;" d="M 101.691406 49.460938 C 101.691406 60.933594 109.964844 70.234375 120.171875 70.234375 C 130.378906 70.234375 138.652344 60.933594 138.652344 49.460938 L 138.652344 28.6875 L 120.171875 28.6875 C 109.964844 28.683594 101.691406 37.984375 101.691406 49.460938 Z M 101.691406 49.460938 "/>
<path style=" stroke:none;fill-rule:nonzero;fill:rgb(100%,41.176471%,23.137255%);fill-opacity:1;" d="M 120.171875 6.269531 C 109.964844 6.269531 101.691406 15.566406 101.691406 27.039062 C 101.691406 38.515625 109.964844 47.816406 120.171875 47.816406 L 138.652344 47.816406 L 138.652344 27.039062 C 138.65625 15.566406 130.378906 6.269531 120.171875 6.269531 Z M 120.171875 6.269531 "/>
<path style=" stroke:none;fill-rule:nonzero;fill:rgb(100%,41.176471%,23.137255%);fill-opacity:1;" d="M 102.824219 71.453125 L 38.132812 71.453125 C 36.808594 71.453125 35.730469 70.242188 35.730469 68.753906 L 35.730469 6.1875 C 35.730469 4.699219 36.808594 3.488281 38.132812 3.488281 L 102.824219 3.488281 C 104.152344 3.488281 105.230469 4.699219 105.230469 6.1875 L 105.230469 68.753906 C 105.230469 70.242188 104.152344 71.453125 102.824219 71.453125 Z M 102.824219 71.453125 "/>
<path style=" stroke:none;fill-rule:nonzero;fill:rgb(100%,41.176471%,23.137255%);fill-opacity:1;" d="M 2.570312 24.257812 C 2.570312 35.734375 10.84375 45.035156 21.050781 45.035156 C 31.257812 45.035156 39.535156 35.734375 39.535156 24.257812 L 39.535156 3.484375 L 21.050781 3.484375 C 10.84375 3.484375 2.570312 12.785156 2.570312 24.257812 Z M 2.570312 24.257812 "/>
</g>
</svg>
