<?xml version="1.0" encoding="UTF-8"?>
<svg xmlns="http://www.w3.org/2000/svg" xmlns:xlink="http://www.w3.org/1999/xlink" width="44pt" height="44pt" viewBox="0 0 44 44" version="1.1">
<g id="surface1">
<path style=" stroke:none;fill-rule:nonzero;fill:rgb(99.607843%,38.039216%,11.372549%);fill-opacity:1;" d="M 11.042969 39.601562 C 11.535156 39.601562 12.03125 39.460938 12.457031 39.179688 L 35.191406 24.703125 C 36.039062 24.210938 36.460938 23.503906 36.460938 22.445312 C 36.460938 21.949219 36.390625 21.527344 36.109375 21.171875 C 35.96875 20.820312 35.613281 20.46875 35.261719 20.183594 L 12.457031 5.710938 C 11.820312 5.355469 11.183594 5.214844 10.476562 5.5 C 9.773438 5.640625 9.207031 6.0625 8.855469 6.628906 C 8.5 7.265625 8.359375 7.898438 8.570312 8.605469 C 8.710938 9.382812 9.066406 9.945312 9.699219 10.300781 L 28.835938 22.445312 L 9.699219 34.660156 C 9.136719 35.011719 8.78125 35.578125 8.570312 36.285156 C 8.359375 36.988281 8.5 37.695312 8.855469 38.332031 C 9.347656 39.179688 10.125 39.601562 11.042969 39.601562 Z M 11.042969 39.601562 "/>
</g>
</svg>
