<?xml version="1.0" encoding="UTF-8"?>
<svg xmlns="http://www.w3.org/2000/svg" xmlns:xlink="http://www.w3.org/1999/xlink" width="370px" height="471px" viewBox="0 0 370 471" version="1.1">
<defs>
<clipPath id="clip1">
  <path d="M 0.285156 278.371094 L 182 278.371094 L 182 336 L 0.285156 336 Z M 0.285156 278.371094 "/>
</clipPath>
<clipPath id="clip2">
  <path d="M 87 273 L 105.515625 273 L 105.515625 294.292969 L 87 294.292969 Z M 87 273 "/>
</clipPath>
<clipPath id="clip3">
  <path d="M 52 174.167969 L 170.210938 174.167969 L 170.210938 280 L 52 280 Z M 52 174.167969 "/>
</clipPath>
</defs>
<g id="surface1">
<g clip-path="url(#clip1)" clip-rule="nonzero">
<path style=" stroke:none;fill-rule:nonzero;fill:rgb(100%,100%,100%);fill-opacity:1;" d="M 176.34375 335.992188 L 4.964844 335.992188 C 1.984375 335.992188 -0.445312 333.613281 -0.445312 330.6875 L -0.445312 284.125 C -0.445312 281.207031 1.984375 278.820312 4.964844 278.820312 L 176.34375 278.820312 C 179.324219 278.820312 181.753906 281.207031 181.753906 284.125 L 181.753906 330.6875 C 181.753906 333.613281 179.324219 335.992188 176.34375 335.992188 Z M 176.34375 335.992188 "/>
</g>
<g clip-path="url(#clip2)" clip-rule="nonzero">
<path style=" stroke:none;fill-rule:nonzero;fill:rgb(2.745098%,47.058824%,78.039216%);fill-opacity:1;" d="M 101.035156 273.394531 L 91.113281 286.914062 L 87.046875 286.183594 L 94.355469 294.28125 L 105.214844 279.589844 Z M 101.035156 273.394531 "/>
</g>
<path style=" stroke:none;fill-rule:nonzero;fill:rgb(2.745098%,47.058824%,78.039216%);fill-opacity:1;" d="M 130.421875 273.328125 L 142.714844 284.808594 L 148.019531 285.203125 L 140.914062 292.636719 L 127.476562 280.171875 Z M 130.421875 273.328125 "/>
<path style=" stroke:none;fill-rule:nonzero;fill:rgb(93.72549%,45.098039%,55.686275%);fill-opacity:1;" d="M 150.554688 263.605469 L 118.945312 251.371094 L 135.085938 207.171875 L 166.699219 219.402344 Z M 150.554688 263.605469 "/>
<g clip-path="url(#clip3)" clip-rule="nonzero">
<path style=" stroke:none;fill-rule:nonzero;fill:rgb(99.607843%,78.039216%,28.627451%);fill-opacity:1;" d="M 52 279.894531 L 170.210938 279.894531 L 111.105469 174.179688 Z M 52 279.894531 "/>
</g>
<path style="fill:none;stroke-width:10;stroke-linecap:butt;stroke-linejoin:round;stroke:rgb(0%,0%,0%);stroke-opacity:1;stroke-miterlimit:4;" d="M 307.587661 154.351859 C 312.296639 168.48572 306.591156 183.136432 294.789404 187.092323 C 282.968112 191.048213 269.583675 182.778612 264.855159 168.624872 " transform="matrix(0.199917,0,0,0.196503,52.000077,174.177236)"/>
<path style="fill:none;stroke-width:10;stroke-linecap:butt;stroke-linejoin:round;stroke:rgb(0%,0%,0%);stroke-opacity:1;stroke-miterlimit:4;" d="M 408.117486 120.756605 C 412.846003 134.910345 407.120981 149.580935 395.319229 153.497068 C 383.517477 157.452959 370.133039 149.183358 365.404523 134.98986 " transform="matrix(0.199917,0,0,0.196503,52.000077,174.177236)"/>
<path style="fill:none;stroke-width:5;stroke-linecap:round;stroke-linejoin:round;stroke:rgb(0%,0%,0%);stroke-opacity:1;stroke-miterlimit:4;" d="M 328.006256 286.744991 C 325.485683 301.43546 323.668526 315.728352 316.165425 314.436227 C 308.623246 313.144102 308.7991 299.169271 311.300133 284.439044 " transform="matrix(0.199917,0,0,0.196503,52.000077,174.177236)"/>
<path style=" stroke:none;fill-rule:nonzero;fill:rgb(0.392157%,60.392157%,33.72549%);fill-opacity:1;" d="M 144.890625 208.410156 C 144.941406 208.710938 144.949219 209.007812 144.917969 209.316406 C 144.886719 209.625 144.816406 209.929688 144.703125 210.230469 C 144.59375 210.53125 144.441406 210.824219 144.253906 211.113281 C 144.066406 211.394531 143.84375 211.667969 143.585938 211.925781 C 143.332031 212.183594 143.046875 212.425781 142.730469 212.648438 C 142.417969 212.871094 142.078125 213.066406 141.71875 213.242188 C 141.355469 213.417969 140.980469 213.566406 140.582031 213.691406 C 140.191406 213.8125 139.785156 213.910156 139.375 213.976562 C 138.960938 214.042969 138.550781 214.078125 138.136719 214.085938 C 137.722656 214.09375 137.3125 214.070312 136.914062 214.015625 C 136.515625 213.960938 136.128906 213.882812 135.761719 213.769531 C 135.390625 213.660156 135.039062 213.523438 134.710938 213.355469 C 134.386719 213.191406 134.089844 213.003906 133.820312 212.789062 C 133.550781 212.578125 133.308594 212.347656 133.105469 212.097656 C 132.902344 211.847656 132.734375 211.578125 132.609375 211.296875 C 132.476562 211.015625 132.390625 210.730469 132.339844 210.429688 C 132.289062 210.132812 132.28125 209.828125 132.3125 209.519531 C 132.34375 209.214844 132.414062 208.910156 132.523438 208.609375 C 132.636719 208.308594 132.785156 208.011719 132.976562 207.730469 C 133.164062 207.441406 133.382812 207.167969 133.640625 206.910156 C 133.894531 206.652344 134.179688 206.414062 134.496094 206.191406 C 134.8125 205.972656 135.152344 205.769531 135.507812 205.597656 C 135.871094 205.421875 136.253906 205.269531 136.644531 205.148438 C 137.039062 205.023438 137.445312 204.929688 137.855469 204.859375 C 138.269531 204.796875 138.679688 204.757812 139.097656 204.753906 C 139.507812 204.746094 139.917969 204.769531 140.3125 204.824219 C 140.714844 204.875 141.097656 204.960938 141.46875 205.070312 C 141.839844 205.179688 142.1875 205.320312 142.515625 205.480469 C 142.839844 205.648438 143.140625 205.835938 143.410156 206.046875 C 143.679688 206.257812 143.917969 206.488281 144.121094 206.742188 C 144.328125 206.992188 144.492188 207.257812 144.621094 207.539062 C 144.75 207.820312 144.839844 208.113281 144.890625 208.410156 Z M 144.890625 208.410156 "/>
<path style=" stroke:none;fill-rule:nonzero;fill:rgb(0.392157%,60.392157%,33.72549%);fill-opacity:1;" d="M 103.902344 220.980469 C 103.953125 221.28125 103.964844 221.585938 103.933594 221.890625 C 103.898438 222.199219 103.828125 222.5 103.71875 222.804688 C 103.605469 223.109375 103.457031 223.398438 103.265625 223.683594 C 103.082031 223.972656 102.859375 224.246094 102.605469 224.5 C 102.347656 224.757812 102.0625 225 101.746094 225.222656 C 101.433594 225.441406 101.09375 225.640625 100.734375 225.816406 C 100.371094 225.992188 99.992188 226.140625 99.597656 226.265625 C 99.203125 226.390625 98.800781 226.484375 98.386719 226.550781 C 97.976562 226.617188 97.5625 226.652344 97.148438 226.660156 C 96.734375 226.664062 96.328125 226.640625 95.929688 226.589844 C 95.527344 226.535156 95.144531 226.453125 94.773438 226.34375 C 94.402344 226.234375 94.054688 226.09375 93.730469 225.929688 C 93.402344 225.761719 93.101562 225.578125 92.832031 225.367188 C 92.5625 225.152344 92.324219 224.921875 92.125 224.667969 C 91.917969 224.417969 91.75 224.152344 91.621094 223.871094 C 91.492188 223.59375 91.402344 223.300781 91.351562 223 C 91.304688 222.707031 91.296875 222.402344 91.324219 222.097656 C 91.355469 221.789062 91.429688 221.484375 91.542969 221.183594 C 91.652344 220.878906 91.804688 220.589844 91.988281 220.300781 C 92.175781 220.015625 92.398438 219.742188 92.65625 219.484375 C 92.910156 219.226562 93.199219 218.984375 93.511719 218.765625 C 93.824219 218.542969 94.164062 218.34375 94.527344 218.171875 C 94.890625 217.992188 95.265625 217.84375 95.660156 217.71875 C 96.054688 217.597656 96.457031 217.503906 96.867188 217.4375 C 97.28125 217.371094 97.695312 217.332031 98.109375 217.324219 C 98.523438 217.316406 98.929688 217.34375 99.332031 217.398438 C 99.726562 217.449219 100.113281 217.53125 100.484375 217.644531 C 100.855469 217.753906 101.203125 217.890625 101.53125 218.058594 C 101.859375 218.21875 102.152344 218.410156 102.421875 218.621094 C 102.699219 218.832031 102.933594 219.066406 103.136719 219.316406 C 103.339844 219.570312 103.507812 219.835938 103.636719 220.113281 C 103.765625 220.394531 103.855469 220.683594 103.902344 220.980469 Z M 103.902344 220.980469 "/>
<path style="fill:none;stroke-width:8;stroke-linecap:round;stroke-linejoin:round;stroke:rgb(0%,0%,0%);stroke-opacity:1;stroke-miterlimit:4;" d="M 295.805449 272.511735 C 306.024515 277.163386 316.712526 280.184971 327.849941 281.57649 C 339.006895 282.968009 350.105232 282.649948 361.164489 280.642184 L 364.32986 280.065697 C 375.584511 277.938661 386.233443 274.141801 396.315734 268.675117 C 406.398026 263.208434 415.386115 256.350231 423.319081 248.060751 L 424.804069 246.510201 " transform="matrix(0.199917,0,0,0.196503,52.000077,174.177236)"/>
<path style="fill:none;stroke-width:8;stroke-linecap:round;stroke-linejoin:round;stroke:rgb(0%,0%,0%);stroke-opacity:1;stroke-miterlimit:4;" d="M 295.082494 256.151443 C 296.020381 258.497147 296.469786 260.922366 296.450246 263.427101 C 296.411168 265.951715 295.903145 268.357056 294.90664 270.70276 C 293.929674 273.008706 292.522842 275.036349 290.725224 276.805566 C 288.908067 278.554905 286.856438 279.906667 284.511719 280.860851 " transform="matrix(0.199917,0,0,0.196503,52.000077,174.177236)"/>
<path style=" stroke:none;fill-rule:nonzero;fill:rgb(100%,56.078431%,61.568627%);fill-opacity:1;" d="M 123.027344 219.175781 L 167.011719 219.175781 L 167.011719 266.140625 L 123.027344 266.140625 Z M 123.027344 219.175781 "/>
<path style=" stroke:none;fill-rule:nonzero;fill:rgb(2.745098%,47.058824%,78.039216%);fill-opacity:1;" d="M 125.234375 241.890625 L 120.257812 248.0625 C 118.144531 250.683594 115.691406 252.9375 112.890625 254.835938 L 112.339844 255.207031 C 110.824219 256.230469 109.238281 257.128906 107.578125 257.898438 L 88.53125 266.765625 L 84.265625 264.210938 L 104.683594 254.402344 C 106.242188 253.65625 107.730469 252.796875 109.15625 251.828125 C 111.714844 250.082031 113.988281 248.027344 115.972656 245.667969 L 122.089844 238.421875 C 122.910156 237.757812 122.089844 239.023438 122.992188 239.566406 L 124.96875 238.222656 C 125.125 238.316406 125.269531 238.425781 125.398438 238.554688 C 125.527344 238.679688 125.640625 238.820312 125.738281 238.976562 C 125.828125 239.125 125.90625 239.289062 125.960938 239.460938 C 126.019531 239.632812 126.050781 239.808594 126.0625 239.988281 C 126.078125 240.167969 126.066406 240.347656 126.039062 240.519531 C 126.007812 240.699219 125.957031 240.875 125.882812 241.035156 C 125.8125 241.203125 125.722656 241.359375 125.613281 241.503906 C 125.5 241.644531 125.378906 241.773438 125.234375 241.890625 Z M 125.234375 241.890625 "/>
<path style=" stroke:none;fill-rule:nonzero;fill:rgb(97.647059%,67.45098%,72.54902%);fill-opacity:1;" d="M 167.011719 219.175781 L 123.027344 219.175781 L 126.03125 218.390625 L 164.613281 218.785156 Z M 167.011719 219.175781 "/>
<path style=" stroke:none;fill-rule:nonzero;fill:rgb(99.215686%,38.431373%,14.901961%);fill-opacity:1;" d="M 141.851562 246.867188 L 140.980469 250.035156 L 139.140625 250.371094 L 142.09375 251.167969 L 143.058594 247.71875 Z M 141.851562 246.867188 "/>
<path style=" stroke:none;fill-rule:nonzero;fill:rgb(99.215686%,38.431373%,14.901961%);fill-opacity:1;" d="M 147.535156 246.960938 L 148.578125 250.082031 L 150.429688 250.332031 L 147.519531 251.265625 L 146.261719 247.523438 Z M 147.535156 246.960938 "/>
<path style=" stroke:none;fill-rule:nonzero;fill:rgb(99.607843%,78.039216%,28.627451%);fill-opacity:1;" d="M 149.984375 249.554688 L 144.871094 246.761719 L 139.628906 249.316406 L 140.753906 243.671875 L 136.65625 239.5625 L 142.464844 238.871094 L 145.179688 233.777344 L 147.648438 238.992188 L 153.417969 239.949219 L 149.128906 243.867188 Z M 149.984375 249.554688 "/>
<path style="fill:none;stroke-width:1;stroke-linecap:round;stroke-linejoin:round;stroke:rgb(0%,0%,0%);stroke-opacity:1;stroke-miterlimit:4;" d="M 469.197415 340.835338 C 468.493999 340.855217 467.868741 340.61667 467.360718 340.09982 C 466.852696 339.602849 466.579145 338.986605 466.579145 338.270966 " transform="matrix(0.199917,0,0,0.196503,52.000077,174.177236)"/>
<path style=" stroke:none;fill-rule:nonzero;fill:rgb(99.215686%,38.431373%,14.901961%);fill-opacity:1;" d="M 147.824219 239.296875 C 148.0625 239.324219 148.261719 239.40625 148.414062 239.546875 C 148.570312 239.6875 148.640625 239.84375 148.621094 240.015625 C 148.601562 240.191406 148.503906 240.332031 148.320312 240.4375 C 148.136719 240.539062 147.929688 240.582031 147.691406 240.558594 C 147.449219 240.53125 147.25 240.449219 147.097656 240.308594 C 146.941406 240.167969 146.875 240.011719 146.894531 239.839844 C 146.90625 239.664062 147.011719 239.523438 147.191406 239.417969 C 147.375 239.316406 147.585938 239.273438 147.824219 239.296875 Z M 147.824219 239.296875 "/>
<path style=" stroke:none;fill-rule:nonzero;fill:rgb(99.215686%,38.431373%,14.901961%);fill-opacity:1;" d="M 140.15625 238.511719 C 140.394531 238.539062 140.59375 238.621094 140.75 238.761719 C 140.902344 238.902344 140.972656 239.058594 140.953125 239.234375 C 140.9375 239.40625 140.835938 239.546875 140.652344 239.652344 C 140.472656 239.757812 140.257812 239.796875 140.019531 239.773438 C 139.78125 239.746094 139.585938 239.664062 139.429688 239.523438 C 139.273438 239.382812 139.207031 239.230469 139.222656 239.054688 C 139.242188 238.878906 139.34375 238.738281 139.527344 238.632812 C 139.707031 238.53125 139.917969 238.488281 140.15625 238.511719 Z M 140.15625 238.511719 "/>
<path style="fill:none;stroke-width:1;stroke-linecap:butt;stroke-linejoin:miter;stroke:rgb(0%,0%,0%);stroke-opacity:1;stroke-miterlimit:10;" d="M 453.253326 322.805222 C 452.979775 325.329836 451.064922 327.178569 448.954675 326.959901 C 446.863967 326.741234 445.359439 324.534682 445.61345 322.010068 " transform="matrix(0.199917,0,0,0.196503,52.000077,174.177236)"/>
<path style="fill:none;stroke-width:1;stroke-linecap:butt;stroke-linejoin:miter;stroke:rgb(0%,0%,0%);stroke-opacity:1;stroke-miterlimit:10;" d="M 469.861752 324.176863 C 469.861752 326.721355 468.122752 328.748998 466.012505 328.748998 C 463.882719 328.729119 462.202337 326.661719 462.202337 324.137105 " transform="matrix(0.199917,0,0,0.196503,52.000077,174.177236)"/>
<path style="fill:none;stroke-width:1;stroke-linecap:butt;stroke-linejoin:miter;stroke:rgb(0%,0%,0%);stroke-opacity:1;stroke-miterlimit:10;" d="M 466.989471 339.145636 C 466.227437 342.00819 461.772471 343.280436 457.083034 341.988311 " transform="matrix(0.199917,0,0,0.196503,52.000077,174.177236)"/>
<path style=" stroke:none;fill-rule:nonzero;fill:rgb(100%,100%,100%);fill-opacity:1;" d="M 352.707031 103.773438 L 46.632812 103.773438 C 42.664062 103.773438 39.433594 100.613281 39.433594 96.722656 L 39.433594 32.382812 C 39.433594 28.5 42.664062 25.332031 46.632812 25.332031 L 352.707031 25.332031 C 356.675781 25.332031 359.90625 28.5 359.90625 32.382812 L 359.90625 96.722656 C 359.90625 100.613281 356.675781 103.773438 352.707031 103.773438 Z M 352.707031 103.773438 "/>
<path style=" stroke:none;fill-rule:nonzero;fill:rgb(0.392157%,60.392157%,33.72549%);fill-opacity:1;" d="M 357.019531 152.949219 L 244.789062 152.949219 C 243.148438 152.949219 241.828125 154.242188 241.828125 155.84375 L 241.828125 204.535156 C 241.828125 206.136719 243.148438 207.425781 244.789062 207.425781 L 357.019531 207.425781 C 358.660156 207.425781 359.980469 206.136719 359.980469 204.535156 L 359.980469 155.84375 C 359.980469 154.242188 358.660156 152.949219 357.019531 152.949219 Z M 357.019531 152.949219 "/>
<path style=" stroke:none;fill-rule:nonzero;fill:rgb(0%,0%,0%);fill-opacity:1;" d="M 102.121094 52.480469 C 102.121094 50.996094 102.925781 49.734375 104.527344 48.691406 L 105.621094 47.933594 C 106.121094 47.59375 106.375 47.152344 106.375 46.617188 L 106.375 46.039062 L 109.410156 46.039062 L 109.410156 46.964844 C 109.410156 47.660156 109.273438 48.253906 108.996094 48.738281 C 108.71875 49.214844 108.285156 49.648438 107.699219 50.039062 L 106.484375 50.875 C 106.152344 51.128906 105.90625 51.375 105.742188 51.617188 C 105.578125 51.859375 105.496094 52.148438 105.496094 52.480469 C 105.496094 52.929688 105.644531 53.292969 105.945312 53.570312 C 106.253906 53.851562 106.683594 53.996094 107.238281 53.996094 C 107.8125 53.996094 108.246094 53.835938 108.546875 53.527344 C 108.855469 53.214844 109.011719 52.820312 109.011719 52.34375 L 112.121094 52.34375 C 112.121094 53.203125 111.9375 53.972656 111.566406 54.664062 C 111.207031 55.359375 110.648438 55.921875 109.890625 56.34375 C 109.136719 56.769531 108.246094 56.980469 107.222656 56.980469 C 105.628906 56.980469 104.378906 56.5625 103.480469 55.722656 C 102.574219 54.894531 102.121094 53.816406 102.121094 52.480469 Z M 106.019531 43.023438 C 106.019531 42.5 106.195312 42.070312 106.546875 41.734375 C 106.890625 41.402344 107.347656 41.234375 107.902344 41.234375 C 108.425781 41.234375 108.863281 41.410156 109.226562 41.75 C 109.585938 42.085938 109.765625 42.507812 109.765625 43.023438 C 109.765625 43.539062 109.582031 43.972656 109.210938 44.3125 C 108.847656 44.65625 108.414062 44.828125 107.902344 44.828125 C 107.355469 44.828125 106.902344 44.65625 106.546875 44.3125 C 106.195312 43.972656 106.019531 43.539062 106.019531 43.023438 Z M 106.019531 43.023438 "/>
<path style=" stroke:none;fill-rule:nonzero;fill:rgb(0%,0%,0%);fill-opacity:1;" d="M 114.792969 53.375 L 114.792969 38.1875 L 120.28125 38.1875 C 121.488281 38.1875 122.59375 38.378906 123.59375 38.75 C 124.597656 39.113281 125.433594 39.628906 126.105469 40.296875 C 126.78125 40.957031 127.304688 41.746094 127.675781 42.675781 C 128.046875 43.605469 128.230469 44.621094 128.230469 45.722656 C 128.230469 48.078125 127.523438 49.941406 126.105469 51.3125 C 124.6875 52.6875 122.746094 53.375 120.28125 53.375 Z M 118.277344 50.40625 L 120.125 50.40625 C 120.59375 50.40625 121.039062 50.355469 121.449219 50.253906 C 121.871094 50.144531 122.273438 49.972656 122.667969 49.738281 C 123.058594 49.507812 123.390625 49.214844 123.667969 48.859375 C 123.945312 48.507812 124.167969 48.0625 124.332031 47.523438 C 124.492188 46.992188 124.578125 46.386719 124.578125 45.722656 C 124.578125 44.933594 124.457031 44.242188 124.207031 43.644531 C 123.960938 43.039062 123.625 42.566406 123.191406 42.222656 C 122.769531 41.867188 122.296875 41.605469 121.773438 41.433594 C 121.257812 41.25 120.710938 41.160156 120.125 41.160156 L 118.277344 41.160156 Z M 118.277344 50.40625 "/>
<path style=" stroke:none;fill-rule:nonzero;fill:rgb(0%,0%,0%);fill-opacity:1;" d="M 129.875 47.707031 C 129.875 45.917969 130.421875 44.464844 131.523438 43.34375 C 132.632812 42.214844 134.074219 41.644531 135.855469 41.644531 C 136.777344 41.644531 137.613281 41.808594 138.367188 42.128906 C 139.113281 42.445312 139.726562 42.878906 140.199219 43.433594 C 140.679688 43.980469 141.046875 44.613281 141.292969 45.328125 C 141.546875 46.046875 141.679688 46.804688 141.679688 47.601562 L 141.679688 48.570312 L 133.113281 48.570312 C 133.171875 49.308594 133.453125 49.910156 133.957031 50.375 C 134.460938 50.839844 135.113281 51.070312 135.914062 51.070312 C 136.550781 51.070312 137.089844 50.945312 137.535156 50.691406 C 137.984375 50.429688 138.304688 50.101562 138.488281 49.707031 L 141.570312 49.707031 C 141.300781 50.917969 140.660156 51.886719 139.644531 52.601562 C 138.628906 53.308594 137.335938 53.664062 135.777344 53.664062 C 134.667969 53.664062 133.660156 53.410156 132.757812 52.90625 C 131.863281 52.390625 131.160156 51.675781 130.644531 50.769531 C 130.128906 49.859375 129.875 48.839844 129.875 47.707031 Z M 133.171875 46.34375 L 138.519531 46.34375 C 138.445312 45.730469 138.167969 45.21875 137.6875 44.8125 C 137.203125 44.410156 136.59375 44.207031 135.855469 44.207031 C 135.144531 44.207031 134.535156 44.417969 134.035156 44.84375 C 133.542969 45.257812 133.253906 45.757812 133.171875 46.34375 Z M 133.171875 46.34375 "/>
<path style=" stroke:none;fill-rule:nonzero;fill:rgb(0%,0%,0%);fill-opacity:1;" d="M 148.964844 47.585938 C 148.964844 45.789062 149.457031 44.351562 150.445312 43.265625 C 151.429688 42.1875 152.722656 41.644531 154.328125 41.644531 C 154.777344 41.644531 155.195312 41.703125 155.574219 41.8125 C 155.964844 41.914062 156.289062 42.054688 156.546875 42.234375 C 156.800781 42.410156 157.007812 42.578125 157.164062 42.734375 C 157.324219 42.886719 157.453125 43.046875 157.546875 43.207031 L 157.730469 43.207031 L 157.730469 41.933594 L 161.121094 41.933594 L 161.121094 58.359375 L 157.71875 58.359375 L 157.71875 52.070312 L 157.53125 52.070312 C 157.253906 52.464844 156.839844 52.828125 156.285156 53.164062 C 155.738281 53.496094 155.058594 53.664062 154.25 53.664062 C 152.679688 53.664062 151.402344 53.101562 150.429688 51.980469 C 149.449219 50.851562 148.964844 49.386719 148.964844 47.585938 Z M 152.417969 47.644531 C 152.417969 48.523438 152.664062 49.246094 153.15625 49.796875 C 153.648438 50.34375 154.289062 50.617188 155.082031 50.617188 C 155.871094 50.617188 156.519531 50.351562 157.023438 49.8125 C 157.523438 49.269531 157.777344 48.546875 157.777344 47.644531 C 157.777344 46.777344 157.535156 46.066406 157.054688 45.507812 C 156.570312 44.957031 155.921875 44.675781 155.113281 44.675781 C 154.300781 44.675781 153.648438 44.949219 153.15625 45.496094 C 152.664062 46.03125 152.417969 46.75 152.417969 47.644531 Z M 152.417969 47.644531 "/>
<path style=" stroke:none;fill-rule:nonzero;fill:rgb(0%,0%,0%);fill-opacity:1;" d="M 163.71875 49.554688 L 163.71875 41.933594 L 167.140625 41.933594 L 167.140625 48.511719 C 167.140625 49.117188 167.300781 49.609375 167.632812 49.980469 C 167.972656 50.355469 168.433594 50.539062 169.019531 50.539062 C 169.605469 50.539062 170.074219 50.335938 170.4375 49.917969 C 170.808594 49.496094 170.992188 48.972656 170.992188 48.34375 L 170.992188 41.933594 L 174.414062 41.933594 L 174.414062 53.375 L 171.175781 53.375 L 171.175781 52.117188 L 170.992188 52.117188 C 170.753906 52.542969 170.359375 52.90625 169.804688 53.207031 C 169.257812 53.511719 168.621094 53.664062 167.894531 53.664062 C 166.621094 53.664062 165.601562 53.285156 164.84375 52.527344 C 164.09375 51.761719 163.71875 50.769531 163.71875 49.554688 Z M 163.71875 49.554688 "/>
<path style=" stroke:none;fill-rule:nonzero;fill:rgb(0%,0%,0%);fill-opacity:1;" d="M 176.441406 47.707031 C 176.441406 45.917969 176.988281 44.464844 178.089844 43.34375 C 179.199219 42.214844 180.640625 41.644531 182.417969 41.644531 C 183.34375 41.644531 184.179688 41.808594 184.929688 42.128906 C 185.679688 42.445312 186.292969 42.878906 186.765625 43.433594 C 187.246094 43.980469 187.613281 44.613281 187.859375 45.328125 C 188.113281 46.046875 188.246094 46.804688 188.246094 47.601562 L 188.246094 48.570312 L 179.675781 48.570312 C 179.738281 49.308594 180.019531 49.910156 180.523438 50.375 C 181.023438 50.839844 181.679688 51.070312 182.480469 51.070312 C 183.117188 51.070312 183.65625 50.945312 184.097656 50.691406 C 184.550781 50.429688 184.871094 50.101562 185.054688 49.707031 L 188.136719 49.707031 C 187.867188 50.917969 187.226562 51.886719 186.210938 52.601562 C 185.191406 53.308594 183.902344 53.664062 182.34375 53.664062 C 181.234375 53.664062 180.222656 53.410156 179.324219 52.90625 C 178.429688 52.390625 177.722656 51.675781 177.210938 50.769531 C 176.695312 49.859375 176.441406 48.839844 176.441406 47.707031 Z M 179.738281 46.34375 L 185.085938 46.34375 C 185.011719 45.730469 184.734375 45.21875 184.253906 44.8125 C 183.769531 44.410156 183.160156 44.207031 182.417969 44.207031 C 181.710938 44.207031 181.101562 44.417969 180.601562 44.84375 C 180.109375 45.257812 179.820312 45.757812 179.738281 46.34375 Z M 181.003906 40.296875 L 182.082031 37.007812 L 185.347656 37.007812 L 183.3125 40.296875 Z M 181.003906 40.296875 "/>
<path style=" stroke:none;fill-rule:nonzero;fill:rgb(0%,0%,0%);fill-opacity:1;" d="M 195.53125 47.644531 C 195.53125 46.523438 195.777344 45.507812 196.269531 44.601562 C 196.769531 43.691406 197.492188 42.976562 198.425781 42.449219 C 199.371094 41.914062 200.453125 41.644531 201.679688 41.644531 C 203.28125 41.644531 204.621094 42.082031 205.699219 42.949219 C 206.777344 43.820312 207.398438 44.957031 207.566406 46.359375 L 204.097656 46.359375 C 203.945312 45.867188 203.652344 45.460938 203.21875 45.144531 C 202.789062 44.835938 202.28125 44.675781 201.695312 44.675781 C 200.871094 44.675781 200.214844 44.960938 199.722656 45.523438 C 199.230469 46.09375 198.980469 46.796875 198.980469 47.644531 C 198.980469 48.507812 199.234375 49.21875 199.738281 49.78125 C 200.238281 50.339844 200.898438 50.617188 201.710938 50.617188 C 202.273438 50.617188 202.765625 50.476562 203.1875 50.191406 C 203.609375 49.902344 203.898438 49.523438 204.050781 49.054688 L 207.535156 49.054688 C 207.347656 50.417969 206.722656 51.535156 205.652344 52.390625 C 204.59375 53.238281 203.273438 53.664062 201.695312 53.664062 C 200.46875 53.664062 199.386719 53.394531 198.441406 52.859375 C 197.496094 52.324219 196.769531 51.601562 196.269531 50.691406 C 195.777344 49.777344 195.53125 48.761719 195.53125 47.644531 Z M 195.53125 47.644531 "/>
<path style=" stroke:none;fill-rule:nonzero;fill:rgb(0%,0%,0%);fill-opacity:1;" d="M 209.171875 47.644531 C 209.171875 46.808594 209.316406 46.023438 209.617188 45.296875 C 209.925781 44.5625 210.347656 43.925781 210.882812 43.386719 C 211.425781 42.84375 212.089844 42.417969 212.871094 42.113281 C 213.660156 41.804688 214.519531 41.644531 215.441406 41.644531 C 217.28125 41.644531 218.785156 42.222656 219.957031 43.371094 C 221.128906 44.515625 221.714844 45.941406 221.714844 47.644531 C 221.714844 48.488281 221.558594 49.277344 221.253906 50.011719 C 220.945312 50.75 220.515625 51.386719 219.972656 51.921875 C 219.425781 52.457031 218.761719 52.882812 217.96875 53.191406 C 217.1875 53.503906 216.339844 53.664062 215.429688 53.664062 C 214.214844 53.664062 213.125 53.394531 212.160156 52.859375 C 211.207031 52.324219 210.464844 51.601562 209.941406 50.691406 C 209.425781 49.78125 209.171875 48.769531 209.171875 47.644531 Z M 212.625 47.644531 C 212.625 48.523438 212.886719 49.246094 213.410156 49.796875 C 213.941406 50.34375 214.613281 50.617188 215.429688 50.617188 C 216.238281 50.617188 216.910156 50.339844 217.445312 49.78125 C 217.976562 49.230469 218.246094 48.519531 218.246094 47.644531 C 218.246094 46.777344 217.976562 46.066406 217.445312 45.507812 C 216.910156 44.957031 216.238281 44.675781 215.429688 44.675781 C 214.613281 44.675781 213.941406 44.957031 213.410156 45.507812 C 212.886719 46.066406 212.625 46.777344 212.625 47.644531 Z M 212.625 47.644531 "/>
<path style=" stroke:none;fill-rule:nonzero;fill:rgb(0%,0%,0%);fill-opacity:1;" d="M 223.945312 49.769531 L 223.945312 37.113281 L 227.382812 37.113281 L 227.382812 49.390625 C 227.382812 50.078125 227.695312 50.417969 228.335938 50.417969 L 228.769531 50.417969 L 228.769531 53.375 L 227.582031 53.375 C 226.429688 53.375 225.535156 53.058594 224.898438 52.421875 C 224.261719 51.785156 223.945312 50.902344 223.945312 49.769531 Z M 223.945312 49.769531 "/>
<path style=" stroke:none;fill-rule:nonzero;fill:rgb(0%,0%,0%);fill-opacity:1;" d="M 230.414062 47.644531 C 230.414062 46.808594 230.5625 46.023438 230.863281 45.296875 C 231.167969 44.5625 231.589844 43.925781 232.125 43.386719 C 232.667969 42.84375 233.332031 42.417969 234.113281 42.113281 C 234.902344 41.804688 235.761719 41.644531 236.6875 41.644531 C 238.523438 41.644531 240.03125 42.222656 241.199219 43.371094 C 242.371094 44.515625 242.957031 45.941406 242.957031 47.644531 C 242.957031 48.488281 242.804688 49.277344 242.496094 50.011719 C 242.1875 50.75 241.757812 51.386719 241.214844 51.921875 C 240.667969 52.457031 240.003906 52.882812 239.210938 53.191406 C 238.429688 53.503906 237.582031 53.664062 236.671875 53.664062 C 235.457031 53.664062 234.367188 53.394531 233.402344 52.859375 C 232.449219 52.324219 231.707031 51.601562 231.183594 50.691406 C 230.667969 49.78125 230.414062 48.769531 230.414062 47.644531 Z M 233.867188 47.644531 C 233.867188 48.523438 234.128906 49.246094 234.652344 49.796875 C 235.183594 50.34375 235.859375 50.617188 236.671875 50.617188 C 237.480469 50.617188 238.152344 50.339844 238.6875 49.78125 C 239.21875 49.230469 239.488281 48.519531 239.488281 47.644531 C 239.488281 46.777344 239.21875 46.066406 238.6875 45.507812 C 238.152344 44.957031 237.480469 44.675781 236.671875 44.675781 C 235.859375 44.675781 235.183594 44.957031 234.652344 45.507812 C 234.128906 46.066406 233.867188 46.777344 233.867188 47.644531 Z M 233.867188 47.644531 "/>
<path style=" stroke:none;fill-rule:nonzero;fill:rgb(0%,0%,0%);fill-opacity:1;" d="M 245.1875 53.375 L 245.1875 41.933594 L 248.40625 41.933594 L 248.40625 43.660156 L 248.59375 43.660156 C 248.816406 43.167969 249.195312 42.734375 249.71875 42.371094 C 250.25 42.007812 250.875 41.828125 251.582031 41.828125 L 252.722656 41.828125 L 252.722656 44.992188 L 251.367188 44.992188 C 250.523438 44.992188 249.855469 45.277344 249.363281 45.84375 C 248.871094 46.410156 248.625 47.183594 248.625 48.160156 L 248.625 53.375 Z M 245.1875 53.375 "/>
<path style=" stroke:none;fill-rule:nonzero;fill:rgb(0%,0%,0%);fill-opacity:1;" d="M 259.992188 49.859375 L 263.085938 49.859375 C 263.125 50.253906 263.3125 50.554688 263.640625 50.769531 C 263.96875 50.972656 264.417969 51.070312 264.984375 51.070312 C 265.558594 51.070312 266 50.980469 266.308594 50.796875 C 266.625 50.609375 266.785156 50.351562 266.785156 50.027344 C 266.785156 49.777344 266.683594 49.570312 266.492188 49.417969 C 266.308594 49.269531 266.0625 49.160156 265.753906 49.101562 C 265.445312 49.039062 265.089844 48.980469 264.691406 48.917969 C 264.296875 48.851562 263.898438 48.789062 263.488281 48.738281 C 263.074219 48.675781 262.671875 48.566406 262.269531 48.402344 C 261.878906 48.246094 261.53125 48.046875 261.222656 47.8125 C 260.921875 47.582031 260.675781 47.25 260.484375 46.8125 C 260.296875 46.378906 260.207031 45.871094 260.207031 45.28125 C 260.207031 44.261719 260.625 43.402344 261.46875 42.707031 C 262.320312 42 263.496094 41.644531 265 41.644531 C 266.375 41.644531 267.496094 41.964844 268.355469 42.597656 C 269.226562 43.230469 269.703125 44.121094 269.773438 45.28125 L 266.816406 45.28125 C 266.761719 44.929688 266.585938 44.644531 266.277344 44.433594 C 265.96875 44.222656 265.542969 44.113281 265 44.113281 C 264.472656 44.113281 264.058594 44.214844 263.75 44.402344 C 263.441406 44.585938 263.289062 44.828125 263.289062 45.128906 C 263.289062 45.335938 263.363281 45.496094 263.519531 45.617188 C 263.671875 45.738281 263.878906 45.835938 264.136719 45.902344 C 264.402344 45.964844 264.707031 46.015625 265.042969 46.054688 C 265.390625 46.097656 265.753906 46.144531 266.121094 46.207031 C 266.492188 46.257812 266.867188 46.324219 267.246094 46.402344 C 267.625 46.488281 267.988281 46.613281 268.328125 46.78125 C 268.664062 46.957031 268.960938 47.167969 269.21875 47.417969 C 269.484375 47.660156 269.699219 47.992188 269.851562 48.402344 C 270.007812 48.820312 270.082031 49.296875 270.082031 49.84375 C 270.082031 50.976562 269.628906 51.898438 268.726562 52.601562 C 267.832031 53.308594 266.578125 53.664062 264.96875 53.664062 C 263.34375 53.664062 262.117188 53.328125 261.285156 52.664062 C 260.453125 51.988281 260.019531 51.050781 259.992188 49.859375 Z M 259.992188 49.859375 "/>
<path style=" stroke:none;fill-rule:nonzero;fill:rgb(0%,0%,0%);fill-opacity:1;" d="M 271.695312 47.644531 C 271.695312 46.808594 271.839844 46.023438 272.140625 45.296875 C 272.449219 44.5625 272.867188 43.925781 273.402344 43.386719 C 273.949219 42.84375 274.609375 42.417969 275.390625 42.113281 C 276.179688 41.804688 277.039062 41.644531 277.964844 41.644531 C 279.800781 41.644531 281.308594 42.222656 282.480469 43.371094 C 283.652344 44.515625 284.234375 45.941406 284.234375 47.644531 C 284.234375 48.488281 284.082031 49.277344 283.773438 50.011719 C 283.464844 50.75 283.039062 51.386719 282.496094 51.921875 C 281.949219 52.457031 281.28125 52.882812 280.492188 53.191406 C 279.710938 53.503906 278.863281 53.664062 277.949219 53.664062 C 276.734375 53.664062 275.644531 53.394531 274.683594 52.859375 C 273.726562 52.324219 272.988281 51.601562 272.464844 50.691406 C 271.949219 49.78125 271.695312 48.769531 271.695312 47.644531 Z M 275.144531 47.644531 C 275.144531 48.523438 275.40625 49.246094 275.929688 49.796875 C 276.460938 50.34375 277.136719 50.617188 277.949219 50.617188 C 278.757812 50.617188 279.433594 50.339844 279.96875 49.78125 C 280.5 49.230469 280.769531 48.519531 280.769531 47.644531 C 280.769531 46.777344 280.5 46.066406 279.96875 45.507812 C 279.433594 44.957031 278.757812 44.675781 277.949219 44.675781 C 277.136719 44.675781 276.460938 44.957031 275.929688 45.507812 C 275.40625 46.066406 275.144531 46.777344 275.144531 47.644531 Z M 275.144531 47.644531 "/>
<path style=" stroke:none;fill-rule:nonzero;fill:rgb(0%,0%,0%);fill-opacity:1;" d="M 286.46875 53.375 L 286.46875 41.933594 L 289.6875 41.933594 L 289.6875 43.175781 L 289.871094 43.175781 C 290.125 42.742188 290.527344 42.378906 291.074219 42.085938 C 291.617188 41.792969 292.261719 41.644531 293 41.644531 C 294.261719 41.644531 295.269531 42.03125 296.019531 42.796875 C 296.777344 43.554688 297.160156 44.535156 297.160156 45.738281 L 297.160156 53.375 L 293.753906 53.375 L 293.753906 46.78125 C 293.753906 46.175781 293.585938 45.691406 293.246094 45.328125 C 292.90625 44.957031 292.449219 44.765625 291.875 44.765625 C 291.289062 44.765625 290.8125 44.980469 290.441406 45.402344 C 290.082031 45.820312 289.902344 46.339844 289.902344 46.964844 L 289.902344 53.375 Z M 286.46875 53.375 "/>
<path style=" stroke:none;fill-rule:nonzero;fill:rgb(0%,0%,0%);fill-opacity:1;" d="M 79.519531 79.546875 L 79.519531 66.894531 L 82.957031 66.894531 L 82.957031 79.167969 C 82.957031 79.859375 83.269531 80.199219 83.910156 80.199219 L 84.34375 80.199219 L 84.34375 83.15625 L 83.15625 83.15625 C 82.003906 83.15625 81.109375 82.835938 80.476562 82.199219 C 79.835938 81.5625 79.519531 80.679688 79.519531 79.546875 Z M 79.519531 79.546875 "/>
<path style=" stroke:none;fill-rule:nonzero;fill:rgb(0%,0%,0%);fill-opacity:1;" d="M 85.988281 77.488281 C 85.988281 75.691406 86.472656 74.226562 87.453125 73.105469 C 88.425781 71.984375 89.703125 71.425781 91.273438 71.425781 C 92.082031 71.425781 92.769531 71.589844 93.324219 71.925781 C 93.878906 72.25 94.285156 72.613281 94.554688 73.015625 L 94.742188 73.015625 L 94.742188 71.710938 L 98.144531 71.710938 L 98.144531 83.15625 L 94.757812 83.15625 L 94.757812 81.851562 L 94.570312 81.851562 C 94.480469 82.015625 94.347656 82.175781 94.1875 82.335938 C 94.03125 82.488281 93.824219 82.652344 93.570312 82.835938 C 93.3125 83.019531 92.988281 83.160156 92.597656 83.277344 C 92.21875 83.386719 91.800781 83.441406 91.351562 83.441406 C 89.75 83.441406 88.453125 82.90625 87.46875 81.820312 C 86.480469 80.730469 85.988281 79.285156 85.988281 77.488281 Z M 89.441406 77.425781 C 89.441406 78.316406 89.6875 79.03125 90.179688 79.578125 C 90.671875 80.125 91.320312 80.394531 92.121094 80.394531 C 92.929688 80.394531 93.578125 80.121094 94.0625 79.5625 C 94.554688 79 94.800781 78.285156 94.800781 77.425781 C 94.800781 76.527344 94.546875 75.8125 94.046875 75.273438 C 93.542969 74.726562 92.894531 74.457031 92.105469 74.457031 C 91.3125 74.457031 90.671875 74.734375 90.179688 75.289062 C 89.6875 75.835938 89.441406 76.546875 89.441406 77.425781 Z M 89.441406 77.425781 "/>
<path style=" stroke:none;fill-rule:nonzero;fill:rgb(0%,0%,0%);fill-opacity:1;" d="M 100.007812 79.636719 L 103.105469 79.636719 C 103.144531 80.03125 103.328125 80.335938 103.660156 80.546875 C 103.988281 80.753906 104.433594 80.851562 105 80.851562 C 105.574219 80.851562 106.015625 80.761719 106.324219 80.578125 C 106.640625 80.386719 106.800781 80.132812 106.800781 79.804688 C 106.800781 79.554688 106.703125 79.351562 106.507812 79.199219 C 106.324219 79.046875 106.078125 78.941406 105.769531 78.878906 C 105.460938 78.820312 105.105469 78.757812 104.707031 78.699219 C 104.3125 78.628906 103.914062 78.570312 103.503906 78.515625 C 103.09375 78.457031 102.6875 78.347656 102.289062 78.183594 C 101.894531 78.023438 101.546875 77.828125 101.238281 77.59375 C 100.9375 77.359375 100.691406 77.027344 100.5 76.59375 C 100.316406 76.160156 100.222656 75.648438 100.222656 75.0625 C 100.222656 74.042969 100.644531 73.183594 101.488281 72.484375 C 102.335938 71.78125 103.511719 71.425781 105.015625 71.425781 C 106.390625 71.425781 107.511719 71.742188 108.375 72.378906 C 109.246094 73.007812 109.71875 73.902344 109.792969 75.0625 L 106.832031 75.0625 C 106.777344 74.710938 106.601562 74.425781 106.292969 74.210938 C 105.984375 74 105.558594 73.894531 105.015625 73.894531 C 104.492188 73.894531 104.074219 73.992188 103.765625 74.183594 C 103.457031 74.363281 103.304688 74.605469 103.304688 74.910156 C 103.304688 75.113281 103.382812 75.273438 103.535156 75.394531 C 103.691406 75.515625 103.894531 75.613281 104.152344 75.683594 C 104.417969 75.742188 104.722656 75.796875 105.0625 75.835938 C 105.40625 75.875 105.769531 75.925781 106.140625 75.984375 C 106.507812 76.039062 106.882812 76.101562 107.265625 76.183594 C 107.640625 76.265625 108.003906 76.390625 108.34375 76.5625 C 108.683594 76.734375 108.980469 76.949219 109.238281 77.199219 C 109.503906 77.441406 109.714844 77.769531 109.867188 78.183594 C 110.023438 78.601562 110.101562 79.078125 110.101562 79.625 C 110.101562 80.757812 109.644531 81.675781 108.742188 82.382812 C 107.851562 83.089844 106.59375 83.441406 104.984375 83.441406 C 103.359375 83.441406 102.132812 83.109375 101.300781 82.441406 C 100.46875 81.769531 100.039062 80.832031 100.007812 79.636719 Z M 100.007812 79.636719 "/>
<path style=" stroke:none;fill-rule:nonzero;fill:rgb(0%,0%,0%);fill-opacity:1;" d="M 118.042969 83.15625 L 118.042969 71.710938 L 121.261719 71.710938 L 121.261719 73.441406 L 121.449219 73.441406 C 121.671875 72.949219 122.046875 72.515625 122.574219 72.152344 C 123.105469 71.789062 123.726562 71.605469 124.4375 71.605469 L 125.578125 71.605469 L 125.578125 74.773438 L 124.222656 74.773438 C 123.378906 74.773438 122.710938 75.058594 122.21875 75.621094 C 121.726562 76.191406 121.480469 76.964844 121.480469 77.941406 L 121.480469 83.15625 Z M 118.042969 83.15625 "/>
<path style=" stroke:none;fill-rule:nonzero;fill:rgb(0%,0%,0%);fill-opacity:1;" d="M 127.160156 77.425781 C 127.160156 76.589844 127.308594 75.804688 127.609375 75.078125 C 127.914062 74.339844 128.335938 73.707031 128.871094 73.167969 C 129.414062 72.621094 130.078125 72.195312 130.859375 71.894531 C 131.648438 71.582031 132.507812 71.425781 133.433594 71.425781 C 135.269531 71.425781 136.777344 72 137.945312 73.152344 C 139.117188 74.296875 139.703125 75.722656 139.703125 77.425781 C 139.703125 78.265625 139.550781 79.054688 139.242188 79.789062 C 138.933594 80.527344 138.503906 81.164062 137.960938 81.699219 C 137.414062 82.238281 136.75 82.660156 135.957031 82.972656 C 135.175781 83.285156 134.328125 83.441406 133.417969 83.441406 C 132.203125 83.441406 131.113281 83.171875 130.148438 82.640625 C 129.195312 82.105469 128.453125 81.382812 127.929688 80.472656 C 127.414062 79.5625 127.160156 78.546875 127.160156 77.425781 Z M 130.613281 77.425781 C 130.613281 78.304688 130.875 79.023438 131.398438 79.578125 C 131.929688 80.125 132.605469 80.394531 133.417969 80.394531 C 134.226562 80.394531 134.898438 80.121094 135.433594 79.5625 C 135.964844 79.007812 136.234375 78.296875 136.234375 77.425781 C 136.234375 76.558594 135.964844 75.847656 135.433594 75.289062 C 134.898438 74.734375 134.226562 74.457031 133.417969 74.457031 C 132.605469 74.457031 131.929688 74.734375 131.398438 75.289062 C 130.875 75.847656 130.613281 76.558594 130.613281 77.425781 Z M 130.613281 77.425781 "/>
<path style=" stroke:none;fill-rule:nonzero;fill:rgb(0%,0%,0%);fill-opacity:1;" d="M 141.285156 79.636719 L 144.382812 79.636719 C 144.421875 80.03125 144.605469 80.335938 144.9375 80.546875 C 145.265625 80.753906 145.710938 80.851562 146.277344 80.851562 C 146.851562 80.851562 147.296875 80.761719 147.605469 80.578125 C 147.917969 80.386719 148.082031 80.132812 148.082031 79.804688 C 148.082031 79.554688 147.980469 79.351562 147.789062 79.199219 C 147.605469 79.046875 147.359375 78.941406 147.050781 78.878906 C 146.742188 78.820312 146.386719 78.757812 145.984375 78.699219 C 145.59375 78.628906 145.191406 78.570312 144.785156 78.515625 C 144.371094 78.457031 143.96875 78.347656 143.566406 78.183594 C 143.175781 78.023438 142.828125 77.828125 142.519531 77.59375 C 142.21875 77.359375 141.972656 77.027344 141.78125 76.59375 C 141.59375 76.160156 141.503906 75.648438 141.503906 75.0625 C 141.503906 74.042969 141.921875 73.183594 142.765625 72.484375 C 143.617188 71.78125 144.792969 71.425781 146.292969 71.425781 C 147.667969 71.425781 148.789062 71.742188 149.652344 72.378906 C 150.523438 73.007812 150.996094 73.902344 151.070312 75.0625 L 148.113281 75.0625 C 148.058594 74.710938 147.882812 74.425781 147.574219 74.210938 C 147.265625 74 146.835938 73.894531 146.292969 73.894531 C 145.769531 73.894531 145.355469 73.992188 145.046875 74.183594 C 144.738281 74.363281 144.582031 74.605469 144.582031 74.910156 C 144.582031 75.113281 144.660156 75.273438 144.816406 75.394531 C 144.96875 75.515625 145.171875 75.613281 145.429688 75.683594 C 145.695312 75.742188 146 75.796875 146.339844 75.835938 C 146.6875 75.875 147.050781 75.925781 147.417969 75.984375 C 147.789062 76.039062 148.164062 76.101562 148.542969 76.183594 C 148.921875 76.265625 149.285156 76.390625 149.621094 76.5625 C 149.960938 76.734375 150.257812 76.949219 150.515625 77.199219 C 150.78125 77.441406 150.992188 77.769531 151.148438 78.183594 C 151.300781 78.601562 151.378906 79.078125 151.378906 79.625 C 151.378906 80.757812 150.925781 81.675781 150.023438 82.382812 C 149.128906 83.089844 147.875 83.441406 146.261719 83.441406 C 144.636719 83.441406 143.414062 83.109375 142.582031 82.441406 C 141.75 81.769531 141.316406 80.832031 141.285156 79.636719 Z M 141.285156 79.636719 "/>
<path style=" stroke:none;fill-rule:nonzero;fill:rgb(0%,0%,0%);fill-opacity:1;" d="M 152.988281 77.488281 C 152.988281 75.691406 153.476562 74.226562 154.453125 73.105469 C 155.429688 71.984375 156.703125 71.425781 158.273438 71.425781 C 159.082031 71.425781 159.769531 71.589844 160.324219 71.925781 C 160.878906 72.25 161.289062 72.613281 161.558594 73.015625 L 161.742188 73.015625 L 161.742188 71.710938 L 165.148438 71.710938 L 165.148438 83.15625 L 161.757812 83.15625 L 161.757812 81.851562 L 161.574219 81.851562 C 161.480469 82.015625 161.347656 82.175781 161.1875 82.335938 C 161.03125 82.488281 160.824219 82.652344 160.570312 82.835938 C 160.3125 83.019531 159.988281 83.160156 159.601562 83.277344 C 159.21875 83.386719 158.800781 83.441406 158.351562 83.441406 C 156.75 83.441406 155.457031 82.90625 154.46875 81.820312 C 153.484375 80.730469 152.988281 79.285156 152.988281 77.488281 Z M 156.441406 77.425781 C 156.441406 78.316406 156.6875 79.03125 157.179688 79.578125 C 157.675781 80.125 158.320312 80.394531 159.121094 80.394531 C 159.929688 80.394531 160.578125 80.121094 161.0625 79.5625 C 161.558594 79 161.804688 78.285156 161.804688 77.425781 C 161.804688 76.527344 161.550781 75.8125 161.046875 75.273438 C 160.542969 74.726562 159.898438 74.457031 159.105469 74.457031 C 158.3125 74.457031 157.675781 74.734375 157.179688 75.289062 C 156.6875 75.835938 156.441406 76.546875 156.441406 77.425781 Z M 156.441406 77.425781 "/>
<path style=" stroke:none;fill-rule:nonzero;fill:rgb(0%,0%,0%);fill-opacity:1;" d="M 167.007812 79.636719 L 170.105469 79.636719 C 170.144531 80.03125 170.328125 80.335938 170.660156 80.546875 C 170.988281 80.753906 171.433594 80.851562 172 80.851562 C 172.574219 80.851562 173.015625 80.761719 173.324219 80.578125 C 173.640625 80.386719 173.804688 80.132812 173.804688 79.804688 C 173.804688 79.554688 173.703125 79.351562 173.511719 79.199219 C 173.324219 79.046875 173.078125 78.941406 172.769531 78.878906 C 172.460938 78.820312 172.109375 78.757812 171.707031 78.699219 C 171.316406 78.628906 170.914062 78.570312 170.503906 78.515625 C 170.09375 78.457031 169.6875 78.347656 169.289062 78.183594 C 168.894531 78.023438 168.550781 77.828125 168.242188 77.59375 C 167.941406 77.359375 167.695312 77.027344 167.5 76.59375 C 167.316406 76.160156 167.222656 75.648438 167.222656 75.0625 C 167.222656 74.042969 167.644531 73.183594 168.488281 72.484375 C 169.339844 71.78125 170.511719 71.425781 172.015625 71.425781 C 173.390625 71.425781 174.511719 71.742188 175.375 72.378906 C 176.246094 73.007812 176.71875 73.902344 176.792969 75.0625 L 173.832031 75.0625 C 173.78125 74.710938 173.601562 74.425781 173.292969 74.210938 C 172.988281 74 172.558594 73.894531 172.015625 73.894531 C 171.492188 73.894531 171.074219 73.992188 170.769531 74.183594 C 170.460938 74.363281 170.304688 74.605469 170.304688 74.910156 C 170.304688 75.113281 170.382812 75.273438 170.535156 75.394531 C 170.691406 75.515625 170.894531 75.613281 171.152344 75.683594 C 171.417969 75.742188 171.722656 75.796875 172.0625 75.835938 C 172.410156 75.875 172.769531 75.925781 173.140625 75.984375 C 173.511719 76.039062 173.882812 76.101562 174.265625 76.183594 C 174.644531 76.265625 175.003906 76.390625 175.34375 76.5625 C 175.683594 76.734375 175.980469 76.949219 176.238281 77.199219 C 176.503906 77.441406 176.714844 77.769531 176.871094 78.183594 C 177.023438 78.601562 177.101562 79.078125 177.101562 79.625 C 177.101562 80.757812 176.644531 81.675781 175.746094 82.382812 C 174.851562 83.089844 173.59375 83.441406 171.984375 83.441406 C 170.359375 83.441406 169.132812 83.109375 168.300781 82.441406 C 167.46875 81.769531 167.039062 80.832031 167.007812 79.636719 Z M 167.007812 79.636719 "/>
<path style=" stroke:none;fill-rule:nonzero;fill:rgb(0%,0%,0%);fill-opacity:1;" d="M 184.394531 77.488281 C 184.394531 75.691406 184.882812 74.226562 185.859375 73.105469 C 186.835938 71.984375 188.109375 71.425781 189.679688 71.425781 C 190.488281 71.425781 191.175781 71.589844 191.730469 71.925781 C 192.285156 72.25 192.695312 72.613281 192.964844 73.015625 L 193.148438 73.015625 L 193.148438 66.894531 L 196.554688 66.894531 L 196.554688 83.15625 L 193.164062 83.15625 L 193.164062 81.851562 L 192.980469 81.851562 C 192.886719 82.015625 192.753906 82.175781 192.59375 82.335938 C 192.4375 82.488281 192.230469 82.652344 191.976562 82.835938 C 191.71875 83.019531 191.394531 83.160156 191.007812 83.277344 C 190.625 83.386719 190.210938 83.441406 189.757812 83.441406 C 188.15625 83.441406 186.863281 82.90625 185.875 81.820312 C 184.890625 80.730469 184.394531 79.285156 184.394531 77.488281 Z M 187.847656 77.425781 C 187.847656 78.316406 188.09375 79.03125 188.585938 79.578125 C 189.082031 80.125 189.726562 80.394531 190.527344 80.394531 C 191.335938 80.394531 191.984375 80.121094 192.46875 79.5625 C 192.964844 79 193.210938 78.285156 193.210938 77.425781 C 193.210938 76.527344 192.957031 75.8125 192.453125 75.273438 C 191.949219 74.726562 191.304688 74.457031 190.511719 74.457031 C 189.71875 74.457031 189.082031 74.734375 188.585938 75.289062 C 188.09375 75.835938 187.847656 76.546875 187.847656 77.425781 Z M 187.847656 77.425781 "/>
<path style=" stroke:none;fill-rule:nonzero;fill:rgb(0%,0%,0%);fill-opacity:1;" d="M 198.414062 77.488281 C 198.414062 75.699219 198.960938 74.242188 200.0625 73.121094 C 201.171875 71.992188 202.613281 71.425781 204.394531 71.425781 C 205.316406 71.425781 206.152344 71.585938 206.90625 71.910156 C 207.652344 72.222656 208.265625 72.660156 208.738281 73.210938 C 209.21875 73.757812 209.585938 74.390625 209.832031 75.105469 C 210.085938 75.828125 210.21875 76.585938 210.21875 77.378906 L 210.21875 78.351562 L 201.648438 78.351562 C 201.710938 79.089844 201.992188 79.691406 202.496094 80.152344 C 203 80.621094 203.652344 80.851562 204.453125 80.851562 C 205.089844 80.851562 205.628906 80.726562 206.074219 80.472656 C 206.523438 80.210938 206.84375 79.882812 207.027344 79.488281 L 210.109375 79.488281 C 209.839844 80.699219 209.199219 81.664062 208.183594 82.382812 C 207.167969 83.089844 205.875 83.441406 204.316406 83.441406 C 203.207031 83.441406 202.195312 83.1875 201.296875 82.683594 C 200.402344 82.167969 199.695312 81.457031 199.183594 80.546875 C 198.667969 79.636719 198.414062 78.621094 198.414062 77.488281 Z M 201.710938 76.121094 L 207.058594 76.121094 C 206.984375 75.507812 206.707031 74.996094 206.226562 74.589844 C 205.742188 74.191406 205.132812 73.984375 204.394531 73.984375 C 203.683594 73.984375 203.074219 74.199219 202.574219 74.621094 C 202.082031 75.039062 201.792969 75.539062 201.710938 76.121094 Z M 201.710938 76.121094 "/>
<path style=" stroke:none;fill-rule:nonzero;fill:rgb(0%,0%,0%);fill-opacity:1;" d="M 212.464844 79.546875 L 212.464844 66.894531 L 215.902344 66.894531 L 215.902344 79.167969 C 215.902344 79.859375 216.21875 80.199219 216.855469 80.199219 L 217.289062 80.199219 L 217.289062 83.15625 L 216.101562 83.15625 C 214.949219 83.15625 214.058594 82.835938 213.421875 82.199219 C 212.78125 81.5625 212.464844 80.679688 212.464844 79.546875 Z M 212.464844 79.546875 "/>
<path style=" stroke:none;fill-rule:nonzero;fill:rgb(0%,0%,0%);fill-opacity:1;" d="M 225.265625 88.140625 L 225.265625 71.710938 L 228.65625 71.710938 L 228.65625 72.984375 L 228.828125 72.984375 C 228.925781 72.824219 229.058594 72.667969 229.210938 72.515625 C 229.367188 72.355469 229.570312 72.191406 229.828125 72.015625 C 230.082031 71.832031 230.40625 71.691406 230.800781 71.589844 C 231.1875 71.480469 231.609375 71.425781 232.0625 71.425781 C 233.652344 71.425781 234.945312 71.964844 235.929688 73.046875 C 236.925781 74.128906 237.425781 75.570312 237.425781 77.363281 C 237.425781 79.164062 236.933594 80.632812 235.960938 81.761719 C 234.984375 82.882812 233.714844 83.441406 232.15625 83.441406 C 231.570312 83.441406 231.035156 83.34375 230.550781 83.15625 C 230.066406 82.972656 229.707031 82.777344 229.457031 82.5625 C 229.210938 82.34375 229.015625 82.105469 228.875 81.851562 L 228.703125 81.851562 L 228.703125 88.140625 Z M 228.625 77.425781 C 228.625 78.328125 228.875 79.046875 229.367188 79.59375 C 229.859375 80.132812 230.5 80.394531 231.292969 80.394531 C 232.082031 80.394531 232.726562 80.125 233.21875 79.578125 C 233.710938 79.023438 233.957031 78.304688 233.957031 77.425781 C 233.957031 76.527344 233.710938 75.8125 233.21875 75.273438 C 232.726562 74.726562 232.082031 74.457031 231.292969 74.457031 C 230.480469 74.457031 229.832031 74.734375 229.351562 75.289062 C 228.867188 75.847656 228.625 76.558594 228.625 77.425781 Z M 228.625 77.425781 "/>
<path style=" stroke:none;fill-rule:nonzero;fill:rgb(0%,0%,0%);fill-opacity:1;" d="M 239.664062 83.15625 L 239.664062 71.710938 L 242.882812 71.710938 L 242.882812 73.441406 L 243.066406 73.441406 C 243.292969 72.949219 243.667969 72.515625 244.191406 72.152344 C 244.722656 71.789062 245.347656 71.605469 246.058594 71.605469 L 247.195312 71.605469 L 247.195312 74.773438 L 245.839844 74.773438 C 244.996094 74.773438 244.332031 75.058594 243.839844 75.621094 C 243.34375 76.191406 243.097656 76.964844 243.097656 77.941406 L 243.097656 83.15625 Z M 239.664062 83.15625 "/>
<path style=" stroke:none;fill-rule:nonzero;fill:rgb(0%,0%,0%);fill-opacity:1;" d="M 249.429688 83.15625 L 249.429688 71.710938 L 252.863281 71.710938 L 252.863281 83.15625 Z M 249.765625 70.074219 L 250.84375 66.785156 L 254.113281 66.785156 L 252.078125 70.074219 Z M 249.765625 70.074219 "/>
<path style=" stroke:none;fill-rule:nonzero;fill:rgb(0%,0%,0%);fill-opacity:1;" d="M 255.347656 83.15625 L 255.347656 71.710938 L 258.570312 71.710938 L 258.570312 72.953125 L 258.753906 72.953125 C 259.007812 72.523438 259.410156 72.160156 259.957031 71.863281 C 260.5 71.570312 261.144531 71.425781 261.882812 71.425781 C 263.144531 71.425781 264.152344 71.8125 264.902344 72.574219 C 265.660156 73.332031 266.042969 74.316406 266.042969 75.515625 L 266.042969 83.15625 L 262.636719 83.15625 L 262.636719 76.5625 C 262.636719 75.957031 262.46875 75.472656 262.128906 75.105469 C 261.789062 74.734375 261.332031 74.546875 260.757812 74.546875 C 260.171875 74.546875 259.695312 74.757812 259.324219 75.183594 C 258.960938 75.597656 258.785156 76.117188 258.785156 76.742188 L 258.785156 83.15625 Z M 255.347656 83.15625 "/>
<path style=" stroke:none;fill-rule:nonzero;fill:rgb(0%,0%,0%);fill-opacity:1;" d="M 267.921875 77.425781 C 267.921875 76.304688 268.171875 75.289062 268.664062 74.378906 C 269.164062 73.46875 269.882812 72.753906 270.820312 72.226562 C 271.765625 71.691406 272.847656 71.425781 274.070312 71.425781 C 275.675781 71.425781 277.015625 71.859375 278.09375 72.726562 C 279.171875 73.597656 279.792969 74.734375 279.957031 76.136719 L 276.492188 76.136719 C 276.335938 75.644531 276.042969 75.238281 275.613281 74.925781 C 275.179688 74.613281 274.671875 74.457031 274.085938 74.457031 C 273.261719 74.457031 272.609375 74.738281 272.113281 75.304688 C 271.621094 75.871094 271.375 76.578125 271.375 77.425781 C 271.375 78.285156 271.625 79 272.128906 79.5625 C 272.632812 80.121094 273.289062 80.394531 274.101562 80.394531 C 274.664062 80.394531 275.15625 80.257812 275.582031 79.972656 C 276 79.679688 276.289062 79.300781 276.445312 78.835938 L 279.925781 78.835938 C 279.742188 80.199219 279.113281 81.3125 278.046875 82.167969 C 276.988281 83.019531 275.667969 83.441406 274.085938 83.441406 C 272.863281 83.441406 271.78125 83.171875 270.835938 82.640625 C 269.886719 82.105469 269.164062 81.382812 268.664062 80.472656 C 268.171875 79.554688 267.921875 78.539062 267.921875 77.425781 Z M 267.921875 77.425781 "/>
<path style=" stroke:none;fill-rule:nonzero;fill:rgb(0%,0%,0%);fill-opacity:1;" d="M 282.457031 69.925781 C 282.089844 69.589844 281.902344 69.152344 281.902344 68.605469 C 281.902344 68.050781 282.089844 67.613281 282.457031 67.285156 C 282.835938 66.953125 283.324219 66.785156 283.921875 66.785156 C 284.515625 66.785156 285 66.953125 285.371094 67.285156 C 285.742188 67.613281 285.925781 68.050781 285.925781 68.605469 C 285.925781 69.164062 285.742188 69.605469 285.371094 69.9375 C 285 70.265625 284.515625 70.425781 283.921875 70.425781 C 283.324219 70.425781 282.835938 70.257812 282.457031 69.925781 Z M 282.210938 83.15625 L 282.210938 71.710938 L 285.648438 71.710938 L 285.648438 83.15625 Z M 282.210938 83.15625 "/>
<path style=" stroke:none;fill-rule:nonzero;fill:rgb(0%,0%,0%);fill-opacity:1;" d="M 288.132812 88.140625 L 288.132812 71.710938 L 291.523438 71.710938 L 291.523438 72.984375 L 291.691406 72.984375 C 291.792969 72.824219 291.925781 72.667969 292.078125 72.515625 C 292.234375 72.355469 292.4375 72.191406 292.695312 72.015625 C 292.949219 71.832031 293.273438 71.691406 293.664062 71.589844 C 294.054688 71.480469 294.472656 71.425781 294.929688 71.425781 C 296.519531 71.425781 297.808594 71.964844 298.796875 73.046875 C 299.789062 74.128906 300.292969 75.570312 300.292969 77.363281 C 300.292969 79.164062 299.800781 80.632812 298.828125 81.761719 C 297.847656 82.882812 296.582031 83.441406 295.019531 83.441406 C 294.4375 83.441406 293.902344 83.34375 293.417969 83.15625 C 292.933594 82.972656 292.570312 82.777344 292.324219 82.5625 C 292.078125 82.34375 291.882812 82.105469 291.738281 81.851562 L 291.570312 81.851562 L 291.570312 88.140625 Z M 291.492188 77.425781 C 291.492188 78.328125 291.738281 79.046875 292.234375 79.59375 C 292.726562 80.132812 293.363281 80.394531 294.160156 80.394531 C 294.949219 80.394531 295.589844 80.125 296.085938 79.578125 C 296.578125 79.023438 296.824219 78.304688 296.824219 77.425781 C 296.824219 76.527344 296.578125 75.8125 296.085938 75.273438 C 295.589844 74.726562 294.949219 74.457031 294.160156 74.457031 C 293.347656 74.457031 292.699219 74.734375 292.21875 75.289062 C 291.730469 75.847656 291.492188 76.558594 291.492188 77.425781 Z M 291.492188 77.425781 "/>
<path style=" stroke:none;fill-rule:nonzero;fill:rgb(0%,0%,0%);fill-opacity:1;" d="M 301.882812 77.488281 C 301.882812 75.699219 302.429688 74.242188 303.53125 73.121094 C 304.640625 71.992188 306.082031 71.425781 307.859375 71.425781 C 308.785156 71.425781 309.621094 71.585938 310.371094 71.910156 C 311.117188 72.222656 311.730469 72.660156 312.207031 73.210938 C 312.6875 73.757812 313.054688 74.390625 313.300781 75.105469 C 313.554688 75.828125 313.683594 76.585938 313.683594 77.378906 L 313.683594 78.351562 L 305.117188 78.351562 C 305.179688 79.089844 305.460938 79.691406 305.964844 80.152344 C 306.464844 80.621094 307.121094 80.851562 307.921875 80.851562 C 308.558594 80.851562 309.097656 80.726562 309.539062 80.472656 C 309.992188 80.210938 310.308594 79.882812 310.496094 79.488281 L 313.578125 79.488281 C 313.308594 80.699219 312.667969 81.664062 311.652344 82.382812 C 310.632812 83.089844 309.34375 83.441406 307.78125 83.441406 C 306.671875 83.441406 305.664062 83.1875 304.761719 82.683594 C 303.871094 82.167969 303.164062 81.457031 302.652344 80.546875 C 302.136719 79.636719 301.882812 78.621094 301.882812 77.488281 Z M 305.179688 76.121094 L 310.527344 76.121094 C 310.453125 75.507812 310.175781 74.996094 309.695312 74.589844 C 309.207031 74.191406 308.601562 73.984375 307.859375 73.984375 C 307.152344 73.984375 306.542969 74.199219 306.042969 74.621094 C 305.550781 75.039062 305.261719 75.539062 305.179688 76.121094 Z M 305.179688 76.121094 "/>
<path style=" stroke:none;fill-rule:nonzero;fill:rgb(0%,0%,0%);fill-opacity:1;" d="M 315.65625 72.332031 C 315.65625 71.476562 315.832031 70.703125 316.195312 70.015625 C 316.566406 69.316406 317.125 68.757812 317.875 68.332031 C 318.621094 67.910156 319.523438 67.695312 320.570312 67.695312 C 322.152344 67.695312 323.394531 68.117188 324.300781 68.953125 C 325.203125 69.785156 325.65625 70.859375 325.65625 72.183594 C 325.65625 73.679688 324.855469 74.941406 323.253906 75.972656 L 322.144531 76.742188 C 321.648438 77.101562 321.402344 77.539062 321.402344 78.0625 L 321.402344 78.621094 L 318.335938 78.621094 L 318.335938 77.714844 C 318.335938 77.015625 318.480469 76.433594 318.769531 75.957031 C 319.054688 75.472656 319.492188 75.03125 320.078125 74.636719 L 321.296875 73.789062 C 321.621094 73.539062 321.867188 73.289062 322.019531 73.046875 C 322.179688 72.804688 322.265625 72.515625 322.265625 72.183594 C 322.265625 71.738281 322.113281 71.375 321.804688 71.089844 C 321.503906 70.800781 321.078125 70.652344 320.523438 70.652344 C 319.957031 70.652344 319.527344 70.8125 319.230469 71.136719 C 318.929688 71.449219 318.773438 71.847656 318.753906 72.332031 Z M 318 81.640625 C 318 81.136719 318.175781 80.710938 318.539062 80.367188 C 318.90625 80.011719 319.347656 79.835938 319.863281 79.835938 C 320.417969 79.835938 320.867188 80.007812 321.21875 80.351562 C 321.566406 80.695312 321.742188 81.125 321.742188 81.640625 C 321.742188 82.164062 321.566406 82.601562 321.21875 82.941406 C 320.878906 83.277344 320.425781 83.441406 319.863281 83.441406 C 319.339844 83.441406 318.894531 83.277344 318.539062 82.941406 C 318.175781 82.601562 318 82.164062 318 81.640625 Z M 318 81.640625 "/>
<path style=" stroke:none;fill-rule:nonzero;fill:rgb(99.215686%,37.254902%,9.803922%);fill-opacity:1;" d="M 357.019531 248.050781 L 244.789062 248.050781 C 243.148438 248.050781 241.828125 249.335938 241.828125 250.941406 L 241.828125 299.628906 C 241.828125 301.234375 243.148438 302.523438 244.789062 302.523438 L 357.019531 302.523438 C 358.660156 302.523438 359.980469 301.234375 359.980469 299.628906 L 359.980469 250.941406 C 359.980469 249.335938 358.660156 248.050781 357.019531 248.050781 Z M 357.019531 248.050781 "/>
<path style=" stroke:none;fill-rule:nonzero;fill:rgb(7.45098%,29.411765%,91.764706%);fill-opacity:1;" d="M 357.019531 343.921875 L 244.789062 343.921875 C 243.148438 343.921875 241.828125 345.210938 241.828125 346.8125 L 241.828125 395.503906 C 241.828125 397.105469 243.148438 398.398438 244.789062 398.398438 L 357.019531 398.398438 C 358.660156 398.398438 359.980469 397.105469 359.980469 395.503906 L 359.980469 346.8125 C 359.980469 345.210938 358.660156 343.921875 357.019531 343.921875 Z M 357.019531 343.921875 "/>
<path style=" stroke:none;fill-rule:nonzero;fill:rgb(100%,100%,100%);fill-opacity:1;" d="M 270.0625 173.222656 L 273.46875 173.222656 L 276.597656 182.511719 L 276.75 182.511719 L 279.894531 173.222656 L 283.269531 173.222656 L 278.230469 186.585938 L 275.054688 186.585938 Z M 270.0625 173.222656 "/>
<path style=" stroke:none;fill-rule:nonzero;fill:rgb(100%,100%,100%);fill-opacity:1;" d="M 284.855469 186.585938 L 284.855469 173.222656 L 293.453125 173.222656 L 293.453125 175.796875 L 287.921875 175.796875 L 287.921875 178.570312 L 292.636719 178.570312 L 292.636719 181.148438 L 287.921875 181.148438 L 287.921875 183.980469 L 293.667969 183.980469 L 293.667969 186.585938 Z M 284.855469 186.585938 "/>
<path style=" stroke:none;fill-rule:nonzero;fill:rgb(100%,100%,100%);fill-opacity:1;" d="M 295.757812 186.585938 L 295.757812 173.222656 L 301.070312 173.222656 C 302.464844 173.222656 303.617188 173.628906 304.523438 174.449219 C 305.425781 175.265625 305.878906 176.328125 305.878906 177.632812 C 305.878906 178.503906 305.65625 179.277344 305.21875 179.964844 C 304.773438 180.644531 304.191406 181.164062 303.476562 181.527344 L 306.371094 186.585938 L 302.953125 186.585938 L 300.640625 182.117188 L 298.824219 182.117188 L 298.824219 186.585938 Z M 298.824219 179.539062 L 300.808594 179.539062 C 301.382812 179.539062 301.851562 179.375 302.210938 179.039062 C 302.570312 178.699219 302.75 178.230469 302.75 177.632812 C 302.75 177.078125 302.570312 176.628906 302.210938 176.296875 C 301.851562 175.964844 301.367188 175.796875 300.765625 175.796875 L 298.824219 175.796875 Z M 298.824219 179.539062 "/>
<path style=" stroke:none;fill-rule:nonzero;fill:rgb(100%,100%,100%);fill-opacity:1;" d="M 308.316406 186.585938 L 308.316406 173.222656 L 313.152344 173.222656 C 314.207031 173.222656 315.179688 173.382812 316.066406 173.707031 C 316.945312 174.03125 317.6875 174.484375 318.285156 175.070312 C 318.878906 175.644531 319.335938 176.34375 319.65625 177.160156 C 319.984375 177.980469 320.148438 178.875 320.148438 179.84375 C 320.148438 181.925781 319.519531 183.570312 318.269531 184.785156 C 317.023438 185.988281 315.316406 186.585938 313.152344 186.585938 Z M 311.378906 183.964844 L 313.015625 183.964844 C 313.421875 183.964844 313.816406 183.921875 314.183594 183.828125 C 314.554688 183.738281 314.910156 183.59375 315.25 183.390625 C 315.585938 183.1875 315.878906 182.929688 316.125 182.617188 C 316.375 182.304688 316.566406 181.917969 316.710938 181.449219 C 316.867188 180.976562 316.941406 180.441406 316.941406 179.84375 C 316.941406 179.148438 316.828125 178.535156 316.605469 178.011719 C 316.386719 177.488281 316.089844 177.070312 315.710938 176.765625 C 315.339844 176.457031 314.925781 176.222656 314.460938 176.070312 C 314.007812 175.917969 313.527344 175.84375 313.015625 175.84375 L 311.378906 175.84375 Z M 311.378906 183.964844 "/>
<path style=" stroke:none;fill-rule:nonzero;fill:rgb(100%,100%,100%);fill-opacity:1;" d="M 322.226562 186.585938 L 322.226562 173.222656 L 330.828125 173.222656 L 330.828125 175.796875 L 325.292969 175.796875 L 325.292969 178.570312 L 330.007812 178.570312 L 330.007812 181.148438 L 325.292969 181.148438 L 325.292969 183.980469 L 331.042969 183.980469 L 331.042969 186.585938 Z M 322.226562 186.585938 "/>
<path style=" stroke:none;fill-rule:nonzero;fill:rgb(100%,100%,100%);fill-opacity:1;" d="M 255.152344 281.6875 L 255.152344 268.320312 L 258.558594 268.320312 L 263.75 276.730469 L 263.875 276.730469 L 263.875 268.320312 L 266.832031 268.320312 L 266.832031 281.6875 L 263.425781 281.6875 L 258.234375 273.289062 L 258.128906 273.289062 L 258.128906 281.6875 Z M 255.152344 281.6875 "/>
<path style=" stroke:none;fill-rule:nonzero;fill:rgb(100%,100%,100%);fill-opacity:1;" d="M 268.433594 281.6875 L 273.042969 268.320312 L 276.96875 268.320312 L 281.640625 281.6875 L 278.386719 281.6875 L 277.570312 279.320312 L 272.363281 279.320312 L 271.5625 281.6875 Z M 273.195312 276.625 L 276.738281 276.625 L 275.058594 271.636719 L 274.890625 271.636719 Z M 273.195312 276.625 "/>
<path style=" stroke:none;fill-rule:nonzero;fill:rgb(100%,100%,100%);fill-opacity:1;" d="M 283.226562 281.6875 L 283.226562 268.320312 L 288.542969 268.320312 C 289.9375 268.320312 291.089844 268.726562 291.996094 269.546875 C 292.894531 270.363281 293.351562 271.425781 293.351562 272.730469 C 293.351562 273.601562 293.128906 274.378906 292.6875 275.0625 C 292.246094 275.742188 291.664062 276.261719 290.945312 276.625 L 293.84375 281.6875 L 290.421875 281.6875 L 288.113281 277.214844 L 286.292969 277.214844 L 286.292969 281.6875 Z M 286.292969 274.640625 L 288.28125 274.640625 C 288.855469 274.640625 289.320312 274.472656 289.683594 274.140625 C 290.042969 273.796875 290.222656 273.328125 290.222656 272.730469 C 290.222656 272.175781 290.042969 271.730469 289.683594 271.394531 C 289.320312 271.0625 288.839844 270.894531 288.234375 270.894531 L 286.292969 270.894531 Z M 286.292969 274.640625 "/>
<path style=" stroke:none;fill-rule:nonzero;fill:rgb(100%,100%,100%);fill-opacity:1;" d="M 294.707031 281.6875 L 299.3125 268.320312 L 303.242188 268.320312 L 307.914062 281.6875 L 304.660156 281.6875 L 303.84375 279.320312 L 298.636719 279.320312 L 297.835938 281.6875 Z M 299.46875 276.625 L 303.011719 276.625 L 301.332031 271.636719 L 301.164062 271.636719 Z M 299.46875 276.625 "/>
<path style=" stroke:none;fill-rule:nonzero;fill:rgb(100%,100%,100%);fill-opacity:1;" d="M 309.5 281.6875 L 309.5 268.320312 L 312.90625 268.320312 L 318.097656 276.730469 L 318.222656 276.730469 L 318.222656 268.320312 L 321.179688 268.320312 L 321.179688 281.6875 L 317.773438 281.6875 L 312.582031 273.289062 L 312.472656 273.289062 L 312.472656 281.6875 Z M 309.5 281.6875 "/>
<path style=" stroke:none;fill-rule:nonzero;fill:rgb(100%,100%,100%);fill-opacity:1;" d="M 323.105469 277.382812 L 326.015625 277.382812 C 326.015625 277.921875 326.175781 278.351562 326.496094 278.683594 C 326.824219 279.011719 327.289062 279.171875 327.898438 279.171875 C 328.542969 279.171875 329.015625 278.972656 329.316406 278.578125 C 329.621094 278.175781 329.777344 277.679688 329.777344 277.09375 L 329.777344 270.941406 L 325.460938 270.941406 L 325.460938 268.320312 L 332.875 268.320312 L 332.875 277.246094 C 332.875 278.679688 332.425781 279.816406 331.535156 280.65625 C 330.648438 281.496094 329.441406 281.914062 327.914062 281.914062 C 326.390625 281.914062 325.207031 281.503906 324.367188 280.6875 C 323.523438 279.867188 323.105469 278.769531 323.105469 277.382812 Z M 323.105469 277.382812 "/>
<path style=" stroke:none;fill-rule:nonzero;fill:rgb(100%,100%,100%);fill-opacity:1;" d="M 334.324219 281.6875 L 338.933594 268.320312 L 342.863281 268.320312 L 347.53125 281.6875 L 344.28125 281.6875 L 343.464844 279.320312 L 338.253906 279.320312 L 337.453125 281.6875 Z M 339.085938 276.625 L 342.632812 276.625 L 340.953125 271.636719 L 340.78125 271.636719 Z M 339.085938 276.625 "/>
<path style=" stroke:none;fill-rule:nonzero;fill:rgb(100%,100%,100%);fill-opacity:1;" d="M 276.1875 377.558594 L 280.796875 364.191406 L 284.726562 364.191406 L 289.394531 377.558594 L 286.144531 377.558594 L 285.328125 375.191406 L 280.117188 375.191406 L 279.316406 377.558594 Z M 280.949219 372.496094 L 284.496094 372.496094 L 282.816406 367.507812 L 282.644531 367.507812 Z M 280.949219 372.496094 "/>
<path style=" stroke:none;fill-rule:nonzero;fill:rgb(100%,100%,100%);fill-opacity:1;" d="M 290.472656 377.558594 L 290.472656 374.917969 L 296.960938 366.917969 L 296.960938 366.765625 L 290.71875 366.765625 L 290.71875 364.191406 L 300.90625 364.191406 L 300.90625 366.8125 L 294.386719 374.8125 L 294.386719 374.949219 L 300.9375 374.949219 L 300.9375 377.558594 Z M 290.472656 377.558594 "/>
<path style=" stroke:none;fill-rule:nonzero;fill:rgb(100%,100%,100%);fill-opacity:1;" d="M 302.976562 372.480469 L 302.976562 364.191406 L 306.074219 364.191406 L 306.074219 372.449219 C 306.074219 373.238281 306.277344 373.855469 306.6875 374.296875 C 307.109375 374.734375 307.714844 374.949219 308.507812 374.949219 C 309.308594 374.949219 309.914062 374.734375 310.324219 374.296875 C 310.746094 373.855469 310.957031 373.234375 310.957031 372.433594 L 310.957031 364.191406 L 314.039062 364.191406 L 314.039062 372.449219 C 314.039062 374.054688 313.53125 375.355469 312.511719 376.34375 C 311.503906 377.324219 310.171875 377.816406 308.507812 377.816406 C 306.851562 377.816406 305.519531 377.324219 304.5 376.34375 C 303.484375 375.355469 302.976562 374.066406 302.976562 372.480469 Z M 302.976562 372.480469 "/>
<path style=" stroke:none;fill-rule:nonzero;fill:rgb(100%,100%,100%);fill-opacity:1;" d="M 316.582031 377.558594 L 316.582031 364.191406 L 319.648438 364.191406 L 319.648438 374.859375 L 324.964844 374.859375 L 324.964844 377.558594 Z M 316.582031 377.558594 "/>
</g>
</svg>
