<?xml version="1.0" encoding="UTF-8"?><svg xmlns="http://www.w3.org/2000/svg" xmlns:xlink="http://www.w3.org/1999/xlink" contentScriptType="text/ecmascript" width="504pt" zoomAndPan="magnify" contentStyleType="text/css" viewBox="0 0 504 359.999987" height="359.999987pt" preserveAspectRatio="xMidYMid meet" version="1.2"><defs><g/></defs><g xml:id="surface1" id="surface1"><path style=" stroke:none;fill-rule:nonzero;fill:rgb(38.038635%,67.449951%,84.709167%);fill-opacity:1;" d="M 483.933594 341.117188 L 20.066406 341.117188 C 9.011719 341.117188 0.00390625 332.109375 0.00390625 321.054688 L 0.00390625 29.675781 C 0.00390625 18.621094 9.011719 9.617188 20.066406 9.617188 L 483.933594 9.617188 C 494.988281 9.617188 503.996094 18.621094 503.996094 29.675781 L 503.996094 321.054688 C 503.996094 332.109375 494.988281 341.117188 483.933594 341.117188 Z M 483.933594 341.117188 "/><g clip-rule="nonzero"><path style=" stroke:none;fill-rule:nonzero;fill:rgb(2.749634%,47.059631%,78.039551%);fill-opacity:1;" d="M 182.117188 213.269531 L 191.730469 221.148438 C 195.808594 224.503906 200.285156 227.183594 205.160156 229.199219 L 206.117188 229.589844 C 208.757812 230.679688 211.46875 231.546875 214.253906 232.195312 L 246.089844 239.644531 L 251.707031 234.292969 L 217.464844 225.828125 C 214.855469 225.1875 212.308594 224.351562 209.824219 223.320312 C 205.359375 221.46875 201.222656 219.046875 197.417969 216.0625 L 185.722656 206.886719 C 184.257812 206.132812 185.925781 207.816406 184.734375 208.953125 L 181.289062 207.527344 C 181.082031 207.722656 180.902344 207.941406 180.75 208.179688 C 180.597656 208.417969 180.472656 208.671875 180.382812 208.941406 C 180.289062 209.210938 180.226562 209.484375 180.203125 209.765625 C 180.175781 210.050781 180.179688 210.332031 180.222656 210.613281 C 180.261719 210.894531 180.335938 211.167969 180.441406 211.429688 C 180.546875 211.691406 180.683594 211.941406 180.847656 212.171875 C 181.011719 212.402344 181.199219 212.613281 181.414062 212.796875 C 181.628906 212.984375 181.863281 213.140625 182.117188 213.269531 Z M 182.117188 213.269531 "/></g><path style=" stroke:none;fill-rule:nonzero;fill:rgb(2.749634%,47.059631%,78.039551%);fill-opacity:1;" d="M 477.367188 207.960938 L 467.753906 215.839844 C 463.671875 219.1875 459.191406 221.867188 454.3125 223.878906 L 453.355469 224.273438 C 450.714844 225.359375 448 226.226562 445.21875 226.875 L 413.378906 234.324219 L 407.765625 228.96875 L 442.019531 220.511719 C 444.628906 219.875 447.175781 219.046875 449.660156 218.027344 C 454.125 216.171875 458.261719 213.753906 462.066406 210.769531 L 473.761719 201.582031 C 475.226562 200.828125 473.558594 202.511719 474.75 203.648438 L 478.195312 202.222656 C 478.402344 202.417969 478.582031 202.632812 478.734375 202.875 C 478.886719 203.113281 479.007812 203.367188 479.101562 203.632812 C 479.195312 203.902344 479.253906 204.175781 479.28125 204.460938 C 479.308594 204.742188 479.300781 205.023438 479.261719 205.304688 C 479.21875 205.585938 479.148438 205.859375 479.042969 206.121094 C 478.9375 206.382812 478.800781 206.632812 478.636719 206.863281 C 478.472656 207.09375 478.28125 207.300781 478.066406 207.488281 C 477.855469 207.671875 477.621094 207.832031 477.367188 207.960938 Z M 477.367188 207.960938 "/><g clip-rule="nonzero"><path style=" stroke:none;fill-rule:nonzero;fill:rgb(2.749634%,47.059631%,78.039551%);fill-opacity:1;" d="M 294.917969 293.929688 L 295.042969 331.800781 L 275.996094 341.097656 L 310.722656 341.097656 L 310.738281 299.828125 Z M 294.917969 293.929688 "/></g><g clip-rule="nonzero"><path style=" stroke:none;fill-rule:nonzero;fill:rgb(2.749634%,47.059631%,78.039551%);fill-opacity:1;" d="M 365.167969 293.898438 L 365.167969 331.769531 L 384.214844 341.066406 L 349.484375 341.066406 L 349.511719 300.449219 Z M 365.167969 293.898438 "/></g><path style=" stroke:none;fill-rule:nonzero;fill:rgb(100%,56.079102%,61.569214%);fill-opacity:1;" d="M 436.054688 204.5625 C 436.054688 215.070312 419.867188 222.894531 416.789062 232.378906 C 413.597656 242.207031 421.988281 258.039062 416.035156 266.203125 C 410.023438 274.464844 392.34375 271.34375 384.085938 277.371094 C 375.910156 283.328125 373.445312 301.144531 363.613281 304.339844 C 354.132812 307.417969 341.714844 294.550781 331.207031 294.550781 C 320.695312 294.550781 308.296875 307.417969 298.804688 304.339844 C 288.976562 301.144531 286.515625 283.328125 278.332031 277.371094 C 270.070312 271.359375 252.390625 274.480469 246.378906 266.203125 C 240.425781 258.023438 248.816406 242.191406 245.628906 232.378906 C 242.546875 222.894531 226.359375 215.070312 226.359375 204.5625 C 226.359375 194.050781 242.550781 186.226562 245.636719 176.757812 C 248.824219 166.925781 240.433594 151.101562 246.386719 142.933594 C 252.402344 134.667969 270.078125 137.789062 278.335938 131.761719 C 286.515625 125.804688 288.976562 107.988281 298.808594 104.796875 C 308.296875 101.699219 320.703125 114.570312 331.210938 114.570312 C 341.714844 114.570312 354.136719 101.699219 363.617188 104.78125 C 373.441406 107.972656 375.90625 125.789062 384.089844 131.746094 C 392.347656 137.757812 410.03125 134.636719 416.039062 142.917969 C 421.992188 151.101562 413.601562 166.925781 416.792969 176.742188 C 419.867188 186.226562 436.054688 194.046875 436.054688 204.5625 Z M 436.054688 204.5625 "/><path style=" stroke:none;fill-rule:nonzero;fill:rgb(100%,41.178894%,23.139954%);fill-opacity:1;" d="M 476.070312 152.894531 C 476.070312 154.132812 461.347656 153.058594 460.980469 154.191406 C 460.613281 155.324219 473.136719 163.136719 472.425781 164.121094 C 471.714844 165.105469 460.4375 155.566406 459.453125 156.277344 C 458.464844 156.984375 464.0625 170.65625 462.890625 171.039062 C 461.71875 171.417969 458.238281 157.074219 456.996094 157.074219 C 455.757812 157.074219 452.234375 171.402344 451.105469 171.039062 C 449.972656 170.671875 455.515625 156.996094 454.539062 156.277344 C 453.5625 155.554688 442.28125 165.089844 441.566406 164.105469 C 440.847656 163.117188 453.390625 155.355469 453.007812 154.175781 C 452.628906 152.996094 437.917969 154.132812 437.917969 152.878906 C 437.917969 151.625 452.640625 152.714844 453.007812 151.582031 C 453.375 150.449219 440.851562 142.632812 441.566406 141.652344 C 442.277344 140.671875 453.550781 150.199219 454.539062 149.480469 C 455.523438 148.761719 449.929688 135.101562 451.101562 134.722656 C 452.273438 134.34375 455.753906 148.683594 456.996094 148.683594 C 458.234375 148.683594 461.757812 134.351562 462.886719 134.722656 C 464.015625 135.089844 458.472656 148.769531 459.449219 149.480469 C 460.425781 150.191406 471.703125 140.664062 472.425781 141.652344 C 473.144531 142.636719 460.597656 150.402344 460.976562 151.582031 C 461.359375 152.761719 476.070312 151.636719 476.070312 152.894531 Z M 476.070312 152.894531 "/><g clip-rule="nonzero"><path style=" stroke:none;fill-rule:nonzero;fill:rgb(100%,56.079102%,61.569214%);fill-opacity:1;" d="M 479.480469 83.917969 C 480.535156 85.429688 467.875 92.972656 468.257812 94.710938 C 468.640625 96.445312 483.355469 97.625 483.109375 99.445312 C 482.878906 101.183594 468.238281 98.78125 467.457031 100.453125 C 466.714844 102.039062 478.132812 111.5625 476.929688 112.96875 C 475.796875 114.292969 464.546875 104.550781 463.027344 105.613281 C 461.507812 106.675781 466.75 120.597656 465.117188 121.207031 C 463.386719 121.851562 458.398438 107.839844 456.652344 107.992188 C 454.816406 108.144531 452 122.71875 450.296875 122.335938 C 448.515625 121.9375 452.488281 107.722656 450.988281 106.757812 C 449.492188 105.792969 438.042969 115.074219 436.988281 113.5625 C 435.933594 112.054688 448.601562 104.511719 448.214844 102.773438 C 447.824219 101.035156 433.117188 99.851562 433.359375 98.042969 C 433.59375 96.296875 448.25 98.703125 449.011719 97.035156 C 449.746094 95.453125 438.339844 85.921875 439.542969 84.519531 C 440.679688 83.195312 451.921875 92.929688 453.445312 91.871094 C 454.96875 90.808594 449.722656 76.886719 451.351562 76.277344 C 453.085938 75.632812 458.074219 89.640625 459.820312 89.496094 C 461.65625 89.339844 464.472656 74.765625 466.171875 75.148438 C 467.957031 75.546875 463.988281 89.761719 465.480469 90.726562 C 466.976562 91.691406 478.425781 82.421875 479.480469 83.917969 Z M 479.480469 83.917969 "/></g><g clip-rule="nonzero"><path style=" stroke:none;fill-rule:nonzero;fill:rgb(99.609375%,78.039551%,28.62854%);fill-opacity:1;" d="M 421.789062 92.691406 C 421.789062 94.242188 407.015625 93.445312 406.558594 94.863281 C 406.089844 96.320312 418.488281 104.355469 417.609375 105.566406 C 416.726562 106.777344 405.242188 97.464844 404.015625 98.355469 C 402.789062 99.246094 408.132812 113.042969 406.675781 113.515625 C 405.273438 113.96875 401.476562 99.6875 399.917969 99.6875 C 398.359375 99.6875 394.5625 113.960938 393.164062 113.515625 C 391.707031 113.042969 397.035156 99.238281 395.820312 98.355469 C 394.609375 97.472656 383.117188 106.792969 382.226562 105.566406 C 381.335938 104.339844 393.75 96.308594 393.289062 94.851562 C 392.832031 93.445312 378.0625 94.230469 378.0625 92.679688 C 378.0625 91.128906 392.832031 91.921875 393.289062 90.507812 C 393.765625 89.050781 381.359375 81.015625 382.238281 79.800781 C 383.121094 78.589844 394.609375 87.902344 395.832031 87.011719 C 397.054688 86.121094 391.707031 72.355469 393.164062 71.871094 C 394.5625 71.414062 398.363281 85.699219 399.917969 85.699219 C 401.472656 85.699219 405.273438 71.421875 406.675781 71.871094 C 408.132812 72.34375 402.804688 86.144531 404.015625 87.027344 C 405.226562 87.914062 416.71875 78.605469 417.609375 79.828125 C 418.5 81.050781 406.089844 89.074219 406.558594 90.53125 C 407.015625 91.933594 421.789062 91.132812 421.789062 92.691406 Z M 421.789062 92.691406 "/></g><path style="fill:none;stroke-width:10;stroke-linecap:butt;stroke-linejoin:round;stroke:rgb(0%,0%,0%);stroke-opacity:1;stroke-miterlimit:4;" d="M 441.918488 336.594614 C 441.918488 355.073845 424.653787 370.066191 403.37199 370.066191 C 382.0776 370.066191 364.825492 355.061257 364.825492 336.594614 " transform="matrix(0.310198,0,0,0.310315,180.183569,71.870092)"/><path style="fill:none;stroke-width:10;stroke-linecap:butt;stroke-linejoin:round;stroke:rgb(0%,0%,0%);stroke-opacity:1;stroke-miterlimit:4;" d="M 610.92618 336.594614 C 610.92618 355.073845 593.66148 370.066191 572.36709 370.066191 C 551.085292 370.066191 533.820592 355.061257 533.820592 336.594614 " transform="matrix(0.310198,0,0,0.310315,180.183569,71.870092)"/><path style="fill:none;stroke-width:11;stroke-linecap:round;stroke-linejoin:round;stroke:rgb(0%,0%,0%);stroke-opacity:1;stroke-miterlimit:4;" d="M 555.870549 448.074225 C 555.870549 469.750816 527.007898 487.336297 491.395518 487.336297 C 455.795731 487.336297 426.920488 469.750816 426.920488 448.074225 " transform="matrix(0.310198,0,0,0.310315,180.183569,71.870092)"/><path style="fill:none;stroke-width:10;stroke-linecap:round;stroke-linejoin:round;stroke:rgb(0%,0%,0%);stroke-opacity:1;stroke-miterlimit:4;" d="M 574.99898 456.608911 C 573.475254 456.608911 571.964121 456.457855 570.46558 456.16833 C 568.967039 455.866217 567.51887 455.425636 566.108478 454.846587 C 564.698087 454.254949 563.35066 453.537431 562.091382 452.694033 C 560.819511 451.850635 559.648382 450.881356 558.565403 449.798786 C 557.482424 448.728803 556.525373 447.545528 555.669064 446.286725 C 554.825348 445.015334 554.107559 443.668414 553.528292 442.258555 C 552.936431 440.848695 552.495684 439.401071 552.193457 437.903096 C 551.903823 436.40512 551.75271 434.894556 551.75271 433.371404 " transform="matrix(0.310198,0,0,0.310315,180.183569,71.870092)"/><path style="fill:none;stroke-width:10;stroke-linecap:round;stroke-linejoin:round;stroke:rgb(0%,0%,0%);stroke-opacity:1;stroke-miterlimit:4;" d="M 406.343886 458.925109 C 407.880205 458.925109 409.391339 458.786641 410.889879 458.484528 C 412.38842 458.182415 413.83659 457.741834 415.246981 457.162784 C 416.657372 456.571147 417.992207 455.853629 419.264078 455.010231 C 420.535948 454.166833 421.707077 453.197554 422.790056 452.114984 C 423.873035 451.045001 424.830086 449.861726 425.686395 448.602923 C 426.530111 447.331531 427.2479 445.984612 427.827168 444.574752 C 428.419028 443.164893 428.859776 441.717269 429.14941 440.219293 C 429.451636 438.721318 429.60275 437.210754 429.60275 435.675014 " transform="matrix(0.310198,0,0,0.310315,180.183569,71.870092)"/><path style=" stroke:none;fill-rule:nonzero;fill:rgb(2.749634%,47.059631%,78.039551%);fill-opacity:1;" d="M 394.160156 194.976562 C 394.160156 195.453125 394.097656 195.929688 393.972656 196.398438 C 393.84375 196.867188 393.65625 197.324219 393.410156 197.765625 C 393.160156 198.207031 392.859375 198.628906 392.496094 199.027344 C 392.136719 199.425781 391.730469 199.792969 391.269531 200.132812 C 390.8125 200.46875 390.3125 200.773438 389.777344 201.039062 C 389.238281 201.304688 388.667969 201.527344 388.070312 201.710938 C 387.472656 201.894531 386.855469 202.035156 386.21875 202.128906 C 385.582031 202.21875 384.941406 202.265625 384.292969 202.265625 C 383.644531 202.265625 383.003906 202.21875 382.367188 202.128906 C 381.734375 202.035156 381.117188 201.894531 380.515625 201.710938 C 379.917969 201.527344 379.351562 201.304688 378.8125 201.039062 C 378.273438 200.773438 377.773438 200.46875 377.316406 200.132812 C 376.859375 199.792969 376.449219 199.425781 376.089844 199.027344 C 375.730469 198.628906 375.425781 198.207031 375.175781 197.765625 C 374.929688 197.324219 374.742188 196.867188 374.617188 196.398438 C 374.488281 195.929688 374.425781 195.453125 374.425781 194.976562 C 374.425781 194.496094 374.488281 194.023438 374.617188 193.550781 C 374.742188 193.082031 374.929688 192.625 375.175781 192.183594 C 375.425781 191.742188 375.730469 191.320312 376.089844 190.921875 C 376.449219 190.527344 376.859375 190.15625 377.316406 189.820312 C 377.773438 189.480469 378.273438 189.175781 378.8125 188.910156 C 379.351562 188.644531 379.917969 188.421875 380.515625 188.238281 C 381.117188 188.054688 381.734375 187.917969 382.367188 187.824219 C 383.003906 187.730469 383.644531 187.683594 384.292969 187.683594 C 384.941406 187.683594 385.582031 187.730469 386.21875 187.824219 C 386.855469 187.917969 387.472656 188.054688 388.070312 188.238281 C 388.667969 188.421875 389.238281 188.644531 389.777344 188.910156 C 390.3125 189.175781 390.8125 189.480469 391.269531 189.820312 C 391.730469 190.15625 392.136719 190.527344 392.496094 190.921875 C 392.859375 191.320312 393.160156 191.742188 393.410156 192.183594 C 393.65625 192.625 393.84375 193.082031 393.972656 193.550781 C 394.097656 194.023438 394.160156 194.496094 394.160156 194.976562 Z M 394.160156 194.976562 "/><path style=" stroke:none;fill-rule:nonzero;fill:rgb(2.749634%,47.059631%,78.039551%);fill-opacity:1;" d="M 289.933594 199.941406 C 289.933594 200.417969 289.871094 200.894531 289.746094 201.363281 C 289.617188 201.832031 289.429688 202.289062 289.183594 202.730469 C 288.933594 203.171875 288.632812 203.59375 288.273438 203.992188 C 287.910156 204.390625 287.503906 204.757812 287.042969 205.097656 C 286.585938 205.433594 286.089844 205.738281 285.550781 206.003906 C 285.011719 206.269531 284.441406 206.492188 283.84375 206.675781 C 283.246094 206.859375 282.628906 207 281.992188 207.09375 C 281.355469 207.1875 280.714844 207.230469 280.066406 207.230469 C 279.417969 207.230469 278.777344 207.1875 278.140625 207.09375 C 277.507812 207 276.890625 206.859375 276.292969 206.675781 C 275.691406 206.492188 275.125 206.269531 274.585938 206.003906 C 274.046875 205.738281 273.546875 205.433594 273.089844 205.097656 C 272.632812 204.757812 272.222656 204.390625 271.863281 203.992188 C 271.503906 203.59375 271.199219 203.171875 270.949219 202.730469 C 270.703125 202.289062 270.515625 201.832031 270.390625 201.363281 C 270.261719 200.894531 270.199219 200.417969 270.199219 199.941406 C 270.199219 199.460938 270.261719 198.988281 270.390625 198.515625 C 270.515625 198.046875 270.703125 197.589844 270.949219 197.148438 C 271.199219 196.707031 271.503906 196.285156 271.863281 195.886719 C 272.222656 195.492188 272.632812 195.121094 273.089844 194.785156 C 273.546875 194.445312 274.046875 194.144531 274.585938 193.875 C 275.125 193.609375 275.691406 193.386719 276.292969 193.203125 C 276.890625 193.019531 277.507812 192.882812 278.140625 192.789062 C 278.777344 192.695312 279.417969 192.648438 280.066406 192.648438 C 280.714844 192.648438 281.355469 192.695312 281.992188 192.789062 C 282.628906 192.882812 283.246094 193.019531 283.84375 193.203125 C 284.441406 193.386719 285.011719 193.609375 285.550781 193.875 C 286.089844 194.144531 286.585938 194.445312 287.042969 194.785156 C 287.503906 195.121094 287.910156 195.492188 288.273438 195.886719 C 288.632812 196.285156 288.933594 196.707031 289.183594 197.148438 C 289.429688 197.589844 289.617188 198.046875 289.746094 198.515625 C 289.871094 198.988281 289.933594 199.460938 289.933594 199.941406 Z M 289.933594 199.941406 "/><g style="fill:rgb(100%,100%,100%);fill-opacity:1;"><g transform="translate(35.427492, 86.57325)"><path style="stroke:none;" d="M 0.5625 0 L 10.78125 -30.0625 L 19.453125 -30.0625 L 29.796875 0 L 22.578125 0 L 20.78125 -5.328125 L 9.265625 -5.328125 L 7.5 0 Z M 11.109375 -11.390625 L 18.9375 -11.390625 L 15.234375 -22.578125 L 14.859375 -22.578125 Z M 11.109375 -11.390625 "/></g></g><g style="fill:rgb(100%,100%,100%);fill-opacity:1;"><g transform="translate(65.760722, 86.57325)"><path style="stroke:none;" d="M 2.828125 0 L 2.828125 -22.65625 L 9.09375 -22.65625 L 9.09375 -19.25 L 9.453125 -19.25 C 9.898438 -20.207031 10.632812 -21.046875 11.65625 -21.765625 C 12.675781 -22.492188 13.882812 -22.859375 15.28125 -22.859375 L 17.484375 -22.859375 L 17.484375 -16.578125 L 14.859375 -16.578125 C 13.210938 -16.578125 11.90625 -16.019531 10.9375 -14.90625 C 9.976562 -13.789062 9.5 -12.257812 9.5 -10.3125 L 9.5 0 Z M 2.828125 0 "/></g></g><g style="fill:rgb(100%,100%,100%);fill-opacity:1;"><g transform="translate(84.774017, 86.57325)"><path style="stroke:none;" d="M 1.546875 -11.34375 C 1.546875 -13.5625 2.03125 -15.566406 3 -17.359375 C 3.976562 -19.160156 5.378906 -20.585938 7.203125 -21.640625 C 9.035156 -22.703125 11.140625 -23.234375 13.515625 -23.234375 C 16.648438 -23.234375 19.265625 -22.367188 21.359375 -20.640625 C 23.460938 -18.910156 24.671875 -16.65625 24.984375 -13.875 L 18.234375 -13.875 C 17.929688 -14.875 17.363281 -15.679688 16.53125 -16.296875 C 15.695312 -16.910156 14.707031 -17.21875 13.5625 -17.21875 C 11.96875 -17.21875 10.6875 -16.65625 9.71875 -15.53125 C 8.757812 -14.414062 8.28125 -13.019531 8.28125 -11.34375 C 8.28125 -9.65625 8.769531 -8.25 9.75 -7.125 C 10.726562 -6.007812 12.015625 -5.453125 13.609375 -5.453125 C 14.691406 -5.453125 15.644531 -5.738281 16.46875 -6.3125 C 17.300781 -6.882812 17.863281 -7.628906 18.15625 -8.546875 L 24.953125 -8.546875 C 24.578125 -5.835938 23.359375 -3.640625 21.296875 -1.953125 C 19.234375 -0.273438 16.65625 0.5625 13.5625 0.5625 C 11.1875 0.5625 9.078125 0.03125 7.234375 -1.03125 C 5.390625 -2.09375 3.976562 -3.523438 3 -5.328125 C 2.03125 -7.128906 1.546875 -9.132812 1.546875 -11.34375 Z M 1.546875 -11.34375 "/></g></g><g style="fill:rgb(100%,100%,100%);fill-opacity:1;"><g transform="translate(111.333935, 86.57325)"><path style="stroke:none;" d="M 1.546875 -11.34375 C 1.546875 -13.007812 1.84375 -14.566406 2.4375 -16.015625 C 3.03125 -17.472656 3.851562 -18.734375 4.90625 -19.796875 C 5.957031 -20.859375 7.242188 -21.695312 8.765625 -22.3125 C 10.296875 -22.925781 11.96875 -23.234375 13.78125 -23.234375 C 17.351562 -23.234375 20.273438 -22.097656 22.546875 -19.828125 C 24.828125 -17.554688 25.96875 -14.726562 25.96875 -11.34375 C 25.96875 -9.675781 25.671875 -8.113281 25.078125 -6.65625 C 24.484375 -5.195312 23.65625 -3.9375 22.59375 -2.875 C 21.53125 -1.8125 20.234375 -0.972656 18.703125 -0.359375 C 17.179688 0.253906 15.523438 0.5625 13.734375 0.5625 C 11.367188 0.5625 9.253906 0.0351562 7.390625 -1.015625 C 5.523438 -2.066406 4.082031 -3.492188 3.0625 -5.296875 C 2.050781 -7.109375 1.546875 -9.125 1.546875 -11.34375 Z M 8.28125 -11.34375 C 8.28125 -9.613281 8.789062 -8.195312 9.8125 -7.09375 C 10.84375 -6 12.148438 -5.453125 13.734375 -5.453125 C 15.328125 -5.453125 16.644531 -6.003906 17.6875 -7.109375 C 18.726562 -8.210938 19.25 -9.625 19.25 -11.34375 C 19.25 -13.0625 18.726562 -14.46875 17.6875 -15.5625 C 16.644531 -16.664062 15.328125 -17.21875 13.734375 -17.21875 C 12.148438 -17.21875 10.84375 -16.664062 9.8125 -15.5625 C 8.789062 -14.46875 8.28125 -13.0625 8.28125 -11.34375 Z M 8.28125 -11.34375 "/></g></g><g style="fill:rgb(100%,100%,100%);fill-opacity:1;"><g transform="translate(138.837181, 86.57325)"><path style="stroke:none;" d="M 3.3125 -26.1875 C 2.582031 -26.84375 2.21875 -27.710938 2.21875 -28.796875 C 2.21875 -29.890625 2.582031 -30.765625 3.3125 -31.421875 C 4.039062 -32.078125 4.984375 -32.40625 6.140625 -32.40625 C 7.304688 -32.40625 8.25 -32.082031 8.96875 -31.4375 C 9.6875 -30.789062 10.046875 -29.914062 10.046875 -28.8125 C 10.046875 -27.707031 9.6875 -26.828125 8.96875 -26.171875 C 8.25 -25.523438 7.304688 -25.203125 6.140625 -25.203125 C 4.984375 -25.203125 4.039062 -25.53125 3.3125 -26.1875 Z M 2.828125 0 L 2.828125 -22.65625 L 9.5 -22.65625 L 9.5 0 Z M 2.828125 0 "/></g></g><g style="fill:rgb(100%,100%,100%);fill-opacity:1;"><g transform="translate(150.366743, 86.57325)"><path style="stroke:none;" d="M 2.828125 0 L 2.828125 -22.65625 L 9.09375 -22.65625 L 9.09375 -19.25 L 9.453125 -19.25 C 9.898438 -20.207031 10.632812 -21.046875 11.65625 -21.765625 C 12.675781 -22.492188 13.882812 -22.859375 15.28125 -22.859375 L 17.484375 -22.859375 L 17.484375 -16.578125 L 14.859375 -16.578125 C 13.210938 -16.578125 11.90625 -16.019531 10.9375 -14.90625 C 9.976562 -13.789062 9.5 -12.257812 9.5 -10.3125 L 9.5 0 Z M 2.828125 0 "/></g></g><g style="fill:rgb(100%,100%,100%);fill-opacity:1;"><g transform="translate(169.380039, 86.57325)"><path style="stroke:none;" d="M 3.3125 -26.1875 C 2.582031 -26.84375 2.21875 -27.710938 2.21875 -28.796875 C 2.21875 -29.890625 2.582031 -30.765625 3.3125 -31.421875 C 4.039062 -32.078125 4.984375 -32.40625 6.140625 -32.40625 C 7.304688 -32.40625 8.25 -32.082031 8.96875 -31.4375 C 9.6875 -30.789062 10.046875 -29.914062 10.046875 -28.8125 C 10.046875 -27.707031 9.6875 -26.828125 8.96875 -26.171875 C 8.25 -25.523438 7.304688 -25.203125 6.140625 -25.203125 C 4.984375 -25.203125 4.039062 -25.53125 3.3125 -26.1875 Z M 2.828125 0 L 2.828125 -22.65625 L 9.5 -22.65625 L 9.5 0 Z M 2.828125 0 "/></g></g><g style="fill:rgb(100%,100%,100%);fill-opacity:1;"><g transform="translate(180.909601, 86.57325)"><path style="stroke:none;" d="M 1.546875 -6.953125 L 7.59375 -6.953125 C 7.675781 -6.171875 8.035156 -5.570312 8.671875 -5.15625 C 9.316406 -4.75 10.191406 -4.546875 11.296875 -4.546875 C 12.398438 -4.546875 13.253906 -4.734375 13.859375 -5.109375 C 14.472656 -5.492188 14.78125 -6.003906 14.78125 -6.640625 C 14.78125 -7.128906 14.59375 -7.523438 14.21875 -7.828125 C 13.851562 -8.128906 13.375 -8.335938 12.78125 -8.453125 C 12.1875 -8.578125 11.503906 -8.703125 10.734375 -8.828125 C 9.960938 -8.960938 9.175781 -9.085938 8.375 -9.203125 C 7.570312 -9.316406 6.785156 -9.53125 6.015625 -9.84375 C 5.242188 -10.15625 4.5625 -10.539062 3.96875 -11 C 3.375 -11.46875 2.890625 -12.128906 2.515625 -12.984375 C 2.148438 -13.847656 1.96875 -14.859375 1.96875 -16.015625 C 1.96875 -18.046875 2.796875 -19.753906 4.453125 -21.140625 C 6.109375 -22.535156 8.390625 -23.234375 11.296875 -23.234375 C 13.984375 -23.234375 16.171875 -22.609375 17.859375 -21.359375 C 19.554688 -20.109375 20.472656 -18.328125 20.609375 -16.015625 L 14.859375 -16.015625 C 14.753906 -16.734375 14.398438 -17.296875 13.796875 -17.703125 C 13.191406 -18.117188 12.359375 -18.328125 11.296875 -18.328125 C 10.296875 -18.328125 9.492188 -18.140625 8.890625 -17.765625 C 8.285156 -17.398438 7.984375 -16.914062 7.984375 -16.3125 C 7.984375 -15.914062 8.132812 -15.59375 8.4375 -15.34375 C 8.738281 -15.101562 9.144531 -14.921875 9.65625 -14.796875 C 10.164062 -14.671875 10.75 -14.566406 11.40625 -14.484375 C 12.070312 -14.410156 12.769531 -14.316406 13.5 -14.203125 C 14.226562 -14.097656 14.957031 -13.960938 15.6875 -13.796875 C 16.425781 -13.640625 17.125 -13.390625 17.78125 -13.046875 C 18.445312 -12.703125 19.035156 -12.285156 19.546875 -11.796875 C 20.054688 -11.304688 20.460938 -10.648438 20.765625 -9.828125 C 21.066406 -9.015625 21.21875 -8.070312 21.21875 -7 C 21.21875 -4.75 20.34375 -2.925781 18.59375 -1.53125 C 16.84375 -0.132812 14.398438 0.5625 11.265625 0.5625 C 8.085938 0.5625 5.691406 -0.0976562 4.078125 -1.421875 C 2.460938 -2.753906 1.617188 -4.597656 1.546875 -6.953125 Z M 1.546875 -6.953125 "/></g></g></g></svg>