<?xml version="1.0" encoding="UTF-8"?><svg xmlns="http://www.w3.org/2000/svg" xmlns:xlink="http://www.w3.org/1999/xlink" width="300pt" zoomAndPan="magnify" viewBox="0 0 300 93.749996" height="93.749996pt" preserveAspectRatio="xMidYMid meet" version="1.2"><defs><g/><clipPath xml:id="clip1" id="clip1"><path d="M 0.398438 1 L 299.601562 1 L 299.601562 91 L 0.398438 91 Z M 0.398438 1 "/></clipPath></defs><g xml:id="surface1" id="surface1"><g clip-rule="nonzero" clip-path="url(#clip1)"><path style=" stroke:none;fill-rule:nonzero;fill:rgb(100%,100%,100%);fill-opacity:1;" d="M 291.523438 90.941406 L 8.476562 90.941406 C 4.03125 90.941406 0.410156 87.320312 0.410156 82.875 L 0.410156 9.25 C 0.410156 4.804688 4.03125 1.183594 8.476562 1.183594 L 291.523438 1.183594 C 295.96875 1.183594 299.589844 4.804688 299.589844 9.25 L 299.589844 82.875 C 299.589844 87.320312 295.96875 90.941406 291.523438 90.941406 Z M 291.523438 90.941406 "/></g><g style="fill:rgb(0%,0%,0%);fill-opacity:1;"><g transform="translate(19.376295, 35.502433)"><path style="stroke:none;" d="M 1.109375 -9.6875 C 1.109375 -11.082031 1.367188 -12.398438 1.890625 -13.640625 C 2.410156 -14.878906 3.125 -15.941406 4.03125 -16.828125 C 4.9375 -17.722656 6.023438 -18.425781 7.296875 -18.9375 C 8.566406 -19.457031 9.929688 -19.71875 11.390625 -19.71875 C 12.847656 -19.71875 14.210938 -19.457031 15.484375 -18.9375 C 16.765625 -18.414062 17.859375 -17.707031 18.765625 -16.8125 C 19.671875 -15.925781 20.382812 -14.863281 20.90625 -13.625 C 21.425781 -12.394531 21.6875 -11.082031 21.6875 -9.6875 C 21.6875 -7.820312 21.238281 -6.117188 20.34375 -4.578125 C 19.457031 -3.046875 18.226562 -1.835938 16.65625 -0.953125 C 15.082031 -0.078125 13.328125 0.359375 11.390625 0.359375 C 9.929688 0.359375 8.5625 0.101562 7.28125 -0.40625 C 6.007812 -0.914062 4.921875 -1.613281 4.015625 -2.5 C 3.109375 -3.382812 2.394531 -4.445312 1.875 -5.6875 C 1.363281 -6.9375 1.109375 -8.269531 1.109375 -9.6875 Z M 5.640625 -9.6875 C 5.640625 -8 6.175781 -6.601562 7.25 -5.5 C 8.332031 -4.394531 9.710938 -3.84375 11.390625 -3.84375 C 13.054688 -3.84375 14.425781 -4.394531 15.5 -5.5 C 16.582031 -6.601562 17.125 -8 17.125 -9.6875 C 17.125 -11.351562 16.582031 -12.738281 15.5 -13.84375 C 14.425781 -14.957031 13.054688 -15.515625 11.390625 -15.515625 C 9.722656 -15.515625 8.347656 -14.957031 7.265625 -13.84375 C 6.179688 -12.738281 5.640625 -11.351562 5.640625 -9.6875 Z M 5.640625 -9.6875 "/></g></g><g style="fill:rgb(0%,0%,0%);fill-opacity:1;"><g transform="translate(42.132058, 35.502433)"><path style="stroke:none;" d="M 1.90625 0 L 1.90625 -19.359375 L 9.40625 -19.359375 C 11.332031 -19.359375 12.9375 -18.753906 14.21875 -17.546875 C 15.507812 -16.335938 16.15625 -14.785156 16.15625 -12.890625 C 16.15625 -11.640625 15.847656 -10.515625 15.234375 -9.515625 C 14.628906 -8.515625 13.8125 -7.738281 12.78125 -7.1875 C 11.757812 -6.632812 10.632812 -6.359375 9.40625 -6.359375 L 6.28125 -6.359375 L 6.28125 0 Z M 6.28125 -10.0625 L 8.96875 -10.0625 C 9.757812 -10.0625 10.410156 -10.320312 10.921875 -10.84375 C 11.429688 -11.363281 11.6875 -12.046875 11.6875 -12.890625 C 11.6875 -13.710938 11.429688 -14.375 10.921875 -14.875 C 10.421875 -15.375 9.769531 -15.625 8.96875 -15.625 L 6.28125 -15.625 Z M 6.28125 -10.0625 "/></g></g><g style="fill:rgb(0%,0%,0%);fill-opacity:1;"><g transform="translate(58.999683, 35.502433)"><path style="stroke:none;" d="M 1.90625 0 L 1.90625 -19.359375 L 9.484375 -19.359375 C 11.472656 -19.359375 13.113281 -18.765625 14.40625 -17.578125 C 15.695312 -16.390625 16.34375 -14.859375 16.34375 -12.984375 C 16.34375 -11.722656 16.023438 -10.59375 15.390625 -9.59375 C 14.753906 -8.601562 13.925781 -7.847656 12.90625 -7.328125 L 17.046875 0 L 12.171875 0 L 8.875 -6.46875 L 6.28125 -6.46875 L 6.28125 0 Z M 6.28125 -10.203125 L 9.109375 -10.203125 C 9.921875 -10.203125 10.582031 -10.445312 11.09375 -10.9375 C 11.613281 -11.425781 11.875 -12.109375 11.875 -12.984375 C 11.875 -13.773438 11.613281 -14.410156 11.09375 -14.890625 C 10.582031 -15.378906 9.898438 -15.625 9.046875 -15.625 L 6.28125 -15.625 Z M 6.28125 -10.203125 "/></g></g><g style="fill:rgb(0%,0%,0%);fill-opacity:1;"><g transform="translate(76.89368, 35.502433)"><path style="stroke:none;" d="M 1.90625 0 L 1.90625 -19.359375 L 6.28125 -19.359375 L 6.28125 0 Z M 1.90625 0 "/></g></g><g style="fill:rgb(0%,0%,0%);fill-opacity:1;"><g transform="translate(85.077651, 35.502433)"><path style="stroke:none;" d="M 1.90625 0 L 1.90625 -19.359375 L 7.3125 -19.359375 L 12.53125 -6.21875 L 12.6875 -6.21875 L 17.28125 -19.359375 L 22.703125 -19.359375 L 22.703125 0 L 18.46875 0 L 18.46875 -10.953125 L 18.3125 -10.953125 L 14.28125 0 L 10.765625 0 L 6.28125 -11.390625 L 6.125 -11.390625 L 6.125 0 Z M 1.90625 0 "/></g></g><g style="fill:rgb(0%,0%,0%);fill-opacity:1;"><g transform="translate(109.656577, 35.502433)"><path style="stroke:none;" d="M 0.359375 0 L 6.9375 -19.359375 L 12.53125 -19.359375 L 19.1875 0 L 14.546875 0 L 13.375 -3.4375 L 5.96875 -3.4375 L 4.828125 0 Z M 7.15625 -7.328125 L 12.1875 -7.328125 L 9.8125 -14.546875 L 9.578125 -14.546875 Z M 7.15625 -7.328125 "/></g></g><g style="fill:rgb(0%,0%,0%);fill-opacity:1;"><g transform="translate(129.198172, 35.502433)"><path style="stroke:none;" d=""/></g></g><g style="fill:rgb(0%,0%,0%);fill-opacity:1;"><g transform="translate(136.328762, 35.502433)"><path style="stroke:none;" d="M 1.90625 0 L 1.90625 -19.359375 L 14.171875 -19.359375 L 14.171875 -15.625 L 6.28125 -15.625 L 6.28125 -11.609375 L 13 -11.609375 L 13 -7.890625 L 6.28125 -7.890625 L 6.28125 -3.765625 L 14.46875 -3.765625 L 14.46875 0 Z M 1.90625 0 "/></g></g><g style="fill:rgb(0%,0%,0%);fill-opacity:1;"><g transform="translate(151.859401, 35.502433)"><path style="stroke:none;" d="M 1.90625 0 L 1.90625 -19.359375 L 6.28125 -19.359375 L 6.28125 -3.90625 L 13.859375 -3.90625 L 13.859375 0 Z M 1.90625 0 "/></g></g><g style="fill:rgb(0%,0%,0%);fill-opacity:1;"><g transform="translate(166.70129, 35.502433)"><path style="stroke:none;" d=""/></g></g><g style="fill:rgb(0%,0%,0%);fill-opacity:1;"><g transform="translate(173.831879, 35.502433)"><path style="stroke:none;" d="M 1.90625 0 L 1.90625 -19.359375 L 9.484375 -19.359375 C 11.347656 -19.359375 12.8125 -18.875 13.875 -17.90625 C 14.945312 -16.945312 15.484375 -15.71875 15.484375 -14.21875 C 15.484375 -13.363281 15.285156 -12.59375 14.890625 -11.90625 C 14.503906 -11.226562 13.972656 -10.691406 13.296875 -10.296875 L 13.296875 -10.125 C 14.066406 -9.769531 14.726562 -9.21875 15.28125 -8.46875 C 15.84375 -7.726562 16.125 -6.796875 16.125 -5.671875 C 16.125 -4.515625 15.835938 -3.5 15.265625 -2.625 C 14.691406 -1.75 13.953125 -1.09375 13.046875 -0.65625 C 12.140625 -0.21875 11.144531 0 10.0625 0 Z M 6.09375 -3.671875 L 8.90625 -3.671875 C 9.695312 -3.671875 10.320312 -3.878906 10.78125 -4.296875 C 11.25 -4.710938 11.484375 -5.320312 11.484375 -6.125 C 11.484375 -6.863281 11.226562 -7.429688 10.71875 -7.828125 C 10.21875 -8.234375 9.59375 -8.4375 8.84375 -8.4375 L 6.09375 -8.4375 Z M 6.09375 -11.59375 L 8.90625 -11.59375 C 9.601562 -11.59375 10.15625 -11.789062 10.5625 -12.1875 C 10.976562 -12.59375 11.1875 -13.125 11.1875 -13.78125 C 11.1875 -14.375 10.976562 -14.851562 10.5625 -15.21875 C 10.15625 -15.59375 9.613281 -15.78125 8.9375 -15.78125 L 6.09375 -15.78125 Z M 6.09375 -11.59375 "/></g></g><g style="fill:rgb(0%,0%,0%);fill-opacity:1;"><g transform="translate(190.834553, 35.502433)"><path style="stroke:none;" d="M 1.109375 -9.6875 C 1.109375 -11.082031 1.367188 -12.398438 1.890625 -13.640625 C 2.410156 -14.878906 3.125 -15.941406 4.03125 -16.828125 C 4.9375 -17.722656 6.023438 -18.425781 7.296875 -18.9375 C 8.566406 -19.457031 9.929688 -19.71875 11.390625 -19.71875 C 12.847656 -19.71875 14.210938 -19.457031 15.484375 -18.9375 C 16.765625 -18.414062 17.859375 -17.707031 18.765625 -16.8125 C 19.671875 -15.925781 20.382812 -14.863281 20.90625 -13.625 C 21.425781 -12.394531 21.6875 -11.082031 21.6875 -9.6875 C 21.6875 -7.820312 21.238281 -6.117188 20.34375 -4.578125 C 19.457031 -3.046875 18.226562 -1.835938 16.65625 -0.953125 C 15.082031 -0.078125 13.328125 0.359375 11.390625 0.359375 C 9.929688 0.359375 8.5625 0.101562 7.28125 -0.40625 C 6.007812 -0.914062 4.921875 -1.613281 4.015625 -2.5 C 3.109375 -3.382812 2.394531 -4.445312 1.875 -5.6875 C 1.363281 -6.9375 1.109375 -8.269531 1.109375 -9.6875 Z M 5.640625 -9.6875 C 5.640625 -8 6.175781 -6.601562 7.25 -5.5 C 8.332031 -4.394531 9.710938 -3.84375 11.390625 -3.84375 C 13.054688 -3.84375 14.425781 -4.394531 15.5 -5.5 C 16.582031 -6.601562 17.125 -8 17.125 -9.6875 C 17.125 -11.351562 16.582031 -12.738281 15.5 -13.84375 C 14.425781 -14.957031 13.054688 -15.515625 11.390625 -15.515625 C 9.722656 -15.515625 8.347656 -14.957031 7.265625 -13.84375 C 6.179688 -12.738281 5.640625 -11.351562 5.640625 -9.6875 Z M 5.640625 -9.6875 "/></g></g><g style="fill:rgb(0%,0%,0%);fill-opacity:1;"><g transform="translate(213.590316, 35.502433)"><path style="stroke:none;" d="M 0.75 -15.5625 L 0.75 -19.359375 L 15.96875 -19.359375 L 15.96875 -15.5625 L 10.53125 -15.5625 L 10.53125 0 L 6.140625 0 L 6.140625 -15.5625 Z M 0.75 -15.5625 "/></g></g><g style="fill:rgb(0%,0%,0%);fill-opacity:1;"><g transform="translate(230.282377, 35.502433)"><path style="stroke:none;" d="M 1.109375 -9.6875 C 1.109375 -11.082031 1.367188 -12.398438 1.890625 -13.640625 C 2.410156 -14.878906 3.125 -15.941406 4.03125 -16.828125 C 4.9375 -17.722656 6.023438 -18.425781 7.296875 -18.9375 C 8.566406 -19.457031 9.929688 -19.71875 11.390625 -19.71875 C 12.847656 -19.71875 14.210938 -19.457031 15.484375 -18.9375 C 16.765625 -18.414062 17.859375 -17.707031 18.765625 -16.8125 C 19.671875 -15.925781 20.382812 -14.863281 20.90625 -13.625 C 21.425781 -12.394531 21.6875 -11.082031 21.6875 -9.6875 C 21.6875 -7.820312 21.238281 -6.117188 20.34375 -4.578125 C 19.457031 -3.046875 18.226562 -1.835938 16.65625 -0.953125 C 15.082031 -0.078125 13.328125 0.359375 11.390625 0.359375 C 9.929688 0.359375 8.5625 0.101562 7.28125 -0.40625 C 6.007812 -0.914062 4.921875 -1.613281 4.015625 -2.5 C 3.109375 -3.382812 2.394531 -4.445312 1.875 -5.6875 C 1.363281 -6.9375 1.109375 -8.269531 1.109375 -9.6875 Z M 5.640625 -9.6875 C 5.640625 -8 6.175781 -6.601562 7.25 -5.5 C 8.332031 -4.394531 9.710938 -3.84375 11.390625 -3.84375 C 13.054688 -3.84375 14.425781 -4.394531 15.5 -5.5 C 16.582031 -6.601562 17.125 -8 17.125 -9.6875 C 17.125 -11.351562 16.582031 -12.738281 15.5 -13.84375 C 14.425781 -14.957031 13.054688 -15.515625 11.390625 -15.515625 C 9.722656 -15.515625 8.347656 -14.957031 7.265625 -13.84375 C 6.179688 -12.738281 5.640625 -11.351562 5.640625 -9.6875 Z M 9.65625 -21.5625 L 11 -25.78125 L 15.09375 -25.78125 L 12.5625 -21.5625 Z M 9.65625 -21.5625 "/></g></g><g style="fill:rgb(0%,0%,0%);fill-opacity:1;"><g transform="translate(253.03814, 35.502433)"><path style="stroke:none;" d="M 1.90625 0 L 1.90625 -19.359375 L 6.75 -19.359375 L 14.171875 -7.1875 L 14.328125 -7.1875 L 14.328125 -19.359375 L 18.546875 -19.359375 L 18.546875 0 L 13.6875 0 L 6.3125 -12.171875 L 6.140625 -12.171875 L 6.140625 0 Z M 1.90625 0 "/></g></g><g style="fill:rgb(0%,0%,0%);fill-opacity:1;"><g transform="translate(273.489561, 35.502433)"><path style="stroke:none;" d=""/></g></g></g></svg>