<?xml version="1.0" encoding="UTF-8"?>
<svg xmlns="http://www.w3.org/2000/svg" xmlns:xlink="http://www.w3.org/1999/xlink" width="150pt" height="150pt" viewBox="0 0 150 150" version="1.1">
<defs>
<clipPath id="clip1">
  <path d="M 0 0 L 149.921875 0 L 149.921875 149.621094 L 0 149.621094 Z M 0 0 "/>
</clipPath>
</defs>
<g id="surface1">
<g clip-path="url(#clip1)" clip-rule="nonzero">
<path style=" stroke:none;fill-rule:nonzero;fill:rgb(100%,100%,100%);fill-opacity:1;" d="M 107.792969 150.054688 C 110.835938 150.054688 113.824219 148.867188 116.074219 146.617188 L 144.757812 117.996094 C 148.085938 114.675781 149.917969 110.257812 149.917969 105.554688 C 149.917969 100.851562 148.085938 96.433594 144.757812 93.113281 L 116.074219 64.492188 C 112.703125 61.125 107.679688 60.132812 103.277344 61.957031 C 98.882812 63.78125 96.042969 68.03125 96.042969 72.78125 L 96.042969 99.699219 C 49.542969 99.699219 11.714844 61.867188 11.714844 15.371094 L 11.714844 6.003906 C 11.714844 2.765625 9.09375 0.148438 5.859375 0.148438 C 2.621094 0.148438 0 2.765625 0 6.003906 L 0 15.371094 C 0 41.023438 9.992188 65.140625 28.132812 83.28125 C 46.273438 101.421875 70.390625 111.410156 96.042969 111.410156 C 102.5 111.410156 107.757812 106.15625 107.757812 99.699219 L 107.757812 72.78125 C 107.765625 72.773438 107.777344 72.769531 107.789062 72.765625 C 107.789062 72.773438 107.796875 72.773438 107.800781 72.78125 L 136.484375 101.402344 C 137.59375 102.511719 138.207031 103.984375 138.207031 105.554688 C 138.207031 107.125 137.59375 108.597656 136.484375 109.707031 L 107.800781 138.328125 L 107.789062 138.34375 C 107.777344 138.339844 107.765625 138.335938 107.757812 138.332031 C 107.757812 138.328125 107.757812 138.328125 107.757812 138.328125 L 107.757812 131.90625 C 107.757812 128.671875 105.132812 126.050781 101.898438 126.050781 C 98.667969 126.050781 96.042969 128.671875 96.042969 131.90625 L 96.042969 138.328125 C 96.042969 143.078125 98.882812 147.328125 103.277344 149.152344 C 104.742188 149.757812 106.273438 150.054688 107.792969 150.054688 Z M 107.792969 150.054688 "/>
</g>
</g>
</svg>
