<?xml version="1.0" encoding="UTF-8"?>
<svg xmlns="http://www.w3.org/2000/svg" xmlns:xlink="http://www.w3.org/1999/xlink" width="60px" height="60px" viewBox="0 0 60 60" version="1.1">
<defs>
<clipPath id="clip1">
  <path d="M 0 3.980469 L 59.96875 3.980469 L 59.96875 56.03125 L 0 56.03125 Z M 0 3.980469 "/>
</clipPath>
</defs>
<g id="surface1">
<g clip-path="url(#clip1)" clip-rule="nonzero">
<path style=" stroke:none;fill-rule:nonzero;fill:rgb(0.392157%,60.392157%,33.72549%);fill-opacity:1;" d="M 45.039062 4.050781 L 15.054688 3.980469 L 0 29.933594 L 14.933594 55.960938 L 44.917969 56.03125 L 59.96875 30.078125 Z M 45.039062 4.050781 "/>
</g>
<path style="fill:none;stroke-width:5;stroke-linecap:butt;stroke-linejoin:round;stroke:rgb(0%,0%,0%);stroke-opacity:1;stroke-miterlimit:4;" d="M 102.281886 55.175931 C 102.21904 62.506862 97.222782 68.409281 91.095296 68.377885 C 84.983521 68.330791 80.097243 62.36558 80.097243 55.003254 " transform="matrix(0.248624,0,0,0.248839,0.000000719616,3.981033)"/>
<path style="fill:none;stroke-width:5;stroke-linecap:butt;stroke-linejoin:round;stroke:rgb(0%,0%,0%);stroke-opacity:1;stroke-miterlimit:4;" d="M 154.428367 55.56838 C 154.428367 62.89931 149.353551 68.817427 143.241777 68.754635 C 137.11429 68.707541 132.243724 62.758028 132.243724 55.395702 " transform="matrix(0.248624,0,0,0.248839,0.000000719616,3.981033)"/>
<path style=" stroke:none;fill-rule:nonzero;fill:rgb(99.607843%,78.039216%,28.627451%);fill-opacity:1;" d="M 45.121094 23.277344 C 45.304688 23.28125 45.488281 23.292969 45.667969 23.324219 C 45.847656 23.351562 46.023438 23.390625 46.195312 23.445312 C 46.363281 23.5 46.527344 23.5625 46.679688 23.640625 C 46.832031 23.71875 46.972656 23.804688 47.101562 23.902344 C 47.230469 24 47.347656 24.105469 47.449219 24.21875 C 47.550781 24.332031 47.636719 24.453125 47.707031 24.582031 C 47.777344 24.707031 47.828125 24.835938 47.863281 24.972656 C 47.898438 25.105469 47.914062 25.242188 47.914062 25.378906 C 47.914062 25.515625 47.894531 25.648438 47.859375 25.78125 C 47.820312 25.914062 47.765625 26.046875 47.695312 26.171875 C 47.625 26.296875 47.535156 26.414062 47.433594 26.527344 C 47.328125 26.640625 47.210938 26.746094 47.082031 26.839844 C 46.949219 26.9375 46.808594 27.019531 46.652344 27.09375 C 46.5 27.171875 46.335938 27.234375 46.164062 27.285156 C 45.996094 27.335938 45.820312 27.371094 45.636719 27.398438 C 45.457031 27.421875 45.273438 27.433594 45.089844 27.433594 C 44.90625 27.433594 44.722656 27.417969 44.542969 27.390625 C 44.363281 27.363281 44.1875 27.320312 44.015625 27.269531 C 43.847656 27.214844 43.683594 27.148438 43.53125 27.074219 C 43.378906 26.996094 43.238281 26.90625 43.109375 26.8125 C 42.976562 26.714844 42.863281 26.605469 42.761719 26.492188 C 42.660156 26.378906 42.574219 26.257812 42.503906 26.132812 C 42.433594 26.003906 42.382812 25.875 42.347656 25.742188 C 42.3125 25.605469 42.296875 25.472656 42.296875 25.335938 C 42.296875 25.199219 42.316406 25.0625 42.351562 24.929688 C 42.390625 24.796875 42.445312 24.667969 42.515625 24.542969 C 42.585938 24.417969 42.675781 24.296875 42.777344 24.183594 C 42.882812 24.070312 43 23.96875 43.128906 23.871094 C 43.261719 23.777344 43.402344 23.691406 43.558594 23.617188 C 43.710938 23.542969 43.875 23.480469 44.042969 23.429688 C 44.214844 23.378906 44.390625 23.339844 44.574219 23.3125 C 44.753906 23.289062 44.9375 23.277344 45.121094 23.277344 Z M 45.121094 23.277344 "/>
<path style=" stroke:none;fill-rule:nonzero;fill:rgb(99.607843%,78.039216%,28.627451%);fill-opacity:1;" d="M 13.703125 22.640625 C 13.886719 22.640625 14.070312 22.65625 14.25 22.683594 C 14.429688 22.710938 14.605469 22.753906 14.777344 22.808594 C 14.945312 22.859375 15.109375 22.925781 15.261719 23.003906 C 15.414062 23.078125 15.554688 23.167969 15.683594 23.265625 C 15.8125 23.363281 15.929688 23.46875 16.03125 23.582031 C 16.132812 23.695312 16.21875 23.816406 16.289062 23.941406 C 16.359375 24.070312 16.410156 24.199219 16.445312 24.332031 C 16.480469 24.46875 16.496094 24.601562 16.496094 24.738281 C 16.496094 24.875 16.476562 25.011719 16.4375 25.144531 C 16.402344 25.277344 16.347656 25.40625 16.277344 25.535156 C 16.207031 25.660156 16.117188 25.777344 16.015625 25.890625 C 15.910156 26.003906 15.792969 26.105469 15.664062 26.203125 C 15.53125 26.296875 15.386719 26.382812 15.234375 26.457031 C 15.082031 26.53125 14.917969 26.59375 14.746094 26.644531 C 14.578125 26.695312 14.402344 26.734375 14.21875 26.761719 C 14.039062 26.785156 13.855469 26.796875 13.671875 26.796875 C 13.488281 26.796875 13.304688 26.78125 13.125 26.753906 C 12.941406 26.722656 12.765625 26.683594 12.597656 26.628906 C 12.429688 26.578125 12.265625 26.511719 12.113281 26.433594 C 11.960938 26.355469 11.820312 26.269531 11.6875 26.171875 C 11.558594 26.074219 11.445312 25.96875 11.34375 25.855469 C 11.242188 25.742188 11.15625 25.621094 11.085938 25.492188 C 11.015625 25.367188 10.964844 25.238281 10.929688 25.101562 C 10.894531 24.96875 10.875 24.832031 10.878906 24.699219 C 10.878906 24.5625 10.898438 24.425781 10.933594 24.292969 C 10.972656 24.160156 11.027344 24.03125 11.097656 23.902344 C 11.167969 23.777344 11.257812 23.660156 11.359375 23.546875 C 11.464844 23.433594 11.578125 23.328125 11.710938 23.234375 C 11.84375 23.140625 11.984375 23.054688 12.140625 22.980469 C 12.292969 22.90625 12.457031 22.839844 12.625 22.789062 C 12.796875 22.738281 12.972656 22.703125 13.152344 22.675781 C 13.335938 22.652344 13.519531 22.640625 13.703125 22.640625 Z M 13.703125 22.640625 "/>
<path style="fill:none;stroke-width:3;stroke-linecap:round;stroke-linejoin:round;stroke:rgb(0%,0%,0%);stroke-opacity:1;stroke-miterlimit:4;" d="M 95.00746 111.468685 L 105.172803 112.803008 C 113.908399 114.043144 122.675418 114.545478 131.505283 114.310009 L 140.162322 113.6193 " transform="matrix(0.248624,0,0,0.248839,0.000000719616,3.981033)"/>
<path style="fill:none;stroke-width:3;stroke-linecap:round;stroke-linejoin:round;stroke:rgb(0%,0%,0%);stroke-opacity:1;stroke-miterlimit:4;" d="M 146.93398 116.994354 C 146.494058 116.884468 146.085559 116.743187 145.692771 116.554812 C 145.284272 116.366437 144.907196 116.130968 144.561543 115.864103 C 144.200178 115.612936 143.870237 115.314676 143.571718 114.98502 C 143.2732 114.655363 143.021815 114.294311 142.786143 113.917561 C 142.566182 113.540811 142.377644 113.132665 142.220529 112.724519 C 142.079125 112.300675 141.969145 111.876831 141.906299 111.437289 C 141.843453 110.997747 141.827741 110.558205 141.843453 110.118663 C 141.859164 109.679121 141.937722 109.23958 142.031991 108.815736 " transform="matrix(0.248624,0,0,0.248839,0.000000719616,3.981033)"/>
</g>
</svg>
