<?xml version="1.0" encoding="UTF-8"?>
<svg xmlns="http://www.w3.org/2000/svg" xmlns:xlink="http://www.w3.org/1999/xlink" width="60px" height="60px" viewBox="0 0 60 60" version="1.1">
<defs>
<clipPath id="clip1">
  <path d="M 0 1.199219 L 59.96875 1.199219 L 59.96875 58.769531 L 0 58.769531 Z M 0 1.199219 "/>
</clipPath>
</defs>
<g id="surface1">
<g clip-path="url(#clip1)" clip-rule="nonzero">
<path style=" stroke:none;fill-rule:nonzero;fill:rgb(0.392157%,60.392157%,33.72549%);fill-opacity:1;" d="M 49.609375 57.617188 L 30.777344 48.457031 L 12.546875 58.769531 L 15.445312 38.039062 L 0 23.898438 L 20.625 20.246094 L 29.308594 1.199219 L 39.15625 19.675781 L 59.96875 22.039062 L 45.429688 37.105469 Z M 49.609375 57.617188 "/>
</g>
<path style="fill:none;stroke-width:6;stroke-linecap:round;stroke-linejoin:round;stroke:rgb(0%,0%,0%);stroke-opacity:1;stroke-miterlimit:4;" d="M 173.299536 166.790687 C 172.742186 166.826645 172.166858 166.808666 171.609508 166.73675 C 171.052159 166.664834 170.512788 166.538981 169.973418 166.359191 C 169.452026 166.179401 168.930635 165.945674 168.445201 165.658009 C 167.959768 165.388324 167.492313 165.064702 167.078796 164.687142 C 166.6473 164.309583 166.26974 163.896066 165.928139 163.464569 C 165.586538 163.015094 165.280894 162.52966 165.047167 162.026248 C 164.795461 161.522835 164.597692 161.001444 164.453859 160.444094 C 164.310027 159.904724 164.220132 159.347374 164.184174 158.790025 " transform="matrix(0.217267,0,0,0.217267,0.0000450609,1.19936)"/>
<path style=" stroke:none;fill-rule:nonzero;fill:rgb(99.607843%,78.039216%,28.627451%);fill-opacity:1;" d="M 40.984375 31.253906 C 41.085938 31.257812 41.1875 31.265625 41.289062 31.28125 C 41.390625 31.292969 41.492188 31.308594 41.589844 31.328125 C 41.691406 31.347656 41.785156 31.371094 41.882812 31.398438 C 41.980469 31.425781 42.074219 31.457031 42.167969 31.488281 C 42.257812 31.523438 42.351562 31.558594 42.4375 31.597656 C 42.527344 31.640625 42.609375 31.683594 42.695312 31.726562 C 42.777344 31.773438 42.855469 31.824219 42.933594 31.875 C 43.007812 31.925781 43.082031 31.980469 43.152344 32.039062 C 43.21875 32.09375 43.285156 32.152344 43.347656 32.214844 C 43.410156 32.277344 43.464844 32.339844 43.519531 32.40625 C 43.574219 32.472656 43.621094 32.539062 43.667969 32.605469 C 43.710938 32.675781 43.75 32.746094 43.785156 32.816406 C 43.820312 32.890625 43.851562 32.960938 43.878906 33.035156 C 43.90625 33.109375 43.925781 33.183594 43.941406 33.257812 C 43.957031 33.332031 43.96875 33.40625 43.976562 33.484375 C 43.980469 33.558594 43.984375 33.632812 43.980469 33.707031 C 43.976562 33.785156 43.964844 33.859375 43.953125 33.933594 C 43.9375 34.007812 43.921875 34.082031 43.898438 34.152344 C 43.871094 34.226562 43.84375 34.296875 43.8125 34.371094 C 43.777344 34.441406 43.742188 34.507812 43.699219 34.574219 C 43.65625 34.644531 43.609375 34.710938 43.558594 34.773438 C 43.503906 34.835938 43.449219 34.898438 43.390625 34.957031 C 43.332031 35.019531 43.265625 35.074219 43.199219 35.128906 C 43.132812 35.1875 43.0625 35.238281 42.984375 35.289062 C 42.910156 35.335938 42.832031 35.382812 42.753906 35.425781 C 42.671875 35.472656 42.585938 35.511719 42.5 35.550781 C 42.414062 35.585938 42.324219 35.621094 42.234375 35.652344 C 42.140625 35.683594 42.046875 35.710938 41.953125 35.734375 C 41.855469 35.757812 41.757812 35.777344 41.660156 35.796875 C 41.5625 35.8125 41.460938 35.824219 41.363281 35.835938 C 41.261719 35.84375 41.160156 35.851562 41.058594 35.851562 C 40.957031 35.855469 40.855469 35.855469 40.753906 35.847656 C 40.652344 35.84375 40.550781 35.835938 40.449219 35.824219 C 40.347656 35.808594 40.246094 35.792969 40.148438 35.773438 C 40.050781 35.753906 39.953125 35.730469 39.855469 35.703125 C 39.757812 35.679688 39.664062 35.648438 39.570312 35.613281 C 39.480469 35.582031 39.390625 35.542969 39.300781 35.503906 C 39.210938 35.464844 39.128906 35.421875 39.042969 35.375 C 38.960938 35.328125 38.882812 35.28125 38.808594 35.226562 C 38.730469 35.175781 38.65625 35.121094 38.589844 35.066406 C 38.519531 35.007812 38.453125 34.949219 38.390625 34.886719 C 38.332031 34.824219 38.273438 34.761719 38.21875 34.695312 C 38.164062 34.632812 38.117188 34.566406 38.070312 34.496094 C 38.027344 34.425781 37.988281 34.355469 37.953125 34.285156 C 37.917969 34.214844 37.886719 34.140625 37.859375 34.066406 C 37.835938 33.996094 37.8125 33.921875 37.796875 33.84375 C 37.78125 33.769531 37.769531 33.695312 37.761719 33.621094 C 37.757812 33.542969 37.757812 33.46875 37.761719 33.394531 C 37.761719 33.320312 37.773438 33.242188 37.785156 33.167969 C 37.800781 33.09375 37.820312 33.019531 37.84375 32.949219 C 37.867188 32.875 37.894531 32.804688 37.929688 32.734375 C 37.960938 32.664062 38 32.59375 38.039062 32.527344 C 38.082031 32.457031 38.132812 32.394531 38.183594 32.328125 C 38.234375 32.265625 38.289062 32.203125 38.347656 32.144531 C 38.410156 32.085938 38.472656 32.027344 38.539062 31.972656 C 38.605469 31.917969 38.679688 31.863281 38.753906 31.816406 C 38.828125 31.765625 38.90625 31.71875 38.988281 31.675781 C 39.066406 31.632812 39.152344 31.589844 39.238281 31.554688 C 39.324219 31.515625 39.414062 31.480469 39.507812 31.449219 C 39.597656 31.417969 39.691406 31.390625 39.785156 31.367188 C 39.882812 31.34375 39.980469 31.324219 40.078125 31.304688 C 40.175781 31.289062 40.277344 31.277344 40.378906 31.265625 C 40.476562 31.257812 40.578125 31.25 40.679688 31.25 C 40.78125 31.246094 40.882812 31.25 40.984375 31.253906 Z M 40.984375 31.253906 "/>
<path style=" stroke:none;fill-rule:nonzero;fill:rgb(99.607843%,78.039216%,28.627451%);fill-opacity:1;" d="M 19.691406 31.59375 C 19.792969 31.597656 19.894531 31.609375 19.996094 31.621094 C 20.097656 31.632812 20.195312 31.648438 20.296875 31.667969 C 20.394531 31.6875 20.492188 31.710938 20.589844 31.738281 C 20.683594 31.765625 20.78125 31.792969 20.871094 31.828125 C 20.964844 31.863281 21.054688 31.898438 21.144531 31.9375 C 21.230469 31.980469 21.316406 32.023438 21.398438 32.066406 C 21.480469 32.113281 21.5625 32.164062 21.636719 32.214844 C 21.714844 32.265625 21.785156 32.320312 21.855469 32.378906 C 21.925781 32.433594 21.992188 32.492188 22.050781 32.554688 C 22.113281 32.617188 22.171875 32.679688 22.226562 32.746094 C 22.277344 32.8125 22.328125 32.878906 22.371094 32.945312 C 22.417969 33.015625 22.457031 33.085938 22.492188 33.15625 C 22.527344 33.230469 22.558594 33.300781 22.585938 33.375 C 22.609375 33.449219 22.632812 33.523438 22.648438 33.597656 C 22.664062 33.671875 22.675781 33.746094 22.679688 33.824219 C 22.6875 33.898438 22.6875 33.972656 22.683594 34.046875 C 22.679688 34.125 22.671875 34.199219 22.65625 34.273438 C 22.644531 34.347656 22.625 34.421875 22.601562 34.492188 C 22.578125 34.566406 22.550781 34.636719 22.515625 34.710938 C 22.484375 34.78125 22.445312 34.847656 22.402344 34.917969 C 22.359375 34.984375 22.3125 35.050781 22.261719 35.113281 C 22.210938 35.175781 22.15625 35.238281 22.097656 35.296875 C 22.035156 35.359375 21.972656 35.417969 21.90625 35.472656 C 21.835938 35.527344 21.765625 35.578125 21.691406 35.628906 C 21.617188 35.675781 21.539062 35.722656 21.457031 35.769531 C 21.375 35.8125 21.292969 35.851562 21.207031 35.890625 C 21.117188 35.925781 21.03125 35.960938 20.9375 35.992188 C 20.847656 36.023438 20.753906 36.050781 20.65625 36.074219 C 20.5625 36.097656 20.464844 36.117188 20.367188 36.136719 C 20.265625 36.152344 20.167969 36.167969 20.066406 36.175781 C 19.96875 36.1875 19.867188 36.191406 19.765625 36.195312 C 19.660156 36.195312 19.558594 36.195312 19.457031 36.1875 C 19.355469 36.183594 19.253906 36.175781 19.152344 36.164062 C 19.054688 36.148438 18.953125 36.132812 18.855469 36.113281 C 18.753906 36.09375 18.65625 36.070312 18.5625 36.042969 C 18.464844 36.019531 18.371094 35.988281 18.277344 35.953125 C 18.183594 35.921875 18.09375 35.882812 18.007812 35.84375 C 17.917969 35.804688 17.832031 35.761719 17.75 35.714844 C 17.667969 35.667969 17.589844 35.617188 17.511719 35.566406 C 17.4375 35.515625 17.363281 35.460938 17.292969 35.40625 C 17.222656 35.347656 17.160156 35.289062 17.097656 35.226562 C 17.035156 35.164062 16.976562 35.101562 16.925781 35.035156 C 16.871094 34.972656 16.824219 34.90625 16.777344 34.835938 C 16.734375 34.765625 16.691406 34.695312 16.65625 34.625 C 16.621094 34.554688 16.589844 34.480469 16.566406 34.40625 C 16.539062 34.335938 16.519531 34.261719 16.503906 34.183594 C 16.484375 34.109375 16.476562 34.035156 16.46875 33.960938 C 16.464844 33.882812 16.460938 33.808594 16.464844 33.734375 C 16.46875 33.660156 16.476562 33.582031 16.492188 33.507812 C 16.503906 33.433594 16.523438 33.363281 16.546875 33.289062 C 16.570312 33.214844 16.601562 33.144531 16.632812 33.074219 C 16.667969 33.003906 16.703125 32.933594 16.746094 32.867188 C 16.789062 32.796875 16.835938 32.734375 16.886719 32.667969 C 16.9375 32.605469 16.996094 32.542969 17.054688 32.484375 C 17.113281 32.425781 17.175781 32.367188 17.246094 32.3125 C 17.3125 32.257812 17.382812 32.203125 17.457031 32.15625 C 17.53125 32.105469 17.609375 32.058594 17.691406 32.015625 C 17.773438 31.972656 17.855469 31.929688 17.945312 31.894531 C 18.03125 31.855469 18.121094 31.820312 18.210938 31.789062 C 18.304688 31.757812 18.398438 31.730469 18.492188 31.707031 C 18.589844 31.683594 18.683594 31.664062 18.785156 31.648438 C 18.882812 31.628906 18.980469 31.617188 19.082031 31.605469 C 19.183594 31.597656 19.285156 31.589844 19.386719 31.589844 C 19.488281 31.585938 19.589844 31.589844 19.691406 31.59375 Z M 19.691406 31.59375 "/>
<path style="fill:none;stroke-width:7;stroke-linecap:round;stroke-linejoin:round;stroke:rgb(0%,0%,0%);stroke-opacity:1;stroke-miterlimit:4;" d="M 122.832436 106.920561 C 122.418918 115.244846 116.431906 121.699313 109.456047 121.339733 C 102.480188 120.980153 97.194358 114.004294 97.607875 105.644051 " transform="matrix(0.217267,0,0,0.217267,0.0000450609,1.19936)"/>
<path style="fill:none;stroke-width:7;stroke-linecap:round;stroke-linejoin:round;stroke:rgb(0%,0%,0%);stroke-opacity:1;stroke-miterlimit:4;" d="M 177.722374 108.484736 C 178.117912 116.809021 172.796123 123.820837 165.838244 124.162438 C 158.880364 124.50404 152.893352 117.995636 152.497813 109.707309 " transform="matrix(0.217267,0,0,0.217267,0.0000450609,1.19936)"/>
<path style="fill:none;stroke-width:6;stroke-linecap:round;stroke-linejoin:round;stroke:rgb(0%,0%,0%);stroke-opacity:1;stroke-miterlimit:4;" d="M 165.676433 166.37717 C 163.626825 175.924028 149.225632 180.904216 133.54793 177.506181 " transform="matrix(0.217267,0,0,0.217267,0.0000450609,1.19936)"/>
</g>
</svg>
