<?xml version="1.0" encoding="UTF-8"?><svg xmlns="http://www.w3.org/2000/svg" xmlns:xlink="http://www.w3.org/1999/xlink" width="224.87999pt" zoomAndPan="magnify" viewBox="0 0 224.87999 225" height="225pt" preserveAspectRatio="xMidYMid meet" version="1.2"><defs><clipPath xml:id="clip1" id="clip1"><path d="M 68 185 L 102 185 L 102 224.9375 L 68 224.9375 Z M 68 185 "/></clipPath><clipPath xml:id="clip2" id="clip2"><path d="M 3.679688 0.0585938 L 221.066406 0.0585938 L 221.066406 198 L 3.679688 198 Z M 3.679688 0.0585938 "/></clipPath></defs><g xml:id="surface1" id="surface1"><g clip-rule="nonzero" clip-path="url(#clip1)"><path style=" stroke:none;fill-rule:nonzero;fill:rgb(2.749634%,47.059631%,78.039551%);fill-opacity:1;" d="M 93.855469 185.824219 L 75.613281 211.125 L 68.128906 209.761719 L 81.566406 224.921875 L 101.542969 197.414062 Z M 93.855469 185.824219 "/></g><path style=" stroke:none;fill-rule:nonzero;fill:rgb(2.749634%,47.059631%,78.039551%);fill-opacity:1;" d="M 147.894531 185.691406 L 170.496094 207.1875 L 180.257812 207.921875 L 167.191406 221.839844 L 142.476562 198.503906 Z M 147.894531 185.691406 "/><path style=" stroke:none;fill-rule:nonzero;fill:rgb(93.728638%,45.098877%,55.688477%);fill-opacity:1;" d="M 184.921875 167.496094 L 126.789062 144.59375 L 156.472656 61.847656 L 214.605469 84.746094 Z M 184.921875 167.496094 "/><g clip-rule="nonzero" clip-path="url(#clip2)"><path style=" stroke:none;fill-rule:nonzero;fill:rgb(99.609375%,78.039551%,28.62854%);fill-opacity:1;" d="M 3.679688 197.988281 L 221.066406 197.988281 L 112.371094 0.0820312 Z M 3.679688 197.988281 "/></g><path style="fill:none;stroke-width:10;stroke-linecap:butt;stroke-linejoin:round;stroke:rgb(0%,0%,0%);stroke-opacity:1;stroke-miterlimit:4;" d="M 307.588945 154.353771 C 312.306569 168.487641 306.590168 183.152461 294.774857 187.102723 C 282.970172 191.052986 269.592945 182.770177 264.864695 168.615069 " transform="matrix(0.367637,0,0,0.367855,3.680523,0.0834315)"/><path style="fill:none;stroke-width:10;stroke-linecap:butt;stroke-linejoin:round;stroke:rgb(0%,0%,0%);stroke-opacity:1;stroke-miterlimit:4;" d="M 408.12534 120.765919 C 412.853589 134.910408 407.126564 149.575228 395.321878 153.514871 C 383.506567 157.454515 370.12934 149.182325 365.401091 134.99536 " transform="matrix(0.367637,0,0,0.367855,3.680523,0.0834315)"/><path style="fill:none;stroke-width:5;stroke-linecap:round;stroke-linejoin:round;stroke:rgb(0%,0%,0%);stroke-opacity:1;stroke-miterlimit:4;" d="M 328.000107 286.740667 C 325.492541 301.437343 323.664993 315.741117 316.15292 314.445601 C 308.630222 313.160704 308.789601 299.16488 311.297167 284.446966 " transform="matrix(0.367637,0,0,0.367855,3.680523,0.0834315)"/><path style=" stroke:none;fill-rule:nonzero;fill:rgb(0.389099%,60.389709%,33.729553%);fill-opacity:1;" d="M 174.5 64.164062 C 174.59375 64.726562 174.609375 65.292969 174.550781 65.867188 C 174.492188 66.441406 174.363281 67.007812 174.15625 67.574219 C 173.953125 68.140625 173.675781 68.691406 173.332031 69.222656 C 172.988281 69.757812 172.578125 70.269531 172.109375 70.753906 C 171.636719 71.234375 171.113281 71.683594 170.53125 72.101562 C 169.953125 72.515625 169.332031 72.886719 168.667969 73.214844 C 168 73.542969 167.304688 73.824219 166.582031 74.054688 C 165.855469 74.285156 165.113281 74.464844 164.355469 74.589844 C 163.597656 74.710938 162.839844 74.78125 162.078125 74.792969 C 161.316406 74.804688 160.570312 74.761719 159.832031 74.664062 C 159.097656 74.5625 158.390625 74.410156 157.710938 74.199219 C 157.027344 73.992188 156.386719 73.734375 155.785156 73.425781 C 155.1875 73.117188 154.636719 72.765625 154.140625 72.367188 C 153.644531 71.972656 153.207031 71.539062 152.832031 71.070312 C 152.457031 70.597656 152.152344 70.101562 151.914062 69.574219 C 151.675781 69.050781 151.511719 68.507812 151.417969 67.949219 C 151.328125 67.386719 151.3125 66.820312 151.367188 66.246094 C 151.425781 65.671875 151.558594 65.105469 151.761719 64.539062 C 151.96875 63.972656 152.242188 63.425781 152.589844 62.890625 C 152.933594 62.355469 153.339844 61.847656 153.8125 61.363281 C 154.285156 60.878906 154.808594 60.429688 155.386719 60.015625 C 155.964844 59.601562 156.589844 59.226562 157.253906 58.898438 C 157.917969 58.570312 158.613281 58.289062 159.339844 58.058594 C 160.066406 57.828125 160.804688 57.648438 161.5625 57.527344 C 162.320312 57.402344 163.082031 57.332031 163.84375 57.320312 C 164.601562 57.308594 165.351562 57.351562 166.085938 57.453125 C 166.820312 57.550781 167.53125 57.707031 168.210938 57.914062 C 168.890625 58.121094 169.53125 58.378906 170.132812 58.6875 C 170.734375 58.996094 171.28125 59.347656 171.78125 59.746094 C 172.277344 60.140625 172.714844 60.574219 173.089844 61.046875 C 173.464844 61.515625 173.769531 62.011719 174.007812 62.539062 C 174.246094 63.0625 174.410156 63.605469 174.5 64.164062 Z M 174.5 64.164062 "/><path style=" stroke:none;fill-rule:nonzero;fill:rgb(0.389099%,60.389709%,33.729553%);fill-opacity:1;" d="M 99.128906 87.703125 C 99.222656 88.265625 99.238281 88.832031 99.179688 89.40625 C 99.125 89.976562 98.992188 90.546875 98.785156 91.113281 C 98.582031 91.679688 98.304688 92.226562 97.960938 92.761719 C 97.617188 93.296875 97.207031 93.804688 96.738281 94.289062 C 96.265625 94.773438 95.742188 95.222656 95.164062 95.636719 C 94.582031 96.050781 93.960938 96.425781 93.296875 96.753906 C 92.632812 97.082031 91.9375 97.363281 91.210938 97.59375 C 90.484375 97.824219 89.742188 98.003906 88.984375 98.125 C 88.226562 98.25 87.46875 98.320312 86.707031 98.332031 C 85.945312 98.34375 85.199219 98.300781 84.464844 98.199219 C 83.726562 98.101562 83.019531 97.945312 82.339844 97.738281 C 81.65625 97.53125 81.015625 97.273438 80.417969 96.964844 C 79.816406 96.65625 79.265625 96.304688 78.769531 95.90625 C 78.273438 95.511719 77.835938 95.078125 77.460938 94.605469 C 77.085938 94.136719 76.78125 93.640625 76.542969 93.113281 C 76.304688 92.589844 76.140625 92.046875 76.050781 91.484375 C 75.957031 90.925781 75.941406 90.359375 76 89.785156 C 76.054688 89.210938 76.1875 88.644531 76.394531 88.078125 C 76.597656 87.511719 76.875 86.960938 77.21875 86.429688 C 77.5625 85.894531 77.972656 85.382812 78.441406 84.898438 C 78.914062 84.417969 79.4375 83.96875 80.015625 83.550781 C 80.597656 83.136719 81.21875 82.765625 81.882812 82.4375 C 82.546875 82.109375 83.242188 81.828125 83.96875 81.597656 C 84.695312 81.367188 85.4375 81.1875 86.195312 81.0625 C 86.953125 80.941406 87.710938 80.871094 88.472656 80.859375 C 89.234375 80.847656 89.980469 80.890625 90.714844 80.988281 C 91.453125 81.089844 92.160156 81.242188 92.839844 81.453125 C 93.523438 81.660156 94.164062 81.917969 94.761719 82.226562 C 95.363281 82.535156 95.914062 82.886719 96.410156 83.285156 C 96.90625 83.679688 97.34375 84.113281 97.71875 84.582031 C 98.09375 85.054688 98.398438 85.550781 98.636719 86.078125 C 98.875 86.601562 99.039062 87.144531 99.128906 87.703125 Z M 99.128906 87.703125 "/><path style="fill:none;stroke-width:8;stroke-linecap:round;stroke-linejoin:round;stroke:rgb(0%,0%,0%);stroke-opacity:1;stroke-miterlimit:4;" d="M 295.794884 272.500607 C 306.027028 277.151723 316.705434 280.178134 327.861978 281.569221 C 339.007896 282.960308 350.100688 282.652358 361.161604 280.645369 L 364.317312 280.071944 C 375.580108 277.937528 386.247889 274.135931 396.320654 268.677772 C 406.393419 263.208995 415.393031 256.34913 423.31949 248.066321 L 424.807029 246.515949 " transform="matrix(0.367637,0,0,0.367855,3.680523,0.0834315)"/><path style="fill:none;stroke-width:8;stroke-linecap:round;stroke-linejoin:round;stroke:rgb(0%,0%,0%);stroke-opacity:1;stroke-miterlimit:4;" d="M 295.082991 256.147369 C 295.539878 257.304838 295.890512 258.504784 296.124268 259.725967 C 296.347399 260.947151 296.453652 262.189572 296.443026 263.431993 C 296.421776 264.685034 296.294272 265.916836 296.02864 267.138019 C 295.773634 268.359203 295.401749 269.53791 294.912986 270.684761 C 294.413598 271.831611 293.818582 272.925367 293.117314 273.955408 C 292.416045 274.98545 291.608524 275.93054 290.716001 276.801296 C 289.823477 277.672053 288.856577 278.447239 287.815299 279.137473 C 286.774022 279.817088 285.668993 280.390514 284.510837 280.84713 " transform="matrix(0.367637,0,0,0.367855,3.680523,0.0834315)"/><path style=" stroke:none;fill-rule:nonzero;fill:rgb(100%,56.079102%,61.569214%);fill-opacity:1;" d="M 134.300781 84.324219 L 215.183594 84.324219 L 215.183594 172.238281 L 134.300781 172.238281 Z M 134.300781 84.324219 "/><path style=" stroke:none;fill-rule:nonzero;fill:rgb(2.749634%,47.059631%,78.039551%);fill-opacity:1;" d="M 138.355469 126.839844 L 129.207031 138.398438 C 125.320312 143.296875 120.800781 147.523438 115.652344 151.078125 L 114.644531 151.773438 C 111.859375 153.6875 108.9375 155.371094 105.882812 156.816406 L 70.863281 173.414062 L 63.015625 168.632812 L 100.566406 150.269531 C 103.429688 148.867188 106.171875 147.261719 108.789062 145.445312 C 113.492188 142.171875 117.671875 138.328125 121.324219 133.914062 L 132.570312 120.347656 C 134.078125 119.105469 132.570312 121.480469 134.234375 122.496094 L 137.867188 119.976562 C 138.15625 120.148438 138.417969 120.355469 138.65625 120.59375 C 138.894531 120.832031 139.101562 121.097656 139.277344 121.382812 C 139.449219 121.671875 139.589844 121.976562 139.691406 122.296875 C 139.792969 122.617188 139.859375 122.945312 139.882812 123.28125 C 139.90625 123.617188 139.890625 123.949219 139.832031 124.28125 C 139.777344 124.613281 139.683594 124.933594 139.550781 125.246094 C 139.417969 125.554688 139.25 125.84375 139.050781 126.113281 C 138.847656 126.382812 138.617188 126.625 138.355469 126.839844 Z M 138.355469 126.839844 "/><path style=" stroke:none;fill-rule:nonzero;fill:rgb(97.648621%,67.449951%,72.549438%);fill-opacity:1;" d="M 215.183594 84.324219 L 134.300781 84.324219 L 139.816406 82.851562 L 210.769531 83.585938 Z M 215.183594 84.324219 "/><path style=" stroke:none;fill-rule:nonzero;fill:rgb(99.21875%,38.42926%,14.898682%);fill-opacity:1;" d="M 168.910156 136.15625 L 167.308594 142.085938 L 163.929688 142.722656 L 169.359375 144.210938 L 171.132812 137.757812 Z M 168.910156 136.15625 "/><path style=" stroke:none;fill-rule:nonzero;fill:rgb(99.21875%,38.42926%,14.898682%);fill-opacity:1;" d="M 179.367188 136.335938 L 181.28125 142.171875 L 184.6875 142.640625 L 179.335938 144.398438 L 177.023438 137.390625 Z M 179.367188 136.335938 "/><path style=" stroke:none;fill-rule:nonzero;fill:rgb(99.609375%,78.039551%,28.62854%);fill-opacity:1;" d="M 183.871094 141.1875 L 174.460938 135.957031 L 164.824219 140.742188 L 166.890625 130.179688 L 159.359375 122.488281 L 170.042969 121.191406 L 175.03125 111.652344 L 179.570312 121.414062 L 190.183594 123.207031 L 182.300781 130.539062 Z M 183.871094 141.1875 "/><path style="fill:none;stroke-width:1;stroke-linecap:round;stroke-linejoin:round;stroke:rgb(0%,0%,0%);stroke-opacity:1;stroke-miterlimit:4;" d="M 469.210072 340.855019 C 468.487553 340.855019 467.871287 340.610782 467.361273 340.11169 C 466.85126 339.612597 466.585628 338.996696 466.575003 338.285224 " transform="matrix(0.367637,0,0,0.367855,3.680523,0.0834315)"/><path style=" stroke:none;fill-rule:nonzero;fill:rgb(99.21875%,38.42926%,14.898682%);fill-opacity:1;" d="M 179.894531 121.992188 C 180.105469 122.011719 180.304688 122.066406 180.496094 122.144531 C 180.683594 122.226562 180.847656 122.328125 180.984375 122.453125 C 181.121094 122.582031 181.222656 122.71875 181.289062 122.875 C 181.351562 123.027344 181.378906 123.179688 181.363281 123.335938 C 181.34375 123.492188 181.289062 123.640625 181.191406 123.773438 C 181.097656 123.910156 180.96875 124.027344 180.808594 124.121094 C 180.648438 124.214844 180.464844 124.28125 180.265625 124.320312 C 180.0625 124.359375 179.859375 124.371094 179.648438 124.347656 C 179.4375 124.324219 179.234375 124.273438 179.046875 124.191406 C 178.859375 124.113281 178.695312 124.007812 178.558594 123.882812 C 178.421875 123.757812 178.320312 123.617188 178.253906 123.464844 C 178.1875 123.3125 178.164062 123.15625 178.179688 123 C 178.195312 122.84375 178.253906 122.699219 178.347656 122.5625 C 178.445312 122.425781 178.574219 122.3125 178.734375 122.21875 C 178.894531 122.121094 179.074219 122.054688 179.277344 122.015625 C 179.476562 121.976562 179.683594 121.96875 179.894531 121.992188 Z M 179.894531 121.992188 "/><path style=" stroke:none;fill-rule:nonzero;fill:rgb(99.21875%,38.42926%,14.898682%);fill-opacity:1;" d="M 165.796875 120.523438 C 166.007812 120.546875 166.207031 120.597656 166.394531 120.675781 C 166.585938 120.757812 166.746094 120.859375 166.882812 120.988281 C 167.023438 121.113281 167.125 121.253906 167.1875 121.40625 C 167.253906 121.558594 167.277344 121.714844 167.261719 121.871094 C 167.246094 122.027344 167.191406 122.171875 167.09375 122.308594 C 167 122.441406 166.871094 122.558594 166.710938 122.652344 C 166.546875 122.746094 166.367188 122.816406 166.167969 122.855469 C 165.964844 122.894531 165.757812 122.902344 165.546875 122.878906 C 165.335938 122.855469 165.136719 122.804688 164.949219 122.726562 C 164.761719 122.644531 164.597656 122.542969 164.460938 122.414062 C 164.324219 122.289062 164.222656 122.148438 164.15625 121.996094 C 164.089844 121.84375 164.066406 121.691406 164.082031 121.535156 C 164.097656 121.378906 164.15625 121.230469 164.25 121.09375 C 164.347656 120.960938 164.476562 120.84375 164.636719 120.75 C 164.796875 120.65625 164.976562 120.589844 165.179688 120.550781 C 165.378906 120.507812 165.585938 120.5 165.796875 120.523438 Z M 165.796875 120.523438 "/><path style="fill:none;stroke-width:1;stroke-linecap:butt;stroke-linejoin:miter;stroke:rgb(0%,0%,0%);stroke-opacity:1;stroke-miterlimit:10;" d="M 453.250902 322.813362 C 452.98527 325.330061 451.062094 327.177765 448.958289 326.954766 C 446.865109 326.742387 445.356319 324.523019 445.632577 322.006319 " transform="matrix(0.367637,0,0,0.367855,3.680523,0.0834315)"/><path style="fill:none;stroke-width:1;stroke-linecap:butt;stroke-linejoin:miter;stroke:rgb(0%,0%,0%);stroke-opacity:1;stroke-miterlimit:10;" d="M 469.868839 324.19383 C 469.868839 326.721149 468.126293 328.759994 466.011863 328.749375 C 463.886807 328.738756 462.186762 326.668054 462.197387 324.151354 " transform="matrix(0.367637,0,0,0.367855,3.680523,0.0834315)"/><path style="fill:none;stroke-width:1;stroke-linecap:butt;stroke-linejoin:miter;stroke:rgb(0%,0%,0%);stroke-opacity:1;stroke-miterlimit:10;" d="M 467.000014 339.145362 C 466.224368 342.023107 461.772376 343.286766 457.076003 342.001869 " transform="matrix(0.367637,0,0,0.367855,3.680523,0.0834315)"/></g></svg>