<?xml version="1.0" encoding="UTF-8"?>
<svg xmlns="http://www.w3.org/2000/svg" xmlns:xlink="http://www.w3.org/1999/xlink" width="43pt" height="43pt" viewBox="0 0 43 43" version="1.1">
<defs>
<clipPath id="clip1">
  <path d="M 24.527344 11.003906 L 31.402344 11.003906 L 31.402344 18.453125 L 24.527344 18.453125 Z M 24.527344 11.003906 "/>
</clipPath>
<clipPath id="clip2">
  <path d="M 24.5625 11.234375 L 31.15625 10.6875 L 31.746094 17.796875 L 25.152344 18.34375 Z M 24.5625 11.234375 "/>
</clipPath>
<clipPath id="clip3">
  <path d="M 11.472656 12.320312 L 31.175781 10.683594 L 32.808594 30.386719 L 13.109375 32.019531 Z M 11.472656 12.320312 "/>
</clipPath>
</defs>
<g id="surface1">
<path style=" stroke:none;fill-rule:nonzero;fill:rgb(99.607843%,38.039216%,11.372549%);fill-opacity:1;" d="M 21.488281 5.609375 C 21.226562 5.609375 20.96875 5.613281 20.710938 5.628906 C 20.449219 5.640625 20.191406 5.660156 19.933594 5.683594 C 19.671875 5.710938 19.414062 5.742188 19.160156 5.78125 C 18.902344 5.816406 18.644531 5.863281 18.390625 5.914062 C 18.136719 5.964844 17.882812 6.019531 17.628906 6.082031 C 17.378906 6.148438 17.128906 6.214844 16.878906 6.292969 C 16.628906 6.367188 16.382812 6.449219 16.136719 6.535156 C 15.894531 6.625 15.652344 6.71875 15.410156 6.816406 C 15.171875 6.917969 14.933594 7.019531 14.699219 7.132812 C 14.464844 7.242188 14.230469 7.359375 14.003906 7.484375 C 13.773438 7.605469 13.546875 7.734375 13.324219 7.867188 C 13.101562 8 12.882812 8.140625 12.664062 8.285156 C 12.449219 8.429688 12.238281 8.578125 12.027344 8.734375 C 11.820312 8.886719 11.613281 9.046875 11.414062 9.210938 C 11.214844 9.378906 11.015625 9.546875 10.824219 9.722656 C 10.632812 9.894531 10.441406 10.074219 10.257812 10.257812 C 10.074219 10.441406 9.894531 10.632812 9.722656 10.824219 C 9.546875 11.015625 9.378906 11.214844 9.210938 11.414062 C 9.046875 11.613281 8.886719 11.820312 8.734375 12.027344 C 8.578125 12.238281 8.429688 12.449219 8.285156 12.664062 C 8.140625 12.882812 8 13.101562 7.867188 13.324219 C 7.734375 13.546875 7.605469 13.773438 7.484375 14.003906 C 7.359375 14.230469 7.242188 14.464844 7.132812 14.699219 C 7.019531 14.933594 6.917969 15.171875 6.816406 15.410156 C 6.71875 15.652344 6.625 15.894531 6.535156 16.136719 C 6.449219 16.382812 6.367188 16.628906 6.292969 16.878906 C 6.214844 17.128906 6.148438 17.378906 6.082031 17.628906 C 6.019531 17.882812 5.964844 18.136719 5.914062 18.390625 C 5.863281 18.644531 5.816406 18.902344 5.78125 19.160156 C 5.742188 19.414062 5.710938 19.671875 5.683594 19.933594 C 5.660156 20.191406 5.640625 20.449219 5.628906 20.710938 C 5.613281 20.96875 5.609375 21.226562 5.609375 21.488281 C 5.609375 21.75 5.613281 22.007812 5.628906 22.269531 C 5.640625 22.527344 5.660156 22.785156 5.683594 23.046875 C 5.710938 23.304688 5.742188 23.5625 5.78125 23.820312 C 5.816406 24.074219 5.863281 24.332031 5.914062 24.585938 C 5.964844 24.839844 6.019531 25.09375 6.082031 25.347656 C 6.148438 25.597656 6.214844 25.851562 6.292969 26.097656 C 6.367188 26.347656 6.449219 26.59375 6.535156 26.839844 C 6.625 27.082031 6.71875 27.324219 6.816406 27.566406 C 6.917969 27.804688 7.019531 28.042969 7.132812 28.277344 C 7.242188 28.511719 7.359375 28.746094 7.484375 28.972656 C 7.605469 29.203125 7.734375 29.429688 7.867188 29.652344 C 8 29.875 8.140625 30.09375 8.285156 30.3125 C 8.429688 30.527344 8.578125 30.738281 8.734375 30.949219 C 8.886719 31.15625 9.046875 31.363281 9.210938 31.5625 C 9.378906 31.765625 9.546875 31.960938 9.722656 32.152344 C 9.894531 32.347656 10.074219 32.535156 10.257812 32.71875 C 10.441406 32.902344 10.632812 33.082031 10.824219 33.253906 C 11.015625 33.429688 11.214844 33.597656 11.414062 33.765625 C 11.613281 33.929688 11.820312 34.089844 12.027344 34.242188 C 12.238281 34.398438 12.449219 34.546875 12.664062 34.691406 C 12.882812 34.835938 13.101562 34.976562 13.324219 35.109375 C 13.546875 35.242188 13.773438 35.371094 14.003906 35.496094 C 14.230469 35.617188 14.464844 35.734375 14.699219 35.84375 C 14.933594 35.957031 15.171875 36.0625 15.410156 36.160156 C 15.652344 36.257812 15.894531 36.351562 16.136719 36.441406 C 16.382812 36.527344 16.628906 36.609375 16.878906 36.683594 C 17.128906 36.761719 17.378906 36.828125 17.628906 36.894531 C 17.882812 36.957031 18.136719 37.011719 18.390625 37.0625 C 18.644531 37.113281 18.902344 37.160156 19.160156 37.195312 C 19.414062 37.234375 19.671875 37.265625 19.933594 37.292969 C 20.191406 37.316406 20.449219 37.335938 20.710938 37.351562 C 20.96875 37.363281 21.226562 37.367188 21.488281 37.367188 C 21.75 37.367188 22.007812 37.363281 22.269531 37.351562 C 22.527344 37.335938 22.785156 37.316406 23.046875 37.292969 C 23.304688 37.265625 23.5625 37.234375 23.820312 37.195312 C 24.074219 37.160156 24.332031 37.113281 24.585938 37.0625 C 24.839844 37.011719 25.09375 36.957031 25.347656 36.894531 C 25.597656 36.828125 25.851562 36.761719 26.097656 36.683594 C 26.347656 36.609375 26.59375 36.527344 26.839844 36.441406 C 27.082031 36.351562 27.324219 36.257812 27.566406 36.160156 C 27.804688 36.0625 28.042969 35.957031 28.277344 35.84375 C 28.511719 35.734375 28.746094 35.617188 28.972656 35.496094 C 29.203125 35.371094 29.429688 35.242188 29.652344 35.109375 C 29.875 34.976562 30.09375 34.835938 30.3125 34.691406 C 30.527344 34.546875 30.738281 34.398438 30.949219 34.242188 C 31.15625 34.089844 31.363281 33.929688 31.5625 33.765625 C 31.765625 33.597656 31.960938 33.429688 32.152344 33.253906 C 32.34375 33.082031 32.535156 32.902344 32.71875 32.71875 C 32.902344 32.535156 33.082031 32.347656 33.253906 32.152344 C 33.429688 31.960938 33.597656 31.765625 33.765625 31.5625 C 33.929688 31.363281 34.089844 31.15625 34.242188 30.949219 C 34.398438 30.738281 34.546875 30.527344 34.691406 30.3125 C 34.835938 30.09375 34.976562 29.875 35.109375 29.652344 C 35.242188 29.429688 35.371094 29.203125 35.496094 28.972656 C 35.617188 28.746094 35.734375 28.511719 35.84375 28.277344 C 35.957031 28.042969 36.0625 27.804688 36.160156 27.566406 C 36.257812 27.324219 36.351562 27.082031 36.441406 26.839844 C 36.527344 26.59375 36.609375 26.347656 36.683594 26.097656 C 36.761719 25.851562 36.828125 25.597656 36.894531 25.347656 C 36.957031 25.09375 37.011719 24.839844 37.0625 24.585938 C 37.113281 24.332031 37.160156 24.074219 37.195312 23.820312 C 37.234375 23.5625 37.265625 23.304688 37.292969 23.046875 C 37.316406 22.785156 37.335938 22.527344 37.351562 22.269531 C 37.363281 22.007812 37.367188 21.75 37.367188 21.488281 C 37.367188 21.226562 37.363281 20.96875 37.351562 20.710938 C 37.335938 20.449219 37.316406 20.191406 37.292969 19.933594 C 37.265625 19.671875 37.234375 19.414062 37.195312 19.160156 C 37.160156 18.902344 37.113281 18.644531 37.0625 18.390625 C 37.011719 18.136719 36.957031 17.882812 36.894531 17.628906 C 36.828125 17.378906 36.761719 17.128906 36.683594 16.878906 C 36.609375 16.628906 36.527344 16.382812 36.441406 16.136719 C 36.351562 15.894531 36.257812 15.652344 36.160156 15.410156 C 36.0625 15.171875 35.957031 14.933594 35.84375 14.699219 C 35.734375 14.464844 35.617188 14.230469 35.496094 14.003906 C 35.371094 13.773438 35.242188 13.546875 35.109375 13.324219 C 34.976562 13.101562 34.835938 12.882812 34.691406 12.664062 C 34.546875 12.449219 34.398438 12.238281 34.242188 12.027344 C 34.089844 11.820312 33.929688 11.613281 33.765625 11.414062 C 33.597656 11.214844 33.429688 11.015625 33.253906 10.824219 C 33.082031 10.632812 32.902344 10.441406 32.71875 10.257812 C 32.535156 10.074219 32.34375 9.894531 32.152344 9.722656 C 31.960938 9.546875 31.765625 9.378906 31.5625 9.210938 C 31.363281 9.046875 31.15625 8.886719 30.949219 8.734375 C 30.738281 8.578125 30.527344 8.429688 30.3125 8.285156 C 30.09375 8.140625 29.875 8 29.652344 7.867188 C 29.429688 7.734375 29.203125 7.605469 28.972656 7.484375 C 28.746094 7.359375 28.511719 7.242188 28.277344 7.132812 C 28.042969 7.019531 27.804688 6.917969 27.566406 6.816406 C 27.324219 6.71875 27.082031 6.625 26.839844 6.535156 C 26.59375 6.449219 26.347656 6.367188 26.097656 6.292969 C 25.851562 6.214844 25.597656 6.148438 25.347656 6.082031 C 25.09375 6.019531 24.839844 5.964844 24.585938 5.914062 C 24.332031 5.863281 24.074219 5.816406 23.820312 5.78125 C 23.5625 5.742188 23.304688 5.710938 23.046875 5.683594 C 22.785156 5.660156 22.527344 5.640625 22.269531 5.628906 C 22.007812 5.613281 21.75 5.609375 21.488281 5.609375 Z M 21.488281 5.609375 "/>
<path style=" stroke:none;fill-rule:nonzero;fill:rgb(100%,100%,100%);fill-opacity:1;" d="M 28.035156 19.058594 L 19.996094 28.636719 C 19.59375 29.117188 18.875 29.183594 18.398438 28.78125 L 15.527344 26.371094 C 15.046875 25.96875 14.984375 25.25 15.386719 24.769531 L 23.425781 15.191406 C 23.828125 14.710938 24.546875 14.644531 25.027344 15.046875 L 27.898438 17.457031 C 28.378906 17.859375 28.4375 18.578125 28.035156 19.058594 Z M 28.035156 19.058594 "/>
<g clip-path="url(#clip1)" clip-rule="nonzero">
<g clip-path="url(#clip2)" clip-rule="nonzero">
<g clip-path="url(#clip3)" clip-rule="nonzero">
<path style=" stroke:none;fill-rule:nonzero;fill:rgb(100%,100%,100%);fill-opacity:1;" d="M 12.769531 27.9375 L 13.109375 32.019531 L 17.191406 31.683594 L 28.234375 18.636719 L 23.816406 14.894531 Z M 31.121094 15.230469 C 31.507812 14.773438 31.453125 14.082031 30.992188 13.691406 L 28.238281 11.359375 C 27.78125 10.972656 27.089844 11.027344 26.699219 11.488281 L 24.871094 13.644531 L 29.292969 17.390625 Z M 31.121094 15.230469 "/>
</g>
</g>
</g>
<path style=" stroke:none;fill-rule:nonzero;fill:rgb(100%,100%,100%);fill-opacity:1;" d="M 19.226562 29.09375 L 16.296875 29.402344 C 15.808594 29.453125 15.367188 29.097656 15.316406 28.609375 L 15.007812 25.679688 C 14.957031 25.191406 15.3125 24.75 15.800781 24.699219 L 18.730469 24.390625 C 19.214844 24.339844 19.65625 24.695312 19.707031 25.183594 L 20.015625 28.113281 C 20.070312 28.601562 19.714844 29.039062 19.226562 29.09375 Z M 19.226562 29.09375 "/>
</g>
</svg>
