<?xml version="1.0" encoding="UTF-8"?>
<svg xmlns="http://www.w3.org/2000/svg" xmlns:xlink="http://www.w3.org/1999/xlink" width="60pt" height="60pt" viewBox="0 0 60 60" version="1.1">
<g id="surface1">
<path style=" stroke:none;fill-rule:nonzero;fill:rgb(0.392157%,60.392157%,33.72549%);fill-opacity:1;" d="M 59.027344 30 C 59.027344 46.03125 46.03125 59.027344 30 59.027344 C 13.96875 59.027344 0.972656 46.03125 0.972656 30 C 0.972656 13.96875 13.96875 0.972656 30 0.972656 C 46.03125 0.972656 59.027344 13.96875 59.027344 30 Z M 59.027344 30 "/>
<path style=" stroke:none;fill-rule:nonzero;fill:rgb(100%,56.078431%,61.568627%);fill-opacity:1;" d="M 14.484375 40.109375 L 47.332031 40.109375 L 30.910156 10.222656 Z M 14.484375 40.109375 "/>
<path style=" stroke:none;fill-rule:nonzero;fill:rgb(99.607843%,78.039216%,28.627451%);fill-opacity:1;" d="M 24.722656 39.722656 L 24.699219 45.554688 L 21.3125 46.945312 L 27.53125 48.167969 L 28.367188 40.109375 Z M 24.722656 39.722656 "/>
<path style=" stroke:none;fill-rule:nonzero;fill:rgb(99.607843%,78.039216%,28.627451%);fill-opacity:1;" d="M 36.832031 36.222656 L 40.0625 42.183594 L 43.398438 42.402344 L 38.882812 45.851562 L 34.378906 38.691406 Z M 36.832031 36.222656 "/>
<path style="fill:none;stroke-width:10;stroke-linecap:butt;stroke-linejoin:round;stroke:rgb(0%,0%,0%);stroke-opacity:1;stroke-miterlimit:4;" d="M 435.234375 359.085938 C 437.625 373.78125 429.609375 387.351562 417.375 389.390625 C 405.070312 391.359375 393.1875 381.09375 390.726562 366.398438 " transform="matrix(0.0555556,0,0,0.0555556,0,0)"/>
<path style="fill:none;stroke-width:10;stroke-linecap:butt;stroke-linejoin:round;stroke:rgb(0%,0%,0%);stroke-opacity:1;stroke-miterlimit:4;" d="M 539.859375 342 C 542.25 356.695312 534.234375 370.265625 521.929688 372.304688 C 509.695312 374.273438 497.8125 364.007812 495.351562 349.3125 " transform="matrix(0.0555556,0,0,0.0555556,0,0)"/>
<path style="fill:none;stroke-width:5;stroke-linecap:round;stroke-linejoin:round;stroke:rgb(0%,0%,0%);stroke-opacity:1;stroke-miterlimit:4;" d="M 541.96875 471.234375 C 548.015625 484.875 554.765625 497.601562 543.375 502.664062 C 532.054688 507.65625 523.125 496.476562 517.148438 482.835938 " transform="matrix(0.0555556,0,0,0.0555556,0,0)"/>
<path style=" stroke:none;fill-rule:nonzero;fill:rgb(95.686275%,68.627451%,14.509804%);fill-opacity:1;" d="M 36.128906 22.347656 C 36.011719 21.632812 35.136719 21.183594 34.175781 21.34375 C 33.210938 21.5 32.523438 22.207031 32.640625 22.917969 C 32.757812 23.628906 33.632812 24.078125 34.597656 23.921875 C 35.558594 23.761719 36.246094 23.058594 36.128906 22.347656 Z M 36.128906 22.347656 "/>
<path style=" stroke:none;fill-rule:nonzero;fill:rgb(95.686275%,68.627451%,14.509804%);fill-opacity:1;" d="M 21.015625 25.511719 C 20.902344 24.800781 20.027344 24.351562 19.0625 24.507812 C 18.097656 24.667969 17.414062 25.371094 17.53125 26.082031 C 17.644531 26.792969 18.519531 27.242188 19.484375 27.085938 C 20.449219 26.925781 21.132812 26.222656 21.015625 25.511719 Z M 21.015625 25.511719 "/>
<path style="fill:none;stroke-width:8;stroke-linecap:round;stroke-linejoin:round;stroke:rgb(0%,0%,0%);stroke-opacity:1;stroke-miterlimit:4;" d="M 429.46875 479.53125 C 449.929688 488.8125 472.78125 491.625 494.859375 487.617188 L 498.023438 487.054688 C 520.523438 482.835938 541.195312 471.585938 557.015625 455.0625 L 558.492188 453.515625 " transform="matrix(0.0555556,0,0,0.0555556,0,0)"/>
<path style="fill:none;stroke-width:8;stroke-linecap:round;stroke-linejoin:round;stroke:rgb(0%,0%,0%);stroke-opacity:1;stroke-miterlimit:4;" d="M 575.015625 459 C 564.539062 459 556.03125 450.492188 556.03125 440.015625 " transform="matrix(0.0555556,0,0,0.0555556,0,0)"/>
</g>
</svg>
