<?xml version="1.0" encoding="UTF-8"?>
<svg xmlns="http://www.w3.org/2000/svg" xmlns:xlink="http://www.w3.org/1999/xlink" width="60px" height="px" viewBox="0 0 60 60" version="1.1">
<defs>
<clipPath id="clip1">
  <path d="M 0 2.441406 L 59.609375 2.441406 L 59.609375 57.492188 L 0 57.492188 Z M 0 2.441406 "/>
</clipPath>
</defs>
<g id="surface1">
<g clip-path="url(#clip1)" clip-rule="nonzero">
<path style=" stroke:none;fill-rule:nonzero;fill:rgb(99.607843%,78.039216%,28.627451%);fill-opacity:1;" d="M 0 57.480469 L 59.609375 55.878906 L 28.347656 2.453125 Z M 0 57.480469 "/>
</g>
<path style="fill:none;stroke-width:3;stroke-linecap:butt;stroke-linejoin:round;stroke:rgb(0%,0%,0%);stroke-opacity:1;stroke-miterlimit:4;" d="M 123.004011 88.710114 C 123.401408 95.977612 118.821874 102.166341 112.766292 102.507005 C 106.691786 102.847669 101.48777 97.226713 101.052525 89.997066 " transform="matrix(0.206421,0,0,0.206398,0.000000719616,2.452093)"/>
<path style="fill:none;stroke-width:3;stroke-linecap:butt;stroke-linejoin:round;stroke:rgb(0%,0%,0%);stroke-opacity:1;stroke-miterlimit:4;" d="M 174.741392 85.776618 C 175.157713 93.044116 170.578179 99.213919 164.503673 99.554583 C 158.429167 99.895247 153.187303 94.293218 152.770982 87.006794 " transform="matrix(0.206421,0,0,0.206398,0.000000719616,2.452093)"/>
<path style="fill:none;stroke-width:2;stroke-linecap:round;stroke-linejoin:round;stroke:rgb(0%,0%,0%);stroke-opacity:1;stroke-miterlimit:4;" d="M 166.43389 147.323243 C 168.666886 154.269003 171.297279 160.817322 165.506629 162.672048 C 159.734902 164.526774 155.98801 158.678709 153.755014 151.676172 " transform="matrix(0.206421,0,0,0.206398,0.000000719616,2.452093)"/>
<path style=" stroke:none;fill-rule:nonzero;fill:rgb(100%,41.176471%,23.137255%);fill-opacity:1;" d="M 44.363281 24.359375 C 44.40625 24.425781 44.449219 24.488281 44.484375 24.558594 C 44.519531 24.628906 44.550781 24.699219 44.578125 24.773438 C 44.605469 24.847656 44.625 24.925781 44.644531 25.003906 C 44.660156 25.082031 44.675781 25.160156 44.683594 25.242188 C 44.691406 25.324219 44.695312 25.410156 44.691406 25.492188 C 44.691406 25.578125 44.683594 25.664062 44.671875 25.75 C 44.664062 25.835938 44.648438 25.921875 44.625 26.011719 C 44.605469 26.097656 44.582031 26.183594 44.550781 26.273438 C 44.523438 26.359375 44.488281 26.445312 44.449219 26.535156 C 44.410156 26.621094 44.367188 26.707031 44.320312 26.792969 C 44.273438 26.875 44.222656 26.960938 44.167969 27.042969 C 44.113281 27.128906 44.054688 27.207031 43.992188 27.289062 C 43.929688 27.367188 43.863281 27.445312 43.792969 27.523438 C 43.722656 27.597656 43.652344 27.671875 43.574219 27.742188 C 43.5 27.816406 43.421875 27.882812 43.339844 27.949219 C 43.257812 28.015625 43.175781 28.078125 43.089844 28.140625 C 43.003906 28.199219 42.914062 28.253906 42.824219 28.308594 C 42.734375 28.363281 42.640625 28.414062 42.546875 28.460938 C 42.457031 28.503906 42.359375 28.546875 42.265625 28.585938 C 42.171875 28.625 42.074219 28.660156 41.976562 28.691406 C 41.882812 28.722656 41.785156 28.75 41.6875 28.773438 C 41.589844 28.796875 41.492188 28.816406 41.398438 28.832031 C 41.300781 28.84375 41.207031 28.855469 41.109375 28.863281 C 41.015625 28.867188 40.921875 28.867188 40.832031 28.867188 C 40.738281 28.863281 40.648438 28.855469 40.558594 28.847656 C 40.46875 28.835938 40.382812 28.820312 40.296875 28.800781 C 40.214844 28.78125 40.128906 28.757812 40.050781 28.730469 C 39.972656 28.703125 39.894531 28.667969 39.820312 28.632812 C 39.746094 28.597656 39.675781 28.558594 39.609375 28.515625 C 39.539062 28.472656 39.476562 28.425781 39.417969 28.375 C 39.355469 28.324219 39.300781 28.269531 39.246094 28.210938 C 39.195312 28.152344 39.144531 28.09375 39.101562 28.03125 C 39.058594 27.964844 39.015625 27.898438 38.980469 27.832031 C 38.945312 27.761719 38.914062 27.6875 38.886719 27.617188 C 38.859375 27.539062 38.839844 27.464844 38.820312 27.386719 C 38.804688 27.308594 38.792969 27.226562 38.78125 27.144531 C 38.773438 27.0625 38.773438 26.980469 38.773438 26.898438 C 38.773438 26.8125 38.78125 26.726562 38.792969 26.640625 C 38.800781 26.554688 38.816406 26.46875 38.839844 26.378906 C 38.859375 26.292969 38.882812 26.207031 38.914062 26.117188 C 38.941406 26.03125 38.976562 25.941406 39.015625 25.855469 C 39.054688 25.769531 39.097656 25.683594 39.144531 25.597656 C 39.191406 25.511719 39.242188 25.429688 39.296875 25.347656 C 39.351562 25.261719 39.410156 25.179688 39.472656 25.101562 C 39.535156 25.023438 39.601562 24.945312 39.671875 24.867188 C 39.742188 24.792969 39.8125 24.71875 39.890625 24.648438 C 39.964844 24.574219 40.042969 24.507812 40.125 24.441406 C 40.207031 24.375 40.289062 24.3125 40.378906 24.25 C 40.464844 24.191406 40.550781 24.132812 40.640625 24.082031 C 40.730469 24.027344 40.824219 23.976562 40.917969 23.929688 C 41.007812 23.882812 41.105469 23.839844 41.199219 23.800781 C 41.292969 23.761719 41.390625 23.730469 41.488281 23.699219 C 41.582031 23.667969 41.679688 23.640625 41.777344 23.617188 C 41.875 23.59375 41.972656 23.574219 42.066406 23.558594 C 42.164062 23.546875 42.257812 23.535156 42.355469 23.527344 C 42.449219 23.523438 42.542969 23.519531 42.632812 23.523438 C 42.726562 23.527344 42.816406 23.53125 42.90625 23.542969 C 42.996094 23.554688 43.082031 23.570312 43.167969 23.589844 C 43.25 23.609375 43.335938 23.632812 43.414062 23.660156 C 43.492188 23.6875 43.570312 23.71875 43.644531 23.757812 C 43.71875 23.792969 43.789062 23.832031 43.855469 23.875 C 43.925781 23.917969 43.988281 23.964844 44.050781 24.015625 C 44.109375 24.066406 44.164062 24.121094 44.21875 24.179688 C 44.269531 24.234375 44.320312 24.296875 44.363281 24.359375 Z M 44.363281 24.359375 "/>
<path style=" stroke:none;fill-rule:nonzero;fill:rgb(100%,41.176471%,23.137255%);fill-opacity:1;" d="M 16.371094 23.871094 C 16.476562 23.875 16.582031 23.886719 16.6875 23.898438 C 16.789062 23.910156 16.894531 23.925781 16.996094 23.945312 C 17.097656 23.964844 17.199219 23.988281 17.296875 24.015625 C 17.398438 24.039062 17.496094 24.070312 17.589844 24.105469 C 17.6875 24.140625 17.78125 24.175781 17.871094 24.21875 C 17.960938 24.257812 18.050781 24.300781 18.136719 24.347656 C 18.222656 24.394531 18.304688 24.445312 18.382812 24.496094 C 18.460938 24.550781 18.535156 24.605469 18.609375 24.664062 C 18.679688 24.722656 18.75 24.78125 18.8125 24.84375 C 18.875 24.90625 18.9375 24.972656 18.992188 25.039062 C 19.046875 25.105469 19.097656 25.175781 19.144531 25.246094 C 19.191406 25.316406 19.234375 25.386719 19.269531 25.460938 C 19.308594 25.535156 19.339844 25.609375 19.367188 25.683594 C 19.394531 25.761719 19.414062 25.835938 19.433594 25.914062 C 19.449219 25.988281 19.460938 26.066406 19.46875 26.144531 C 19.476562 26.222656 19.476562 26.300781 19.476562 26.378906 C 19.472656 26.457031 19.464844 26.53125 19.449219 26.609375 C 19.4375 26.6875 19.417969 26.761719 19.394531 26.835938 C 19.371094 26.910156 19.339844 26.984375 19.308594 27.058594 C 19.273438 27.132812 19.234375 27.203125 19.191406 27.273438 C 19.148438 27.34375 19.101562 27.410156 19.046875 27.476562 C 18.996094 27.542969 18.9375 27.609375 18.878906 27.667969 C 18.816406 27.730469 18.75 27.789062 18.683594 27.847656 C 18.613281 27.90625 18.539062 27.960938 18.464844 28.011719 C 18.386719 28.0625 18.308594 28.109375 18.226562 28.15625 C 18.140625 28.203125 18.054688 28.246094 17.964844 28.285156 C 17.875 28.324219 17.785156 28.359375 17.691406 28.390625 C 17.597656 28.425781 17.5 28.453125 17.402344 28.480469 C 17.304688 28.503906 17.203125 28.527344 17.101562 28.542969 C 17 28.5625 16.898438 28.578125 16.796875 28.589844 C 16.691406 28.597656 16.585938 28.605469 16.484375 28.609375 C 16.378906 28.613281 16.273438 28.609375 16.167969 28.605469 C 16.0625 28.601562 15.957031 28.59375 15.855469 28.582031 C 15.75 28.570312 15.648438 28.554688 15.542969 28.535156 C 15.441406 28.515625 15.34375 28.492188 15.242188 28.464844 C 15.140625 28.4375 15.046875 28.40625 14.949219 28.375 C 14.855469 28.339844 14.761719 28.300781 14.667969 28.261719 C 14.578125 28.222656 14.492188 28.179688 14.40625 28.132812 C 14.320312 28.085938 14.238281 28.035156 14.15625 27.980469 C 14.078125 27.929688 14.003906 27.875 13.933594 27.816406 C 13.859375 27.757812 13.792969 27.695312 13.726562 27.632812 C 13.664062 27.570312 13.605469 27.507812 13.550781 27.441406 C 13.492188 27.371094 13.441406 27.304688 13.394531 27.234375 C 13.347656 27.164062 13.308594 27.089844 13.269531 27.015625 C 13.234375 26.945312 13.199219 26.871094 13.171875 26.792969 C 13.148438 26.71875 13.125 26.644531 13.105469 26.566406 C 13.089844 26.488281 13.078125 26.410156 13.070312 26.335938 C 13.0625 26.257812 13.0625 26.179688 13.066406 26.101562 C 13.070312 26.023438 13.078125 25.945312 13.089844 25.871094 C 13.105469 25.792969 13.121094 25.71875 13.148438 25.640625 C 13.171875 25.566406 13.199219 25.492188 13.234375 25.421875 C 13.265625 25.347656 13.304688 25.277344 13.347656 25.207031 C 13.390625 25.136719 13.441406 25.066406 13.492188 25 C 13.542969 24.933594 13.601562 24.871094 13.660156 24.808594 C 13.722656 24.746094 13.789062 24.6875 13.859375 24.628906 C 13.925781 24.574219 14 24.519531 14.078125 24.46875 C 14.152344 24.417969 14.234375 24.367188 14.316406 24.320312 C 14.398438 24.277344 14.484375 24.234375 14.574219 24.195312 C 14.664062 24.15625 14.753906 24.117188 14.847656 24.085938 C 14.945312 24.054688 15.039062 24.023438 15.136719 24 C 15.234375 23.972656 15.335938 23.953125 15.4375 23.933594 C 15.539062 23.914062 15.640625 23.902344 15.746094 23.890625 C 15.847656 23.878906 15.953125 23.871094 16.058594 23.871094 C 16.164062 23.867188 16.265625 23.867188 16.371094 23.871094 Z M 16.371094 23.871094 "/>
<path style="fill:none;stroke-width:3;stroke-linecap:round;stroke-linejoin:round;stroke:rgb(0%,0%,0%);stroke-opacity:1;stroke-miterlimit:4;" d="M 111.403786 144.673635 C 113.788172 145.998439 116.286099 147.11506 118.840798 148.061349 C 121.41442 148.988712 124.044814 149.726817 126.713055 150.256739 C 129.400219 150.78666 132.106308 151.127324 134.83132 151.240879 C 137.556332 151.373359 140.281344 151.297656 143.006356 150.994844 L 144.558099 150.824512 C 147.320958 150.5217 150.04597 149.991778 152.733135 149.253672 C 155.420299 148.515567 158.012846 147.569278 160.548621 146.414806 C 163.084396 145.279259 165.525552 143.935529 167.853167 142.421467 C 170.180781 140.888479 172.37593 139.204085 174.457536 137.330433 L 175.233408 136.63018 " transform="matrix(0.206421,0,0,0.206398,0.000000719616,2.452093)"/>
<path style="fill:none;stroke-width:3;stroke-linecap:round;stroke-linejoin:round;stroke:rgb(0%,0%,0%);stroke-opacity:1;stroke-miterlimit:4;" d="M 182.992122 139.904339 C 182.386564 139.847562 181.79993 139.752933 181.213295 139.582601 C 180.626661 139.431194 180.05895 139.204085 179.510163 138.939124 C 178.961375 138.655238 178.450436 138.333499 177.977343 137.97391 C 177.485327 137.595394 177.050082 137.179027 176.652685 136.705883 C 176.255287 136.251664 175.914661 135.759594 175.611881 135.229672 C 175.309102 134.69975 175.063094 134.150903 174.873857 133.564204 C 174.665697 132.977505 174.533231 132.390806 174.457536 131.785181 C 174.400765 131.179556 174.381841 130.573931 174.419689 129.968306 " transform="matrix(0.206421,0,0,0.206398,0.000000719616,2.452093)"/>
</g>
</svg>
