<?xml version="1.0" encoding="UTF-8"?>
<svg xmlns="http://www.w3.org/2000/svg" xmlns:xlink="http://www.w3.org/1999/xlink" width="80pt" height="80pt" viewBox="0 0 80 80" version="1.1">
<defs>
<clipPath id="clip1">
  <path d="M 0 0 L 79.957031 0 L 79.957031 79.796875 L 0 79.796875 Z M 0 0 "/>
</clipPath>
</defs>
<g id="surface1">
<g clip-path="url(#clip1)" clip-rule="nonzero">
<path style=" stroke:none;fill-rule:nonzero;fill:rgb(100%,100%,100%);fill-opacity:1;" d="M 57.488281 80.027344 C 59.113281 80.027344 60.707031 79.394531 61.90625 78.195312 L 77.203125 62.929688 C 78.980469 61.160156 79.957031 58.804688 79.957031 56.296875 C 79.957031 53.789062 78.980469 51.433594 77.203125 49.660156 L 61.90625 34.394531 C 60.109375 32.601562 57.429688 32.070312 55.082031 33.042969 C 52.738281 34.015625 51.222656 36.28125 51.222656 38.816406 L 51.222656 53.171875 C 26.421875 53.171875 6.246094 32.996094 6.246094 8.199219 L 6.246094 3.203125 C 6.246094 1.476562 4.847656 0.078125 3.125 0.078125 C 1.398438 0.078125 0 1.476562 0 3.203125 L 0 8.199219 C 0 21.878906 5.328125 34.742188 15.003906 44.417969 C 24.679688 54.089844 37.539062 59.417969 51.222656 59.417969 C 54.667969 59.417969 57.46875 56.617188 57.46875 53.171875 L 57.46875 38.816406 C 57.476562 38.8125 57.480469 38.8125 57.488281 38.808594 C 57.488281 38.8125 57.492188 38.8125 57.492188 38.816406 L 72.792969 54.082031 C 73.382812 54.671875 73.710938 55.457031 73.710938 56.296875 C 73.710938 57.132812 73.382812 57.917969 72.792969 58.511719 L 57.492188 73.777344 L 57.488281 73.78125 C 57.480469 73.78125 57.476562 73.777344 57.46875 73.777344 C 57.46875 73.777344 57.46875 73.773438 57.46875 73.773438 L 57.46875 70.351562 C 57.46875 68.625 56.070312 67.226562 54.347656 67.226562 C 52.621094 67.226562 51.222656 68.625 51.222656 70.351562 L 51.222656 73.773438 C 51.222656 76.308594 52.738281 78.574219 55.082031 79.546875 C 55.863281 79.871094 56.679688 80.027344 57.488281 80.027344 Z M 57.488281 80.027344 "/>
</g>
</g>
</svg>
