<?xml version="1.0" encoding="UTF-8"?>
<svg xmlns="http://www.w3.org/2000/svg" xmlns:xlink="http://www.w3.org/1999/xlink" width="60pt" height="60pt" viewBox="0 0 60 60" version="1.1">
<g id="surface1">
<path style=" stroke:none;fill-rule:nonzero;fill:rgb(2.745098%,47.058824%,78.039216%);fill-opacity:1;" d="M 59.027344 30 C 59.027344 46.03125 46.03125 59.027344 30 59.027344 C 13.96875 59.027344 0.972656 46.03125 0.972656 30 C 0.972656 13.96875 13.96875 0.972656 30 0.972656 C 46.03125 0.972656 59.027344 13.96875 59.027344 30 Z M 59.027344 30 "/>
<path style=" stroke:none;fill-rule:nonzero;fill:rgb(99.607843%,78.039216%,28.627451%);fill-opacity:1;" d="M 36.511719 10.554688 L 19.792969 14.71875 L 15.039062 31.277344 L 27.003906 43.675781 L 43.722656 39.511719 L 48.472656 22.949219 Z M 36.511719 10.554688 "/>
<path style=" stroke:none;fill-rule:nonzero;fill:rgb(100%,56.078431%,61.568627%);fill-opacity:1;" d="M 29.167969 41.730469 L 29.148438 47.058594 L 26.054688 48.328125 L 31.734375 49.445312 L 32.496094 42.085938 Z M 29.167969 41.730469 "/>
<path style=" stroke:none;fill-rule:nonzero;fill:rgb(100%,56.078431%,61.568627%);fill-opacity:1;" d="M 40.230469 38.535156 L 43.179688 43.980469 L 46.230469 44.179688 L 42.101562 47.332031 L 37.992188 40.789062 Z M 40.230469 38.535156 "/>
<path style="fill:none;stroke-width:10;stroke-linecap:butt;stroke-linejoin:round;stroke:rgb(0%,0%,0%);stroke-opacity:1;stroke-miterlimit:4;" d="M 316.96875 404.085938 C 319.21875 417.585938 311.90625 429.960938 300.65625 431.789062 C 289.476562 433.617188 278.578125 424.195312 276.398438 410.765625 " transform="matrix(0.0555556,0,0,0.0555556,0,0)"/>
<path style="fill:none;stroke-width:10;stroke-linecap:butt;stroke-linejoin:round;stroke:rgb(0%,0%,0%);stroke-opacity:1;stroke-miterlimit:4;" d="M 412.523438 388.476562 C 414.703125 401.90625 407.390625 414.351562 396.210938 416.179688 C 385.03125 418.007812 374.132812 408.585938 371.953125 395.15625 " transform="matrix(0.0555556,0,0,0.0555556,0,0)"/>
<path style=" stroke:none;fill-rule:nonzero;fill:rgb(100%,56.078431%,61.568627%);fill-opacity:1;" d="M 30.859375 23.472656 C 30.753906 22.820312 29.953125 22.410156 29.074219 22.554688 C 28.195312 22.699219 27.566406 23.34375 27.671875 23.992188 C 27.78125 24.644531 28.578125 25.054688 29.460938 24.910156 C 30.339844 24.765625 30.964844 24.121094 30.859375 23.472656 Z M 30.859375 23.472656 "/>
<path style=" stroke:none;fill-rule:nonzero;fill:rgb(100%,56.078431%,61.568627%);fill-opacity:1;" d="M 14.722656 26.871094 C 14.617188 26.222656 13.816406 25.8125 12.9375 25.957031 C 12.054688 26.097656 11.429688 26.742188 11.535156 27.394531 C 11.640625 28.042969 12.441406 28.453125 13.320312 28.308594 C 14.203125 28.164062 14.828125 27.523438 14.722656 26.871094 Z M 14.722656 26.871094 "/>
<path style="fill:none;stroke-width:8;stroke-linecap:round;stroke-linejoin:round;stroke:rgb(0%,0%,0%);stroke-opacity:1;stroke-miterlimit:4;" d="M 336.375 505.898438 L 363.445312 502.664062 C 386.15625 499.921875 410.34375 495.84375 432.351562 489.445312 L 454.21875 482.132812 " transform="matrix(0.0555556,0,0,0.0555556,0,0)"/>
<path style="fill:none;stroke-width:8;stroke-linecap:round;stroke-linejoin:round;stroke:rgb(0%,0%,0%);stroke-opacity:1;stroke-miterlimit:4;" d="M 469.335938 487.125 C 459.773438 487.125 451.96875 479.390625 451.96875 469.828125 " transform="matrix(0.0555556,0,0,0.0555556,0,0)"/>
</g>
</svg>
