<?xml version="1.0" encoding="UTF-8"?>
<svg xmlns="http://www.w3.org/2000/svg" xmlns:xlink="http://www.w3.org/1999/xlink" width="60pt" height="60pt" viewBox="0 0 60 60" version="1.1">
<g id="surface1">
<path style=" stroke:none;fill-rule:nonzero;fill:rgb(99.607843%,78.039216%,28.627451%);fill-opacity:1;" d="M 59.027344 30 C 59.027344 46.03125 46.03125 59.027344 30 59.027344 C 13.96875 59.027344 0.972656 46.03125 0.972656 30 C 0.972656 13.96875 13.96875 0.972656 30 0.972656 C 46.03125 0.972656 59.027344 13.96875 59.027344 30 Z M 59.027344 30 "/>
<path style=" stroke:none;fill-rule:nonzero;fill:rgb(2.745098%,47.058824%,78.039216%);fill-opacity:1;" d="M 17.394531 13.332031 L 45.289062 13.332031 L 45.289062 41.226562 L 17.394531 41.226562 Z M 17.394531 13.332031 "/>
<path style=" stroke:none;fill-rule:nonzero;fill:rgb(100%,41.176471%,23.137255%);fill-opacity:1;" d="M 23.582031 41.226562 L 23.5625 46.828125 L 20.308594 48.160156 L 26.277344 49.332031 L 27.15625 41.226562 Z M 23.582031 41.226562 "/>
<path style=" stroke:none;fill-rule:nonzero;fill:rgb(100%,41.176471%,23.137255%);fill-opacity:1;" d="M 34.941406 41.226562 L 34.515625 46.769531 L 37.234375 48.480469 L 31.84375 49.328125 L 31.527344 41.226562 Z M 34.941406 41.226562 "/>
<path style=" stroke:none;fill-rule:nonzero;fill:rgb(100%,41.176471%,23.137255%);fill-opacity:1;" d="M 17.074219 24.347656 C 17.074219 23.65625 16.046875 23.09375 14.78125 23.09375 C 13.515625 23.09375 12.488281 23.65625 12.488281 24.347656 C 12.488281 25.039062 13.515625 25.601562 14.78125 25.601562 C 16.046875 25.601562 17.074219 25.039062 17.074219 24.347656 Z M 17.074219 24.347656 "/>
<path style=" stroke:none;fill-rule:nonzero;fill:rgb(100%,41.176471%,23.137255%);fill-opacity:1;" d="M 31.367188 22 C 31.367188 21.308594 30.34375 20.746094 29.074219 20.746094 C 27.808594 20.746094 26.78125 21.308594 26.78125 22 C 26.78125 22.691406 27.808594 23.253906 29.074219 23.253906 C 30.34375 23.253906 31.367188 22.691406 31.367188 22 Z M 31.367188 22 "/>
<path style="fill:none;stroke-width:10;stroke-linecap:butt;stroke-linejoin:round;stroke:rgb(0%,0%,0%);stroke-opacity:1;stroke-miterlimit:4;" d="M 329.414062 353.25 C 329.414062 367.59375 319.78125 379.195312 307.828125 379.195312 C 295.875 379.195312 286.171875 367.59375 286.171875 353.25 " transform="matrix(0.0555556,0,0,0.0555556,0,0)"/>
<path style="fill:none;stroke-width:10;stroke-linecap:butt;stroke-linejoin:round;stroke:rgb(0%,0%,0%);stroke-opacity:1;stroke-miterlimit:4;" d="M 431.226562 353.25 C 431.226562 367.59375 421.523438 379.195312 409.570312 379.195312 C 397.617188 379.195312 387.984375 367.59375 387.984375 353.25 " transform="matrix(0.0555556,0,0,0.0555556,0,0)"/>
<path style="fill:none;stroke-width:11;stroke-linecap:round;stroke-linejoin:round;stroke:rgb(0%,0%,0%);stroke-opacity:1;stroke-miterlimit:4;" d="M 410.132812 439.945312 C 410.132812 457.664062 397.6875 472.078125 382.289062 472.078125 C 366.890625 472.078125 354.445312 457.664062 354.445312 439.945312 " transform="matrix(0.0555556,0,0,0.0555556,0,0)"/>
</g>
</svg>
